<?xml version="1.0" encoding="UTF-8" standalone="no"?><svg xmlns="http://www.w3.org/2000/svg" xmlns:xlink="http://www.w3.org/1999/xlink" contentScriptType="application/ecmascript" contentStyleType="text/css" height="124px" preserveAspectRatio="none" style="width:281px;height:124px;background:#FFFFFF;" version="1.1" viewBox="0 0 281 124" width="281px" zoomAndPan="magnify"><defs><filter height="300%" id="fce3l6j2zmalm" width="300%" x="-1" y="-1"><feGaussianBlur result="blurOut" stdDeviation="2.0"/><feColorMatrix in="blurOut" result="blurOut2" type="matrix" values="0 0 0 0 0 0 0 0 0 0 0 0 0 0 0 0 0 0 .4 0"/><feOffset dx="4.0" dy="4.0" in="blurOut2" result="blurOut3"/><feBlend in="SourceGraphic" in2="blurOut3" mode="normal"/></filter></defs><g><!--MD5=[759135ad3c95b532fd300177e50d1d88]
class ButtonHal--><rect codeLine="1" fill="#FEFECE" filter="url(#fce3l6j2zmalm)" height="103.3438" id="ButtonHal" style="stroke:#A80036;stroke-width:1.5;" width="260" x="7" y="7"/><ellipse cx="105.75" cy="23" fill="#ADD1B2" rx="11" ry="11" style="stroke:#A80036;stroke-width:1.0;"/><path d="M108.5156,18.875 Q108.6719,18.6563 108.8594,18.5469 Q109.0469,18.4375 109.2656,18.4375 Q109.6406,18.4375 109.875,18.6953 Q110.1094,18.9531 110.1094,19.5625 L110.1094,21.0156 Q110.1094,21.625 109.875,21.8906 Q109.6406,22.1563 109.2656,22.1563 Q108.9219,22.1563 108.7188,21.9531 Q108.5156,21.7656 108.4063,21.25 Q108.3594,20.8906 108.1719,20.7031 Q107.8438,20.3281 107.2344,20.1094 Q106.625,19.8906 106,19.8906 Q105.2344,19.8906 104.6016,20.2188 Q103.9688,20.5469 103.4766,21.2969 Q102.9844,22.0469 102.9844,23.0781 L102.9844,24.1719 Q102.9844,25.4063 103.875,26.2266 Q104.7656,27.0469 106.3594,27.0469 Q107.2969,27.0469 107.9531,26.7969 Q108.3438,26.6406 108.7656,26.2031 Q109.0313,25.9375 109.1797,25.8594 Q109.3281,25.7813 109.5313,25.7813 Q109.8594,25.7813 110.1172,26.0391 Q110.375,26.2969 110.375,26.6406 Q110.375,26.9844 110.0313,27.3906 Q109.5313,27.9688 108.7344,28.2969 Q107.6563,28.75 106.3594,28.75 Q104.8438,28.75 103.6406,28.125 Q102.6563,27.625 101.9688,26.5547 Q101.2813,25.4844 101.2813,24.2031 L101.2813,23.0469 Q101.2813,21.7188 101.8984,20.5703 Q102.5156,19.4219 103.6094,18.8047 Q104.7031,18.1875 105.9375,18.1875 Q106.6719,18.1875 107.3203,18.3516 Q107.9688,18.5156 108.5156,18.875 Z " fill="#000000"/><text fill="#000000" font-family="sans-serif" font-size="12" lengthAdjust="spacing" textLength="54" x="126.25" y="27.9102">ButtonHal</text><line style="stroke:#A80036;stroke-width:1.5;" x1="8" x2="266" y1="39" y2="39"/><line style="stroke:#A80036;stroke-width:1.5;" x1="8" x2="266" y1="47" y2="47"/><ellipse cx="18" cy="58" fill="#84BE84" rx="3" ry="3" style="stroke:#038048;stroke-width:1.0;"/><text fill="#000000" font-family="sans-serif" font-size="11" lengthAdjust="spacing" text-decoration="underline" textLength="234" x="27" y="62.4189">initButtons(buttonEvent : button_handler_t) : bool</text><ellipse cx="18" cy="71.8359" fill="#84BE84" rx="3" ry="3" style="stroke:#038048;stroke-width:1.0;"/><text fill="#000000" font-family="sans-serif" font-size="11" lengthAdjust="spacing" text-decoration="underline" textLength="189" x="27" y="76.2549">addCustomButton(index : uint8_t) : bool</text><ellipse cx="18" cy="85.6719" fill="#84BE84" rx="3" ry="3" style="stroke:#038048;stroke-width:1.0;"/><text fill="#000000" font-family="sans-serif" font-size="11" lengthAdjust="spacing" textLength="54" x="27" y="90.0908">ButtonHal()</text><ellipse cx="18" cy="99.5078" fill="#84BE84" rx="3" ry="3" style="stroke:#038048;stroke-width:1.0;"/><text fill="#000000" font-family="sans-serif" font-size="11" lengthAdjust="spacing" textLength="60" x="27" y="103.9268">~ButtonHal()</text><!--MD5=[33fe3c1e4a98a88e8606a4b4d687fcdc]
@startuml ButtonHal
class ButtonHal{
    'Public
    + {static} initButtons(buttonEvent : button_handler_t) : bool
    + {static} addCustomButton(index : uint8_t) : bool
    + ButtonHal() 
    + ~ButtonHal() 
}
@enduml 

@startuml ButtonHal
class ButtonHal{
    + {static} initButtons(buttonEvent : button_handler_t) : bool
    + {static} addCustomButton(index : uint8_t) : bool
    + ButtonHal() 
    + ~ButtonHal() 
}
@enduml 

PlantUML version 1.2022.0(Tue Jan 11 17:16:42 CET 2022)
(GPL source distribution)
Java Runtime: Java(TM) SE Runtime Environment
JVM: Java HotSpot(TM) Client VM
Default Encoding: Cp1252
Language: fr
Country: CH
--></g></svg>