<?xml version="1.0" encoding="UTF-8" standalone="no"?><svg xmlns="http://www.w3.org/2000/svg" xmlns:xlink="http://www.w3.org/1999/xlink" contentScriptType="application/ecmascript" contentStyleType="text/css" height="248px" preserveAspectRatio="none" style="width:173px;height:248px;background:#FFFFFF;" version="1.1" viewBox="0 0 173 248" width="173px" zoomAndPan="magnify"><defs><filter height="300%" id="fi2lxozwtuipg" width="300%" x="-1" y="-1"><feGaussianBlur result="blurOut" stdDeviation="2.0"/><feColorMatrix in="blurOut" result="blurOut2" type="matrix" values="0 0 0 0 0 0 0 0 0 0 0 0 0 0 0 0 0 0 .4 0"/><feOffset dx="4.0" dy="4.0" in="blurOut2" result="blurOut3"/><feBlend in="SourceGraphic" in2="blurOut3" mode="normal"/></filter></defs><g><!--MD5=[dcda66dabdb739ec36f1175150e3c9d5]
class Factory--><rect codeLine="1" fill="#FEFECE" filter="url(#fi2lxozwtuipg)" height="227.8672" id="Factory" style="stroke:#A80036;stroke-width:1.5;" width="152" x="7" y="7"/><ellipse cx="59.25" cy="23" fill="#ADD1B2" rx="11" ry="11" style="stroke:#A80036;stroke-width:1.0;"/><path d="M62.0156,18.875 Q62.1719,18.6563 62.3594,18.5469 Q62.5469,18.4375 62.7656,18.4375 Q63.1406,18.4375 63.375,18.6953 Q63.6094,18.9531 63.6094,19.5625 L63.6094,21.0156 Q63.6094,21.625 63.375,21.8906 Q63.1406,22.1563 62.7656,22.1563 Q62.4219,22.1563 62.2188,21.9531 Q62.0156,21.7656 61.9063,21.25 Q61.8594,20.8906 61.6719,20.7031 Q61.3438,20.3281 60.7344,20.1094 Q60.125,19.8906 59.5,19.8906 Q58.7344,19.8906 58.1016,20.2188 Q57.4688,20.5469 56.9766,21.2969 Q56.4844,22.0469 56.4844,23.0781 L56.4844,24.1719 Q56.4844,25.4063 57.375,26.2266 Q58.2656,27.0469 59.8594,27.0469 Q60.7969,27.0469 61.4531,26.7969 Q61.8438,26.6406 62.2656,26.2031 Q62.5313,25.9375 62.6797,25.8594 Q62.8281,25.7813 63.0313,25.7813 Q63.3594,25.7813 63.6172,26.0391 Q63.875,26.2969 63.875,26.6406 Q63.875,26.9844 63.5313,27.3906 Q63.0313,27.9688 62.2344,28.2969 Q61.1563,28.75 59.8594,28.75 Q58.3438,28.75 57.1406,28.125 Q56.1563,27.625 55.4688,26.5547 Q54.7813,25.4844 54.7813,24.2031 L54.7813,23.0469 Q54.7813,21.7188 55.3984,20.5703 Q56.0156,19.4219 57.1094,18.8047 Q58.2031,18.1875 59.4375,18.1875 Q60.1719,18.1875 60.8203,18.3516 Q61.4688,18.5156 62.0156,18.875 Z " fill="#000000"/><text fill="#000000" font-family="sans-serif" font-size="12" lengthAdjust="spacing" textLength="39" x="79.75" y="27.9102">Factory</text><line style="stroke:#A80036;stroke-width:1.5;" x1="8" x2="158" y1="39" y2="39"/><text fill="#000000" font-family="sans-serif" font-size="11" lengthAdjust="spacing" text-decoration="underline" textLength="102" x="27" y="54.4189">AppController *pApp;</text><text fill="#000000" font-family="sans-serif" font-size="11" lengthAdjust="spacing" textLength="0" x="30" y="68.2549"/><polygon fill="none" points="18,72.6719,22,76.6719,18,80.6719,14,76.6719" style="stroke:#B38D22;stroke-width:1.0;"/><text fill="#000000" font-family="sans-serif" font-size="11" lengthAdjust="spacing" text-decoration="underline" textLength="99" x="27" y="82.0908">LedA : LedController</text><polygon fill="none" points="18,86.5078,22,90.5078,18,94.5078,14,90.5078" style="stroke:#B38D22;stroke-width:1.0;"/><text fill="#000000" font-family="sans-serif" font-size="11" lengthAdjust="spacing" text-decoration="underline" textLength="98" x="27" y="95.9268">LedB : LedController</text><polygon fill="none" points="18,100.3438,22,104.3438,18,108.3438,14,104.3438" style="stroke:#B38D22;stroke-width:1.0;"/><text fill="#000000" font-family="sans-serif" font-size="11" lengthAdjust="spacing" text-decoration="underline" textLength="98" x="27" y="109.7627">LedC : LedController</text><polygon fill="none" points="18,114.1797,22,118.1797,18,122.1797,14,118.1797" style="stroke:#B38D22;stroke-width:1.0;"/><text fill="#000000" font-family="sans-serif" font-size="11" lengthAdjust="spacing" text-decoration="underline" textLength="98" x="27" y="123.5986">LedD : LedController</text><text fill="#000000" font-family="sans-serif" font-size="11" lengthAdjust="spacing" textLength="0" x="30" y="137.4346"/><polygon fill="none" points="18,141.8516,22,145.8516,18,149.8516,14,145.8516" style="stroke:#B38D22;stroke-width:1.0;"/><text fill="#000000" font-family="sans-serif" font-size="11" lengthAdjust="spacing" text-decoration="underline" textLength="126" x="27" y="151.2705">pbutton : ButtonController*</text><line style="stroke:#A80036;stroke-width:1.5;" x1="8" x2="158" y1="157.6875" y2="157.6875"/><ellipse cx="18" cy="168.6875" fill="#84BE84" rx="3" ry="3" style="stroke:#038048;stroke-width:1.0;"/><text fill="#000000" font-family="sans-serif" font-size="11" lengthAdjust="spacing" text-decoration="underline" textLength="70" x="27" y="173.1064">init(void) : void</text><ellipse cx="18" cy="182.5234" fill="#84BE84" rx="3" ry="3" style="stroke:#038048;stroke-width:1.0;"/><text fill="#000000" font-family="sans-serif" font-size="11" lengthAdjust="spacing" text-decoration="underline" textLength="79" x="27" y="186.9424">build(void) : void</text><ellipse cx="18" cy="196.3594" fill="#84BE84" rx="3" ry="3" style="stroke:#038048;stroke-width:1.0;"/><text fill="#000000" font-family="sans-serif" font-size="11" lengthAdjust="spacing" text-decoration="underline" textLength="79" x="27" y="200.7783">start(void) : void</text><polygon fill="#FFFF44" points="18,205.1953,22,209.1953,18,213.1953,14,209.1953" style="stroke:#B38D22;stroke-width:1.0;"/><text fill="#000000" font-family="sans-serif" font-size="11" lengthAdjust="spacing" textLength="45" x="27" y="214.6143">Factory()</text><polygon fill="#FFFF44" points="18,219.0313,22,223.0313,18,227.0313,14,223.0313" style="stroke:#B38D22;stroke-width:1.0;"/><text fill="#000000" font-family="sans-serif" font-size="11" lengthAdjust="spacing" textLength="51" x="27" y="228.4502">~Factory()</text><!--MD5=[92d4b68a406811178df113b58266557d]
@startuml Factory
class Factory{
'Public
    + {static} init(void) : void
    + {static} build(void) : void
    + {static} start(void) : void
'Private
    # Factory()
    # ~Factory()

    {static} AppController *pApp;

    # {static} LedA : LedController
    # {static} LedB : LedController
    # {static} LedC : LedController
    # {static} LedD : LedController

    # {static} pbutton : ButtonController*
}
@enduml

@startuml Factory
class Factory{
    + {static} init(void) : void
    + {static} build(void) : void
    + {static} start(void) : void
    # Factory()
    # ~Factory()

    {static} AppController *pApp;

    # {static} LedA : LedController
    # {static} LedB : LedController
    # {static} LedC : LedController
    # {static} LedD : LedController

    # {static} pbutton : ButtonController*
}
@enduml

PlantUML version 1.2022.0(Tue Jan 11 17:16:42 CET 2022)
(GPL source distribution)
Java Runtime: Java(TM) SE Runtime Environment
JVM: Java HotSpot(TM) Client VM
Default Encoding: Cp1252
Language: fr
Country: CH
--></g></svg>