<?xml version="1.0" encoding="UTF-8" standalone="no"?><svg xmlns="http://www.w3.org/2000/svg" xmlns:xlink="http://www.w3.org/1999/xlink" contentScriptType="application/ecmascript" contentStyleType="text/css" height="1729px" preserveAspectRatio="none" style="width:1456px;height:1729px;background:#FFFFFF;" version="1.1" viewBox="0 0 1456 1729" width="1456px" zoomAndPan="magnify"><defs><filter height="300%" id="f1qa62ysgkqv9j" width="300%" x="-1" y="-1"><feGaussianBlur result="blurOut" stdDeviation="2.0"/><feColorMatrix in="blurOut" result="blurOut2" type="matrix" values="0 0 0 0 0 0 0 0 0 0 0 0 0 0 0 0 0 0 .4 0"/><feOffset dx="4.0" dy="4.0" in="blurOut2" result="blurOut3"/><feBlend in="SourceGraphic" in2="blurOut3" mode="normal"/></filter></defs><g><!--MD5=[c60679dfbe80eab0cae5e3add7b10464]
cluster src--><polygon fill="#FFFFFF" filter="url(#f1qa62ysgkqv9j)" points="16,6,44,6,51,29.6094,204,29.6094,204,368,16,368,16,6" style="stroke:#000000;stroke-width:1.5;"/><line style="stroke:#000000;stroke-width:1.5;" x1="16" x2="51" y1="29.6094" y2="29.6094"/><text fill="#000000" font-family="sans-serif" font-size="14" font-weight="bold" lengthAdjust="spacing" textLength="22" x="20" y="22.5332">src</text><!--MD5=[f1bfd0c86200df33217d05b3d4e31ea9]
cluster src.factory--><polygon fill="#FFFFFF" filter="url(#f1qa62ysgkqv9j)" points="76,50,130,50,137,73.6094,180,73.6094,180,150,76,150,76,50" style="stroke:#000000;stroke-width:1.5;"/><line style="stroke:#000000;stroke-width:1.5;" x1="76" x2="137" y1="73.6094" y2="73.6094"/><text fill="#000000" font-family="sans-serif" font-size="14" font-weight="bold" lengthAdjust="spacing" textLength="48" x="80" y="66.5332">factory</text><!--MD5=[3a9f6a46443545a4f7bbc60ec5843fde]
cluster src.app--><polygon fill="#FFFFFF" filter="url(#f1qa62ysgkqv9j)" points="40,244,72,244,79,267.6094,180,267.6094,180,344,40,344,40,244" style="stroke:#000000;stroke-width:1.5;"/><line style="stroke:#000000;stroke-width:1.5;" x1="40" x2="79" y1="267.6094" y2="267.6094"/><text fill="#000000" font-family="sans-serif" font-size="14" font-weight="bold" lengthAdjust="spacing" textLength="26" x="44" y="260.5332">app</text><!--MD5=[b28fcb397abe995d6d4652e4c54b3002]
cluster common--><polygon fill="#FFFFFF" filter="url(#f1qa62ysgkqv9j)" points="228,200,293,200,300,223.6094,1439,223.6094,1439,1722,228,1722,228,200" style="stroke:#000000;stroke-width:1.5;"/><line style="stroke:#000000;stroke-width:1.5;" x1="228" x2="300" y1="223.6094" y2="223.6094"/><text fill="#000000" font-family="sans-serif" font-size="14" font-weight="bold" lengthAdjust="spacing" textLength="59" x="232" y="216.5332">common</text><!--MD5=[711ba1bb85b1183b2a74c869091ea33a]
cluster common.hal--><polygon fill="#FFFFFF" filter="url(#f1qa62ysgkqv9j)" points="1190,462,1217,462,1224,485.6094,1415,485.6094,1415,562,1190,562,1190,462" style="stroke:#000000;stroke-width:1.5;"/><line style="stroke:#000000;stroke-width:1.5;" x1="1190" x2="1224" y1="485.6094" y2="485.6094"/><text fill="#000000" font-family="sans-serif" font-size="14" font-weight="bold" lengthAdjust="spacing" textLength="21" x="1194" y="478.5332">hal</text><!--MD5=[747b7b9e3a8de63e073f42fc62cf22ba]
cluster common.gpio--><polygon fill="#FFFFFF" filter="url(#f1qa62ysgkqv9j)" points="487,244,524,244,531,267.6094,783,267.6094,783,344,487,344,487,244" style="stroke:#000000;stroke-width:1.5;"/><line style="stroke:#000000;stroke-width:1.5;" x1="487" x2="531" y1="267.6094" y2="267.6094"/><text fill="#000000" font-family="sans-serif" font-size="14" font-weight="bold" lengthAdjust="spacing" textLength="31" x="491" y="260.5332">gpio</text><!--MD5=[ce98cf0d5e8d99c4f7205a243ab13a2a]
cluster common.xf--><polygon fill="#FFFFFF" filter="url(#f1qa62ysgkqv9j)" points="252,418,271,418,278,441.6094,1166,441.6094,1166,1422,252,1422,252,418" style="stroke:#000000;stroke-width:1.5;"/><line style="stroke:#000000;stroke-width:1.5;" x1="252" x2="278" y1="441.6094" y2="441.6094"/><text fill="#000000" font-family="sans-serif" font-size="14" font-weight="bold" lengthAdjust="spacing" textLength="13" x="256" y="434.5332">xf</text><!--MD5=[ac5c9d8c0b0c334a953a73c2be1bf514]
cluster common.xf.adapt--><polygon fill="#FFFFFF" filter="url(#f1qa62ysgkqv9j)" points="989,1298,1034,1298,1041,1321.6094,1117,1321.6094,1117,1398,989,1398,989,1298" style="stroke:#000000;stroke-width:1.5;"/><line style="stroke:#000000;stroke-width:1.5;" x1="989" x2="1041" y1="1321.6094" y2="1321.6094"/><text fill="#000000" font-family="sans-serif" font-size="14" font-weight="bold" lengthAdjust="spacing" textLength="39" x="993" y="1314.5332">adapt</text><!--MD5=[a4a689a2c415c288e3438b64dcd5efaf]
cluster common.xf.core--><polygon fill="#FFFFFF" filter="url(#f1qa62ysgkqv9j)" points="276,462,314,462,321,485.6094,965,485.6094,965,1398,276,1398,276,462" style="stroke:#000000;stroke-width:1.5;"/><line style="stroke:#000000;stroke-width:1.5;" x1="276" x2="321" y1="485.6094" y2="485.6094"/><text fill="#000000" font-family="sans-serif" font-size="14" font-weight="bold" lengthAdjust="spacing" textLength="32" x="280" y="478.5332">core</text><!--MD5=[5d7efdfd4b434fe9d48ecfa4960d2941]
cluster common.xf.queue--><polygon fill="#FFFFFF" filter="url(#f1qa62ysgkqv9j)" points="997,998,1048,998,1055,1021.6094,1134,1021.6094,1134,1114,997,1114,997,998" style="stroke:#000000;stroke-width:1.5;"/><line style="stroke:#000000;stroke-width:1.5;" x1="997" x2="1055" y1="1021.6094" y2="1021.6094"/><text fill="#000000" font-family="sans-serif" font-size="14" font-weight="bold" lengthAdjust="spacing" textLength="45" x="1001" y="1014.5332">queue</text><!--MD5=[5d8470f44c6bfab2895ba96be3bf0cd9]
cluster common.core--><polygon fill="#FFFFFF" filter="url(#f1qa62ysgkqv9j)" points="1190,1298,1228,1298,1235,1321.6094,1284,1321.6094,1284,1398,1190,1398,1190,1298" style="stroke:#000000;stroke-width:1.5;"/><line style="stroke:#000000;stroke-width:1.5;" x1="1190" x2="1235" y1="1321.6094" y2="1321.6094"/><text fill="#000000" font-family="sans-serif" font-size="14" font-weight="bold" lengthAdjust="spacing" textLength="32" x="1194" y="1314.5332">core</text><!--MD5=[bac52f36a6d32a84b9d0c7791197e719]
cluster common.pool--><polygon fill="#FFFFFF" filter="url(#f1qa62ysgkqv9j)" points="1091,1472,1128,1472,1135,1495.6094,1226,1495.6094,1226,1698,1091,1698,1091,1472" style="stroke:#000000;stroke-width:1.5;"/><line style="stroke:#000000;stroke-width:1.5;" x1="1091" x2="1135" y1="1495.6094" y2="1495.6094"/><text fill="#000000" font-family="sans-serif" font-size="14" font-weight="bold" lengthAdjust="spacing" textLength="31" x="1095" y="1488.5332">pool</text><!--MD5=[6c017822dce3d2cd0a5b5294c05802ed]
class src.factory.Factory--><rect codeLine="4" fill="#FEFECE" filter="url(#f1qa62ysgkqv9j)" height="48" id="src.factory.Factory" style="stroke:#A80036;stroke-width:1.5;" width="71" x="92.5" y="86"/><ellipse cx="107.5" cy="102" fill="#ADD1B2" rx="11" ry="11" style="stroke:#A80036;stroke-width:1.0;"/><path d="M110.2656,97.875 Q110.4219,97.6563 110.6094,97.5469 Q110.7969,97.4375 111.0156,97.4375 Q111.3906,97.4375 111.625,97.6953 Q111.8594,97.9531 111.8594,98.5625 L111.8594,100.0156 Q111.8594,100.625 111.625,100.8906 Q111.3906,101.1563 111.0156,101.1563 Q110.6719,101.1563 110.4688,100.9531 Q110.2656,100.7656 110.1563,100.25 Q110.1094,99.8906 109.9219,99.7031 Q109.5938,99.3281 108.9844,99.1094 Q108.375,98.8906 107.75,98.8906 Q106.9844,98.8906 106.3516,99.2188 Q105.7188,99.5469 105.2266,100.2969 Q104.7344,101.0469 104.7344,102.0781 L104.7344,103.1719 Q104.7344,104.4063 105.625,105.2266 Q106.5156,106.0469 108.1094,106.0469 Q109.0469,106.0469 109.7031,105.7969 Q110.0938,105.6406 110.5156,105.2031 Q110.7813,104.9375 110.9297,104.8594 Q111.0781,104.7813 111.2813,104.7813 Q111.6094,104.7813 111.8672,105.0391 Q112.125,105.2969 112.125,105.6406 Q112.125,105.9844 111.7813,106.3906 Q111.2813,106.9688 110.4844,107.2969 Q109.4063,107.75 108.1094,107.75 Q106.5938,107.75 105.3906,107.125 Q104.4063,106.625 103.7188,105.5547 Q103.0313,104.4844 103.0313,103.2031 L103.0313,102.0469 Q103.0313,100.7188 103.6484,99.5703 Q104.2656,98.4219 105.3594,97.8047 Q106.4531,97.1875 107.6875,97.1875 Q108.4219,97.1875 109.0703,97.3516 Q109.7188,97.5156 110.2656,97.875 Z " fill="#000000"/><text fill="#000000" font-family="sans-serif" font-size="12" lengthAdjust="spacing" textLength="39" x="121.5" y="106.9102">Factory</text><line style="stroke:#A80036;stroke-width:1.5;" x1="93.5" x2="162.5" y1="118" y2="118"/><line style="stroke:#A80036;stroke-width:1.5;" x1="93.5" x2="162.5" y1="126" y2="126"/><!--MD5=[c3be5aa1737403670dfebe631965416b]
class src.app.AppController--><rect codeLine="9" fill="#FEFECE" filter="url(#f1qa62ysgkqv9j)" height="48" id="src.app.AppController" style="stroke:#A80036;stroke-width:1.5;" width="107" x="56.5" y="280"/><ellipse cx="71.5" cy="296" fill="#ADD1B2" rx="11" ry="11" style="stroke:#A80036;stroke-width:1.0;"/><path d="M74.2656,291.875 Q74.4219,291.6563 74.6094,291.5469 Q74.7969,291.4375 75.0156,291.4375 Q75.3906,291.4375 75.625,291.6953 Q75.8594,291.9531 75.8594,292.5625 L75.8594,294.0156 Q75.8594,294.625 75.625,294.8906 Q75.3906,295.1563 75.0156,295.1563 Q74.6719,295.1563 74.4688,294.9531 Q74.2656,294.7656 74.1563,294.25 Q74.1094,293.8906 73.9219,293.7031 Q73.5938,293.3281 72.9844,293.1094 Q72.375,292.8906 71.75,292.8906 Q70.9844,292.8906 70.3516,293.2188 Q69.7188,293.5469 69.2266,294.2969 Q68.7344,295.0469 68.7344,296.0781 L68.7344,297.1719 Q68.7344,298.4063 69.625,299.2266 Q70.5156,300.0469 72.1094,300.0469 Q73.0469,300.0469 73.7031,299.7969 Q74.0938,299.6406 74.5156,299.2031 Q74.7813,298.9375 74.9297,298.8594 Q75.0781,298.7813 75.2813,298.7813 Q75.6094,298.7813 75.8672,299.0391 Q76.125,299.2969 76.125,299.6406 Q76.125,299.9844 75.7813,300.3906 Q75.2813,300.9688 74.4844,301.2969 Q73.4063,301.75 72.1094,301.75 Q70.5938,301.75 69.3906,301.125 Q68.4063,300.625 67.7188,299.5547 Q67.0313,298.4844 67.0313,297.2031 L67.0313,296.0469 Q67.0313,294.7188 67.6484,293.5703 Q68.2656,292.4219 69.3594,291.8047 Q70.4531,291.1875 71.6875,291.1875 Q72.4219,291.1875 73.0703,291.3516 Q73.7188,291.5156 74.2656,291.875 Z " fill="#000000"/><text fill="#000000" font-family="sans-serif" font-size="12" lengthAdjust="spacing" textLength="75" x="85.5" y="300.9102">AppController</text><line style="stroke:#A80036;stroke-width:1.5;" x1="57.5" x2="162.5" y1="312" y2="312"/><line style="stroke:#A80036;stroke-width:1.5;" x1="57.5" x2="162.5" y1="320" y2="320"/><!--MD5=[04c26a4edd0eb4dbebbd69d768eba94f]
class common.hal.ButtonHal--><rect codeLine="19" fill="#FEFECE" filter="url(#f1qa62ysgkqv9j)" height="48" id="common.hal.ButtonHal" style="stroke:#A80036;stroke-width:1.5;" width="86" x="1313" y="498"/><ellipse cx="1328" cy="514" fill="#ADD1B2" rx="11" ry="11" style="stroke:#A80036;stroke-width:1.0;"/><path d="M1330.7656,509.875 Q1330.9219,509.6563 1331.1094,509.5469 Q1331.2969,509.4375 1331.5156,509.4375 Q1331.8906,509.4375 1332.125,509.6953 Q1332.3594,509.9531 1332.3594,510.5625 L1332.3594,512.0156 Q1332.3594,512.625 1332.125,512.8906 Q1331.8906,513.1563 1331.5156,513.1563 Q1331.1719,513.1563 1330.9688,512.9531 Q1330.7656,512.7656 1330.6563,512.25 Q1330.6094,511.8906 1330.4219,511.7031 Q1330.0938,511.3281 1329.4844,511.1094 Q1328.875,510.8906 1328.25,510.8906 Q1327.4844,510.8906 1326.8516,511.2188 Q1326.2188,511.5469 1325.7266,512.2969 Q1325.2344,513.0469 1325.2344,514.0781 L1325.2344,515.1719 Q1325.2344,516.4063 1326.125,517.2266 Q1327.0156,518.0469 1328.6094,518.0469 Q1329.5469,518.0469 1330.2031,517.7969 Q1330.5938,517.6406 1331.0156,517.2031 Q1331.2813,516.9375 1331.4297,516.8594 Q1331.5781,516.7813 1331.7813,516.7813 Q1332.1094,516.7813 1332.3672,517.0391 Q1332.625,517.2969 1332.625,517.6406 Q1332.625,517.9844 1332.2813,518.3906 Q1331.7813,518.9688 1330.9844,519.2969 Q1329.9063,519.75 1328.6094,519.75 Q1327.0938,519.75 1325.8906,519.125 Q1324.9063,518.625 1324.2188,517.5547 Q1323.5313,516.4844 1323.5313,515.2031 L1323.5313,514.0469 Q1323.5313,512.7188 1324.1484,511.5703 Q1324.7656,510.4219 1325.8594,509.8047 Q1326.9531,509.1875 1328.1875,509.1875 Q1328.9219,509.1875 1329.5703,509.3516 Q1330.2188,509.5156 1330.7656,509.875 Z " fill="#000000"/><text fill="#000000" font-family="sans-serif" font-size="12" lengthAdjust="spacing" textLength="54" x="1342" y="518.9102">ButtonHal</text><line style="stroke:#A80036;stroke-width:1.5;" x1="1314" x2="1398" y1="530" y2="530"/><line style="stroke:#A80036;stroke-width:1.5;" x1="1314" x2="1398" y1="538" y2="538"/><!--MD5=[e749d2f3563229a45878a25420b2647c]
class common.hal.LedHal--><rect codeLine="22" fill="#FEFECE" filter="url(#f1qa62ysgkqv9j)" height="48" id="common.hal.LedHal" style="stroke:#A80036;stroke-width:1.5;" width="72" x="1206" y="498"/><ellipse cx="1221" cy="514" fill="#ADD1B2" rx="11" ry="11" style="stroke:#A80036;stroke-width:1.0;"/><path d="M1223.7656,509.875 Q1223.9219,509.6563 1224.1094,509.5469 Q1224.2969,509.4375 1224.5156,509.4375 Q1224.8906,509.4375 1225.125,509.6953 Q1225.3594,509.9531 1225.3594,510.5625 L1225.3594,512.0156 Q1225.3594,512.625 1225.125,512.8906 Q1224.8906,513.1563 1224.5156,513.1563 Q1224.1719,513.1563 1223.9688,512.9531 Q1223.7656,512.7656 1223.6563,512.25 Q1223.6094,511.8906 1223.4219,511.7031 Q1223.0938,511.3281 1222.4844,511.1094 Q1221.875,510.8906 1221.25,510.8906 Q1220.4844,510.8906 1219.8516,511.2188 Q1219.2188,511.5469 1218.7266,512.2969 Q1218.2344,513.0469 1218.2344,514.0781 L1218.2344,515.1719 Q1218.2344,516.4063 1219.125,517.2266 Q1220.0156,518.0469 1221.6094,518.0469 Q1222.5469,518.0469 1223.2031,517.7969 Q1223.5938,517.6406 1224.0156,517.2031 Q1224.2813,516.9375 1224.4297,516.8594 Q1224.5781,516.7813 1224.7813,516.7813 Q1225.1094,516.7813 1225.3672,517.0391 Q1225.625,517.2969 1225.625,517.6406 Q1225.625,517.9844 1225.2813,518.3906 Q1224.7813,518.9688 1223.9844,519.2969 Q1222.9063,519.75 1221.6094,519.75 Q1220.0938,519.75 1218.8906,519.125 Q1217.9063,518.625 1217.2188,517.5547 Q1216.5313,516.4844 1216.5313,515.2031 L1216.5313,514.0469 Q1216.5313,512.7188 1217.1484,511.5703 Q1217.7656,510.4219 1218.8594,509.8047 Q1219.9531,509.1875 1221.1875,509.1875 Q1221.9219,509.1875 1222.5703,509.3516 Q1223.2188,509.5156 1223.7656,509.875 Z " fill="#000000"/><text fill="#000000" font-family="sans-serif" font-size="12" lengthAdjust="spacing" textLength="40" x="1235" y="518.9102">LedHal</text><line style="stroke:#A80036;stroke-width:1.5;" x1="1207" x2="1277" y1="530" y2="530"/><line style="stroke:#A80036;stroke-width:1.5;" x1="1207" x2="1277" y1="538" y2="538"/><!--MD5=[e41e772496eddf24f1a297c0ad5be03a]
class common.gpio.ButtonController--><rect codeLine="27" fill="#FEFECE" filter="url(#f1qa62ysgkqv9j)" height="48" id="common.gpio.ButtonController" style="stroke:#A80036;stroke-width:1.5;" width="121" x="645.5" y="280"/><ellipse cx="660.5" cy="296" fill="#ADD1B2" rx="11" ry="11" style="stroke:#A80036;stroke-width:1.0;"/><path d="M663.2656,291.875 Q663.4219,291.6563 663.6094,291.5469 Q663.7969,291.4375 664.0156,291.4375 Q664.3906,291.4375 664.625,291.6953 Q664.8594,291.9531 664.8594,292.5625 L664.8594,294.0156 Q664.8594,294.625 664.625,294.8906 Q664.3906,295.1563 664.0156,295.1563 Q663.6719,295.1563 663.4688,294.9531 Q663.2656,294.7656 663.1563,294.25 Q663.1094,293.8906 662.9219,293.7031 Q662.5938,293.3281 661.9844,293.1094 Q661.375,292.8906 660.75,292.8906 Q659.9844,292.8906 659.3516,293.2188 Q658.7188,293.5469 658.2266,294.2969 Q657.7344,295.0469 657.7344,296.0781 L657.7344,297.1719 Q657.7344,298.4063 658.625,299.2266 Q659.5156,300.0469 661.1094,300.0469 Q662.0469,300.0469 662.7031,299.7969 Q663.0938,299.6406 663.5156,299.2031 Q663.7813,298.9375 663.9297,298.8594 Q664.0781,298.7813 664.2813,298.7813 Q664.6094,298.7813 664.8672,299.0391 Q665.125,299.2969 665.125,299.6406 Q665.125,299.9844 664.7813,300.3906 Q664.2813,300.9688 663.4844,301.2969 Q662.4063,301.75 661.1094,301.75 Q659.5938,301.75 658.3906,301.125 Q657.4063,300.625 656.7188,299.5547 Q656.0313,298.4844 656.0313,297.2031 L656.0313,296.0469 Q656.0313,294.7188 656.6484,293.5703 Q657.2656,292.4219 658.3594,291.8047 Q659.4531,291.1875 660.6875,291.1875 Q661.4219,291.1875 662.0703,291.3516 Q662.7188,291.5156 663.2656,291.875 Z " fill="#000000"/><text fill="#000000" font-family="sans-serif" font-size="12" lengthAdjust="spacing" textLength="89" x="674.5" y="300.9102">ButtonController</text><line style="stroke:#A80036;stroke-width:1.5;" x1="646.5" x2="765.5" y1="312" y2="312"/><line style="stroke:#A80036;stroke-width:1.5;" x1="646.5" x2="765.5" y1="320" y2="320"/><!--MD5=[e7de09b2b9bdae58ee464c0b19d108b6]
class common.gpio.LedController--><rect codeLine="30" fill="#FEFECE" filter="url(#f1qa62ysgkqv9j)" height="48" id="common.gpio.LedController" style="stroke:#A80036;stroke-width:1.5;" width="107" x="503.5" y="280"/><ellipse cx="518.5" cy="296" fill="#ADD1B2" rx="11" ry="11" style="stroke:#A80036;stroke-width:1.0;"/><path d="M521.2656,291.875 Q521.4219,291.6563 521.6094,291.5469 Q521.7969,291.4375 522.0156,291.4375 Q522.3906,291.4375 522.625,291.6953 Q522.8594,291.9531 522.8594,292.5625 L522.8594,294.0156 Q522.8594,294.625 522.625,294.8906 Q522.3906,295.1563 522.0156,295.1563 Q521.6719,295.1563 521.4688,294.9531 Q521.2656,294.7656 521.1563,294.25 Q521.1094,293.8906 520.9219,293.7031 Q520.5938,293.3281 519.9844,293.1094 Q519.375,292.8906 518.75,292.8906 Q517.9844,292.8906 517.3516,293.2188 Q516.7188,293.5469 516.2266,294.2969 Q515.7344,295.0469 515.7344,296.0781 L515.7344,297.1719 Q515.7344,298.4063 516.625,299.2266 Q517.5156,300.0469 519.1094,300.0469 Q520.0469,300.0469 520.7031,299.7969 Q521.0938,299.6406 521.5156,299.2031 Q521.7813,298.9375 521.9297,298.8594 Q522.0781,298.7813 522.2813,298.7813 Q522.6094,298.7813 522.8672,299.0391 Q523.125,299.2969 523.125,299.6406 Q523.125,299.9844 522.7813,300.3906 Q522.2813,300.9688 521.4844,301.2969 Q520.4063,301.75 519.1094,301.75 Q517.5938,301.75 516.3906,301.125 Q515.4063,300.625 514.7188,299.5547 Q514.0313,298.4844 514.0313,297.2031 L514.0313,296.0469 Q514.0313,294.7188 514.6484,293.5703 Q515.2656,292.4219 516.3594,291.8047 Q517.4531,291.1875 518.6875,291.1875 Q519.4219,291.1875 520.0703,291.3516 Q520.7188,291.5156 521.2656,291.875 Z " fill="#000000"/><text fill="#000000" font-family="sans-serif" font-size="12" lengthAdjust="spacing" textLength="75" x="532.5" y="300.9102">LedController</text><line style="stroke:#A80036;stroke-width:1.5;" x1="504.5" x2="609.5" y1="312" y2="312"/><line style="stroke:#A80036;stroke-width:1.5;" x1="504.5" x2="609.5" y1="320" y2="320"/><!--MD5=[8a7af6bfecce03578078745c29cbf432]
class common.xf.adapt.XF_Adapter--><rect codeLine="36" fill="#FEFECE" filter="url(#f1qa62ysgkqv9j)" height="48" id="common.xf.adapt.XF_Adapter" style="stroke:#A80036;stroke-width:1.5;" width="95" x="1005.5" y="1334"/><ellipse cx="1020.5" cy="1350" fill="#ADD1B2" rx="11" ry="11" style="stroke:#A80036;stroke-width:1.0;"/><path d="M1023.2656,1345.875 Q1023.4219,1345.6563 1023.6094,1345.5469 Q1023.7969,1345.4375 1024.0156,1345.4375 Q1024.3906,1345.4375 1024.625,1345.6953 Q1024.8594,1345.9531 1024.8594,1346.5625 L1024.8594,1348.0156 Q1024.8594,1348.625 1024.625,1348.8906 Q1024.3906,1349.1563 1024.0156,1349.1563 Q1023.6719,1349.1563 1023.4688,1348.9531 Q1023.2656,1348.7656 1023.1563,1348.25 Q1023.1094,1347.8906 1022.9219,1347.7031 Q1022.5938,1347.3281 1021.9844,1347.1094 Q1021.375,1346.8906 1020.75,1346.8906 Q1019.9844,1346.8906 1019.3516,1347.2188 Q1018.7188,1347.5469 1018.2266,1348.2969 Q1017.7344,1349.0469 1017.7344,1350.0781 L1017.7344,1351.1719 Q1017.7344,1352.4063 1018.625,1353.2266 Q1019.5156,1354.0469 1021.1094,1354.0469 Q1022.0469,1354.0469 1022.7031,1353.7969 Q1023.0938,1353.6406 1023.5156,1353.2031 Q1023.7813,1352.9375 1023.9297,1352.8594 Q1024.0781,1352.7813 1024.2813,1352.7813 Q1024.6094,1352.7813 1024.8672,1353.0391 Q1025.125,1353.2969 1025.125,1353.6406 Q1025.125,1353.9844 1024.7813,1354.3906 Q1024.2813,1354.9688 1023.4844,1355.2969 Q1022.4063,1355.75 1021.1094,1355.75 Q1019.5938,1355.75 1018.3906,1355.125 Q1017.4063,1354.625 1016.7188,1353.5547 Q1016.0313,1352.4844 1016.0313,1351.2031 L1016.0313,1350.0469 Q1016.0313,1348.7188 1016.6484,1347.5703 Q1017.2656,1346.4219 1018.3594,1345.8047 Q1019.4531,1345.1875 1020.6875,1345.1875 Q1021.4219,1345.1875 1022.0703,1345.3516 Q1022.7188,1345.5156 1023.2656,1345.875 Z " fill="#000000"/><text fill="#000000" font-family="sans-serif" font-size="12" lengthAdjust="spacing" textLength="63" x="1034.5" y="1354.9102">XF_Adapter</text><line style="stroke:#A80036;stroke-width:1.5;" x1="1006.5" x2="1099.5" y1="1366" y2="1366"/><line style="stroke:#A80036;stroke-width:1.5;" x1="1006.5" x2="1099.5" y1="1374" y2="1374"/><!--MD5=[54311cd1e421341e7bc7a61163f03547]
class common.xf.core.XFTimeoutManager--><rect codeLine="41" fill="#FEFECE" filter="url(#f1qa62ysgkqv9j)" height="48" id="common.xf.core.XFTimeoutManager" style="stroke:#A80036;stroke-width:1.5;" width="139" x="772.5" y="1186"/><ellipse cx="787.5" cy="1202" fill="#ADD1B2" rx="11" ry="11" style="stroke:#A80036;stroke-width:1.0;"/><path d="M790.2656,1197.875 Q790.4219,1197.6563 790.6094,1197.5469 Q790.7969,1197.4375 791.0156,1197.4375 Q791.3906,1197.4375 791.625,1197.6953 Q791.8594,1197.9531 791.8594,1198.5625 L791.8594,1200.0156 Q791.8594,1200.625 791.625,1200.8906 Q791.3906,1201.1563 791.0156,1201.1563 Q790.6719,1201.1563 790.4688,1200.9531 Q790.2656,1200.7656 790.1563,1200.25 Q790.1094,1199.8906 789.9219,1199.7031 Q789.5938,1199.3281 788.9844,1199.1094 Q788.375,1198.8906 787.75,1198.8906 Q786.9844,1198.8906 786.3516,1199.2188 Q785.7188,1199.5469 785.2266,1200.2969 Q784.7344,1201.0469 784.7344,1202.0781 L784.7344,1203.1719 Q784.7344,1204.4063 785.625,1205.2266 Q786.5156,1206.0469 788.1094,1206.0469 Q789.0469,1206.0469 789.7031,1205.7969 Q790.0938,1205.6406 790.5156,1205.2031 Q790.7813,1204.9375 790.9297,1204.8594 Q791.0781,1204.7813 791.2813,1204.7813 Q791.6094,1204.7813 791.8672,1205.0391 Q792.125,1205.2969 792.125,1205.6406 Q792.125,1205.9844 791.7813,1206.3906 Q791.2813,1206.9688 790.4844,1207.2969 Q789.4063,1207.75 788.1094,1207.75 Q786.5938,1207.75 785.3906,1207.125 Q784.4063,1206.625 783.7188,1205.5547 Q783.0313,1204.4844 783.0313,1203.2031 L783.0313,1202.0469 Q783.0313,1200.7188 783.6484,1199.5703 Q784.2656,1198.4219 785.3594,1197.8047 Q786.4531,1197.1875 787.6875,1197.1875 Q788.4219,1197.1875 789.0703,1197.3516 Q789.7188,1197.5156 790.2656,1197.875 Z " fill="#000000"/><text fill="#000000" font-family="sans-serif" font-size="12" lengthAdjust="spacing" textLength="107" x="801.5" y="1206.9102">XFTimeoutManager</text><line style="stroke:#A80036;stroke-width:1.5;" x1="773.5" x2="910.5" y1="1218" y2="1218"/><line style="stroke:#A80036;stroke-width:1.5;" x1="773.5" x2="910.5" y1="1226" y2="1226"/><!--MD5=[94d79d6018a2edbae8978b9c9d4843df]
class common.xf.core.XF--><rect codeLine="44" fill="#FEFECE" filter="url(#f1qa62ysgkqv9j)" height="48" id="common.xf.core.XF" style="stroke:#A80036;stroke-width:1.5;" width="46" x="786" y="752"/><ellipse cx="801" cy="768" fill="#ADD1B2" rx="11" ry="11" style="stroke:#A80036;stroke-width:1.0;"/><path d="M803.7656,763.875 Q803.9219,763.6563 804.1094,763.5469 Q804.2969,763.4375 804.5156,763.4375 Q804.8906,763.4375 805.125,763.6953 Q805.3594,763.9531 805.3594,764.5625 L805.3594,766.0156 Q805.3594,766.625 805.125,766.8906 Q804.8906,767.1563 804.5156,767.1563 Q804.1719,767.1563 803.9688,766.9531 Q803.7656,766.7656 803.6563,766.25 Q803.6094,765.8906 803.4219,765.7031 Q803.0938,765.3281 802.4844,765.1094 Q801.875,764.8906 801.25,764.8906 Q800.4844,764.8906 799.8516,765.2188 Q799.2188,765.5469 798.7266,766.2969 Q798.2344,767.0469 798.2344,768.0781 L798.2344,769.1719 Q798.2344,770.4063 799.125,771.2266 Q800.0156,772.0469 801.6094,772.0469 Q802.5469,772.0469 803.2031,771.7969 Q803.5938,771.6406 804.0156,771.2031 Q804.2813,770.9375 804.4297,770.8594 Q804.5781,770.7813 804.7813,770.7813 Q805.1094,770.7813 805.3672,771.0391 Q805.625,771.2969 805.625,771.6406 Q805.625,771.9844 805.2813,772.3906 Q804.7813,772.9688 803.9844,773.2969 Q802.9063,773.75 801.6094,773.75 Q800.0938,773.75 798.8906,773.125 Q797.9063,772.625 797.2188,771.5547 Q796.5313,770.4844 796.5313,769.2031 L796.5313,768.0469 Q796.5313,766.7188 797.1484,765.5703 Q797.7656,764.4219 798.8594,763.8047 Q799.9531,763.1875 801.1875,763.1875 Q801.9219,763.1875 802.5703,763.3516 Q803.2188,763.5156 803.7656,763.875 Z " fill="#000000"/><text fill="#000000" font-family="sans-serif" font-size="12" lengthAdjust="spacing" textLength="14" x="815" y="772.9102">XF</text><line style="stroke:#A80036;stroke-width:1.5;" x1="787" x2="831" y1="784" y2="784"/><line style="stroke:#A80036;stroke-width:1.5;" x1="787" x2="831" y1="792" y2="792"/><!--MD5=[b93a2bd00bcdd96f774a495aa95365b2]
class common.xf.core.XFReactive--><rect codeLine="47" fill="#FEFECE" filter="url(#f1qa62ysgkqv9j)" height="48" id="common.xf.core.XFReactive" style="stroke:#A80036;stroke-width:1.5;" width="93" x="510.5" y="498"/><ellipse cx="525.5" cy="514" fill="#ADD1B2" rx="11" ry="11" style="stroke:#A80036;stroke-width:1.0;"/><path d="M528.2656,509.875 Q528.4219,509.6563 528.6094,509.5469 Q528.7969,509.4375 529.0156,509.4375 Q529.3906,509.4375 529.625,509.6953 Q529.8594,509.9531 529.8594,510.5625 L529.8594,512.0156 Q529.8594,512.625 529.625,512.8906 Q529.3906,513.1563 529.0156,513.1563 Q528.6719,513.1563 528.4688,512.9531 Q528.2656,512.7656 528.1563,512.25 Q528.1094,511.8906 527.9219,511.7031 Q527.5938,511.3281 526.9844,511.1094 Q526.375,510.8906 525.75,510.8906 Q524.9844,510.8906 524.3516,511.2188 Q523.7188,511.5469 523.2266,512.2969 Q522.7344,513.0469 522.7344,514.0781 L522.7344,515.1719 Q522.7344,516.4063 523.625,517.2266 Q524.5156,518.0469 526.1094,518.0469 Q527.0469,518.0469 527.7031,517.7969 Q528.0938,517.6406 528.5156,517.2031 Q528.7813,516.9375 528.9297,516.8594 Q529.0781,516.7813 529.2813,516.7813 Q529.6094,516.7813 529.8672,517.0391 Q530.125,517.2969 530.125,517.6406 Q530.125,517.9844 529.7813,518.3906 Q529.2813,518.9688 528.4844,519.2969 Q527.4063,519.75 526.1094,519.75 Q524.5938,519.75 523.3906,519.125 Q522.4063,518.625 521.7188,517.5547 Q521.0313,516.4844 521.0313,515.2031 L521.0313,514.0469 Q521.0313,512.7188 521.6484,511.5703 Q522.2656,510.4219 523.3594,509.8047 Q524.4531,509.1875 525.6875,509.1875 Q526.4219,509.1875 527.0703,509.3516 Q527.7188,509.5156 528.2656,509.875 Z " fill="#000000"/><text fill="#000000" font-family="sans-serif" font-size="12" lengthAdjust="spacing" textLength="61" x="539.5" y="518.9102">XFReactive</text><line style="stroke:#A80036;stroke-width:1.5;" x1="511.5" x2="602.5" y1="530" y2="530"/><line style="stroke:#A80036;stroke-width:1.5;" x1="511.5" x2="602.5" y1="538" y2="538"/><!--MD5=[f905b08f9a43005df04ac468351cd010]
class common.xf.core.XFTimeout--><rect fill="#FEFECE" filter="url(#f1qa62ysgkqv9j)" height="48" id="common.xf.core.XFTimeout" style="stroke:#A80036;stroke-width:1.5;" width="91" x="795.5" y="1334"/><ellipse cx="810.5" cy="1350" fill="#ADD1B2" rx="11" ry="11" style="stroke:#A80036;stroke-width:1.0;"/><path d="M813.2656,1345.875 Q813.4219,1345.6563 813.6094,1345.5469 Q813.7969,1345.4375 814.0156,1345.4375 Q814.3906,1345.4375 814.625,1345.6953 Q814.8594,1345.9531 814.8594,1346.5625 L814.8594,1348.0156 Q814.8594,1348.625 814.625,1348.8906 Q814.3906,1349.1563 814.0156,1349.1563 Q813.6719,1349.1563 813.4688,1348.9531 Q813.2656,1348.7656 813.1563,1348.25 Q813.1094,1347.8906 812.9219,1347.7031 Q812.5938,1347.3281 811.9844,1347.1094 Q811.375,1346.8906 810.75,1346.8906 Q809.9844,1346.8906 809.3516,1347.2188 Q808.7188,1347.5469 808.2266,1348.2969 Q807.7344,1349.0469 807.7344,1350.0781 L807.7344,1351.1719 Q807.7344,1352.4063 808.625,1353.2266 Q809.5156,1354.0469 811.1094,1354.0469 Q812.0469,1354.0469 812.7031,1353.7969 Q813.0938,1353.6406 813.5156,1353.2031 Q813.7813,1352.9375 813.9297,1352.8594 Q814.0781,1352.7813 814.2813,1352.7813 Q814.6094,1352.7813 814.8672,1353.0391 Q815.125,1353.2969 815.125,1353.6406 Q815.125,1353.9844 814.7813,1354.3906 Q814.2813,1354.9688 813.4844,1355.2969 Q812.4063,1355.75 811.1094,1355.75 Q809.5938,1355.75 808.3906,1355.125 Q807.4063,1354.625 806.7188,1353.5547 Q806.0313,1352.4844 806.0313,1351.2031 L806.0313,1350.0469 Q806.0313,1348.7188 806.6484,1347.5703 Q807.2656,1346.4219 808.3594,1345.8047 Q809.4531,1345.1875 810.6875,1345.1875 Q811.4219,1345.1875 812.0703,1345.3516 Q812.7188,1345.5156 813.2656,1345.875 Z " fill="#000000"/><text fill="#000000" font-family="sans-serif" font-size="12" lengthAdjust="spacing" textLength="59" x="824.5" y="1354.9102">XFTimeout</text><line style="stroke:#A80036;stroke-width:1.5;" x1="796.5" x2="885.5" y1="1366" y2="1366"/><line style="stroke:#A80036;stroke-width:1.5;" x1="796.5" x2="885.5" y1="1374" y2="1374"/><!--MD5=[d8b73178ff38cf9cc6daac82fc56b6e7]
class common.xf.core.IXFEvent--><rect fill="#FEFECE" filter="url(#f1qa62ysgkqv9j)" height="48" id="common.xf.core.IXFEvent" style="stroke:#A80036;stroke-width:1.5;" width="79" x="624.5" y="1042"/><ellipse cx="639.5" cy="1058" fill="#ADD1B2" rx="11" ry="11" style="stroke:#A80036;stroke-width:1.0;"/><path d="M642.2656,1053.875 Q642.4219,1053.6563 642.6094,1053.5469 Q642.7969,1053.4375 643.0156,1053.4375 Q643.3906,1053.4375 643.625,1053.6953 Q643.8594,1053.9531 643.8594,1054.5625 L643.8594,1056.0156 Q643.8594,1056.625 643.625,1056.8906 Q643.3906,1057.1563 643.0156,1057.1563 Q642.6719,1057.1563 642.4688,1056.9531 Q642.2656,1056.7656 642.1563,1056.25 Q642.1094,1055.8906 641.9219,1055.7031 Q641.5938,1055.3281 640.9844,1055.1094 Q640.375,1054.8906 639.75,1054.8906 Q638.9844,1054.8906 638.3516,1055.2188 Q637.7188,1055.5469 637.2266,1056.2969 Q636.7344,1057.0469 636.7344,1058.0781 L636.7344,1059.1719 Q636.7344,1060.4063 637.625,1061.2266 Q638.5156,1062.0469 640.1094,1062.0469 Q641.0469,1062.0469 641.7031,1061.7969 Q642.0938,1061.6406 642.5156,1061.2031 Q642.7813,1060.9375 642.9297,1060.8594 Q643.0781,1060.7813 643.2813,1060.7813 Q643.6094,1060.7813 643.8672,1061.0391 Q644.125,1061.2969 644.125,1061.6406 Q644.125,1061.9844 643.7813,1062.3906 Q643.2813,1062.9688 642.4844,1063.2969 Q641.4063,1063.75 640.1094,1063.75 Q638.5938,1063.75 637.3906,1063.125 Q636.4063,1062.625 635.7188,1061.5547 Q635.0313,1060.4844 635.0313,1059.2031 L635.0313,1058.0469 Q635.0313,1056.7188 635.6484,1055.5703 Q636.2656,1054.4219 637.3594,1053.8047 Q638.4531,1053.1875 639.6875,1053.1875 Q640.4219,1053.1875 641.0703,1053.3516 Q641.7188,1053.5156 642.2656,1053.875 Z " fill="#000000"/><text fill="#000000" font-family="sans-serif" font-size="12" lengthAdjust="spacing" textLength="47" x="653.5" y="1062.9102">IXFEvent</text><line style="stroke:#A80036;stroke-width:1.5;" x1="625.5" x2="702.5" y1="1074" y2="1074"/><line style="stroke:#A80036;stroke-width:1.5;" x1="625.5" x2="702.5" y1="1082" y2="1082"/><!--MD5=[a6b0a1ed692efd6e6c412b121173d8d9]
class common.xf.core.IXFReactive--><rect fill="#FEFECE" filter="url(#f1qa62ysgkqv9j)" height="48" id="common.xf.core.IXFReactive" style="stroke:#A80036;stroke-width:1.5;" width="96" x="329" y="626"/><ellipse cx="344" cy="642" fill="#ADD1B2" rx="11" ry="11" style="stroke:#A80036;stroke-width:1.0;"/><path d="M346.7656,637.875 Q346.9219,637.6563 347.1094,637.5469 Q347.2969,637.4375 347.5156,637.4375 Q347.8906,637.4375 348.125,637.6953 Q348.3594,637.9531 348.3594,638.5625 L348.3594,640.0156 Q348.3594,640.625 348.125,640.8906 Q347.8906,641.1563 347.5156,641.1563 Q347.1719,641.1563 346.9688,640.9531 Q346.7656,640.7656 346.6563,640.25 Q346.6094,639.8906 346.4219,639.7031 Q346.0938,639.3281 345.4844,639.1094 Q344.875,638.8906 344.25,638.8906 Q343.4844,638.8906 342.8516,639.2188 Q342.2188,639.5469 341.7266,640.2969 Q341.2344,641.0469 341.2344,642.0781 L341.2344,643.1719 Q341.2344,644.4063 342.125,645.2266 Q343.0156,646.0469 344.6094,646.0469 Q345.5469,646.0469 346.2031,645.7969 Q346.5938,645.6406 347.0156,645.2031 Q347.2813,644.9375 347.4297,644.8594 Q347.5781,644.7813 347.7813,644.7813 Q348.1094,644.7813 348.3672,645.0391 Q348.625,645.2969 348.625,645.6406 Q348.625,645.9844 348.2813,646.3906 Q347.7813,646.9688 346.9844,647.2969 Q345.9063,647.75 344.6094,647.75 Q343.0938,647.75 341.8906,647.125 Q340.9063,646.625 340.2188,645.5547 Q339.5313,644.4844 339.5313,643.2031 L339.5313,642.0469 Q339.5313,640.7188 340.1484,639.5703 Q340.7656,638.4219 341.8594,637.8047 Q342.9531,637.1875 344.1875,637.1875 Q344.9219,637.1875 345.5703,637.3516 Q346.2188,637.5156 346.7656,637.875 Z " fill="#000000"/><text fill="#000000" font-family="sans-serif" font-size="12" lengthAdjust="spacing" textLength="64" x="358" y="646.9102">IXFReactive</text><line style="stroke:#A80036;stroke-width:1.5;" x1="330" x2="424" y1="658" y2="658"/><line style="stroke:#A80036;stroke-width:1.5;" x1="330" x2="424" y1="666" y2="666"/><!--MD5=[dbbc366158af761e88f0fb24ed9c96af]
class common.xf.core.EventStatus--><rect fill="#FEFECE" filter="url(#f1qa62ysgkqv9j)" height="48" id="common.xf.core.EventStatus" style="stroke:#A80036;stroke-width:1.5;" width="97" x="508.5" y="626"/><ellipse cx="523.5" cy="642" fill="#ADD1B2" rx="11" ry="11" style="stroke:#A80036;stroke-width:1.0;"/><path d="M526.2656,637.875 Q526.4219,637.6563 526.6094,637.5469 Q526.7969,637.4375 527.0156,637.4375 Q527.3906,637.4375 527.625,637.6953 Q527.8594,637.9531 527.8594,638.5625 L527.8594,640.0156 Q527.8594,640.625 527.625,640.8906 Q527.3906,641.1563 527.0156,641.1563 Q526.6719,641.1563 526.4688,640.9531 Q526.2656,640.7656 526.1563,640.25 Q526.1094,639.8906 525.9219,639.7031 Q525.5938,639.3281 524.9844,639.1094 Q524.375,638.8906 523.75,638.8906 Q522.9844,638.8906 522.3516,639.2188 Q521.7188,639.5469 521.2266,640.2969 Q520.7344,641.0469 520.7344,642.0781 L520.7344,643.1719 Q520.7344,644.4063 521.625,645.2266 Q522.5156,646.0469 524.1094,646.0469 Q525.0469,646.0469 525.7031,645.7969 Q526.0938,645.6406 526.5156,645.2031 Q526.7813,644.9375 526.9297,644.8594 Q527.0781,644.7813 527.2813,644.7813 Q527.6094,644.7813 527.8672,645.0391 Q528.125,645.2969 528.125,645.6406 Q528.125,645.9844 527.7813,646.3906 Q527.2813,646.9688 526.4844,647.2969 Q525.4063,647.75 524.1094,647.75 Q522.5938,647.75 521.3906,647.125 Q520.4063,646.625 519.7188,645.5547 Q519.0313,644.4844 519.0313,643.2031 L519.0313,642.0469 Q519.0313,640.7188 519.6484,639.5703 Q520.2656,638.4219 521.3594,637.8047 Q522.4531,637.1875 523.6875,637.1875 Q524.4219,637.1875 525.0703,637.3516 Q525.7188,637.5156 526.2656,637.875 Z " fill="#000000"/><text fill="#000000" font-family="sans-serif" font-size="12" lengthAdjust="spacing" textLength="65" x="537.5" y="646.9102">EventStatus</text><line style="stroke:#A80036;stroke-width:1.5;" x1="509.5" x2="604.5" y1="658" y2="658"/><line style="stroke:#A80036;stroke-width:1.5;" x1="509.5" x2="604.5" y1="666" y2="666"/><!--MD5=[0fdb950903e78228ba2fc1a2fd25244f]
class common.xf.core.XFThread--><rect fill="#FEFECE" filter="url(#f1qa62ysgkqv9j)" height="48" id="common.xf.core.XFThread" style="stroke:#A80036;stroke-width:1.5;" width="85" x="826.5" y="878"/><ellipse cx="841.5" cy="894" fill="#ADD1B2" rx="11" ry="11" style="stroke:#A80036;stroke-width:1.0;"/><path d="M844.2656,889.875 Q844.4219,889.6563 844.6094,889.5469 Q844.7969,889.4375 845.0156,889.4375 Q845.3906,889.4375 845.625,889.6953 Q845.8594,889.9531 845.8594,890.5625 L845.8594,892.0156 Q845.8594,892.625 845.625,892.8906 Q845.3906,893.1563 845.0156,893.1563 Q844.6719,893.1563 844.4688,892.9531 Q844.2656,892.7656 844.1563,892.25 Q844.1094,891.8906 843.9219,891.7031 Q843.5938,891.3281 842.9844,891.1094 Q842.375,890.8906 841.75,890.8906 Q840.9844,890.8906 840.3516,891.2188 Q839.7188,891.5469 839.2266,892.2969 Q838.7344,893.0469 838.7344,894.0781 L838.7344,895.1719 Q838.7344,896.4063 839.625,897.2266 Q840.5156,898.0469 842.1094,898.0469 Q843.0469,898.0469 843.7031,897.7969 Q844.0938,897.6406 844.5156,897.2031 Q844.7813,896.9375 844.9297,896.8594 Q845.0781,896.7813 845.2813,896.7813 Q845.6094,896.7813 845.8672,897.0391 Q846.125,897.2969 846.125,897.6406 Q846.125,897.9844 845.7813,898.3906 Q845.2813,898.9688 844.4844,899.2969 Q843.4063,899.75 842.1094,899.75 Q840.5938,899.75 839.3906,899.125 Q838.4063,898.625 837.7188,897.5547 Q837.0313,896.4844 837.0313,895.2031 L837.0313,894.0469 Q837.0313,892.7188 837.6484,891.5703 Q838.2656,890.4219 839.3594,889.8047 Q840.4531,889.1875 841.6875,889.1875 Q842.4219,889.1875 843.0703,889.3516 Q843.7188,889.5156 844.2656,889.875 Z " fill="#000000"/><text fill="#000000" font-family="sans-serif" font-size="12" lengthAdjust="spacing" textLength="53" x="855.5" y="898.9102">XFThread</text><line style="stroke:#A80036;stroke-width:1.5;" x1="827.5" x2="910.5" y1="910" y2="910"/><line style="stroke:#A80036;stroke-width:1.5;" x1="827.5" x2="910.5" y1="918" y2="918"/><!--MD5=[4e2bf67e181a12a54a346a29f6c022aa]
class common.xf.core.XFNullTransition--><rect fill="#FEFECE" filter="url(#f1qa62ysgkqv9j)" height="48" id="common.xf.core.XFNullTransition" style="stroke:#A80036;stroke-width:1.5;" width="123" x="640.5" y="626"/><ellipse cx="655.5" cy="642" fill="#ADD1B2" rx="11" ry="11" style="stroke:#A80036;stroke-width:1.0;"/><path d="M658.2656,637.875 Q658.4219,637.6563 658.6094,637.5469 Q658.7969,637.4375 659.0156,637.4375 Q659.3906,637.4375 659.625,637.6953 Q659.8594,637.9531 659.8594,638.5625 L659.8594,640.0156 Q659.8594,640.625 659.625,640.8906 Q659.3906,641.1563 659.0156,641.1563 Q658.6719,641.1563 658.4688,640.9531 Q658.2656,640.7656 658.1563,640.25 Q658.1094,639.8906 657.9219,639.7031 Q657.5938,639.3281 656.9844,639.1094 Q656.375,638.8906 655.75,638.8906 Q654.9844,638.8906 654.3516,639.2188 Q653.7188,639.5469 653.2266,640.2969 Q652.7344,641.0469 652.7344,642.0781 L652.7344,643.1719 Q652.7344,644.4063 653.625,645.2266 Q654.5156,646.0469 656.1094,646.0469 Q657.0469,646.0469 657.7031,645.7969 Q658.0938,645.6406 658.5156,645.2031 Q658.7813,644.9375 658.9297,644.8594 Q659.0781,644.7813 659.2813,644.7813 Q659.6094,644.7813 659.8672,645.0391 Q660.125,645.2969 660.125,645.6406 Q660.125,645.9844 659.7813,646.3906 Q659.2813,646.9688 658.4844,647.2969 Q657.4063,647.75 656.1094,647.75 Q654.5938,647.75 653.3906,647.125 Q652.4063,646.625 651.7188,645.5547 Q651.0313,644.4844 651.0313,643.2031 L651.0313,642.0469 Q651.0313,640.7188 651.6484,639.5703 Q652.2656,638.4219 653.3594,637.8047 Q654.4531,637.1875 655.6875,637.1875 Q656.4219,637.1875 657.0703,637.3516 Q657.7188,637.5156 658.2656,637.875 Z " fill="#000000"/><text fill="#000000" font-family="sans-serif" font-size="12" lengthAdjust="spacing" textLength="91" x="669.5" y="646.9102">XFNullTransition</text><line style="stroke:#A80036;stroke-width:1.5;" x1="641.5" x2="762.5" y1="658" y2="658"/><line style="stroke:#A80036;stroke-width:1.5;" x1="641.5" x2="762.5" y1="666" y2="666"/><!--MD5=[b629755713b8bc4c4648aa6082272b9e]
class common.xf.core.InitialEvent--><rect fill="#FEFECE" filter="url(#f1qa62ysgkqv9j)" height="48" id="common.xf.core.InitialEvent" style="stroke:#A80036;stroke-width:1.5;" width="91" x="700.5" y="878"/><ellipse cx="715.5" cy="894" fill="#ADD1B2" rx="11" ry="11" style="stroke:#A80036;stroke-width:1.0;"/><path d="M718.2656,889.875 Q718.4219,889.6563 718.6094,889.5469 Q718.7969,889.4375 719.0156,889.4375 Q719.3906,889.4375 719.625,889.6953 Q719.8594,889.9531 719.8594,890.5625 L719.8594,892.0156 Q719.8594,892.625 719.625,892.8906 Q719.3906,893.1563 719.0156,893.1563 Q718.6719,893.1563 718.4688,892.9531 Q718.2656,892.7656 718.1563,892.25 Q718.1094,891.8906 717.9219,891.7031 Q717.5938,891.3281 716.9844,891.1094 Q716.375,890.8906 715.75,890.8906 Q714.9844,890.8906 714.3516,891.2188 Q713.7188,891.5469 713.2266,892.2969 Q712.7344,893.0469 712.7344,894.0781 L712.7344,895.1719 Q712.7344,896.4063 713.625,897.2266 Q714.5156,898.0469 716.1094,898.0469 Q717.0469,898.0469 717.7031,897.7969 Q718.0938,897.6406 718.5156,897.2031 Q718.7813,896.9375 718.9297,896.8594 Q719.0781,896.7813 719.2813,896.7813 Q719.6094,896.7813 719.8672,897.0391 Q720.125,897.2969 720.125,897.6406 Q720.125,897.9844 719.7813,898.3906 Q719.2813,898.9688 718.4844,899.2969 Q717.4063,899.75 716.1094,899.75 Q714.5938,899.75 713.3906,899.125 Q712.4063,898.625 711.7188,897.5547 Q711.0313,896.4844 711.0313,895.2031 L711.0313,894.0469 Q711.0313,892.7188 711.6484,891.5703 Q712.2656,890.4219 713.3594,889.8047 Q714.4531,889.1875 715.6875,889.1875 Q716.4219,889.1875 717.0703,889.3516 Q717.7188,889.5156 718.2656,889.875 Z " fill="#000000"/><text fill="#000000" font-family="sans-serif" font-size="12" lengthAdjust="spacing" textLength="59" x="729.5" y="898.9102">InitialEvent</text><line style="stroke:#A80036;stroke-width:1.5;" x1="701.5" x2="790.5" y1="910" y2="910"/><line style="stroke:#A80036;stroke-width:1.5;" x1="701.5" x2="790.5" y1="918" y2="918"/><!--MD5=[ead46a6cb88330872ad52d43004a3578]
class common.xf.core.XFEvent--><rect fill="#FEFECE" filter="url(#f1qa62ysgkqv9j)" height="48" id="common.xf.core.XFEvent" style="stroke:#A80036;stroke-width:1.5;" width="76" x="799" y="626"/><ellipse cx="814" cy="642" fill="#ADD1B2" rx="11" ry="11" style="stroke:#A80036;stroke-width:1.0;"/><path d="M816.7656,637.875 Q816.9219,637.6563 817.1094,637.5469 Q817.2969,637.4375 817.5156,637.4375 Q817.8906,637.4375 818.125,637.6953 Q818.3594,637.9531 818.3594,638.5625 L818.3594,640.0156 Q818.3594,640.625 818.125,640.8906 Q817.8906,641.1563 817.5156,641.1563 Q817.1719,641.1563 816.9688,640.9531 Q816.7656,640.7656 816.6563,640.25 Q816.6094,639.8906 816.4219,639.7031 Q816.0938,639.3281 815.4844,639.1094 Q814.875,638.8906 814.25,638.8906 Q813.4844,638.8906 812.8516,639.2188 Q812.2188,639.5469 811.7266,640.2969 Q811.2344,641.0469 811.2344,642.0781 L811.2344,643.1719 Q811.2344,644.4063 812.125,645.2266 Q813.0156,646.0469 814.6094,646.0469 Q815.5469,646.0469 816.2031,645.7969 Q816.5938,645.6406 817.0156,645.2031 Q817.2813,644.9375 817.4297,644.8594 Q817.5781,644.7813 817.7813,644.7813 Q818.1094,644.7813 818.3672,645.0391 Q818.625,645.2969 818.625,645.6406 Q818.625,645.9844 818.2813,646.3906 Q817.7813,646.9688 816.9844,647.2969 Q815.9063,647.75 814.6094,647.75 Q813.0938,647.75 811.8906,647.125 Q810.9063,646.625 810.2188,645.5547 Q809.5313,644.4844 809.5313,643.2031 L809.5313,642.0469 Q809.5313,640.7188 810.1484,639.5703 Q810.7656,638.4219 811.8594,637.8047 Q812.9531,637.1875 814.1875,637.1875 Q814.9219,637.1875 815.5703,637.3516 Q816.2188,637.5156 816.7656,637.875 Z " fill="#000000"/><text fill="#000000" font-family="sans-serif" font-size="12" lengthAdjust="spacing" textLength="44" x="828" y="646.9102">XFEvent</text><line style="stroke:#A80036;stroke-width:1.5;" x1="800" x2="874" y1="658" y2="658"/><line style="stroke:#A80036;stroke-width:1.5;" x1="800" x2="874" y1="666" y2="666"/><!--MD5=[da5ad46fdc3ee492115e8b513e32624f]
class common.xf.queue.Queue--><rect codeLine="52" fill="#FEFECE" filter="url(#f1qa62ysgkqv9j)" height="48" id="common.xf.queue.Queue" style="stroke:#A80036;stroke-width:1.5;" width="69" x="1040.5" y="1042"/><ellipse cx="1055.5" cy="1058" fill="#ADD1B2" rx="11" ry="11" style="stroke:#A80036;stroke-width:1.0;"/><path d="M1058.2656,1053.875 Q1058.4219,1053.6563 1058.6094,1053.5469 Q1058.7969,1053.4375 1059.0156,1053.4375 Q1059.3906,1053.4375 1059.625,1053.6953 Q1059.8594,1053.9531 1059.8594,1054.5625 L1059.8594,1056.0156 Q1059.8594,1056.625 1059.625,1056.8906 Q1059.3906,1057.1563 1059.0156,1057.1563 Q1058.6719,1057.1563 1058.4688,1056.9531 Q1058.2656,1056.7656 1058.1563,1056.25 Q1058.1094,1055.8906 1057.9219,1055.7031 Q1057.5938,1055.3281 1056.9844,1055.1094 Q1056.375,1054.8906 1055.75,1054.8906 Q1054.9844,1054.8906 1054.3516,1055.2188 Q1053.7188,1055.5469 1053.2266,1056.2969 Q1052.7344,1057.0469 1052.7344,1058.0781 L1052.7344,1059.1719 Q1052.7344,1060.4063 1053.625,1061.2266 Q1054.5156,1062.0469 1056.1094,1062.0469 Q1057.0469,1062.0469 1057.7031,1061.7969 Q1058.0938,1061.6406 1058.5156,1061.2031 Q1058.7813,1060.9375 1058.9297,1060.8594 Q1059.0781,1060.7813 1059.2813,1060.7813 Q1059.6094,1060.7813 1059.8672,1061.0391 Q1060.125,1061.2969 1060.125,1061.6406 Q1060.125,1061.9844 1059.7813,1062.3906 Q1059.2813,1062.9688 1058.4844,1063.2969 Q1057.4063,1063.75 1056.1094,1063.75 Q1054.5938,1063.75 1053.3906,1063.125 Q1052.4063,1062.625 1051.7188,1061.5547 Q1051.0313,1060.4844 1051.0313,1059.2031 L1051.0313,1058.0469 Q1051.0313,1056.7188 1051.6484,1055.5703 Q1052.2656,1054.4219 1053.3594,1053.8047 Q1054.4531,1053.1875 1055.6875,1053.1875 Q1056.4219,1053.1875 1057.0703,1053.3516 Q1057.7188,1053.5156 1058.2656,1053.875 Z " fill="#000000"/><text fill="#000000" font-family="sans-serif" font-size="12" lengthAdjust="spacing" textLength="37" x="1069.5" y="1062.9102">Queue</text><line style="stroke:#A80036;stroke-width:1.5;" x1="1041.5" x2="1108.5" y1="1074" y2="1074"/><line style="stroke:#A80036;stroke-width:1.5;" x1="1041.5" x2="1108.5" y1="1082" y2="1082"/><!--MD5=[eb2f303fa1fb804861a857f863cb8a61]
class common.core.IsList--><rect codeLine="58" fill="#FEFECE" filter="url(#f1qa62ysgkqv9j)" height="48" id="common.core.IsList" style="stroke:#A80036;stroke-width:1.5;" width="62" x="1206" y="1334"/><ellipse cx="1221" cy="1350" fill="#ADD1B2" rx="11" ry="11" style="stroke:#A80036;stroke-width:1.0;"/><path d="M1223.7656,1345.875 Q1223.9219,1345.6563 1224.1094,1345.5469 Q1224.2969,1345.4375 1224.5156,1345.4375 Q1224.8906,1345.4375 1225.125,1345.6953 Q1225.3594,1345.9531 1225.3594,1346.5625 L1225.3594,1348.0156 Q1225.3594,1348.625 1225.125,1348.8906 Q1224.8906,1349.1563 1224.5156,1349.1563 Q1224.1719,1349.1563 1223.9688,1348.9531 Q1223.7656,1348.7656 1223.6563,1348.25 Q1223.6094,1347.8906 1223.4219,1347.7031 Q1223.0938,1347.3281 1222.4844,1347.1094 Q1221.875,1346.8906 1221.25,1346.8906 Q1220.4844,1346.8906 1219.8516,1347.2188 Q1219.2188,1347.5469 1218.7266,1348.2969 Q1218.2344,1349.0469 1218.2344,1350.0781 L1218.2344,1351.1719 Q1218.2344,1352.4063 1219.125,1353.2266 Q1220.0156,1354.0469 1221.6094,1354.0469 Q1222.5469,1354.0469 1223.2031,1353.7969 Q1223.5938,1353.6406 1224.0156,1353.2031 Q1224.2813,1352.9375 1224.4297,1352.8594 Q1224.5781,1352.7813 1224.7813,1352.7813 Q1225.1094,1352.7813 1225.3672,1353.0391 Q1225.625,1353.2969 1225.625,1353.6406 Q1225.625,1353.9844 1225.2813,1354.3906 Q1224.7813,1354.9688 1223.9844,1355.2969 Q1222.9063,1355.75 1221.6094,1355.75 Q1220.0938,1355.75 1218.8906,1355.125 Q1217.9063,1354.625 1217.2188,1353.5547 Q1216.5313,1352.4844 1216.5313,1351.2031 L1216.5313,1350.0469 Q1216.5313,1348.7188 1217.1484,1347.5703 Q1217.7656,1346.4219 1218.8594,1345.8047 Q1219.9531,1345.1875 1221.1875,1345.1875 Q1221.9219,1345.1875 1222.5703,1345.3516 Q1223.2188,1345.5156 1223.7656,1345.875 Z " fill="#000000"/><text fill="#000000" font-family="sans-serif" font-size="12" lengthAdjust="spacing" textLength="30" x="1235" y="1354.9102">IsList</text><line style="stroke:#A80036;stroke-width:1.5;" x1="1207" x2="1267" y1="1366" y2="1366"/><line style="stroke:#A80036;stroke-width:1.5;" x1="1207" x2="1267" y1="1374" y2="1374"/><!--MD5=[de000ecc658f1c972f0852fb8e886d4d]
class common.pool.MemoryPool--><rect codeLine="63" fill="#FEFECE" filter="url(#f1qa62ysgkqv9j)" height="48" id="common.pool.MemoryPool" style="stroke:#A80036;stroke-width:1.5;" width="100" x="1107" y="1508"/><ellipse cx="1122" cy="1524" fill="#ADD1B2" rx="11" ry="11" style="stroke:#A80036;stroke-width:1.0;"/><path d="M1124.7656,1519.875 Q1124.9219,1519.6563 1125.1094,1519.5469 Q1125.2969,1519.4375 1125.5156,1519.4375 Q1125.8906,1519.4375 1126.125,1519.6953 Q1126.3594,1519.9531 1126.3594,1520.5625 L1126.3594,1522.0156 Q1126.3594,1522.625 1126.125,1522.8906 Q1125.8906,1523.1563 1125.5156,1523.1563 Q1125.1719,1523.1563 1124.9688,1522.9531 Q1124.7656,1522.7656 1124.6563,1522.25 Q1124.6094,1521.8906 1124.4219,1521.7031 Q1124.0938,1521.3281 1123.4844,1521.1094 Q1122.875,1520.8906 1122.25,1520.8906 Q1121.4844,1520.8906 1120.8516,1521.2188 Q1120.2188,1521.5469 1119.7266,1522.2969 Q1119.2344,1523.0469 1119.2344,1524.0781 L1119.2344,1525.1719 Q1119.2344,1526.4063 1120.125,1527.2266 Q1121.0156,1528.0469 1122.6094,1528.0469 Q1123.5469,1528.0469 1124.2031,1527.7969 Q1124.5938,1527.6406 1125.0156,1527.2031 Q1125.2813,1526.9375 1125.4297,1526.8594 Q1125.5781,1526.7813 1125.7813,1526.7813 Q1126.1094,1526.7813 1126.3672,1527.0391 Q1126.625,1527.2969 1126.625,1527.6406 Q1126.625,1527.9844 1126.2813,1528.3906 Q1125.7813,1528.9688 1124.9844,1529.2969 Q1123.9063,1529.75 1122.6094,1529.75 Q1121.0938,1529.75 1119.8906,1529.125 Q1118.9063,1528.625 1118.2188,1527.5547 Q1117.5313,1526.4844 1117.5313,1525.2031 L1117.5313,1524.0469 Q1117.5313,1522.7188 1118.1484,1521.5703 Q1118.7656,1520.4219 1119.8594,1519.8047 Q1120.9531,1519.1875 1122.1875,1519.1875 Q1122.9219,1519.1875 1123.5703,1519.3516 Q1124.2188,1519.5156 1124.7656,1519.875 Z " fill="#000000"/><text fill="#000000" font-family="sans-serif" font-size="12" lengthAdjust="spacing" textLength="68" x="1136" y="1528.9102">MemoryPool</text><line style="stroke:#A80036;stroke-width:1.5;" x1="1108" x2="1206" y1="1540" y2="1540"/><line style="stroke:#A80036;stroke-width:1.5;" x1="1108" x2="1206" y1="1548" y2="1548"/><!--MD5=[a2b578ccba805440b94a7ea2dccf4e8b]
class common.pool.ObjectPool--><rect codeLine="65" fill="#FEFECE" filter="url(#f1qa62ysgkqv9j)" height="48" id="common.pool.ObjectPool" style="stroke:#A80036;stroke-width:1.5;" width="92" x="1112" y="1634"/><ellipse cx="1127" cy="1650" fill="#ADD1B2" rx="11" ry="11" style="stroke:#A80036;stroke-width:1.0;"/><path d="M1129.7656,1645.875 Q1129.9219,1645.6563 1130.1094,1645.5469 Q1130.2969,1645.4375 1130.5156,1645.4375 Q1130.8906,1645.4375 1131.125,1645.6953 Q1131.3594,1645.9531 1131.3594,1646.5625 L1131.3594,1648.0156 Q1131.3594,1648.625 1131.125,1648.8906 Q1130.8906,1649.1563 1130.5156,1649.1563 Q1130.1719,1649.1563 1129.9688,1648.9531 Q1129.7656,1648.7656 1129.6563,1648.25 Q1129.6094,1647.8906 1129.4219,1647.7031 Q1129.0938,1647.3281 1128.4844,1647.1094 Q1127.875,1646.8906 1127.25,1646.8906 Q1126.4844,1646.8906 1125.8516,1647.2188 Q1125.2188,1647.5469 1124.7266,1648.2969 Q1124.2344,1649.0469 1124.2344,1650.0781 L1124.2344,1651.1719 Q1124.2344,1652.4063 1125.125,1653.2266 Q1126.0156,1654.0469 1127.6094,1654.0469 Q1128.5469,1654.0469 1129.2031,1653.7969 Q1129.5938,1653.6406 1130.0156,1653.2031 Q1130.2813,1652.9375 1130.4297,1652.8594 Q1130.5781,1652.7813 1130.7813,1652.7813 Q1131.1094,1652.7813 1131.3672,1653.0391 Q1131.625,1653.2969 1131.625,1653.6406 Q1131.625,1653.9844 1131.2813,1654.3906 Q1130.7813,1654.9688 1129.9844,1655.2969 Q1128.9063,1655.75 1127.6094,1655.75 Q1126.0938,1655.75 1124.8906,1655.125 Q1123.9063,1654.625 1123.2188,1653.5547 Q1122.5313,1652.4844 1122.5313,1651.2031 L1122.5313,1650.0469 Q1122.5313,1648.7188 1123.1484,1647.5703 Q1123.7656,1646.4219 1124.8594,1645.8047 Q1125.9531,1645.1875 1127.1875,1645.1875 Q1127.9219,1645.1875 1128.5703,1645.3516 Q1129.2188,1645.5156 1129.7656,1645.875 Z " fill="#000000"/><text fill="#000000" font-family="sans-serif" font-size="12" lengthAdjust="spacing" textLength="60" x="1141" y="1654.9102">ObjectPool</text><line style="stroke:#A80036;stroke-width:1.5;" x1="1113" x2="1203" y1="1666" y2="1666"/><line style="stroke:#A80036;stroke-width:1.5;" x1="1113" x2="1203" y1="1674" y2="1674"/><!--MD5=[476d9c4dc2c286462da516caafb5d884]
link src.factory.Factory to common.gpio.LedController--><path codeLine="70" d="M163.84,127.04 C236.52,159.57 402.09,233.67 493.48,274.57 " fill="none" id="src.factory.Factory-to-common.gpio.LedController" style="stroke:#A80036;stroke-width:1.0;"/><polygon fill="#A80036" points="505.6,279.99,501.758,273.8876,494.6473,275.087,498.4893,281.1894,505.6,279.99" style="stroke:#A80036;stroke-width:1.0;"/><text fill="#000000" font-family="sans-serif" font-size="13" lengthAdjust="spacing" textLength="46" x="280" y="180.4951">static</text><!--MD5=[0487a4149df7385a276f1287391b591d]
link src.factory.Factory to common.gpio.ButtonController--><path codeLine="71" d="M163.77,113.21 C264.78,119.99 549.93,143.11 628,192 C656.65,209.94 677.69,242.65 690.65,267.93 " fill="none" id="src.factory.Factory-to-common.gpio.ButtonController" style="stroke:#A80036;stroke-width:1.0;"/><polygon fill="#A80036" points="696.36,279.65,697.3247,272.5037,691.0992,268.8647,690.1345,276.0109,696.36,279.65" style="stroke:#A80036;stroke-width:1.0;"/><text fill="#000000" font-family="sans-serif" font-size="13" lengthAdjust="spacing" textLength="46" x="608" y="180.4951">static</text><!--MD5=[1b74dc48fd36e00a103d7b80953c378f]
link src.factory.Factory to src.app.AppController--><path codeLine="72" d="M125.83,134.16 C122.74,167.1 117.05,227.79 113.4,266.73 " fill="none" id="src.factory.Factory-to-src.app.AppController" style="stroke:#A80036;stroke-width:1.0;"/><polygon fill="#A80036" points="112.18,279.76,116.723,274.1599,113.3009,267.8125,108.7579,273.4126,112.18,279.76" style="stroke:#A80036;stroke-width:1.0;"/><text fill="#000000" font-family="sans-serif" font-size="13" lengthAdjust="spacing" textLength="46" x="124" y="180.4951">static</text><!--MD5=[d059d89b541b5ac47801f319f2ca01f7]
link common.gpio.ButtonController to common.hal.ButtonHal--><path codeLine="74" d="M766.74,309.17 C899.78,319.33 1211.77,349.14 1296,410 C1321.14,428.16 1336.82,460.18 1345.82,485.17 " fill="none" id="common.gpio.ButtonController-to-common.hal.ButtonHal" style="stroke:#A80036;stroke-width:1.0;"/><polygon fill="#A80036" points="1350.04,497.85,1351.9446,490.895,1346.2571,486.4619,1344.3525,493.4169,1350.04,497.85" style="stroke:#A80036;stroke-width:1.0;"/><text fill="#000000" font-family="sans-serif" font-size="13" lengthAdjust="spacing" textLength="59" x="1282" y="398.4951">_Button</text><!--MD5=[ef6a29ee500518f95dfb32145b4279a0]
link common.gpio.LedController to common.hal.LedHal--><path codeLine="75" d="M573.12,328.04 C585.96,344.41 605.48,365.32 628,376 C764.01,440.52 818.81,374.09 965,410 C1048.32,430.46 1139.75,470.9 1193.94,496.91 " fill="none" id="common.gpio.LedController-to-common.hal.LedHal" style="stroke:#A80036;stroke-width:1.0;"/><polygon fill="#FFFFFF" points="1205.9,502.71,1202.2457,496.4934,1195.1018,497.4757,1198.7561,503.6923,1205.9,502.71" style="stroke:#A80036;stroke-width:1.0;"/><!--MD5=[6379335f69a2434b5c254155cd5b5a13]
link common.gpio.LedController to common.xf.core.XFReactive--><path codeLine="77" d="M557,328.12 C557,363.67 557,432.38 557,477.46 " fill="none" id="common.gpio.LedController-to-common.xf.core.XFReactive" style="stroke:#A80036;stroke-width:1.0;"/><polygon fill="none" points="564,477.72,557,497.72,550,477.72,564,477.72" style="stroke:#A80036;stroke-width:1.0;"/><text fill="#000000" font-family="sans-serif" font-size="13" lengthAdjust="spacing" textLength="48" x="558" y="398.4951">public</text><!--MD5=[858e296c86b5386576a2199d9a2e6839]
link src.app.AppController to common.xf.core.XFReactive--><path codeLine="78" d="M157.84,328.12 C238.37,367.03 401.1,445.67 491.94,489.56 " fill="none" id="src.app.AppController-to-common.xf.core.XFReactive" style="stroke:#A80036;stroke-width:1.0;"/><polygon fill="none" points="495.22,483.37,510.18,498.38,489.13,495.98,495.22,483.37" style="stroke:#A80036;stroke-width:1.0;"/><text fill="#000000" font-family="sans-serif" font-size="13" lengthAdjust="spacing" textLength="48" x="307" y="398.4951">public</text><!--MD5=[4c72a46df87df1dbd0ff520b3e0f731b]
link common.core.IsList to common.pool.MemoryPool--><path codeLine="80" d="M1226.21,1382.2 C1212.63,1411.39 1189.19,1461.8 1173.39,1495.76 " fill="none" id="common.core.IsList-to-common.pool.MemoryPool" style="stroke:#A80036;stroke-width:1.0;"/><polygon fill="#A80036" points="1167.75,1507.9,1173.9083,1504.1483,1172.8138,1497.0208,1166.6555,1500.7724,1167.75,1507.9" style="stroke:#A80036;stroke-width:1.0;"/><text fill="#000000" font-family="sans-serif" font-size="13" lengthAdjust="spacing" textLength="26" x="1200" y="1452.4951">*p</text><!--MD5=[5fd700effc826cfe9471fa4f2d0783a3]
link common.core.IsList to common.pool.ObjectPool--><path codeLine="81" d="M1243.19,1382.31 C1253.97,1427.95 1271.55,1531.03 1233,1604 C1228.49,1612.53 1221.93,1619.99 1214.53,1626.4 " fill="none" id="common.core.IsList-to-common.pool.ObjectPool" style="stroke:#A80036;stroke-width:1.0;"/><polygon fill="#FFFFFF" points="1204.04,1634.51,1211.2332,1634.0025,1213.5314,1627.1674,1206.3381,1627.6749,1204.04,1634.51" style="stroke:#A80036;stroke-width:1.0;"/><text fill="#000000" font-family="sans-serif" font-size="13" lengthAdjust="spacing" textLength="103" x="1257" y="1537.4951">ItemObjectPool</text><!--MD5=[42f129cde267019a872cf22f754a9570]
link common.pool.MemoryPool to common.pool.ObjectPool--><path codeLine="82" d="M1157.19,1556.03 C1157.33,1574.1 1157.54,1599.6 1157.71,1620.45 " fill="none" id="common.pool.MemoryPool-to-common.pool.ObjectPool" style="stroke:#A80036;stroke-width:1.0;"/><polygon fill="#FFFFFF" points="1157.81,1633.67,1161.7571,1627.6351,1157.7045,1621.6705,1153.7574,1627.7054,1157.81,1633.67" style="stroke:#A80036;stroke-width:1.0;"/><text fill="#000000" font-family="sans-serif" font-size="13" lengthAdjust="spacing" textLength="66" x="1158" y="1600.4951">* PoolPtr</text><!--MD5=[21e4d275ef47b84912823160574b8d32]
link common.xf.core.XFTimeoutManager to common.core.IsList--><path codeLine="83" d="M911.58,1226.3 C968.1,1239.83 1049.24,1261.79 1117,1290 C1143.82,1301.17 1172.28,1316.87 1194.75,1330.27 " fill="none" id="common.xf.core.XFTimeoutManager-to-common.core.IsList" style="stroke:#A80036;stroke-width:1.0;"/><polygon fill="#A80036" points="1205.91,1337.03,1202.8513,1330.4997,1195.6469,1330.8115,1198.7056,1337.3418,1205.91,1337.03" style="stroke:#A80036;stroke-width:1.0;"/><!--MD5=[0367b1f51d1d8856771aea369dac456b]
link common.xf.core.XFTimeoutManager to common.xf.core.XFTimeout--><path codeLine="84" d="M853.38,1234.17 C857.24,1243.25 861.07,1253.89 863,1264 C866.64,1283.09 862.35,1304.18 856.61,1321.45 " fill="none" id="common.xf.core.XFTimeoutManager-to-common.xf.core.XFTimeout" style="stroke:#A80036;stroke-width:1.0;"/><polygon fill="#A80036" points="852.06,1333.81,857.8848,1329.559,856.2011,1322.5472,850.3763,1326.7982,852.06,1333.81" style="stroke:#A80036;stroke-width:1.0;"/><!--MD5=[8e33fa830705c8ebce9bcb4fb7bcddb8]
link common.xf.core.XFTimeout to common.xf.core.XFTimeoutManager--><path codeLine="87" d="M824.29,1333.92 C812.85,1315.24 800.91,1288.17 808,1264 C809.84,1257.71 812.69,1251.46 815.97,1245.57 " fill="none" id="common.xf.core.XFTimeout-to-common.xf.core.XFTimeoutManager" style="stroke:#A80036;stroke-width:1.0;"/><polygon fill="#FFFFFF" points="823.12,1234.11,816.5494,1237.0811,816.7648,1244.2889,823.3354,1241.3179,823.12,1234.11" style="stroke:#A80036;stroke-width:1.0;"/><text fill="#000000" font-family="sans-serif" font-size="13" lengthAdjust="spacing" textLength="45" x="809" y="1278.4951">friend</text><!--MD5=[26ffacfe9d5b262310f9044c37690741]
link common.xf.core.XFTimeoutManager to common.xf.adapt.XF_Adapter--><path codeLine="85" d="M879.65,1234.09 C904.26,1249.45 936.93,1270.35 965,1290 C983.42,1302.89 1003.39,1318.01 1019.65,1330.61 " fill="none" id="common.xf.core.XFTimeoutManager-to-common.xf.adapt.XF_Adapter" style="stroke:#A80036;stroke-width:1.0;"/><polygon fill="#A80036" points="1023.7,1333.76,1019.0429,1325.0818,1019.7502,1330.6942,1014.1377,1331.4015,1023.7,1333.76" style="stroke:#A80036;stroke-width:1.0;"/><!--MD5=[1625257d580c61134f279a8992a8e0b9]
link common.xf.core.XFTimeout to common.xf.core.IXFEvent--><path codeLine="86" d="M805.1,1333.82 C773.95,1311.82 730.05,1275.96 705,1234 C682.24,1195.88 672.09,1145.69 667.58,1110.32 " fill="none" id="common.xf.core.XFTimeout-to-common.xf.core.IXFEvent" style="stroke:#A80036;stroke-width:1.0;"/><polygon fill="none" points="660.59,1110.85,665.41,1090.22,674.51,1109.35,660.59,1110.85" style="stroke:#A80036;stroke-width:1.0;"/><text fill="#000000" font-family="sans-serif" font-size="13" lengthAdjust="spacing" textLength="48" x="706" y="1215.4951">public</text><!--MD5=[fe1caec7c61742d1fa4642122301101e]
link common.xf.core.IXFEvent to common.xf.core.IXFReactive--><path codeLine="88" d="M650.25,1041.84 C639.73,1023.69 625.17,997.63 614,974 C558.78,857.15 596.96,795.81 506,704 C487.51,685.34 461.52,672.97 437.71,664.92 " fill="none" id="common.xf.core.IXFEvent-to-common.xf.core.IXFReactive" style="stroke:#A80036;stroke-width:1.0;"/><polygon fill="#A80036" points="425.14,660.99,429.6694,666.6011,436.5909,664.5783,432.0616,658.9672,425.14,660.99" style="stroke:#A80036;stroke-width:1.0;"/><!--MD5=[594d626a49ccb6d70daf9fdde25da426]
link common.xf.core.IXFReactive to common.xf.core.IXFEvent--><path codeLine="103" d="M392.59,674.26 C428.42,727.58 519.54,862.63 598,974 C613.13,995.47 630.59,1019.52 643.76,1037.5 " fill="none" id="common.xf.core.IXFReactive-to-common.xf.core.IXFEvent" style="stroke:#A80036;stroke-width:1.0;"/><polygon fill="#A80036" points="647.01,1041.94,644.9089,1032.3179,644.0513,1037.9093,638.4599,1037.0518,647.01,1041.94" style="stroke:#A80036;stroke-width:1.0;"/><text fill="#000000" font-family="sans-serif" font-size="13" lengthAdjust="spacing" textLength="47" x="509" y="844.4951">virtual</text><!--MD5=[39b277a31962f9563840256910f2f7e0]
link common.xf.core.IXFReactive to common.xf.core.EventStatus--><path codeLine="89" d="M425.05,667.31 C430.79,668.82 436.61,670.11 442.25,671 C463.76,674.38 469.73,674.35 491.25,671 C492.64,670.78 494.04,670.54 495.45,670.28 " fill="none" id="common.xf.core.IXFReactive-to-common.xf.core.EventStatus" style="stroke:#A80036;stroke-width:1.0;"/><polygon fill="#A80036" points="508.21,667.4,501.4777,664.8161,496.5032,670.0367,503.2355,672.6206,508.21,667.4" style="stroke:#A80036;stroke-width:1.0;"/><text fill="#000000" font-family="sans-serif" font-size="13" lengthAdjust="spacing" textLength="47" x="443.25" y="667.4951">virtual</text><!--MD5=[39b277a31962f9563840256910f2f7e0]
link common.xf.core.IXFReactive to common.xf.core.EventStatus--><path codeLine="104" d="M425.24,650 C449.25,650 478.36,650 503.11,650 " fill="none" id="common.xf.core.IXFReactive-to-common.xf.core.EventStatus-1" style="stroke:#A80036;stroke-width:1.0;"/><polygon fill="#A80036" points="508.32,650,499.32,646,503.32,650,499.32,654,508.32,650" style="stroke:#A80036;stroke-width:1.0;"/><text fill="#000000" font-family="sans-serif" font-size="13" lengthAdjust="spacing" textLength="47" x="443.25" y="643.4951">virtual</text><!--MD5=[40b942e279b931e97fe42de722d3e1a6]
link common.xf.core.IXFEvent to common.xf.core.XFTimeoutManager--><path codeLine="90" d="M692.99,1090.13 C724.8,1115.51 775.75,1156.15 809.05,1182.71 " fill="none" id="common.xf.core.IXFEvent-to-common.xf.core.XFTimeoutManager" style="stroke:#A80036;stroke-width:1.0;"/><polygon fill="#A80036" points="813.02,1185.88,808.4676,1177.1464,809.1073,1182.767,803.4867,1183.4067,813.02,1185.88" style="stroke:#A80036;stroke-width:1.0;"/><text fill="#000000" font-family="sans-serif" font-size="13" lengthAdjust="spacing" textLength="45" x="775" y="1152.4951">friend</text><!--MD5=[8f16ef6b9662c9298f738503d0445052]
link common.xf.core.XFReactive to common.xf.core.IXFReactive--><path codeLine="92" d="M523.99,546.11 C496.79,565.14 457.81,592.43 426.83,614.12 " fill="none" id="common.xf.core.XFReactive-to-common.xf.core.IXFReactive" style="stroke:#A80036;stroke-width:1.0;"/><polygon fill="none" points="430.51,620.09,410.11,625.82,422.48,608.62,430.51,620.09" style="stroke:#A80036;stroke-width:1.0;"/><text fill="#000000" font-family="sans-serif" font-size="13" lengthAdjust="spacing" textLength="48" x="478" y="592.4951">public</text><!--MD5=[8ad528f9c1adfb5933cf4ee8c421cf31]
link common.xf.core.XFReactive to common.xf.core.XFThread--><path codeLine="93" d="M603.63,530.37 C687.48,544.69 858.27,579.03 893,626 C905.68,643.15 900.82,654.15 893,674 C886.31,690.97 871.69,687.03 865,704 C859.3,718.46 863.71,811.69 866.75,864.55 " fill="none" id="common.xf.core.XFReactive-to-common.xf.core.XFThread" style="stroke:#A80036;stroke-width:1.0;"/><polygon fill="#FFFFFF" points="867.52,877.67,871.164,871.4473,866.8215,865.6903,863.1775,871.913,867.52,877.67" style="stroke:#A80036;stroke-width:1.0;"/><text fill="#000000" font-family="sans-serif" font-size="13" lengthAdjust="spacing" textLength="72" x="866" y="718.4951">*_pThread</text><!--MD5=[5febd31ab45a4edb95e82db7426719bf]
link common.xf.core.XFReactive to common.xf.core.IXFEvent--><path codeLine="94" d="M510.37,527.49 C452.53,535.85 356.17,559.51 312,626 C291.75,656.47 300.89,750.66 329,800 C395.72,917.13 536.59,1001.53 612.67,1040.62 " fill="none" id="common.xf.core.XFReactive-to-common.xf.core.IXFEvent" style="stroke:#A80036;stroke-width:1.0;"/><polygon fill="#FFFFFF" points="624.31,1046.51,620.7631,1040.2315,613.6034,1041.0908,617.1503,1047.3693,624.31,1046.51" style="stroke:#A80036;stroke-width:1.0;"/><text fill="#000000" font-family="sans-serif" font-size="13" lengthAdjust="spacing" textLength="107" x="330" y="781.4951">*_pCurrentEvent</text><!--MD5=[18348d0854eb3ae16e4274920345af69]
link common.xf.core.XFReactive to common.xf.core.EventStatus--><path codeLine="95" d="M557,546.11 C557,564.64 557,591 557,612.4 " fill="none" id="common.xf.core.XFReactive-to-common.xf.core.EventStatus" style="stroke:#A80036;stroke-width:1.0;"/><polygon fill="#FFFFFF" points="557,625.61,561,619.61,557,613.61,553,619.61,557,625.61" style="stroke:#A80036;stroke-width:1.0;"/><text fill="#000000" font-family="sans-serif" font-size="13" lengthAdjust="spacing" textLength="47" x="558" y="592.4951">virtual</text><!--MD5=[ae154bc474393750b0a4ab092f26d4a9]
link common.xf.core.XFNullTransition to common.xf.core.IXFEvent--><path codeLine="96" d="M686.71,674.06 C665.88,707 629.63,770.16 616,830 C600.62,897.53 625.48,976.5 644.79,1023.55 " fill="none" id="common.xf.core.XFNullTransition-to-common.xf.core.IXFEvent" style="stroke:#A80036;stroke-width:1.0;"/><polygon fill="none" points="651.22,1020.77,652.72,1041.91,638.37,1026.32,651.22,1020.77" style="stroke:#A80036;stroke-width:1.0;"/><text fill="#000000" font-family="sans-serif" font-size="13" lengthAdjust="spacing" textLength="48" x="617" y="844.4951">public</text><!--MD5=[09c1f693c0a96cf5efb5379a108d3bad]
link common.xf.core.XFNullTransition to common.xf.core.XF--><path codeLine="97" d="M721.88,674.03 C739.85,694.87 766.35,725.58 785.4,747.65 " fill="none" id="common.xf.core.XFNullTransition-to-common.xf.core.XF" style="stroke:#A80036;stroke-width:1.0;"/><polygon fill="#A80036" points="788.87,751.67,786.0119,742.245,785.6008,747.8868,779.9589,747.4757,788.87,751.67" style="stroke:#A80036;stroke-width:1.0;"/><!--MD5=[b7a940ca5bb1bec8757295640b67d6bc]
link common.xf.core.XFReactive to common.xf.core.XFNullTransition--><path codeLine="98" d="M583.6,546.11 C608.27,567.56 645.01,599.48 671.01,622.07 " fill="none" id="common.xf.core.XFReactive-to-common.xf.core.XFNullTransition" style="stroke:#A80036;stroke-width:1.0;"/><polygon fill="#A80036" points="675.08,625.61,670.9216,616.6821,671.31,622.3256,665.6665,622.714,675.08,625.61" style="stroke:#A80036;stroke-width:1.0;"/><!--MD5=[2beb0d41cc319812c3af6894dde8cc17]
link common.xf.core.XFReactive to common.xf.core.XFTimeout--><path codeLine="99" d="M603.78,528.07 C707.56,540.62 948,577.41 948,649 C948,649 948,649 948,1211 C948,1257.3 912.55,1298.67 882.46,1325.45 " fill="none" id="common.xf.core.XFReactive-to-common.xf.core.XFTimeout" style="stroke:#A80036;stroke-width:1.0;"/><polygon fill="#FFFFFF" points="872.52,1333.95,879.6795,1333.0891,881.6385,1326.1492,874.479,1327.0101,872.52,1333.95" style="stroke:#A80036;stroke-width:1.0;"/><!--MD5=[e58d27761922f99be8e10f1f3f7f233f]
link common.xf.core.XFThread to common.xf.core.IXFEvent--><path codeLine="100" d="M839.63,926.21 C803.93,954.42 743.54,1002.14 703.72,1033.61 " fill="none" id="common.xf.core.XFThread-to-common.xf.core.IXFEvent" style="stroke:#A80036;stroke-width:1.0;"/><polygon fill="#FFFFFF" points="693.32,1041.83,700.5077,1041.2497,702.7366,1034.3917,695.5489,1034.972,693.32,1041.83" style="stroke:#A80036;stroke-width:1.0;"/><text fill="#000000" font-family="sans-serif" font-size="13" lengthAdjust="spacing" textLength="69" x="797" y="970.4951">IXFEvent*</text><!--MD5=[29f7e2128ffa3cf9d6e556cf3a2ac689]
link common.xf.core.XFThread to common.xf.queue--><path codeLine="101" d="M904.2,926.2 C923.94,940.52 947.94,960.27 965,982 C977.25,997.6 987.0175,1017.56 993.8338,1033.9963 C994.6858,1036.0508 995.4917,1038.0503 996.2506,1039.9793 C996.4403,1040.4615 996.6271,1040.9394 996.8109,1041.4126 C996.8569,1041.5309 996.9027,1041.6489 996.9482,1041.7666 " fill="none" id="common.xf.core.XFThread-to-common.xf.queue" style="stroke:#A80036;stroke-width:1.0;"/><polygon fill="#A80036" points="996.9482,1041.7666,997.4281,1031.9295,995.1426,1037.104,989.968,1034.8185,996.9482,1041.7666" style="stroke:#A80036;stroke-width:1.0;"/><text fill="#000000" font-family="sans-serif" font-size="13" lengthAdjust="spacing" textLength="98" x="957" y="970.4951">_criticalEvents</text><!--MD5=[f0d3a62d3e3351b7eab91b7b41517d2c]
link common.xf.core.InitialEvent to common.xf.core.IXFEvent--><path codeLine="102" d="M734.25,926.21 C721.4,951.59 700.56,992.77 684.91,1023.7 " fill="none" id="common.xf.core.InitialEvent-to-common.xf.core.IXFEvent" style="stroke:#A80036;stroke-width:1.0;"/><polygon fill="none" points="691,1027.15,675.73,1041.83,678.51,1020.83,691,1027.15" style="stroke:#A80036;stroke-width:1.0;"/><text fill="#000000" font-family="sans-serif" font-size="13" lengthAdjust="spacing" textLength="48" x="718" y="970.4951">public</text><!--MD5=[f3b4e700075df9120d44b53fd27b0fc8]
link common.xf.core.XF to common.xf.core.XFThread--><path codeLine="105" d="M805.21,800.09 C803.9,814.51 804.17,833.09 811,848 C814.47,855.57 819.57,862.54 825.35,868.77 " fill="none" id="common.xf.core.XF-to-common.xf.core.XFThread" style="stroke:#A80036;stroke-width:1.0;"/><polygon fill="#FFFFFF" points="834.82,877.93,833.2852,870.8841,826.191,869.5909,827.7258,876.6368,834.82,877.93" style="stroke:#A80036;stroke-width:1.0;"/><text fill="#000000" font-family="sans-serif" font-size="13" lengthAdjust="spacing" textLength="46" x="812" y="844.4951">static</text><!--MD5=[2e22d3e8caa9d6b590efbcb7689994ca]
link common.xf.core.XFEvent to common.xf.core.IXFEvent--><path codeLine="106" d="M815.26,674.28 C780.48,713.08 713.18,794.98 683,878 C665.9,925.03 662.47,982.81 662.47,1021.59 " fill="none" id="common.xf.core.XFEvent-to-common.xf.core.IXFEvent" style="stroke:#A80036;stroke-width:1.0;"/><polygon fill="none" points="669.47,1021.64,662.78,1041.75,655.47,1021.86,669.47,1021.64" style="stroke:#A80036;stroke-width:1.0;"/><text fill="#000000" font-family="sans-serif" font-size="13" lengthAdjust="spacing" textLength="48" x="704" y="844.4951">public</text><!--MD5=[dbdf27aa20e8ae915661c831e2aef59f]
link common.xf.core.XFEvent to common.xf.core.XF--><path codeLine="107" d="M831.74,674.22 C829.64,683.48 827.2,694.25 825,704 C821.8,718.14 818.26,733.88 815.32,746.93 " fill="none" id="common.xf.core.XFEvent-to-common.xf.core.XF" style="stroke:#A80036;stroke-width:1.0;"/><polygon fill="#A80036" points="814.18,751.98,820.0591,744.0784,815.2782,747.1021,812.2545,742.3212,814.18,751.98" style="stroke:#A80036;stroke-width:1.0;"/><!--MD5=[aae9436fc5f8463a3eae9f6aedd72161]
@startuml general_class_diagram

namespace src{
    namespace factory{
        class Factory{

        }
    }
    namespace app{
        class AppController{

        }


    }
}

namespace common{
    namespace hal{
        class ButtonHal{

        }
        class LedHal{

        }
    }
    namespace gpio{
        class ButtonController{

        }
        class LedController{

        }
    }
    namespace xf{
        namespace adapt{
            class XF_Adapter{
                
            }
        }
        namespace core{
        class XFTimeoutManager{

        }
        class XF{

        }
        class XFReactive{

        }
        }
        namespace queue{
            class Queue{

            }
        }
    }
    namespace core{
        class IsList{

        }
    }
    namespace pool{
        class MemoryPool{
        }
        class ObjectPool{
        }
    }
}

src.factory.Factory - -* common.gpio.LedController : <<static>>
src.factory.Factory - -* common.gpio.ButtonController : <<static>>
src.factory.Factory - -* src.app.AppController : <<static>>

common.gpio.ButtonController - -* common.hal.ButtonHal : <<_Button>>
common.gpio.LedController - -o common.hal.LedHal 

common.gpio.LedController - -|> common.xf.core.XFReactive : <<public>>
src.app.AppController - -|> common.xf.core.XFReactive : <<public>>

common.core.IsList - -* common.pool.MemoryPool : <<*p>>
common.core.IsList - -o common.pool.ObjectPool : <<ItemObjectPool>>
common.pool.MemoryPool - -o  common.pool.ObjectPool : <<* PoolPtr>>
common.xf.core.XFTimeoutManager - -* common.core.IsList
common.xf.core.XFTimeoutManager - -* common.xf.core.XFTimeout
common.xf.core.XFTimeoutManager - -> common.xf.adapt.XF_Adapter
common.xf.core.XFTimeout - -|> common.xf.core.IXFEvent : <<public>>
common.xf.core.XFTimeout - -o common.xf.core.XFTimeoutManager : <<friend>>
common.xf.core.IXFEvent - -* common.xf.core.IXFReactive
common.xf.core.IXFReactive - -* common.xf.core.EventStatus : <<virtual>>
common.xf.core.IXFEvent - -> common.xf.core.XFTimeoutManager : <<friend>>

common.xf.core.XFReactive - -|> common.xf.core.IXFReactive : <<public>>
common.xf.core.XFReactive - -o common.xf.core.XFThread : <<*_pThread>>
common.xf.core.XFReactive - -o common.xf.core.IXFEvent : <<*_pCurrentEvent>>
common.xf.core.XFReactive - -o common.xf.core.EventStatus : <<virtual>>
common.xf.core.XFNullTransition - -|> common.xf.core.IXFEvent : <<public>>
common.xf.core.XFNullTransition - -> common.xf.core.XF
common.xf.core.XFReactive - -> common.xf.core.XFNullTransition 
common.xf.core.XFReactive - -o common.xf.core.XFTimeout 
common.xf.core.XFThread - -o common.xf.core.IXFEvent : <<IXFEvent*>>
common.xf.core.XFThread - -> common.xf.queue : <<_criticalEvents>>
common.xf.core.InitialEvent - -|> common.xf.core.IXFEvent : <<public>>
common.xf.core.IXFReactive - -> common.xf.core.IXFEvent  : <<virtual>>
common.xf.core.IXFReactive -r-> common.xf.core.EventStatus : <<virtual>>
common.xf.core.XF - -o common.xf.core.XFThread  : <<static>>
common.xf.core.XFEvent - -|> common.xf.core.IXFEvent : <<public>>
common.xf.core.XFEvent - -> common.xf.core.XF
@enduml

PlantUML version 1.2022.0(Tue Jan 11 17:16:42 CET 2022)
(GPL source distribution)
Java Runtime: Java(TM) SE Runtime Environment
JVM: Java HotSpot(TM) Client VM
Default Encoding: Cp1252
Language: fr
Country: CH
--></g></svg>