<?xml version="1.0" encoding="UTF-8" standalone="no"?>
<!DOCTYPE svg PUBLIC "-//W3C//DTD SVG 1.1//EN" "http://www.w3.org/Graphics/SVG/1.1/DTD/svg11.dtd">
<svg xmlns="http://www.w3.org/2000/svg" xmlns:xlink="http://www.w3.org/1999/xlink" version="1.1" width="160pt" height="36pt" viewBox="0 0 160 36">
<g enable-background="new">
<g>
<g>
<clipPath id="cp0">
<path transform="matrix(1,0,0,-1,-49,101)" d="M 0 0 L 257.46 0 L 257.46 166.24 L 0 166.24 Z "/>
</clipPath>
<g clip-path="url(#cp0)">
<clipPath id="cp1">
<path transform="matrix(1,0,0,1,-49,-65.240009)" d="M 49.102 65.363 L 208.36 65.363 L 208.36 100.871 L 49.102 100.871 Z "/>
</clipPath>
<g clip-path="url(#cp1)">
<clipPath id="cp2">
<path transform="matrix(1,0,0,1,-49,-65.240009)" d="M 0 0 L 258 0 L 258 167 L 0 167 Z "/>
</clipPath>
<g clip-path="url(#cp2)">
<path transform="matrix(1,0,0,1,-49,-65.240009)" d="M 171.238 85.125 C 173.328 85.766 178.09 87.293 178.09 92.516 C 178.09 94.484 177.305 96.699 175.16 98.328 C 172.391 100.543 168.676 100.691 166.793 100.691 C 163.973 100.691 161.617 100.199 159.633 99.457 C 159.371 99.359 159.109 99.262 158.848 99.164 L 158.586 98.719 C 158.797 96.797 158.797 96.551 158.898 94.582 L 159.422 94.434 C 160.363 95.125 162.664 96.797 166.691 96.797 C 170.82 96.797 172.34 94.633 172.34 93.105 C 172.34 90.84 170.09 90.102 166.898 89.117 L 165.227 88.574 C 163.082 87.934 158.379 86.508 158.379 81.434 C 158.379 76.359 163.082 73.848 168.938 73.848 C 172.809 73.848 175.523 74.883 176.469 75.227 L 176.73 75.574 C 176.52 77.395 176.469 77.59 176.309 79.465 L 175.84 79.66 C 174.531 78.871 172.492 77.691 169.094 77.691 C 168.363 77.691 167.633 77.738 166.848 77.938 C 165.281 78.328 163.973 79.363 163.973 80.891 C 163.973 83.008 166.113 83.648 169.359 84.586 L 171.238 85.125 " fill="#aa9f93"/>
<path transform="matrix(1,0,0,1,-49,-65.240009)" d="M 202.66 87.098 C 202.715 88.129 202.66 91.43 201.457 93.648 C 199.941 96.355 197.434 96.945 195.5 96.945 C 194.449 96.945 193.352 96.75 192.41 96.305 C 188.281 94.336 188.23 89.359 188.23 87.391 C 188.23 85.324 188.391 82.469 189.801 80.449 C 191.629 77.691 194.559 77.59 195.551 77.59 C 198.48 77.59 200.152 78.871 201.145 80.398 C 202.449 82.566 202.66 85.863 202.66 87.098 M 208.359 86.898 C 208.254 83.453 207.578 80.004 205.172 77.395 C 202.871 74.934 199.367 73.848 195.812 73.848 C 190.582 73.848 187.555 75.867 186.086 77.297 C 182.586 80.598 182.48 85.422 182.48 87.293 C 182.48 88.918 182.531 93.941 186.086 97.34 C 187.758 98.965 190.738 100.641 195.445 100.641 C 199.105 100.641 202.191 99.801 204.488 97.633 C 206.219 96.012 207.312 94.09 207.887 91.676 C 208.254 90.199 208.359 88.574 208.359 86.898 " fill="#aa9f93"/>
<path transform="matrix(1,0,0,1,-49,-65.240009)" d="M 152.414 87.305 C 152.414 89.023 151.02 90.418 149.301 90.418 C 147.582 90.418 146.191 89.023 146.191 87.305 C 146.191 85.586 147.582 84.191 149.301 84.191 C 151.02 84.191 152.414 85.586 152.414 87.305 " fill="#aa9f93"/>
<path transform="matrix(1,0,0,1,-49,-65.240009)" d="M 80.785 65.66 C 80.73 69.453 80.68 71.766 80.68 75.215 C 80.68 83.488 80.836 91.711 81.254 99.984 L 80.992 100.281 C 76.547 100.23 75.504 100.281 71.582 100.43 L 71.32 100.133 C 71.582 93.188 71.582 91.562 71.477 84.918 C 69.387 84.867 67.293 84.816 65.203 84.816 C 63.164 84.816 61.23 84.867 58.93 84.965 C 58.98 92.105 59.031 93.879 59.348 99.984 L 59.086 100.281 C 54.488 100.23 53.543 100.281 49.727 100.43 L 49.469 100.133 C 49.57 95.996 49.676 93.586 49.676 89.152 C 49.676 76.938 49.363 70.883 49.102 65.809 L 49.414 65.512 C 53.965 65.512 54.746 65.512 58.773 65.363 L 59.031 65.66 L 58.93 78.66 C 60.762 78.66 62.641 78.711 64.469 78.711 C 66.824 78.711 69.125 78.66 71.426 78.613 C 71.375 72.801 71.375 71.371 71.008 65.809 L 71.27 65.512 C 75.66 65.512 76.34 65.512 80.523 65.363 L 80.785 65.66 " fill="#1b619a"/>
<path transform="matrix(1,0,0,1,-49,-65.240009)" d="M 95.258 84.176 C 95.414 82.648 95.777 80.582 97.766 79.398 C 98.395 79.008 99.129 78.859 99.855 78.859 C 101.582 78.859 102.625 79.695 103.203 80.582 C 103.934 81.668 103.988 82.848 103.988 83.98 Z M 111.098 92.992 C 109.109 93.977 106.758 95.109 102.941 95.109 C 99.805 95.109 97.66 94.176 96.406 92.402 C 95.621 91.367 95.465 90.383 95.258 89.398 L 112.145 89.102 L 112.457 88.758 C 112.406 86.344 112.352 83.883 111.621 81.418 C 109.789 75.605 105.766 74.426 103.988 74.031 C 102.68 73.688 101.477 73.59 100.273 73.59 C 92.066 73.59 86.629 78.66 86.629 87.18 C 86.629 89.496 87.047 91.906 87.883 93.633 C 90.918 100.281 98.027 100.871 101.793 100.871 C 106.133 100.871 108.016 100.133 110.785 99.098 L 111.098 98.703 L 111.465 93.141 L 111.098 92.992 " fill="#1b619a"/>
<path transform="matrix(1,0,0,1,-49,-65.240009)" d="M 133.16 84.176 C 136.035 85.211 140.062 86.641 140.062 92.055 C 140.062 92.402 140.062 92.746 140.008 93.141 C 139.07 100.184 131.227 100.871 127.254 100.871 C 123.438 100.871 121.238 100.086 118.68 99.199 L 118.418 98.754 C 118.629 96.293 118.68 95.75 118.785 93.191 L 119.254 92.992 C 120.035 93.586 120.457 93.93 121.348 94.371 C 123.277 95.309 125.426 95.75 126.887 95.75 C 129.812 95.75 131.016 94.422 131.016 93.191 C 131.016 91.418 128.715 90.676 127.305 90.234 L 125.316 89.543 C 122.859 88.66 118.523 87.082 118.523 81.812 C 118.523 79.844 119.254 78.367 119.934 77.48 C 122.652 73.785 127.777 73.59 130.336 73.59 C 133.734 73.59 135.879 74.18 138.336 74.82 L 138.598 75.113 L 138.074 80.484 L 137.605 80.633 C 136.297 79.844 134.258 78.562 131.07 78.562 C 127.828 78.562 127.41 80.188 127.41 80.777 C 127.41 82.156 128.82 82.699 130.598 83.289 L 133.16 84.176 " fill="#1b619a"/>
</g>
</g>
</g>
</g>
</g>
</g>
</svg>
