<?xml version="1.0" encoding="UTF-8" standalone="no"?>
<!DOCTYPE svg PUBLIC "-//W3C//DTD SVG 1.1//EN" "http://www.w3.org/Graphics/SVG/1.1/DTD/svg11.dtd">
<svg xmlns="http://www.w3.org/2000/svg" xmlns:xlink="http://www.w3.org/1999/xlink" version="1.1" width="164.0475pt" height="15.045pt" viewBox="0 0 164.0475 15.045">
<g enable-background="new">
<g>
<path d="M 102.414 .195 L 103.434 .195 L 104.746 4.352 L 104.762 4.352 L 106.102 .195 L 107.086 .195 L 107.086 5.422 L 106.453 5.422 L 106.453 .914 L 106.449 .914 L 104.961 5.422 L 104.484 5.422 L 103.059 .914 L 103.043 .914 L 103.043 5.422 L 102.414 5.422 Z M 102.414 .195 " fill="#66696f"/>
<path d="M 110.766 3.488 L 109.965 .887 L 109.094 3.488 Z M 110.34 .195 L 112.051 5.445 L 111.344 5.445 L 110.926 4.078 L 108.945 4.078 L 108.523 5.445 L 107.863 5.445 L 109.621 .195 Z M 110.34 .195 " fill="#66696f"/>
<path d="M 114.988 .953 C 114.719 .793 114.41 .711 114.098 .711 C 113.656 .672 113.277 1.02 113.281 1.461 C 113.281 1.793 113.414 2.004 114.164 2.438 C 114.914 2.871 115.246 3.359 115.246 3.938 C 115.309 4.789 114.598 5.5 113.746 5.438 C 113.367 5.441 112.996 5.367 112.648 5.211 L 112.648 4.531 C 112.949 4.723 113.293 4.84 113.648 4.867 C 114.137 4.91 114.562 4.535 114.578 4.043 C 114.578 3.637 114.473 3.406 113.766 2.977 C 112.824 2.406 112.613 2.086 112.613 1.418 C 112.609 .633 113.289 .02 114.066 .105 C 114.391 .105 114.711 .164 115.012 .277 Z M 114.988 .953 " fill="#66696f"/>
<path d="M 117.066 .766 L 115.867 .766 L 115.867 .195 L 118.922 .195 L 118.922 .766 L 117.727 .766 L 117.727 5.422 L 117.066 5.422 Z M 117.066 .766 " fill="#66696f"/>
<path d="M 119.781 .195 L 122.219 .195 L 122.219 .766 L 120.441 .766 L 120.441 2.422 L 122.137 2.422 L 122.137 2.992 L 120.441 2.992 L 120.441 4.852 L 122.316 4.852 L 122.316 5.422 L 119.781 5.422 Z M 119.781 .195 " fill="#66696f"/>
<path d="M 124.094 2.512 L 124.598 2.512 C 125.137 2.574 125.598 2.137 125.574 1.598 C 125.574 1.012 125.191 .734 124.613 .734 L 124.094 .734 Z M 123.426 .195 L 124.77 .195 C 125.172 .164 125.566 .293 125.871 .555 C 126.137 .82 126.277 1.18 126.262 1.551 C 126.297 2.188 125.828 2.734 125.199 2.797 C 125.477 2.832 125.703 3.035 125.766 3.309 L 126.516 5.406 L 125.766 5.406 L 125.168 3.637 C 125.09 3.25 124.727 2.988 124.336 3.039 L 124.094 3.039 L 124.094 5.422 L 123.426 5.422 Z M 123.426 .195 " fill="#66696f"/>
<path d="M 131.07 4.934 C 131.762 4.934 132.344 4.363 132.344 2.754 C 132.344 1.695 132.016 .684 131.129 .684 C 130.441 .684 129.855 1.254 129.855 2.859 C 129.855 3.914 130.184 4.934 131.07 4.934 M 131.129 .141 C 132.293 .141 133.035 1.141 133.035 2.754 C 133.035 4.559 132.285 5.477 131.07 5.477 C 129.855 5.477 129.172 4.477 129.172 2.859 C 129.172 1.059 129.922 .141 131.129 .141 " fill="#66696f"/>
<path d="M 134.113 .195 L 136.449 .195 L 136.449 .766 L 134.773 .766 L 134.773 2.422 L 136.363 2.422 L 136.363 2.992 L 134.773 2.992 L 134.773 5.422 L 134.113 5.422 Z M 134.113 .195 " fill="#66696f"/>
<path d="M 141.555 .953 C 141.289 .793 140.98 .711 140.672 .711 C 140.23 .672 139.852 1.02 139.852 1.461 C 139.852 1.793 139.988 2.004 140.738 2.438 C 141.488 2.871 141.809 3.359 141.809 3.938 C 141.879 4.793 141.164 5.504 140.309 5.438 C 139.934 5.441 139.559 5.367 139.215 5.211 L 139.215 4.531 C 139.512 4.723 139.852 4.836 140.203 4.867 C 140.699 4.914 141.129 4.535 141.141 4.043 C 141.141 3.637 141.039 3.406 140.332 2.977 C 139.387 2.406 139.176 2.086 139.176 1.418 C 139.195 .664 139.844 .082 140.594 .141 C 140.914 .141 141.234 .199 141.531 .316 Z M 141.555 .953 " fill="#66696f"/>
<path d="M 145.965 5.316 C 145.656 5.418 145.336 5.469 145.012 5.477 C 143.355 5.477 142.656 4.215 142.656 2.797 C 142.656 1.172 143.609 .141 144.977 .141 C 145.316 .133 145.652 .199 145.965 .328 L 145.965 .977 C 145.668 .793 145.328 .703 144.984 .711 C 143.973 .762 143.219 1.66 143.348 2.664 C 143.348 4.012 143.887 4.914 145.027 4.914 C 145.355 4.914 145.68 4.828 145.965 4.664 Z M 145.965 5.316 " fill="#66696f"/>
<path d="M 147.051 .195 L 147.711 .195 L 147.711 5.4220006 L 147.051 5.4220006 Z " fill="#66696f"/>
<path d="M 149.012 .195 L 151.449 .195 L 151.449 .766 L 149.672 .766 L 149.672 2.422 L 151.363 2.422 L 151.363 2.992 L 149.672 2.992 L 149.672 4.852 L 151.547 4.852 L 151.547 5.422 L 149.012 5.422 Z M 149.012 .195 " fill="#66696f"/>
<path d="M 152.617 .195 L 153.434 .195 L 155.406 4.508 L 155.422 4.508 L 155.422 .195 L 156.051 .195 L 156.051 5.422 L 155.234 5.422 L 153.262 1.141 L 153.246 1.141 L 153.246 5.422 L 152.617 5.422 Z M 152.617 .195 " fill="#66696f"/>
<path d="M 160.434 5.316 C 160.125 5.418 159.805 5.469 159.48 5.477 C 157.828 5.477 157.133 4.215 157.133 2.797 C 157.133 1.172 158.078 .141 159.441 .141 C 159.781 .133 160.121 .199 160.434 .328 L 160.434 .977 C 160.137 .793 159.797 .703 159.449 .711 C 158.441 .762 157.688 1.66 157.816 2.664 C 157.816 4.012 158.363 4.914 159.496 4.914 C 159.824 4.914 160.148 4.828 160.434 4.664 Z M 160.434 5.316 " fill="#66696f"/>
<path d="M 161.52 .195 L 163.949 .195 L 163.949 .766 L 162.18 .766 L 162.18 2.422 L 163.875 2.422 L 163.875 2.992 L 162.18 2.992 L 162.18 4.852 L 164.047 4.852 L 164.047 5.422 L 161.52 5.422 Z M 161.52 .195 " fill="#66696f"/>
<path d="M 102.414 9.637 L 103.074008 9.637 L 103.074008 14.864 L 102.414 14.864 Z " fill="#66696f"/>
<path d="M 104.379 9.637 L 105.195 9.637 L 107.16 13.949 L 107.176 13.949 L 107.176 9.637 L 107.805 9.637 L 107.805 14.863 L 106.988 14.863 L 105.023 10.574 L 105.008 10.574 L 105.008 14.863 L 104.379 14.863 Z M 104.379 9.637 " fill="#66696f"/>
<path d="M 111.059 9.637 L 113.488 9.637 L 113.488 10.199 L 111.719 10.199 L 111.719 11.863 L 113.406 11.863 L 113.406 12.434 L 111.719 12.434 L 111.719 14.297 L 113.586 14.297 L 113.586 14.863 L 111.059 14.863 Z M 111.059 9.637 " fill="#66696f"/>
<path d="M 114.75 9.637 L 115.566 9.637 L 117.539 13.949 L 117.555 13.949 L 117.555 9.637 L 118.176 9.637 L 118.176 14.863 L 117.367 14.863 L 115.395 10.574 L 115.379 10.574 L 115.379 14.863 L 114.75 14.863 Z M 114.75 9.637 " fill="#66696f"/>
<path d="M 122.984 14.648 C 122.57 14.809 122.133 14.898 121.688 14.918 C 120.031 14.918 119.332 13.656 119.332 12.238 C 119.332 10.605 120.285 9.586 121.648 9.586 C 122.07 9.57 122.492 9.648 122.879 9.816 L 122.879 10.469 C 122.5 10.273 122.082 10.164 121.656 10.156 C 120.645 10.199 119.891 11.102 120.023 12.105 C 120.023 13.453 120.562 14.355 121.703 14.355 C 121.926 14.355 122.148 14.305 122.355 14.211 L 122.355 12.547 L 121.477 12.547 L 121.477 11.977 L 122.977 11.977 Z M 122.984 14.648 " fill="#66696f"/>
<path d="M 124.359 9.637 L 125.015 9.637 L 125.015 14.864 L 124.359 14.864 Z " fill="#66696f"/>
<path d="M 126.398 9.637 L 127.215 9.637 L 129.18 13.949 L 129.203 13.949 L 129.203 9.637 L 129.824 9.637 L 129.824 14.863 L 129.016 14.863 L 127.043 10.574 L 127.027 10.574 L 127.027 14.863 L 126.398 14.863 Z M 126.398 9.637 " fill="#66696f"/>
<path d="M 131.199 9.637 L 133.637 9.637 L 133.637 10.199 L 131.859 10.199 L 131.859 11.863 L 133.551 11.863 L 133.551 12.434 L 131.859 12.434 L 131.859 14.297 L 133.734 14.297 L 133.734 14.863 L 131.199 14.863 Z M 131.199 9.637 " fill="#66696f"/>
<path d="M 134.895 9.637 L 137.324 9.637 L 137.324 10.199 L 135.555 10.199 L 135.555 11.863 L 137.242 11.863 L 137.242 12.434 L 135.555 12.434 L 135.555 14.297 L 137.422 14.297 L 137.422 14.863 L 134.895 14.863 Z M 134.895 9.637 " fill="#66696f"/>
<path d="M 139.238 11.953 L 139.746 11.953 C 140.285 12.012 140.75 11.574 140.723 11.031 C 140.723 10.449 140.34 10.172 139.762 10.172 L 139.238 10.172 Z M 138.578 9.637 L 139.922 9.637 C 140.32 9.602 140.719 9.73 141.023 9.988 C 141.281 10.258 141.418 10.617 141.406 10.988 C 141.441 11.609 140.996 12.156 140.379 12.238 C 140.656 12.273 140.883 12.477 140.941 12.75 L 141.691 14.852 L 140.977 14.852 L 140.387 13.078 C 140.309 12.691 139.945 12.43 139.551 12.48 L 139.254 12.48 L 139.254 14.852 L 138.594 14.852 Z M 138.578 9.637 " fill="#66696f"/>
<path d="M 142.688 9.637 L 143.348 9.637 L 143.348 14.864 L 142.688 14.864 Z " fill="#66696f"/>
<path d="M 144.727 9.637 L 145.547 9.637 L 147.512 13.949 L 147.523 13.949 L 147.523 9.637 L 148.156 9.637 L 148.156 14.863 L 147.336 14.863 L 145.371 10.574 L 145.359 10.574 L 145.359 14.863 L 144.727 14.863 Z M 144.727 9.637 " fill="#66696f"/>
<path d="M 152.961 14.648 C 152.551 14.809 152.113 14.898 151.672 14.918 C 150.016 14.918 149.316 13.656 149.316 12.238 C 149.316 10.605 150.27 9.586 151.637 9.586 C 152.059 9.57 152.477 9.648 152.863 9.816 L 152.863 10.469 C 152.488 10.273 152.07 10.164 151.641 10.156 C 150.629 10.199 149.875 11.102 150.008 12.105 C 150.008 13.453 150.547 14.355 151.688 14.355 C 151.914 14.355 152.137 14.305 152.34 14.211 L 152.34 12.547 L 151.461 12.547 L 151.461 11.977 L 152.961 11.977 Z M 152.961 14.648 " fill="#66696f"/>
<path stroke-width=".375" stroke-linecap="butt" stroke-miterlimit="4" stroke-linejoin="miter" fill="none" stroke="#66696f" d="M 95.004 .188 L 95.004 14.859 "/>
<path d="M 3.832 14.859 L 0 14.859 L 0 .188 L 5.191 .188 L 11.992 10.32 L 18.391 .188 L 23.781 .188 L 23.781 14.859 L 20.004 14.859 L 20.004 4.074 L 13.199 14.859 L 10.68 14.859 L 3.824 4.074 Z M 3.832 14.859 " fill="#66696f"/>
<path d="M 26.484 3.84 C 26.508 2.82 27.02 1.875 27.863 1.297 C 28.836 .57 30.027 .191 31.246 .227 L 50.266 .227 L 50.266 4.074 L 30.262 4.074 L 30.262 5.836 L 45.48 5.836 C 46.723 5.746 47.969 6.004 49.074 6.586 C 49.914 7.215 50.367 8.238 50.266 9.285 L 50.266 10.973 C 50.34 12.109 49.828 13.211 48.906 13.883 C 47.898 14.562 46.695 14.906 45.48 14.859 L 26.484 14.859 L 26.484 10.973 L 46.336 10.973 L 46.336 9.316 L 31.215 9.316 C 30.008 9.344 28.82 9.031 27.789 8.406 C 26.941 7.828 26.449 6.859 26.484 5.836 Z M 26.484 3.84 " fill="#66696f"/>
<clipPath id="cp0">
<path d="M 0 .18 L 76.762 .18 L 76.762 14.860001 L 0 14.860001 Z "/>
</clipPath>
<g clip-path="url(#cp0)">
<clipPath id="cp1">
<path d="M 0 0 L 165 0 L 165 16 L 0 16 Z "/>
</clipPath>
<g clip-path="url(#cp1)">
<path d="M 73.426 10.875 L 76.746 10.875 L 76.746 14.859 L 57.727 14.859 C 56.512 14.895 55.32 14.516 54.344 13.785 C 53.488 13.199 52.977 12.234 52.965 11.199 L 52.965 5.73 L 76.746 5.73 L 76.746 9.211 L 56.738 9.211 L 56.738 10.875 Z M 73.426 10.875 " fill="#66696f"/>
<path d="M 52.973 4.059 L 52.973 3.832 C 52.984 2.801 53.496 1.84 54.344 1.254 C 55.316 .523 56.508 .145 57.719 .18 L 76.738 .18 L 76.738 4.059 Z M 52.973 4.059 " fill="#e2001a"/>
</g>
</g>
</g>
</g>
</svg>
