<svg version="1.2" xmlns="http://www.w3.org/2000/svg" viewBox="0 0 2560 1440" width="2560" height="1440">
	<title>Nouveau projet</title>
	<style>
		.s0 { fill: #00b3dd } 
		.s1 { fill: #8bddef } 
		.s2 { fill: #f1fbfc } 
	</style>
	<g id="Nordic Semiconductor_logo.psd">
		<path id="Path 0" fill-rule="evenodd" class="s0" d="m-389-123h3370v1686h-3370zm389 1563h2560v-1440h-2560z"/>
		<path id="Path 1" class="s1" d="m2224.1 926.4c3.9 1.1 3.9 1.1 1.5 1.9-1.7 0.4-3.6 0.2-5.3-0.7-1.7-0.8-2.3-1.6-1.5-1.8 0.7-0.2 3.1 0.1 5.3 0.6zm-180.1-1.4c0.3 0 0.8 0.3 1.3 0.7 0.4 0.5-0.3 1.3-1.5 1.8-1.3 0.6-3.4 0.9-4.8 0.6-2.4-0.4-2.3-0.5 1-1.7 1.9-0.7 3.7-1.3 4-1.4zm-123.1 0.8c1.2 0.3 1 0.7-0.9 1.7-1.4 0.6-4 1-9.4 0.2l4.4-1.1c2.4-0.7 5-1 5.9-0.8zm-23.5-0.8c0.1 0 1.7 0.6 3.6 1.3 3.4 1.4 3.4 1.4 1 2-1.4 0.3-3.3 0-4.2-0.6-1-0.7-1.5-1.5-1.1-1.9 0.3-0.5 0.7-0.8 0.7-0.8zm-327.4 0.8c1.1 0.3 0.9 0.7-1 1.6-1.4 0.7-3.6 1-5 0.8-2.4-0.5-2.3-0.5 1-1.6 1.9-0.7 4.1-1 5-0.8zm-28.7-0.8c0.1 0 1.8 0.6 3.7 1.4 3.2 1.4 3.3 1.5 1 1.7-1.4 0.1-3.2 0-4-0.1-0.8-0.1-1.6-0.4-1.7-0.6-0.2-0.2-0.1-0.9 0.2-1.4 0.4-0.5 0.7-1 0.8-1zm-109.7 0c0 0 1.8 0.6 7.9 2.7l-3 0.6c-1.7 0.3-4.1 0.1-5.5-0.5-2.1-0.7-2.2-1.1-1-1.8 0.8-0.6 1.5-1 1.6-1zm582.6-0.2c0.7 0.7 2.6 1.3 4.3 1.3 1.7 0 3.9 0.4 5 0.8 1.9 0.7 1.8 0.8-0.5 1.4-1.4 0.3-2.9 0.2-3.5-0.2-0.6-0.5-2.2-1.1-3.7-1.5-1.6-0.3-2.8-1.2-2.8-1.8 0-1 0.2-1 1.2 0zm-256.2-1.8c0.7 1.2 4.1 1.6 16.5 2 9.1 0.3 15.6 0.9 15.8 1.5 0.1 0.6-5.3 1.1-14.3 1.2-11.5 0.2-15 0-16.7-1.2-1.3-0.8-2.3-2.3-2.3-3.2 0-1.5 0.2-1.6 1-0.3zm-734.1-1c0.6 0 1.8 0.2 2.6 0.5 0.8 0.3 1.5 1.2 1.5 2 0 0.8-0.7 1.5-1.5 1.5-0.8 0-2-0.9-2.6-2-0.7-1.4-0.7-2 0-2zm1232.6 0c0.5 0.5 0.8 1.2 0.5 1.5-0.3 0.3-2.1 0.7-7.5 1.5l3-2c1.9-1.3 3.3-1.6 4-1zm-599.9-0.2c0.2 0.6 0 2.1-0.6 3.2-0.8 1.7-2 2-7.5 2-3.6 0-7.2-0.2-8-0.5-0.8-0.3-1.5-1.4-1.5-4.5l2 2c1.4 1.4 3.3 2 6.5 2 2.5 0 5.4-0.5 6.5-1 1.1-0.5 2-1.8 2.1-2.7 0-1 0.2-1.2 0.5-0.5zm551.1-0.6c3.4 1.8 6 3.4 5.8 3.6-0.3 0.1-2.2-0.7-4.2-1.7-2.1-1.1-4.7-2.7-5.8-3.5-1.1-0.9 0.8-0.2 4.2 1.6zm-918.7-6.2c0.4 0 0.6 0.7 0.4 1.5-0.2 0.8 0.3 3.1 1.1 5 1.5 3.4 1.7 3.5 7.6 3.8 3.4 0.1 6.5 0 7-0.3 0.5-0.3 1.3-1.8 2.7-6.5l0.1 3.3c0.1 2.7-0.4 3.4-3.1 4.7-1.8 0.9-4.8 1.5-6.5 1.5-1.8 0-4.6-0.9-6.3-2-1.7-1.1-3-2.9-3-4 0-1.1-0.4-2.2-1-2.5-0.5-0.3-0.7-1.4-0.4-2.5 0.3-1.1 0.9-2 1.4-2zm-80.4 0c0.2 0 0.3 1.7 0.2 3.8-0.1 2 0.1 4.3 0.5 5 0.5 0.8 3.1 1.2 7.7 1.2 4.6 0 7.2-0.4 7.7-1.2 0.4-0.7 1-2.6 2.1-7.3l0.1 3.3c0.1 2.3-0.7 3.9-2.6 5.7-2.2 2-3.8 2.6-7.8 2.6-3.3 0-5.8-0.6-7.3-1.8-2-1.6-2.2-2.4-1.6-6.5 0.3-2.7 0.8-4.8 1-4.8zm-130.8-1c0.1 0 0.2 0.3 0.2 0.8 0 0.4-2.1 2.8-4.7 5.5-2.6 2.6-5.3 4.7-6 4.7-1 0-1.1-0.3 0-1.4 0.6-0.8 1.5-1.2 2-1 0.4 0.2 2.4-1.6 4.5-4.1 2-2.4 3.8-4.4 4-4.5zm1276.7-1c0.5 0 2.3 2.3 3.9 5.1 1.7 2.9 3.9 5.6 4.9 6 0.9 0.5 5.5 0.9 18.7 0.9l-0.2-2.9c-0.2-2.3 0-2.7 1-1.7 0.7 0.6 1.3 2 1.2 3.1 0 1.1-0.8 2.5-1.8 3.2-0.9 0.7-5 1.3-9.2 1.3-6.5 0.1-7.8-0.2-10-2.2-1.4-1.3-3.3-3.5-4.2-5-1-1.6-2.6-3.9-3.5-5.3-0.9-1.4-1.3-2.5-0.8-2.5zm-412.8-2c0.1 0-0.4 1-1 2.3-0.7 1.3-3 3.9-5.2 5.8-2.2 1.9-5.3 4-7 4.7-2.7 1.1-2.8 1.1-1-0.2 1.1-0.9 2.6-2 3.3-2.6 0.6-0.5 1.3-0.8 1.5-0.5 0.1 0.3 2.2-1.7 4.7-4.5 2.5-2.7 4.6-5 4.7-5zm331-2.9c0.1-0.1-0.2 0.7-0.7 1.7-0.5 0.9-2.3 3.1-4.2 4.8-1.8 1.7-4.9 4.1-10.3 7.5l3-2.3c1.7-1.3 5-4.4 7.5-7 2.5-2.5 4.6-4.7 4.7-4.7zm-677.1-0.1c0.1 0-0.1 0.8-0.4 1.8-0.4 0.9-2.4 3.4-4.7 5.6-2.2 2.1-4.9 4.4-6 5.2-1.1 0.8-2.3 1.4-2.7 1.4-0.5 0-0.8-0.5-0.8-1 0-0.5 0.5-0.8 1-0.5 0.6 0.3 1.5-0.4 2-1.5 0.6-1.1 1.6-2 2.3-2 0.6 0 2.5-1.3 4.1-3 1.5-1.6 2.6-3 2.4-3-0.2 0 0.3-0.7 1.1-1.5 0.9-0.8 1.6-1.5 1.7-1.5zm-153.2-0.6c0.5 0 1 0.9 1.2 1.9 0.3 1.4 0.1 1.5-1.6 0.7-1.1-0.5-3-1.1-4.2-1.1-1.9-0.1-1.7-0.3 0.7-0.9 1.7-0.4 3.4-0.7 3.9-0.6zm599.1-1.4c0.8 0 1.5 0.7 1.5 1.5 0 1.2-1.3 1.5-5.7 1.5-3.1 0-5.3-0.3-4.9-0.7 0.4-0.4 2.3-0.6 4.2-0.5 1.9 0.1 3.4-0.3 3.4-0.8 0-0.5 0.7-1 1.5-1zm-212.7 0c0.2 0-0.2 0.8-1 1.8-0.7 0.9-2.3 3-3.7 4.7-1.3 1.7-3.6 3.6-5 4.3-2.5 1.3-2.5 1.3-1.1-0.4 0.8-1.1 3.5-3.8 6-6.1 2.5-2.3 4.6-4.2 4.8-4.3zm362.2-1c0.6 0 1 0.7 1 1.5 0 0.8 1.2 2.3 2.6 3.3 1.4 0.9 2.7 2.5 3 3.5 0.2 0.9 0.8 1.5 1.4 1.2 0.6-0.3 0.9 0.1 0.8 0.8-0.2 0.6 0.4 1.1 1.2 0.9 1.2-0.3 1.3-0.1 0.3 1-1.1 1.1-1.8 0.8-4.3-1.7-1.7-1.7-3-3.5-3-4 0-0.5-0.9-1.9-2-3-1.1-1.1-2.1-2.3-2-2.7 0-0.5 0.4-0.8 1-0.8zm-317.7 1.8c0.6 1.2 1.5 2.2 2 2.2 0.4 0 0.7 0.8 0.7 1.8 0 0.9 2.6 4.1 11.5 12.5l-4.5-2.6c-2.5-1.5-4.7-3.2-4.9-3.9-0.2-0.7-1.4-2.4-2.6-3.8-1.2-1.4-2.5-3.8-2.8-5.5-0.6-2.8-0.6-2.9 0.6-0.7zm118.6 3.2c3.4 3.6 7 7.4 7.9 8.5 1.7 1.9 1.6 2-0.3 0.3-1.1-1-2.3-1.8-2.7-1.8-0.5 0-2.1-1.3-3.8-3-1.6-1.7-3.1-3.3-3.2-3.6-0.1-0.3-1.1-2-2.2-3.7-1.2-1.9 0.6-0.5 4.3 3.3zm-590-6c0.5 0 0.7 0.5 0.5 1-0.2 0.5 0.5 1.5 1.6 2 1.1 0.5 1.8 1.3 1.5 1.8-0.3 0.4 1.4 2.7 3.7 5.1 2.4 2.5 3.4 3.8 2.4 3-1.1-0.7-3.3-2.7-4.9-4.4-1.6-1.7-3.6-3.9-4.3-5-0.8-1.1-1.4-2.3-1.4-2.7 0-0.5 0.4-0.8 0.9-0.8zm946.6-0.5c0.8 0.3 1.3 1 1 1.5-0.3 0.5 0.1 1.3 0.9 1.8 0.7 0.4 1.8 1.8 2.5 3.2 0.9 1.8 0.2 1.3-2.4-1.5-1.9-2.2-3.6-4.3-3.6-4.7 0-0.4 0.7-0.5 1.6-0.3zm-1287.8-0.1c0.2 0.1-0.1 1.2-0.7 2.6-0.6 1.4-2.1 3-3.3 3.6-1.2 0.6-4.6 1-7.4 1-2.9-0.1-5.3-0.6-5.3-1.1 0-0.6 2.7-1 6.1-1 5.4 0 6.3-0.3 8.2-2.6 1.1-1.4 2.2-2.6 2.4-2.5zm993.3-1.3c0.8 0 2.5 1.2 3.7 2.7 1.3 1.5 3.3 4.6 4.5 7 1.8 3.3 2 4.7 1.2 6-0.6 0.9-3.4 2.9-6.2 4.5-2.9 1.5-5.4 2.6-5.7 2.5-0.3-0.2 2-1.5 5-3 3-1.6 5.8-3.4 6.1-4 0.3-0.7 0-2.6-0.7-4.1-0.8-1.5-1.7-2.8-2.1-2.7-0.5 0-0.6-0.5-0.3-1 0.3-0.5-0.2-1.2-1-1.5-0.8-0.3-1.3-0.8-1-1.2 0.2-0.5-0.4-1.7-1.5-2.8-1.8-1.7-2.4-1.8-4.5-0.7-1.4 0.6-2.8 1.2-3.2 1.2-0.5-0.1 0.3-0.7 1.7-1.5 1.4-0.8 3.2-1.4 4-1.4zm-805.7 2.2c0.6 1.5 1.5 2.7 2 2.7 0.4 0 0.5 0.5 0.2 1-0.3 0.5 0.5 1.7 1.8 2.5 1.2 0.8 3.8 1.5 5.7 1.5 1.9 0 4.5-0.7 5.8-1.5 1.2-0.8 2.2-1.3 2.2-1 0 0.3-0.7 1.2-1.6 2-1 0.9-3.4 1.5-6.7 1.5-2.9 0-6-0.6-6.9-1.3-1-0.7-1.5-1.5-1.1-1.9 0.3-0.5 0.2-0.8-0.3-0.8-0.5 0-1-0.6-1.1-1.2-0.1-0.7-0.4-2.4-0.7-3.8-0.5-2.3-0.5-2.3 0.7 0.3zm-222.7-2.3c0.2 0 1.1 0.7 1.9 1.5 0.8 0.8 2.1 1.2 2.8 0.9 0.6-0.3 1.8 0.2 2.5 1 0.6 0.9 1.7 1.4 2.2 1.1 0.6-0.3 1 0 1 0.5 0 0.5 1 1 2.3 1 1.7 0 1.9 0.2 0.7 1-0.9 0.5-1.9 0.5-2.5-0.1-0.5-0.5-1.3-0.6-1.8-0.1-0.4 0.4-0.7 0.1-0.7-0.5 0-0.7-0.4-1.1-1-0.8-0.5 0.3-1.2 0-1.5-0.5-0.3-0.5-0.9-0.8-1.5-0.5-0.5 0.3-1.2 0-1.5-0.5-0.3-0.5-1.6-1-3-1-1.7 0-3.1 1-4.5 3.3-1.1 1.7-2 2.7-2.1 2.2 0-0.6 1.3-2.7 3.1-4.8 1.7-2 3.3-3.7 3.6-3.7zm897.9-1c0.1 0-0.1 1-0.5 2.3-0.4 1.2-1.1 2.1-1.6 2.1-0.5-0.1-1.8 0.5-2.9 1.2-1.1 0.8-2.4 1.4-3 1.4-0.6 0 0.6-0.8 2.5-1.8 1.9-1 3.9-2.6 4.3-3.5 0.5-0.9 1-1.7 1.2-1.7zm-504-4.5l4 3.1c2.2 1.7 4.7 3.9 5.5 4.9 1.4 1.6 1.3 1.6-1 0.5-1.4-0.7-3.8-2.9-5.5-4.8zm945.6-0.4c1.3 1.5 4.4 5.5 6.9 8.9 2.5 3.4 4.9 7 5.5 7.9 0.6 0.9 1.6 2.6 2.4 3.6 0.8 1.1 0.1 0.6-1.5-1.1-1.6-1.6-4.4-5.2-6.1-8-1.8-2.7-4.4-6.2-5.8-7.7-1.4-1.5-2.2-2.8-1.7-2.7 0.4 0 0.1-0.8-0.7-1.8-0.7-1-0.3-0.6 1 0.9zm-688.2-2.7l2.9 3c1.5 1.7 3.2 3.8 3.5 4.8q0.7 1.7-0.5 1.2c-0.7-0.2-2.3-2.4-3.6-4.7zm-167.7 2c0.7 1.1 1.1 2.1 1 2.2-0.1 0.2 1 2.7 2.5 5.5 1.5 2.9 4.7 7.5 11.8 15.3l-4.8-4.5c-2.6-2.5-5.9-6.8-7.4-9.5-1.4-2.8-2.9-5.2-3.2-5.5-0.3-0.3-0.7-1.6-0.8-3-0.2-2.4-0.2-2.4 0.9-0.5zm495-3.5c0.5 0 1.6 1.8 2.4 4 1 2.8 2.6 4.7 5.4 6.5 2.2 1.4 4 2.7 4 3 0 0.3-1.1-0.2-2.5-1-1.4-0.8-2.5-1.3-2.5-1 0 0.3-1.2-1-2.7-2.8-1.5-1.7-3.1-3.3-3.5-3.5-0.4-0.1-0.8-0.9-0.8-1.7 0-0.8-0.4-1.5-1-1.5-0.5 0-0.7-0.5-0.4-1 0.3-0.6 1-1 1.6-1zm-401.7 0c0.2 0 0.3 1.3 0.2 3-0.1 1.6-0.5 3-0.9 3-0.4 0-0.8 0.6-0.8 1.2 0 0.7-0.6 2.2-1.5 3.3-1.3 1.8-1.3 1.6 0-1.8 0.9-2 1.5-3.8 1.6-4 0-0.1 0.2-1.2 0.5-2.5 0.4-1.2 0.8-2.2 0.9-2.2zm-522.5 0c0.6 0 1.1 0.6 1.1 1.2 0 0.7 0.3 3.8 0.5 6.8 0.3 3.9-0.1 6.6-3.3 13.5l0.3-10.5c0.2-5.8 0.4-10.6 0.4-10.8 0-0.1 0.5-0.2 1-0.2zm558.8 2.5c0.2 2.2 0.2 6 0 8.5-0.3 2.5-0.4 0.7-0.4-4 0-4.7 0.1-6.7 0.4-4.5zm-523 0c0.2 2.2 0.2 6 0 8.5-0.3 2.5-0.4 0.7-0.4-4 0-4.7 0.1-6.7 0.4-4.5zm1216.2-5l2.8-0.2c1.5-0.1 3.6 0.6 4.6 1.5 1 0.9 2.3 2.6 2.8 3.7 0.5 1.1-0.3 0.5-1.9-1.2-1.5-1.8-3.3-3.3-4-3.3-1 0-1.3 3.7-1.3 15.5 0 10.5-0.4 16.2-1.2 17.7-0.7 1.2-2 2.8-2.8 3.5-0.8 0.7-4 1.2-7 1.3-3.3 0-6.4-0.6-7.7-1.5-1.3-0.8-2.3-2.3-2.3-3.3 0.1-1.5 0.2-1.5 1-0.2 0.7 1 3.1 1.6 7.7 1.8 4.6 0.2 7.2-0.1 8.1-1 1-1 1.3-5.6 1.3-17.8zm-1047.7-3.9c0.4 0.5 0.9 3.8 1.2 7.4 0.4 6.2 0.3 6.3-0.6 2-0.5-2.5-1.4-5.1-2-5.8-0.5-0.6-0.6-2-0.2-2.9 0.4-0.9 1.1-1.3 1.6-0.7zm-52.3 1.4c0.4 1.4 0.3 2.9-0.2 3.5-0.5 0.5-0.9 2.6-1 4.5-0.1 2.7-0.2 2.9-0.6 1-0.2-1.4-0.1-4.5 0.3-7 0.7-3.9 0.9-4.2 1.5-2z"/>
		<path id="Path 2" class="s0" d="m1697.7 886.5c0.2 1.6 0.1 3.2-0.2 3.5-0.3 0.3-1.2-0.4-1.9-1.5-1.3-1.7-1.3-2 0-2.3 0.8-0.1 1.5-0.8 1.5-1.5 0.1-0.6 0.4 0.2 0.6 1.8z"/>
		<path id="Path 3" class="s1" d="m1136.7 884.1c1.5 0.1 1.5 0.2-0.2 0.5-1.8 0.4-1.9 1.1-1 22.9l17.1 0.5c15.4 0.4 17.4 0.7 19.3 2.5 1.7 1.6 2.2 3.1 2.1 7.7 0 4.9-0.4 6-2.3 7.3-1.8 1.3-6.7 1.5-28.5 1.5-25.2 0-26.2-0.1-27.2-2-0.6-1.1-1-2.6-1-3.3 0-0.6 0.9-0.1 3.9 3.8h25.1c21.2 0 25.2-0.2 26-1.5 0.5-0.8 1-3.8 1-6.5 0.1-3.5-0.4-5.5-1.6-6.5-1.3-1.2-5.6-1.6-35.9-2.5l-0.3-9.6c-0.2-5.3 0.1-10.8 0.7-12.2 0.6-1.6 1.8-2.7 2.8-2.6z"/>
		<path id="Path 4" class="s0" d="m1280.7 875c1 0 1.6 1 1.7 2.8 0.1 2.5-0.1 2.7-2 1.7-1.3-0.6-1.9-1.7-1.7-2.8 0.3-0.9 1.2-1.7 2-1.7zm-23.5 0.8c1.3 0.2 2.5 0.7 2.6 1.1 0.1 0.3-0.4 1.4-1.1 2.3-1.1 1.6-1.3 1.5-2.5-0.7-0.6-1.4-1.3-2.7-1.4-2.9-0.1-0.2 1-0.1 2.4 0.2z"/>
		<path id="Path 5" class="s1" d="m2002.2 874.5c0.5 0.4 1 1.8 0.9 3.3-0.1 1.5-0.3 3.7-0.6 5-0.3 1.4-1 2-2 1.7-1.1-0.4-1.4-1.5-1-4.4 0.2-2.1 0.7-4.3 1.1-5 0.3-0.6 1-0.9 1.6-0.6zm-937-0.3c1.6 0.7 2.8 1.6 2.8 2.1 0 0.4 1.2 1.3 2.7 2.1 1.6 0.7 3.9 3.3 7.5 10.1l-2.9-3c-1.6-1.6-2.7-3.3-2.6-3.7 0.2-0.5-0.2-0.8-0.7-0.8-0.6 0-2.9-1.8-5.3-4.1-3.4-3.3-3.7-3.8-1.5-2.7zm771.9-1.6c0.5 0.3 0.8 3.3 0.7 6.6-0.2 3.3-0.7 6.3-1.3 6.8-0.6 0.5-1.2-1.5-1.5-5.6-0.3-3.5-0.1-6.9 0.3-7.4 0.5-0.6 1.3-0.8 1.8-0.4zm-330.4 2.4c0.2 1.9 0.2 5.5 0 8-0.2 2.5-0.4 0.9-0.4-3.5 0-4.4 0.2-6.4 0.4-4.5zm677.4-3.3c0.4 0.5 0.3 3.9-0.1 7.8-0.4 3.9-0.8 6.8-0.9 6.5-0.1-0.3-0.4-3.6-0.6-7.3-0.3-3.7-0.2-7 0.2-7.2 0.4-0.3 1-0.2 1.4 0.2zm-902.2-0.1c0.2 1 0.6 2.1 1 2.4 0.4 0.3 0.4 1.9-0.7 6.5l-0.1-2.7c-0.1-1.8-0.7-2.8-1.6-2.8-0.8 0-1.6 0.8-1.6 1.8-0.1 0.9-0.1 2 0 2.5 0 0.4-0.4 0.7-0.9 0.7-0.5 0-0.8 0.3-0.6 0.8 0.2 0.4-0.2 1.6-1 2.7-1.4 1.9-1.5 1.9-1-0.5 0.2-1.4 0.5-2.6 0.5-2.7 0.1-0.2 0.3-0.6 0.4-1 0.2-0.5 0.8-1.7 1.2-2.8 0.5-1.1 1.6-3.1 2.4-4.4 1.5-2.3 1.6-2.4 2-0.5z"/>
		<path id="Path 6" class="s0" d="m1657.8 869c0.4-0.1 1.6 0.9 4.7 4.1l-2.2-0.1c-1.3 0-2.5 0.6-2.7 1.3-0.3 0.6-0.5-0.3-0.5-2-0.1-1.8 0.2-3.3 0.7-3.3z"/>
		<path id="Path 7" class="s1" d="m1679.5 867c0.5 0 3.2 3.3 5.9 7.3 2.8 3.9 5.8 8.3 6.7 9.7 0.9 1.4 2.6 3.5 3.8 4.8 1.1 1.2 2.1 2.8 2.1 3.5 0 0.6-1 0.1-2.3-1.3-1.3-1.4-3.2-4-4.3-5.8-1-1.8-2.2-3.2-2.7-3.2-0.4 0-0.7-0.5-0.7-1 0-0.5-2.1-3.9-4.7-7.5-2.5-3.6-4.2-6.5-3.8-6.5zm302.9-1c0.1 0 0.3 1.1 0.4 2.5 0.1 1.4-0.2 2.7-0.8 3-0.6 0.3-1 3.5-1 7.3 0 3.7-0.1 6.5-0.4 6.2-0.2-0.3-0.5-3.9-0.7-8-0.2-5.4 0-7.4 0.9-7.2 0.7 0.1 1-0.3 0.7-0.8-0.3-0.5-0.3-1.5 0-2 0.4-0.5 0.7-1 0.9-1zm-323.5 1.5c1.1 1.1 3.8 4.8 6.1 8.3 2.2 3.4 3.8 6.2 3.5 6.2-0.3 0-2.3-2.7-4.5-6-2.2-3.3-4.7-6.2-5.5-6.5-0.8-0.3-1.5-1.3-1.5-2.2 0-1.6 0.2-1.6 1.9 0.2zm-262.7-2l0.6 2.3c0.4 1.2 0.5 7.5 0.3 14-0.2 6.4-0.6 10.6-0.9 9.2-0.2-1.4-0.8-3-1.3-3.5-0.5-0.5-0.9-4.5-0.9-8.7 0-4.3 0.5-8 1-8.3 0.5-0.3 1-1.5 1.1-2.7zm-131.7 0.7c0 0.2-1 3.3-2.2 6.8-1.2 3.6-2.9 7.1-3.8 8-0.8 0.8-1.7 1.2-1.9 1-0.2-0.3-0.7-1.7-1.7-5.5l2.8 5 1.6-3.5c0.8-2 2.3-5.5 3.3-7.8 1-2.4 1.8-4.2 1.9-4zm-104.1-1.2c3.4 0 5.7 0.6 6.9 1.7 1.3 1.3 1.8 3.3 1.7 8.3 0 3.7-0.5 7-1.2 7.7-0.7 0.7-2.1 1.2-3.2 1.2-2-0.1-2-0.1 0.1-1.3 1.3-0.6 2.5-2 2.8-3.1 0.2-1.2 0.5-3.3 0.5-4.8 0-1.5-0.4-3.6-1-4.7-0.8-1.7-2-2-6.5-2-3 0-5.7-0.4-6-0.8-0.2-0.4-0.2-1.1 0.2-1.5 0.3-0.4 2.9-0.7 5.7-0.7zm-19.6 0c0.6 0 1.4 0.4 1.7 1 0.3 0.5 0.1 1.2-0.5 1.5-0.5 0.2-2.5 0.1-4.2-0.2-3.2-0.7-3.2-0.7-0.8-1.4 1.4-0.4 3.1-0.8 3.8-0.9zm-115 2c0.9 1.3 3.7 4.4 6.2 6.7 2.5 2.4 4.6 4.3 4.8 4.3 0.1 0 1.2 1 2.5 2.2 1.3 1.2 3.6 3.3 5.2 4.5 1.7 1.2 0.3 0.6-3-1.5-3.3-2.1-7.4-4.7-9-5.8-1.7-1.2-4.3-4.3-5.8-7-1.5-2.7-2.7-5.2-2.7-5.4 0-0.3 0.8 0.6 1.8 2zm1353.9-2c0.3 0.8-0.5 4.2-1.7 7.5-1.5 3.7-3.6 7.2-5.9 9.2-2 1.8-3.9 3.3-4.3 3.3-0.5 0-0.7-0.5-0.5-1 0.1-0.6 0.5-0.9 0.8-0.8 0.4 0.1 1.7-0.6 2.9-1.7 1.2-1.2 3.5-4.8 5.1-8 1.6-3.3 2.9-6.9 3-8 0-1.5 0.2-1.6 0.6-0.5zm-1333.2-4.1c2.2 1.6 5.1 4 6.5 5.1 1.8 1.5 1.9 1.8 0.5 1.1-1.1-0.5-4-2.8-6.5-5.1-4.3-4.1-4.4-4.1-0.5-1.1zm250.3-3.4c0.2 1.1 0.7 2.4 1.1 3 0.4 0.5 0.4 2.3 0 4-0.6 2.7-0.7 2.7-0.8 0.5 0-1.4-0.6-3-1.2-3.5-0.6-0.7-0.7-2-0.3-3.5 0.7-2.3 0.8-2.3 1.2-0.5zm719.2-5.2q1.5 0-0.5 1.1c-1.1 0.6-3.8 2.7-6 4.8-2.2 2.1-4.2 3.8-4.5 3.8-0.3 0 0.2-0.7 1-1.5 0.8-0.9 1.1-1.6 0.5-1.5-0.5 0-0.4-0.7 0.3-1.5 0.6-0.9 1.5-1.3 2-1.1 0.4 0.3 1.8-0.6 3.2-1.8 1.4-1.3 3.2-2.3 4-2.3zm-584-0.3c0.2 0 0 0.3-0.5 0.8-0.6 0.4-3.7 3.2-12.8 11.7l2.6-4.5c1.5-2.5 2.8-4.4 2.9-4.2 0.2 0.3 1.9-0.5 3.8-1.7 1.9-1.2 3.7-2.1 4-2.1zm759.5-1c0.2 0-0.2 1-0.8 2.2-0.6 1.2-1.2 2.5-1.2 2.8-0.1 0.2-0.9 2-1.8 4-1.2 2.4-1.6 2.7-1.2 1 0.3-1.4 0.7-3 0.8-3.5 0.2-0.6 1.1-2.3 2.1-3.8 1-1.5 1.9-2.7 2.1-2.7zm-522 1.1c1.1 1 2.8 3.1 3.8 4.8 1.7 3 1.7 3-0.3 1.8-1.1-0.7-2-1.8-2-2.5 0-0.7-0.5-1.2-1.2-1.2-0.6 0-0.8-0.4-0.5-0.8 0.4-0.4 0.1-1.4-0.5-2.2q-1.2-1.5 0.7 0.1zm-534.4-0.1c0.5 0.8 0.9 3.4 0.9 5.7 0 2.3-0.3 5-0.6 6-0.6 1.5-0.8 1.5-1.5 0.3-0.5-0.9-0.9-3.5-0.9-5.8 0-2.3 0.3-5 0.6-6 0.6-1.5 0.8-1.5 1.5-0.2zm887.4-2.7l8.5-0.1q8.5-0.2 11.5 1.3c1.7 0.8 2.1 1.2 1 0.8-1.1-0.4-6.3-1-11.5-1.4zm-577 0c3.9 0.1 5.2 0.2 3 0.4-2.2 0.3-5.3 0.3-7 0-1.6-0.2 0.2-0.4 4-0.4zm-329.8 1.2c0.2 2.2 0.2 6 0 8.5-0.2 2.5-0.4 0.7-0.4-4 0-4.7 0.2-6.7 0.4-4.5zm1260.3-3.8c0.8 0.6 2.1 3.1 2.9 5.5 0.7 2.4 1.8 5.3 2.5 6.6 0.8 1.7 0.8 2.5-0.1 3.5-1 1-1.4 0.9-2-0.5-0.5-1-0.5-2.1-0.1-2.5 0.4-0.4 0-3-0.9-5.8-0.8-2.7-2-5.7-2.7-6.5-0.9-1.2-0.8-1.3 0.4-0.3zm-217.5-0.4c0 0.2-0.1 1.2-0.2 2.1-0.3 1.4-1.8 1.6-23.8 1.2l11.4-0.5c8.1-0.4 11.6-1 12-1.9 0.3-0.7 0.6-1.1 0.6-0.9zm-885.6-0.2c0.3 0-1.2 4.2-3.4 9.4-2.2 5.2-4.1 9.4-4.2 9.2-0.1-0.1 1.4-4.3 3.4-9.4 2-5.1 3.9-9.3 4.2-9.2zm-198.4-0.1q1.5 0 0.8 1.8c-0.4 0.9-1.5 2.6-2.6 3.7-1 1.1-3.1 2.1-4.5 2.2-1.5 0.1-2.9-0.2-3.2-0.8-0.3-0.5-2.3-1.5-4.5-2.3-2.2-0.8-3.2-1.5-2.2-1.5 0.9-0.1 2.9 0.4 4.5 1.1 1.5 0.6 3.6 1.3 4.7 1.5 1.1 0.1 2.8-0.6 3.8-1.7 0.9-1.1 1.5-2 1.2-2-0.3 0-0.3-0.4 0-1 0.4-0.5 1.3-1 2-1zm743.5-5.1l3 1.6c1.7 0.8 3.2 2.4 3.5 3.5 0.3 1.1 1 2 1.5 2 0.6 0 1.2 0.7 1.5 1.5 0.3 0.9-0.9 0.4-3-1.2-2-1.5-4.2-3.8-5-5.1zm384-0.8c0.2 0-0.5 0.8-1.8 1.7-1.2 1-1.9 1.9-1.7 2.2 0.3 0.3-1.2 1.8-3.3 3.5-2 1.6-2.9 2-1.8 0.9 1-1.1 1.8-2.6 1.7-3.2-0.1-0.6 1.3-2 3.1-3.1 1.8-1 3.5-1.9 3.8-2zm58-2.6c0.8 0.5 3.4 2.1 5.7 3.7 2.3 1.6 5 4.3 5.9 6.1 1.6 3.1 1.6 3.2-0.2 1.7-1.1-0.8-4.4-3.9-7.4-7-3.1-3-4.9-5-4-4.5zm-201.5-0.7l2.2 1.1c1.2 0.6 2.5 1.7 2.8 2.4 0.4 0.7-0.1 2.7-1 4.5-0.8 1.8-1.8 3.2-2 3.2-0.3 0 0.1-1.3 1-3 0.8-1.6 1.5-3.2 1.5-3.5 0-0.3-1.1-1.4-2.3-2.6zm-585-0.1l3.3 1.7c1.8 0.9 3.3 2.1 3.2 2.7 0 0.5-0.4 0.7-1 0.4-0.5-0.2-1 0.4-1 1.5 0 1.1-0.8 3.3-1.8 4.8-1 1.5-2.4 4-3.2 5.5-0.8 1.5-1.9 2.9-2.5 3.1-0.5 0.2-1.9 0-3-0.4q-2-0.8-0.5-0.9c0.8-0.1 2.4-0.9 3.5-1.8 1.1-1 3.1-3.2 4.3-5 1.2-1.8 2.2-3.9 2.2-4.8 0-0.8-0.8-2.7-1.7-4.1zm530.6-0.7c0.5 0 0.9 0.5 0.9 1 0 0.6-0.5 0.8-1 0.5-0.6-0.3-1.5 0.3-2 1.3-0.5 0.9-1 1.4-1 1 0-0.4-1.8 0.7-3.9 2.5-2.2 1.8-4 3.7-4.2 4.2-0.1 0.6-1.1 1.6-2.1 2.3-1 0.7-1.8 1.9-1.8 2.7 0 0.8-0.4 1.5-0.8 1.5-0.4 0-1.3 1.1-2 2.5-0.7 1.4-1.2 3.4-1.2 4.5 0 1.1-0.7 2-1.5 2-0.9 0-1.5-0.7-1.5-1.5 0-0.8 0.3-1.5 0.7-1.5 0.4 0.1 1.7-1.8 2.8-4.1 1.1-2.3 3.5-5.9 5.5-8 1.9-2 5.4-5.4 7.8-7.3 2.4-2 4.8-3.6 5.3-3.6zm-469-2c0.3 0 0.4 0.5 0.2 1-0.2 0.6-0.9 1-1.6 1-0.7 0-2.5 0.9-4 2-1.5 1.1-3.1 1.8-3.5 1.5-0.4-0.3-0.5-0.6-0.2-0.7 0.2-0.2 2.3-1.3 4.5-2.5 2.2-1.2 4.2-2.2 4.6-2.3zm557.1-1c1.7 0 1.9 0.3 0.9 1.3-0.6 0.7-1.2 3.8-1.2 7 0.1 4.7 0.4 5.9 2.1 6.7 1.1 0.6 6.2 1 11.5 1 6.5 0 9.7 0.4 10.2 1.3 0.4 0.7 0.8 17.4 1 37.2 0.1 24.4 0.5 36.3 1.3 37 0.6 0.6 4 0.9 7.5 0.8 4.8-0.2 6.4 0 6.1 1-0.2 0.7-2.2 1.3-4.7 1.5-2.5 0.2-5.1 0-5.9-0.4-0.9-0.4-2.2-0.8-3-1-0.9-0.2-2.1-1.2-2.7-2.1-0.8-1.3-1.1-12-0.8-74.3h-10.5c-7.7 0-11.1-0.4-12.8-1.5-1.9-1.2-2.2-2.4-2.2-7 0-3 0.2-6.2 0.5-7 0.4-0.8 1.6-1.5 2.7-1.5zm-146.5 0c0.1 0 0.9 0.7 1.8 1.5 1.2 1.3 1.5 6 1.5 30 0 18-0.4 28.7-1 29-0.6 0.3-1.3 0-1.5-0.7-0.3-0.7-0.6-14.4-0.8-30.5-0.1-16.1-0.1-29.3 0-29.3zm-58.8 0c0.6 0 1.7 0.7 2.6 1.5 1.2 1.3 1.4 5.7 1.2 29.2-0.2 21.1-0.5 27.7-1.5 28-1 0.2-1.3-5.7-1.4-27.2-0.1-15.2-0.5-28.5-1-29.5q-0.9-2 0.1-2zm-170.2 0c0.7 0 1.5 0.7 1.8 1.5 0.2 0.8 0.5 21.2 0.4 45.3 0 26-0.4 44.3-0.9 45.2-0.7 1.1-3.3 1.6-8.8 2-7.6 0.4-7.8 0.3-10.7-2.7-1.7-1.8-3.9-4.7-4.8-6.5-1.8-3.2-1.8-3.2 0-0.9 0.9 1.3 3.2 3.9 5 5.8 2.9 2.9 3.9 3.3 8.5 3.3 2.9 0 6.1-0.5 7-1.2 1.7-1.2 1.8-4.2 1.5-46.5-0.2-35.7 0-45.3 1-45.3zm-76.1 0c0.2 0 0 0.6-0.4 1.3-0.4 0.7-1 3.9-1.9 13.2l-0.4-6c-0.2-4.3 0.1-6.4 1.1-7.3 0.7-0.6 1.5-1.2 1.6-1.2zm-68.1 0.1c0.5 0 4 1.5 7.7 3.4 3.7 1.9 8.4 5.4 10.5 7.7 2.1 2.2 4.4 5.1 5.2 6.2 0.7 1.2-1-0.5-3.8-3.6-2.8-3.2-5.6-5.6-6.1-5.3-0.6 0.3-1.4-0.1-1.8-0.9-0.4-0.8-3.4-2.8-6.7-4.5-3.3-1.6-5.6-3-5-3zm-210 0.8c1.8 1.3 1.9 3.1 1.7 44.5-0.2 23.7-0.5 44-0.8 45.1-0.3 1.1-1.9 2.8-3.5 3.8-1.6 0.9-4.5 1.7-6.4 1.7-2 0-3.8-0.4-4-1-0.3-0.5-1.7-1-3-1-1.4 0-2.8-0.7-3-1.5-0.3-0.8-0.5-2.7-0.4-4.2 0.1-2.8 0.1-2.8 1.2 0.5 0.6 1.8 1.8 3.3 2.7 3.3 0.8 0.1 4.2 0 7.5-0.1 4.3-0.1 6.3-0.6 7.2-1.8 1-1.3 1.3-11.2 1.1-44-0.1-26.3-0.5-43.1-1.1-44.5-1-2-0.9-2.1 0.8-0.8zm-137.1-0.9c0.2 0-0.2 1.3-0.9 2.8-0.7 1.5-1.1 3.3-0.9 4 0.2 0.7-0.1 1.4-0.6 1.7-0.6 0.3-1.2-0.6-1.3-2-0.1-1.4 0.6-3.4 1.5-4.5 1-1.1 2-2 2.2-2zm-55.5 0c0.6 0 1.7 0.7 2.6 1.5 0.8 0.9 1.5 3.3 1.5 5.5 0 2.4-0.9 5.3-4 10l-33.5-0.4 32.5-0.6 1-2.5c0.5-1.4 0.9-4.1 0.8-6-0.1-2-0.5-4.5-1-5.5q-0.9-2 0.1-2zm-133.9 0.1c0.2 0-0.5 0.8-1.7 1.7-1.3 0.9-3.3 2.4-4.5 3.3-1.3 0.9-3.4 3.6-4.6 6-1.2 2.4-2.2 3.9-2.2 3.2 0-0.7 0.6-2.5 1.4-4 0.8-1.5 2.9-4.2 4.7-5.9 1.9-1.7 4-3.4 4.9-3.7 0.8-0.3 1.7-0.5 2-0.6z"/>
		<path id="Path 8" fill-rule="evenodd" class="s2" d="m2336.3 832.1c10.6-0.1 17.7 0.3 19.4 1.1 1.6 0.6 3 1.2 3.3 1.3 0.3 0 2 0.4 3.7 0.8 1.8 0.4 3.3 1.2 3.3 1.7 0 0.5 0.3 0.8 0.7 0.5 0.5-0.2 2.8 1.6 5.3 4.1 2.5 2.4 4.1 4.4 3.5 4.4-0.6-0.1-0.5 0.5 0.1 1.2 0.7 0.7 1.8 3.5 2.6 6.3 0.8 2.7 1.3 7 1.1 9.5-0.1 2.5-1.4 7-2.9 10-1.5 3-3.6 6.5-4.8 7.7-1.2 1.2-2.4 2-2.9 1.8-0.4-0.3-0.9 0.1-1.2 0.7-0.2 0.7-2.3 2.2-4.5 3.3-2.2 1.1-4 2.1-4 2.2 0 0.2 1.2 1.9 2.7 3.8 1.6 1.9 2.7 3.7 2.5 4-0.1 0.3 0.9 1.7 2.3 3.2 1.4 1.6 4 5 5.8 7.8 1.7 2.7 3.4 5.2 3.7 5.5 0.3 0.3 1.8 2 3.3 3.7 1.5 1.8 2.7 4.4 2.7 5.8 0 2.5-0.1 2.5-8.5 2.5-4.7 0-9.3-0.3-10.2-0.8-1-0.4-3.9-4.1-6.5-8.2-2.6-4.1-5.3-8.2-6-9-0.7-0.8-1.2-1.8-1.1-2.2 0.2-0.5-0.1-0.8-0.7-0.8-0.6 0-2.7-2.8-4.9-6.3-2.1-3.4-4.4-6.7-5.2-7.4-0.8-0.6-2.6-1.1-6.9-0.8v16.5c0.1 12.2-0.2 16.8-1.2 17.8-0.9 0.9-3.5 1.2-8.1 1-4.7-0.2-7.1-0.8-7.7-1.8-0.6-0.9-1-18.9-1-44 0-32.8 0.3-42.9 1.2-44.1 0.7-0.9 2-1.9 2.8-2.2 0.8-0.3 9-0.6 18.2-0.6zm-1.4 29.7l0.2 10.7c9.7-0.1 13.7-0.2 15.2-0.3 1.6-0.1 4.1-1.5 5.8-3.2 2.4-2.4 3-3.8 2.9-7.3 0-2.3-0.7-5.2-1.5-6.5-0.8-1.2-3-2.9-4.9-3.7-1.9-0.8-6.1-1.5-9.3-1.4-3.1 0-6.4 0.3-7.1 0.6-1.2 0.4-1.5 2.6-1.3 11.1z"/>
		<path id="Path 9" class="s1" d="m2359.7 859.5c0.3 2.2-0.1 5.7-0.9 7.7-0.7 2-1.6 3.5-2 3.2-0.5-0.2-1 0.1-1.3 0.6-0.3 0.5-0.9 1-1.3 1-0.4 0 0.5-1.4 2-3 1.5-1.6 2.8-4 2.7-5.3-0.1-1.2 0-3.6 0.2-5.2 0.2-2.6 0.3-2.4 0.6 1zm-27.7-10.5h9.5c6.1 0 10.5 0.5 12.3 1.4 1.5 0.7 3.4 2.2 4.2 3.1 0.9 1.1-0.1 0.7-2.5-0.9-3.5-2.4-4.9-2.7-20.5-2.6l-0.2 11.7c-0.2 8.3-0.7 11.7-1.5 12-1 0.2-1.3-2.7-1.3-12.2z"/>
		<path id="Path 10" class="s1" d="m2214.1 832c0.5 0 0.9 0.7 0.9 1.5 0 0.8-0.3 1.4-0.7 1.3-0.5-0.1-2 0.2-3.5 0.5-1.6 0.4-2.8 1.2-2.8 1.7 0 0.5-0.7 1-1.5 1-0.8 0-1.6 0.6-1.8 1.3-0.3 0.9-0.5 0.9-1-0.1-0.5-0.8 0.8-2 3.7-3.4 2.3-1.2 4.6-2.5 5-3 0.4-0.4 1.2-0.8 1.7-0.8z"/>
		<path id="Path 11" fill-rule="evenodd" class="s2" d="m2126.3 832c25.1 0 29.9 0.2 31.2 1.5 1 1 1.5 3.4 1.5 7 0 3.7-0.5 6-1.6 7-1.2 1.1-4.1 1.5-12 1.5-8.4 0-10.5 0.3-10.9 1.5-0.3 0.8-0.5 17.4-0.5 36.8 0 19.3-0.4 35.7-0.8 36.4-0.4 0.6-3.7 1.3-7.4 1.5-3.7 0.2-7.2-0.2-7.8-0.7-0.7-0.7-1.2-12.6-1.3-37-0.1-19.8-0.5-36.6-1-37.2-0.5-0.9-3.7-1.3-10.2-1.3-5.2 0-10.4-0.5-11.5-1-1.6-0.8-2-2.1-2.1-6.9-0.2-5.3 0.1-6.2 2.2-7.6 2-1.3 6.8-1.5 32.1-1.5zm-247.2 0c2.5 0 5.4 0.6 6.5 1.4 1.9 1.4 2 2.9 2.5 30.8 0.3 16.1 0.7 30 1 30.8 0.3 0.8 0.7 1.7 1 2 0.3 0.3 1.1 1.7 1.8 3.3 0.6 1.5 3.3 4.1 5.9 5.7 3.8 2.4 5.9 3 10 3 2.9 0 7-0.7 9-1.7 2.1-0.9 4.1-1.5 4.5-1.5 0.5 0.1 1.7-1.8 2.8-4.3 1.1-2.5 2.3-4.5 2.7-4.5 0.5 0 0.8-0.8 0.9-1.8 0-0.9 0.1-14.6 0.2-30.4 0.2-27.3 0.3-28.9 2.2-30.8 1.5-1.5 3.3-2 7.2-2 2.9 0 6 0.5 6.8 1 1.3 0.8 1.6 5.9 2 32.2 0.6 30.6 0.5 31.5-1.7 38.3-1.6 4.8-3.7 8.7-6.8 12.3-2.5 2.8-5 5-5.5 4.7-0.6-0.3-1-0.2-1 0.3 0 0.4-1.9 1.7-4.2 2.9-2.4 1.2-5.2 2.2-6.3 2.2-1.1-0.1-4.7 0.5-8 1.2-5.3 1.1-6.5 1.1-10.3-0.4-2.3-0.9-4.8-1.5-5.5-1.2-0.6 0.3-3.2-0.3-5.7-1.3-2.5-1.1-6.9-4.1-9.7-6.8-2.9-2.7-5.3-5.7-5.3-6.6 0-1-0.3-1.8-0.8-1.8-0.4 0-1.3-1.2-2.1-2.7-0.7-1.5-1.8-5.5-2.3-8.8-0.6-3.3-1.2-17.9-1.5-32.5-0.2-14.6-0.1-27.5 0.3-28.8 0.4-1.3 1.7-2.7 2.8-3.2 1.2-0.5 4.1-0.9 6.6-1zm-101 0.1c12-0.1 16.1 0.3 18.2 1.4 1.6 0.8 3.1 1.3 3.5 1.1 0.5-0.3 3.9 0.6 7.8 2 3.8 1.3 7.7 3 8.5 3.7 0.8 0.6 4 3.7 7.1 6.7 3.1 3 6.5 7.3 7.7 9.5 1.1 2.2 2.2 5.1 2.4 6.5 0.2 1.4 0.8 3.2 1.2 4 0.5 0.8 0.9 6.5 0.8 12.5-0.1 7.3-0.6 11.4-1.4 12.3-0.7 0.7-0.9 1.3-0.4 1.2 0.6 0 0.5 0.6-0.1 1.3-0.7 0.6-1 1.8-0.7 2.5 0.2 0.6-0.1 1.2-0.6 1.2-0.6 0-0.7 0.8-0.3 1.8 0.5 1.2 0.4 1.5-0.5 1q-1.2-0.8-1.2 1.5c-0.1 1.4-2.5 4.6-6.8 8.8-3.7 3.6-7.8 7.2-9.2 8-1.4 0.7-2.7 1.4-3 1.4-0.3 0.1-1.9 0.7-3.5 1.4-1.7 0.7-3.9 1.3-5 1.4-1.1 0.1-2.2 0.5-2.5 0.9-0.3 0.4-2.5 0.8-5 1-2.5 0.1-11.4 0.1-19.8 0-12-0.2-15.5-0.5-16.7-1.7-1.3-1.3-1.5-7.6-1.5-44.2 0-33 0.3-43.2 1.2-44.4 0.7-0.9 2-1.9 2.8-2.2 0.8-0.3 8.5-0.6 17-0.6zm-1.3 25.8c0.2 2.8 0 5.3-0.5 5.5-0.4 0.2-0.7 9.7-0.7 21.1 0 19.5 0.1 20.7 2 22.1 1.2 0.9 4.4 1.4 8.2 1.4 3.5 0 8.5-0.5 11.3-1 4.2-0.8 5.9-1.9 10.5-6.7 3.7-4 5.9-7.2 6.7-10.3 0.7-2.5 1.3-7.9 1.3-12 0-5.4-0.6-8.7-2.1-12-1.1-2.5-3.4-5.9-5-7.7-1.6-1.7-4.9-4.2-7.4-5.4-3.3-1.7-6.7-2.4-12.5-2.7-6-0.3-8.5 0-10 1.1-1.6 1.2-2 2.5-1.8 6.6z"/>
		<path id="Path 12" class="s1" d="m1775.7 906.7c0.5 0.7 4.5 1.3 20.8 1.9h-10.4c-8.4-0.1-10.5-0.4-10.8-1.6q-0.5-1.6 0.4-0.3zm37-11.7c0.1 0-0.2 0.8-0.7 1.7-0.5 1-0.7 2.1-0.5 2.5 0.3 0.5-0.7 1.7-2.3 2.8-1.5 1.1-3.2 2.3-3.7 2.7-0.6 0.5-1.6 0.9-2.3 1-0.7 0.2 1.2-2.2 4-5.2 2.9-3 5.4-5.5 5.5-5.5z"/>
		<path id="Path 13" class="s0" d="m1775.7 879.5c0.2 1.6 0.2 4.8 0 7-0.2 2.2-0.4 0.9-0.4-3 0-3.9 0.2-5.6 0.4-4z"/>
		<path id="Path 14" class="s1" d="m1803.5 852.9c0.6 0 2.9 2.1 5.3 4.6 2.3 2.5 4.2 4.8 4.2 5.3 0 0.4-1-0.5-2.3-2-1.2-1.4-3.5-3.8-5.2-5.3-1.7-1.4-2.6-2.6-2-2.6zm-27 0.8c0.5 0.6 0.7 3 0.5 5.4-0.3 2.4-0.9 4.4-1.5 4.4-0.6 0-1.1-1.8-1.3-4-0.2-2.2 0.1-4.6 0.5-5.4 0.5-1 1.1-1.1 1.8-0.4zm19-4.3l-9.5 0.4c-6 0.2-9.8 0.8-10.2 1.5q-0.8 1.2-0.8-0.5c0-1.6 1.1-1.8 20.5-1.4z"/>
		<path id="Path 15" fill-rule="evenodd" class="s2" d="m1647.8 832.1c1.7-0.1 4.2 0.3 5.5 0.8 1.2 0.4 3.8 3.2 5.8 6.2 2.1 3 5.3 7.4 7.2 9.9 2 2.5 3.4 4.8 3.1 5.2-0.2 0.5 0 0.8 0.6 0.8 0.6 0 1 0.5 1 1 0 0.5 1.3 2.3 3 4 1.7 1.6 2.8 3.5 2.5 4-0.3 0.5-0.2 1 0.3 1 0.4 0 3.1 3.4 6 7.5 2.8 4.1 5.2 8 5.2 8.5 0 0.5 0.3 1 0.8 1 0.4 0 1.6 1.4 2.6 3.2 1.1 1.8 3 4.4 6.6 8.3v-28.5c0-21.4 0.3-29 1.2-30.3q1.3-1.9 6.3-2.4c2.8-0.3 6.2 0 10.5 1.7v45c0 44 0 45-2 46-1.1 0.5-4.2 1-7 1-4.3 0-5.4-0.4-8.2-3.3-1.8-1.8-5.8-6.9-8.8-11.1-3-4.3-5.9-8.8-6.5-10-0.6-1.2-2.5-3.8-4.3-5.7-1.8-1.9-3.5-4.4-3.7-5.7-0.3-1.2-0.9-2.2-1.5-2.2-0.6 0-3.7-4.2-7.1-9.3-3.4-5-6.8-10-7.8-11.1-1.5-1.7-1.6 0.1-2.1 26.9-0.5 27.2-0.6 28.7-2.5 30.1-1.1 0.8-4.1 1.4-6.7 1.4-3.5 0-5.4-0.6-6.8-2-1.9-1.9-2-3.3-2-44.8 0-32.9 0.3-43.1 1.2-44.3 0.7-0.9 2-1.9 2.8-2.2 0.8-0.3 3-0.6 4.8-0.6zm-92.3 0c12.1 0 13.5 0.2 19.5 2.9 3.6 1.6 7.4 3.7 8.5 4.7 1.1 0.9 2.1 1.6 2.3 1.5 0.1-0.1 1.8 1.3 3.8 3 1.9 1.8 5 5.5 6.7 8.2 1.8 2.7 3.2 5.1 3.3 5.5 0 0.3 0.3 1.3 0.6 2.1 0.4 0.8 1.1 3 1.7 4.7 0.6 1.8 0.9 3.8 0.6 4.3-0.3 0.5 0 1.1 0.6 1.2 0.6 0.2 1.1 3.4 1.2 7.9 0.1 4.8-0.3 8.2-1 9.2-0.7 1-1.1 2.2-0.8 2.7 0.3 0.5 0 2.2-0.7 3.7-0.6 1.6-1.3 3.6-1.5 4.5-0.1 1-1.2 3.6-2.3 5.8-1.1 2.2-2.9 4.5-4 5-1.1 0.5-1.8 1.3-1.5 1.7 0.3 0.5-0.7 2-2.2 3.6-1.6 1.5-3.4 2.7-4 2.7-0.7 0-1.8 0.9-2.3 2-0.5 1.1-1.5 1.8-2 1.5-0.5-0.3-1-0.2-1 0.2 0.1 0.5-2.2 1.8-5 3-2.7 1.3-5.6 2.2-6.2 2.1-0.7-0.1-3.1 0.4-5.3 1-2.2 0.7-6.6 1.2-9.7 1.2-3.2 0-7.4-0.7-9.3-1.5-1.9-0.8-4.2-1.3-5-1-0.8 0.3-1.5 0-1.5-0.5 0-0.5-0.5-0.8-1-0.5-0.5 0.3-3.4-0.7-6.2-2.2-2.9-1.4-7.5-4.7-10.3-7.3-2.7-2.6-6.5-7.5-8.2-10.9-1.8-3.3-3.3-6.3-3.3-6.6 0-0.3-0.7-2.1-1.5-4-1-2.3-1.5-6.9-1.5-13.8 0-5.6 0.5-11.8 1.2-13.7 0.6-1.9 1.8-4.1 2.5-4.8 0.7-0.6 1.3-2.1 1.3-3.2 0-1.1 1.1-3.7 2.4-5.8 1.3-2 4.1-5.4 6.2-7.5 2.2-2 5-4.4 6.4-5.2 1.4-0.8 4-2.1 5.8-3 1.7-0.8 3.4-1.5 3.7-1.5 0.3 0 1.7-0.7 3.3-1.5 2-1.1 5.9-1.5 15.7-1.4zm-21.2 27.4c-2.4 2.5-4.3 5.4-4.3 6.5 0 1.1-0.5 2.3-1.1 2.7-0.6 0.5-0.9 1.7-0.6 2.8 0.3 1.1 0.2 2.5-0.3 3.1-0.4 0.7-0.9 3.6-1 6.5-0.1 3.8 0.5 6.9 2.2 10.5 1.3 2.9 4.4 7 7.3 9.6 2.8 2.5 7 5.3 9.5 6.2 3.4 1.4 6 1.7 10.5 1.2 3.3-0.3 7.6-1.1 9.5-1.8 1.9-0.6 5.9-3.2 8.8-5.7 3.8-3.3 5.7-5.9 6.8-9.1 1-3.1 1.2-6.2 0.8-10-0.5-3.7-0.3-5.7 0.4-6.3 0.9-0.5 0.9-1.7 0.1-4.5-0.6-2-2-5.3-3.2-7.2-1.1-1.9-4.1-5.4-6.6-7.8-2.5-2.3-5.1-4.3-5.6-4.4-0.5 0-2.1-0.3-3.5-0.5-1.4-0.2-5.4-0.6-9-0.9-5.7-0.5-7.1-0.2-11.5 2.1-2.7 1.4-6.9 4.6-9.2 7z"/>
		<path id="Path 16" class="s1" d="m1531 897l2.8 1.9c1.5 1 3.6 2.9 4.7 4.1 1.1 1.2 3.3 2.8 5 3.5 1.7 0.7 3.7 1.6 4.5 1.8 1.2 0.4 1.1 0.6-0.3 0.6-0.9 0.1-3.3-0.8-5.2-1.9-1.9-1.1-3.7-1.7-4-1.2-0.3 0.4-0.5 0.1-0.5-0.5 0-0.7-1.2-1.9-2.7-2.5-1.4-0.7-3-2.3-3.5-3.5zm53.4-21.4c1 0.4 1.6 1.9 1.6 4.5 0 2.2-0.4 3.6-1 3.3-0.5-0.2-1 0.8-1 2.3 0 1.5-0.7 4.1-1.5 5.7-1.1 2.3-1.3 2.4-0.7 0.5 0.4-1.3 0.6-5.2 0.5-8.5-0.1-3.2 0-6.5 0.2-7.2 0.2-0.7 1.1-1 1.9-0.6zm-57.2-5.7c0.5 0 1.1 0.8 1.4 1.8 0.2 1 0 2.2-0.5 2.7-0.5 0.6-1.1 2.6-1.3 4.5-0.3 2-0.5 0.8-0.5-2.7 0.1-3.4 0.4-6.3 0.9-6.3zm42.3-17.1l3.8 1.7c2 1 3.7 2.2 3.7 2.6 0 0.5 1.2 2.5 2.6 4.6 1.3 2.1 2.5 4.2 2.5 4.8-0.1 0.5-1-0.6-2.2-2.5-1.1-2-4-5.3-6.2-7.4zm-29.1 0.2c0.6 0-0.8 1.5-3.1 3.2-2.3 1.8-5.1 5-6.2 7-1.2 2.1-1.9 3.8-1.6 3.8 0.2 0 0.2 0.4 0 1-0.3 0.5-1 0.8-1.5 0.5-0.6-0.3 0.1-2.3 1.6-4.8 1.4-2.3 4.2-5.7 6.2-7.4 2-1.8 4.1-3.3 4.6-3.3z"/>
		<path id="Path 17" class="s2" d="m1445.8 832.1c12.9-0.1 14.8 0.1 21 2.4 3.7 1.4 7.5 3.6 8.4 4.8 1 1.2 1.8 3 1.8 3.9 0 1-1 3.3-2.2 5-1.3 1.8-3.2 4.1-4.3 5-1.1 1-2.8 1.7-3.7 1.8-1 0-2-0.3-2.2-0.8-0.2-0.4-2.4-1.4-5-2.2-2.6-0.8-4.6-1.8-4.6-2.3 0-0.4-3.9-0.6-8.7-0.4-7.3 0.2-9.8 0.7-14.8 3.1-3.3 1.6-6.4 3-6.9 3-0.6 0.1-2.7 3.5-4.8 7.6-3.6 7.1-3.8 8-3.8 16.5 0 7.4 0.4 9.9 2.4 14 1.3 2.7 3.7 6.4 5.3 8 1.6 1.7 5.3 3.9 8.3 5.1 3 1.2 7 2.6 8.8 3.2 1.9 0.8 3 0.8 2.7 0.2-0.3-0.6 1.8-1 5.5-1 4.4 0 7.8-0.8 12.8-2.9 3.7-1.6 7.2-2.6 7.9-2.3 0.6 0.4 2.2 2.3 3.5 4.2 1.4 1.9 3 4.5 3.6 5.7 1 2 0.9 2.7-1.1 5-1.3 1.6-4.8 3.8-7.8 5.1-3 1.3-6.1 2.1-6.9 1.8-0.8-0.3-2.1 0-2.9 0.6-0.8 0.8-4.9 1.5-9.5 1.6-5.4 0.3-9.6-0.1-12.6-1.1-2.5-0.9-5.1-1.4-5.7-1.1-0.7 0.2-3.4-0.6-6-1.9-2.7-1.2-5.7-3-6.8-4-1.1-0.9-2.5-1.7-3-1.7-0.5 0-2.9-1.9-5.3-4.2-2.3-2.4-4-4.6-3.7-5.1 0.3-0.4-0.4-1.2-1.5-1.7-1.1-0.5-1.8-1.5-1.5-2 0.3-0.5 0-1-0.5-1-0.5 0-1.2-1-1.5-2.3-0.2-1.2-0.4-2.7-0.4-3.2 0.1-0.5-0.5-1.3-1.3-1.7-1-0.6-1.4-4.5-1.7-32.3l3.7-7.4c2.6-5.1 5.5-9 9.7-12.8 3.8-3.6 8.7-6.7 13.5-8.9 7.3-3.2 7.9-3.3 21.8-3.3zm-90.8 0.3c4 0.3 5.9 0.9 6.8 2.2 0.9 1.5 1.2 11.7 1.2 44.4 0 32.7-0.3 42.9-1.2 44.2-1 1.3-3.1 1.8-8.5 2-3.9 0.2-7.5-0.1-8-0.5-0.4-0.5-0.9-20.1-1.1-43.5-0.1-23.5 0-43.7 0.4-45 0.4-1.3 1.7-2.7 2.8-3.2 1.2-0.6 4.6-0.8 7.6-0.6zm-124.2-0.4c1.5 0 3.4 0.5 4.4 1.2 0.9 0.7 2.5 2.9 3.6 4.8 1.1 1.9 1.9 4.1 1.6 4.7-0.2 0.7 0.1 1.3 0.6 1.3 0.5 0 0.8 0.5 0.5 1-0.3 0.5 0 1 0.5 1 0.5 0 0.8 0.5 0.5 1-0.3 0.5 0 1 0.5 1 0.5 0 0.8 0.7 0.5 1.5-0.3 0.8-0.1 1.6 0.4 1.7 0.4 0.2 3.4 6.7 6.5 14.5 3.1 7.9 5.6 14.8 5.6 15.3 0 0.5 0.6 0.9 1.3 0.7 0.6-0.2 2-1.9 2.9-3.8 1-1.9 4.3-9.5 7.4-16.9 3.1-7.4 5.6-14.1 5.7-14.8 0.1-0.6 0.7-1.2 1.2-1.2 0.5 0 0.7-0.2 0.3-0.5-0.5-0.3 0-2.6 1.1-5.3 1.1-2.6 2.9-5.2 4.2-5.9 1.3-0.7 3.5-1.3 4.9-1.3 1.4 0 3.3 0.5 4.3 1.2 0.9 0.7 2.4 3.8 3.2 6.8 0.7 3 1.1 5.9 0.7 6.4-0.4 0.4-0.1 1.1 0.6 1.5 0.9 0.4 1.4 2.8 1.6 6.6 0.1 3.3 0.5 6.5 0.8 7 0.4 0.5 0.8 2.7 1 4.7 0.2 2.1 0.5 3.8 0.8 3.8 0.3 0 0.6 0.8 0.7 1.7 0.2 1 0.7 4.5 1.1 7.8 0.5 3.3 1.6 9.1 2.5 13 0.9 3.8 1.7 9.3 1.9 12.1 0.2 2.9 0.5 5.1 0.8 4.9 0.3-0.2 0.8 1.7 1.3 4.3 0.4 2.6 0.7 5.7 0.7 6.9 0 1.3-0.6 2.9-1.3 3.5-0.8 0.8-3.6 1.2-7.5 1-6-0.2-6.2-0.3-7.7-3.7-0.8-1.9-1.2-4-0.7-4.6 0.4-0.6 0.2-1.4-0.5-1.8-0.6-0.3-1.6-5.1-2.2-10.6-0.7-5.5-1.4-11.6-1.6-13.5-0.2-1.9-0.9-5.1-1.6-7-0.6-1.9-1-5-0.8-6.7 0.2-1.8 0.1-3.3-0.3-3.3-0.5 0-0.8-0.9-0.8-2 0-1.1-0.3-1.8-0.7-1.6-0.5 0.2-1.7 2.1-2.8 4.2-1 2.2-2.1 4.2-2.2 4.6-0.2 0.5-0.3 0.9-0.4 1 0 0.2-0.2 1-0.3 1.8-0.2 0.8-2.4 7.1-5.1 14-2.6 7-5.7 13.3-6.9 14.3-1.1 1-3.7 1.8-5.6 1.8-1.9-0.1-4.5-0.8-5.7-1.6-1.3-0.8-2.1-2-1.8-2.5 0.3-0.5 0.1-1.1-0.3-1.3-0.4-0.1-2.2-3.8-4-8.2-1.7-4.4-2.9-8.3-2.7-8.8 0.3-0.4 0.2-0.7-0.2-0.7-0.5 0-1.5-1.9-2.3-4.2-0.8-2.4-1.4-4.9-1.2-5.6 0.1-0.6-0.3-1.2-0.8-1.2-0.5 0-0.8-0.5-0.5-1 0.3-0.5 0-1-0.5-1-0.5 0-1.5-1.5-2.1-3.3-0.6-1.7-1.3-2.7-1.5-2.2-0.1 0.5-1.1 4.6-2 9-0.9 4.4-2.1 11.6-2.6 16-0.5 4.4-1 8.8-1.1 9.7-0.1 1-0.5 1.8-0.9 1.8-0.5 0-0.6 0.5-0.3 1 0.3 0.5 0 3.6-0.5 6.7-0.6 3.2-1.5 6.8-2 8-0.9 2.1-1.7 2.3-8 2.3-4.6 0-7.2-0.4-7.7-1.3-0.4-0.6-0.6-3-0.5-5.2 0.1-2.2 0.9-7.2 1.8-11 0.8-3.8 1.9-10.2 2.4-14 0.5-3.9 1.4-7.6 2-8.3 0.5-0.6 0.9-1.5 0.8-2-0.1-0.4 0.4-5.1 1.2-10.5 0.8-5.3 1.7-9.7 2-9.7 0.3 0 0.6-2.4 0.8-5.2 0.1-2.9 0.6-5.5 1-5.8 0.4-0.3 0.8-2.5 0.9-5 0.2-2.5 0.7-5.1 1.3-5.8 0.5-0.6 0.9-1.5 0.9-2-0.1-0.4-0.1-1.3 0-2 0-0.6 1-2.1 2.1-3.2 1.1-1.1 3.2-2 4.8-2zm-86.5 0.1c21.4-0.1 22.8 0 24.7 1.9q2 2 2 6c0 2.2-0.5 5.1-2 9h-16c-14.7 0-16.2 0.2-18 2-1.4 1.4-2 3.3-2 6.5 0 2.5 0.6 5.6 1.3 7 0.6 1.4 1.9 2.6 2.7 2.6 0.8 0 7.6 0.2 15 0.4 11.6 0.3 13.7 0.7 14.8 2.2 0.7 1 1.2 3.1 1.2 4.8 0 1.6-0.3 3.9-0.5 5-0.3 1.1-1.6 2.6-3 3.2-1.6 0.9-7.2 1.3-29.5 1.3l-1.1 2.7c-0.5 1.6-0.9 7.1-0.4 21.8l17.1 0.5c13.2 0.4 17.5 0.8 18.8 2 1.2 1 1.7 3 1.6 6.5 0 2.7-0.5 5.7-1 6.5-0.8 1.3-4.8 1.5-26 1.5-24 0-25.2-0.1-26.6-2-1.2-1.7-1.4-9.2-1.4-44.5 0-32.8 0.3-42.9 1.2-44.1 0.7-0.9 2-1.9 2.8-2.2 0.8-0.3 11.7-0.6 24.3-0.6zm-92.8 0.1c9.5 0 13.2 0.4 17.5 2 3 1.1 6 2.8 6.7 3.7 0.6 0.9 1 2.4 0.7 3.3-0.2 1-0.9 1.8-1.4 1.8-0.5 0-0.7 0.6-0.4 1.2 0.3 0.7-0.2 1.6-1 2-0.9 0.5-1.4 1.1-1.1 1.5 0.2 0.5-0.3 1.5-1.3 2.4-1 0.9-2.7 1.6-3.8 1.5-1-0.1-3.2-0.8-4.9-1.5-1.8-0.7-6.2-1.1-19-0.6v4.9c0 4.8 0.2 5.1 5.5 9.3 3 2.3 6.3 4.9 7.3 5.8 0.9 0.8 1.7 1.3 1.7 1 0-0.3 2.5 1.4 5.5 3.7 3.1 2.4 5.8 4.9 6 5.5 0.3 0.7 1.2 1.3 2.2 1.3 0.9 0 1.3 0.3 1 0.7-0.4 0.5 0.1 1.3 1.1 1.9 0.9 0.6 2.5 2.7 3.5 4.7 1.3 2.9 1.6 5.9 1.5 14-0.2 7.2-0.7 11-1.7 12.3-0.8 1-2.9 3.3-4.5 5.1-1.7 1.8-3.4 3-3.8 2.8-0.5-0.3-0.8-0.2-0.8 0.2 0 0.5-1.1 1.4-2.5 2-1.4 0.7-3 1.1-3.5 0.8-0.5-0.3-2.2 0.2-3.7 1-2 1.1-5.1 1.5-10.3 1.4-4.1-0.1-9-0.8-10.7-1.6-1.8-0.7-4-1.1-4.8-0.8-0.8 0.3-1.5 0-1.5-0.5 0-0.5-0.7-0.8-1.5-0.5-0.8 0.3-1.5 0-1.5-0.5 0-0.5-1.9-1.5-4.2-2.1-2.4-0.6-4.8-1.8-5.5-2.7-0.8-1.3-0.8-2.6 0.3-5.5 0.8-2 2.1-4.8 2.9-6.2 1-1.6 2.4-2.5 4-2.5 1.4 0 2.7 0.5 3 1 0.3 0.5 1 0.8 1.5 0.5 0.5-0.3 1.2 0 1.5 0.5 0.3 0.5 1 0.8 1.5 0.5 0.5-0.3 1 0 1 0.5 0 0.5 0.3 0.9 0.8 0.9 0.4-0.1 0.9 0 1.2 0.1 0.3 0.1 2.1 0.4 4 0.6 1.9 0.3 6 0.6 9 0.8 3 0.2 6.5-0.2 7.7-0.8 1.2-0.6 2.7-2.1 3.3-3.4 0.5-1.2 1-3.2 1-4.5-0.1-1.2-0.6-3.2-1.3-4.5-0.7-1.2-3.1-3.7-5.4-5.5-2.3-1.7-6.9-5.1-10.2-7.5-3.4-2.3-6.1-4.7-6.1-5.2 0-0.5-0.5-1-1-1-0.5 0-3.5-2.6-6.6-5.8-4.3-4.4-5.9-6.9-7.1-11.2-0.9-3.1-1.3-7-0.9-9 0.3-1.9 1.6-5.5 2.9-8 1.3-2.5 4.1-5.8 6.3-7.3 2.1-1.5 4.8-3.2 5.9-3.7 1.1-0.5 7.4-0.9 14-0.8z"/>
		<path id="Path 18" class="s1" d="m1798.8 832c0.9 0.5 4 1.9 6.7 2.9 2.8 1.1 4.4 2 3.8 2-0.7 0.1-2.9-0.6-4.8-1.4-1.9-0.8-3.9-1.3-4.5-1-0.6 0.3-1.7 0-2.5-0.5-0.8-0.5-1.3-1.4-1-2 0.4-0.6 1.2-0.6 2.3 0z"/>
		<path id="Path 19" fill-rule="evenodd" class="s2" d="m2233.5 830.5c1.7 0.3 5.9 0.9 9.5 1.4 3.7 0.4 8.9 2 12 3.6 3 1.6 8.5 5.9 12.3 9.7 3.7 3.7 6.7 7.5 6.7 8.3 0 0.8 0.5 1.6 1 1.8 0.6 0.1 2.1 3.3 3.5 7.2 1.3 3.9 2.7 9.7 3.1 13 0.5 4.5 0.1 8.1-1.5 14.5-1.2 4.7-3.1 10.3-4.2 12.5-1.2 2.2-3.5 5.8-5.3 7.9-1.7 2.2-5.5 5.7-8.4 7.8-2.8 2.1-5.5 3.6-6 3.3-0.4-0.3-2 0.4-3.7 1.5-1.7 1-5.3 2.4-8 3-2.8 0.6-6.8 1.3-9 1.7-2.2 0.3-6.5 0-9.5-0.8-3-0.7-6.2-1.2-7-1-0.8 0.1-5.3-1.7-9.9-4.1-4.6-2.4-9.1-5.4-10-6.7-0.9-1.3-2.8-3.6-4.4-5-1.5-1.4-2.7-3.2-2.7-3.9 0-0.6-0.3-1.2-0.7-1.2-0.5 0-1.6-1.6-2.5-3.7-1-2.1-2.5-6.1-3.3-8.8-1.3-3.8-1.5-7.4-1.2-15 0.3-5.5 1.1-11.4 1.7-13 0.7-1.6 1.7-4.1 2.3-5.5 0.6-1.4 1.1-2.7 1.2-3 0-0.3 0.7-1.6 1.4-3 0.7-1.4 2.9-4 4.9-5.9 2.1-1.9 2.8-2.8 1.7-2.1-1.1 0.7-0.2-0.3 2-2.3 2.2-1.9 4.3-3.3 4.8-3.1 0.4 0.2 0.7-0.1 0.7-0.6 0-0.5 0.7-1 1.5-1 0.8 0 1.5-0.5 1.5-1 0-0.5 1.1-1.2 2.5-1.5 1.4-0.3 2.8-0.5 3.3-0.4 0.4 0 0.9-0.4 1.2-1.1 0.3-0.6 3-1.3 6-1.6 3-0.3 6.4-1 7.5-1.5 1.1-0.5 3.3-0.6 5-0.4zm-17.1 23.7c-1.6 1.6-4.4 4.3-6.2 6-2 2-3.9 5.3-4.8 8.3-0.8 2.8-1.4 7.8-1.4 11.3 0 3.4 0.4 6.2 1 6.2 0.6 0 0.7 0.8 0.4 1.8-0.3 0.9 0.3 3.5 1.4 5.7 1 2.2 4.1 5.9 6.8 8.3 2.8 2.4 7.1 5 9.9 5.9 3.5 1.1 7 1.4 11.5 1.1 3.6-0.3 8.3-1.5 10.5-2.6 2.2-1 5.9-4.1 8.3-6.8 2.3-2.7 4.1-5.4 3.9-5.9-0.2-0.5 0.3-1.5 1.1-2 0.9-0.7 1.6-3.6 2-8.5 0.3-5.1 0.1-7.7-0.6-8.3-0.8-0.4-0.9-1.2-0.3-2 0.6-0.7 0.3-2.9-0.6-5.7-0.8-2.5-3.3-6.3-5.6-8.7-2.3-2.3-4.5-4-4.9-3.8-0.5 0.3-1-0.2-1.3-1-0.3-0.8-2.9-2.2-5.7-3-2.9-0.8-7.5-1.5-10.3-1.5-2.7 0.1-6.6 0.6-8.6 1.3-2 0.7-4.9 2.4-6.5 3.9z"/>
		<path id="Path 20" class="s1" d="m2215.3 853.4c0.9 0.1 1.5 0.6 1.4 1.1-0.2 0.5-1.9 1.9-7.1 5l1.2-2.2c0.7-1.3 1.8-2.2 2.4-2 0.7 0.1 1.1-0.3 0.9-0.9-0.2-0.6 0.3-1 1.2-1z"/>
		<path id="Path 21" class="s2" d="m2030.5 830.1c0.6 0 3.3 0.5 6 1.3 2.8 0.7 5.7 1.1 6.5 0.8 0.8-0.2 4.7 0.8 8.5 2.2 3.8 1.4 8 3.5 9.3 4.6 1.2 1.1 2.2 2.3 2.2 2.7 0 0.5-1.4 3.2-3.2 6.2-1.8 3-4.1 5.9-5 6.5-1.3 0.9-3.2 0.4-8.5-2.1-5.8-2.8-7.9-3.3-14.6-3.3-5.6 0-8.9 0.6-12.2 2-2.5 1.1-4.5 1.8-4.5 1.5 0-0.3-1.2 0.6-2.8 1.9-1.5 1.4-3 2.3-3.5 2-0.4-0.2-1 0.2-1.4 0.8-0.4 0.7-0.8 1.5-0.8 1.8-0.1 0.3-1 2.3-2.2 4.5-1.1 2.2-2.4 5.6-2.8 7.5-0.4 1.9-1 4-1.3 4.5-0.3 0.5-0.7 2.6-0.8 4.5-0.2 1.9 0.1 3.7 0.6 4 0.6 0.3 1.1 2.2 1.2 4.3 0.2 2 0.6 3.7 1 3.7 0.5 0 0.6 0.5 0.3 1-0.3 0.5-0.1 1 0.5 1 0.6 0 1 0.7 1 1.5 0 0.8 0.3 1.6 0.7 1.7 0.5 0.2 1.9 1.7 3.3 3.3 1.4 1.7 2.8 3.2 3.2 3.3 0.5 0.1 3.2 1.3 6 2.7 4.6 2.1 6.7 2.5 15.5 2.5 6.2 0 10.3-0.4 10.3-1 0-0.5 0.4-0.8 1-0.5 0.6 0.3 1 0.2 1-0.3-0.1-0.4 2-1.5 4.5-2.5 4.3-1.6 4.6-1.6 6.5 0 1.1 1 1.7 2.1 1.5 2.5-0.3 0.5 0.2 1 1 1.3 0.8 0.3 1.3 1 1 1.5-0.3 0.5-0.2 1 0.2 1 0.5-0.1 1.4 1.2 2.2 2.7 0.7 1.5 1 3.4 0.7 4-0.3 0.7-4 2.9-8.1 4.8-4.1 1.9-8.2 3.3-9 3-0.8-0.3-3.6 0.2-6.3 1.1-3.3 1.2-6.4 1.5-10.2 1.1-3-0.4-7.1-0.9-9-1.2-1.9-0.4-4.2-0.9-5-1.2-0.8-0.3-2.3-0.8-3.3-1-0.9-0.1-3.6-1.2-6-2.4-2.3-1.1-7.6-5.6-11.7-9.9-5.5-5.7-8.1-9.3-9.8-13.6-1.5-3.7-2.1-6.9-1.8-8.7 0.4-1.5 0.2-2.7-0.4-2.7-0.6 0-1-3.1-1-7.3 0-3.9 0.3-7.6 0.7-8 0.5-0.5 0.9-2.7 0.9-5 0.1-2.3 0.7-4.3 1.3-4.5 0.6-0.1 1.1-1.1 1.1-2.2 0-1.1 0.6-3.1 1.2-4.5 0.7-1.4 1.6-2.5 2-2.5 0.5 0 0.8-0.7 0.8-1.5 0-0.8 1-2.2 2.2-3 1.3-0.9 2.2-1.9 2.2-2.3-0.1-0.4 1.6-2.2 3.7-4 2.2-1.7 3.9-2.9 3.9-2.5 0 0.5 0.6-0.1 1.5-1.2 0.8-1.1 1.5-1.5 1.5-1 0 0.6 0.3 0.6 0.8-0.1 0.4-0.5 3.1-2 5.9-3.2 2.9-1.2 7.2-2.2 9.5-2.3 2.4-0.1 5.4-0.5 6.8-0.9 1.4-0.4 2.9-0.8 3.5-0.9z"/>
		<path id="Path 22" class="s1" d="m2239.5 829.1c0.6-0.1 1.4 0.3 2 0.8 0.6 0.5 1.9 1.1 3 1.4 1.2 0.3 0.6 0.5-1.5 0.6-1.9 0-4.6-0.2-6-0.6-2.3-0.6-2.4-0.7-0.5-1.4 1.1-0.4 2.4-0.8 3-0.8zm-14 0.2c1.1 0.1 1.9 0.7 1.8 1.2-0.1 0.5-1.6 1.2-3.3 1.5-1.7 0.3-3.3 0.3-3.5 0-0.3-0.3 0.3-1.1 1.3-1.7 0.9-0.7 2.6-1.2 3.7-1zm-187-0.3c0.8 0 2.3 0.4 3.2 0.9 1 0.5 2.9 1.3 4.3 1.9 2 0.7 1.3 0.8-3 0.5-3-0.2-5.8-0.6-6.3-0.9-0.4-0.2-0.5-0.9-0.2-1.4 0.4-0.5 1.3-1 2-1zm-14 0.4c1.1 0.3 2.7 0.6 3.5 0.7 0.8 0 0.4 0.5-1 0.9-1.4 0.4-4.3 0.8-6.5 0.8-2.2 0-3.1-0.2-2-0.5 1.1-0.3 2.4-0.9 3-1.4 0.6-0.6 1.9-0.8 3-0.5zm-469.2-0.4c3.4 0 7.5 0.6 9.2 1.4 2.6 1.2 2.7 1.4 1 1.7-1.1 0.2-6.7 0.2-12.5-0.2-5.8-0.3-9.3-0.6-7.8-0.7 1.6-0.1 3-0.7 3.3-1.2 0.4-0.5 3.4-1 6.8-1zm-109.5 0c4.2 0 8.2 0.4 8.7 0.9 0.5 0.5 1.9 1.1 3 1.4 1.1 0.2-3.1 0.6-9.2 0.8-6.2 0.2-12.3 0.1-15.8-0.9l2.2-0.1c1.3-0.1 2.5-0.6 2.8-1.1 0.4-0.5 4.1-1 8.3-1zm-394.1 0c2.9 0 5.5 0.5 5.8 1 0.3 0.5 1.7 1.1 6 1.2l-2.9 0.7c-1.5 0.3-6.7 0.4-11.5 0.2-4.7-0.2-7.7-0.6-6.6-0.9 1.1-0.2 2.4-0.8 3-1.3 0.5-0.5 3.3-0.9 6.2-0.9zm1247.6-56.6c6 0.1 7.4 0.4 7.2 1.6-0.1 1.2-1.7 1.5-7 1.5-5.5 0-6.9-0.3-7.2-1.6-0.3-1.4 0.7-1.6 7-1.5zm-886.3-0.2c0.4-0.1 0.5 0.6 0.5 1.5-0.2 1.5-1.2 1.8-6.3 1.8-3.5 0-6.2-0.4-6.2-1 0-0.5 2.6-1.3 5.7-1.6 3.2-0.3 6-0.6 6.3-0.7zm34.2-4.7c1.4 0 2.4 0.3 2.2 0.7-0.2 0.5-1.5 0.8-2.9 0.8-1.4 0-2.6 0.5-2.7 1.2-0.2 0.6-0.9 0.9-1.5 0.5-0.7-0.4-1.3-1.2-1.3-1.7 0-0.5 0.7-0.8 1.5-0.5 0.8 0.3 1.6 0.2 1.8-0.3 0.2-0.4 1.5-0.7 2.9-0.7zm808.3-0.8c0.5 0.5 2.4 1 4 1.1 1.7 0.2 3.4 0.7 4 1.3 0.7 0.8 0 0.9-2.5 0.4-1.9-0.3-4.3-0.8-5.2-1.1-1-0.2-1.7-0.9-1.6-1.5 0.2-0.7 0.6-0.8 1.3-0.2zm-441.5-0.7c1.9 1.9 3.3 2 47.2 2 24.8 0 44.9 0.2 44.5 0.5-0.3 0.3-21 0.5-45.9 0.5-33.9-0.1-45.6-0.4-46.6-1.3-0.7-0.7-1.3-1.8-1.2-2.5 0-0.7 0.8-0.4 2 0.8zm114-2.9c0.3 0 1.2 0.3 2 0.8 1.2 0.7 1 1-1 1.6-1.4 0.4-3.2 0.6-4.2 0.5-0.9 0-3.2 0.7-5.2 1.7-2.9 1.4-3.9 1.5-4.9 0.6-0.9-1-0.6-1.5 1.6-2.3 1.5-0.5 3.1-0.8 3.7-0.5 0.6 0.3 2.5-0.1 4.3-0.9 1.7-0.8 3.4-1.5 3.7-1.5zm-293.8-1.6c0.5 0.3 0.9 1.2 0.9 1.8-0.1 0.7-1.1 2.2-2.4 3.5-2.2 2.2-2.6 2.3-23.9 2.2-18.5 0-21.9-0.2-22.3-1.5-0.3-0.8-0.5-1.7-0.5-2 0-0.3 0.7 0.2 1.5 1 1.2 1.2 5 1.5 21.3 1.5 10.8 0 20.2-0.4 20.9-0.8 0.6-0.4 1.7-2 2.3-3.5 0.6-1.6 1.6-2.5 2.2-2.2zm-449.7 0c0.8 0.3 1.3 1 1 1.5-0.3 0.5 0.7 1.9 2.3 3 2.5 1.9 4.1 2.1 21.9 2 15.6 0 19.4-0.3 20.7-1.5 1.4-1.3 1.6-1.3 1.6 0 0 0.8-0.7 1.7-1.5 2-0.8 0.3-10.4 0.5-41 0.5l-3.3-3.2c-1.8-1.8-3.3-3.6-3.3-4 0-0.4 0.7-0.5 1.6-0.3zm160.3-2.5c0.6 0 1.3 0.4 1.5 0.9 0.1 0.5 2.6 1.5 5.5 2.3 2.9 0.7 5.2 1.6 5.2 2 0 0.5-0.4 1-1 1.3-0.5 0.3-1 0.2-1-0.3 0-0.4-1.7-1.3-3.7-2.1-2.1-0.8-4.7-2-5.8-2.7-1.1-0.8-1.4-1.4-0.7-1.4zm1021.7-0.5c0 0.2-0.1 1.1-0.2 2-0.2 0.8-1.1 1.4-2 1.4-1-0.1-2.7 0.2-3.8 0.6-1.5 0.6-1.4 0.3 0.5-1.1 1.4-1 2.8-1.9 3.2-1.9 0.3 0 1-0.3 1.4-0.8 0.4-0.4 0.8-0.5 0.9-0.2zm15.7-8.5c0.4 0 0.8 0.3 0.8 0.7 0 0.5-2.1 1.9-4.7 3.1-2.7 1.3-4.4 2-3.8 1.5 0.6-0.5 2.3-1.9 3.9-3.1 1.6-1.2 3.3-2.2 3.8-2.2zm-1052.6 0.4c2.1 1.4 4.2 2.6 4.6 2.6 0.5 0 1.5 0.7 2.3 1.5 0.8 0.8 1.2 1.5 0.7 1.5-0.4 0-2.9-1.4-5.6-3.2-2.7-1.8-5.1-3.7-5.4-4.2-0.3-0.5 1.2 0.3 3.4 1.8zm432.5-1.2c1.3 1.4 4.3 5.4 6.6 8.7 2.6 3.6 4.2 7 3.8 10.6l-45 0.1 21-0.6c11.6-0.3 21.6-0.8 22.2-1.3 0.8-0.4 1-1.5 0.6-2.5-0.3-0.9-1.9-3.5-3.4-5.7-1.5-2.2-3.7-5-4.8-6.3-1.2-1.2-1.8-2.2-1.4-2.2 0.5 0.1 0.2-0.7-0.6-1.7-0.7-1-0.3-0.6 1 0.9zm-588.1-1.7c0.5 0.3 2.9 3.3 5.1 6.7 2.3 3.5 3.3 5.6 2.3 4.7-1.1-1-3.4-4-5.2-6.8-1.7-2.8-2.7-4.9-2.2-4.6zm-8.1-11l2.4 2.5c1.3 1.4 2.9 3.6 5 7.5l-2.2-2c-1.2-1.1-2.9-3.4-3.7-5zm525.8-4l2.5 2.5c1.4 1.4 2.3 2.8 2.1 3.2-0.2 0.5 0.4 1.2 1.4 1.8 1 0.5 1.3 0.9 0.8 0.9-0.6 0 0.3 1.7 1.9 3.8 1.6 2.1 3.5 4.1 4.3 4.5 0.7 0.5 1 1.3 0.8 1.8-0.3 0.5 0.1 1.2 1 1.5 0.8 0.3 1.2 1 1 1.5-0.3 0.5 0.1 1.2 1 1.5 0.8 0.3 1.2 1 1 1.5-0.3 0.5 0.1 1.2 1 1.5 0.8 0.3 1.4 1.1 1.4 1.7 0 0.7 1 2.7 4.4 7.3l-2.5-2.5c-1.4-1.4-6.4-8.1-11-15-4.7-6.9-9.1-13.6-9.8-15zm-385.7-4.3c2.1 1.8 3.8 3.6 3.7 3.9-0.2 0.3 1.5 2.4 3.7 4.7 2.2 2.3 4.5 4.2 5 4.2 0.6 0.1 2 1.4 3.3 3.1 1.2 1.6 2 2.9 1.7 2.9-0.2 0-1.5-0.8-2.7-1.8-1.2-0.9-5-4.5-8.5-8-3.4-3.4-6.3-6.7-6.3-7.2 0-0.5-0.9-1.6-2-2.3-1.1-0.6-1.9-1.6-1.9-2 0.1-0.4 1.9 0.7 4 2.5z"/>
		<path id="Path 23" class="s0" d="m2298.5 724.4c4.9 0 7.2 0.1 5 0.3-2.2 0.2-6.3 0.2-9 0-2.8-0.2-0.9-0.3 4-0.3z"/>
		<path id="Path 24" class="s1" d="m1997.7 723c0.4 0-0.7 1.5-2.4 3.3-1.6 1.7-3.3 4-3.7 5-0.3 0.9-1.8 2.5-3.4 3.4-1.5 0.9-4.5 3.3-6.7 5.3-2.2 2.1-4.8 4-5.8 4.4-1.2 0.4-1.6 0.2-1.2-0.9 0.3-0.8 0.9-1.3 1.5-1 0.6 0.3 1.4-0.3 2-1.3 0.5-0.9 0.9-1.3 0.9-0.8 0 0.4 4.1-3.3 9.1-8.3 5-5 9.4-9.1 9.7-9.1zm282.7-0.1c0.6 0.5 3.1 1.1 5.6 1.4 3.2 0.3 2.6 0.4-1.8 0.3-3.4-0.1-6.3-0.4-6.4-0.7-0.1-0.3 0.2-0.9 0.7-1.2 0.4-0.4 1.3-0.3 1.9 0.2zm-90.3 0.5c2.4 2.7 8.5 9 13.4 13.9 4.9 4.9 10.7 10.1 12.8 11.6 2.1 1.4 3.8 2.7 3.7 2.9 0 0.1-1-0.3-2.3-1-1.2-0.7-4.6-3.1-7.5-5.5-2.8-2.4-5.5-4.3-6-4.3-0.4 0-2.4-1.7-4.5-3.8-2-2-3.7-4.3-3.7-4.9 0-0.7-0.8-1.9-1.8-2.6-0.9-0.7-2.1-2-2.7-2.9-0.6-0.9-2.1-3.1-3.4-4.9-1.3-1.9-0.4-1.2 2 1.5zm-509.2-6.9l3.5 4c2 2.2 3.8 4.9 4.6 8l-1.9-2c-1.1-1.1-2.9-3.8-4.1-6zm-384.4-1c0.8 0.3 1.3 1 1 1.5-0.2 0.5 0.1 1.2 0.8 1.3 0.7 0.2 1.5 1.5 1.9 2.8 0.6 2.1 0.3 1.9-2.2-1.1-1.7-1.9-3-3.8-3-4.2 0-0.4 0.6-0.5 1.5-0.3zm1074 0.5c1.3 1.9 3.5 5 4.7 6.8 1.3 1.8 3.6 5 5.1 7 1.5 2 2.8 4 2.8 4.5-0.1 0.4-0.3 0.7-0.6 0.7-0.2 0-1.1-0.7-2-1.5-0.8-0.8-1.5-2.1-1.4-2.7 0-0.7-0.9-2.3-2-3.5-1.2-1.3-1.8-2.3-1.6-2.3 0.3 0-1.3-2.4-3.5-5.2-2.2-2.9-4-5.8-4-6.3 0-0.5 1.1 0.6 2.5 2.5zm-848-8c0.1 0-0.1 1.1-0.6 2.5-0.5 1.4-1.6 3.7-2.6 5.3-0.9 1.5-3.9 5.4-6.6 8.7-2.7 3.3-8.2 9.5-12.3 13.8-4 4.2-10 9.4-13.1 11.6-3.2 2.1-7.3 4.6-9.3 5.5-2.8 1.4-3.1 1.4-1.5 0.1 1.1-0.8 2.8-2.2 3.8-3 0.9-0.8 2-1.2 2.2-0.7 0.3 0.4 0.7-0.1 1-1 0.3-1 1-1.6 1.5-1.3 0.6 0.3 1.5-0.4 2-1.5 0.6-1.1 1.4-1.8 1.8-1.5 0.4 0.3 1.6-0.6 2.7-2 1.1-1.3 2.3-2.2 2.5-2 0.3 0.2 3.6-2.7 7.4-6.5 3.8-3.9 6.6-7 6.3-7-0.4 0 0.6-1.1 2.1-2.3 1.5-1.3 3.4-3.8 4.2-5.6 0.9-1.7 1.9-3.2 2.3-3.1 0.4 0 0.7-0.5 0.7-1 0-0.5 0.8-1.9 1.8-3 0.9-1.2 1.7-2.4 1.7-2.8 0.1-0.4 0.4-1.3 0.8-1.9 0.5-0.7 1-1.3 1.2-1.3zm835.7-1c0.5 0 0.8 0.5 0.8 1 0 0.5-0.5 1-1.2 1-0.7-0.1-2.4 0.8-3.8 1.8-1.3 1-3.8 2.3-8.5 4.3l2.5-2.1c1.4-1.1 2.9-2 3.3-2 0.4 0 1.9-0.9 3.4-2 1.4-1.1 3-2 3.5-2zm-1212.8-0.4c0.9 0.4 1.6 1.2 1.6 2 0 0.8 0.5 1.4 1 1.4 0.6 0 1 0.7 1 1.5 0 0.8 0.6 1.5 1.2 1.5 0.6 0 0.9 0.3 0.5 0.8-0.3 0.4 0.9 2.5 2.7 4.7 1.8 2.2 3.6 4.6 4 5.3 0.3 0.6 0.4 1.2 0.1 1.2-0.2 0-2.2-2.3-4.2-5.2-2.1-2.8-5-6.7-6.5-8.7-1.5-2-2.7-3.9-2.8-4.3 0-0.4 0.6-0.5 1.4-0.2zm520.5-12.1l2.6 2.8c1.4 1.5 2.5 3.2 2.5 3.7 0 0.5 0.5 1 1 1 0.6 0 0.8 0.5 0.5 1-0.2 0.5 0.3 1.4 1.3 2 0.9 0.5 1.3 0.9 0.7 0.9-0.5 0 0 1.1 1.2 2.3 1.1 1.3 2.9 3.7 3.8 5.3 1.7 3 1.7 3-0.1 0.8-1-1.2-3.4-4.3-5.4-6.8-1.9-2.5-4.5-6.4-5.8-8.8zm-530 0l3.2 3.5c1.8 2 3.7 4.4 5.3 7.5l-2.3-2c-1.2-1.1-3.1-3.5-4.2-5.5zm587 1c1.3 1.1 3.5 3.8 4.9 6 1.5 2.2 3.5 4.8 4.5 5.8 1 1 4.7 6.1 8.2 11.5 3.5 5.4 7.4 10.6 8.5 11.7 1.2 1.1 2.1 2.4 2.1 2.8 0 0.4 1.8 2.9 3.9 5.5 2.2 2.6 4 5.1 4 5.5 0.1 0.4-0.8 0.2-1.9-0.5-1-0.7-1.7-1.6-1.5-2 0.3-0.4-0.2-1.1-1.1-1.5-0.9-0.4-1.6-1.2-1.6-1.8 0-0.5-0.9-2.1-2.1-3.5-1.2-1.4-4.4-5.8-7-9.7-2.6-4-5.2-7.3-5.7-7.3-0.6 0-0.8-0.4-0.5-1 0.2-0.5-0.4-1.4-1.5-2-1.1-0.5-1.8-1.4-1.5-2 0.2-0.5-0.3-1.4-1.3-1.9-0.9-0.5-1.6-1.2-1.5-1.5 0.2-0.3-0.9-2.2-2.4-4.3-1.5-2.1-4-5.6-5.7-7.8-2.2-2.8-2.4-3.4-0.8-2zm508.4-2.9c0.9 0.3 1.7 1.2 1.7 1.8 0.1 0.6 3.8 4.6 8.3 8.9 5.1 4.8 7.2 7.3 5.5 6.5-1.5-0.7-2.8-1.6-2.8-2 0.1-0.4-0.4-0.8-0.9-0.8-0.6 0-2.5-1.5-4.3-3.4-1.8-1.8-4.2-4.5-5.5-6-1.2-1.4-1.9-2.5-1.5-2.5 0.4 0 0.1-0.7-0.7-1.6-1.4-1.5-1.4-1.6 0.2-0.9zm-215.1-4.1c0.5 0.3 0.2 1.8-0.6 3.3-0.8 1.5-1.2 3.1-1 3.5 0.3 0.4 0.1 0.8-0.3 0.8-0.4 0-1.1-0.2-1.5-0.5-0.4-0.3-0.1-1.7 0.8-3.1 0.8-1.3 1.2-2.5 1-2.5-0.3 0-0.3-0.4 0.1-1 0.3-0.5 0.9-0.8 1.5-0.5zm-370.3-20.1c2 0.3 3.7 0.7 3.8 0.9 0 0.1 1.5 2.4 3.2 5 1.7 2.6 2.9 4.7 2.7 4.7-0.3 0-1.9-2-3.5-4.5-2.7-4-3.4-4.4-6-4-1.7 0.3-3.5 0.3-4 0-0.6-0.2-0.8-0.9-0.4-1.5 0.4-0.6 2.2-0.9 4.2-0.6zm58-0.7c0.4 1.2 1.7 3.4 2.9 4.8 1.3 1.4 3.8 4.7 5.7 7.3 1.9 2.6 3.5 5.2 3.5 5.7 0 0.6 0.7 1.7 1.6 2.5 1 0.9 2.1 2.4 3.6 5.5l-1.6-2c-0.9-1.1-2.7-3.2-4.1-4.7-1.3-1.5-2.2-3-1.9-3.3 0.2-0.2-0.4-0.9-1.5-1.5-1.1-0.5-1.8-1.4-1.5-2 0.2-0.5-0.2-1.2-1-1.5-0.9-0.2-1.5-0.9-1.5-1.5 0-0.5-1.1-2.4-2.5-4.2-1.4-1.8-2.4-4.2-2.4-5.3 0.1-1.8 0.1-1.8 0.7 0.2zm-167.2-3.7c0.2 0 0.2 0.8 0.1 1.8-0.1 1 0.1 2.3 0.5 3 0.4 0.7 0.3 1.5-0.2 1.7-0.6 0.3-1 1.6-1.1 2.8 0 1.8-0.2 1.9-0.9 0.7-0.6-0.9-0.5-3.1 0.1-5.7 0.6-2.3 1.2-4.3 1.5-4.3zm-259-1.8c0.7 1.8 1.2 5.1 1.2 7.3-0.1 3.6-0.2 3.5-0.9-1.5-0.5-3-1.4-5.9-1.9-6.5-0.6-0.5-0.7-1.3-0.3-1.8 0.4-0.4 1.2 0.7 1.9 2.5zm-165.6-3.2c0.5 0 1 0.6 0.9 1.3 0 0.7 1.1 2.5 2.5 4 1.4 1.5 2.2 2.8 1.8 2.8-0.4 0 0 0.6 0.8 1.2 0.9 0.7 2.5 2.7 3.5 4.5 1.1 1.8 2.3 3.3 2.7 3.3 0.4-0.1 0.8 0.6 0.8 1.4 0 0.9 0.4 1.5 1 1.5 0.5 0 0.9 0.4 0.7 0.8-0.1 0.4 1.6 3.2 3.8 6.2 2.3 3.1 4.5 6.2 4.9 7 0.4 0.9-0.4 0.2-1.8-1.5-1.5-1.6-2.7-3.2-2.7-3.5 0.1-0.2-2-2.9-4.4-6-2.5-3-4.5-5.9-4.5-6.5 0-0.5-0.7-1.6-1.6-2.5-1-0.8-3.5-4-5.6-7.2-2.1-3.2-3.8-6-3.8-6.3 0-0.2 0.4-0.5 1-0.5zm614-1.8c0.2-0.1-0.4 0.5-1.5 1.3-1.1 0.8-2.7 2.1-3.5 2.9-0.9 0.8-2.4 1.6-3.4 1.8-1.1 0.2-2.1-0.1-2.3-0.7-0.2-0.5 2-1.9 4.9-3.1 2.9-1.2 5.5-2.2 5.8-2.2zm298.3-9.5c0.5 0.6 0.7 2.6 0.5 4.4-0.2 1.9-0.9 3.3-1.8 3.5-1.1 0.1-1.4-0.6-1.2-2.9 0.2-1.8 0.6-3.8 1-4.6q0.6-1.4 1.5-0.4zm192-11.7c0.3 0.3 0.7 6.2 0.8 13.2 0.2 6.9 0 12.5-0.4 12.2-0.4-0.2-0.8-6.1-0.8-13.1 0-7 0.2-12.5 0.4-12.3zm-465.7-3.5c0.2 0.3-1.1 2.7-2.9 5.3-1.8 2.6-4.2 5.5-5.5 6.5-1.2 0.9-2.2 2.4-2.2 3.2 0 0.9-0.7 1.5-1.5 1.5-0.9 0-2.1 0.8-2.8 1.8-0.7 1-2.3 2.3-3.5 3-2.1 1.2-2.2 1.1-1-0.8 0.7-1.1 1.6-2 2-2 0.4 0 3-2.1 5.7-4.7 2.7-2.6 4.6-5.2 4.3-5.8-0.4-0.5-0.3-0.7 0.3-0.3 0.5 0.4 2.3-1.3 3.9-3.8 1.6-2.4 3.1-4.2 3.2-3.9zm272-1c1.1 0.1 2 1.2 2.2 2.6 0.1 1.4 0 3.1-0.3 3.9-0.4 1-0.9 1.2-1.4 0.5-0.5-0.5-1.2-2.4-1.6-4.1-0.6-2.7-0.4-3.1 1.1-2.9zm-484.3-3c0.9 2.1 1.1 6.6 0.7 16.3-0.3 7.4-0.9 13.6-1.3 13.8-0.4 0.3-0.7-7.1-0.7-16.3 0-14.5 0.2-16.4 1.3-13.8zm-451.8-4.5c0.3 0 2.3 2.5 4.3 5.6 2 3 4 5.5 4.4 5.5 0.4 0 0.8 0.6 0.8 1.4 0 0.9 0.3 1.5 0.7 1.5 0.4 0 1.4 1.2 3.5 5.5l-2.4-2.5c-1.4-1.3-4.2-5.2-6.4-8.5-2.3-3.3-4.4-6.5-4.8-7.2-0.5-0.7-0.5-1.3-0.1-1.3zm1079.1-0.7c0.1 0.1 0.4 2.6 0.6 5.5q0.3 5.2-1 5.7c-0.7 0.3-1.5-0.2-1.9-1.2-0.3-1 0-2.7 0.7-3.8 0.7-1.1 1-2.6 0.6-3.5-0.3-0.8-0.3-1.8 0.1-2.2 0.3-0.4 0.7-0.6 0.9-0.5zm-1025 1.7c1 1.3 3.5 4.5 5.5 7 1.9 2.5 3.6 5 3.8 5.5 0.1 0.6 1.9 3.1 4.1 5.5 2.1 2.5 3.9 5 3.9 5.5 0 0.6 1 1.9 2.1 3 1.2 1.1 2.9 3.4 3.7 5 0.9 1.7 2.8 4.5 4.4 6.3 1.6 1.8 3.6 4.7 6.1 9.7l-2.5-2.5c-1.4-1.3-2.3-2.8-2.1-3.2 0.2-0.4-0.3-1-1.1-1.3-0.9-0.2-1.3-0.8-1.1-1.2 0.2-0.4-1.4-2.8-3.5-5.3-2.2-2.4-3.9-4.9-3.9-5.5 0-0.5-1.2-2.2-2.5-3.7-1.4-1.5-2.2-2.7-1.8-2.7 0.4 0-1-2.1-3.2-4.8-2.2-2.6-4.4-5.1-5-5.5-0.7-0.5-0.7-0.7 0-0.8 0.5 0 0.1-0.7-1-1.5-1.1-0.8-1.6-1.5-1-1.5 0.5 0.1 0-0.9-1.2-2.2-1.1-1.2-2.8-3.6-3.8-5.3-1.7-2.9-1.7-2.9 0.1-0.5zm-63.7-14.7c0.3 0.3 2.6 3.4 5.1 6.9 2.4 3.4 3.9 6 3.2 5.6-0.7-0.4-3-3.5-5.1-6.9-2.1-3.4-3.6-5.9-3.2-5.6z"/>
		<path id="Path 25" class="s0" d="m1072 604.6c1.5 1.8 1.5 2-0.4 2.9-1.7 0.9-2.2 0.8-2.4-0.5-0.2-0.8 0-2.1 0.4-2.9 0.7-1.1 1.1-1 2.4 0.5z"/>
		<path id="Path 26" class="s1" d="m1115 588c0.5 0 1.5 1.1 2 2.5 0.5 1.4 2.2 4 3.8 5.8 1.5 1.7 4.7 6.1 7.2 9.7 2.4 3.6 4.8 7 5.2 7.5 0.4 0.5 1.9 2.5 3.3 4.3 1.4 1.7 2.5 3.4 2.5 3.7 0 0.3-0.7 0.3-1.5 0-0.8-0.3-1.5-1-1.5-1.5 0-0.5-3-5.2-6.6-10.3-3.7-5-7.1-9.4-7.6-9.7-0.5-0.3-1-1-1-1.5-0.1-0.5-1.3-2.6-2.7-4.5-1.4-1.9-2.9-3.6-3.4-3.7-0.4-0.2-0.7-0.8-0.7-1.3 0-0.5 0.5-1 1-1zm1062.7-4.9c0.1 0.2-0.5 2.2-1.5 4.4-1 2.2-2.4 5.1-4.2 9l0.6-2.5c0.4-1.4 1.6-4.5 2.7-6.9 1.2-2.4 2.2-4.2 2.4-4zm69.6-7.1c0.4 0-2.8 3.5-7.1 7.8-4.3 4.2-8.9 9.6-10 12-1.2 2.3-2.8 4.5-3.5 4.9-0.6 0.4-0.4-0.5 0.5-2 1-1.5 1.6-2.7 1.3-2.7-0.3 0 0.1-0.8 0.7-1.7 0.7-0.9 4.9-5.4 9.4-10 4.4-4.6 8.3-8.3 8.7-8.3zm92.2-7.2l2 0.7c1.1 0.4 2.9 0.9 4 1.1 1.1 0.2 2.9 1.4 4 2.5 1.1 1.2 1.6 1.9 1 1.6-0.6-0.4-2.1-0.9-3.5-1.2-1.4-0.3-2.7-0.9-3-1.3-0.3-0.5-1.4-1.4-2.5-2.1zm33.2-1.9c0.1 0-0.7 1.7-1.9 3.8-1.2 2.1-3 5-4 6.5-1 1.5-2.5 2.7-3.3 2.7-1.3 0-1.2-0.3 0.2-2.1 1-1.1 2.4-2.7 3-3.5 0.7-0.7 1.2-1.6 1.1-1.9-0.1-0.2 0.8-1.6 2.1-3 1.4-1.3 2.6-2.5 2.8-2.5zm52.9-2c1 0.9 2.8 2.4 3.9 3.4 1.1 1 4.2 2.9 7 4.1 2.7 1.2 5.9 2.5 7 2.9 1.6 0.5 1.7 0.9 0.8 1.9-1 1-1.6 0.9-3-0.5-1-0.9-2.5-1.7-3.3-1.8-0.8 0-3.8-1.3-6.5-2.9-2.8-1.6-5.6-4.2-6.4-5.7-1.3-2.7-1.2-2.8 0.5-1.4zm-141.1-2.7l-4 0.8c-2.2 0.4-5.1 1.1-9 2.1l2.5-1.5c1.4-0.8 4.3-1.5 10.5-1.4zm14.8-2.1c3.4 0.2 6.2 0.8 6.2 1.3 0 0.6-2.5 1.2-5.5 1.3-3 0.2-6.1 0.1-6.8-0.2-0.6-0.3-0.9-1-0.6-1.6 0.3-0.6 3.2-0.9 6.7-0.8zm175.4-3.2c0.2 0.6-0.5 2.7-1.6 4.8-1 2.1-3.6 5.4-5.7 7.5-2.2 2.1-5.5 4.3-7.4 4.9-1.9 0.6-4.3 1.8-5.3 2.7-1.4 1.3-2 1.4-3 0.4-0.9-1-0.8-1.4 0.8-1.9 1.1-0.4 4.2-1.7 7-2.9 2.8-1.2 6.8-4.2 9.2-6.8 2.4-2.6 4.2-5.5 4.1-6.5-0.1-1 0.3-2.2 0.8-2.6 0.4-0.4 1-0.2 1.1 0.4zm-1389.9-10.5l2.7 2.5c1.4 1.4 6.7 8.6 11.6 16 5 7.5 7.9 12.2 6.4 10.5-1.4-1.6-3.5-4-4.5-5.2-1.1-1.2-1.7-2.5-1.2-2.7 0.4-0.3-0.1-0.8-1-1-1-0.3-1.6-1-1.3-1.6 0.3-0.5-0.4-1.4-1.5-2-1.1-0.5-2-1.6-2-2.5 0-0.8-0.5-1.5-1-1.5-0.5 0-1-0.6-1-1.5 0-0.8-0.5-1.5-1-1.5-0.5 0-1-0.6-1-1.5 0-0.8-0.3-1.5-0.7-1.5-0.5 0-1.6-1.4-2.6-3.2zm240.8-8.5c0.3 0-4.4 4.8-10.4 10.8-5.9 5.9-12.1 12.3-13.8 14.3-1.6 1.9-2.5 2.8-2 2 0.5-0.9 3.1-4.2 5.7-7.4 2.7-3.1 4.9-6.1 4.9-6.5 0-0.4 0.9-1.7 1.9-3 1.1-1.2 2.5-2.2 3-2.2 0.6 0 3.1-1.8 5.7-4 2.5-2.2 4.8-4 5-4zm1058.8-1.5c1.1 0.3 2.6 1.4 3.3 2.5 0.8 1.4 0.9 2.5 0.3 3.7-0.9 1.6-1 1.6-1-0.2-0.1-1.1-1.1-3-2.3-4.3-2.1-2.1-2.1-2.2-0.3-1.7zm-165.5-1.5c0.3 0-0.6 1-2 2.4-1.3 1.3-2.7 2.3-3 2.2-0.3-0.1-1.7 0.8-3.2 1.9-1.5 1.1-2.4 2.4-2 2.9 0.4 0.5 0.3 0.6-0.3 0.3-0.5-0.3-3.9 2.3-7.5 5.8-3.5 3.6-6 6.5-5.5 6.5 0.6-0.1-0.2 0.8-1.7 1.9-1.5 1.2-2.5 2.5-2.3 3.1 0.3 0.5-0.6 1.7-2 2.5-1.3 0.8-2.2 1.9-2 2.5 0.3 0.5-0.1 1.2-1 1.5-0.8 0.3-1.2 0.9-1 1.5 0.3 0.5 0.1 1-0.5 1-0.5 0-0.9 0.5-0.9 1.2 0 0.7-0.7 2-1.6 2.8-0.8 0.8-1.5 1-1.5 0.5 0-0.6 1.8-3.8 4-7.3 2.2-3.4 4.8-7.1 5.8-8.1 1-1 4.9-5.2 8.8-9.2 3.9-4.1 8.1-8.2 9.5-9.2 1.3-1 4-2.9 5.9-4.2 1.9-1.4 3.7-2.5 4-2.5zm-252.5 0.9c1.7 0.6 4.8 2.5 7 4.4 2.2 1.8 5.6 4.4 7.5 5.7 1.9 1.4 6 5 9 8 3 3 6 6.2 6.5 7.1 0.6 1 2.1 3.2 3.5 5 1.8 2.5 1.2 2.1-2.3-1.4-2.6-2.6-4.7-5.1-4.6-5.5 0-0.4-2.3-3-5.1-5.7-2.7-2.8-5-4.6-5-4 0 0.5-0.5 0.1-1.3-1-0.7-1.1-3.1-3.1-5.2-4.5-2.2-1.3-4.3-3-4.7-3.7-0.4-0.7-1.2-1.1-1.8-0.8-0.5 0.3-1 0-1-0.5 0-0.6-0.5-1-1.2-1-0.7 0.1-1.9-0.7-2.8-1.5-1.3-1.5-1.2-1.6 1.5-0.6zm-235-2.5c1.7 1.5 4.2 3.4 5.5 4.2 1.4 0.9 3.3 2.8 4.2 4.2 1 1.5 3 4.3 4.5 6.2 2.1 2.7 1.7 2.5-1.8-1-2.4-2.5-4.3-4.7-4.1-5 0.1-0.3-2.5-2.8-5.8-5.5-3.3-2.8-5.9-5.2-5.8-5.4 0.2-0.2 1.7 0.8 3.3 2.3zm-251.2-1.2c1.2 0.7 2.5 1.5 2.7 1.8 0.3 0.3 2.2 1.7 4.3 3.2 2.1 1.5 4 2.8 4.2 2.8 0.3 0 1.6 0.9 2.8 1.9 1.2 1.1 4.7 4.5 7.7 7.5 3.1 3 6.9 7.1 8.6 9.3 1.8 2.1 3.7 4.9 4.4 6.3 0.9 2 0.6 1.8-1.6-0.8-1.6-1.9-6.9-7.5-11.9-12.5-4.9-5.1-9.3-9.1-9.7-9-0.4 0.2-1.1-0.5-1.5-1.4-0.4-0.9-3.3-3.4-6.5-5.5-3.2-2.1-5.8-4-5.7-4.3 0-0.3 1 0 2.2 0.7zm-647.2 1.4c0.4 1.6 0.7 86.6 0.8 188.9 0.1 163-0.1 186.2-1.4 188-1.3 1.8-1.5-19.7-1.6-188.1-0.1-107.1 0.2-190.4 0.7-190.8 0.5-0.5 1.2 0.5 1.5 2zm239.4-5.6c1 0.8 3.9 4.6 6.5 8.5 2.5 3.8 4.9 7.5 5.3 8.2 0.4 0.7 0.6 1.3 0.5 1.3-0.1 0.1-2.1-2.4-4.3-5.5-2.2-3.1-4.3-5.6-4.7-5.5-0.4 0-0.5-0.5-0.3-1 0.3-0.6-0.1-1.4-0.8-1.8-0.8-0.4-2-1.8-2.7-3.2-1.2-2.4-1.2-2.4 0.5-1zm1386.9-7c0.4 0 2.4 0.9 4.6 2 2.4 1.2 5.3 3.9 7 6.5 1.7 2.5 3.4 5.7 3.7 7.2 0.6 2.1 0.4 2.6-0.5 2-0.6-0.4-1.2-1.5-1.3-2.5 0-1-3.2-4.8-7.1-8.5-3.8-3.7-6.7-6.7-6.4-6.7zm-22.9 0c0.6 0 0.6 0.3 0 0.8-0.5 0.5-2.7 2-4.7 3.4-2.1 1.3-4.8 4-6.1 5.9-1.3 1.8-3.1 5.1-4 7.1-0.9 2.1-2.1 3.6-2.7 3.3-0.5-0.3-0.7-1.2-0.5-2 0.3-0.8 1-1.5 1.5-1.5 0.6 0 1.3-1.3 1.6-2.8 0.3-1.5 2.4-4.7 4.7-7.2 2.3-2.4 5.4-5 6.7-5.7 1.4-0.7 3-1.3 3.5-1.3z"/>
		<path id="Path 27" fill-rule="evenodd" class="s2" d="m2448 519.1c3.3-0.1 6.4 0.5 7.8 1.4 1.2 0.8 2.2 1.3 2.2 1 0-0.3 1.2 0.4 2.8 1.5 1.5 1.1 3.1 1.6 3.6 1.2 0.5-0.4 0.6-0.1 0.3 0.5-0.4 0.8 1.1 3 3.8 5.5 2.5 2.4 4.5 5 4.5 5.8 0 0.8 0.3 2 0.8 2.5 0.4 0.5 1.4 2.8 2.1 5 1.1 3.3 1.1 4.7 0 8.4-0.8 2.4-1.7 4.5-2.1 4.7-0.5 0.2-0.8 1.3-0.8 2.4 0 1.1-2.1 4.3-4.8 7-3.2 3.4-6.5 5.8-10.2 7.2-3 1.2-5.9 2.5-6.4 3-0.6 0.4-2.1 0.8-3.5 0.8-1.5 0-3-0.4-3.6-0.8-0.6-0.5-3.5-1.9-6.5-3-3-1.2-7.6-4.1-10.2-6.4-2.6-2.4-4.7-5.1-4.8-6.1 0-0.9-0.9-3.4-2-5.5-1.1-2-2-5.4-2-7.5 0-2 0.8-5.6 1.9-8 1-2.3 3.1-6 4.6-8.2 1.5-2.2 4.9-5.5 7.6-7.3 2.7-1.7 5.9-3.6 7.1-4.1 1.3-0.6 4.8-1 7.8-1zm-6.9 7.3c-1.1-0.3-2.5 0.3-3.7 1.5-1.6 1.7-1.7 2.3-0.6 3.6 0.6 0.8 1.6 1.3 2.2 1 0.6-0.3 4.5-0.2 8.8 0.1 6.7 0.4 8.1 0.9 10.9 3.5 2.1 1.8 3.3 3.8 3.3 5.4 0 1.4-0.4 2.3-1 2-0.6-0.3-1 2.8-1 8.2 0 5.5 0.4 9.5 1.2 10.6 0.7 1 2 1.6 2.8 1.3 0.8-0.3 2.5-2.7 3.8-5.3 1.3-2.6 2.1-5.4 1.8-6.1-0.3-0.6 0-2.1 0.7-3.2 1-1.6 0.9-2.9-0.5-7.5-1-3-2.2-5.5-2.8-5.5-0.6 0-0.8-0.5-0.5-1 0.3-0.5-0.7-1.9-2.3-3-1.5-1.1-3.4-2.5-4.2-3.2-0.8-0.7-2.6-1.8-4-2.5-1.4-0.7-4.9-1.3-7.8-1.3-2.8 0-5.2 0.5-5.2 1 0 0.5-0.8 0.7-1.9 0.4zm-12.6 10.6c-0.8 0-1.7 1-2 2.2-0.2 1.3-0.2 4.1 0 6.3 0.3 2.2 0.7 6.2 1 9 0.3 2.7 1.1 5.7 1.9 6.5 0.8 0.8 2.1 1.2 2.8 0.9 0.7-0.3 1.7-2.6 2.1-5 0.5-2.4 1.1-6.4 1.3-8.9 0.3-2.5 0-5-0.6-5.5-0.6-0.5-1-2.8-0.9-5 0.2-3-0.2-4.1-1.4-4.3-1-0.2-1.9 0.4-2.2 1.7-0.3 1.2-1.2 2.1-2 2.1zm13.5 4.7c0 0.5 0.4 1.3 0.8 1.9 0.4 0.6 1.7 1.4 2.9 1.8 1.3 0.3 2.5 0.1 2.8-0.4 0.3-0.5 1.4-0.8 2.5-0.5 1.6 0.4 2 0 2.2-2.4 0.1-2.5-0.3-3.1-3.3-4-1.9-0.6-3.5-1.1-3.7-1.1-0.1 0-1.1 0.9-2.2 2-1.1 1.1-2 2.3-2 2.7zm0.5 13.3c-0.2 0.8-0.7 4-1.1 7-0.5 4.2-0.3 5.7 0.7 6.4 0.8 0.6 3.6 1.1 6.4 1.2 2.7 0.1 5.8-0.2 6.8-0.7 0.9-0.5 1.7-1.7 1.7-2.7 0.1-0.9-0.9-2.6-2-3.7-1.4-1.3-2.1-3.2-2.1-5.4 0-2.1-0.6-3.8-1.7-4.6-1.3-0.9-2.5-0.9-5-0.1-1.8 0.6-3.5 1.8-3.7 2.6z"/>
		<path id="Path 28" class="s0" d="m2462.3 563.6c0.8 0.5 0.6 1.1-0.8 2.1-1.1 0.8-2.8 1.9-3.8 2.4-1.4 0.7-1.6 0.5-1.2-1.1 0.3-1.1 1-1.8 1.7-1.4 0.7 0.3 1.7-0.2 2.1-1.1 0.5-0.9 1.3-1.3 2-0.9zm-26.7-0.1c1.3 1.4 3.1 2.3 3.9 2 0.9-0.3 1.5 0.1 1.5 1 0 0.8 0.8 1.9 1.7 2.5 1 0.5 1.3 1 0.8 1-0.6 0-2.6-0.6-4.5-1.4-1.9-0.7-4.3-2.5-5.3-4-0.9-1.4-1.4-2.8-1.1-3.1 0.4-0.2 1.7 0.7 3 2z"/>
		<path id="Path 29" class="s1" d="m2446.6 550.3c1.2 0 2.2 0.3 2.3 0.8 0 0.5-0.5 1-1.1 1-0.7 0.1-2.3 0.2-3.5 0.3-1.3 0-2.4-0.2-2.5-0.6-0.1-0.3 0.5-0.8 1.3-1.1 0.7-0.2 2.4-0.4 3.5-0.4zm24.4 0c0.7 1.1 0.7 2.3 0 3.5-0.5 0.9-0.7 1.9-0.4 2.2 0.2 0.3-0.3 1.2-1.3 2-1.5 1.4-1.6 1.3-0.8-0.5 0.4-1.1 1-3.2 1.2-4.7 0.1-1.6 0.3-3.1 0.3-3.5 0-0.5 0.5 0 1 1zm-34.8-0.8c0.5 0.3 1 2.2 0.9 4.1-0.1 1.9 0.5 4.3 1.2 5.3 1.1 1.8 1.3 1.8 2.5 0.3 1.2-1.5 1.3-1.2 0.7 1.8-0.3 1.9-1.1 3.8-1.8 4.2-0.7 0.4-2 0.2-2.9-0.3-1-0.5-2.1-1.9-2.4-3.1-0.3-1.3-0.2-4.1 0.2-6.3 0.4-2.2 0.7-4.6 0.6-5.4 0-0.7 0.4-1 1-0.6zm31.8-13l2.1 2.5c1.1 1.4 2 3.5 1.9 4.8 0 1.2-0.2 2.2-0.5 2.2-0.3 0-1.2-2.1-2-4.7z"/>
		<path id="Path 30" class="s2" d="m2446.3 534c6.4-0.1 8.7 0.3 10.5 1.7 1.5 1.1 2.1 2.4 1.8 3.5-0.5 1.6-0.9 1.6-4.4-0.7-2.4-1.6-5.1-2.5-7.7-2.5-3.9 0-4 0-4.8 4.2-0.4 2.4-0.4 4.5-0.1 4.8 0.3 0.3 3.7 0.5 7.5 0.5 5.1 0 7.2-0.4 7.9-1.5 0.5-0.8 1.3-1.1 1.7-0.7 0.4 0.4 0.2 1.7-0.5 2.7-0.9 1.5-0.9 2.9-0.1 5.8 0.6 2 0.9 5.1 0.6 6.7-0.3 2.4-0.4 2.2-0.6-1.3 0-2.3-0.4-4.1-0.9-4-0.4 0.1-1.7-0.3-3-1-1.2-0.7-3.9-1.4-6-1.6-2-0.2-4.3-0.2-5 0-0.6 0.2-1.2 1.9-1.2 3.6 0 1.8-0.6 4.1-1.3 5-1.1 1.6-1.3 1.6-2.4-0.5-0.7-1.2-1.3-4.7-1.3-7.7-0.1-3-0.2-7.7-0.2-10.4-0.1-2.7 0.2-5.2 0.6-5.7 0.4-0.5 4.4-0.9 8.9-0.9z"/>
		<path id="Path 31" class="s1" d="m2442.2 532.4c3.5 0.2 7.9 0.4 9.8 0.4 2.4 0.1 4.6 1.2 6.8 3.2 1.9 1.8 3.2 4 3.2 5.5 0 1.4-0.4 2.3-1 2-0.6-0.3-0.9 3.6-0.7 11 0.1 6.3 0.4 11.5 0.7 11.5 0.3 0 2-1.4 3.8-3.2 1.8-1.8 3.3-2.8 3.3-2.3 0 0.5-1.3 2.1-2.8 3.5-1.6 1.4-4.4 3.7-6.3 5-3 2.1-4.5 2.5-11 2.3-5.7-0.1-8.5-0.7-11.5-2.3-2.2-1.3-4.6-3-5.3-3.9-0.7-0.9-1.7-2.4-2.2-3.3-1-1.7-0.9-1.7 1.6 0 1.5 0.9 3 2.5 3.5 3.5 0.5 0.9 2.4 2.3 4.2 3.1 1.7 0.7 6.1 1.3 9.7 1.3 3.6 0 7.7-0.6 12-2.7l-3.6-3.2c-3.3-3-3.6-3.7-3-7 0.5-3.3 0.3-3.9-1.6-4.7-1.4-0.6-1.7-1-0.8-1 0.8-0.1 2.4 0.5 3.5 1.4 1.1 0.8 2.4 1.1 2.8 0.7 0.4-0.4 0.8 1.3 0.9 3.8 0.1 3.4 0.2 3.7 0.5 1.5 0.3-1.6 0-4.7-0.6-6.7-0.8-2.9-0.8-4.3 0.2-5.8 0.7-1.1 0.8-2.2 0.3-2.7-0.5-0.4-1-0.2-1.2 0.5-0.2 0.6-1.3 1.2-2.4 1.2-1.6 0-1.9-0.6-1.7-2.9 0.2-2.6-0.2-3-3.5-4-2.6-0.7-4.4-0.8-5.8-0.1-1.6 0.8-2 0.7-2-0.5 0-1.1 1.1-1.5 4.3-1.5 2.9 0 5.5 0.8 8 2.5 3.4 2.3 3.8 2.3 4.3 0.8 0.3-1.2-0.3-2.5-1.8-3.6-1.9-1.5-3.8-1.8-19.3-1.2l-0.1 4c-0.1 2.2-0.2 4.9-0.3 6-0.1 1.6-0.4 1.5-1.6-1-0.9-1.6-1.6-4-1.6-5.3-0.1-1.3 0.4-3.2 1-4.2 0.9-1.6 2-1.8 7.3-1.6z"/>
		<path id="Path 32" class="s0" d="m2436.2 530.2c0.4 0.7 0.3 1.8-0.3 2.3-0.6 0.5-2.1 1-6 1l2.8-2.3c2.1-1.8 2.9-2.1 3.5-1z"/>
		<path id="Path 33" class="s1" d="m2456.5 525.7l3.5 1.9c1.9 1 4.3 2.6 5.3 3.4 1 0.8 1.8 2 1.8 2.5 0 0.5-1.1 0-2.3-1.2-1.3-1.3-2.6-2.3-3-2.3-0.5 0-1.8-1-3-2.1zm-18.2 0.3c0.6 0 0.2 0.8-1.1 1.7-1.2 1-3.3 2.5-4.7 3.5-1.4 1-2.6 2.6-2.6 3.7 0 1.2-0.6 2-1.5 2-0.8 0-1.5 0.6-1.6 1.3-0.1 0.7-0.2 4.7-0.3 9 0 4.2 0.2 7.7 0.4 7.7 0.3 0 0.7 0.9 0.8 2 0.2 1.7-0.1 1.9-1.8 1-1.7-0.8-1.9-1.9-1.8-8.7 0-5 0.6-8.8 1.7-10.8 0.8-1.6 1.6-3.3 1.6-3.7 0-0.4 2.2-2.5 4.9-4.7 2.7-2.3 5.4-4 6-4z"/>
		<path id="Path 34" fill-rule="evenodd" class="s2" d="m1866.1 519c27.5 0 50.1 0.3 50.3 0.8 0.2 0.4 2.4 0.8 4.8 1 2.3 0.1 4.6 0.8 4.9 1.5 0.4 0.6 1.2 0.9 1.8 0.4 0.6-0.4 1.3-0.2 1.6 0.3 0.3 0.5 1.4 0.8 2.5 0.5 1.1-0.3 2 0 2 0.5 0 0.5 0.6 0.8 1.3 0.6 0.6-0.3 1.8 0.1 2.5 0.7 0.7 0.7 1.2 0.9 1.2 0.5 0-0.5 0.8-0.4 1.8 0.1 0.9 0.5 3.1 1.2 4.7 1.5 1.7 0.3 6.8 2.6 11.5 5.1 4.7 2.5 9.3 4.7 10.3 5 0.9 0.3 1.7 1 1.7 1.5 0 0.5 0.4 0.8 1 0.5 0.6-0.3 1.3 0.1 1.8 0.8 0.4 0.7 2.5 2.4 4.6 3.8 2.2 1.3 4.5 3.3 5.3 4.4 0.7 1.1 1.3 1.5 1.3 1 0-0.5 2.2 1.3 5 4 2.8 2.8 5 5.3 5 5.8 0 0.4 1.7 2.4 3.8 4.5 2 2.1 6 7.8 8.9 12.7 2.8 5 6.1 11.4 7.2 14.3 1.2 2.8 1.8 5.4 1.4 5.7-0.3 0.3-0.1 0.5 0.5 0.5 0.7 0 1 0.7 0.7 1.5-0.3 0.8-0.1 1.5 0.5 1.5 0.6 0 0.9 0.8 0.9 1.8-0.1 0.9-0.1 2 0 2.5 0 0.4 0.1 1 0 1.5 0 0.4 0.4 0.9 1.1 1.2 0.6 0.3 1.2 2.4 1.3 4.7 0.1 2.4 0.4 4.3 0.7 4.3 0.3 0 0.8 2.8 1.1 6.2 0.4 3.5 1.1 7.2 1.5 8.3 0.7 1.6 0.6 1.8-0.6 1-1.2-0.8-1.3-0.6-0.7 1 0.4 1.1 1 4.2 1.3 7 0.3 2.7 0.2 7.5-0.3 10.6-0.5 3.5-0.4 5.4 0.1 5 0.6-0.3 0.7 0.2 0.3 1.4-0.4 1.1-1.1 5.6-1.7 10-0.6 4.4-2 10.9-3.1 14.5-1.1 3.6-2.6 7.1-3.2 7.8-0.7 0.7-0.9 1.3-0.4 1.2 0.4 0 0.2 1-0.5 2.3-0.6 1.2-1.3 3.1-1.4 4.2-0.1 1.1-2.4 5.8-5.1 10.5-2.7 4.7-6.1 10.1-7.4 12-1.3 2-6.6 7.7-11.6 12.8-5.1 5.1-9.3 8.9-9.3 8.4 0-0.4-0.6 0.2-1.5 1.3-0.8 1.1-1.5 1.7-1.5 1.2 0-0.4-1 0.3-2.2 1.6-1.3 1.3-5.7 4.1-9.8 6.4-4.1 2.3-12.2 6-18 8.3-5.8 2.2-12.5 4.2-15 4.4-2.5 0.2-5.7 0.9-7.2 1.5-1.6 0.6-3.2 0.9-3.8 0.6-0.6-0.3-2.9 0.2-5.2 1-3.6 1.3-11.8 1.5-51.5 1.5-46 0-47.4-0.1-49.3-2-2-2-2-3.2-1.7-122.4 0.2-116.6 0.3-120.5 2.1-122.5 1.9-2.1 2.3-2.1 51.7-2.1zm-6.1 123.5c0 76.2 0 77.5 2 79.5 1.9 1.9 3.3 2 23.3 1.9 11.6 0 23.9-0.4 27.2-0.8 3.3-0.4 6.1-1.3 6.3-1.9 0.1-0.7 0.6-1 1.2-0.7 0.6 0.3 2.5 0 4.3-0.7 1.7-0.6 3.7-1.9 4.4-2.7 0.6-0.9 1.5-1.3 2-0.9 0.4 0.4 1.7 0.2 2.8-0.4 1.1-0.6 4.3-2.8 7-4.9 2.8-2.1 7.1-5.7 9.6-8.1 2.6-2.4 6.5-7 8.7-10.3 2.2-3.3 5.1-8.9 6.5-12.5 1.4-3.6 2.4-6.7 2.2-7-0.2-0.3 0.5-3 1.7-6 1.4-3.8 2.3-8.9 2.7-16.6 0.4-8.2 0.3-11.6-0.6-12.8-1-1.3-1-1.9 0-3.2 1-1.3 0.8-3.3-0.8-10.5-1.1-4.9-2.3-8.9-2.7-8.9-0.5 0-0.6-0.5-0.3-1 0.3-0.5-0.3-3-1.2-5.5-1-2.5-2.1-4.5-2.5-4.5-0.5 0-0.6-0.5-0.3-1 0.3-0.5 0.1-1-0.5-1-0.6 0-1.3-1-1.6-2.2-0.4-1.3-1.5-3.5-2.5-5-1.1-1.6-1.6-2.8-1.1-2.8 0.4 0.1-0.5-0.8-2-2-1.6-1.1-2.8-2.6-2.8-3.2 0-0.7-1.9-2.9-4.2-4.8-2.4-1.9-4.9-4.2-5.5-5.2-0.7-1-1.7-1.8-2.3-1.8-0.6 0-3.4-1.5-6.2-3.3-2.9-1.8-8.4-4.3-12.2-5.6-3.8-1.3-7.7-2-8.7-1.7-1.1 0.3-2.2 0.1-2.6-0.5-0.5-0.8-2.2-0.9-4.5-0.5-2.2 0.3-4 0.2-4.3-0.4-0.3-0.6-8.3-1-20.9-1-17.2 0-20.5 0.2-21 1.5-0.3 0.8-0.6 36.4-0.6 79z"/>
		<path id="Path 35" class="s1" d="m1934.9 715c0.2 0-0.4 0.8-1.5 1.9-1 1-2.1 1.7-2.4 1.5-0.3-0.2-1.1 0.2-1.9 0.9-1.1 1-1.3 0.8-1-0.8 0.3-1.3 1.3-2 2.8-2.1 1.3-0.1 2.6-0.4 2.9-0.8 0.3-0.3 0.8-0.6 1.1-0.6zm23.7-22c0.2 0 0.1 0.6-0.3 1.3-0.3 0.6-1.6 2.6-2.9 4.2-1.3 1.6-2 3.4-1.6 3.9 0.4 0.5 0.1 0.6-0.6 0.3-0.7-0.4-1.2-0.1-1.2 0.8 0 0.8-0.6 1.4-1.3 1.3-0.6-0.2-1.1 0.3-1 0.9 0.2 0.7-0.4 1.3-1.2 1.3-0.8 0-2.1 0.9-2.8 2-0.6 1.1-1.8 2-2.5 2-0.6 0-1.2 0.3-1.2 0.8 0 0.4-1.3 1.3-3 1.9-1.6 0.7-2.8 0.9-2.6 0.5 0.3-0.5 2.4-2.2 4.7-3.8 2.4-1.6 6.4-4.9 8.9-7.4 2.6-2.5 5.5-5.7 6.4-7.3 1-1.5 2-2.7 2.2-2.7zm9.5-18c0.6 0 0.6 0.5 0.1 1.3-0.5 0.6-2 3.8-3.3 7.1-1.3 3.2-3 6.4-3.8 7-0.7 0.6-0.5-0.5 0.7-2.4 1.1-1.9 2.7-5.6 3.7-8.3 0.9-2.6 2.1-4.7 2.6-4.7zm-24.1-98.8c1.2 0.7 4.3 3.4 7 6 2.8 2.7 5 5.3 5 5.8 0 0.5 0.3 1 0.7 1 0.5 0 2.1 2.4 3.8 5.5 1.7 3.1 3.3 5.6 3.7 5.5 0.5 0 0.7 0.3 0.6 0.7-0.1 0.5 0.4 2 1 3.5 0.7 1.6 1.2 3.4 1.1 4 0 0.7-0.5 0.1-1-1.5-0.5-1.5-1.3-2.7-1.9-2.7-0.6 0-0.8-0.5-0.5-1 0.3-0.5 0.1-1-0.5-1-0.6 0-0.8-0.3-0.5-0.8 0.2-0.4-0.9-2.6-2.5-5-1.7-2.3-2.7-4.2-2.3-4.2 0.5 0.1-0.4-0.8-2-2-1.5-1.1-2.7-2.7-2.7-3.5 0-0.8-1.6-2.9-3.5-4.5-1.9-1.6-3.8-3-4.3-3-0.4 0-1.3-0.9-2-2-1.1-1.9-1.1-2 0.8-0.8zm-84.5-14.7l0.5 162.5 48.5 0.4-23.5 0.6c-12.9 0.3-24.1 0.4-24.8 0.2-0.9-0.1-1.1-17.2-1-82zm48.4 0.2c2.6 0.2 5.8 0.7 9.7 1.6l-2.5 0.7c-1.4 0.4-3.1 0.4-3.8-0.1-0.7-0.5-2.8-0.6-4.7-0.4-2 0.3-3.8 0.2-4-0.2-0.3-0.4-0.2-1.1 0.1-1.5 0.3-0.4 2.7-0.4 5.2-0.1z"/>
		<path id="Path 36" fill-rule="evenodd" class="s2" d="m1588.3 519h54.8c49 0 55.3 0.2 58.7 1.7 2 0.9 4 1.8 4.5 2 0.4 0.1 0.8 0.3 1 0.4 0.1 0 1.3 0.2 2.7 0.3 1.4 0.2 4.6 1.5 7.3 3 2.6 1.4 4.7 2.4 4.7 2.1 0-0.3 1.2 0.3 2.8 1.2 1.5 0.9 5.5 4 8.9 6.7 3.5 2.8 6.2 5.2 6 5.4-0.1 0.1 1.5 2.1 3.6 4.5 2.2 2.3 4.6 5.6 5.5 7.2 0.9 1.6 1.7 3.2 1.7 3.5 0 0.3 0.8 1.9 1.8 3.5 0.9 1.6 1.4 3.3 1 3.7-0.3 0.5-0.1 0.8 0.5 0.8 0.7 0 1.5 1.7 1.8 3.7 0.4 2.1 0.8 4.5 1 5.3 0.2 0.8 1.2 4.5 2.1 8.2 1.6 6 1.6 6.9 0.3 9.2-1.2 2-1.2 2.8-0.3 3.8 1 1 1 3 0.4 7.8-0.5 3.6-1.6 9-2.4 12-0.8 3-1.9 6.4-2.5 7.5-0.5 1.1-1.5 3.2-2.1 4.8-0.6 1.5-1 2.8-0.9 3 0.1 0.1-1.7 2.9-3.9 6.2-2.3 3.3-6.2 7.9-8.7 10.3-2.5 2.3-4.8 4.2-5.1 4.2-0.3 0-1.4 1.1-2.5 2.5-1.1 1.4-2.4 2.3-3 2-0.6-0.3-1 0-1 0.5 0 0.5-2.7 2-6 3.3-3.4 1.2-6.1 2.5-6 3 0 0.4-1.5 1.2-3.2 1.7-1.8 0.6-3.7 1-4.3 0.9-0.6-0.1-1.8 0.1-2.7 0.4-1 0.4-1.8 1.5-1.8 2.5 0 0.9 1.2 3.2 2.5 5 1.4 1.7 2.5 3.4 2.5 3.7 0 0.3 1 1.4 2.3 2.6 1.2 1.1 1.5 1.8 0.7 1.4-0.8-0.4-0.4 0.3 1 1.4 1.4 1.1 2.2 2.1 1.8 2.1-0.5 0-0.1 0.8 0.9 1.8 0.9 0.9 4.1 5.1 7.1 9.2 3.1 4.1 6.7 9.1 8.1 11 1.4 1.9 2.4 3.7 2.3 4-0.2 0.3 0.3 0.8 1.2 1.3 0.9 0.4 1.4 1.2 1.1 1.7-0.3 0.5 0.4 1.5 1.5 2 1.1 0.5 1.8 1.5 1.5 2-0.3 0.5-0.1 1 0.5 1 0.6 0 3.1 3.2 5.8 7.2 2.6 4 5.8 8.5 7.2 10.1 1.4 1.6 2.4 3.1 2.3 3.3-0.2 0.2 0.5 1.1 1.5 1.9 0.9 0.8 1.5 1.5 1.2 1.5-0.3 0 1 1.6 2.8 3.5 1.7 1.9 3 3.7 2.7 4-0.3 0.3 0.4 1.5 1.6 2.8 1.1 1.2 3.3 4 4.8 6.2 1.5 2.2 3.1 4.8 3.4 5.8 0.5 1.1 0.1 2-1.3 2.7-1.2 0.6-12.1 1-26.2 1-17.3 0-25-0.4-26.8-1.3-1.3-0.6-3.1-2.6-4-4.2-0.8-1.6-2.1-3.3-2.7-3.7-0.7-0.5-1.1-1.3-0.8-1.8 0.3-0.5-0.2-1.2-1-1.5-0.8-0.3-1.3-1-1-1.5 0.3-0.5-0.2-1.2-1-1.5-0.8-0.3-1.3-1-1-1.5 0.3-0.5-0.1-1.3-0.8-1.7-0.7-0.5-2.6-2.5-4.3-4.6-1.6-2.1-2.5-3.8-1.9-3.7 0.6 0 0.1-0.6-1-1.5-1.1-0.8-1.6-1.5-1-1.5 0.6 0 0.6-0.3-0.1-0.8-0.5-0.4-2.7-2.9-4.7-5.7-2.1-2.7-3.7-5.5-3.7-6 0-0.5-1.2-2.4-2.6-4-1.4-1.6-4.1-5.4-6-8.2-1.9-2.9-3.8-5.5-4.4-5.8-0.6-0.3-0.8-1-0.5-1.5 0.3-0.5-0.2-1.2-1-1.5-0.8-0.3-1.3-1-1-1.5 0.3-0.5 0.1-1-0.5-1-0.6 0-1-0.5-1-1 0-0.5-0.9-2-2.1-3.2-1.1-1.3-2.8-3.7-3.7-5.3-0.8-1.6-2.4-3.9-3.4-5-1-1.1-1.8-2.6-1.8-3.2 0-0.7-0.4-1.4-0.8-1.5-0.5-0.2-2.8-3.2-5.2-6.8-2.4-3.6-4.8-6.8-5.4-7.1-0.6-0.4-2.3-0.6-3.8-0.5-1.6 0-4.8 0.2-11.8 0.6v46c0 30.5-0.4 46.9-1.1 48.8-0.6 1.5-1.6 3-2.2 3.4-0.7 0.4-10.1 0.8-20.9 0.8-16.3 0-20.1-0.3-21.3-1.5-1.3-1.3-1.5-16.2-1.5-122 0-87.3 0.3-121.2 1.1-123zm44.8 75c0 17.3 0.4 29.8 1 31 0.9 1.9 2 2 21.8 2 15.3 0 21.1-0.3 21.9-1.2 0.9-1 1.5-1 2.5-0.1 1 0.9 2.2 0.9 5 0 2.1-0.7 3.8-1.5 3.8-1.9 0-0.5 0.6-0.6 1.5-0.3 0.8 0.3 1.5 0 1.5-0.5 0-0.5 0.4-0.8 1-0.5 0.5 0.3 3-1.1 5.5-3 2.4-1.9 4.5-4 4.5-4.5 0-0.5 1-2.4 2.2-4.1 2.1-2.8 2.3-4.2 2.3-15.9 0-12-0.2-13-2.5-16.3-1.4-1.9-4.2-5.3-6.3-7.6-2.4-2.7-5.8-4.9-9.5-6.3-5.2-2-7.9-2.2-30.3-2.6-21.7-0.3-24.7-0.2-25.3 1.2-0.3 0.9-0.6 14.6-0.6 30.6z"/>
		<path id="Path 37" class="s1" d="m1692.7 623c0.2 0.8 0.3 1.6 0.1 1.8-0.2 0.1-1 0.3-1.8 0.5-0.8 0.1-1.9 0.6-2.5 0.9-0.6 0.4-1.7 0.3-2.5-0.3-1.2-0.7-1-0.9 0.7-0.9 1.3 0 2.3-0.5 2.3-1 0-0.5 0.7-0.8 1.5-0.5 0.8 0.3 1.5-0.1 1.6-0.8 0-0.7 0.3-0.6 0.6 0.3zm16.1-36c0.2 1.4 0.8 3 1.3 3.5 0.5 0.5 0.9 2.9 0.9 5.3 0 2.4-0.4 4-1 3.7-0.6-0.3-1 0.7-1 2.3 0 1.5-0.4 3.2-0.8 3.9-0.4 0.6-0.8-1.4-0.9-4.5-0.1-3.2 0.1-8.2 0.4-11.2 0.4-3.4 0.8-4.5 1.1-3zm-8.2-16.3c1.8 1.5 3.3 3.4 3.3 4.1 0.1 0.6 0.5 1.3 1 1.5 0.4 0.1 1.2 1.3 1.6 2.7 0.5 1.7-0.5 0.9-3.4-2.7-2.2-2.9-4.5-5.5-5.1-5.8-0.6-0.3-0.9-1-0.8-1.6 0.1-0.6 1.6 0.2 3.4 1.8z"/>
		<path id="Path 38" class="s2" d="m1064 519l3.1 3.3c1.7 1.7 3.8 4.6 4.6 6.2 0.9 1.6 2.2 3.3 2.9 3.8 0.8 0.4 1.2 1.2 0.9 1.7-0.3 0.5-0.2 1 0.3 1 0.4-0.1 3.4 3.9 6.7 8.7 3.3 4.8 6.3 8.9 6.8 9.1 0.4 0.1 0.7 0.9 0.7 1.7 0 0.8 0.5 1.5 1 1.5 0.5 0 1 0.7 1 1.5 0 0.8 0.5 1.5 1 1.5 0.5 0 1 0.7 1 1.5 0 0.8 0.9 2 2 2.5 1.1 0.5 1.8 1.5 1.5 2-0.3 0.5 0.2 1.2 1 1.5 0.8 0.3 1.3 1 1 1.5-0.3 0.5-0.2 1 0.3 1 0.4 0 2.3 2.1 4.1 4.7 1.9 2.7 5 6.9 6.8 9.6 1.8 2.6 3.3 5.2 3.3 5.7 0 0.5 0.3 1.1 0.8 1.3 0.4 0.1 1.9 1.8 3.3 3.7 1.4 1.9 2.6 4 2.7 4.5 0 0.5 0.5 1.2 1 1.5 0.5 0.3 3.9 4.7 7.6 9.8 3.6 5 6.6 9.4 6.6 9.7 0 0.3 0.7 1.3 1.5 2.3 0.9 0.9 3.1 3.8 5 6.5 1.9 2.6 3.2 4.7 2.8 4.7-0.5 0 0.1 0.6 1.2 1.5 1.1 0.8 1.5 1.5 1 1.5-0.6 0-0.6 0.3 0 0.8 0.6 0.4 2.9 2.9 5 5.5 2.2 2.6 3.7 4.8 3.3 4.7-0.5 0 0.3 1.2 1.7 2.8 1.4 1.5 2.5 3.2 2.5 3.7 0 0.5 1.7 3 3.9 5.5 2.2 2.5 3.7 4.8 3.5 5.3-0.2 0.4 0.4 0.9 1.4 1.2 0.9 0.3 1.4 0.7 1 1-0.5 0.3-0.1 1.3 0.8 2.3 1 0.9 4.2 5.2 7.3 9.5 3.1 4.3 5.8 7.8 6.1 7.7 0.3 0 0.8-1.4 1.3-3.2 0.4-1.8 0.7-38.7 0.7-82 0-43.4 0.2-79.5 0.5-80.3 0.4-1.3 3.8-1.5 22-1.5 20.5 0 21.5 0.1 22.5 2 0.7 1.3 1 44.3 1 123 0 108.7-0.2 121.2-1.6 122.5-1.3 1.2-5.1 1.5-20.7 1.5-17.8 0.1-19.4-0.1-21.9-2-1.6-1.1-2.6-2.5-2.3-3 0.3-0.5 0-1-0.5-1-0.5 0-3.1-3.2-5.7-7.1-2.7-3.9-5.7-8.5-6.8-10.3-1.1-1.7-2.8-4-3.8-5.1-1-1.1-2.7-3.2-3.8-4.8-1-1.5-1.7-2.7-1.4-2.7 0.3 0-0.8-1.5-2.5-3.3-1.6-1.7-3-3.5-3-4 0-0.4-1.8-3-4-5.7-2.2-2.8-3.7-5.2-3.3-5.5 0.3-0.3 0.1-0.5-0.5-0.5-0.7 0-1.2-0.7-1.2-1.5 0-0.8-0.5-1.5-1-1.5-0.5 0-1-0.7-1-1.5 0-0.8-0.5-1.5-1-1.5-0.5 0-1.8-1.6-2.8-3.5-0.9-2-1.9-3.5-2.2-3.5-0.3 0.1-1.8-1.9-3.5-4.2-1.6-2.4-4.8-6.8-7-9.8-2.2-3-3.9-5.8-3.7-6.3 0.1-0.4-0.3-0.7-0.8-0.7-0.5 0-1-0.7-1-1.5 0-0.8-0.3-1.5-0.7-1.5-0.5 0-1.7-1.4-2.7-3.2-1.1-1.8-2.7-3.8-3.5-4.5-0.9-0.7-1.3-1.3-0.8-1.3 0.4 0-0.4-1.2-1.8-2.8-1.4-1.5-2.6-3.3-2.5-4 0-0.6-0.4-1.3-1-1.5-0.5-0.1-2.7-2.7-5-5.7-2.2-3-4-6.1-4-6.8 0-0.6-0.5-1.2-1-1.2-0.5 0-1.8-1.6-2.7-3.5-1-2-2.1-3.5-2.5-3.5-0.5 0-0.8-0.7-0.8-1.5 0-0.8-0.5-1.5-1-1.5-0.5 0-3.8-4.2-7.2-9.3-3.4-5-8.8-12.7-12-16.9-3.2-4.3-6.4-7.8-7-7.8-1 0-1.2 16.8-1 81.5 0.2 80.3 0.2 81.5-1.8 83.5-1.9 1.9-3.3 2-21.5 2-16 0-19.8-0.3-21-1.5-1.3-1.3-1.5-16.3-1.6-122.3-0.1-110.6 0-120.9 1.6-123 1.6-2.1 2.1-2.2 40.5-2.2z"/>
		<path id="Path 39" class="s1" d="m2093 518c19.1-0.1 20.7 0.1 26 4v120.3c0 94.6-0.2 120.8-1.2 122.9-0.9 1.7-2.4 2.9-4.3 3.2-1.7 0.4-11.9 0.6-42.5 0.6l-1.5-2.5c-1.3-2.2-1.5-17.6-1.5-122.5 0-88.4 0.3-120.6 1.1-122.3 0.7-1.2 1.7-2.5 2.3-2.9 0.6-0.4 10.3-0.8 21.6-0.8z"/>
		<path id="Path 40" class="s2" d="m2092.9 519c10.8 0 20.3 0.5 21.1 1 1.3 0.8 1.5 15.7 1.7 122.5 0.3 120.3 0.3 121.5-1.7 123.5-1.9 1.9-3.3 2-20.5 2-10.3 0-19.4-0.4-20.5-1-2-1-2-2.1-2.2-123.3-0.2-103.8 0-122.5 1.2-123.5 1-0.8 7.2-1.2 20.9-1.2z"/>
		<path id="Path 41" class="s1" d="m1913.5 518.5l-48.3 0.2c-44.3 0.3-48.5 0.5-50.3 2.1-1.1 0.9-2 2.4-2 3.2q-0.1 1.4-0.9-0.5c-0.6-1.5-0.3-2.5 1.2-3.8 1.9-1.6 5.6-1.7 100.3-1.2zm-326.4-0.5l107.4 0.5-106.5 0.5-0.6 2.2c-0.3 1.3-0.8 2.1-1 1.8-0.3-0.3-0.3-1.5 0.1-2.8zm-355.1 0v2.3c-0.1 2-0.2 2.1-1 0.5-0.9-1.6-3.1-1.8-22.5-1.8-11.8 0-21.6 0.2-21.7 0.3-0.2 0.1-0.5 37.5-0.8 82.9-0.3 45.5-0.9 83.1-1.3 83.5-0.4 0.5-1.3 0.2-2-0.5-0.7-0.8-0.8-1.2-0.2-0.9 0.6 0.4 0.9-26.9 0.7-81.1-0.2-76.4-0.1-81.8 1.5-83.3 1.6-1.5 4.6-1.7 47.3-1.9zm-188.2 0.1c14.6 0 21.2 0.4 22.4 1.2 1 0.7 1.5 1.6 1.3 2-0.3 0.4-1.2 0.1-2-0.8-1.2-1.2-5-1.5-21-1.5-19.1 0-19.5 0.1-21 2.3-1.3 2-1.5 17-1.5 123 0 106 0.2 120.9 1.5 122.2 1.2 1.3 5 1.5 21 1.5 18.1 0 19.6-0.1 21.5-2 2-1.9 2-3.1 1.7-83.5-0.1-53.8 0.1-81.4 0.8-81.4 0.5 0 1.8 0.8 2.8 1.7 0.9 1 1.7 2.2 1.7 2.7-0.1 0.6-0.5 0.3-1-0.7-0.6-1-1.5-1.5-2-1.3-0.7 0.4-1 28.7-1 82 0 80.5 0 81.6-2 82.5-1.2 0.6-10.7 1-22.3 1-11.1 0-20.9-0.4-21.7-0.9-1.3-0.9-1.6-16.1-1.9-124.1-0.4-99.6-0.2-123.5 0.8-124.6 1-1.1 5.8-1.3 21.9-1.3zm378.7-4.9l7.5 0.5c4.1 0.2 7.7 0.6 8 0.9 0.3 0.3 0 0.9-0.5 1.4-0.6 0.5-3.8 0.1-8-0.9z"/>
		<path id="Path 42" fill-rule="evenodd" class="s2" d="m2301 512.7c3 0.3 8.2 0.7 11.5 0.9 3.3 0.1 8 0.5 10.5 0.9 2.5 0.4 4.9 1 5.5 1.3 0.6 0.4 2.9 0.7 5.3 0.7 2.3 0 4.6 0.5 5 1 0.4 0.6 2 1.2 3.7 1.3 1.7 0.1 5.8 1.2 9.3 2.5 3.4 1.2 6.2 2.5 6.2 2.9 0 0.5 0.7 0.6 1.5 0.3 0.8-0.3 1.5 0.1 1.5 0.7 0 0.7 0.3 1 0.7 0.6 0.5-0.4 4.6 1.3 9.3 3.7 4.7 2.5 10.2 5.8 12.2 7.5 2.1 1.7 3.8 3.9 3.8 5 0 1.1-3 6.6-6.6 12.2-3.7 5.7-7.6 11.8-8.8 13.5-1.1 1.8-2.4 3.3-2.9 3.3-0.4 0-0.7 0.7-0.7 1.5 0 0.8-0.3 1.5-0.8 1.5-0.4 0-1.4 1.1-2.2 2.5-0.8 1.4-1.9 2.7-2.5 3-0.6 0.2-3.3-0.8-6-2.2-2.8-1.4-5.9-3.4-7-4.4-1.1-1.1-2.7-2.1-3.5-2.2-0.8-0.2-3.2-0.8-5.3-1.5-2-0.7-3.7-1.7-3.7-2.2 0-0.5-0.4-0.8-1-0.5-0.6 0.3-1.2 0-1.5-0.5-0.3-0.5-1.2-0.8-2-0.5-0.8 0.3-1.5 0-1.5-0.5 0-0.5-0.4-0.8-1-0.5-0.6 0.3-1.6 0.1-2.3-0.4-0.6-0.5-1.6-1-2.2-1.1-0.6-0.2-1.4-0.4-2-0.5-0.6-0.2-4.8-0.7-9.5-1.1-4.7-0.4-11.4-0.7-15-0.7-3.6 0-9.9 0.3-14 0.7-4.1 0.4-9 1.4-10.8 2.2-1.7 0.8-3.6 1.2-4.2 0.9-0.6-0.3-1 0-1 0.5 0 0.5-0.7 1-1.5 1-0.8 0-3.9 1.1-6.7 2.5-2.9 1.4-6.2 3.1-7.3 3.8-1.1 0.7-3.8 2.4-6 3.8-2.2 1.5-6.9 5.8-10.5 9.7-3.6 3.8-7.1 7.7-7.7 8.6-0.7 0.9-1.1 1.6-0.8 1.6 0.3 0-0.8 2.2-2.5 5-1.7 2.7-3 5.5-3 6 0 0.5-0.4 1-1 1-0.6 0-0.8 0.7-0.5 1.5 0.3 0.8 0.1 1.5-0.5 1.5-0.6 0-0.8 0.5-0.5 1 0.3 0.5 0.1 1.2-0.5 1.5-0.6 0.3-0.8 1-0.5 1.5 0.3 0.5 0.2 1-0.2 1-0.5 0-0.8 1.7-0.8 3.8 0 2.1-0.5 4.5-1.1 5.3-0.8 0.9-1.2 7.4-1.2 18.4-0.1 9.3 0.3 17.5 0.8 18 0.5 0.5 1.3 3 1.8 5.5 0.5 2.5 1.1 5.2 1.3 6 0.2 0.8 0.6 1.7 0.9 2 0.3 0.3 1.6 3.2 2.9 6.5 1.4 3.3 2.7 6.2 3.1 6.5 0.3 0.3 1.6 2 2.8 3.7 1.2 1.8 2 3.3 1.7 3.3-0.3 0 0.5 1.2 1.8 2.6 1.2 1.4 3.7 4.1 5.5 6 1.7 1.9 3.4 3.4 3.7 3.4 0.3 0 1.1 0.5 1.8 1 0.6 0.6 3 2.2 5.2 3.6 2.2 1.5 7.8 4.5 12.5 6.7 4.7 2.2 10.1 4.2 12 4.4 1.9 0.2 3.7 0.8 4 1.3 0.3 0.5 10.1 0.9 21.8 0.9 13.5 0.1 21.2-0.3 21.2-0.9 0-0.5 0.8-1 1.8-1 0.9 0 4.9-0.9 8.7-2.2 3.8-1.2 7.4-2.1 8-1.9 0.6 0.1 1.2-0.2 1.5-0.7 0.3-0.5 3-2.1 6-3.6 3-1.6 6.8-3.5 8.5-4.5 1.7-0.9 3.1-1.9 3.3-2.4 0.1-0.4 1-0.7 2-0.7 0.9 0 2.9 1.3 4.5 2.8 1.5 1.5 2.7 3.2 2.7 3.7 0 0.5 1.8 3.4 4 6.2 2.2 2.9 3.8 5.3 3.5 5.3-0.3 0 0.4 1 1.5 2.2 1.1 1.3 2 2.9 2 3.5 0 0.7 1.3 2.8 3 4.5 1.6 1.8 2.8 3.6 2.5 4-0.3 0.5 0.2 1 1 1.3 0.8 0.3 1.3 1 1 1.5-0.3 0.5-0.1 1.2 0.5 1.5 0.6 0.3 0.7 1.4 0.3 2.7-0.5 1.2-2.6 3-4.8 4-2.2 1-6.5 3.4-9.5 5.3-3 1.9-5.7 3.3-6 3-0.3-0.3-1.1 0.1-1.8 0.8-0.7 0.6-1.3 0.7-1.2 0.2 0-0.5-0.7-0.2-1.7 0.7-1 0.9-4.7 2.7-8.3 4.1-3.6 1.3-11 3.6-16.5 5-5.5 1.3-14.2 2.8-19.3 3.1-5 0.3-10 0.9-10.9 1.3-1.1 0.5-1.5 0.4-1.1-0.2 0.4-0.6-2.2-1-6.7-1-4.3 0-7 0.4-6.7 0.9 0.4 0.6-0.9 0.7-3.3 0.3-2.2-0.4-6.6-1-9.7-1.2-3.2-0.3-5.8-0.8-5.8-1.3 0-0.4-2-0.7-4.3-0.7-2.4 0-5-0.5-5.8-1.2-0.8-0.7-2.7-1.3-4.4-1.4-1.7-0.2-3.6-0.7-4.3-1.3-0.8-0.7-1.3-0.7-1.2-0.1 0 0.5-0.6 0.3-1.5-0.5-0.9-0.8-1.6-1.2-1.5-0.8 0 0.5-3-0.4-6.7-1.8-3.8-1.4-7.6-2.8-8.5-3-1-0.2-1.8-0.9-1.8-1.4 0-0.5-0.3-0.9-0.7-0.8-0.5 0-2.3-0.5-4.1-1.3-1.8-0.8-2.9-1.7-2.6-2.2 0.4-0.4 0-0.7-0.9-0.7-0.9 0-4.3-1.7-7.4-3.9-3.2-2.1-9.9-7.9-14.8-12.8-4.9-4.9-11-11.3-13.5-14.1-2.5-2.8-7.2-10.4-10.4-16.9-3.3-6.5-5.8-12.8-5.8-14.1 0.1-1.2-0.3-2.2-1-2.2-0.6 0-0.8-0.3-0.5-0.8 0.4-0.4 0.1-1.3-0.6-2-0.6-0.7-0.8-1.3-0.2-1.3 0.6 0.1 0.4-0.3-0.3-0.7-0.8-0.4-1.6-3.1-1.8-6.2-0.3-3-0.9-6.4-1.4-7.5-0.4-1.1-1.3-4.4-1.9-7.3-0.6-2.8-1.1-5.9-1.1-6.7 0-0.8 0.4-1.3 1-1 0.6 0.3 1-0.2 1-1 0-0.8-0.4-1.5-1-1.5-0.6 0-1-4-1-10 0-5.5 0.3-10 0.8-10 0.4 0 0.8-1.1 1-2.5 0.1-1.4-0.1-2.3-0.5-2.1-0.5 0.2-0.4-3 0-7.3 0.5-4.2 1.2-7.8 1.6-8.1 0.3-0.3 0.8-2.1 1-4 0.2-1.9 0.8-3.8 1.5-4.1 0.6-0.4 0.8-1.2 0.4-1.8-0.5-0.6-0.4-1.3 0.2-1.6 0.6-0.3 0.8-1 0.5-1.5-0.3-0.5 0.4-3.4 1.6-6.3 1.1-2.8 3.7-8.6 5.7-12.6 2-4.1 4.1-8.3 4.7-9.3 0.6-1 1.3-1.8 1.8-1.8 0.4 0 0.5-0.5 0.2-1-0.3-0.5 0.2-1.2 1-1.5 0.8-0.3 1.3-1 1-1.5-0.3-0.5 0.6-1.7 2-2.5 1.4-0.8 2.3-2 2-2.5-0.3-0.5 0.6-1.8 2-2.8 1.3-0.9 2.2-1.9 1.9-2.2-0.2-0.3 3.7-4.4 8.8-9.3 5.1-4.8 9.4-8.5 9.6-8.2 0.1 0.3 1.6-0.7 3.3-2.3 1.7-1.5 7.6-5 13.2-7.9 5.6-2.9 10.5-5 11-4.8 0.4 0.3 0.8 0.1 1-0.4 0.1-0.4 3.7-2 8-3.5 4.5-1.5 8.4-2.3 9.5-1.9 1.2 0.5 1.5 0.4 1-0.5-0.6-0.8 0.1-1.3 2-1.4 1.5-0.1 3.9-0.1 5.5 0 1.5 0.1 2.7-0.1 2.7-0.6 0-0.4 2.3-1.1 5.2-1.5 2.9-0.5 7.1-0.8 9.3-0.8 2.2 0.1 5.3-0.3 7-0.9 1.7-0.5 5.5-0.7 8.5-0.3zm-892.5-0.2c2.2 0.3 6.1 0.8 8.6 1.2 2.6 0.5 4.5 0.5 4.3 0-0.2-0.4 0.8-0.4 2.4-0.1 1.5 0.4 5 1.3 7.7 1.9 2.8 0.7 5.5 1.1 6 0.8 0.5-0.2 4.2 0.5 8 1.7 3.8 1.1 9.9 3.2 13.5 4.7 3.6 1.4 9.1 3.8 12.3 5.4 3.1 1.6 8.1 4.5 11 6.6 2.8 2 6.3 4.8 7.6 6.2 1.3 1.4 2 1.9 1.5 1.1-0.4-0.8 3.7 3.1 9.2 8.7 5.4 5.6 11.2 11.9 12.9 13.9 1.7 2.1 2.9 4.1 2.8 4.6-0.2 0.4 0.2 0.8 0.7 0.8 0.5 0 2 1.9 3.2 4.2 1.2 2.4 2.3 4.5 2.3 4.8 0.1 0.3 1.1 2.5 2.2 5 1.2 2.5 2.5 5.4 2.9 6.5 0.4 1.1 0.8 2.2 0.9 2.5 0.1 0.3 0.9 2.2 1.8 4.2 1 2.1 1.7 5.1 1.7 6.8 0 1.6 0.5 3 1 3 0.5 0 1.2 1.7 1.5 3.7 0.3 2.1 1 6 1.6 8.8 0.5 2.7 1 13.5 0.9 24 0 14.1-0.4 20.2-1.5 23.7-0.8 2.7-1.2 5.4-0.9 6 0.3 0.7-0.5 4.7-1.7 8.8-1.2 4.1-3.7 11.1-5.6 15.5-1.8 4.4-4.1 9.1-5.1 10.5-0.9 1.4-1.7 2.8-1.7 3.2 0 0.4-0.8 1.6-1.7 2.8-1 1.1-1.8 2.5-1.8 3 0 0.5-0.3 1-0.7 1-0.5-0.1-1.5 1.4-2.3 3.1-0.8 1.8-2.7 4.3-4.2 5.6-1.6 1.2-2.5 2.3-2 2.3 0.4 0-2.5 3.1-6.3 7-3.8 3.8-7.2 6.7-7.5 6.5-0.3-0.2-1.8 1-3.4 2.8-1.5 1.7-2.5 2.5-2.1 1.7 0.4-0.8-0.3-0.4-1.4 1-1.1 1.4-2.1 2-2.1 1.5 0-0.5-0.6-0.1-1.5 1-0.8 1.1-1.5 1.7-1.5 1.2 0-0.4-1 0.2-2.2 1.4-1.3 1.1-6.1 3.9-10.8 6.2-4.7 2.3-9.3 4-10.2 3.9-1-0.1-1.8 0.3-1.8 0.8 0 0.5-0.5 0.8-1 0.5-0.5-0.3-1 0-1 0.5 0 0.5-0.5 0.8-1 0.5-0.5-0.3-2.1 0.2-3.5 1-1.4 0.8-3.2 1.3-4 1-0.8-0.3-1.7 0-2 0.5-0.3 0.5-1.2 0.8-2 0.5-0.8-0.3-1.5 0-1.5 0.5 0 0.5-1.2 1.2-2.7 1.5-1.6 0.3-6.2 1-10.3 1.5-4.1 0.6-9.3 1.3-11.5 1.7-3.3 0.5-3.8 0.4-3-0.7 0.8-1.1 0.6-1.2-1-0.7-1.1 0.3-5.2 0.7-9 0.8-3.8 0.1-11.3-0.3-16.5-0.9-5.2-0.5-10.8-1.5-12.5-2.2-1.7-0.8-3.3-1.5-3.7-1.7-0.5-0.1-1.1-0.4-1.5-0.4-0.5-0.1-1.6-0.1-2.5 0-1 0-1.8-0.4-1.8-0.9 0-0.5-0.5-0.8-1-0.5-0.5 0.3-1.2 0-1.5-0.5-0.3-0.5-1.2-0.8-2-0.5-0.8 0.3-1.5 0-1.5-0.5 0-0.5-0.5-0.8-1-0.5-0.5 0.3-1 0.2-1-0.3 0-0.4-1.4-1.1-3.2-1.5-1.8-0.4-6-2.1-9.3-3.6-3.3-1.5-6.7-3.4-7.5-4.2-0.8-0.8-3.3-2.3-5.5-3.4-2.2-1.1-6-3.9-8.5-6.3-2.5-2.3-4.7-4.3-5-4.3-0.3 0-2.3-1.8-4.5-4.1-2.2-2.3-3.9-4.4-3.8-4.7 0.1-0.3-1.6-2.2-3.9-4.1-2.3-1.9-4.8-5-5.5-6.8-0.7-1.7-1.8-3.2-2.5-3.2-0.6 0-0.8-0.3-0.5-0.8 0.4-0.4 0.1-1.2-0.7-1.7-0.8-0.5-3.2-4.7-5.5-9.3-2.3-4.5-3.9-8.7-3.6-9.2 0.3-0.5 0-1-0.5-1-0.5 0-1.3-1.2-1.6-2.8-0.3-1.5-0.6-2.9-0.6-3.2 0-0.3-0.3-1-0.8-1.5-0.4-0.5-1-2.5-1.4-4.3-0.3-1.7-0.5-3.4-0.3-3.5 0.1-0.2-0.5-1.2-1.3-2.2-0.8-1-1.8-4.6-2.2-7.9-0.4-3.4-1.2-9.9-1.9-14.6-0.7-5.3-0.9-13-0.5-20.3 0.4-8.8 0.9-11.5 1.8-11 0.9 0.6 1.1 0.2 0.7-1.2-0.3-1.1-0.3-4.7 0.2-8 0.4-3.3 1.3-7.4 2-9 0.7-1.7 1.4-3.3 1.6-3.8 0.1-0.4 0.3-0.8 0.4-1 0-0.1 0.2-1.3 0.4-2.7 0.1-1.4 1.2-4.5 2.3-7 1-2.5 2.8-6.5 3.8-8.9 1.1-2.5 2.4-5 2.9-5.6 0.5-0.5 1.9-2.8 3-4.9 1.1-2.2 4-6.4 6.4-9.5 2.4-3.1 8.8-10 14.3-15.4 5.5-5.3 10.6-9.7 11.4-9.7 0.8 0 1.4-0.5 1.4-1 0-0.5 2.1-2.2 4.8-3.7 2.6-1.5 5-2.6 5.5-2.5 0.4 0.1 0.7-0.3 0.7-0.8 0-0.5 2.6-2.1 5.8-3.6 3.1-1.4 6.6-2.7 7.7-2.9 1.1-0.2 2.2-0.4 2.5-0.5 0.3-0.2 0.8-0.2 1.3-0.1 0.4 0 0.7-0.4 0.7-0.9 0-0.5 1.5-1.5 3.3-2 1.7-0.6 4.3-1.1 5.7-1.2 1.4-0.1 2.7-0.6 3-1 0.3-0.5 2.8-1 5.5-1.3 2.8-0.2 6.3-0.9 8-1.5 1.7-0.7 5.7-1.2 9-1.1 3.3 0 7.3-0.4 9-0.9 1.7-0.5 4.8-0.7 7-0.5zm-20.5 51c-2.5 0.2-7.4 1.5-11 3-3.6 1.5-9.7 4.8-13.5 7.4-3.8 2.5-9.7 7.3-12.9 10.6-3.2 3.3-7.8 8.9-10.1 12.5-2.2 3.6-4.9 8.7-5.9 11.5-0.9 2.7-1.8 5.5-1.9 6.2-0.1 0.6-0.5 1.5-1 2-0.4 0.4-0.7 1.7-0.7 2.8 0 1.1-0.7 4.2-1.6 7-1.4 4.3-1.4 5.3-0.3 7.3 1.1 1.8 1.2 2.5 0.1 3.5-0.7 0.6-1.2 3.2-1.2 5.7 0 2.5 0.5 5.1 1.2 5.7 1.1 1 1 1.8-0.2 3.8-1.3 2.2-1.3 3.1-0.1 6.8 0.8 2.3 1.7 4.7 2 5.2 0.3 0.5 0.4 2 0.3 3.2-0.1 1.3 0.3 2.3 0.8 2.3 0.5 0 0.8 0.5 0.5 1-0.3 0.5 0.7 3.8 2.1 7.2 1.4 3.5 3.8 8.3 5.3 10.7 1.4 2.4 3.5 5.3 4.6 6.5 1.1 1.1 2.4 2.9 2.8 3.8 0.4 1 2.4 3 4.4 4.5 2.1 1.6 5.2 4.1 6.9 5.8 1.7 1.6 6.5 4.7 10.5 6.7 4.1 2.1 8.4 3.8 9.7 3.8 1.2 0 3.2 0.6 4.5 1.4 1.2 0.8 5.6 2 9.7 2.6 4.1 0.7 12.5 1.1 18.7 0.9 6.7-0.3 11.7-0.9 12.5-1.6 0.7-0.6 1.8-1 2.3-0.7 0.5 0.3 2.3-0.1 4-0.7 1.7-0.7 3.9-1.4 5-1.5 1.1-0.2 5.8-2.3 10.5-4.6 6.6-3.4 10.2-6.1 16.8-12.8 4.6-4.7 10-11.4 12.1-15 2-3.6 4.7-9.4 5.9-13 1.2-3.6 1.9-6.8 1.7-7.3-0.3-0.4 0.1-1.4 0.8-2.4 0.6-0.9 1.2-4.6 1.3-8.2 0-3.6 0.3-7.3 0.6-8.1 0.4-0.8 0.9-3.3 1.1-5.5 0.3-2.2 0-5-0.6-6.3-0.7-1.2-1.1-3.9-0.9-6 0.2-2-0.5-7-1.5-11-1-4-2-7.2-2.3-7.2-0.3 0-0.8-1.4-1.1-3.2-0.3-1.8-2.6-6.6-5-10.7-2.4-4.1-7.1-10.3-10.4-13.9-3.3-3.5-7.1-7-8.5-7.7-1.4-0.7-3.4-2.2-4.5-3.2-1.1-1.1-5.6-3.6-10-5.7-4.4-2.1-11.4-4.5-15.5-5.3-4.1-0.8-8.5-1.7-9.7-1.9-1.3-0.2-2.9 0-3.5 0.5-0.7 0.5-4 0.9-7.3 0.7-3.3-0.1-6.5-0.4-7.1-0.8-0.6-0.3-2.2-0.1-3.5 0.4-1.3 0.5-4.4 1.1-6.9 1.3z"/>
		<path id="Path 43" class="s1" d="m1426.5 722.8c0.8 0.4 1.2 0.9 0.9 1.2-0.3 0.3-1.3 0.6-2.2 0.7-1 0.1-3.5 0.4-5.7 0.7-2.8 0.4-3.4 0.2-2-0.4 1.1-0.5 3.2-0.9 4.8-0.9 1.5-0.1 2.7-0.5 2.7-1.1-0.1-0.5 0.6-0.6 1.5-0.2zm-47.3-2.6c1.3 0.1 3.2 0.8 4.3 1.5 1.9 1.2 1.8 1.3-1 1.1-1.7-0.1-3.6-0.8-4.3-1.5-1-1.1-0.8-1.3 1-1.1zm-36.7-25.5l2.3 1.4c1.2 0.8 2.2 1.8 2.2 2.4 0 0.5 1.5 2.5 3.5 4.3 1.9 1.7 4 3.2 4.5 3.2 0.5 0 1.7 1.2 4.3 5.5l-2.7-2.5c-1.4-1.4-2.6-2.2-2.6-1.7 0 0.4-1.7-1.2-3.8-3.5-2-2.4-4.6-5.4-5.7-6.7zm-12.1-31.7c0.7 1.4 1 3.3 0.7 4.2-0.4 1-0.8 1.5-1.1 1.2-0.3-0.3-0.5-0.9-0.5-1.2 0-0.4-0.4-1.3-0.8-2-0.4-0.6-0.5-2-0.2-3 0.5-1.5 0.8-1.4 1.9 0.8zm155.8-13.3c0.3 0.6 0.6 2.1 0.5 3.4-0.1 1.3-0.7 2.3-1.2 2.2-0.6-0.1-1.2-1-1.3-2-0.2-1 0-2.4 0.5-3.2q0.8-1.4 1.5-0.4zm-158.9-1.4c0.8 0.1 1.9 0.5 2.3 0.9 0.5 0.4 0.5 1.6 0.1 2.5-0.8 1.7-0.9 1.7-2.3-0.2-0.8-1.1-1.5-2.3-1.5-2.7-0.1-0.3 0.6-0.6 1.4-0.5zm1.5-14.7c0.4 0.3 0.7 1.3 0.7 2.1 0 0.9-0.8 1.8-1.8 1.9-0.9 0.2-1.7 0.1-1.8-0.2 0-0.3 0.4-1.4 1.1-2.5 0.6-1.1 1.5-1.7 1.8-1.3zm157.3-3c0.5 0.3 0.8 2.2 0.6 4.3-0.2 3.2-0.4 3.6-1.4 2.2-0.7-0.9-1.3-2.5-1.4-3.7-0.2-1.1 0.1-2.4 0.5-2.7 0.5-0.4 1.2-0.4 1.7-0.1zm-12.1-35.1c0.5 0.3 2.3 3.3 4 6.7 1.6 3.5 3 6.9 3 7.5 0 0.7 0.4 1.3 1 1.3 0.5 0 0.8 0.4 0.5 1-0.3 0.5-0.8 1-1.3 1-0.4 0-0.8-1-0.9-2.3-0.1-1.2-1.8-5.2-3.8-9-1.9-3.7-3.1-6.5-2.5-6.2zm-116.3-19c0.1 0.3-2.7 3.6-6.5 7.3-3.7 3.8-7.7 8.2-9 9.8-1.3 1.6-2 2.2-1.6 1.4 0.4-0.8 2-3.1 3.5-5 1.6-1.9 2.5-3.9 2.1-4.3-0.4-0.5 0-0.7 0.8-0.5 0.9 0.2 1.4-0.3 1.2-1.2-0.2-0.8 0-1.2 0.5-0.8 0.4 0.5 1.3-0.2 1.9-1.5 0.6-1.2 1.5-2.1 2-2 0.5 0.1 1.8-0.6 2.8-1.7 1.1-1.1 2.1-1.8 2.3-1.5zm94-3.8c1 0.4 2.1 1.2 2.5 2 0.5 0.7 1.3 1 2 0.5 0.8-0.4 1-0.3 0.6 0.3-0.3 0.5 1.7 2.7 4.5 4.9 2.9 2.1 6.5 5.9 11 13.1l-4.2-4.3c-2.2-2.3-4.1-4.5-4.1-5 0-0.4-1.5-1.8-3.3-3.2-1.7-1.4-4.9-3.7-6.9-5-2.1-1.4-3.8-2.8-3.8-3.2-0.1-0.4 0.7-0.5 1.7-0.1zm-78.2-5.6c0.5 0 0.1 0.5-1 1.1-1.1 0.6-4.6 2.8-7.8 4.9-4 2.8-5.7 3.5-5.7 2.4 0-0.8 1.5-2.2 3.2-3 1.8-0.9 4.9-2.4 6.8-3.5 1.9-1.1 3.9-1.9 4.5-1.9zm32.2-6.7c4 0 6.7 0.5 6.5 1.1-0.1 0.5-3 1-6.5 1.1-3.4 0-6.5-0.1-7-0.3-0.4-0.2-0.5-0.7-0.3-1.2 0.2-0.5 3.5-0.8 7.3-0.7z"/>
		<path id="Path 44" class="s1" d="m2313 511.5c1.4 0.1 3.1 0.4 3.8 0.8 0.6 0.4 3.6 0.9 6.5 1.1 2.8 0.1 6.1 0.8 7.2 1.4 1.1 0.6 1.7 1.4 1.2 1.9-0.4 0.4-1.7 0.3-3-0.4-1.2-0.6-3.5-1.4-5.2-1.8-1.7-0.4-5.8-0.6-9.3-0.6-3.4 0.1-6.8-0.2-7.4-0.6q-1.3-0.7 1.2-1.3c1.4-0.4 3.6-0.6 5-0.5zm-25.1-0.3c2 0.2 3.6 0.8 3.6 1.3 0 0.5-1.3 1.1-3 1.3-1.7 0.2-3.6 0.1-4.2-0.2-0.7-0.4-1-1.1-0.7-1.7 0.3-0.5 2.3-0.9 4.3-0.7zm-870.1 0c2.2 0.2 3.6 0.9 3.7 1.8 0.2 1.1-0.6 1.4-2.9 1.2-1.7-0.2-3.7-0.5-4.3-0.8-0.7-0.2-1-0.9-0.7-1.5 0.3-0.5 2.2-0.9 4.2-0.7zm-22.9-0.2c0.9 0 2.6 0.2 3.9 0.5 1.2 0.3 2 1 1.7 1.5-0.3 0.5-2.1 1-4 1-1.9 0-3.7-0.3-4-0.8-0.2-0.4-0.2-1 0.2-1.4 0.3-0.5 1.3-0.8 2.2-0.8zm-1271.9-4c0.4 0 0.7 0.3 0.5 0.8-0.1 0.4-0.6 1.6-1 2.7-0.4 1.1-1 2.6-1.2 3.2-0.1 0.7 1.6 2.6 4 4.2 2.3 1.5 10.7 6.6 18.7 11.1 8 4.6 18.7 10.7 23.8 13.6 5 3 13.4 7.8 18.5 10.7 5 3 14.3 8.4 20.5 12 6.1 3.7 11.4 6.7 11.7 6.7 0.3 0 2.9 1.5 5.8 3.3 2.8 1.8 7.3 4.4 10 5.7 2.6 1.4 4.7 2.8 4.7 3.3 0 0.4 0.5 0.7 1 0.7 0.6 0 13 6.9 27.8 15.3 14.7 8.5 39.8 23 55.7 32.2 16 9.3 34.6 20.1 41.5 24 6.9 4 25.6 14.7 41.5 24 16 9.2 32.4 18.6 36.5 21 4.1 2.3 15.6 8.9 25.5 14.7 9.9 5.8 20 11.6 22.5 13 2.5 1.4 5.6 3.1 7 3.9 1.4 0.8 3.2 1.9 4 2.5 0.8 0.6 4.7 2.8 8.5 4.9 3.9 2.1 10.2 5.7 14 8 3.9 2.3 9 5.4 11.5 6.7 2.5 1.4 7.4 4.2 11 6.3 3.6 2.1 8.1 4.7 10 5.8 1.9 1.1 4.9 2.8 6.5 3.8 1.7 1 7.9 4.6 14 8.1 6 3.5 13.2 7.6 16 9.2 2.7 1.5 7.7 4.4 11 6.3 3.3 2 8 4.7 10.5 6.1 2.5 1.4 9.7 5.5 16 9.2 6.3 3.6 18 10.4 26 15 8 4.6 18.1 10.4 22.5 13 4.4 2.6 12.1 7 17 9.9 5 2.8 9.7 5.6 10.5 6.1 0.8 0.6 11.9 6.9 24.5 14.1 12.7 7.2 26.6 15.3 31 17.9 4.4 2.6 17 9.9 28 16.2 11 6.4 23.4 13.5 27.5 15.8 4.1 2.4 8.2 4.4 9 4.5 0.8 0.1 2-0.7 2.7-1.9q1.2-2.1 1.3-0.6c0 0.8-1 3.5-2.3 6-1.2 2.5-3.6 6.3-5.3 8.5-2.4 3-9.2 7.6-26.5 17.9-12.9 7.7-29.5 17.5-36.9 21.9-7.4 4.4-14.6 8.8-16 9.7-1.4 0.9-16.2 9.5-33 19.2-16.8 9.6-32.5 18.6-35 20-2.5 1.4-6.1 3.4-8 4.5-1.9 1.1-6 2.8-9 3.6-3.5 1.1-7.1 1.4-10 1.1-2.5-0.4-8.1-2.6-12.5-5-4.4-2.4-9.8-5.5-12-6.8-2.2-1.4-5.6-3.3-7.5-4.4-1.9-1-6.6-3.7-10.5-5.9-3.8-2.2-13.1-7.5-20.5-11.8-7.4-4.3-15.1-8.7-17-9.8-1.9-1-18.1-10.4-36-20.7-17.9-10.3-34.1-19.6-36-20.7-1.9-1.1-5.5-3.2-8-4.8-2.5-1.6-6.1-3.5-8-4.2-2.9-1.2-4-1.2-6.3-0.1-1.5 0.7-2.8 1.5-2.7 1.8 0 0.3-2.5 1.8-5.5 3.5-3.1 1.7-5.6 3.3-5.5 3.8 0 0.4-0.8 0.7-1.7 0.7-1 0.1-4.3 1.6-7.3 3.5-3 1.9-5.9 3.5-6.5 3.5-0.5 0-1.7 0.7-2.5 1.4-0.8 0.7-4.6 3-8.5 5.1-3.8 2.1-8.8 4.9-11 6.4-2.2 1.5-5.7 3.4-7.7 4.4-2.1 0.9-4 2.4-4.3 3.2-0.3 0.8-1.2 1.5-2 1.5-0.8 0-3.2 1.1-5.2 2.4-2.1 1.3-5.6 3.2-7.8 4.3-2.2 1.1-5.8 3-8 4.2-2.2 1.3-5.1 3.1-6.5 4.1-1.4 0.9-3.8 2.4-5.5 3.2-1.6 0.8-5.2 2.7-8 4.3-2.7 1.5-5.7 3.3-6.5 4-0.8 0.7-2.8 1.9-4.5 2.7-1.6 0.8-8.6 4.8-15.5 8.8-6.9 4-15.5 9-19.2 11.1-3.8 2.2-6.8 4.4-6.8 4.9 0 0.5-2.6 1.3-5.7 1.6-3.2 0.4-8.9 0.6-12.8 0.5-5.5-0.1-8.3-0.8-13-3.1-3.3-1.6-10.7-5.7-16.5-9.1-5.8-3.4-12.1-7.1-14-8.1-1.9-1.1-3.9-2.4-4.5-2.8-0.5-0.4-10.7-6.4-22.5-13.2-11.8-6.9-28.2-16.4-36.5-21.2-8.2-4.8-18.1-10.7-22-12.9-3.8-2.3-7.9-4.7-9-5.3-1.1-0.6-5.5-3.2-9.7-5.8-4.3-2.5-8-4.6-8.3-4.6-0.3 0-3.5-2-7.2-4.4-3.8-2.4-7.8-5.4-9-6.7-1.2-1.3-3.3-4.6-7.2-12.4l-0.1-200c-0.1-147.4 0.1-201.4 1-205.5 0.6-3 1.6-6.7 2.2-8.2 0.5-1.6 1.3-2.8 1.8-2.8z"/>
		<path id="Path 45" class="s2" d="m303.3 837c0.6 0 3.7 1.5 6.7 3.2 3 1.7 6.2 3.7 7 4.3 0.8 0.7 5.5 3.4 10.5 6.1 5 2.6 11.2 6.2 14 7.9 2.7 1.7 11.3 6.7 19 11 7.7 4.3 15.4 8.6 17 9.6 1.6 0.9 7.6 4.5 13.2 7.8 5.7 3.4 10.8 6.1 11.3 6.1 0.5 0 1.6 0.6 2.2 1.3 0.7 0.7 4 2.8 7.3 4.6 3.3 1.8 8 4.5 10.5 5.9 2.5 1.4 4.7 2.9 5 3.2 0.3 0.3 2.1 1.4 4 2.4 1.9 1.1 6.8 3.8 10.8 6 4 2.3 8.8 5 10.7 6.1 1.8 1.1 6.6 3.9 10.7 6.1 4 2.3 8 4.9 8.8 5.8 0.8 0.9 1.3 1.8 1 2-0.3 0.2-2.5 1.6-5 3-2.5 1.5-5.7 3.2-7.3 3.9-1.5 0.7-2.7 1.5-2.7 2 0 0.4-0.9 0.7-2 0.7-1.1 0-2 0.3-2 0.8 0 0.4-2.8 2.2-6.2 4.1-3.5 1.8-7 4-7.8 4.7-0.8 0.7-1.8 1.4-2.3 1.4-0.4 0-3.6 1.8-7.2 4-3.6 2.2-6.8 4-7.3 4-0.4-0.1-1.8 0.8-3.2 1.8-1.4 1.1-5.9 3.7-10 5.8-4.1 2.2-8.9 4.9-10.5 6-1.6 1.2-4.8 3.1-7 4.3-2.2 1.2-4.9 2.7-6 3.4-1.1 0.6-2.2 1.5-2.5 1.9-0.3 0.3-1.6 1.1-3 1.7-1.4 0.6-4.8 2.4-7.5 4.1-2.8 1.7-7.5 4.4-10.5 6-3 1.7-7.3 4.2-9.5 5.6-2.2 1.4-4.8 2.7-5.8 2.9-0.9 0.3-1.7 1-1.7 1.5 0 0.5-0.9 1-2 1-1.1 0-3.2 1-4.8 2.3-1.5 1.2-4.7 3.3-7.2 4.7-2.5 1.3-6.5 3.6-9 5.2-2.5 1.5-6.3 3.6-8.5 4.7-2.2 1.1-5 2.2-6.3 2.5-1.2 0.3-3.1 0.1-4.2-0.4-2-1-2-2-2-97 0-76.1 0.3-96 1.2-96z"/>
		<path id="Path 46" class="s1" d="m811 492c0.8 0.4 4.3 3.8 7.8 7.6 3.4 3.8 6.2 7.2 6.2 7.7 0 0.4-0.5 0.7-1 0.7-0.5 0-0.8-0.5-0.5-1 0.3-0.5-2.8-4.3-6.8-8.4-3.9-4-6.5-7-5.7-6.6zm-362.5-4c0.3 0 2.6 1.2 5.1 2.8 2.6 1.5 4.8 3 5 3.5 0.2 0.4-0.4 0.4-1.3 0-1-0.3-2.9-1.5-4.3-2.5-1.4-1-3.1-1.9-3.8-1.8-0.6 0-1.2-0.5-1.2-1 0-0.5 0.2-1 0.5-1zm-304.2-1c0.5 0 0.2 0.7-0.7 1.5-0.8 0.8-1.9 1.5-2.5 1.5-0.6 0-1.1 0.5-1.1 1 0 0.5-0.6 1-1.3 1-0.6 0-4.3 3.3-8.1 7.3-3.9 3.9-6.4 6.2-5.6 5 0.7-1.2 1.7-2.5 2.1-2.8 0.5-0.4 1.3-1.8 1.8-3.1 0.5-1.3 1.9-2.8 3.2-3.3 1.3-0.5 2.9-1.7 3.6-2.6 0.6-1 2.7-2.7 4.5-3.7 1.8-1 3.7-1.8 4.1-1.8zm17.8-11c1.1 0 1.9 0.5 1.9 1 0 0.5-1.1 1.6-2.5 2.3-1.4 0.6-2.8 0.9-3.2 0.5-0.5-0.4-0.2-1.4 0.6-2.3 0.7-0.8 2.2-1.5 3.2-1.5zm609.6-7c0.4 0 2.9 1.3 5.5 3 2.7 1.6 4.8 3.2 4.8 3.5 0 0.3-0.6 0.2-1.3-0.2-0.6-0.3-2.3-1.4-3.7-2.4-1.4-1-2.7-1.7-3-1.5-0.3 0.2-1.1-0.2-1.8-1-0.8-0.8-1-1.4-0.5-1.4zm-596.3 0.1c0.5-0.1-0.4 1-2 2.3-1.6 1.3-4.3 2.9-5.9 3.6-2.5 0.9-2.8 0.9-1.7-0.2 0.8-0.7 3-2.3 5-3.5 2-1.1 4.1-2.2 4.6-2.2zm572.5-13.9c0.3 0.2 2.6 1.4 5.1 2.6 2.5 1.3 5.8 3.4 7.5 4.8 1.7 1.5 2.3 2.3 1.5 1.8-0.8-0.4-2.6-1.5-4-2.5-1.4-1-2.8-1.5-3.3-1.1-0.4 0.4-0.7 0.2-0.7-0.3 0-0.5-1.6-1.7-3.5-2.5-1.9-0.8-3.5-1.9-3.4-2.3 0.1-0.5 0.4-0.7 0.8-0.5zm-548.7-0.2c0.5 0 0.8 0.3 0.8 0.8-0.1 0.4-1.5 1.4-3.3 2.3-1.8 0.9-5.5 2.8-8.2 4.3-2.8 1.5-4.1 2.1-3.1 1.4 1-0.7 4.4-3 7.5-5 3.1-2.1 5.9-3.8 6.3-3.8zm188.3-2.5c2.2 0.9 4.7 2.3 5.5 3.1 1.3 1.3 1.2 1.4-1.6 0.2-1.7-0.7-4.1-2.1-5.5-3.1-2.3-1.7-2.3-1.7 1.6-0.2zm-17.8-10.5c0.5 0 2.8 1.4 5.3 3 2.5 1.6 5.2 3.5 6.1 4.2 0.8 0.7 1 1 0.5 0.6-0.6-0.5-1.5-0.5-1.9 0-0.4 0.4-0.7 0.2-0.7-0.3 0-0.5-1.4-1.6-3.2-2.4-1.8-0.8-3.6-2.1-4.1-2.8-0.4-0.7-1.2-1.1-1.7-0.8-0.5 0.3-1 0-1-0.5 0-0.5 0.3-1 0.7-1zm351.3-2.2c0.8 0.7 2.5 1.2 3.8 1.2 1.3 0 2.7 0.8 3.3 2 0.5 1.1 1.6 2 2.4 2 0.8 0 1.5 0.5 1.5 1 0 0.5-1.5 0.2-3.3-0.7-1.7-0.9-3.4-1.6-3.7-1.5-0.3 0.1-1.6-1.1-3-2.6-1.4-1.5-1.8-2.1-1-1.4zm-494.2-0.7c0.2 0-0.1 0.5-0.6 1.2-0.5 0.6-2.4 1.9-4.1 2.7-1.8 0.8-3.2 1.8-3.1 2.3 0 0.4-0.9 0.9-2 1.2-1.1 0.3-2 0.2-2-0.2 0-0.5 2.6-2.2 5.8-3.9 3.1-1.7 5.8-3.2 6-3.3zm470.9-13.1c0.5-0.1 1.9 0.8 3.3 1.8 1.4 1 4.4 3 6.7 4.3 2.4 1.3 4.2 2.5 4 2.7-0.1 0.1-3.1-1.4-6.7-3.5-3.6-2.1-6.8-3.6-7.3-3.5-0.4 0.1-0.7-0.3-0.7-0.8 0-0.5 0.3-1 0.7-1zm-357.8-0.9c0.4 0.2 3.7 2 7.4 3.9 3.7 1.9 6.7 4 6.7 4.5 0.1 0.5-0.5 0.4-1.2-0.2-0.7-0.7-1.7-1-2.1-0.5-0.4 0.4-0.7 0.2-0.7-0.3 0-0.5-2.2-2-5-3.2-2.7-1.3-5.2-2.8-5.5-3.4-0.2-0.7-0.1-1 0.4-0.8zm-89.9 0c0.3-0.1 0.4 0.5 0.2 1.2-0.2 0.6-2.4 2.3-5 3.5-2.6 1.3-4.5 2.1-4.2 1.9 0.3-0.3 2.3-1.9 4.5-3.6 2.2-1.6 4.2-3 4.5-3zm25.2-14.1c0.4 0 0.8 0.6 0.8 1.3 0 0.6-0.3 0.9-0.7 0.5-0.5-0.4-2.2 0.3-3.8 1.6-1.7 1.2-4.4 2.8-9 4.6l3-2.2c1.6-1.3 3.7-2.4 4.5-2.5 0.8-0.1 2.2-0.9 3-1.8 0.8-0.8 1.8-1.5 2.2-1.5z"/>
		<path id="Path 47" class="s2" d="m295.3 407c3.1 0 5.7 0.4 5.7 1 0 0.5 0.8 1 1.7 0.9 1 0 3.2 0.2 4.8 0.4 1.6 0.3 6.6 2.4 11 4.8 4.4 2.3 9.8 5.4 12 6.8 2.2 1.4 5.4 3.3 7 4.2 1.6 1 5.2 2.8 7.8 4.1 2.6 1.2 4.7 2.8 4.7 3.3 0 0.5 0.3 0.7 0.7 0.3 0.5-0.4 1.9 0.1 3.3 1.1 1.4 1 5.3 3.3 8.8 5.2 3.4 1.9 6.3 3.7 6.2 4.2 0 0.4 0.5 0.5 1 0.2 0.5-0.3 1.3 0.1 1.7 0.8 0.5 0.7 2.3 2 4.1 2.8 1.8 0.8 3.2 1.9 3.2 2.4 0 0.5 0.3 0.7 0.7 0.3 0.4-0.4 2.6 0.5 4.8 2 2.2 1.5 6.2 3.8 8.8 5.2 2.6 1.4 4.8 2.8 4.7 3.3 0 0.4 0.3 0.6 0.7 0.5 0.5-0.1 4.7 1.9 9.5 4.5 4.9 2.6 8.8 5.2 8.8 5.7 0 0.5 0.8 1 1.7 1 1-0.1 2.9 0.8 4.3 1.8 1.4 1 4.9 3.2 7.8 4.8 2.9 1.6 5.2 3.2 5.2 3.7 0 0.4 0.3 0.5 0.7 0.3 0.5-0.3 2.8 0.9 5.3 2.5 2.5 1.6 5 3.2 5.5 3.6 0.6 0.5 2.4 1.6 4 2.5 1.7 0.9 4.7 2.4 6.7 3.3 2.1 0.8 3.8 2 3.8 2.5 0 0.5 0.3 0.8 0.7 0.5 0.5-0.2 1.7 0.3 2.8 1.3 1.1 0.9 3.5 2.5 5.3 3.5 1.8 0.9 3.5 1.7 3.9 1.7 0.5 0 7.1 3.5 14.8 7.8 7.7 4.3 16.2 9.2 19 10.9 2.7 1.7 8.1 4.8 12 7 3.9 2.2 11.5 6.7 17 9.9 5.5 3.1 12.9 7.5 16.5 9.5 3.6 2.1 8.5 5 11 6.4 2.5 1.4 7.2 4.2 10.5 6.2 3.3 2 8.9 5.3 12.5 7.3 3.6 2.1 13.5 7.8 22 12.7 8.5 5 19.9 11.6 25.2 14.7 5.4 3.1 10 5.6 10.3 5.6 0.3 0 0.5-39.9 0.6-88.8 0-48.8 0.3-92.2 0.7-96.5 0.5-5.2 1.2-8.1 2.2-8.7 0.8-0.5 3.2-1 5.2-1 2.1 0 4 0.5 4.3 1 0.3 0.5 1 0.8 1.5 0.5 0.5-0.3 1.2 0 1.5 0.5 0.3 0.5 1.4 0.8 2.5 0.5 1.1-0.3 2 0 2 0.5 0 0.5 0.6 0.8 1.2 0.5 0.7-0.2 3.5 0.8 6.3 2.4 2.7 1.6 7.6 4.4 10.8 6.3 3.2 1.8 5.8 3.6 5.7 4 0 0.5 1.3 1 3 1.3 1.7 0.3 3.4 1.3 3.9 2.2 0.5 1 1.1 1.6 1.3 1.4 0.2-0.3 3.1 1.2 6.5 3.2 3.5 2 6.6 3.7 7 3.7 0.5-0.1 1.7 0.8 2.8 1.9 1.1 1.2 2.3 1.8 2.7 1.6 0.5-0.3 2.4 0.9 4.3 2.5 1.9 1.6 3.8 3 4.2 3 0.5 0.1 5.3 2.6 10.8 5.7 5.5 3.1 10.2 5.9 10.5 6.3 0.3 0.4 2 1.3 3.8 2.1 1.7 0.8 3.2 1.7 3.2 2.1 0 0.5 0.4 0.7 0.8 0.5 0.5-0.1 3.3 1.4 6.3 3.3 3 2 6.9 4.2 8.7 5 1.8 0.8 3.3 1.8 3.2 2.2 0 0.5 0.3 0.7 0.7 0.6 0.5-0.1 3 1.1 5.8 2.7 2.7 1.6 5.2 3.2 5.5 3.6 0.3 0.3 1.6 1 3 1.4 1.4 0.4 3.4 1.5 4.5 2.4 1.1 1 4.1 2.8 6.8 4.2 2.6 1.3 4.7 2.7 4.7 3.1 0 0.5 1.1 1 2.5 1.3 1.4 0.3 5.9 3.9 10 8 4.1 4.1 7.3 8 7 8.5-0.3 0.5-0.2 1 0.2 1 0.5-0.1 1.8 2.2 3 5 1.3 2.7 2.1 5.2 1.8 5.5-0.3 0.3 0.2 2.1 1 4 1.3 3.1 1.5 27.5 1.5 199.5 0 154.8-0.3 196.5-1.3 198.4-0.8 1.7-1.8 2.3-3.2 2-1.1-0.2-5.2-2.3-9-4.6-3.8-2.2-16-9.2-27-15.6-11-6.3-23.6-13.6-28-16.2-4.4-2.6-18.3-10.7-31-17.9-12.7-7.2-23.7-13.5-24.5-14.1-0.8-0.5-5.5-3.3-10.5-6.1-5-2.9-12.6-7.3-17-9.9-4.4-2.6-14.5-8.4-22.5-13-8-4.6-19.7-11.4-26-15-6.3-3.7-13.5-7.8-16-9.2-2.5-1.4-7.2-4.1-10.5-6.1-3.3-1.9-8.3-4.8-11-6.3-2.8-1.6-10-5.7-16-9.2-6.1-3.5-12.4-7.1-14-8.1-1.6-1-4.6-2.7-6.5-3.8-1.9-1.1-6.4-3.7-10-5.8-3.6-2.1-8.5-4.9-11-6.3-2.5-1.3-7.6-4.4-11.5-6.7-3.9-2.3-10.1-5.9-14-8-3.9-2.1-7.7-4.3-8.5-4.9-0.8-0.6-2.6-1.7-4-2.5-1.4-0.8-4.5-2.5-7-3.9-2.5-1.4-12.6-7.2-22.5-13-9.9-5.8-21.4-12.4-25.5-14.7-4.1-2.4-20.5-11.8-36.5-21-16-9.3-34.6-20-41.5-24-6.9-3.9-25.5-14.7-41.5-24-16-9.2-41-23.7-55.8-32.2-14.7-8.4-27.2-15.3-27.7-15.3-0.5 0-1-0.3-1-0.8 0-0.4-2.1-1.8-4.7-3.2-2.7-1.3-7.2-3.9-10.1-5.7-2.8-1.8-5.4-3.3-5.7-3.3-0.3 0-5.6-3-11.8-6.7-6.1-3.6-15.4-9-20.5-12-5-2.9-13.4-7.7-18.5-10.7-5-2.9-15.7-9-23.7-13.6-8-4.5-16.4-9.6-18.8-11.1-2.3-1.6-4.1-3.5-3.9-4.2 0.2-0.6 1.1-2.9 2-5 0.9-2 4.5-6.6 7.9-10.2 3.5-3.6 6.9-6.5 7.5-6.5 0.7 0 1.3-0.5 1.3-1 0-0.5 0.7-1 1.5-1 0.8 0 1.5-0.3 1.5-0.8 0-0.4 1.1-1.3 2.5-2 1.4-0.6 2.8-1.2 3.2-1.1 0.5 0 1-0.3 1.3-0.8 0.3-0.5 2.2-1.9 4.2-3.1 2.1-1.2 4.5-2.2 5.3-2.2 0.8 0 2.7-1.1 4.2-2.5 1.6-1.4 3.3-2.5 3.8-2.5 0.5 0 2.8-1.3 5-3 2.2-1.7 4.5-3.1 5.2-3 0.6 0 1.8-0.6 2.5-1.3 0.7-0.7 3.8-2.7 6.8-4.3 3-1.7 7.1-3.9 9-5 1.9-1 3.7-2.1 4-2.5 0.3-0.3 4.2-2.6 8.7-5.2 4.6-2.6 8.5-4.7 8.8-4.7 0.3 0 1.1-0.5 1.7-1 0.7-0.6 3-2.1 5-3.5 2.1-1.4 4.4-2.5 5-2.5 0.7 0.1 2-0.6 2.8-1.5 0.8-0.9 2.4-1.9 3.5-2.2 1.1-0.4 4.2-2.2 7-4 2.7-1.8 5.6-3.3 6.2-3.3 0.7 0 1.3-0.5 1.3-1 0-0.5 1.9-1.9 4.2-3.1 2.4-1.1 6.8-3.4 9.8-5 3-1.6 6.6-3.7 8-4.7 1.4-0.9 2.8-1.5 3.2-1.4 0.5 0.1 0.8-0.3 0.8-0.8 0-0.5 0.5-0.8 1-0.5 0.5 0.3 1 0 1-0.5 0-0.5 0.7-0.8 1.5-0.5 0.8 0.3 1.5 0 1.5-0.5 0-0.5 0.8-0.8 1.7-0.6 1 0.2 2.9-0.3 4.3-1 1.4-0.7 5.1-1.3 8.2-1.4z"/>
		<path id="Path 48" class="s1" d="m646.8 406.6c0.6 0.2 1.8 0.4 2.5 0.4q1.2 0-0.3 1c-1 0.6-1.7 3.5-2.2 8.7-0.4 4.3-0.7 47.7-0.7 96.5-0.1 48.9-0.3 88.8-0.6 88.8-0.3 0-4.9-2.5-10.2-5.6-5.4-3.1-16.8-9.7-25.3-14.7-8.5-4.9-18.4-10.6-22-12.7-3.6-2-9.2-5.3-12.5-7.3-3.3-2-8-4.8-10.5-6.2-2.5-1.4-7.4-4.3-11-6.4-3.6-2-11-6.4-16.5-9.5-5.5-3.2-13.1-7.7-17-9.9-3.8-2.2-9.2-5.3-12-7-2.7-1.7-11.3-6.6-19-10.9-7.7-4.3-14.3-7.8-14.7-7.8-0.5 0-2.3-0.8-4-1.8-1.8-0.9-3.8-2.3-4.5-3-0.7-0.6-1.3-1.4-1.3-1.7 0-0.3 1 0.2 2.3 1 1.2 0.8 2.9 1.5 3.7 1.5 0.8 0 6-2.5 11.5-5.6 5.5-3.1 12.9-7.2 16.5-9.1 3.6-2 7.2-4.2 8-4.9 0.8-0.7 2-1.4 2.5-1.4 0.5 0 3-1.4 5.5-3 2.5-1.7 5.9-3.8 7.5-4.6 1.7-0.8 5.9-3.2 9.5-5.4 3.6-2.1 9.2-5.3 12.5-7.1 3.3-1.7 8.3-4.6 11-6.4 2.8-1.7 9.5-5.8 15-9 5.5-3.2 13.4-7.6 17.5-9.8 4.1-2.1 8.2-4.5 9-5.1 0.8-0.7 5.8-3.7 11-6.6 5.2-3 12.1-6.9 15.3-8.7 3.1-1.8 9.4-4.2 14-5.2 4.5-1.1 8.8-1.7 9.5-1.5zm-346.2-0.6c0.8 0.5 2 0.9 2.7 0.8 0.6 0 2.5 0.4 4.1 1 1.6 0.6 2.9 1.3 2.8 1.4-0.1 0.2-1.5 0.2-3 0-1.5-0.2-3.5-0.3-4.4-0.3-1 0.1-1.8-0.4-1.8-0.9 0-0.5-0.7-1-1.5-1-0.8 0-1.2-0.5-0.9-1 0.5-0.8 1.1-0.8 2 0z"/>
	</g>
</svg>