<svg version="1.2" xmlns="http://www.w3.org/2000/svg" viewBox="0 0 2750 1375" width="2750" height="1375">
	<title>image0</title>
	<style>
		.s0 { opacity: 1;fill: #fdfefe } 
	</style>
	<path id="Path 0" fill-rule="evenodd" class="s0" d="m1383.5 174.1c4.2-0.1 10.2 0.7 15 2 4.4 1.1 10.3 3.2 13 4.6 2.8 1.5 7.3 4.2 10 6.1 2.8 2 13.8 11.3 24.5 20.7 10.7 9.4 26.7 23.4 35.6 31 8.8 7.7 20.5 17.8 25.9 22.5 5.4 4.7 17.3 15 26.5 23 9.2 8 24.9 21.7 35.1 30.5 10.1 8.8 21.7 19 25.9 22.6 4.1 3.6 12.9 11.2 19.6 17 6.6 5.7 18.5 16 26.5 22.9 7.9 6.8 20.3 17.6 27.5 24 7.1 6.3 17.2 15.1 22.4 19.5 5.1 4.4 13.7 11.8 18.9 16.5 5.3 4.7 19.5 17 31.6 27.5 12 10.5 24.4 21.3 27.5 24 3.1 2.8 8.7 7.8 12.5 11.1 3.9 3.4 13.8 12 22 19.2 8.3 7.1 21.1 18.3 28.5 24.9 7.4 6.6 15.7 14.6 18.3 17.9 2.6 3.2 6.1 8.2 7.7 10.9 1.6 2.8 4 8.5 5.4 12.8 2 6 2.6 9.7 2.6 17 0 6.6-0.6 11.1-2.1 16.2-1.2 3.9-3.3 9-4.7 11.5-1.3 2.5-4.3 6.9-6.6 9.9-2.2 3-8.8 9.6-14.6 14.7-5.8 5.1-14.8 12.9-20 17.3-5.2 4.5-10.6 9.2-12 10.5-1.4 1.3-11.3 9.9-22 19.2-10.7 9.3-30.7 26.6-44.4 38.4-13.6 11.8-30.3 26.2-37.1 32-6.7 5.8-15.1 13-18.6 16.1-3.5 3.1-19.5 17-35.4 30.9-15.9 13.9-36.2 31.6-45.1 39.4-8.8 7.8-21.8 19.1-28.9 25.1-7.1 6-15.4 13.3-18.5 16.1-3 2.8-12.3 10.9-20.5 17.9-8.3 7.1-21.2 18.3-28.9 24.9-7.6 6.7-18.2 15.9-23.5 20.6-5.3 4.6-18.8 16.3-30 26-11.2 9.6-23.1 19.8-26.5 22.7-3.3 2.9-9.7 7-14.1 9.2-4.4 2.2-11.4 4.7-15.5 5.7-5.7 1.3-9.8 1.6-17 1.1-5.2-0.3-11.8-1.3-14.5-2.2-2.8-0.8-7.3-2.7-10-4.2-2.8-1.4-6.8-3.8-9-5.3-2.2-1.5-7.8-6-12.5-9.9-4.7-4-8.4-7.7-8.3-8.2 0.2-0.5 0-0.8-0.5-0.6-0.4 0.1-3.4-2-6.6-4.8-3.3-2.7-9.8-8.4-14.6-12.5-4.7-4.1-16.7-14.5-26.6-23-9.8-8.5-20.1-17.5-22.9-20-2.7-2.5-10-8.8-16-14-6-5.2-13.3-11.4-16-13.9-2.8-2.6-12.7-11.1-22-19.1-9.2-8-22.5-19.5-29.4-25.5-6.9-6.1-14.2-12.4-16.2-14-2-1.7-12.3-10.7-23-20-10.7-9.4-24.3-21.3-30.4-26.5-6-5.2-15-13.1-20-17.4-4.9-4.4-9.9-8.8-11-9.8-1.1-1.1-7.4-6.5-14-12-6.6-5.6-14.5-12.3-17.5-14.9-3-2.6-11.2-9.6-18.1-15.6-6.9-5.9-19-16.4-26.9-23.3-7.9-6.9-17.6-15.2-21.4-18.4-3.9-3.3-14.1-12-22.6-19.5-8.5-7.4-20.5-18.5-26.5-24.6-8.3-8.2-12-12.8-14.7-18-2-3.9-4.6-10.6-5.9-15-1.8-6.7-2.1-9.7-1.6-18 0.3-6.9 1.2-11.9 2.8-16 1.2-3.3 3.6-8.2 5.3-11 1.6-2.7 4.7-7 6.7-9.5 2.1-2.5 7.9-8.1 13-12.5 5.1-4.4 14.7-12.7 21.3-18.6 6.7-5.8 24.5-21.2 39.6-34.3 15.1-13.1 31.8-27.5 37-32 5.2-4.4 12.1-10.6 15.5-13.6 3.3-3 12.1-10.7 19.4-17 7.4-6.3 20.6-17.8 29.5-25.5 8.9-7.8 28.5-24.8 43.6-38 15.1-13.1 36.9-32 48.4-41.9 11.5-10 24.8-21.5 29.5-25.6 4.7-4.1 11.7-10.2 15.5-13.5 3.8-3.3 9-7.8 11.6-10 2.6-2.2 11.2-9.6 19.1-16.3 7.9-6.8 16-13.8 17.9-15.6 1.9-1.7 8.2-7.3 14-12.3 5.8-5 16.6-14.3 24-20.8 7.4-6.4 16.2-14 19.5-16.9 3.3-2.9 8.2-7 11-9.1 2.7-2.1 8.2-5.3 12-7.1 3.8-1.8 9.7-3.9 13-4.8 3.3-0.8 9.2-1.5 13-1.5zm-9 59.5c-1.7 1.6-7.8 7-13.5 11.9-5.8 5-15.2 13.2-21 18.2-5.8 5-18.2 15.7-27.5 23.8-9.3 8.1-21.7 18.8-27.5 23.9-5.7 5-17.2 15-25.5 22.1-8.3 7.1-23.6 20.4-34.1 29.5-10.4 9-31.3 27.3-46.4 40.5-15.1 13.2-34.2 29.9-42.5 37-8.3 7.1-27.2 23.6-42 36.5-14.8 12.9-34.8 30.4-44.4 38.9-9.7 8.4-28.9 25.1-42.6 37.1-13.8 11.9-30.8 26.8-38 33.1-7.1 6.3-13.6 12.6-14.5 14.1-1.4 2.5-1.3 3 0.5 6.4 1.2 2.2 12 12.4 27.4 25.8 14 12.1 29.8 25.9 35.1 30.6 5.3 4.7 15 13 21.6 18.5 6.5 5.5 14.4 12.3 17.4 15 3.1 2.8 8.2 7.3 11.5 10.2 3.3 2.8 16.3 14 28.9 25 12.6 10.9 28.8 24.7 36 30.7 7.2 6 16.5 13.9 20.6 17.5 4.1 3.7 10.4 9.1 14 12.1 3.6 3 10.3 8.9 15 13 4.7 4.1 11.4 10 15 13 3.6 3 13.4 11.5 21.9 19 8.5 7.4 22 19.1 30 26 7.9 6.9 16.3 14.1 18.6 16 2.3 1.9 14.5 12.5 27.1 23.5 12.5 11 28.5 25 35.4 31 7 6 19.1 16.6 27 23.5 7.9 6.9 16.2 13.7 18.4 15.2 2.3 1.6 5.4 2.8 7.1 2.8 1.7 0 4.6-1 6.5-2.2 1.9-1.1 11.8-9.3 22-18.2 10.2-8.9 31.1-27.1 46.6-40.6 15.4-13.5 35.9-31.2 45.4-39.5 9.6-8.2 19.9-17.2 23-20 3.1-2.7 11.8-10.4 19.4-17 7.6-6.6 17.7-15.4 22.5-19.5 4.8-4.1 12.9-11.1 18-15.5 5.1-4.4 15.7-13.6 23.5-20.4 7.7-6.8 21.3-18.7 30-26.5 8.8-7.7 17.7-15.5 19.7-17.1 2.1-1.6 11.8-10 21.6-18.5 9.8-8.5 25.9-22.4 35.7-31 9.8-8.5 26.9-23.4 38-33 11-9.6 27.4-24 36.6-32 9.1-8 17.4-16.1 18.4-18 1.2-2.2 1.7-4.4 1.3-6-0.3-1.4-2.1-4.1-3.9-6-1.8-1.9-9.6-9-17.3-15.7-7.7-6.7-18.1-15.7-23.1-20-5.1-4.3-13.8-11.8-19.5-16.8-5.7-5-23-20-38.4-33.4-15.4-13.4-29.3-25.7-31-27.2-1.7-1.5-6.9-6.1-11.6-10.1-4.7-4-18.2-15.6-30-25.8-11.8-10.1-28.4-24.5-36.9-31.9-8.5-7.4-16.8-14.7-18.5-16.2-1.7-1.6-6.9-6.1-11.6-10.1-4.7-4-13.2-11.3-19-16.3-5.7-4.9-14.5-12.6-19.4-17-4.9-4.4-15.2-13.4-22.9-20-7.6-6.6-15.7-13.6-18-15.5-2.2-1.9-11.1-9.5-19.6-16.9-8.5-7.4-20.2-17.5-26-22.6-5.8-5.1-17.9-15.7-27-23.6-9.1-7.9-19.2-16.7-22.5-19.5-3.3-2.8-7-5.6-8.3-6.3-1.2-0.6-3-1.1-4-1.1-0.9 0-2.6 0.6-3.7 1.4-1.1 0.7-3.4 2.6-5 4.2zm-462.6 451.9c1.4 0.4 3.3 1.2 4.1 1.9 0.8 0.7 8.5 7.3 17 14.8 8.5 7.4 20.7 17.9 27.1 23.4 6.3 5.4 16.4 14.2 22.4 19.4 6 5.2 20.1 17.5 31.4 27.4 11.3 9.8 26.6 23.1 34 29.5 7.4 6.4 17.5 15.2 22.5 19.6 5 4.4 18.9 16.6 31 27 12 10.5 27.4 23.7 34.1 29.5 6.7 5.8 24.7 21.5 40.1 35 15.3 13.4 36.4 31.9 46.9 41 10.5 9.1 25.5 22.2 33.5 29.1 8 6.9 26 22.4 40 34.5 14.1 12 28.7 24 32.5 26.5 3.9 2.5 10.2 6.1 14 7.9 3.8 1.8 9.5 4.1 12.5 5.1 3 1.1 9.1 2.6 13.5 3.4 4.4 0.7 11.5 1.5 15.7 1.7 4.2 0.2 8 0 8.4-0.4 0.4-0.5 1.9-0.8 3.3-0.8 1.4 0 6.2-1 10.6-2.1 4.4-1.2 8.8-2.2 9.8-2.3 0.9 0 1.7-0.4 1.7-0.8 0-0.5 1-1.1 2.3-1.5 1.2-0.3 5.7-2.6 10-5 4.2-2.4 10-6 12.8-8 2.8-2.1 5.6-3.7 6.2-3.5 0.7 0.2 0.9 0.1 0.5-0.2-0.5-0.3 2.9-3.9 7.5-7.9 4.5-3.9 11.4-9.9 15.2-13.2 3.8-3.3 14-12 22.4-19.5 8.5-7.4 17.2-14.8 19.2-16.5 2.1-1.7 7.5-6.3 12.1-10.4 4.6-4.1 12.8-11.3 18.2-16 5.4-4.7 14-12.2 19.1-16.6 5-4.4 15.2-13.2 22.6-19.7 7.4-6.4 17.3-14.9 22.1-19 4.8-4 14-12 20.5-17.8 6.5-5.8 18.4-16.1 26.3-23 7.9-6.9 20.1-17.4 27-23.3 6.9-6 17-14.8 22.5-19.6 5.5-4.8 17-14.8 25.5-22.1 8.5-7.4 22.3-19.3 30.5-26.5 8.3-7.2 18.2-15.7 22.1-19 3.8-3.3 13.7-11.8 21.9-19 8.2-7.1 20.3-17.7 27-23.5 6.6-5.8 14-12.1 16.5-14.1 2.5-2 5.4-3.9 6.5-4.3 1.1-0.4 3.2-0.2 4.8 0.4 1.8 0.7 3.4 2.6 4.9 5.8 1.9 4 2.2 6.4 2.2 16.2-0.1 9.1-0.6 12.8-2.3 18-1.2 3.6-3.9 9.4-6 13-2.4 4-7.6 10.2-13.7 16.1-5.4 5.3-14.4 13.7-20 18.5-5.6 4.9-12.8 11.2-16 14-3.2 2.7-16.5 14.2-29.4 25.5-13 11.2-33 28.5-44.4 38.4-11.5 9.9-25.7 22.3-31.6 27.5-5.9 5.2-13.3 11.8-16.6 14.6-3.2 2.8-12.9 11-21.4 18.3-8.5 7.3-19.5 16.7-24.4 20.9-4.9 4.2-16.6 14.5-26.1 22.7-9.4 8.3-23.4 20.4-31 27-7.7 6.6-16.4 14.3-19.5 17-3.1 2.8-13.2 11.5-22.5 19.5-9.2 8-20.7 17.9-25.5 22-4.7 4.1-16.2 14-25.5 22-9.2 8-19.8 17.2-23.5 20.5-3.6 3.3-12.4 11-19.4 17-7.1 6-13.2 10.9-13.7 10.8-0.5-0.2-0.8 0.1-0.6 0.6 0.1 0.5-1.8 2.4-4.3 4.3-2.5 1.9-6.8 4.7-9.5 6.4-2.8 1.6-6.6 3.7-8.5 4.6-1.9 1-6.2 2.7-9.5 3.8-3.3 1.2-9.4 2.4-13.5 2.7-4.7 0.4-9.9 0.1-14-0.7-3.6-0.7-9.4-2.4-13-3.8-3.6-1.4-9.3-4.3-12.7-6.4-3.5-2.1-8-5-10.1-6.5-2.1-1.6-15-12.5-28.7-24.4-13.8-11.9-30.4-26.3-37-32-6.6-5.7-24.2-20.9-39-33.7-14.8-12.9-33.7-29.3-42-36.5-8.2-7.1-19-16.5-24-20.7-5-4.3-16.4-14.3-25.5-22.2-9.1-7.9-25.3-21.9-36-31.2-10.7-9.2-27.2-23.4-36.5-31.6-9.3-8.1-22.8-19.8-30-26-7.2-6.1-17-14.6-21.9-18.8-4.9-4.2-13-11.3-18-15.7-5-4.4-15.6-13.6-23.6-20.5-8-6.8-23.2-20.1-33.9-29.5-10.7-9.3-22.1-20.1-25.4-24-3.2-3.8-7.6-10.6-9.8-15-2.2-4.4-4.6-11.1-5.4-15-0.7-3.8-1.2-10.4-1.1-14.5 0.2-4.1 0.9-9.4 1.5-11.7 0.7-2.8 2.3-5.2 4.3-6.9 2.3-1.9 3.8-2.4 5.7-1.9zm550.6-284c9.2 0.2 17.1 1 23 2.4 4.9 1.1 13.5 3.7 19 5.8 5.5 2.2 13.6 5.8 18 8.2 4.4 2.4 11.4 6.7 15.5 9.4 4.1 2.8 12.7 10.2 19 16.6 8.2 8.3 13 14.1 16.5 20.1 2.7 4.6 6.9 13.6 9.2 20 2.2 6.3 4.9 16.2 5.8 22 1.3 7.6 1.6 13.1 1.2 20-0.4 5.2-1.8 14.2-3.1 20-1.4 5.8-4.5 15.5-6.9 21.5-2.4 6-6.2 14.6-8.4 19-2.1 4.4-6.1 12-8.7 17-2.7 5-10.5 19.1-17.4 31.5-6.9 12.4-15.2 26.5-18.5 31.5-3.3 5-7.8 11.3-10 14-2.2 2.8-6.1 7.2-8.6 9.8-2.5 2.7-8.2 7.7-12.6 11.2-4.4 3.4-11.6 8.1-16 10.3-4.4 2.2-11.6 5.1-16 6.5-4.4 1.5-11.6 3.3-16 4.2-4.7 1-13 1.7-20 1.7-7.4 0-15.3-0.6-20.5-1.6-4.7-1-12.1-2.9-16.5-4.3-4.4-1.4-11.4-4.1-15.5-6-4.1-1.9-9.8-4.8-12.5-6.5-2.8-1.7-8.1-5.2-12-7.7-3.8-2.5-10.9-8.4-15.8-13.1-4.9-4.7-11.2-11.4-13.9-15-2.7-3.6-7.3-11.5-10.3-17.5-3.1-6.3-6.5-15.2-8-21-1.9-7.2-2.8-13.7-3.2-23-0.3-7.9-0.1-15.4 0.6-19 0.6-3.3 1.9-7.1 2.9-8.5 1.1-1.4 3.4-3.6 5.3-4.8 2.7-1.9 4.4-2.3 8.4-2 3.8 0.3 7.5 1.7 15 5.9 5.5 3.1 13.2 7.3 17 9.4 3.8 2.1 9.2 5.2 11.9 6.9 2.7 1.7 5.3 4 5.9 5.1 0.5 1.1 1.2 2.9 1.5 4 0.3 1.1 0.5 6 0.3 11-0.2 6.5 0.3 10.7 1.6 15 1 3.3 3.5 8.5 5.5 11.5 2 3 5.1 6.9 7 8.6 1.8 1.7 6.9 5 11.3 7.3 4.4 2.3 10.9 4.8 14.5 5.7 3.8 1 8.8 1.4 12 1.2 3.2-0.3 8.3-1.8 12-3.5 3.6-1.6 8.9-5.2 11.9-7.9 3-2.7 8-8.3 11.1-12.4 3.1-4.1 7.2-10 9.2-13 1.9-3 6.9-11.1 11-18 4.1-6.9 9.4-16.1 11.7-20.5 2.4-4.4 6.3-11.4 8.7-15.5 2.3-4.1 7.4-14 11.3-22 3.8-8 8.6-19.2 10.5-25 3.2-9.4 3.6-11.6 3.6-21 0-8.9-0.4-11.3-2.3-15.5-1.3-2.7-4.9-7.9-8.1-11.5-3.7-4.2-7.8-7.5-11.4-9.4-3.2-1.6-8.4-3.8-11.7-4.9-4.3-1.5-8.5-2.1-15-2.1-8.4 0-9.7 0.3-19 4.3-5.5 2.4-11.7 4.8-13.7 5.5-2.9 0.8-4.5 0.8-7-0.1-1.8-0.7-8.2-4-14.3-7.4-6.1-3.3-14.5-7.9-18.8-10.2-4.3-2.3-9.4-5.8-11.3-7.7-2-2-3.7-5-4-7-0.4-1.9-0.4-4.7 0-6.2 0.3-1.6 2.3-4.6 4.3-6.9 2.1-2.3 6-5.6 8.8-7.3 2.7-1.8 7.9-4.9 11.5-6.8 3.6-2 9.9-4.8 14-6.2 4.1-1.5 11.6-3.5 16.5-4.6 7.2-1.5 11.9-1.9 23-1.5zm-141 61.6c5.5-0.1 14 0.6 19 1.5 5 0.9 13 2.9 18 4.6 4.9 1.6 13.5 5.1 19 7.7 5.5 2.7 14.1 7.6 19 11 4.9 3.4 12.6 9.4 16.9 13.4 4.4 3.9 10.8 11 14.4 15.7 3.5 4.7 8.6 13 11.2 18.5 2.7 5.5 6.1 14.5 7.5 20 2 7.5 2.8 13.4 3.2 23.5 0.3 8.5 0.1 15.7-0.6 19.5-0.7 3.3-2.2 7.3-3.4 8.9-1.2 1.7-4 3.8-6.2 4.8-2.2 1-5.1 1.8-6.5 1.8-1.4 0-5.2-1.4-8.5-3.1-3.3-1.7-7.1-3.7-8.5-4.4-1.4-0.8-8.3-4.6-15.5-8.6-7.2-4-13.8-7.9-14.9-8.8-1-0.9-2.5-2.9-3.4-4.6-1.1-2.1-1.5-6.5-1.7-15-0.1-6.6-0.7-13.6-1.3-15.5-0.6-1.9-3.9-7.3-7.4-11.9-6-8.1-6.8-8.7-16.8-13.9-10.1-5.3-10.8-5.5-20-5.9-8.8-0.5-10-0.3-16.4 2.3-4.1 1.7-9.3 4.9-12.6 7.9-3.1 2.8-9.1 9.5-13.2 15-4.1 5.5-11.8 17.2-17 26-5.3 8.8-12.9 22.1-17.1 29.5-4.1 7.4-10.2 18.9-13.5 25.5-3.3 6.6-7.3 15.2-9 19-1.7 3.9-4.1 10.2-5.4 14-1.9 5.8-2.3 9.1-2.3 19 0 11.6 0.1 12.2 3.2 18 1.8 3.3 5 7.8 7 9.9 2.1 2.2 6 5.3 8.8 7.1 2.7 1.7 8.6 4.4 13 5.9 7.1 2.5 9.1 2.8 17.5 2.4 6.1-0.2 10.8-0.9 13-2 1.9-0.9 6.8-3 10.7-4.7 4-1.7 8.8-3.2 10.5-3.2 1.8-0.1 4.4 0.3 5.8 0.9 1.4 0.5 9.5 4.8 18 9.5 8.5 4.7 17.5 9.8 19.9 11.4 2.4 1.5 5.2 3.9 6.3 5.3 1.1 1.4 2.2 4.5 2.5 7 0.4 3 0.1 5.5-1 7.5-0.8 1.7-2.6 4-3.9 5.1-1.2 1.2-5.9 4.6-10.3 7.5-4.4 2.9-11.4 6.8-15.5 8.7-4.1 1.8-11.5 4.5-16.5 5.8-5 1.3-13.5 2.9-19 3.4-7.3 0.8-12.7 0.8-20 0-5.5-0.7-14-2.2-19-3.5-5-1.2-13.3-4-18.5-6.2-5.2-2.2-14-6.5-19.5-9.8-5.5-3.2-14-9-19-13-5-3.9-12.2-11-16.1-15.6-3.9-4.6-8.9-11.5-11.2-15.4-2.2-3.8-5.4-10.4-7-14.5-1.6-4.1-3.9-10.6-5-14.5-1.2-3.8-2.6-11.3-3.3-16.5-0.6-5.2-0.8-13.1-0.5-17.5 0.4-4.4 1.8-12.7 3.3-18.5 1.4-5.8 4.7-16 7.4-22.7 2.7-6.8 7.6-17.6 11-24 3.3-6.5 6.4-12.3 6.8-12.8 0.5-0.5 2.5-4.4 4.6-8.5 2.1-4.1 5.3-10 7-13 1.8-3 5.9-10.2 9.1-16 3.2-5.8 7.8-13.6 10.3-17.5 2.4-3.8 7.5-11 11.2-16 3.7-5 10.4-12.6 15-17 4.6-4.5 11.6-10.1 15.4-12.6 3.8-2.5 9-5.5 11.5-6.6 2.5-1.1 8.8-3.5 14-5.2 5.2-1.7 13.1-3.7 17.5-4.5 4.4-0.8 12.5-1.5 18-1.5z"/>
</svg>