<svg version="1.2" xmlns="http://www.w3.org/2000/svg" viewBox="0 0 2560 1440" width="2560" height="1440">
	<title>Nouveau projet</title>
	<style>
		.s0 { fill: #666666 } 
		.s1 { fill: #f5f5f5 } 
		.s2 { fill: #000000 } 
		.s3 { fill: #ffe6cc } 
		.s4 { fill: #314354 } 
		.s5 { fill: #647687 } 
		.s6 { fill: #ffffff } 
		.s7 { fill: #d79b00 } 
		.s8 { fill: #432d57 } 
		.s9 { fill: #76608a } 
		.s10 { fill: #ff9933 } 
		.s11 { fill: #006633 } 
		.s12 { fill: #990000 } 
	</style>
	<g id="zephyr_project_struct">
		<path id="Path 0" class="s0" d="m1 0h832v114h-832v-57z"/>
		<path id="Path 1" class="s1" d="m10 9h814v96h-814v-48z"/>
		<path id="Path 2" class="s2" d="m540 49h5v22h-5v-11zm-73 0h6v22h-6v-11zm122.5-1c1.1 0 3 0.7 4.3 1.5 2 1.4 2.2 2.2 2.2 21.5h-2.5c-2.5 0-2.5-0.2-2.8-8.6-0.2-7-0.5-8.9-2-9.8-1.2-0.8-2.2-0.8-3.5 0-1.4 0.9-1.7 2.8-2.2 18.4h-6v-22h2.5c1.4 0 2.6 0.6 2.8 1.3 0.2 0.9 1 0.7 2.8-0.6 1.3-0.9 3.3-1.7 4.4-1.7zm-27 0.4c2.8 0.3 4.8 1.4 6.8 3.5 2.1 2.4 2.7 4.1 2.7 7.6 0 3.3-0.6 5.3-2.5 7.5-1.7 2-3.8 3.2-6.3 3.6-2.2 0.3-4.9 0-6.6-0.8-1.7-0.7-3.8-2.6-4.8-4.3-1-1.7-1.8-4.2-1.8-5.7 0-1.6 0.7-4.1 1.5-5.8 0.8-1.6 2.7-3.7 4.2-4.5 1.8-1 4.3-1.4 6.8-1.1z"/>
		<path id="Path 3" class="s1" d="m561.6 52c1.4 0 3.1 1 3.9 2.3 0.8 1.2 1.5 3.6 1.5 5.2 0 1.6-0.7 4-1.5 5.3-0.8 1.2-2.5 2.2-3.8 2.2-1.2 0-3-0.8-4-1.8-1-1-1.8-3.3-1.9-5.6q-0.2-3.9 1.7-5.8c1-1 2.9-1.8 4.1-1.8z"/>
		<path id="Path 4" class="s2" d="m511 48c2-0.1 4.5 0.7 6 1.9 2.3 1.7 2.5 2.8 3.5 21.1h-2.8c-1.5 0-2.8-0.5-3-1.1-0.1-0.9-0.8-0.9-2.5 0-1.2 0.6-3.2 1.1-4.5 1.1-1.2 0-3.2-0.7-4.5-1.5-1.5-1-2.2-2.5-2.2-4.8-0.1-1.7 0.5-3.8 1.2-4.4 0.7-0.7 3.5-1.9 6.3-2.6 3.8-1 5-1.8 5-3.3 0-1.3-0.8-2-2.5-2.2-1.4-0.2-2.9 0.3-3.5 1.2-0.6 0.8-1.9 1.3-3.3 1-1.2-0.2-2.2-0.7-2.2-1.2 0-0.4 0.4-1.2 0.8-1.7 0.4-0.6 1.6-1.6 2.7-2.2 1.1-0.7 3.6-1.3 5.5-1.3z"/>
		<path id="Path 5" class="s1" d="m513.3 60.1c0.4 0 0.7 0.9 0.7 2.1 0 1.3-0.5 2.9-1.2 3.5-0.7 0.7-1.9 1.3-2.8 1.3-0.8 0.1-2.1-0.6-2.7-1.5-0.9-1.1-1-1.9-0.2-2.9 0.5-0.8 2-1.7 3.2-1.9 1.2-0.2 2.5-0.5 3-0.6z"/>
		<path id="Path 6" class="s2" d="m488.5 48c1.6 0 4.2 0.8 5.8 2 1.5 1.1 2.7 2.5 2.7 3 0 0.5-1 1.2-2.3 1.5-1.2 0.2-2.9-0.2-3.7-1-0.8-0.8-2.3-1.5-3.3-1.5-0.9 0-2.5 1.2-3.4 2.8-1.2 1.9-1.4 3.7-1 6.2 0.4 1.9 1.3 4.1 2 4.8 0.6 0.7 2.2 1.3 3.4 1.2 1.4 0 2.5-0.8 2.8-2 0.4-1.6 1-1.9 3.3-1.4 1.5 0.4 2.8 0.7 3 0.8 0.1 0.1-0.7 1.3-1.8 2.9-1.3 1.8-3.3 2.9-5.8 3.3-2.5 0.4-4.8 0.1-7-1-1.7-0.9-3.6-2.7-4.2-4.1-0.6-1.4-1-4.1-1-6 0-1.9 0.4-4.6 1-6 0.6-1.4 2.2-3.2 3.8-4 1.5-0.8 4.1-1.5 5.7-1.5zm-46.8 0c0.7 0 2.7 0.7 4.3 1.5 1.9 0.9 3.4 2.7 4 4.8 0.6 1.7 1 4.2 1 5.5 0 1.2-0.7 3.7-1.4 5.5-0.9 1.9-2.8 3.8-4.8 4.6-2.9 1.3-3.6 1.3-8.8-1.9v5.5c0 5.4 0 5.5-6 5.5v-30h2.5c1.4 0 2.6 0.6 2.8 1.3 0.2 0.9 1 0.7 2.8-0.6 1.3-0.9 3-1.7 3.6-1.7z"/>
		<path id="Path 7" class="s1" d="m440.7 52c1.3 0 2.7 0.9 3.3 2 0.6 1.1 1 3.6 1 5.5 0 1.9-0.4 4.4-1 5.5-0.6 1.2-2 2-3.5 2-1.5 0-2.9-0.8-3.5-2-0.5-1.1-1.1-3.9-1.2-6.3-0.1-2.7 0.3-4.8 1.2-5.5 0.8-0.7 2.4-1.2 3.7-1.2z"/>
		<path id="Path 8" class="s2" d="m416.3 48c0.9 0 2.6 0.5 3.7 1 1.1 0.5 2.7 2.4 3.5 4 0.8 1.6 1.5 4.7 1.5 6.8 0 2-0.9 5.2-2 7-1.2 1.9-3.1 3.5-4.8 3.8-1.5 0.3-3.7 0.1-5-0.5-1.2-0.6-2.4-0.8-2.7-0.3-0.3 0.4-0.5 2.6-0.5 5 0 4-0.1 4.2-6 4.2v-30h2.5c1.4 0 2.6 0.6 2.8 1.3 0.2 0.9 1 0.7 2.8-0.6 1.3-0.9 3.2-1.7 4.1-1.7z"/>
		<path id="Path 9" class="s1" d="m414.3 52c1.2 0 2.8 0.5 3.5 1.2 0.7 0.7 1.2 3.5 1.2 6.3 0 2.8-0.5 5.6-1.2 6.3-0.7 0.6-2 1.2-3 1.2-1 0-2.5-0.7-3.3-1.5-0.8-0.8-1.5-3.3-1.6-5.6 0-2.2 0.4-4.9 1-6 0.7-1 2.2-1.9 3.4-1.9z"/>
		<path id="Path 10" class="s2" d="m322.3 48c1.5 0 3.7 0.5 4.9 1.2 1.3 0.6 2.8 1.8 3.5 2.7 1 1.3 0.7 1.7-1.5 2.3-1.9 0.5-2.9 0.3-3.5-0.7-0.4-0.8-1.7-1.5-3-1.5-1.2-0.1-2.9 0.7-3.7 1.6-1 1.1-1.4 3.4-1.3 6.3 0.2 2.5 0.8 5.2 1.5 5.9 0.7 0.7 2.3 1.3 3.5 1.2 1.3 0 2.7-0.8 3.2-1.8 0.6-1 1.9-1.6 3.5-1.5 1.4 0.2 2.6 0.6 2.6 1 0 0.5-0.6 1.5-1.3 2.4-0.7 0.9-2.2 2.1-3.5 2.7-1.2 0.7-3.3 1.2-4.7 1.2-1.4 0-3.7-0.6-5.1-1.3-1.5-0.6-3.3-2.4-4-4-0.8-1.5-1.4-4.4-1.4-6.5 0.1-2 0.8-4.8 1.6-6.1 0.9-1.3 2.6-3 3.7-3.7 1.2-0.7 3.4-1.3 4.9-1.4zm-36.2 0.4c2.9 0.3 5 1.1 5.8 2.3 0.7 1 1.2 4.8 1.2 8.8 0 3.8 0.2 8 0.5 9.2 0.4 1.9 0.1 2.3-2 2.3-1.4 0-2.6-0.5-2.8-1.1-0.1-0.9-1.2-0.8-3.9 0.2-3 1.1-4.2 1.2-6.2 0.1-1.4-0.6-3.2-2.3-3.9-3.6-1-2.1-0.9-2.9 0.5-5 1.2-1.8 3.6-3.1 7.3-4.1 4.1-1.1 5.4-1.9 5-3-0.3-0.8-0.5-1.7-0.5-2 0-0.3-1.2-0.5-2.8-0.5-1.5 0.1-3.1 0.7-3.7 1.5-0.6 0.9-1.9 1.3-3.3 1-1.9-0.4-2-0.8-1-2.6 0.7-1.1 2.1-2.4 3.3-2.9 1.1-0.6 4-0.8 6.5-0.6z"/>
		<path id="Path 11" class="s1" d="m286.6 60.1c0.6-0.1 0.9 1.1 0.6 2.6-0.2 1.6-0.8 3.1-1.3 3.6-0.5 0.4-1.9 0.6-3.1 0.5q-2.3-0.3-2.6-2.6c-0.1-1.6 0.5-2.4 2.5-3.1 1.6-0.5 3.3-1 3.9-1z"/>
		<path id="Path 12" class="s2" d="m530.8 43c0.7 0 1.2 1.3 1.2 3 0 2.3 0.4 3 2 3q2 0 2 2 0 2-2 2c-1.8 0-2 0.7-2 7 0 6.3 0.2 7 2 7q2 0 1.7 1.8c-0.1 1.1-1.3 1.8-3.2 2-1.9 0.2-3.7-0.4-4.8-1.5-1.4-1.4-1.8-3.4-1.7-9.1 0-5.7-0.3-7.2-1.5-7.2-0.8 0-1.5-0.9-1.5-2 0-1.1 0.7-2 1.5-2 0.9 0 1.4-0.8 1.3-2-0.1-1 0.7-2.4 1.8-2.9 1-0.6 2.5-1.1 3.2-1.1zm-226.5 0c0.4 0 0.7 1.4 0.7 3 0 2.3 0.4 3 2 3q2 0 2 2 0 2-2 2c-1.8 0-2 0.7-2 6.5 0 5.6 0.3 6.6 2.1 7.3 1.1 0.4 1.9 1.4 1.7 2.2-0.2 0.8-1.3 1.6-2.6 1.7-1.2 0.2-3.1-0.2-4.2-0.7-1.7-0.9-2-2-2-9 0-6.4-0.3-8-1.5-8-0.8 0-1.5-0.9-1.5-2 0-1.1 0.7-2 1.5-2 0.9 0 1.4-0.8 1.3-2-0.1-1 0.7-2.4 1.8-2.9 1-0.6 2.2-1.1 2.7-1.1zm238.2-2c1.8 0 2.5 0.5 2.5 2 0 1.5-0.7 2-2.5 2-1.8 0-2.5-0.5-2.5-2 0-1.5 0.7-2 2.5-2zm-72.5 0c2.3 0 3 0.4 3 2 0 1.6-0.7 2-3 2-2.3 0-3-0.4-3-2 0-1.6 0.7-2 3-2zm-14 0h5v30h-5v-15zm-66 0l4.6 12.8c2.5 7 4.7 13.7 5 14.9 0.3 1.9 0 2.3-2.3 2.3-2.3 0-3-0.6-4-3.5-1.3-3.5-1.3-3.5-7.5-3.5-6.2-0.1-6.3 0-7.3 3.2-0.9 2.7-1.6 3.3-7.5 3.8l4.4-12.3c2.4-6.7 4.9-13.4 5.5-15 0.9-2.3 1.6-2.7 9.1-2.7z"/>
		<path id="Path 13" class="s1" d="m386.1 48c0.7 0 1.6 1.9 2.2 4.3 0.5 2.3 1.1 4.8 1.3 5.5 0.3 0.8-1 1.2-8.6 1.2l1.5-4.3c0.9-2.3 1.7-4.8 2-5.5 0.2-0.6 1-1.2 1.6-1.2z"/>
		<path id="Path 14" class="s2" d="m337 41h2.5c2.3 0 2.5 0.4 2.5 4.5 0 3.9 0.2 4.4 1.8 3.9 0.9-0.4 2.8-0.9 4.2-1.1 1.5-0.3 3.6 0.3 5.3 1.6 2.6 2 2.7 2.4 2.7 21.1h-6l-0.3-9.3c-0.2-8.4-0.4-9.2-2.2-9.5-1.1-0.1-2.7 0.2-3.5 0.8-1.1 0.7-1.6 3.2-1.8 9.5-0.2 8.3-0.2 8.5-5.2 8.5v-15zm-99.1 0c3.1 0 3.1 0.1 4.8 8.2 1 4.5 2.2 8.3 2.8 8.5 0.6 0.2 2.1-3.5 6-16.8l3.4 0.3c3.4 0.3 3.5 0.4 5.5 8.2 1.2 4.4 2.7 8.1 3.3 8.3 0.9 0.2 1.9-2.5 3.1-7.9 1.6-7.8 1.9-8.3 4.5-8.5 1.5-0.2 2.7 0.2 2.7 0.7 0 0.5-1.7 7.3-3.8 15-3.6 13.8-3.8 14-6.5 14-2.2 0-2.9-0.6-3.6-3.2-0.6-1.8-1.8-6.1-2.8-9.6-1-3.4-2.2-6.2-2.8-6.2-0.6 0-2.1 4.3-6 19h-6.5l-3.1-13.2c-1.6-7.3-3.3-14.1-3.6-15-0.4-1.5 0.1-1.8 2.6-1.8z"/>
		<ellipse id="Path 15" class="s2" cx="1401.5" cy="1157" rx="2.5" ry="2"/>
		<ellipse id="Path 16" class="s2" cx="490.5" cy="1157" rx="2.5" ry="2"/>
		<path id="Path 17" class="s3" d="m1327 1129.5c229.1 0 322.7 0.1 208 0.2-114.7 0.2-302.1 0.2-416.5 0-114.4-0.1-20.6-0.2 208.5-0.2z"/>
		<path id="Path 18" class="s4" d="m911 1015h832v114h-832v-57z"/>
		<path id="Path 19" class="s5" d="m920 1024h814v96h-814v-48z"/>
		<path id="Path 20" class="s6" d="m1405.7 1064h3.9c3.1 0 4.2 0.4 5.4 2.5 0.8 1.4 1.7 2.6 2 2.6 0.3 0 1.2-1.2 2-2.6 1.2-2 2.3-2.5 9-2.5l-3.5 4.8c-1.9 2.6-3.4 5-3.5 5.5 0 0.4 1.6 2.8 3.5 5.5 1.9 2.6 3.4 5 3.5 5.5 0 0.4-1.6 0.7-3.5 0.7-2.8 0-3.8-0.6-7-6.1l-2.5 3.1c-2 2.6-3.1 3.1-9.1 2.5l3.5-5c2-2.8 3.5-5.4 3.4-5.9-0.2-0.4-1.8-3-3.7-5.7zm-19.3 0c2.9 0 3.9 0.5 6.9 5.5l2.1-2.8c1.7-2.2 2.8-2.7 8.6-2.2l-6.8 10 7.8 11-3.2 0.3c-2.7 0.3-3.7-0.3-8.5-6.3l-1.9 3.2c-1.5 2.7-2.5 3.3-5.1 3.3-1.8 0-3.3-0.2-3.3-0.5 0-0.3 1.6-2.9 6.9-11l-2.8-4c-1.5-2.2-3.1-4.6-3.5-5.3-0.6-0.9 0.2-1.2 2.8-1.2zm-22.9 0c2.8 0 3.8 0.6 6.7 5.5l2.2-2.8c1.7-2.3 2.8-2.8 8.7-2.2l-7 10 7.9 11.5h-3.7c-3.2 0-4.1-0.5-7.6-6.5l-1.8 2.5c-1 1.4-1.9 2.8-1.9 3.2 0 0.4-1.8 0.8-8 0.8l7.9-11.5-3.4-4.5c-1.9-2.5-3.4-4.9-3.5-5.3 0-0.4 1.6-0.7 3.5-0.7zm-17.1-8c2 0 4.7 0.5 6.1 1.2 1.4 0.7 3.1 2.5 3.7 4 0.7 1.7 0.9 3.8 0.4 5.5-0.4 1.5-3.3 5.2-12.1 13.3h12v6h-20.5l1.6-3.8c0.8-2 4.2-6.5 7.5-10 3.2-3.4 5.9-6.4 5.9-6.7 0-0.3-0.4-1.4-1-2.5-0.5-1.1-1.9-2-3-2-1.1 0-2.5 1.1-3.2 2.5-0.9 1.8-2.1 2.5-4 2.5-2.2 0-2.8-0.5-2.7-2.1 0-1.1 1.3-3.4 2.9-5 2.1-2.1 3.8-2.9 6.4-2.9zm-29.2 0h15.8v3c0 3 0 3-5.5 3-3 0-5.5 0.2-5.5 0.5 0 0.3-0.2 1.2-0.5 2-0.4 1.1 0.3 1.5 3 1.5 2.6 0 4.3 0.8 6.5 3q3 3 3 6c0 1.6-0.7 4.3-1.5 6-0.8 1.6-2.4 3.4-3.5 4-1.1 0.5-3.6 1-5.5 1-2.5 0-4.3-0.8-6.5-3-1.6-1.7-3-3.9-3-5 0-1.5 0.7-2 2.8-2 1.8 0 3 0.7 3.7 2.2 0.6 1.3 1.8 2.4 2.8 2.5 0.9 0.2 2.4-0.4 3.2-1.2 0.8-0.8 1.5-2.4 1.5-3.5 0-1.1-0.8-2.7-1.7-3.6-1.1-1-2.5-1.3-3.8-0.9-1.1 0.4-3.5 1-5.4 1.3-3.1 0.6-3.4 0.5-2.8-1.3 0.3-1.1 1.1-5.1 1.7-8.8zm-28.2 0h21v2.5c0 2.5-0.2 2.5-14 2.5v7h6c5.8 0 6 0.1 6 2.5 0 2.4-0.2 2.5-12 2.5v13h-7v-15zm-29.9-0.1l10.2 0.3c8.4 0.1 10.5 0.5 12 2 0.9 1 2 3.1 2.3 4.6 0.4 1.5 0.1 3.7-0.5 5-0.6 1.2-2.2 2.8-5.9 4.7l3.3 4.5c1.8 2.5 3.8 5.5 4.4 6.8 1.1 2.1 0.9 2.2-2.9 2.2-3.7 0-4.2-0.3-7.2-5.2-1.8-2.8-3.8-5.7-4.5-6.5-0.7-0.7-2.2-1.3-3.3-1.3-1.8 0-2 0.7-2 13h-6l0.1-15z"/>
		<path id="Path 21" class="s5" d="m1269.5 1061c2.5 0 5.2 0.2 6 0.5 0.8 0.3 1.5 1.3 1.5 2.3 0 0.9-0.5 2.3-1.2 3-0.7 0.6-3.4 1.2-10.8 1.2v-3.5c0-3.5 0-3.5 4.5-3.5z"/>
		<path id="Path 22" class="s6" d="m1228 1056h3.3c3-0.1 3.6 0.5 8.4 8.5 2.9 4.7 5.8 8.3 6.3 8 0.5-0.3 1-4.1 1-16.5h6v30h-3.5c-3.3 0-3.8-0.4-8.3-8-2.6-4.3-5.3-7.9-5.9-8-0.9 0-1.3 2.2-1.3 16h-6v-15z"/>
		<path id="Path 23" class="s3" d="m1204.5 825c0.3 0 0.5 40 0.5 178l-294.5-0.5 293.5-0.5v-88.5c0-48.7 0.2-88.5 0.5-88.5z"/>
		<path id="Path 24" class="s7" d="m911 825h293v177h-293v-88.5z"/>
		<path id="Path 25" class="s3" d="m920 834h276v160h-276v-80z"/>
		<path id="Path 26" class="s2" d="m1073 975q2 0 2 2 0 2-2 2-2 0-2-2 0-2 2-2zm-35 0q2 0 2 2 0 2-2 2-2 0-2-2 0-2 2-2zm52.7-26c1.5-0.1 4 0.8 5.5 2 2.1 1.4 3.1 3.4 3.9 7.3 0.7 3.7 0.7 6.9 0 10.9-0.8 4.5-1.7 6.3-3.9 7.8-1.5 1.2-3.9 2.1-5.5 2-1.6 0-3.9-1.1-5.6-2.8-2-1.9-3.1-4.1-3.6-7.7-0.4-2.8-0.4-7 0-9.5 0.5-2.9 1.7-5.5 3.5-7.3 1.7-1.6 4-2.7 5.7-2.7z"/>
		<path id="Path 27" class="s3" d="m1090.4 952c1.1 0 2.6 0.4 3.2 0.8 0.6 0.4 1.6 1.7 2.3 3 0.6 1.2 1.1 4.9 1.1 8.2 0 3.3-0.6 7.2-1.3 8.6-0.6 1.4-2.1 2.8-3.2 3.1-1.1 0.3-3 0-4.3-0.6q-2.2-1.1-2.8-4.8c-0.4-2.1-0.4-6.3-0.2-9.5 0.3-3.1 1.1-6.3 1.8-7.2 0.7-0.9 2.2-1.6 3.4-1.6z"/>
		<path id="Path 28" class="s2" d="m1059.1 949c0.5 0 0.9 6.8 0.9 15 0 14.3-0.1 15-2 15-1.9 0-2-0.7-2-23l-2.2 1.5c-1.3 0.8-2.9 1.5-3.5 1.5-0.7 0-1.3-0.7-1.3-1.5 0-0.8 1.2-2.1 2.8-2.9 1.5-0.8 3.6-2.3 4.6-3.5 1-1.2 2.3-2.1 2.7-2.1zm-37.1 0c1.4 0 3.7 0.8 5.3 2 1.5 1.1 2.7 2.7 2.7 3.5 0 0.8-0.6 1.5-1.2 1.5-0.7 0-2.1-0.9-3-2-1-1.1-3-2-4.4-2-1.5 0-3.5 1-4.5 2.3-1.1 1.2-1.9 3.2-1.9 4.5 0 1.7 0.4 2 1.8 1.6 0.9-0.4 2.6-0.9 3.7-1.1 1.1-0.2 3.2 0 4.8 0.6 1.7 0.7 3.3 2.5 4.3 4.9 1.3 3 1.4 4.4 0.5 7.5-0.8 2.6-2.1 4.2-4.3 5.3-2.5 1.3-4.1 1.5-6.7 0.8-1.9-0.5-4.3-2.2-5.5-3.7-1.7-2.3-2.1-4.3-2.1-10.5 0-6 0.5-8.3 2-10.5 1.1-1.6 2.8-3.3 4-3.7 1.1-0.5 3.1-0.9 4.5-1z"/>
		<path id="Path 29" class="s3" d="m1021.3 962c1.2 0 3 0.8 4 1.8 1 0.9 1.8 3.1 1.7 4.7 0 1.6-0.7 4-1.5 5.3-0.8 1.2-2.5 2.2-3.7 2.2-1.3 0-2.8-0.4-3.4-0.8-0.6-0.4-1.6-1.7-2.3-3-0.6-1.2-1.1-3.1-1.1-4.2 0-1.1 0.9-2.9 2-4 1.1-1.1 3-2 4.3-2z"/>
		<path id="Path 30" class="s2" d="m1146.3 906.1c1.7-0.1 3.8 1 5.7 2.9 1.7 1.6 3 3.7 3 4.5 0 0.8 0.2 2.2 0.5 3 0.4 1.3-0.9 1.5-8 1.5-4.7 0-8.5 0.3-8.5 0.7-0.1 0.5 0.8 2 2 3.5 1.3 1.9 2.9 2.8 4.8 2.8 1.5 0.1 3.6-0.9 4.7-2 1.1-1.1 2.6-2.1 3.3-2 0.6 0 1.2 0.6 1.2 1.2 0.1 0.7-0.9 2.2-2.1 3.3-1.5 1.4-3.5 2-7.1 2-4.2 0-5.4-0.4-7.4-2.8-1.8-2-2.4-3.9-2.4-7.5 0-2.7 0.7-5.7 1.6-7 0.9-1.3 2.6-2.7 3.8-3.2 1.1-0.5 3.3-0.9 4.9-0.9z"/>
		<path id="Path 31" class="s3" d="m1146.1 909c1.9 0 3.4 0.8 4.4 2.3 0.8 1.2 1.5 2.5 1.5 3 0 0.4-2.7 0.7-6 0.7-4.5 0-6-0.4-6.1-1.4 0-0.8 0.7-2.2 1.6-3 0.9-0.9 3-1.6 4.6-1.6z"/>
		<path id="Path 32" class="s2" d="m1125.3 906.1c1.5-0.1 3.9 0.9 5.5 2.3 2.2 2 2.5 2.7 1.5 3.8-1.1 1.1-1.6 0.9-3.3-1-1.1-1.2-2.9-2.2-4-2.2-1.1 0-2.7 0.3-3.6 0.7-0.8 0.5-1.9 2.3-2.5 4-0.6 2.1-0.5 4.5 0.1 6.8 0.7 2.3 1.8 3.7 3.3 4.1 1.2 0.3 3.2 0.3 4.5 0 1.2-0.3 2.4-1.5 2.7-2.6 0.3-1.1 1.2-2 2-2 0.8 0 1.5 0.8 1.5 1.7 0.1 1-0.9 2.7-2.1 3.8-1.5 1.4-3.5 2-6.6 2-3.6 0-4.9-0.5-6.9-2.8-1.8-2-2.4-3.9-2.4-7.5 0-2.7 0.7-5.7 1.6-7 0.9-1.3 2.6-2.7 3.8-3.2 1.1-0.5 3.3-0.9 4.9-0.9zm-16.8-0.1c1.2 0 1.5 1.9 1.5 11 0 9.1-0.3 11-1.5 11-1.2 0-1.5-1.9-1.5-11 0-9.1 0.3-11 1.5-11zm-22.8 0.2c0.9 0.2 2.7 3.3 4.2 7.6 1.4 3.9 3.1 7.2 3.6 7.2 0.6 0 2-3.1 3.3-7 1.2-3.8 2.9-7.3 3.7-7.8 0.8-0.4 1.7-0.5 2-0.2 0.3 0.3-1.3 5.2-3.4 11-2.9 7.8-4.3 10.5-5.6 10.5-1.3 0-2.8-2.7-5.6-10-2.2-5.5-3.9-10.4-3.8-10.8 0-0.5 0.8-0.7 1.6-0.5zm-15.1-0.2c1.3 0 3.6 0.6 5.2 1.4 1.5 0.7 3.3 2.5 4 4 0.6 1.4 1.2 3.5 1.2 4.6 0 1.8-0.7 2-8 2-6.4 0-8 0.3-8 1.5 0 0.8 0.9 2.4 2 3.5 1.1 1.1 3.1 2 4.5 2 1.4 0 3.4-0.9 4.5-2 1.2-1.2 2.7-1.8 3.8-1.4 1.4 0.5 1.2 1-1.5 3.5-2.1 1.8-4.4 2.9-6.3 2.9-1.7 0-4.3-0.7-6-1.5-2-1-3.4-2.7-4.1-5.3-0.6-2-0.8-5.2-0.5-7 0.4-1.9 1.9-4.2 3.7-5.7 1.7-1.4 4.2-2.5 5.5-2.5z"/>
		<path id="Path 33" class="s3" d="m1071.5 909c1.4 0 3.2 0.7 4 1.5 0.8 0.8 1.5 2.2 1.5 3 0 1.2-1.3 1.5-6 1.5-3.3 0-6-0.4-6-1 0-0.5 0.9-1.9 2-3 1.1-1.1 3.1-2 4.5-2z"/>
		<path id="Path 34" class="s2" d="m994 906c1.4 0 4 0.9 5.8 2 2.2 1.4 3.4 3 3.8 5.3 0.3 1.7 0.3 4.9 0 7-0.4 2.7-1.4 4.2-3.8 5.8-2.5 1.5-4.3 1.9-7.3 1.5-2.2-0.3-4.8-1.4-5.8-2.3-1-1-2-3.4-2.3-5.3-0.4-1.9-0.3-5 0-6.8 0.4-2.2 1.6-3.8 3.8-5.2 1.8-1.1 4.4-2 5.8-2z"/>
		<path id="Path 35" class="s3" d="m993.9 909c1.4 0 3.4 0.8 4.4 1.8 1.2 1.1 1.7 3.1 1.7 6.2 0 2.8-0.7 5.2-1.8 6.3-0.9 1-2.8 1.8-4.2 1.8-1.4 0-3.4-1-4.5-2.2-1.3-1.3-2-3.5-2-5.9 0-2.3 0.7-4.6 1.9-5.9 1-1.2 3.1-2.1 4.5-2.1z"/>
		<path id="Path 36" class="s2" d="m1023.7 900c0.8 0 1.3 1.2 1.3 3q0 3 1.5 3c0.8 0 1.5 0.7 1.5 1.5 0 0.8-0.7 1.5-1.5 1.5-1.2 0-1.5 1.5-1.5 7.5 0 6.5 0.3 7.6 2 8.5 1.1 0.5 2 1.5 2 2 0 0.5-1.1 1-2.5 1-1.4 0-3.2-0.7-4-1.5-1.1-1.1-1.5-3.7-1.5-9.5 0-6.4-0.3-8-1.5-8-0.8 0-1.5-0.7-1.5-1.5 0-0.8 0.7-1.5 1.5-1.5 1 0 1.4-0.9 1.3-2.3-0.1-1.3 0.2-2.7 0.7-3 0.5-0.4 1.4-0.7 2.2-0.7zm8.3-2h7.7c4.3 0 8.9 0.6 10.2 1.3 1.3 0.6 3.4 2.5 4.5 4 1.4 1.9 2.2 4.7 2.4 8.5 0.2 4-0.2 6.7-1.5 9.2-1 2-3.3 4.3-5.3 5.2-2.4 1.2-5.9 1.8-18 1.8v-15z"/>
		<path id="Path 37" class="s3" d="m1036.3 900.8l6.1 0.4c5.2 0.5 6.4 0.9 8.5 3.4 2 2.5 2.3 3.7 2 9.1-0.3 4.8-0.9 6.7-2.7 8.5-1.8 1.8-3.6 2.4-14.2 2.8l0.1-12.1z"/>
		<path id="Path 38" class="s2" d="m1016.3 898c1.5 0 2.7 0.6 2.7 1.3 0 0.6-1.3 1.5-3 1.9-2.1 0.6-3 1.4-3 2.8q0 2 2 2c1.1 0 2 0.7 2 1.5 0 0.8-0.9 1.5-2 1.5-1.9 0-2 0.7-2 9.5 0 7.8-0.3 9.5-1.5 9.5-1.2 0-1.5-1.7-1.5-9.5 0-8.8-0.1-9.5-2-9.5-1.1 0-2-0.7-2-1.5 0-0.8 0.9-1.5 2-1.5 1.6 0 2-0.6 1.8-3-0.1-2 0.5-3.2 1.8-3.9 1-0.6 3.1-1.1 4.7-1.1zm-46.3 0.4c3.2 0.3 5.1 1.2 6.8 3 1.2 1.4 2.2 3.3 2.2 4.1 0 0.8-0.5 1.5-1 1.5-0.5 0-2.4-1.5-4.1-3.2-2.8-3-3.5-3.2-6.7-2.6-2.1 0.5-4.4 1.5-5.2 2.3-1.1 1.2-1.2 2-0.4 3.3 0.6 0.9 4.2 2.7 8 4 3.8 1.2 7.7 3 8.7 4 1 0.9 1.8 2.7 1.7 4 0 1.2-0.5 3.1-1 4.2-0.5 1.1-2.3 2.7-4 3.5-1.6 0.8-4.3 1.5-6 1.5-1.6 0-4.5-0.6-6.2-1.3-1.8-0.8-3.8-2-4.5-2.8-0.6-0.8-1.3-2.3-1.5-3.4-0.2-1.2 0.3-2 1.5-2.2 1-0.2 1.9 0.5 2.2 1.7 0.3 1.1 2 2.7 3.8 3.6 2 1.1 4.3 1.4 6.2 1 1.7-0.4 3.6-1.2 4.3-1.9 0.7-0.7 1.3-2.2 1.2-3.4 0-1.3-0.9-2.8-2-3.3-1.1-0.5-4.1-1.4-6.7-2-2.7-0.5-5.8-1.9-7-3-1.7-1.5-2.2-2.9-2-5.7 0.2-3.2 0.7-4.1 3.7-5.6 2.4-1.3 4.9-1.7 8-1.3zm136.8-42.3c1.2-0.1 3.5 0.6 5.2 1.4 1.8 0.9 3 2.3 3 3.5 0 1.1-0.6 2-1.2 2-0.7 0-1.9-0.9-2.5-2-0.8-1.3-2.4-2-4.3-2q-3 0-4.5 2.2c-0.8 1.3-1.5 3.9-1.5 5.8 0 1.9 0.7 4.5 1.5 5.7q1.5 2.3 4.5 2.3c2.1 0 3.5-0.8 4.8-2.6 1-1.6 2.2-2.4 3-2 0.9 0.4 0.9 1.2 0.2 2.8-0.6 1.3-2.1 2.9-3.5 3.5-1.4 0.7-3.4 1.3-4.5 1.3-1.1 0-3.1-0.6-4.5-1.3-1.4-0.6-3.2-2.7-4-4.5-0.8-1.7-1.5-4.1-1.5-5.2 0-1.1 0.8-3.5 1.7-5.4 1-1.8 2.7-3.8 3.8-4.4 1.1-0.6 3-1.1 4.3-1.1zm-15.8-0.1c1.9 0 2 0.7 2 11 0 10.3-0.1 11-2 11-1.9 0-2-0.7-2-11 0-10.3 0.1-11 2-11zm-37.5 0c0.8 0 1.5 0.5 1.5 1 0 0.6 0.9 0.6 2.5-0.1 1.3-0.7 3.1-0.9 4-0.5 0.8 0.3 1.5 1.1 1.5 1.6 0 0.5-1.2 1.1-2.7 1.2-1.8 0.2-3.2 1.2-4 2.8-0.7 1.4-1.3 5.5-1.3 9.2 0 5.4-0.3 6.8-1.5 6.8-1.2 0-1.5-1.9-1.5-11 0-9.1 0.3-11 1.5-11zm-15 0.4c2.7 0.3 4.8 1.3 6.3 3 1.6 1.9 2.2 3.9 2.2 7.1 0 2.5-0.5 5.4-1 6.5-0.5 1.1-2.3 2.7-4 3.5-1.7 0.8-3.9 1.5-5 1.5-1.1 0-3.2-0.6-4.6-1.2-1.5-0.7-3.3-2.5-4-4-0.8-1.6-1.4-4.3-1.4-6 0.1-1.8 0.8-4.4 1.6-5.7 0.9-1.3 2.6-3 3.7-3.8 1.4-0.8 3.8-1.2 6.2-0.9z"/>
		<path id="Path 39" class="s3" d="m1036.9 859c1.4-0.1 3.5 0.9 4.6 2.1 1.3 1.3 2 3.5 2 5.9 0 2.4-0.7 4.6-2 5.9-1.1 1.2-3.1 2.1-4.5 2.1-1.4 0-3.3-0.8-4.3-1.8-1.1-1.1-1.8-3.3-1.9-6.1-0.1-3.1 0.4-5 1.7-6.3 1-1 3-1.8 4.4-1.8z"/>
		<path id="Path 40" class="s2" d="m1091 848q2 0 2 2 0 2-2 2-2 0-2-2 0-2 2-2zm-9.4 0c1.2 0 1.4 2.6 1.4 15 0 12.7-0.2 15-1.5 15-0.8 0-1.5-0.5-1.5-1q0-1-2.5 0c-1.4 0.5-3.4 1-4.5 1-1.1 0-3.3-1.4-5-3-2.5-2.5-3-3.8-3-8 0-4.2 0.5-5.5 3-8 2.2-2.2 3.7-2.9 5.8-2.6 1.5 0.1 3.4 0.5 4.2 0.7 1.2 0.3 1.6-0.7 1.8-4.3 0.2-3.4 0.7-4.8 1.8-4.8z"/>
		<path id="Path 41" class="s3" d="m1074.8 859c1.2 0 2.9 1 3.7 2.3 0.8 1.2 1.5 3.8 1.5 5.7 0 1.9-0.7 4.5-1.5 5.8-0.9 1.3-2.5 2.2-4 2.2-1.4 0-3.2-0.7-4-1.5-0.8-0.8-1.8-2.5-2.1-3.8-0.3-1.2-0.3-3.7 0.1-5.4 0.4-1.8 1.5-3.7 2.4-4.2 0.9-0.6 2.6-1.1 3.9-1.1z"/>
		<path id="Path 42" class="s2" d="m1000.8 848c1.1-0.1 4.3 3.8 16.7 22.4l0.2-11.2c0.2-10.6 0.3-11.2 2.2-11.2 2 0 2.1 0.5 2.1 15 0 13.6-0.2 15-1.7 15-1.2 0.1-4.3-3.6-8.8-10.4-3.8-5.8-7.6-10.6-8.2-10.6-1 0-1.3 2.8-1.3 10.5 0 8.7-0.3 10.5-1.5 10.5-1.3 0-1.5-2.3-1.5-15 0-13.6 0.2-15 1.8-15z"/>
		<path id="Path 43" class="s3" d="m644.7 772.5c0.2 42.9 0.2 113.3 0 156.5-0.1 43.2-0.2 8.1-0.2-78 0-86.1 0.1-121.4 0.2-78.5z"/>
		<path id="Path 44" class="s8" d="m1197 578h538v114h-538v-57z"/>
		<path id="Path 45" class="s9" d="m1206 587h520v96h-520v-48z"/>
		<path id="Path 46" class="s6" d="m1428.9 626c3 0 4.8 0.7 6.6 2.5 1.4 1.4 2.3 3 2 3.5-0.3 0.5-1.1 1-1.8 1-0.6 0.1-2.1-0.9-3.2-2-1.1-1.1-2.8-2.1-3.8-2-0.9 0-2.6 0.9-3.7 2q-2 2-2 6 0 4 2 6c1.1 1.1 2.9 2 4 2 1.1 0 2.9-1.1 4-2.5 1.1-1.4 2.7-2.5 3.5-2.5 1 0 1.4 0.7 1 2.3-0.2 1.2-1.5 3-2.7 4-1.3 1-3.9 1.8-6.1 1.7-2.7 0-4.5-0.8-6.7-3-2.6-2.6-3-3.7-2.9-8.1 0-4.1 0.6-5.6 2.9-8 2.2-2.3 3.7-2.9 6.9-2.9zm-15.9 0c1.9 0 2 0.7 2 11 0 10.3-0.1 11-2 11-1.9 0-2-0.7-2-11 0-10.3 0.1-11 2-11zm-40.3 0.3l6.2-0.2c5.3-0.1 6.1 0.1 5.8 1.6-0.2 1.2-1 1.7-2.3 1.5-1.2-0.1-2.7 0.1-3.3 0.5-0.8 0.5-1.3 4-1.4 9.3-0.2 8-0.3 8.5-2.5 8.7-2.2 0.3-2.2 0.1-2.3-10.6zm-13.8-0.2c3.2 0 4.7 0.6 7 3 2.6 2.5 3 3.7 3 8 0 4.1-0.4 5.5-2.9 8-2.3 2.3-3.8 3-7 3-3.2 0-4.7-0.7-7.1-3-2.5-2.6-2.9-3.8-2.9-8.1 0.1-4.2 0.6-5.6 2.9-8 2.3-2.3 3.8-2.9 7-2.9z"/>
		<path id="Path 47" class="s9" d="m1359 629c1.1 0 2.9 0.9 4 2q2 2 2 6 0 4-2 6c-1.1 1.1-2.9 2-4 2-1.1 0-2.9-0.9-4-2q-2-2-2-6 0-4 2-6c1.1-1.1 2.9-2 4-2z"/>
		<path id="Path 48" class="s6" d="m1602 618h5v26l7.2 0.3c6.1 0.2 7.3 0.5 7.5 1.9 0.3 1.6-0.7 1.8-19.7 1.8v-15zm-17 0c2.3 0 3 1.2 8.3 14.3 3.1 7.8 5.7 14.5 5.7 14.9 0 0.5-0.9 0.8-2 0.8-1.4 0-2.6-1.3-6-9h-12l-1.8 4.5c-1.3 3.6-2.2 4.6-6.2 4.5l2.1-5.3c1.2-2.8 3.7-9.6 5.7-15 3.3-8.8 3.9-9.7 6.2-9.7z"/>
		<path id="Path 49" class="s9" d="m1585.1 625c0.5 0 1.8 2.4 4.7 10.5l-2.7 0.3c-1.4 0.2-3.6 0.2-6.8-0.3l1.9-5.3c1.1-2.8 2.4-5.2 2.9-5.2z"/>
		<path id="Path 50" class="s6" d="m1553.3 618.2c2.1 0.3 2.2 0.8 2.7 25.8h7c6.3 0 7 0.2 7 2 0 1.9-0.7 2-19 2l0.1-15.1c0.1-14.8 0.1-15 2.2-14.7z"/>
		<path id="Path 51" class="s1" d="m1554.7 624.5c0.2 3.3 0.2 8.9 0 12.5-0.2 3.6-0.3 0.9-0.3-6 0-6.9 0.1-9.8 0.3-6.5z"/>
		<path id="Path 52" class="s6" d="m1511 618h2.5c2.4 0 2.5 0.2 2.5 14l6.8-7c5.3-5.5 7.3-6.9 9.7-7 3 0 2.9 0-9.3 12.5l5.7 7.5c3.2 4.1 6 8.1 6.4 8.8 0.5 0.8-0.1 1.2-2 1.2-2.3 0-3.6-1.2-7.3-6.6-2.5-3.6-4.8-6.8-5.2-7-0.5-0.2-1.7 0.4-2.8 1.3-1.6 1.4-2.1 3-2 7 0 5-0.1 5.3-5 5.3v-15zm-30 0h8c4.7 0 9.1 0.6 10.8 1.4 1.5 0.7 3.5 2.8 4.4 4.7 1.3 2.5 1.6 5.3 1.4 10.4-0.3 6.6-0.5 7.2-4 10.2-3.5 3.2-3.9 3.3-20.6 3.3v-15z"/>
		<path id="Path 53" class="s9" d="m1485 622h6c4.7 0 6.4 0.4 8 2 1.1 1.1 2.3 3.5 2.6 5.3 0.3 1.7 0.3 4.9 0 7-0.3 2-1.5 4.6-2.6 5.7-1.6 1.6-3.3 2-14 2v-11z"/>
		<path id="Path 54" class="s6" d="m1464.3 618c3.9 0 5.2 0.5 7.7 3 1.7 1.6 3 3.7 3 4.5 0 0.8-0.7 1.5-1.5 1.5-0.8 0-2.4-1.1-3.5-2.5-1.7-2.1-2.7-2.5-6.6-2.3q-4.7 0.3-5.8 2c-0.8 1.4-0.7 2.1 0.4 3.3 0.8 0.8 4.2 2.2 7.5 3 3.3 0.9 7 2.6 8.3 3.8 1.3 1.3 2.2 3.4 2.2 5 0 1.5-1.1 3.8-2.6 5.4-1.9 2-3.8 2.7-7.7 3.1-3.6 0.3-6.2 0-8.4-1.2-1.8-0.9-3.8-2.5-4.3-3.6-0.5-1.1-1-2.7-1-3.5 0-0.8 0.9-1.5 2-1.5 1.1 0 2 0.5 2 1 0 0.5 0.9 1.9 2 3 1.4 1.4 3.3 2 6.4 2 2.6 0 5.1-0.6 6-1.5 0.9-0.8 1.6-2.2 1.6-3 0-0.8-1-2.1-2.2-2.9-1.3-0.7-4.5-1.9-7.3-2.5-2.7-0.7-6-2.2-7.3-3.4-1.2-1.2-2.2-3.3-2.2-4.7 0-1.4 0.5-3.2 1.2-4.1 0.7-0.9 2.2-2.1 3.3-2.7 1.1-0.6 4.1-1.2 6.8-1.2zm-51.3 0q2 0 2 2 0 2-2 2-2 0-2-2 0-2 2-2zm-10 0c1.9 0 2 0.7 2 15 0 13.6-0.2 15-1.7 15-1 0-2.4-0.5-3.1-1.2-1-1-1.2-1-1.2-0.1 0 0.8-1.4 1.3-3.5 1.3-2.6 0-4.3-0.8-6.5-3-2.4-2.4-3-3.9-3-7.3 0-2.3 0.4-5.1 0.8-6.3 0.3-1.1 1.9-2.8 3.4-3.7 1.6-0.9 4.1-1.7 5.8-1.7 1.7 0 3 0.5 3 1 0 0.5 0.5 0.8 1 0.5 0.5-0.3 1-2.5 1-5 0-3.8 0.3-4.5 2-4.5z"/>
		<path id="Path 55" class="s9" d="m1395.5 629c0.8 0 2.4 0.9 3.5 2 1.4 1.4 2 3.3 2 6.5 0 3.6-0.5 4.8-2.3 6-1.2 0.8-2.8 1.5-3.5 1.5-0.6 0-2.1-0.9-3.2-2q-2-2-2-6 0-4 2-6c1.1-1.1 2.7-2 3.5-2z"/>
		<path id="Path 56" class="s6" d="m1322.3 618c1.7-0.1 3.7 2.2 9 10 3.7 5.5 7.2 10 7.7 10 0.6 0 1-4 1-10 0-9.3 0.1-10 2-10 1.9 0 2 0.7 2 15 0 14.9 0 15-2.2 15-1.8 0-3.8-2.3-8.8-10-3.6-5.5-6.8-10-7.2-10-0.5 0-0.9 4.4-1 9.8-0.3 9.2-0.4 9.7-2.5 9.9-2.3 0.3-2.3 0.3-2.3-14.7 0-14.9 0-15 2.3-15z"/>
		<path id="Path 57" class="s6" d="m1324.7 632c0.2 2.5 0.2 7 0 10-0.2 3-0.3 1-0.3-4.5 0-5.5 0.1-8 0.3-5.5z"/>
		<path id="Path 58" class="s1" d="m1325.1 625.5c0.5 0.3 0.5 1 0 1.8-0.6 0.6-1.1 5.5-1.7 20.2l-0.4-10.6c-0.2-5.8 0-10.9 0.4-11.2 0.5-0.4 1.2-0.4 1.7-0.2z"/>
		<path id="Path 59" class="s8" d="m911 578h272v114h-272v-57z"/>
		<path id="Path 60" class="s9" d="m920 587h254v96h-254v-48z"/>
		<path id="Path 61" class="s6" d="m1094 618h7v25l7.8 0.3c7 0.2 7.7 0.4 7.7 2.2 0 1.9-0.8 2-22.5 2.5v-15zm-13.5-0.1l5.3 14.3c2.9 7.9 5.2 14.6 5.2 15 0 0.5-1.5 0.8-3.3 0.8-2.8 0-3.3-0.4-4.2-3.2-1-3.2-1.2-3.3-7.3-3.6-6.2-0.2-6.2-0.2-6.7 2.8-0.3 1.6-1.1 3.2-1.8 3.6-0.6 0.3-2.4 0.4-6.5-0.1l4.9-13.5c2.7-7.4 5.2-14.1 5.4-14.8 0.3-0.7 2.2-1.2 9-1.3z"/>
		<path id="Path 62" class="s9" d="m1077.5 627.5c0.7 1.6 1.6 4.2 1.9 5.8 0.6 2.6 0.4 2.7-7.4 2.7l1.5-4.3c0.9-2.3 1.8-4.9 2.1-5.7 0.5-1.1 1-0.7 1.9 1.5z"/>
		<path id="Path 63" class="s6" d="m1034 618h2.8c2.6 0 2.7 0.1 2.7 11.5l12.5 0.5v-12h6v30h-6v-13l-12.5 0.5v6.3c0 6.1 0 6.2-5.5 6.2v-15zm-26 0h21v2.5c0 2.4-0.2 2.5-14 2.5v7h6c5.7 0 6 0.1 6 2.5 0 2.4-0.3 2.5-12 2.5v13h-7v-15zm-25.8 0c2.8-0.1 3.8 0.6 9.1 8.5l1.6-2.4c0.9-1.4 2.3-3.3 3.1-4.4 1-1.3 2.5-1.7 7.9-1.2l-8.7 14 3.7 5.5c2.1 3 4.3 6.5 4.9 7.8 1.1 2.1 1 2.2-2.6 2.2-3.3 0-4-0.5-6.5-4.5-1.5-2.5-3-4.5-3.5-4.5-0.4 0-1.9 2-3.5 4.5-2.5 4.1-3 4.5-10.7 4.5l5-7.5c2.7-4.1 5-7.8 5-8.3 0-0.4-1.8-3.5-4-6.9-2.2-3.5-4-6.5-4-6.8 0-0.3 1.5-0.5 3.2-0.5z"/>
		<path id="Path 64" class="s7" d="m835.5 578.5l0.5 428.5h-191v-312h-357l-0.2-57.8c-0.1-31.8 0.2-58.2 0.7-58.5 0.5-0.4 123.7-0.6 547-0.2z"/>
		<path id="Path 65" class="s3" d="m297 587h530v411h-173v-312h-357v-49.5z"/>
		<path id="Path 66" class="s10" d="m542 626h6v22h-6v-11zm21.3-1c1.5 0 3.9 0.6 5.4 1.4 1.6 0.7 3.1 2.1 3.5 3 0.6 1.2 0.2 1.7-2 2.2-1.9 0.3-2.9 0-3.5-1-0.4-0.9-1.7-1.6-3-1.6-1.2-0.1-2.9 0.7-3.7 1.6-1 1.1-1.4 3.4-1.3 6.3 0.2 2.5 0.8 5.2 1.5 5.9 0.7 0.7 2.3 1.3 3.5 1.2 1.3 0 2.8-0.9 3.3-2 0.7-1.5 1.6-1.8 3.2-1.4 1.3 0.4 2.4 0.7 2.6 0.8 0.1 0-0.1 1-0.5 2-0.5 1-2 2.5-3.6 3.2-1.5 0.8-3.8 1.4-5.2 1.4-1.4 0-3.7-0.6-5.1-1.3-1.5-0.6-3.3-2.4-4-4-0.8-1.5-1.4-4.4-1.4-6.5 0.1-2 0.8-4.8 1.6-6.1 0.9-1.3 2.6-3 3.7-3.7 1.2-0.7 3.4-1.3 4.9-1.4zm-52.2 0c0.8 0 1.8 0.3 2.2 0.7 0.3 0.4 0.5 1.6 0.2 2.5-0.2 1.1-1.3 1.8-2.9 1.8-1.5 0-2.9 0.8-3.5 2-0.6 1.1-1 5.1-1 16h-6v-22h2.5c1.4 0 2.7 0.6 2.9 1.2 0.3 1 0.9 0.8 2.2-0.5 1-0.9 2.5-1.7 3.4-1.7zm-26.8 0c1.6 0 4.2 0.7 5.8 1.5 1.6 0.8 3.7 2.9 4.5 4.5 0.8 1.6 1.5 3.9 1.5 5 0 1.1-0.7 3.6-1.5 5.5-0.8 2-2.8 4.2-4.5 5-1.6 0.8-4.1 1.5-5.5 1.5-1.4 0-3.9-0.7-5.5-1.5-1.6-0.8-3.5-2.5-4.1-3.8-0.6-1.2-1.2-4-1.2-6.2 0-2.2 0.7-5.1 1.6-6.5 0.9-1.3 2.7-3 4-3.7 1.2-0.7 3.4-1.2 5-1.3z"/>
		<path id="Path 67" class="s3" d="m484.3 629c1.2 0 3 0.8 4 1.8 1.1 1.1 1.7 3.1 1.7 5.7 0 2.4-0.8 4.7-1.8 5.8-0.9 1-2.7 1.8-4 1.7-1.2 0-2.9-1-3.7-2.3-0.8-1.2-1.6-3.6-1.6-5.2-0.1-1.7 0.6-4.1 1.6-5.3 0.9-1.2 2.6-2.2 3.8-2.2z"/>
		<path id="Path 68" class="s10" d="m650 618h20v2.5c0 2.4-0.2 2.5-14 2.5v7h6c5.7 0 6 0.1 6 2.5 0 2.4-0.3 2.5-12 2.5v13h-6v-15zm-22.7-0.1l8.2 0.6 4.7 13c2.6 7.1 5 13.8 5.3 14.8 0.4 1.3-0.1 1.7-2.5 1.7-2.5 0-3.3-0.6-6-7l-6.2 0.2c-6.1 0.3-6.3 0.4-7.3 3.6-0.8 2.6-1.5 3.2-3.8 3.2-2.3 0-2.6-0.4-2.3-2.3 0.3-1.2 2.6-8 5.2-15z"/>
		<path id="Path 69" class="s3" d="m631.3 624c0.5 0 1.6 2.4 2.3 5.3 0.8 2.8 1.4 5.5 1.4 6 0 0.4-1.8 0.7-4 0.7-2.2 0-4-0.3-4-0.7 0-0.5 0.8-3.2 1.7-6 0.9-2.9 2-5.3 2.6-5.3z"/>
		<path id="Path 70" class="s10" d="m601.8 618c1.7 0 4.6 0.7 6.2 1.5 1.7 0.8 3.7 2.9 4.5 4.5 1.5 2.9 1.4 3-1 3.5-1.8 0.4-3-0.2-4.5-2-1.2-1.5-3.1-2.5-4.7-2.5-1.6-0.1-3.9 0.7-5.2 1.7-1.7 1.4-2.4 3-2.7 6.8-0.3 3.1 0 6 0.8 7.5 0.8 1.4 2.6 3 4 3.5 1.9 0.7 3.4 0.6 5.2-0.2 1.4-0.7 2.9-2.2 3.4-3.3 0.5-1.5 1.3-1.9 2.7-1.4 1.1 0.3 2.4 0.9 2.8 1.3 0.5 0.3 0.4 1.6-0.2 2.9-0.6 1.2-2.6 3.1-4.3 4.2-1.8 1.1-4.9 2-6.8 2-1.9 0-5-0.8-6.9-1.7-1.8-1-4.2-3.4-5.2-5.3-1.1-2-1.9-5.5-1.9-8 0-2.5 0.8-6 1.9-8 1-1.9 3.4-4.3 5.2-5.3 1.9-0.9 4.9-1.7 6.7-1.7zm-56.8 0c2.3 0 3 0.4 3 2 0 1.6-0.7 2-3 2-2.3 0-3-0.4-3-2 0-1.6 0.7-2 3-2zm-8 0v30h-3c-1.6 0-3-0.5-3-1q0-1-2.5 0c-1.4 0.5-3.4 1-4.5 1-1.1 0-3.3-1.4-5-3-2.6-2.6-3-3.7-3-8.5 0-4.7 0.4-5.9 2.9-8.5 1.6-1.6 4-3 5.3-3 1.3 0 3.3 0.7 4.6 1.5 2.2 1.5 2.2 1.5 2.2-3.5 0-4.9 0.1-5 6-5z"/>
		<path id="Path 71" class="s3" d="m525.8 629c0.9 0 2.5 0.8 3.5 1.8 1.1 1.1 1.7 3.1 1.7 5.7 0 2.4-0.8 4.7-1.8 5.8-0.9 1-2.5 1.8-3.4 1.7-1 0-2.5-1-3.3-2.3-0.8-1.2-1.6-3.6-1.6-5.2-0.1-1.7 0.6-4.1 1.6-5.3 0.9-1.2 2.4-2.2 3.3-2.2z"/>
		<path id="Path 72" class="s10" d="m444.1 617.9l3.1 0.3c2.8 0.3 3.8 1.4 8.5 9.1 2.9 4.8 5.7 8.5 6.3 8.2 0.5-0.3 1-4.3 1-9 0-8.4 0-8.5 5-8.5v30h-3c-2.7 0-3.5-0.9-8.3-8.6-2.8-4.8-5.5-8.8-6-9-0.4-0.2-0.7 3.6-0.7 17.6h-6l0.1-15.1z"/>
		<path id="Path 73" class="s1" d="m1466 577.5c148.2 0 208.8 0.1 134.5 0.2-74.3 0.2-195.5 0.2-269.5 0-74-0.1-13.2-0.2 135-0.2z"/>
		<path id="Path 74" class="s1" d="m1047 577.5c75.1 0 105.7 0.1 68 0.2-37.7 0.2-99.1 0.2-136.5 0-37.4-0.1-6.6-0.2 68.5-0.2z"/>
		<path id="Path 75" class="s3" d="m562 577c150.7 0 274 0.3 274 0.8 0 0.4-123.3 0.7-274 0.7-150.7 0-274-0.3-274-0.8 0-0.4 123.3-0.7 274-0.7z"/>
		<path id="Path 76" class="s3" d="m1468.5 560.5c150.2 0 211.8 0.1 137 0.2-74.8 0.2-197.7 0.2-273 0-75.3-0.1-14.2-0.2 136-0.2z"/>
		<path id="Path 77" class="s3" d="m558.5 560.5c150.2 0 211.8 0.1 137 0.2-74.8 0.2-197.6 0.2-273 0-75.4-0.1-14.2-0.2 136-0.2z"/>
		<path id="Path 78" class="s3" d="m1176.7 334c0.2 41 0.2 108.3 0 149.5-0.1 41.3-0.2 7.7-0.2-74.5 0-82.2 0.1-116 0.2-75z"/>
		<path id="Path 79" class="s9" d="m1105.8 244.2c49.6-0.1 90.4 0.1 90.6 0.6 0.2 0.4-25.8 0.6-57.7 0.4-32-0.1-72.8-0.3-90.7-0.5-17.9-0.1 8.1-0.3 57.8-0.5z"/>
		<path id="Path 80" class="s9" d="m1740.7 244c0.2 58 0.2 152.8 0 210.5-0.1 57.8-0.2 10.3-0.2-105.5 0-115.8 0.1-163 0.2-105z"/>
		<path id="Path 81" class="s9" d="m104.5 138.5l0.5 105.5h182l-0.5 315.5-0.5-314.5h-182l0.2-53.3z"/>
		<path id="Path 82" class="s8" d="m1014 138h726.5v422h-544.5v-315.5h-182v-53.3z"/>
		<path id="Path 83" class="s9" d="m1023 147h709v404h-527v-315h-182v-44.5z"/>
		<path id="Path 84" class="s6" d="m1556 339h7v22h-7v-11zm-72 0h6v22h-6v-11zm-26 0h7v22h-7v-11zm189.9-0.4c3.1 0.3 5.7 0.7 5.7 0.8 0.1 0 1 2.8 2.1 6.1 1.1 3.3 2.4 5.9 2.9 5.8 0.5-0.1 1.8-2.9 2.9-6.2 1.8-5.5 2.3-6.1 4.7-6.1 1.6 0 2.8 0.3 2.8 0.8 0 0.4-2 6.3-4.6 13.2-2.5 6.9-5.3 13.3-6.2 14.3-1.1 1.1-3.1 1.8-5.5 1.7-3 0-3.7-0.4-3.7-2 0-1.3 0.7-2.1 2.1-2.2 1.2-0.2 2.6-1 3.2-1.8 0.7-1.1 0-4.1-2.3-10.5-1.9-4.9-4-9.9-4.7-11-1.2-1.8-1.3-1.8-1.3-0.2 0 1-0.7 1.7-1.8 1.7-1 0-2.3 0.6-3 1.3-0.8 0.7-1.2 4.2-1.2 16.7h-7v-22h3c1.7 0 3 0.5 2.9 1.1 0 0.6 0.7 0.3 1.7-0.6 1.3-1.3 2.8-1.5 7.3-0.9zm-28.9-0.6c3.7 0 5.5 0.5 7 2 1.7 1.7 2 3.3 2 10 0 4.4 0.2 8.7 0.5 9.5 0.4 1.1-0.3 1.5-2.5 1.5-1.7 0-3-0.4-3-1q0-1-2 0c-1.1 0.6-3.5 1-5.3 1-1.7 0-4-0.8-5-1.8-1-0.9-1.8-3.1-1.8-4.7 0-1.6 0.8-3.8 1.8-4.7 1-0.9 3.8-2.1 6.3-2.7 2.5-0.6 4.7-1.3 5-1.6 0.3-0.3-0.3-1.3-1.2-2.3-1-1-2.3-1.4-3-1-0.7 0.5-2.1 1.4-3 2-1.2 1-2.2 1-6.3-0.9l2.7-2.6c2.2-2.2 3.6-2.7 7.8-2.7z"/>
		<path id="Path 85" class="s9" d="m1621.6 350.6c0.1 0.2 0 1.5-0.2 2.9-0.2 1.5-1.2 2.7-2.4 3-1.1 0.3-2.4 0.3-3 0-0.5-0.3-1.1-1.4-1.2-2.5-0.2-1.4 0.6-2.2 3.2-2.8 1.8-0.5 3.4-0.7 3.6-0.6z"/>
		<path id="Path 86" class="s6" d="m1604.7 338c1.3 0 2.5 0.4 2.7 0.9 0.3 0.5 0.3 1.6 0 2.5-0.2 0.9-1.5 1.6-2.9 1.6-1.5 0-2.9 0.8-3.5 2-0.6 1.1-1 5.1-1 16h-6v-22l3.3 0.2c1.8 0.1 3.7-0.1 4.2-0.5 0.4-0.4 1.9-0.7 3.2-0.7zm-99.5 0c2.8-0.1 5.3 0.6 7 2 1.6 1.1 2.8 2.4 2.8 3 0 0.6-1.2 1.3-2.8 1.6-1.9 0.4-3.2 0-4.5-1.3-1.4-1.4-2.2-1.6-4-0.7-1.2 0.6-2.4 2.4-2.8 4-0.3 1.6-0.1 4.4 0.3 6.1 0.5 2.2 1.6 3.5 3 3.9 1.6 0.5 2.8 0 4-1.5 1-1.1 2.7-2.1 3.8-2.1 1.1 0 2.3 0.8 2.7 1.8 0.4 1.1-0.2 2.4-2 4-1.9 1.6-4 2.2-7.2 2.2-3.7 0-5.1-0.6-7.5-3-2.6-2.6-3-3.7-2.9-8.6 0-4.7 0.5-6 2.9-8.5 2.3-2.3 3.7-2.9 7.2-2.9zm-60.5 0c3 0 5.1 0.7 7 2.2 1.5 1.3 2.3 2.8 2 3.5-0.4 0.7-1.6 1.3-2.7 1.3-1.1 0-2.7-0.7-3.5-1.5-0.8-0.8-2.2-1.5-3-1.5-0.8 0-2.3 1.2-3.2 2.7-0.9 1.6-1.7 3.7-1.7 4.8 0 1.1 0.8 3.2 1.7 4.7 0.9 1.6 2.4 2.8 3.2 2.8 0.8 0 2.3-0.9 3.2-2 1-1.1 2.5-2 3.3-2 0.8 0 2.2 0.4 3 0.9 1.2 0.8 1 1.4-1.7 4-2.5 2.4-4 3.1-7.2 3.1-2.3 0-5-0.4-6.1-1-1.1-0.6-2.7-2.4-3.5-4-0.8-1.6-1.5-4.6-1.5-6.5 0-1.9 0.7-4.8 1.6-6.5 1-1.6 2.4-3.4 3.3-3.9 0.9-0.6 3.5-1.1 5.8-1.1zm-24.5 0c2.8 0 4.6 0.7 6.8 2.7 1.8 1.8 3.1 4.2 4 10.3h-7.5c-4.1 0-7.5 0.3-7.5 0.7 0 0.5 0.7 1.8 1.5 3 0.8 1.3 2.1 2.3 2.7 2.3 0.7 0.1 2-0.6 2.8-1.5 0.8-0.9 2.2-1.6 3-1.5 0.8 0 2.2 0.5 3 1 1.3 0.9 1.1 1.4-1.3 3.5-1.9 1.8-3.8 2.5-6.7 2.5-2.2 0-4.9-0.4-6-1-1.1-0.6-2.7-2.4-3.5-4-0.8-1.6-1.5-4.6-1.5-6.5 0-1.9 0.7-4.8 1.6-6.5 1-1.6 2.4-3.4 3.3-3.9 0.9-0.6 3.3-1.1 5.3-1.1z"/>
		<path id="Path 87" class="s9" d="m1420.8 342.2c0.8 0.2 2.2 1.3 4.7 4.9l-4.7-0.1c-2.7 0-4.8-0.4-4.9-0.9 0-0.5 0.7-1.7 1.7-2.6 0.9-0.9 2.3-1.5 3.2-1.3z"/>
		<path id="Path 88" class="s6" d="m1398.5 338c1.6 0 4 0.7 5.3 1.5 1.2 0.8 2.6 3.3 3.2 5.5 0.5 2.2 0.8 5.5 0.5 7.3-0.3 1.7-1.7 4.4-3.1 6-1.9 1.9-3.7 2.7-6 2.7-1.9 0-3.6-0.4-3.9-1-0.3-0.6-1-0.8-1.5-0.5-0.5 0.3-1 2.5-1 5 0 4.3-0.1 4.5-6 4.5v-30h3c1.8 0 2.9 0.5 2.8 1.2-0.1 0.7 0.6 0.5 1.7-0.5 1.1-0.9 3.3-1.7 5-1.7z"/>
		<path id="Path 89" class="s9" d="m1396.4 342c0.6 0 1.9 0.5 3 1.2 1.4 1 1.9 2.5 1.9 6.3 0 3.8-0.5 5.3-1.9 6.3-1.1 0.7-2.1 1.2-2.4 1.2-0.3 0-1.4-0.6-2.5-1.4-1.5-1.1-2-2.6-2-5.9 0-2.4 0.6-5.1 1.4-6 0.7-1 1.8-1.7 2.5-1.7z"/>
		<path id="Path 90" class="s6" d="m1331 336c2.8 0 3 0.2 3 4 0 4 0 4 3.8 4 3.3 0 3.7 0.3 3.7 2.5 0 2.2-0.4 2.5-3.8 2.5-3.7 0-3.7 0-3.7 4 0 3.8-0.2 4-3 4-2.8 0-3-0.2-3-4 0-3.9-0.1-4-3.5-4-3.1 0-3.5-0.3-3.5-2.5 0-2.2 0.4-2.5 3.5-2.5 3.4 0 3.5-0.1 3.5-4 0-3.8 0.2-4 3-4zm-24 0c2.8 0 3 0.2 3 4 0 3.9 0.1 4 3.5 4 3.1 0 3.5 0.3 3.5 2.5 0 2.2-0.4 2.5-3.5 2.5-3.4 0-3.5 0.1-3.5 4 0 3.8-0.2 4-3 4-2.8 0-3-0.2-3-8h-4c-3.6 0-4-0.3-4-2.5 0-2.3 0.4-2.5 8-2.5v-4c0-3.8 0.2-4 3-4zm261-5h3c2.8 0 3 0.2 3 8l4.3-0.7c3.1-0.5 4.9-0.2 7 1 1.8 1.1 3 3.1 3.7 5.7 0.5 2.2 0.8 5.5 0.5 7.3-0.3 1.7-1.7 4.4-3.1 6-1.7 1.7-3.7 2.7-5.5 2.7-1.6 0-3.8-0.4-4.9-1q-2-1-2 0c0 0.6-1.3 1-6 1v-15z"/>
		<path id="Path 91" class="s9" d="m1578.6 342c0.8 0 2.1 0.7 2.9 1.5 0.9 0.9 1.5 3.4 1.5 6.5 0 4-0.4 5.2-2 6q-2 1-4 0c-1.1-0.6-2.3-2.2-2.6-3.8-0.3-1.5-0.3-3.8 0.1-5.2 0.4-1.4 1.2-3.1 1.7-3.8 0.6-0.6 1.6-1.2 2.4-1.2z"/>
		<path id="Path 92" class="s6" d="m1559.5 331c2.8 0 3.5 0.4 3.5 2 0 1.6-0.7 2-3.5 2-2.8 0-3.5-0.4-3.5-2 0-1.6 0.7-2 3.5-2zm-28.4-0.1l6.4 0.6 0.5 24.5h7.5c7.3 0 7.5 0.1 7.5 5h-22l0.1-15.1z"/>
		<path id="Path 93" class="s1" d="m1536.7 337c0.2 3 0.2 8.4 0 12-0.2 3.6-0.3 1.1-0.3-5.5 0-6.6 0.1-9.5 0.3-6.5z"/>
		<path id="Path 94" class="s6" d="m1487 331c2.3 0 3 0.4 3 2 0 1.6-0.7 2-3 2-2.3 0-3-0.4-3-2 0-1.6 0.7-2 3-2zm-8.9 0c2.1 0 4.1 0.3 4.3 0.8 0.3 0.4 0.2 1.2-0.2 1.8-0.4 0.7-1.6 1.3-2.7 1.5-1.1 0.2-2.1 1.2-2.2 2.1q-0.3 1.8 2 2c1.2 0.2 2.2 1 2.2 1.8 0 0.8-1 1.6-2.2 1.7-2.2 0.3-2.3 0.7-2.3 18.3h-6v-9c0-7.3-0.3-9-1.5-9-0.8 0-1.5-0.9-1.5-2 0-1.1 0.7-2 1.5-2 0.9 0 1.5-0.9 1.4-2.4 0-1.4 0.7-3.2 1.6-4 0.9-0.9 3.4-1.6 5.6-1.6zm-16.6 0c2.8 0 3.5 0.4 3.5 2 0 1.6-0.7 2-3.5 2-2.8 0-3.5-0.4-3.5-2 0-1.6 0.7-2 3.5-2zm-93.3 0.1c2.1-0.1 5.3 0.5 7 1.2 2.1 0.9 3.7 2.5 4.5 4.5 1.3 3.2 1.3 3.2-1.7 3.2-1.7 0-3.9-0.9-5-2-1.1-1.1-3-2-4.3-2-1.2-0.1-2.9 0.6-3.7 1.5-1 1-1.1 1.9-0.5 2.4 0.5 0.5 3.6 1.6 6.8 2.5 3.1 0.9 6.6 2.5 7.7 3.6q2 2 2 6c0 3.2-0.6 4.5-3 6.5-2.3 1.9-4.1 2.5-8 2.5-2.8 0-6.2-0.6-7.8-1.4-1.5-0.7-3.3-2.6-4.1-4.2-0.7-1.6-1-3.5-0.7-4.2 0.3-0.6 1.6-1.2 2.8-1.2 1.5 0 2.8 0.9 3.5 2.5 0.8 1.4 2.5 2.8 4 3.1 1.6 0.3 3.8 0.1 5-0.5 1.5-0.7 2.2-1.9 2-3.2-0.1-1.7-1.6-2.7-7.2-4.5-3.8-1.2-7.6-3.1-8.3-4.1-0.7-1-1.2-2.8-1.2-4.1 0-1.2 0.5-3.1 1.2-4.3 0.7-1.1 2.1-2.4 3.3-2.9 1.1-0.5 3.7-0.9 5.8-0.9zm-88.3-0.1c3.2-0.1 5.3 0.6 7.4 2.2 1.6 1.3 3.3 3.2 3.8 4.3 0.7 1.4 0.6 2.2-0.4 2.7-0.7 0.4-2.3 0.8-3.6 0.8-1.4 0-2.4-0.7-2.7-2-0.3-1.2-1.7-2.3-3.3-2.6-1.5-0.3-3.7-0.1-5 0.5-1.2 0.6-2.7 2.7-3.3 4.8-0.6 2.1-0.8 5.3-0.5 7 0.3 1.8 1.5 4.2 2.6 5.3 1.1 1.1 3.1 2 4.5 2 1.4 0 3.3-0.8 4.3-1.8 1-0.9 2-2.3 2.3-3 0.3-1 1-1.1 3.1-0.3 1.6 0.6 2.8 1.5 2.8 2.1 0 0.6-1.5 2.6-3.4 4.5-2.9 3-4.1 3.5-8 3.5-2.5 0-5.9-0.7-7.6-1.5-1.7-0.8-3.9-3-5-4.8q-2-3.2-2-8.5c0-2.8 0.7-6.6 1.5-8.2 0.8-1.6 3-3.9 4.7-5 2-1.2 5.1-2 7.8-2z"/>
		<path id="Path 95" class="s8" d="m104.5 138h726.5v422h-544.5l0.5-316h-182l-0.3-53z"/>
		<path id="Path 96" class="s9" d="m113 147h709v404h-527v-315h-182v-44.5z"/>
		<path id="Path 97" class="s6" d="m646 339h7v22h-7v-11zm-72 0h6v22h-6v-11zm-26 0h7v22h-7v-11zm189.4-0.5c2.8 0.4 5.3 0.8 5.6 1 0.3 0.1 1.4 3 2.5 6.4 1.1 3.4 2.3 6.1 2.7 6.1 0.5 0 1.7-2.9 2.8-6.5 1.9-6.1 2.2-6.5 5-6.5 1.6 0 3 0.3 3 0.8 0 0.4-2.1 6.3-4.6 13.2-2.7 7.3-5.5 13.2-6.7 14.3-1.2 1-3.7 1.8-5.5 1.7-2.5 0-3.2-0.4-3.2-2q0-2 2-2c1.1 0 2.5-0.9 3-2 0.8-1.5 0.3-3.9-1.9-9.8-1.6-4.2-3.2-8.5-3.5-9.4-0.5-1.4-1.3-1.6-3.4-1.2-1.5 0.4-3.3 1.2-4 1.8-0.9 0.7-1.3 3.7-1.2 16.6h-7v-22h3c1.6 0 3 0.5 2.9 1.1 0 0.6 0.7 0.3 1.7-0.6 1.4-1.3 2.8-1.5 6.8-1zm-28.6-0.5c3.5-0.1 5.2 0.5 6.7 2.1 1.6 1.7 2.1 3.9 3 20.9h-2.8c-1.5 0-2.9-0.4-3.2-1q-0.5-1-2.5 0c-1.1 0.6-3.4 1-5 1-1.7 0-3.9-0.9-5-2-1.1-1.1-2-3.1-2-4.5 0-1.4 0.8-3.3 1.7-4.3 1-1 4.2-2.4 7-3 4.8-1.1 5.2-1.4 4.3-3.2-0.5-1.1-1.9-2-3-2-1.1 0-2.2 0.7-2.5 1.5-0.3 0.8-1.3 1.5-2.3 1.5-0.9 0-2.4-0.5-3.2-1-1.3-0.9-1.1-1.4 1.3-3.5 2.1-1.9 4-2.5 7.5-2.5z"/>
		<path id="Path 98" class="s9" d="m709.7 351c2 0 2.2 0.3 1.4 2.3-0.5 1.2-1.6 2.6-2.5 3.2-1.1 0.7-2 0.5-3.3-0.8-1.7-1.7-1.7-1.9 0.2-3.3 1.1-0.8 3-1.4 4.2-1.4z"/>
		<path id="Path 99" class="s6" d="m694.3 338c1.2 0 2.5 0.3 2.9 0.7 0.3 0.4 0.5 1.6 0.2 2.5-0.2 1.1-1.5 1.9-3.1 2-2.3 0.3-3 1-4.1 4.3-0.7 2.2-1.2 6.1-1 8.8 0.3 4.5 0.2 4.7-5.2 4.7v-22.5l3.5 0.7c2.1 0.5 3.7 0.4 4-0.2 0.4-0.6 1.6-1 2.8-1zm-98.9 0c3.6 0 5.2 0.6 10.1 5.3l-2.3 1.1c-1.8 0.8-2.8 0.8-4-0.2-0.9-0.6-2.4-1.5-3.2-1.9-0.8-0.3-2.2-0.2-3 0.4-0.8 0.6-1.6 2.8-1.8 4.9-0.2 2.1-0.1 4.9 0.2 6.1 0.3 1.3 1.6 2.6 2.9 2.9 1.5 0.5 2.7 0 4-1.5 1.2-1.5 2.5-1.9 4.2-1.6 1.4 0.3 2.5 0.9 2.5 1.5 0 0.6-1.1 2.1-2.5 3.5-1.9 1.9-3.4 2.5-7 2.5-3.7 0-5-0.5-7.5-3-2.6-2.6-3-3.7-2.9-8.6 0-4.7 0.5-6 2.9-8.5 2.3-2.4 3.7-2.9 7.4-2.9zm-61.2 0c2.8-0.1 5.3 0.6 7.1 2 1.5 1.1 2.7 2.4 2.7 3 0 0.6-1.2 1.3-2.7 1.6-2 0.4-3.3 0-4.6-1.3-1.4-1.4-2.2-1.6-4-0.7-1.2 0.6-2.4 2.4-2.8 4-0.3 1.6-0.1 4.4 0.3 6.1 0.5 2.2 1.6 3.5 3.1 3.9 1.5 0.5 2.7 0 4-1.5 0.9-1.1 2.6-2.1 3.7-2.1 1.1 0 2.3 0.8 2.7 1.7 0.4 1.2-0.2 2.5-2 4-1.9 1.7-4 2.3-7.2 2.3-3.7 0-5.1-0.6-7.5-3-2.6-2.6-3-3.7-2.9-8.6 0-4.7 0.5-6 2.9-8.5 2.3-2.3 3.7-2.9 7.2-2.9zm-23.9 0c2.7 0 4.5 0.7 6.7 2.7 1.8 1.8 3.1 4.2 4 10.3h-7.5c-4.1 0-7.5 0.3-7.5 0.7 0 0.5 0.7 1.8 1.5 3 0.8 1.3 2.1 2.3 2.8 2.3 0.6 0.1 1.9-0.6 2.7-1.5 0.8-0.9 2.2-1.6 3-1.5 0.8 0 2.2 0.5 3 1 1.3 0.9 1.1 1.4-1.2 3.5-2 1.8-3.9 2.5-6.8 2.5-2.2 0-4.9-0.4-6-1-1.1-0.6-2.7-2.4-3.5-4-0.8-1.6-1.5-4.6-1.5-6.5 0-1.9 0.7-4.8 1.6-6.5 1-1.6 2.4-3.4 3.3-3.9 0.9-0.6 3.3-1.1 5.4-1.1z"/>
		<path id="Path 100" class="s9" d="m510.8 342.2c0.8 0.2 2.2 1.3 4.7 4.9l-4.8-0.1c-2.6 0-4.7-0.4-4.8-0.9 0-0.5 0.7-1.7 1.7-2.6 0.9-0.9 2.3-1.5 3.2-1.3z"/>
		<path id="Path 101" class="s6" d="m488.5 338c2.7 0 4.1 0.7 6 3 2 2.4 2.5 4.1 2.5 8.5 0 4.6-0.5 6-2.8 8.6-2.5 3-3 3.1-12.2 1.9v4.5c0 4.3-0.1 4.5-6 4.5v-30.5l4 0.8c2.4 0.4 4.2 0.3 4.5-0.3 0.4-0.6 2.2-1 4-1z"/>
		<path id="Path 102" class="s9" d="m486.4 342c0.6 0 1.9 0.8 2.9 1.8 1.2 1.1 1.8 3.2 1.7 6 0 2.5-0.6 4.8-1.6 5.7-0.8 0.8-2.2 1.5-3 1.5-0.8 0-2.1-1-2.9-2.3-0.8-1.2-1.6-3.7-1.7-5.6-0.1-2.2 0.5-4.1 1.7-5.3 1-1 2.3-1.8 2.9-1.8z"/>
		<path id="Path 103" class="s6" d="m420.8 336c2.5 0 2.7 0.3 2.7 3.7 0 3.8 0 3.8 4.2 4 3.8 0.3 4.3 0.6 4.3 2.8 0 2.2-0.5 2.5-4.3 2.8-4.2 0.2-4.2 0.2-4.2 4 0 3.4-0.2 3.7-2.8 3.7-2.5 0-2.7-0.3-2.7-8h-4c-3.6 0-4-0.3-4-2.5 0-2.3 0.4-2.5 8-2.5v-4c0-3.7 0.2-4 2.7-4zm-24.2 0c2.2 0 2.5 0.4 2.5 8l4.2 0.3c3.5 0.2 4.3 0.6 4.3 2.2 0 1.6-0.8 2-8.5 2.5v4c0 3.6-0.3 4-2.5 4-2.3 0-2.5-0.4-2.5-8h-4c-3.6 0-4-0.3-4-2.5 0-2.3 0.4-2.5 8-2.5v-4c0-3.6 0.2-4 2.5-4zm261.5-5h3c2.8 0 3 0.2 3 8l4.5-0.8c3.9-0.6 4.7-0.4 7 1.8 1.4 1.4 3 4.1 3.6 6 0.6 2 0.7 4.8 0.3 6.5-0.4 1.6-1.8 4.2-3.1 5.8-1.7 2-3.2 2.7-6.1 2.7-2 0-4.3-0.5-5-1.2-1-1-1.2-1-1.2-0.1 0 0.8-1.3 1.3-6 1.3v-15z"/>
		<path id="Path 104" class="s9" d="m668.4 342c0.6 0 1.9 0.8 2.9 1.8 1.1 1.1 1.7 3.1 1.7 5.7 0 2.4-0.8 4.7-1.8 5.8-0.9 1-2.3 1.8-2.9 1.7-0.7 0-2-1-2.8-2.3-0.8-1.2-1.6-3.7-1.7-5.6-0.1-2.2 0.5-4.1 1.7-5.3 1-1 2.3-1.8 2.9-1.8z"/>
		<path id="Path 105" class="s6" d="m649.5 331c2.8 0 3.5 0.4 3.5 2 0 1.6-0.7 2-3.5 2-2.8 0-3.5-0.4-3.5-2 0-1.6 0.7-2 3.5-2zm-28.5 0h6v25h8c7.9 0 8 0 8 5h-22v-15zm-44 0c2.3 0 3 0.4 3 2 0 1.6-0.7 2-3 2-2.3 0-3-0.4-3-2 0-1.6 0.7-2 3-2zm-8.8 0c3.1 0 3.8 0.4 3.8 2 0 1.5-0.7 2-2.5 2-1.8 0-2.5 0.5-2.5 2 0 1.2 0.7 2 1.8 2 1 0 1.7 0.8 1.7 2 0 1.2-0.7 2-1.7 2-1.6 0-1.8 1.1-1.8 18h-6v-9c0-7.3-0.3-9-1.5-9-0.8 0-1.5-0.9-1.5-2 0-1.1 0.7-2 1.5-2 1 0 1.4-0.9 1.3-3-0.1-2 0.5-3.2 1.8-3.9 1-0.6 3.6-1.1 5.7-1.1zm-16.8 0c2.8 0 3.5 0.4 3.5 2 0 1.6-0.7 2-3.5 2-2.8 0-3.5-0.4-3.5-2 0-1.6 0.7-2 3.5-2zm-92.8 0c4.2 0 5.9 0.5 8.3 2.5 1.6 1.4 3 3.4 3 4.5 0 1.5-0.7 2-2.8 2-1.5 0-3.5-0.9-4.5-2-0.9-1.1-2.7-2-4-2-1.2 0-2.9 0.4-3.7 0.9-0.9 0.6-1.2 1.5-0.8 2.5 0.5 0.9 3.2 2.1 6 2.8 2.9 0.7 6.5 2.2 8 3.5 2.1 1.7 2.8 3.2 2.8 5.8 0 2.2-0.8 4.5-2.3 6.1-1.8 2.2-3.2 2.7-8.2 3.1-3.8 0.2-6.9-0.1-8.5-0.9-1.4-0.7-3.3-2.9-4.2-4.8-1.3-2.7-1.5-3.7-0.5-4.2 0.6-0.4 2.2-0.8 3.4-0.8 1.4 0 2.3 0.6 2.3 1.5 0 0.8 1 2.2 2.2 3 1.3 0.8 3 1.5 3.8 1.6 0.8 0 2.6-0.9 4-2 2.2-1.8 2.3-2.1 1-3.5-0.8-0.9-4-2.3-7-3.1-3-0.8-6.3-2.3-7.3-3.3-1-1-1.8-3.2-1.8-5.4-0.1-2.9 0.5-4.1 2.7-5.7 1.9-1.5 4.2-2.1 8.1-2.1zm-88.7 0c3.2-0.1 5.3 0.6 7.4 2.2 1.6 1.3 3.3 3.2 3.8 4.3 0.7 1.4 0.6 2.2-0.4 2.7-0.7 0.4-2.3 0.8-3.5 0.8-1.5 0-2.5-0.7-2.8-2-0.3-1.2-1.7-2.3-3.3-2.6-1.5-0.3-3.7-0.1-5 0.5-1.2 0.6-2.7 2.7-3.3 4.9-0.6 2-0.8 5.2-0.5 7 0.3 1.7 1.5 4.1 2.6 5.2 1.1 1.1 3.1 2 4.5 2 1.4 0 3.3-0.8 4.3-1.7 1-1 2-2.4 2.3-3.1 0.3-1 1-1.1 3.1-0.3 1.6 0.6 2.8 1.5 2.8 2.1 0 0.6-1.5 2.6-3.4 4.5-2.9 3-4.1 3.5-8 3.5-2.5 0-6-0.7-7.6-1.5-1.6-0.8-3.9-3-5-4.8q-2-3.2-2-8.4c0-2.9 0.7-6.7 1.5-8.3 0.8-1.6 3-3.9 4.8-5 1.9-1.2 5-2 7.7-2z"/>
		<path id="Path 106" class="s3" d="m1004.7 168c0.2 17.3 0.2 45.2 0 62-0.1 16.8-0.2 2.6-0.2-31.5 0-34.1 0.1-47.8 0.2-30.5z"/>
		<path id="Path 107" class="s8" d="m911 137h93v123h172v298h-265v-210.5z"/>
		<path id="Path 108" class="s9" d="m920 146h75.7v15.3c0 8.3 0.1 36 0.3 107.7h171.5l1 280h-248.5v-201.5z"/>
		<path id="Path 109" class="s6" d="m1067.2 436h2.4c1.8 0 2.8 1 4.4 4.3 1 2.3 2.4 6.5 3 9.2 0.7 3.3 0.7 6.7 0.1 10-0.5 2.8-1.8 7.1-3 9.8-1.6 3.6-2.6 4.7-6.6 4.6l1.9-5.7c1.2-3.5 1.9-8.5 1.9-13.2q0-7.5-2-13.3zm-25.2 0l10.7 0.3c10 0.2 10.7 0.4 10.7 2.3 0 1.7-0.7 2-14.5 2.5v7h6.5c6.3 0 6.5 0 6.5 2.5 0 2.4-0.2 2.5-13 2.5v13h-7l0.1-15.1zm-25.6 0.1c3 0 3.9 0.6 6.3 4 1.5 2.2 2.7 4.1 2.7 4.1 0 0 1.2-1.9 2.8-4.1 2.3-3.4 3.2-4 6.2-4 1.9 0 3.5 0.2 3.5 0.5 0 0.3-2 3.5-8.9 14l5 7.2c2.7 4 4.9 7.5 4.9 7.8 0 0.3-1.6 0.5-3.5 0.5-3 0-3.9-0.6-6.5-4.5-1.6-2.5-3.2-4.5-3.5-4.5-0.3 0-1.8 2-3.5 4.5-2.6 3.9-3.5 4.5-6.5 4.5-1.9 0-3.5-0.2-3.5-0.5 0-0.3 2-3.6 4.5-7.3 2.5-3.7 4.5-7.3 4.5-8 0-0.7-1.8-3.9-4-7.2-2.2-3.3-4-6.2-4-6.5 0-0.3 1.6-0.5 3.5-0.5zm-6.5 0l-2.2 5.2c-1.6 4-2.1 7.4-2.1 13.8 0 6.4 0.5 9.8 4.3 19h-2.5c-2 0-2.9-0.9-4.5-4.3-1-2.3-2.4-6.5-3-9.2-0.6-2.8-0.8-7-0.4-9.5 0.3-2.5 1.7-6.9 3.1-9.8 1.9-4.2 2.9-5.2 7.3-5.2zm45.6-43c2.6-0.1 3 0.4 4.4 5 0.8 2.8 2 5.1 2.5 5.1 0.6 0 1.7-2.3 2.5-5.1 1.3-4.5 1.8-5.1 4.3-5 1.5 0 2.9 0.5 3.2 1.2 0.2 0.7 0.9 3.2 1.5 5.5 0.5 2.4 1.5 4.1 2 3.8 0.6-0.3 1.5-2.8 2-5.5 0.9-4.7 1.2-5 4-5 1.7 0 3 0.5 3 1.2 0 0.7-1.5 5.7-3.3 11.1-3.2 9.7-3.2 9.8-6.2 9.5-2.7-0.3-3.1-0.9-4.5-5.6-0.8-2.9-1.7-5.3-2-5.3-0.3 0-1.1 2.5-1.7 5.6-1.2 5.3-1.4 5.5-4.5 5.5-3.3 0-3.3 0-6.2-9.2-1.6-5.1-3.1-10.1-3.4-11.1-0.4-1.3 0.1-1.7 2.4-1.7zm68.7-1c1.2-0.1 2.5 0.3 2.9 0.7 0.3 0.4 0.5 1.6 0.2 2.5-0.2 1.1-1.5 1.9-3.1 2-2.3 0.2-3 1-4.1 4.3-0.7 2.2-1.2 6.1-1 8.7 0.3 4.6 0.2 4.8-5.2 4.8v-22.5l3.5 0.7c2.1 0.5 3.7 0.4 4.1-0.2 0.3-0.6 1.5-1 2.7-1zm-26.5 0c1.7 0 4.4 0.6 6 1.4 1.5 0.7 3.3 2.5 4 4 0.6 1.4 1.2 4.4 1.2 6.6 0 3.2-0.7 4.7-3.4 7.5-2.6 2.7-4.2 3.5-7 3.5-2 0-4.9-0.7-6.6-1.5-1.6-0.8-3.4-2.4-4-3.5-0.5-1.1-1-4.2-1-6.8 0-3 0.7-5.5 1.8-6.8 0.9-1.2 2.6-2.7 3.7-3.3 1.1-0.6 3.5-1.1 5.3-1.1z"/>
		<path id="Path 110" class="s9" d="m1097.9 396c0.9 0 2.4 0.8 3.4 1.8 1.1 1.1 1.7 3.1 1.7 5.7 0 2.4-0.8 4.7-1.8 5.8-0.9 1-2.4 1.7-3.2 1.7-0.8 0-2.3-0.8-3.3-1.8-1-1-1.8-3.3-1.9-5.6q-0.2-3.9 1.7-5.8c1-1 2.5-1.8 3.4-1.8z"/>
		<path id="Path 111" class="s6" d="m1040.1 392c2.2 0 5 0.8 6.4 1.8 1.4 0.9 3 3.1 3.6 4.7 0.5 1.6 0.9 3.8 0.9 4.8 0 1.4-1.1 1.7-14.9 2.2l1.2 2.5c0.7 1.4 2 2.6 3 2.8 0.9 0.1 2.3-0.5 3.1-1.3 0.8-0.8 2.4-1.5 3.5-1.5 1.2 0 2.4 0.6 2.8 1.3 0.3 0.7-0.5 2.2-2 3.5-1.9 1.5-4 2.2-6.9 2.2-2.4 0-5.3-0.7-6.5-1.5-1.3-0.8-2.8-3.2-3.4-5.3-0.6-2-0.9-5.3-0.6-7.2 0.4-1.9 1.8-4.7 3.3-6.3 2-2 3.6-2.7 6.5-2.7z"/>
		<path id="Path 112" class="s9" d="m1040.6 396c0.8 0 2.1 0.7 2.9 1.5 0.8 0.8 1.5 1.9 1.5 2.5 0 0.6-2 1-4.5 1-3.3 0-4.3-0.3-3.8-1.3 0.3-0.6 1-1.8 1.6-2.5 0.5-0.6 1.5-1.2 2.3-1.2z"/>
		<path id="Path 113" class="s6" d="m1006.3 392c1.8 0 3.8 0.5 4.4 1.2 1 1 1.8 1.1 3.8 0.1 1.4-0.7 3.7-1.3 5.3-1.3 1.5 0 3.5 0.8 4.5 1.8 1.5 1.4 1.8 3.4 1.7 21.2h-6v-9c0-7.1-0.3-9.2-1.5-9.8-1-0.4-2.2 0-3.3 1.1-1.3 1.3-1.8 3.9-2.2 17.7h-6v-9c0-7.7-0.3-9.1-1.7-9.7-1.2-0.4-2.4 0.2-3.6 1.8-1.3 1.8-1.8 4.2-1.7 16.9h-6v-22.5l4 0.8c2.4 0.4 4.2 0.3 4.5-0.3 0.4-0.6 2-1 3.8-1zm-26.3 0c3.7 0 5.5 0.5 7 2 1.7 1.7 2 3.3 2 10 0 4.4 0.2 8.7 0.5 9.5 0.4 1.1-0.3 1.5-2.5 1.5-1.6 0-3-0.4-3-1q0-1-2 0c-1.1 0.6-3.5 1-5.2 1-1.8 0-4.1-0.8-5.1-1.8-1-0.9-1.8-3.1-1.8-4.7 0-1.6 0.8-3.8 1.8-4.7 1-0.9 3.8-2.1 6.3-2.7 2.5-0.6 4.7-1.3 5-1.6 0.3-0.3-0.3-1.3-1.2-2.3-1-1-2.3-1.4-3-1-0.7 0.5-2.1 1.4-3 2-1.2 1-2.2 1-6.3-0.9l2.7-2.6c2.2-2.2 3.6-2.7 7.8-2.7z"/>
		<path id="Path 114" class="s9" d="m982.6 404.6c0.1 0.2 0 1.5-0.2 2.9-0.2 1.5-1.2 2.7-2.4 3-1.1 0.3-2.5 0.3-3 0-0.5-0.3-1.1-1.4-1.2-2.5-0.2-1.4 0.6-2.2 3.2-2.8 1.8-0.5 3.4-0.7 3.6-0.6z"/>
		<path id="Path 115" class="s6" d="m965.7 392c1.3 0 2.5 0.4 2.7 0.9 0.3 0.5 0.3 1.6 0 2.5-0.2 0.9-1.5 1.6-2.9 1.6-1.5 0-2.9 0.8-3.5 2-0.6 1.1-1 5.1-1 16h-6v-22l3.3 0.2c1.8 0.1 3.7-0.1 4.2-0.5 0.4-0.4 1.9-0.7 3.2-0.7zm164.3-7h6v6.5c0 3.6 0.3 6.5 0.7 6.5 0.5 0 1.9-1.2 3.3-2.6 1.9-1.8 3.4-2.4 9.4-1.9l-6.9 7.7 7.5 13.8h-3.3c-2.8 0-3.5-0.6-5.7-4.5-1.4-2.5-3-4.4-3.5-4.2-0.6 0.2-1.1 2.2-1.3 4.5-0.2 3.9-0.4 4.2-6.2 4.2v-15zm-201 0h21v2.5c0 2.4-0.2 2.5-14 2.5v7h6c5.7 0 6 0.1 6 2.5 0 2.4-0.3 2.5-12 2.5v13h-7v-15z"/>
		<path id="Path 116" class="s3" d="m1135.7 352c0.2 1.9 0.2 5.5 0 8-0.2 2.5-0.4 0.9-0.4-3.5 0-4.4 0.2-6.4 0.4-4.5zm-51-3.5c0.2 2.8 0.2 7.5 0 10.5-0.2 3-0.3 0.8-0.3-5 0-5.8 0.1-8.3 0.3-5.5z"/>
		<path id="Path 117" class="s6" d="m1079 343h5.5v22h-5.5v-11zm-40 0h6v6.5c0 3.6 0.5 7.6 1 9 0.5 1.4 1.6 2.5 2.4 2.5 0.8 0 2.2-0.7 3-1.5 1.2-1.1 1.6-3.5 1.6-16.5l6.5 0.5v10.5c0 10.5 0 10.5-2.5 10.8-1.4 0.2-2.7-0.2-3-0.8-0.4-0.9-1.1-0.9-2.8-0.1-1.2 0.6-3.4 1.1-5 1.1-1.5 0-3.2-0.4-3.8-0.8-0.6-0.4-1.6-1.7-2.3-3-0.6-1.2-1.1-5.8-1.1-10.2z"/>
		<path id="Path 118" class="s6" d="m1059.7 348.5c0.2 2.8 0.2 7.5 0 10.5-0.2 3-0.3 0.8-0.3-5 0-5.8 0.1-8.3 0.3-5.5z"/>
		<path id="Path 119" class="s1" d="m1058.7 348.5c0.2 2.8 0.2 7.5 0 10.5-0.2 3-0.3 0.8-0.3-5 0-5.8 0.1-8.3 0.3-5.5z"/>
		<path id="Path 120" class="s6" d="m1128.3 342c1.8 0 4 0.5 5 1.2 1.6 1.1 1.9 2.8 2.2 21.8h-5.5v-7.5c0-4.1-0.5-8.4-1-9.5-0.5-1.1-1.6-2-2.4-2-0.8 0-2.2 0.7-3 1.5-1.2 1.1-1.6 3.5-1.6 17.5h-6v-22.5l4 0.7c2.4 0.5 4.2 0.4 4.5-0.2 0.4-0.6 2-1 3.8-1zm-27.8 0c3.5 0 5.1 0.6 7.5 2.7 2.2 2.1 3.1 4 3.4 7.3 0.3 2.8-0.1 5.5-1 7.2-0.8 1.6-2.4 3.5-3.6 4.3-1.3 0.8-4.2 1.5-6.5 1.5-3.3 0-5-0.7-7.5-2.9-3-2.7-3.3-3.5-3.3-8.6 0-5.1 0.3-5.9 3.3-8.6 2.5-2.3 4.2-2.9 7.7-2.9z"/>
		<path id="Path 121" class="s9" d="m1100.5 346c0.5 0 1.9 0.6 3 1.4 1.5 1.1 2 2.6 2 6.1 0 3.5-0.5 5-2 6.1-1.1 0.8-2.5 1.4-3 1.4-0.5 0-1.8-0.5-2.9-1.2-1.4-1-1.8-2.5-1.8-6.3 0-3.7 0.4-5.3 1.8-6.2 1-0.7 2.3-1.3 2.9-1.3z"/>
		<path id="Path 122" class="s6" d="m1025.4 342c3.6 0 5.2 0.6 10.1 5.3l-2.3 1.1c-1.8 0.8-2.8 0.8-4-0.2-0.9-0.6-2.4-1.5-3.2-1.9-0.8-0.3-2.2-0.2-3 0.4-0.8 0.6-1.6 2.8-1.8 4.9-0.2 2.1-0.1 4.9 0.2 6.1 0.3 1.3 1.6 2.6 2.8 2.9 1.6 0.5 2.8 0 4-1.5 1.3-1.5 2.6-1.9 4.3-1.6 1.4 0.3 2.5 0.9 2.5 1.5 0 0.6-1.1 2.1-2.5 3.5-1.9 1.9-3.4 2.5-7 2.5-3.7 0-5-0.5-7.5-3-2.6-2.6-3-3.7-2.9-8.6 0-4.7 0.5-6 2.9-8.5 2.3-2.4 3.7-2.9 7.4-2.9zm-24.5 0c3.2 0 4.7 0.6 7.1 3 2.2 2.2 3 3.9 3 10h-7c-5.6 0-7 0.3-7 1.5 0 0.8 0.7 2.2 1.5 3 0.8 0.8 2.1 1.5 2.7 1.5 0.7 0.1 2-0.6 2.8-1.5 0.8-0.9 2.2-1.6 3-1.5 0.8 0 2.2 0.4 3 0.9 1.3 0.7 1.1 1.3-1.2 3.5-2.1 2-3.7 2.6-7.3 2.6-3.7 0-5-0.5-7.5-3-2.6-2.6-3-3.7-2.9-8.6 0-4.7 0.5-6 2.9-8.5 2.2-2.3 3.7-2.9 6.9-2.9z"/>
		<path id="Path 123" class="s9" d="m1001.5 346c0.5 0 1.6 0.5 2.3 1.2 0.7 0.7 1.2 1.9 1.2 2.5 0 0.8-1.5 1.3-4 1.3-2.7 0-4.1-0.5-4.2-1.5-0.1-0.7 0.7-1.9 1.8-2.4 1-0.6 2.4-1.1 2.9-1.1z"/>
		<path id="Path 124" class="s6" d="m949.1 342c2.2 0 5 0.8 6.4 1.8 1.4 0.9 3 3.1 3.6 4.7 0.5 1.6 0.9 3.8 0.9 4.8 0 1.4-1.1 1.7-14.9 2.2l1.2 2.5c0.7 1.4 2 2.6 3 2.8 0.9 0.1 2.3-0.5 3.1-1.3 0.8-0.8 2.4-1.5 3.5-1.5 1.2 0 2.4 0.6 2.8 1.3 0.3 0.7-0.5 2.2-2 3.5-1.9 1.5-4 2.2-7 2.2-2.3 0-5.2-0.7-6.5-1.5-1.2-0.8-2.7-3.2-3.3-5.3-0.6-2-0.9-5.3-0.6-7.2 0.4-1.9 1.8-4.7 3.3-6.3 2-2 3.6-2.7 6.5-2.7z"/>
		<path id="Path 125" class="s9" d="m949.6 346c0.8 0 2.1 0.7 2.9 1.5 0.8 0.8 1.5 1.9 1.5 2.5 0 0.6-2 1-4.5 1-3.3 0-4.3-0.3-3.8-1.3 0.3-0.6 1-1.8 1.6-2.5 0.5-0.6 1.5-1.2 2.3-1.2z"/>
		<path id="Path 126" class="s6" d="m1070.4 336.1l0.3 3.4c0.2 2.8 0.8 3.6 2.5 3.7 1.3 0.2 2.3 1 2.3 1.8 0 0.8-1 1.6-2.3 1.7-2.1 0.3-2.2 0.7-2 7 0.2 5.3 0.6 6.8 1.8 6.8 0.8 0 1.8 0.6 2.2 1.2 0.5 0.7 0.6 1.7 0.3 2.3-0.3 0.5-2.1 1-4 1-1.9 0-4.2-0.7-5-1.5-1.1-1.1-1.5-3.7-1.5-9 0-6-0.3-7.5-1.5-7.5-0.8 0-1.5-0.9-1.5-2 0-1.1 0.7-2 1.5-2 0.9 0 1.4-0.8 1.3-2-0.1-1.2 0.9-2.5 2.7-3.4zm11.4-1.1c2.1 0 2.8 0.5 2.8 2-0.1 1.5-0.8 2-2.8 2-2.1 0-2.8-0.5-2.8-2 0-1.5 0.7-2 2.8-2zm-115.3 0c3 0 3.9 0.6 6.3 4 1.5 2.3 2.7 4.1 2.7 4.1 0 0 1.3-1.8 2.8-4.1 2.3-3.4 3.3-4 6.2-4 2 0 3.5 0.2 3.5 0.5 0 0.3-2 3.5-8.8 14l4.9 7.2c2.7 4 4.9 7.5 4.9 7.8 0 0.3-1.5 0.5-3.5 0.5-3 0-3.9-0.6-6.5-4.5-1.6-2.5-3.2-4.5-3.5-4.5-0.2 0-1.8 2-3.5 4.5-2.6 3.9-3.4 4.5-6.5 4.5-1.9 0-3.5-0.2-3.5-0.5 0-0.3 2.1-3.5 4.5-7.3 2.5-3.7 4.5-7.3 4.5-8 0-0.6-1.8-3.9-4-7.2-2.2-3.3-4-6.2-4-6.5 0-0.3 1.6-0.5 3.5-0.5z"/>
		<path id="Path 127" class="s0" d="m911 0h832v114h-832v-57z"/>
		<path id="Path 128" class="s1" d="m920 9h814v96h-814v-48z"/>
		<path id="Path 129" class="s2" d="m1450 49h5v22h-5v-11zm-73 0h6v22h-6v-11zm122.5-1.1c1.1 0 3.1 0.9 4.5 2 2.3 1.8 2.5 2.6 3 21.1h-6l-0.3-8.6c-0.2-7-0.5-8.9-1.9-9.8-1.3-0.8-2.3-0.8-3.6 0-1.4 0.9-1.7 2.8-2.2 18.4h-6v-22h2.5c1.4 0 2.6 0.6 2.8 1.3 0.2 0.9 1 0.7 2.8-0.6 1.3-0.9 3.3-1.7 4.4-1.8zm-27 0.5c2.8 0.3 4.8 1.4 6.8 3.5 2.1 2.4 2.7 4.1 2.7 7.6 0 3.3-0.6 5.3-2.5 7.5-1.7 2-3.8 3.2-6.3 3.6-2.2 0.3-4.9 0-6.6-0.8-1.7-0.7-3.8-2.6-4.8-4.3-1-1.7-1.8-4.2-1.8-5.7 0-1.6 0.7-4.2 1.5-5.8 0.8-1.6 2.7-3.7 4.2-4.5 1.8-1 4.3-1.4 6.8-1.1z"/>
		<path id="Path 130" class="s1" d="m1471.6 52c1.4 0 3.1 1 3.9 2.3 0.8 1.2 1.5 3.6 1.5 5.2 0 1.6-0.7 4-1.5 5.3-0.8 1.2-2.5 2.2-3.7 2.2-1.3 0-3.1-0.8-4.1-1.8-1-1-1.8-3.3-1.9-5.6q-0.2-3.9 1.7-5.8c1-1 2.9-1.8 4.1-1.8z"/>
		<path id="Path 131" class="s2" d="m1421 48c2-0.1 4.5 0.7 6 1.9 2.3 1.7 2.5 2.8 3.5 21.1h-2.8c-1.5 0-2.8-0.5-3-1.1-0.1-0.9-0.8-0.9-2.5 0-1.2 0.6-3.2 1.1-4.5 1.1-1.2 0-3.2-0.7-4.5-1.5-1.5-1-2.2-2.5-2.2-4.8-0.1-1.7 0.5-3.8 1.2-4.4 0.7-0.7 3.5-1.9 6.3-2.6 3.8-1 5-1.8 5-3.3 0-1.3-0.8-2-2.5-2.2-1.4-0.2-2.9 0.3-3.5 1.2-0.6 0.8-1.9 1.3-3.3 1-1.2-0.2-2.2-0.7-2.2-1.2 0-0.4 0.4-1.2 0.8-1.7 0.4-0.6 1.6-1.6 2.7-2.2 1.1-0.7 3.6-1.3 5.5-1.3z"/>
		<path id="Path 132" class="s1" d="m1423.3 60.1c0.4 0 0.7 0.9 0.7 2.1 0 1.3-0.5 2.9-1.2 3.5-0.7 0.7-1.9 1.3-2.8 1.3-0.8 0.1-2.1-0.6-2.7-1.5-0.9-1.1-1-1.9-0.2-2.9 0.5-0.8 2-1.7 3.2-1.9 1.2-0.2 2.5-0.5 3-0.6z"/>
		<path id="Path 133" class="s2" d="m1398.3 48c1.5 0 3.7 0.5 5 1.2 1.2 0.6 2.7 1.8 3.4 2.7 1 1.3 0.7 1.7-1.5 2.3-1.9 0.5-2.9 0.3-3.4-0.7-0.5-0.8-1.8-1.5-3-1.5-1.3-0.1-3 0.7-3.8 1.6-1 1.1-1.4 3.4-1.3 6.3 0.2 2.5 0.8 5.2 1.5 5.9 0.7 0.7 2.3 1.3 3.6 1.2 1.2 0 2.6-0.8 3.1-1.8 0.6-1 1.9-1.6 3.5-1.5 1.4 0.2 2.6 0.6 2.6 1 0 0.5-0.6 1.5-1.3 2.4-0.7 0.9-2.2 2.1-3.4 2.7-1.3 0.7-3.4 1.2-4.8 1.2-1.4 0-3.7-0.6-5.1-1.3-1.5-0.6-3.3-2.4-4-4-0.8-1.5-1.4-4.4-1.4-6.5 0.1-2 0.8-4.8 1.6-6.1 0.9-1.3 2.6-3 3.7-3.7 1.2-0.7 3.4-1.3 5-1.4zm-46 0c0.9 0 2.6 0.5 3.7 1 1.1 0.5 2.7 2.4 3.5 4 0.8 1.6 1.5 4.7 1.5 6.8 0 2-0.9 5.2-2 6.9-1.2 2-3.1 3.6-4.7 3.9-1.6 0.3-3.8 0.1-5-0.5-1.3-0.6-2.5-0.8-2.8-0.4-0.3 0.5-0.5 2.7-0.5 5 0 4.1-0.1 4.3-6 4.3v-30h2.5c1.4 0 2.6 0.6 2.8 1.2 0.2 1 1 0.8 2.8-0.5 1.3-0.9 3.2-1.7 4.2-1.7z"/>
		<path id="Path 134" class="s1" d="m1350.3 52c1.2 0 2.8 0.5 3.5 1.2 0.7 0.7 1.2 3.5 1.2 6.3 0 2.8-0.5 5.6-1.2 6.3-0.7 0.6-2 1.2-3 1.2-1 0-2.5-0.7-3.3-1.5-0.8-0.8-1.5-3.3-1.6-5.6 0-2.2 0.4-4.9 1-6 0.7-1 2.2-1.9 3.4-1.9z"/>
		<path id="Path 135" class="s2" d="m1326.8 48c1.2 0 3.5 1.4 5.2 3 2.6 2.6 3 3.7 3 8.5 0 4.8-0.4 5.9-3 8.5-2.2 2.2-3.7 2.9-5.7 2.6-1.6-0.2-3.6-0.6-4.5-1-1.6-0.5-1.8 0.1-1.8 4.4 0 4.9-0.1 5-6 5v-30h3c1.7 0 2.9 0.5 2.9 1.1-0.1 0.5 0.9 0.3 2.2-0.6 1.3-0.8 3.4-1.5 4.7-1.5z"/>
		<path id="Path 136" class="s1" d="m1325.1 52c1 0 2.6 1 3.4 2.3 0.8 1.2 1.5 3.6 1.5 5.2 0 1.6-0.7 4-1.5 5.3-0.8 1.2-2.4 2.2-3.5 2.2-1.1 0-2.7-1-3.5-2.3-0.8-1.2-1.5-3.9-1.6-5.9 0-2.2 0.6-4.3 1.6-5.2 0.9-0.9 2.5-1.6 3.6-1.6z"/>
		<path id="Path 137" class="s2" d="m1233.9 48.3c3.2 0.4 5.2 1.2 6.4 2.9 1.9 2.3 1.9 2.3-1 3-2 0.5-3 0.3-3.6-0.7-0.4-0.8-1.7-1.5-3-1.5-1.3 0-2.8 0.6-3.5 1.3-0.7 0.6-1.2 3.1-1.2 5.5 0 2.3 0.4 5.1 1 6.2 0.6 1.2 2 2 3.5 2 1.4 0 3.1-0.9 3.7-1.9 0.9-1.3 2.1-1.8 3.5-1.5 1.3 0.2 2.3 1 2.3 1.7 0.1 0.6-0.7 2-1.7 3-1 1-3.8 2-6.3 2.4-4 0.5-4.9 0.3-8-2.5-3.2-2.8-3.5-3.5-3.5-8.7 0-5.2 0.3-5.9 3.4-8.7 3-2.7 3.9-3 8-2.5zm-37.9 0.1c2.9 0.3 5 1.1 5.8 2.3 0.7 1 1.2 4.8 1.2 8.8 0 3.8 0.2 8 0.5 9.3 0.4 1.8 0.1 2.2-2 2.2-1.4 0-2.6-0.5-2.8-1.1-0.1-0.9-1.2-0.8-3.9 0.2-3 1.1-4.2 1.2-6.2 0.1-1.4-0.6-3.2-2.3-3.9-3.6-1-2.1-0.9-2.9 0.5-5 1.2-1.8 3.6-3.1 7.3-4.1 4.1-1.1 5.4-1.9 5-3-0.3-0.8-0.5-1.7-0.5-2 0-0.3-1.2-0.5-2.8-0.5-1.5 0.1-3.2 0.7-3.7 1.5-0.6 0.9-1.9 1.3-3.3 1-1.9-0.4-2-0.8-1-2.6 0.7-1.1 2.1-2.4 3.3-2.9 1.1-0.6 4-0.8 6.5-0.6z"/>
		<path id="Path 138" class="s1" d="m1196.6 60.1c0.6-0.1 0.9 1.1 0.6 2.6-0.2 1.6-0.8 3.1-1.3 3.6-0.5 0.4-1.9 0.6-3.1 0.5q-2.3-0.3-2.5-2.6c-0.2-1.6 0.4-2.4 2.5-3.1 1.5-0.5 3.2-1 3.8-1z"/>
		<path id="Path 139" class="s2" d="m1440.8 43c0.7 0 1.2 1.3 1.2 3 0 2.3 0.4 3 2 3q2 0 2 2 0 2-2 2c-1.8 0-2 0.7-2 7 0 6.3 0.2 7 2 7q2 0 1.7 1.8c-0.1 1.1-1.3 1.8-3.2 2-1.9 0.2-3.7-0.4-4.8-1.5-1.4-1.4-1.8-3.4-1.7-9.1 0-5.7-0.3-7.2-1.5-7.2-0.8 0-1.5-0.9-1.5-2 0-1.1 0.7-2 1.5-2 0.9 0 1.4-0.8 1.3-2-0.1-1 0.7-2.4 1.8-2.9 1-0.6 2.5-1.1 3.2-1.1zm-226 0c0.7 0 1.2 1.3 1.2 3q0 3 1.5 3c0.8 0 1.5 0.9 1.5 2 0 1.1-0.7 2-1.5 2-1.2 0-1.5 1.4-1.5 7 0 6.3 0.2 7 2 7q2 0 1.7 1.7c-0.1 1.2-1.3 1.9-3.2 2.1-1.8 0.2-3.7-0.3-4.7-1.2-1.4-1.3-1.8-3.2-1.8-9.1 0-6-0.3-7.5-1.5-7.5-0.8 0-1.5-0.9-1.5-2 0-1.1 0.7-2 1.5-2 0.9 0 1.4-0.8 1.3-2-0.1-1 0.7-2.4 1.8-2.9 1-0.6 2.5-1.1 3.2-1.1zm237.7-2c1.8 0 2.5 0.5 2.5 2 0 1.5-0.7 2-2.5 2-1.8 0-2.5-0.5-2.5-2 0-1.5 0.7-2 2.5-2zm-72.5 0c2.3 0 3 0.4 3 2 0 1.6-0.7 2-3 2-2.3 0-3-0.4-3-2 0-1.6 0.7-2 3-2zm-14 0h5v30h-5v-15zm-69.8 0.2c4 0.3 4.2 0.5 5.8 5.3 1 2.7 3.4 9.4 9 24.5h-3.2c-2.9 0-3.4-0.4-4.3-3.2-1.1-3.3-1.2-3.3-14.5-3.8l-0.5 3c-0.3 1.7-1.1 3.3-1.7 3.6-0.7 0.3-2.3 0.4-3.4 0.2-2.1-0.3-2-0.7 2.7-13.8 2.7-7.4 5.2-14.1 5.5-14.8 0.3-0.9 1.9-1.2 4.6-1z"/>
		<path id="Path 140" class="s1" d="m1296.1 48c0.5 0 1.6 2.4 2.5 5.3 0.8 2.8 1.4 5.3 1.2 5.5-0.2 0.1-2.2 0.1-8.5-0.3l1.9-5.3c1.1-2.8 2.4-5.2 2.9-5.2z"/>
		<path id="Path 141" class="s2" d="m1247 41h2.5c2.3 0 2.5 0.4 2.5 4.5 0 3.9 0.2 4.4 1.8 3.9 0.9-0.4 2.8-0.9 4.2-1.1 1.5-0.3 3.6 0.3 5.3 1.6 2.6 2 2.7 2.4 2.7 21.1h-6l-0.3-9.3c-0.2-8.4-0.4-9.2-2.2-9.5-1.1-0.1-2.7 0.2-3.5 0.8-1.1 0.7-1.6 3.2-1.8 9.5-0.2 8.3-0.2 8.5-5.2 8.5v-15zm-99.1 0c3.1 0 3.1 0.1 4.8 8.2 1 4.5 2.3 8.3 2.8 8.5 0.5 0.2 2.1-3.5 6-16.8l3.4 0.3c3.4 0.3 3.5 0.4 5.5 8.2 1.2 4.4 2.7 8.1 3.3 8.3 0.9 0.2 1.9-2.5 3.1-7.9 1.6-7.8 1.9-8.3 4.5-8.5 1.5-0.2 2.7 0.2 2.7 0.7 0 0.5-1.7 7.3-3.8 15-3.6 13.8-3.8 14-6.5 14-2.2 0-2.9-0.6-3.6-3.2-0.6-1.8-1.8-6.1-2.8-9.6-1-3.4-2.3-6.2-2.8-6.2-0.5 0-2.1 4.3-6 19h-6.5l-3.1-13.2c-1.6-7.3-3.3-14.1-3.6-15-0.4-1.5 0.1-1.8 2.6-1.8z"/>
		<path id="Path 142" class="s8" d="m1 137h93v123h172v298h-265v-210.5z"/>
		<path id="Path 143" class="s9" d="m10 146h75.7v15.3c0 8.3 0.1 36 0.3 107.7h171.5l1 280h-248.5v-201.5z"/>
		<path id="Path 144" class="s6" d="m159 436c1.1 0 2.7 1 3.5 2.3 0.9 1.2 2.5 5.3 3.6 9.2 2 6.7 2.1 7.3 0.5 13.5-0.9 3.6-2.5 8-3.6 9.8-1.2 1.9-2.8 3.2-4 3.2-1.5 0-1.8-0.5-1.4-1.8 0.4-0.9 1.3-3.7 2-6.2 0.8-2.5 1.4-7.4 1.4-11 0-3.9-0.8-8.9-2-12.5-1.1-3.3-2-6.1-2-6.3 0-0.1 0.9-0.2 2-0.2zm-26.9-0.1l10.7 0.3c9.9 0.3 10.7 0.4 10.7 2.3 0 1.8-0.8 2-14.5 2.5v7h6.5c6.3 0 6.5 0.1 6.5 2.5 0 2.4-0.2 2.5-13 2.5v13h-7v-15zm-25.5 0c2.9 0 3.9 0.6 6.2 4.1 1.5 2.2 2.8 4 2.8 4 0 0 1.2-1.8 2.7-4 2.3-3.5 3.3-4.1 6.3-4.1 1.9 0 3.5 0.3 3.5 0.5 0 0.3-2 3.6-8.9 14l4.9 7.3c2.7 4 5 7.5 5 7.7 0 0.3-1.6 0.5-3.5 0.5-3.1 0-3.9-0.6-6.5-4.5-1.7-2.4-3.3-4.5-3.5-4.5-0.3 0-1.9 2.1-3.5 4.5-2.6 3.9-3.5 4.5-6.5 4.5-2 0-3.5-0.2-3.5-0.5 0-0.2 2-3.5 4.5-7.2 2.4-3.7 4.5-7.3 4.5-8 0-0.7-1.8-4-4-7.3-2.2-3.3-4-6.2-4-6.5 0-0.2 1.5-0.5 3.5-0.5zm-6.5 0l-2.2 5.3c-1.6 3.9-2.1 7.3-2.1 13.7 0 6.5 0.5 9.8 4.3 19h-2.5c-2 0-2.9-0.9-4.5-4.2-1.1-2.4-2.4-6.5-3-9.3-0.6-2.7-0.8-7-0.5-9.5 0.4-2.4 1.8-6.8 3.1-9.7 2-4.3 3-5.3 7.4-5.3zm46-43c2.8 0 3 0.4 4 5 0.5 2.8 1.4 5.3 2 5.5 0.5 0.3 1.2 0 1.4-0.7 0.3-0.7 0.9-3.2 1.5-5.5 1-3.8 1.4-4.3 4.1-4.3 2.7 0 3.1 0.5 4 4.3 0.6 2.3 1.3 4.9 1.5 5.7 0.3 1 0.8 1.2 1.3 0.5 0.5-0.5 1.5-3.1 2.3-5.7 1.2-4.3 1.7-4.8 4.1-4.8 2.1 0 2.7 0.5 2.4 1.8-0.2 0.9-1.7 5.9-3.3 11-2.8 9.2-2.9 9.3-6.1 9.3-3-0.1-3.3-0.4-3.8-3.8-0.3-2.1-0.9-4.4-1.5-5.3-0.8-1.3-1-1.3-1.9 0-0.5 0.9-1.2 3.2-1.5 5.3-0.5 3.4-0.8 3.7-3.8 3.8-3.2 0-3.2 0-6.5-10.3-1.8-5.6-3.3-10.6-3.3-11 0.1-0.4 1.4-0.8 3.1-0.8zm68.3-1c1.7 0 2.2 0.6 2.2 2.3 0 1.4-0.8 2.3-2 2.6-1.1 0.2-2.6 0.9-3.3 1.5-0.9 0.7-1.3 3.7-1.2 16.6h-7v-22h3c1.6 0 2.9 0.5 2.9 1.1 0 0.6 0.7 0.4 1.6-0.5 0.9-0.9 2.6-1.6 3.8-1.6zm-26.6 0.1c1.8-0.1 4.5 0.6 6 1.3 1.5 0.8 3.3 2.6 4 4 0.7 1.5 1.3 4.4 1.3 6.6 0 3.2-0.7 4.7-3.4 7.5-2.7 2.8-4.2 3.5-7 3.5-2 0-5-0.6-6.6-1.5-1.7-0.8-3.5-2.4-4-3.5-0.6-1.1-1-4.1-1-6.7 0-3 0.7-5.6 1.7-6.9 1-1.2 2.7-2.6 3.8-3.2 1.1-0.6 3.4-1.1 5.2-1.1z"/>
		<path id="Path 145" class="s9" d="m187.9 396c0.9 0 2.4 0.8 3.4 1.8 1.1 1.1 1.7 3.1 1.7 5.7 0 2.4-0.8 4.7-1.8 5.8-0.9 1-2.4 1.7-3.2 1.7-0.8 0-2.3-0.8-3.3-1.8-1-1-1.8-3.3-1.9-5.6q-0.2-3.9 1.7-5.8c1-1 2.5-1.8 3.4-1.8z"/>
		<path id="Path 146" class="s6" d="m130.1 392c2.2 0 5 0.8 6.4 1.8 1.4 0.9 3 3.1 3.6 4.7 0.5 1.6 0.9 3.8 0.9 4.8 0 1.4-1.1 1.7-14.9 2.2l1.2 2.5c0.7 1.4 2 2.6 3 2.8 0.9 0.1 2.3-0.5 3.1-1.3 0.8-0.8 2.4-1.5 3.5-1.5 1.2 0 2.4 0.6 2.8 1.3 0.3 0.7-0.5 2.2-2 3.5-1.9 1.5-4 2.2-6.9 2.2-2.4 0-5.3-0.7-6.5-1.5-1.3-0.8-2.8-3.2-3.4-5.3-0.6-2-0.9-5.3-0.6-7.2 0.4-1.9 1.8-4.7 3.3-6.3 2-2 3.6-2.7 6.5-2.7z"/>
		<path id="Path 147" class="s9" d="m130.6 396c0.8 0 2.1 0.7 2.9 1.5 0.8 0.8 1.5 1.9 1.5 2.5 0 0.6-2 1-4.5 1-3.3 0-4.3-0.3-3.8-1.3 0.3-0.6 1-1.8 1.6-2.5 0.5-0.6 1.5-1.2 2.3-1.2z"/>
		<path id="Path 148" class="s6" d="m96.2 392c1.5 0 3.7 0.6 4.8 1.3 1.6 0.9 2.2 0.9 3.2-0.1 0.6-0.6 2.7-1.2 4.5-1.2 2 0 4.1 0.8 5.3 2 1.7 1.7 2 3.3 2 21h-6v-8.3c0-5.3-0.4-8.6-1.2-9.5-0.7-0.7-1.6-1.2-2-1.2-0.4 0-1.4 0.7-2.2 1.5-1.2 1.1-1.6 3.5-1.6 17.5h-6v-8.3c0-5.3-0.4-8.6-1.2-9.5-0.7-0.7-1.6-1.2-2-1.2-0.4 0-1.4 0.7-2.2 1.5-1.2 1.1-1.6 3.5-1.6 17.5h-6v-22l3.9 0.2c2.1 0.1 4.2-0.1 4.6-0.5 0.5-0.4 2.1-0.7 3.7-0.7zm-26.2 0c3.7 0 5.5 0.5 7 2 1.7 1.7 2 3.3 2 10 0 4.4 0.2 8.7 0.5 9.5 0.4 1.1-0.3 1.5-2.5 1.5-1.7 0-3-0.4-3-1q0-1-2 0c-1.1 0.6-3.5 1-5.3 1-1.7 0-4-0.8-5-1.8-1-0.9-1.8-3.1-1.8-4.7 0-1.6 0.8-3.8 1.8-4.7 1-0.9 3.8-2.1 6.3-2.7 2.5-0.6 4.7-1.3 5-1.6 0.3-0.3-0.3-1.3-1.2-2.3-1-1-2.3-1.4-3-1-0.7 0.5-2.1 1.4-3 2-1.2 1-2.2 1-6.3-0.9l2.7-2.6c2.2-2.2 3.6-2.7 7.8-2.7z"/>
		<path id="Path 149" class="s9" d="m72.6 404.6c0.1 0.2 0 1.5-0.2 2.9-0.2 1.5-1.2 2.7-2.4 3-1.1 0.3-2.4 0.3-3 0-0.5-0.3-1.1-1.4-1.2-2.5-0.2-1.4 0.6-2.2 3.2-2.8 1.8-0.5 3.4-0.7 3.6-0.6z"/>
		<path id="Path 150" class="s6" d="m55.3 392c1.2 0 2.5 0.3 2.9 0.7 0.3 0.4 0.5 1.6 0.2 2.5-0.2 1.1-1.5 1.9-3.1 2-2.3 0.3-3 1-4.1 4.3-0.7 2.2-1.2 6.1-1 8.8 0.3 4.5 0.2 4.7-5.2 4.7v-22.5l3.5 0.7c2.1 0.5 3.7 0.4 4-0.2 0.4-0.6 1.6-1 2.8-1zm164.7-7h6v6.5c0 3.6 0.3 6.5 0.8 6.5 0.4 0 1.8-1.2 3.2-2.6 1.9-1.8 3.4-2.4 9.4-1.9l-6.9 7.7 7.5 13.8h-3.2c-2.9 0-3.6-0.6-5.8-4.5-1.4-2.5-2.9-4.4-3.5-4.2-0.5 0.2-1.1 2.2-1.2 4.5-0.3 3.9-0.5 4.2-6.3 4.2v-15zm-201 0h21v2.5c0 2.4-0.2 2.5-14 2.5v7h6c5.7 0 6 0.1 6 2.5 0 2.4-0.3 2.5-12 2.5v13h-7v-15z"/>
		<path id="Path 151" class="s3" d="m225.7 352c0.2 1.9 0.2 5.5 0 8-0.2 2.5-0.4 0.9-0.4-3.5 0-4.4 0.2-6.4 0.4-4.5zm-51-3.5c0.2 2.8 0.2 7.5 0 10.5-0.2 3-0.3 0.8-0.3-5 0-5.8 0.1-8.3 0.3-5.5zm-26 0c0.2 2.8 0.2 7.5 0 10.5-0.2 3-0.3 0.8-0.3-5 0-5.8 0.1-8.3 0.3-5.5z"/>
		<path id="Path 152" class="s6" d="m169 343h5.5v22h-5.5v-11zm-40 0h6l0.3 8.1c0.2 6.7 0.5 8.4 2 9.3 1.5 0.9 2.2 0.6 3.8-1.4 1.5-1.9 2-4 1.9-9.3 0-6.7 0-6.7 5.5-6.7v22h-2.7c-1.6 0-2.8-0.4-2.8-1q0-1-2 0c-1.1 0.6-3.3 1-5 1-1.7 0-3.9-0.9-5-2-1.7-1.7-2-3.3-2-11zm89.3-1c1.8 0 4 0.5 5 1.2 1.6 1.1 1.9 2.8 2.2 21.8h-5.5v-7.5c0-4.1-0.4-8.4-1-9.5-0.6-1.1-1.6-2-2.4-2-0.8 0-2.2 0.7-3 1.5-1.2 1.1-1.6 3.5-1.6 17.5h-6v-22.5l4 0.7c2.4 0.5 4.2 0.4 4.5-0.2 0.4-0.6 2-1 3.8-1zm-28.1 0c2.8-0.1 5.2 0.6 7.1 2 1.5 1.1 3.2 3.7 3.8 5.8 0.8 2.7 0.8 4.7 0 7.5-0.7 2.4-2.2 4.4-4.3 5.7-1.8 1.1-4.8 2-6.5 2-1.8 0-4.5-0.6-5.9-1.3-1.5-0.6-3.3-2.4-4-4-0.8-1.5-1.4-4.5-1.3-6.8 0.1-3.2 0.8-4.8 3.4-7.5 2.7-2.8 4-3.4 7.7-3.4z"/>
		<path id="Path 153" class="s9" d="m190.3 346c0.6-0.1 2.1 0.9 3.2 2.1 1.2 1.2 2 3.5 2 5.4 0 1.9-0.8 4.2-2 5.4-1.1 1.2-2.6 2.2-3.3 2.1-0.6 0-2.1-0.9-3.2-2-1.2-1.2-2-3.3-2-5.5 0-2.2 0.8-4.3 2-5.5 1.1-1.1 2.6-2 3.2-2z"/>
		<path id="Path 154" class="s6" d="m115.4 342c3.6 0 5.2 0.6 10.1 5.3l-2.3 1.1c-1.8 0.8-2.8 0.8-4-0.2-0.9-0.6-2.4-1.5-3.2-1.9-0.8-0.3-2.2-0.2-3 0.4-0.8 0.6-1.6 2.8-1.8 4.9-0.2 2.1-0.1 4.9 0.2 6.1 0.3 1.3 1.6 2.6 2.8 2.9 1.6 0.5 2.8 0 4-1.5 1.3-1.5 2.6-1.9 4.3-1.6 1.4 0.3 2.5 0.9 2.5 1.5 0 0.6-1.1 2.1-2.5 3.5-1.9 1.9-3.4 2.5-7 2.5-3.7 0-5-0.5-7.5-3-2.6-2.6-3-3.7-2.9-8.6 0-4.7 0.5-6 2.9-8.5 2.3-2.4 3.7-2.9 7.4-2.9zm-24.5 0c2.9 0 4.8 0.7 6.5 2.2 1.3 1.3 2.9 3.8 3.5 5.5 0.6 1.8 0.9 3.7 0.6 4.3-0.3 0.6-3.7 1-7.5 1-5.6 0-7 0.3-7 1.5 0 0.8 0.7 2.2 1.5 3 0.8 0.8 2.2 1.5 3 1.5 0.8 0 1.7-0.7 2-1.5 0.3-0.8 1.5-1.5 2.7-1.5 1.3 0 2.9 0.4 3.6 0.8 0.9 0.5 0.6 1.4-1.4 3.4-2.1 2.2-3.6 2.8-7 2.8-3.6 0-5-0.6-7.4-3-2.6-2.6-3-3.7-2.9-8.6 0-4.7 0.5-6 2.9-8.5 2.2-2.3 3.7-2.9 6.9-2.9z"/>
		<path id="Path 155" class="s9" d="m90 346c0.6 0 1.9 0.4 3 1 1.1 0.6 2 1.7 2 2.5 0 1.1-1.1 1.5-4 1.5-2.2 0-4-0.3-4.1-0.6 0-0.3 0.4-1.4 1-2.5 0.7-1 1.6-1.9 2.1-1.9z"/>
		<path id="Path 156" class="s6" d="m39.1 342c2.2 0 5 0.8 6.4 1.8 1.4 0.9 3 3.1 3.6 4.7 0.5 1.6 0.9 3.8 0.9 4.8 0 1.4-1.1 1.7-14.9 2.2l1.2 2.5c0.7 1.4 2 2.6 3 2.8 0.9 0.1 2.3-0.5 3.1-1.3 0.8-0.8 2.4-1.5 3.5-1.5 1.2 0 2.4 0.6 2.8 1.3 0.3 0.7-0.5 2.2-2 3.5-1.9 1.5-4 2.2-7 2.2-2.3 0-5.2-0.7-6.5-1.5-1.2-0.8-2.7-3.2-3.3-5.3-0.6-2-0.9-5.3-0.6-7.2 0.4-1.9 1.8-4.7 3.3-6.3 2-2 3.6-2.7 6.5-2.7z"/>
		<path id="Path 157" class="s9" d="m39.6 346c0.8 0 2.1 0.7 2.9 1.5 0.8 0.8 1.5 1.9 1.5 2.5 0 0.6-2 1-4.5 1-3.3 0-4.3-0.3-3.8-1.3 0.3-0.6 1-1.8 1.6-2.5 0.5-0.6 1.5-1.2 2.3-1.2z"/>
		<path id="Path 158" class="s6" d="m160.4 336.1l0.3 3.4c0.2 2.8 0.8 3.6 2.5 3.7 1.3 0.2 2.3 1 2.3 1.8 0 0.8-1 1.6-2.3 1.7-2.1 0.3-2.2 0.7-2 7 0.2 5.3 0.6 6.8 1.8 6.8 0.8 0 1.8 0.6 2.2 1.2 0.5 0.7 0.6 1.7 0.3 2.3-0.3 0.5-2.1 1-4 1-1.9 0-4.2-0.7-5-1.5-1.1-1.1-1.5-3.7-1.5-9 0-6-0.3-7.5-1.5-7.5-0.8 0-1.5-0.9-1.5-2 0-1.1 0.7-2 1.5-2 0.9 0 1.4-0.8 1.3-2-0.1-1.2 0.9-2.5 2.7-3.4zm11.4-1.1c2.1 0 2.8 0.5 2.8 2-0.1 1.5-0.8 2-2.8 2-2.1 0-2.8-0.5-2.8-2 0-1.5 0.7-2 2.8-2zm-115.5 0c2.7-0.1 3.7 0.6 9 8.5l1.6-2.5c0.9-1.3 2.3-3.2 3.1-4.3 1.1-1.3 2.5-1.8 7.9-1.2l-8.7 14 3.8 5.5c2 3 4.2 6.5 4.9 7.7 1.1 2.2 0.9 2.3-2.6 2.3-3.4 0-4.1-0.5-6.5-4.5-1.5-2.5-3.1-4.5-3.5-4.5-0.4 0-2 2-3.5 4.5-2.5 4.1-3.1 4.5-10.8 4.5l5-7.5c2.8-4.1 5-7.8 5-8.3 0-0.4-1.8-3.5-4-7-2.2-3.4-4-6.4-4-6.7 0-0.3 1.5-0.5 3.3-0.5z"/>
		<path id="Path 159" class="s3" d="m94.7 168c0.2 17.3 0.2 45.2 0 62-0.1 16.8-0.2 2.6-0.2-31.5 0-34.1 0.1-47.8 0.2-30.5z"/>
		<path id="Path 160" class="s3" d="m266.7 334c0.2 41 0.2 108.3 0 149.5-0.1 41.3-0.2 7.7-0.2-74.5 0-82.2 0.1-116 0.2-75z"/>
		<path id="Path 161" class="s1" d="m137 577.5c75.1 0 105.7 0.1 68 0.2-37.7 0.2-99.1 0.2-136.5 0-37.4-0.1-6.6-0.2 68.5-0.2z"/>
		<path id="Path 162" class="s8" d="m1 578h271.5v114h-271.5v-57z"/>
		<path id="Path 163" class="s9" d="m10 587h254v96h-254v-48z"/>
		<path id="Path 164" class="s6" d="m184 618h7v25h7.5c7.3 0 7.5 0.1 7.5 5h-22v-15zm-22.6 0h9.1l4.9 13.8c2.7 7.5 5.1 14.3 5.3 14.9q0.3 1.3-3.2 1.3c-3.1 0-3.6-0.4-5.5-7h-12l-1 3.5c-0.9 3.1-1.4 3.5-4.5 3.5-2.9 0-3.4-0.3-2.9-1.8 0.3-0.9 2.6-7.7 5.2-15z"/>
		<path id="Path 165" class="s9" d="m166.3 625c0.5 0 1.4 1.9 2 4.3 0.5 2.3 1.1 4.8 1.3 5.5 0.3 0.8-0.9 1.2-3.6 1.2-2.7 0-3.9-0.4-3.6-1.2 0.2-0.7 0.9-3.2 1.6-5.5 0.7-2.4 1.7-4.3 2.3-4.3z"/>
		<path id="Path 166" class="s6" d="m124 618h2.8c2.6 0 2.7 0.1 2.7 11.5l12.5 0.5v-12h6v30h-6v-13l-12.5 0.5v6.3c0 6.1 0 6.2-5.5 6.2v-15zm-26 0h21v2.5c0 2.4-0.2 2.5-14 2.5v7h6c5.7 0 6 0.1 6 2.5 0 2.4-0.3 2.5-12 2.5l-0.5 12.5-6.5 0.5v-15zm-30 0h3.7c3.4 0 4.1 0.5 6.3 4 1.4 2.2 2.7 4 3 4 0.3 0 1.6-1.8 3-4 2.2-3.5 3-4 10-4l-4.5 7c-4.1 6.4-4.4 7.2-3.1 9.3 0.7 1.2 3 4.8 8.6 13.7h-4c-3.7 0-4.2-0.4-6.8-4.5-1.5-2.5-3-4.5-3.4-4.5-0.5 0-1.9 2-3.3 4.5-2.3 4.2-2.8 4.5-10.5 4.5l1.7-2.8c0.9-1.5 3.1-5.1 5-8 3.3-5.2 3.3-5.2 1.4-8-1-1.5-3-4.6-4.5-7z"/>
		<path id="Path 167" class="s9" d="m272.7 607c0.2 15.7 0.2 40.9 0 56-0.1 15.1-0.2 2.3-0.2-28.5 0-30.8 0.1-43.2 0.2-27.5z"/>
		<path id="Path 168" class="s3" d="m919.7 734c0.2 12.9 0.2 34.5 0 48-0.1 13.5-0.2 2.9-0.2-23.5 0-26.4 0.1-37.4 0.2-24.5z"/>
		<path id="Path 169" class="s7" d="m920 711h826v188h-512v-93h-314v-47.5z"/>
		<path id="Path 170" class="s3" d="m929 720h808v170h-494v-93h-314v-38.5z"/>
		<path id="Path 171" class="s2" d="m1616 819q2 0 2 2 0 2-2 2-2 0-2-2 0-2 2-2zm-170.8-17.9c1.6-0.1 4 0.9 5.6 2.3 2.2 2 2.5 2.7 1.5 3.8-1.1 1.1-1.6 0.9-3.3-1-1.1-1.2-2.9-2.2-4-2.2-1.1 0-2.7 0.3-3.6 0.7-0.8 0.5-1.9 2.3-2.5 4-0.6 2.1-0.5 4.5 0.1 6.8 0.7 2.3 1.8 3.7 3.3 4.1 1.2 0.3 3.2 0.3 4.5 0 1.2-0.3 2.4-1.5 2.7-2.6 0.3-1.1 1.2-2 2-2 0.8 0 1.5 0.8 1.5 1.7 0.1 1-0.9 2.7-2.1 3.8-1.5 1.4-3.5 2-6.6 2-3.6 0-4.9-0.5-6.9-2.8-1.8-2-2.4-3.9-2.4-7.5 0-2.7 0.7-5.7 1.6-7 0.9-1.3 2.6-2.7 3.8-3.2 1.1-0.5 3.3-0.9 4.9-0.9zm-16.8-0.1c1.2 0 1.5 1.9 1.5 11 0 9.1-0.3 11-1.5 11-1.2 0-1.5-1.9-1.5-11 0-9.1 0.3-11 1.5-11zm-38 0c0.8 0 1.7 0.6 1.8 1.3 0.3 0.9 0.7 0.9 1.8-0.2 0.9-0.8 2.4-1.1 4.2-0.7 1.5 0.3 2.5 1.1 2.2 1.6-0.3 0.5-1.5 1-2.8 1-1.3 0-2.8 0.6-3.5 1.2-0.8 0.8-1.2 4.4-1.2 9.6 0 7.5-0.2 8.2-2 8.2-1.9 0-2-0.7-2-11 0-9.1 0.3-11 1.5-11zm-15.2 0.1c1.5-0.1 4 1 5.7 2.4 1.7 1.4 3.3 3.9 3.6 5.8 0.3 1.7 0.1 4.8-0.5 6.7-0.7 2.3-2.2 4.2-4.5 5.5-3 1.7-4.2 1.8-7.2 1-2.1-0.5-4.6-2.1-5.6-3.5-1.1-1.4-2-4.2-2.1-6.5 0-2.3 0.7-5.2 1.7-6.8 1-1.5 2.8-3.2 3.9-3.7 1.2-0.5 3.4-0.9 5-0.9z"/>
		<path id="Path 172" class="s3" d="m1374.6 804c1.3 0 3.3 0.9 4.4 2q2 2 2 6 0 4-2 6c-1.1 1.1-3.1 2-4.5 2-1.4 0-3.2-0.7-4-1.5-0.8-0.8-1.8-2.7-2.1-4.3-0.3-1.5-0.3-3.7 0-5 0.3-1.2 1.3-2.9 2.2-3.7 0.8-0.8 2.6-1.5 4-1.5z"/>
		<path id="Path 173" class="s2" d="m1635 793.5c1.9 0.3 4.3 1.3 5.3 2.3 1 0.9 1.8 2.9 1.7 4.5 0 1.5-0.8 3.4-1.7 4.3-1.7 1.4-1.7 1.6 0.5 3 1.2 0.8 2.4 2.8 2.7 4.4 0.3 1.6-0.1 4.2-0.9 5.8-0.7 1.5-2.6 3.3-4.2 4-1.8 0.9-4.4 1.1-6.6 0.8-2.9-0.5-4.3-1.4-5.7-3.8-1.1-1.8-1.8-3.6-1.5-4 0.2-0.5 1.1-0.8 1.9-0.8 0.8 0 1.5 0.6 1.5 1.3 0 0.6 0.8 2 1.8 3 0.9 1 2.9 1.8 4.5 1.7 1.7 0 3.3-0.8 4.2-2.3 0.8-1.2 1.5-3.1 1.5-4.2 0-1.1-0.8-2.8-1.8-3.8-0.9-1-2.7-1.8-4-1.7-1.3 0-2.2-0.6-2.2-1.5 0-0.8 0.8-1.5 1.8-1.5 0.9 0 2.5-0.8 3.5-1.8 1-0.9 1.8-2.3 1.7-3 0-0.6-0.7-1.9-1.5-2.7-0.8-0.8-2.6-1.5-4-1.5-1.6 0-3.3 1-4.5 2.8-1.4 1.8-2.4 2.4-3.1 1.7-0.7-0.7-0.7-1.7 0.2-3.3 0.7-1.3 2.2-2.7 3.4-3.2 1.1-0.5 3.6-0.7 5.5-0.5zm-42.8-0.5h7.4c5.9 0 7.4 0.3 7.4 1.5 0 1.2-1.3 1.5-6 1.5-3.3 0-6 0.3-6 0.8 0 0.4-0.3 2.2-1.5 7.4l3.5-0.7c2.4-0.5 4.5-0.2 6.7 0.9 2.3 1.1 3.6 2.7 4.3 5.1 0.7 2.6 0.6 4.3-0.3 6.8-0.8 1.7-2 3.8-2.8 4.5-0.8 0.6-3.2 1.5-5.4 1.9-3.6 0.6-4.3 0.3-7.3-2.5-1.7-1.8-3.2-3.7-3.2-4.2 0-0.5 0.9-1 2-1 1.2 0 2.2 0.8 2.5 2 0.3 1.2 1.7 2.3 3.2 2.6 1.6 0.3 3.8 0.1 5-0.5 1.3-0.6 2.6-2.3 2.9-3.8 0.4-1.6 0.3-3.9-0.2-5.3-0.5-1.4-2.2-3-3.7-3.5-2.2-0.8-3.5-0.6-6.2 1-1.9 1.1-3.7 1.8-4 1.5-0.3-0.3-0.1-4 0.6-8.3zm-14.1 0.1c0.5 0 0.8 6.7 0.8 15 0 12.6-0.2 15-1.5 15-1.2 0-1.5-1.9-1.5-11 0-10-0.1-11-1.7-10.6-1 0.2-2.8 0.7-4 1-1.6 0.4-2.3 0.1-2.3-0.9 0-0.9 0.8-1.8 1.8-2 0.9-0.3 3.1-1.9 4.7-3.5 1.6-1.7 3.3-3 3.7-3zm-49.2 0c1.8 0 2 0.6 2 6.5 0 3.5 0.4 6.7 0.8 6.9 0.4 0.3 3.9-2.7 7.7-6.5 4.8-4.9 7.6-7 9.4-7 2.2 0.1 1.9 0.7-10 12.6l6.1 8.2c3.3 4.5 6 8.5 6 8.8 0 0.2-0.9 0.5-2 0.5-1.3 0-3.6-2.2-6.5-6.3-2.5-3.4-5-6.9-5.5-7.8-0.7-1.2-1.2-1.1-3.4 1.1-2.2 2-2.6 3.3-2.6 7.7 0 4.6-0.2 5.3-2 5.3-1.9 0-2-0.7-2-15.1 0-14.3 0.1-15 2-15zm-32 0h7.8c6.4 0 8.3 0.4 11.2 2.3 2.1 1.4 4 3.7 4.7 5.8 0.7 1.9 1.2 5 1.3 7 0 1.9-0.9 5.4-2 7.7-1.4 3-3 4.7-5.5 5.8-2 0.8-6.5 1.4-17.5 1.4v-14.9z"/>
		<path id="Path 174" class="s3" d="m1501.3 795.8l5.8 0.3c4.4 0.3 6.4 1 8.1 2.7 1.7 1.6 2.4 3.7 2.7 7.5q0.4 5.2-1.3 8.5c-0.9 1.7-2.7 3.7-4.1 4.2-1.4 0.5-4.5 1-11.5 1l0.1-12.1z"/>
		<path id="Path 175" class="s2" d="m1479 793.1c1.4-0.1 4 0.3 5.8 0.9 2 0.6 3.8 2.1 4.7 4 0.8 1.6 1.5 3.2 1.5 3.5 0 0.3-0.8 0.5-1.8 0.5-0.9 0-2.3-1.1-3-2.5-0.8-1.6-2.3-2.7-4.5-3.1-1.8-0.3-4.4 0-6 0.8q-2.8 1.3-2.7 3.5c0 1.4 0.9 2.7 2.3 3.2 1.2 0.5 4.9 1.8 8.2 2.8 4.4 1.3 6.3 2.5 7.2 4.3 0.9 1.7 1 3.4 0.3 5.5-0.6 1.9-2.2 3.6-4.5 4.7-1.9 1-4.8 1.8-6.5 1.8-1.7 0-4.5-0.7-6.2-1.5-1.8-0.8-3.9-2.6-4.5-4-0.7-1.4-1.3-3-1.3-3.5 0-0.5 0.7-1 1.5-1 0.8 0 2.1 1.1 2.8 2.5 0.7 1.5 2.6 3 4.7 3.6 1.9 0.6 4.6 0.8 6 0.4 1.4-0.4 3.1-1.2 3.8-1.8 0.7-0.7 1.3-1.9 1.3-2.7 0-0.8-0.8-2.2-1.8-3.1-1-0.9-4.3-2.2-7.3-2.9-3.1-0.8-6.5-2.4-7.7-3.7-1.3-1.3-2.3-3.3-2.3-4.6 0-1.2 1-3.2 2.2-4.3 1.3-1.2 3-2.4 3.8-2.7 0.8-0.3 2.6-0.6 4-0.6zm-60-0.1c1.9 0 2 0.7 2 15 0 14.3-0.1 15-2 15-1.1 0-2-0.5-2-1 0-0.6-0.8-0.6-2.2 0.1-1.3 0.6-3.8 0.8-5.5 0.5-2.2-0.4-4-1.7-5.4-3.9-1.5-2.5-1.9-4.3-1.6-8.2 0.4-4 1.1-5.5 3.3-7.4 2.4-1.9 3.6-2.2 11.4-1.1v-4.5c0-3.8 0.3-4.5 2-4.5z"/>
		<path id="Path 176" class="s3" d="m1411.4 804c1.2 0 2.9 0.8 3.9 1.8 1.2 1.1 1.7 3.1 1.7 6.2 0 2.8-0.7 5.2-1.8 6.3-0.9 1-2.6 1.8-3.7 1.8-1.1 0-2.9-1-4-2.2-1.3-1.3-2-3.5-2-5.9 0-2.3 0.7-4.6 1.9-5.9 1-1.2 2.8-2.1 4-2.1z"/>
		<path id="Path 177" class="s2" d="m1338 793c1.4 0 4 3 9 10.5 3.8 5.8 7.5 10.3 8 10 0.6-0.3 1-4.8 1-10.5 0-9.3 0.1-10 2-10 1.9 0 2 0.7 2 15 0 14.3-0.1 15-2 15-1.4 0-4.1-3.1-9.3-10.5-3.9-5.7-7.5-10.2-7.9-10-0.5 0.3-0.8 5-0.8 10.5 0 9.3-0.1 10-2 10-1.9 0-2-0.7-2-15 0-14.3 0.1-15 2-15z"/>
		<path id="Path 178" class="s7" d="m1 713h618v289h-618v-144.5z"/>
		<path id="Path 179" class="s3" d="m10 722h600v272h-600v-136z"/>
		<path id="Path 180" class="s10" d="m341.8 850c2.5 0 2.9 0.5 4.9 7 1.3 3.8 2.6 7 3 7 0.5 0 1.8-3.1 3-7 2.2-6.6 2.5-7 8.3-7l-2.5 6.8c-1.4 3.7-3.7 9.7-5 13.4-1.5 4-3.4 7.4-4.8 8.3-1.2 0.8-3.4 1.5-5 1.5-1.9 0-2.9-0.6-3.2-2-0.4-1.6 0-2 2-2 1.5 0 2.9-0.8 3.5-2 0.8-1.5 0.1-4.4-3-12.8-2.2-5.9-4-10.8-4-10.9 0-0.2 1.2-0.3 2.7-0.3zm34.1-1c0.9 0 2 0.3 2.4 0.7 0.4 0.4 0.3 1.6-0.2 2.6-0.6 0.9-1.8 1.7-2.8 1.7-1 0-2.3 0.6-3 1.3-0.8 0.7-1.2 4.2-1.2 16.7h-6v-22h2.5c1.4 0 2.6 0.6 2.8 1.3 0.3 0.8 0.9 0.7 2.1-0.5 1-1 2.5-1.8 3.4-1.8zm-73.1 0c1.3 0 3.7 1.4 5.3 3 2.6 2.6 3 3.7 3 8.5 0 4.8-0.4 5.9-3 8.5-2.2 2.2-3.7 2.9-5.8 2.6-1.5-0.2-3.5-0.6-4.5-1-1.5-0.5-1.7 0.1-1.7 4.4 0 4.9-0.1 5-6 5v-30h2.5c1.4 0 2.6 0.6 2.8 1.3 0.2 0.9 1 0.7 2.8-0.6 1.3-0.9 3.4-1.7 4.6-1.7z"/>
		<path id="Path 181" class="s3" d="m300.8 853c0.9-0.1 2.4 0.7 3.2 1.6 0.8 0.9 1.5 3.6 1.5 5.9 0 2.3-0.7 4.9-1.5 5.9-0.8 0.9-2.3 1.7-3.3 1.6-0.9 0-2.4-1-3.2-2.3-0.8-1.2-1.5-3.9-1.6-5.9 0-2.2 0.6-4.3 1.6-5.2 0.9-0.9 2.4-1.6 3.3-1.6z"/>
		<path id="Path 182" class="s10" d="m275.4 849c1.7-0.1 4.3 0.8 5.9 2 1.5 1.1 3.1 3.6 3.7 5.8 0.5 2 1 4 1 4.5 0 0.4-3.4 0.7-7.5 0.7-5.3 0-7.5 0.4-7.5 1.3 0 0.6 0.8 2 1.8 3 0.9 1 2.5 1.8 3.5 1.7 0.9 0 2-0.7 2.5-1.6 0.5-1 1.5-1.3 3.5-1 1.5 0.4 2.7 0.9 2.7 1.4 0.1 0.4-0.7 1.5-1.7 2.5-1 1-3.8 2-6.3 2.3-3.6 0.5-5 0.2-7.2-1.5-1.6-1.2-3.2-3.7-3.8-5.8-0.6-2.5-0.6-5.1 0-7.5 0.6-2.1 2.2-4.7 3.7-5.8 1.4-1.1 4-2 5.7-2z"/>
		<path id="Path 183" class="s3" d="m275.3 853c1.2 0 2.8 0.5 3.5 1.2 0.7 0.7 1.2 1.9 1.2 2.5 0 0.9-1.6 1.3-4.5 1.3-2.5 0-4.5-0.3-4.6-0.6 0-0.3 0.4-1.4 1-2.5 0.7-1 2.2-1.9 3.4-1.9z"/>
		<path id="Path 184" class="s10" d="m316 842h3c2.9 0 3 0.2 3 4.5 0 3.9 0.2 4.4 1.8 3.9 0.9-0.4 2.8-0.9 4.2-1.1 1.6-0.3 3.4 0.3 5 1.5 2.3 1.9 2.5 2.7 3 21.2h-6v-8c0-4.4-0.2-8.7-0.5-9.5-0.3-0.8-1.6-1.5-3-1.5-1.5 0-2.9 0.8-3.5 2-0.6 1.1-1 5.4-1 17h-6v-15zm-76 0h11c10.7 0 11 0.1 11 2.3 0 1.3-3.3 6.3-16.2 22.2l8.6 0.3c8.4 0.2 8.6 0.2 8.6 5.2h-24v-3.2c0.1-2.6 1.7-5.4 15-21.8h-7c-6.8 0-7-0.1-7-2.5z"/>
		<path id="Path 185" class="s3" d="m1241.7 938c0.2 11.3 0.2 30 0 41.5-0.1 11.5-0.2 2.3-0.2-20.5 0-22.8 0.1-32.3 0.2-21z"/>
		<path id="Path 186" class="s7" d="m1242 918h504v82h-504v-41z"/>
		<path id="Path 187" class="s3" d="m1251 927h487v64h-487v-32z"/>
		<path id="Path 188" class="s2" d="m1600.3 950.1c1.7-0.1 3.8 1 5.7 2.9 1.7 1.6 3 3.7 3 4.5 0 0.8 0.2 2.2 0.5 3 0.4 1.3-0.9 1.5-8 1.5-4.7 0-8.5 0.3-8.5 0.7-0.1 0.5 0.8 2 2 3.5 1.3 1.9 2.9 2.8 4.8 2.8 1.5 0.1 3.6-0.9 4.7-2 1.1-1.1 2.6-2.1 3.3-2 0.6 0 1.2 0.6 1.2 1.2 0.1 0.7-0.9 2.2-2.1 3.3-1.5 1.4-3.5 2-7.1 2-4.2 0-5.4-0.4-7.4-2.8-1.8-2-2.4-3.9-2.4-7.5 0-2.7 0.7-5.7 1.6-7 0.9-1.3 2.6-2.7 3.8-3.2 1.1-0.5 3.3-0.9 4.9-0.9z"/>
		<path id="Path 189" class="s3" d="m1600.1 953c1.9 0 3.4 0.8 4.4 2.3 0.8 1.2 1.5 2.5 1.5 3 0 0.4-2.7 0.7-6 0.7-4.5 0-6-0.4-6.1-1.4 0-0.8 0.7-2.2 1.6-3 0.9-0.9 3-1.6 4.6-1.6z"/>
		<path id="Path 190" class="s2" d="m1578.5 950c0.8 0 1.5 0.5 1.5 1 0 0.6 0.9 0.6 2.5-0.1 1.3-0.7 3.1-0.9 4-0.5 0.8 0.3 1.5 1.1 1.5 1.6 0 0.5-1.2 1.1-2.7 1.3-1.8 0.1-3.2 1.1-4 2.7-0.7 1.4-1.3 5.5-1.3 9.3 0 5.3-0.3 6.7-1.5 6.7-1.2 0-1.5-1.9-1.5-11 0-9.1 0.3-11 1.5-11zm-14.5 0.5c1.9 0.3 4.6 1.6 6 3 2.1 2.1 2.5 3.4 2.3 7.8-0.1 4-0.7 5.7-2.5 7.5-1.3 1.2-4.1 2.5-6.3 2.9-3.5 0.5-4.5 0.2-7.5-2.5-3.1-2.7-3.5-3.6-3.5-8 0-3.4 0.6-5.7 1.8-7.2 1-1.3 2.8-2.7 4-3.1 1.2-0.5 3.8-0.7 5.7-0.4z"/>
		<path id="Path 191" class="s3" d="m1562.5 953c1.4 0 3.4 0.9 4.5 2q2 2 2 6 0 4-2 6c-1.1 1.1-3.1 2-4.5 2-1.4 0-3.4-0.9-4.5-2q-2-2-2-6 0-4 2-6c1.1-1.1 3.1-2 4.5-2z"/>
		<path id="Path 192" class="s2" d="m1536.3 942c1.5 0 4.3 0.7 6.2 1.5 1.9 0.8 4 2.5 4.6 3.8 0.8 1.7 0.8 2.4-0.3 2.9-0.8 0.5-1.9 0-2.8-1.1-0.8-1-2.6-2.4-4-3.1-1.4-0.7-3.8-1-5.5-0.6-1.7 0.3-3.8 1.3-4.7 2.3-1 1-2.2 3.4-2.7 5.3-0.7 2.3-0.7 4.9-0.1 7.5 0.5 2.2 1.9 4.9 3 6q2.1 2 6.1 2c3.1 0 4.6-0.6 6.3-2.5 1.2-1.4 2.4-3.1 2.6-3.8 0.3-0.7 1.3-1.1 2.3-0.8 1 0.4 1.5 1.3 1.2 2.4-0.3 0.9-1.8 2.9-3.3 4.5-1.7 1.7-4.2 3-6.7 3.3-2.6 0.4-5.3 0.1-7.7-1-2.1-0.9-4.7-3.1-5.8-4.8-1.4-2.3-2-5.1-2-8.8 0-4 0.6-6.4 2.2-8.8 1.2-1.8 3.6-3.9 5.2-4.7 1.7-0.8 4.3-1.4 5.9-1.5zm-40.3 0.4c2.9 0.4 5.3 1.3 6.8 2.8 1.2 1.3 2.2 3.1 2.2 4.1 0 0.9-0.7 1.7-1.5 1.7-0.8 0-2-0.9-2.5-2-0.5-1.1-2-2.5-3.2-3.1-1.3-0.6-3.8-0.8-5.5-0.5-2 0.4-3.7 1.5-4.4 2.9-1 1.8-0.8 2.5 0.8 3.7 1 0.8 4.3 2.1 7.3 2.7 3 0.7 6.5 2.3 7.8 3.5 1.7 1.7 2.2 3.2 2 5.8-0.2 2.7-1.1 3.9-3.8 5.7-1.9 1.3-5 2.3-6.7 2.3-1.8 0-4.9-0.7-6.8-1.5-1.9-0.8-4-2.4-4.5-3.5-0.5-1.1-1-2.7-1-3.5 0-0.8 0.6-1.5 1.3-1.5 0.6 0 1.8 1.1 2.5 2.5 0.7 1.5 2.6 2.9 4.7 3.5 2.3 0.6 4.7 0.7 6.8 0.1 1.7-0.6 3.5-1.7 4-2.5 0.4-0.9 0.2-2.5-0.3-3.6-0.7-1.3-3.3-2.7-7.7-3.9-3.8-1.1-7.6-2.8-8.5-3.8-1-1-1.8-2.8-1.8-4 0-1.3 0.3-3.1 0.8-4 0.4-0.9 2-2.3 3.7-3 1.7-0.8 4.9-1.1 7.5-0.9zm-21-0.4c1.9 0 2 0.7 2 15 0 14.3-0.1 15-2 15-1.9 0-2-0.7-2-15 0-14.3 0.1-15 2-15zm-20.7 0c1.5 0 4.3 0.7 6.2 1.5 1.9 0.8 3.9 2.6 4.5 4 0.5 1.4 1 2.7 1 3 0 0.3-0.8 0.5-1.7 0.5-1 0-2.3-1-2.8-2.2-0.6-1.4-2.4-2.7-4.5-3.2-2.7-0.8-4.1-0.6-6.2 0.7-1.6 0.9-2.8 2.6-2.8 3.7 0 1.1 1 2.4 2.3 2.9 1.2 0.5 4.9 1.8 8.2 2.8 4.3 1.3 6.4 2.5 7.5 4.5 1.4 2.4 1.3 3-0.2 6.2-1.3 2.7-2.8 3.9-5.5 4.7-2.1 0.6-5.7 0.9-8 0.5-3.1-0.4-5-1.4-6.8-3.6-1.4-1.6-2.5-3.7-2.5-4.5 0-0.8 0.9-1.5 2-1.5 1.1 0 2 0.6 2 1.3-0.1 0.6 0.9 2.1 2.1 3.2 1.4 1.3 3.5 2 6.4 2 2.3 0 5-0.7 5.9-1.5 0.9-0.8 1.7-2.5 1.6-3.7 0-1.4-0.9-2.7-2.2-3.2-1.3-0.5-5-1.8-8.3-2.8-4.4-1.3-6.4-2.5-7.5-4.5-1.4-2.5-1.3-3.1 0.2-5.5 1-1.5 2.8-3.3 4-4 1.3-0.7 3.5-1.3 5.1-1.3zm-45.2-0.1l3.1 0.3c3 0.3 3.3 0.7 6.8 11.3 2 6 4.2 11.1 4.9 11.3 0.6 0.1 2.7-4.7 4.9-11.3 3.5-11 3.8-11.5 9.2-11.5v15c0 14.3-0.1 15-2 15-1.9 0-2-0.7-2-9.5 0-6.5-0.4-9.4-1.1-9.2-0.6 0.1-2.6 4.2-4.4 9.2-2.5 6.8-3.7 9-5.1 9-1.4 0-2.5-2.1-4.8-9.3-1.7-5.1-3.7-9.2-4.3-9.2-1 0-1.3 2.6-1.3 9.5 0 8.8-0.1 9.5-2 9.5-1.9 0-2-0.6-1.9-15.1zm-17.9 0.2c1.5 0 4.3 0.6 6.2 1.5 2 0.8 4 2.5 4.6 3.7 0.9 1.8 0.8 2.4-0.2 3-0.9 0.5-2-0.2-3.1-1.8-1.1-1.5-3.1-2.7-5.3-3-2.3-0.4-4.5-0.1-6.5 1-1.6 0.8-3.4 2.5-4 3.6-0.5 1.1-1 4.4-1 7.5 0 4.5 0.5 5.9 2.5 8 1.4 1.3 3.8 2.7 5.3 3.1 1.5 0.3 4 0 5.6-0.8 1.5-0.7 3.3-2.6 4-4.1 0.6-1.5 1.4-2.7 1.6-2.7 0.3 0 1.1 0.3 1.9 0.7 1.1 0.6 1.1 1.3-0.1 3.8-0.9 1.7-3.2 3.8-5.4 4.8-2.8 1.4-5 1.7-7.9 1.3-2.2-0.3-5-1.3-6.2-2.1-1.3-0.9-2.9-3.1-3.8-5-0.8-2-1.5-5.4-1.5-7.8 0-2.7 0.8-5.5 2.2-7.6 1.2-1.8 3.6-4.1 5.3-5.2 1.7-1.1 4.3-1.9 5.8-1.9z"/>
		<path id="Path 193" class="s3" d="m310 1002.5c170.2 0 239.8 0.1 154.5 0.2-85.3 0.2-224.5 0.2-309.5 0-85-0.1-15.2-0.2 155-0.2z"/>
		<path id="Path 194" class="s4" d="m1 1015h832v114h-832v-57z"/>
		<path id="Path 195" class="s5" d="m10 1024h814v96h-814v-48z"/>
		<path id="Path 196" class="s6" d="m496 1064h3.5c2.7 0 3.9 0.6 5 2.5 0.8 1.4 1.8 2.5 2.3 2.5 0.4 0 1.4-1.1 2.2-2.5 1.1-1.9 2.3-2.5 4.8-2.5 1.7 0 3.2 0.2 3.2 0.5 0 0.3-1.4 2.5-3 5-1.6 2.5-3 4.8-3 5.3 0.1 0.4 1.6 2.8 3.5 5.5 1.9 2.6 3.5 4.9 3.5 5.2 0 0.3-1.6 0.5-3.5 0.5-2.8 0-3.8-0.6-5.3-3-0.9-1.7-1.9-3-2.2-3-0.3 0-1.3 1.3-2.3 3-1.4 2.4-2.4 3-5.2 3-2.5 0-3.3-0.4-2.8-1.3 0.3-0.6 1.9-3.1 6.3-9.7l-3.5-5.5zm-19.6 0c2.9 0 4 0.6 6.9 5.5l2.1-2.8c1.7-2.2 2.8-2.7 8.7-2.2l-6.9 10 7.9 11-3.3 0.3c-2.7 0.3-3.7-0.2-8.5-6.3l-1.9 3.3c-1.5 2.6-2.5 3.2-5.1 3.2-1.8 0-3.3-0.2-3.3-0.5 0-0.3 1.6-2.9 6.9-11l-2.8-4c-1.5-2.2-3.1-4.6-3.5-5.3-0.6-0.9 0.2-1.2 2.8-1.2zm-27.7 0h3.9c3.2 0 4.2 0.4 5.4 2.5 0.8 1.4 1.7 2.6 2 2.6 0.3 0 1.2-1.2 2-2.6 1.2-2 2.3-2.5 9-2.5l-3.4 4.7c-1.9 2.7-3.5 5.1-3.5 5.5-0.1 0.5 1.5 2.9 3.4 5.5 1.9 2.7 3.5 5.1 3.5 5.5 0 0.5-1.6 0.8-3.5 0.8-2.8 0-3.8-0.6-7-6.1l-2.5 3.1c-2 2.6-3.1 3.1-9.1 2.5l3.6-5c1.9-2.8 3.4-5.4 3.3-5.9-0.2-0.4-1.8-3-3.7-5.7zm-12.3-8c2 0 4.8 0.5 6.1 1.2 1.4 0.7 3.1 2.5 3.7 4 0.8 1.7 0.9 3.8 0.5 5.5-0.5 1.5-3.4 5.2-12.2 13.3h12v6h-20.5l1.6-3.8c0.9-2 4.2-6.5 7.5-10 3.3-3.4 5.9-6.4 5.9-6.7 0-0.3-0.4-1.4-1-2.5-0.5-1.1-1.9-2-3-2-1.1 0-2.5 1.1-3.2 2.5-0.9 1.8-2.1 2.5-4 2.5-2.2 0-2.8-0.5-2.7-2.1 0-1.1 1.4-3.4 2.9-5 2.1-2.1 3.8-2.9 6.4-2.9zm-29.3 0h15.9v3c0 2.9-0.1 3-5.7 3.2-4.6 0.2-5.8 0.6-6 2-0.2 1.4 0.5 1.8 3.2 1.8 2.6 0 4.3 0.8 6.5 3 2.4 2.4 2.9 3.6 2.6 6.2-0.2 1.8-0.5 3.8-0.5 4.5 0 0.7-1.3 2.4-2.8 3.8-2 1.8-3.9 2.6-6.8 2.6-3 0-4.6-0.7-6.8-2.8-1.5-1.6-2.7-3.8-2.7-5.1 0-1.8 0.6-2.2 3.2-2.2 1.7 0 2.9 0.3 2.5 0.7-0.4 0.4 0.1 1.6 1.1 2.6 0.9 0.9 2.3 1.7 2.9 1.7 0.7 0 1.9-0.7 2.8-1.5 0.8-0.8 1.5-2.4 1.5-3.5 0-1.1-0.8-2.7-1.7-3.6-1.1-1-2.5-1.4-3.8-1-1.1 0.4-3.4 0.9-5.2 1.1-3.1 0.5-3.2 0.3-2.8-2.3 0.2-1.5 0.9-5.3 1.5-8.5zm-28.1 0h21v2.5c0 2.5-0.2 2.5-14 2.5v7h6c5.8 0 6 0.1 6 2.5 0 2.4-0.2 2.5-12 2.5v13h-7v-15zm-30 0h8.3c4.5 0 9.7 0.5 11.5 1 2.5 0.8 3.4 1.8 4.2 4.5 0.8 2.7 0.7 4.2-0.5 6.5-0.8 1.7-2.5 3.3-6 4.2l2.3 2.7c1.2 1.4 3.4 4.5 7.2 11.1l-3.7 0.1c-3.5 0-4.1-0.5-7.8-5.7-2.2-3.1-4.7-6.1-5.5-6.7-0.8-0.5-2.3-0.7-3.2-0.3-1.5 0.5-1.7 1.7-1.5 6.6 0.2 6 0.2 6-5.3 6v-15z"/>
		<path id="Path 197" class="s5" d="m355 1061h4.8q4.7-0.1 6.2 1.5c1.1 1.3 1.2 2.1 0.4 3.3-0.7 1.2-2.8 1.8-11.4 2.2v-3.5z"/>
		<path id="Path 198" class="s6" d="m318 1056h3.3c3-0.1 3.6 0.5 8.4 8.5 2.9 4.7 5.7 8.3 6.3 8 0.6-0.3 1-4.1 1-16.5h6v30h-3.5c-3.3 0-3.8-0.4-8.3-8-2.6-4.3-5.3-7.9-5.9-8-0.9 0-1.3 2.2-1.3 16h-6v-15z"/>
		<path id="Path 199" class="s3" d="m417 1129.5c229.1 0 322.7 0.1 208 0.2-114.7 0.2-302.1 0.2-416.5 0-114.4-0.1-20.6-0.2 208.5-0.2z"/>
		<path id="Path 200" class="s7" d="m289.7 1162c0.2 4.1 0.2 11.1 0 15.5-0.1 4.4-0.3 1-0.3-7.5 0-8.5 0.2-12.1 0.3-8z"/>
		<path id="Path 201" class="s11" d="m290.1 1154.9l2.7 0.3c2.2 0.2 3.7 1.9 7.7 8.5 2.7 4.6 5.6 8.3 6.2 8.3 1 0 1.3-2.4 1.3-8.5 0-8.4 0-8.5 5-8.5v30h-2.8c-2.3 0-3.4-1.1-7.7-8-2.8-4.4-5.6-8-6.3-8-0.8 0-1.2 2.3-1.2 8 0 7.9 0 8-5 8l0.1-15.1z"/>
		<path id="Path 202" class="s3" d="m307.7 1159.5c0.2 2.8 0.2 6.8 0 9-0.2 2.2-0.3 0-0.3-5 0-5 0.1-6.8 0.3-4z"/>
		<path id="Path 203" class="s1" d="m313.7 1162c0.2 4.1 0.2 11.1 0 15.5-0.1 4.4-0.3 1-0.3-7.5 0-8.5 0.2-12.1 0.3-8z"/>
		<path id="Path 204" class="s11" d="m320 1155h22v2.5c0 2.5-0.1 2.5-16 2.5v7h7.5c7.3 0 7.5 0.1 7.5 2.5 0 2.4-0.2 2.5-15 2.5v8h8.5c8.4 0 8.5 0 8.5 5h-23v-15z"/>
		<path id="Path 205" class="s11" d="m347.8 1155c2.2 0 3.3 0.5 3.6 1.8 0.3 0.9 1.1 4.6 1.8 8.1 0.7 3.5 1.7 6.6 2.2 7 0.4 0.3 1.1 0.1 1.5-0.5 0.3-0.7 1.5-4.6 4.6-16.5l3.4 0.3c3.4 0.3 3.5 0.4 5.5 8.2 1.2 4.4 2.7 8.1 3.3 8.3 0.7 0.1 1.6-0.9 1.9-2.4 0.3-1.6 1-4.6 1.6-6.8 0.5-2.2 1.1-4.8 1.4-5.8 0.2-1 1.4-1.7 2.9-1.7 1.4 0 2.5 0.5 2.5 1 0 0.5-1.1 5.6-2.6 11.3-1.4 5.6-2.9 11.9-3.5 13.9-0.8 3.3-1.3 3.8-3.9 3.8-2.7 0-3.1-0.4-4.1-4.3-0.6-2.3-1.7-6.6-2.5-9.5-0.8-3.2-1.9-5.1-2.7-4.9-0.6 0.2-2.3 4.5-6.2 18.7h-6.5l-3.1-13.8c-1.8-7.5-3.4-14.3-3.7-14.9-0.3-0.9 0.5-1.3 2.6-1.3z"/>
		<path id="Path 206" class="s2" d="m399.7 1155.2c2.4 0.3 3 1.3 5.8 9.8 1.9 5.7 3.7 9.5 4.5 9.5 0.8 0 2.6-3.8 4.5-9.5 2.9-8.7 3.4-9.5 5.8-9.8 1.5-0.1 2.7 0.1 2.7 0.5 0 0.5-2.3 7.2-5.2 15.1-5.2 14.1-5.3 14.3-8.2 14-2.7-0.3-3.1-1-7.7-14.1-2.7-7.5-4.9-14.2-4.8-14.8 0-0.6 1.2-0.9 2.6-0.7z"/>
		<path id="Path 207" fill-rule="evenodd" class="s12" d="m1222.3 1155c1.5 0 4.2 0.6 6 1.4 1.7 0.7 4.2 2.4 5.5 3.7 1.2 1.3 2.5 4.2 2.8 6.4 0.4 2.2 0.4 5.7 0 7.8-0.4 2.5-1.8 4.8-4.3 7.2-3.4 3.2-4.4 3.6-9.3 3.5-4.6 0-6.1-0.5-9.2-3-2.6-2-4.1-4.3-4.8-7-0.5-2.2-0.7-5.9-0.3-8.3 0.4-2.3 1.5-5.3 2.5-6.6 0.9-1.3 3.2-2.9 5-3.7 1.8-0.7 4.5-1.3 6.1-1.4zm-6.8 15c0 4.5 0.4 5.5 3 7.7 2.2 1.8 3.7 2.3 5.5 1.8 1.4-0.3 3.3-1.6 4.3-2.8 1.2-1.5 1.8-3.8 1.7-7.5 0-4.5-0.4-5.5-2.7-7.2-1.6-1.2-3.6-2.1-4.5-2-0.9 0-2.9 1.1-4.5 2.4-2.4 2.1-2.8 3.2-2.8 7.6z"/>
		<path id="Path 208" class="s12" d="m1242 1155h6v25h7.5c7.3 0 7.5 0.1 7.5 5h-21v-15z"/>
		<path id="Path 209" class="s3" d="m1267.7 1162c0.2 4.1 0.2 11.1 0 15.5-0.1 4.4-0.3 1-0.3-7.5 0-8.5 0.2-12.1 0.3-8z"/>
		<path id="Path 210" fill-rule="evenodd" class="s12" d="m1268 1155h7c4 0 8.5 0.6 10.5 1.5 1.9 0.8 4.1 2.7 4.9 4.3 0.8 1.5 1.7 4.3 2.1 6.2 0.4 1.9 0.1 5.5-0.5 8-0.7 2.5-2.5 5.7-4.1 7.3-2.7 2.5-3.5 2.7-19.9 2.7zm7 25.5c6.6-1.1 9-1.9 9.5-2.5 0.5-0.6 1.2-3.7 1.4-6.8 0.4-5.1 0.2-6-2.2-8.4-1.8-1.8-3.7-2.8-5.7-2.8h-3z"/>
		<path id="Path 211" class="s9" d="m1273.7 1165c0.2 2.5 0.2 6.8 0 9.5-0.2 2.8-0.3 0.7-0.3-4.5 0-5.2 0.1-7.5 0.3-5z"/>
		<path id="Path 212" class="s1" d="m1274.7 1164.5c0.2 2.8 0.2 7.5 0 10.5-0.2 3-0.3 0.8-0.3-5 0-5.8 0.1-8.3 0.3-5.5z"/>
		<path id="Path 213" class="s2" d="m1307.4 1154.9l3 0.3c2.8 0.3 3.1 0.8 6.1 9.8 1.8 5.2 3.6 9.6 4.1 9.8 0.5 0.2 2.5-4.1 4.4-9.5 3.2-9 3.7-9.8 6.2-10.1 1.8-0.1 2.7 0.2 2.5 1.1-0.1 0.7-2.5 7.4-5.2 15-4.8 13-5.1 13.7-7.8 13.7-2 0-3-0.7-3.8-2.8-0.6-1.5-3-8.2-5.3-15z"/>
		<path id="Path 214" class="s3" d="m319.7 1163c0.2 4.1 0.2 10.7 0 14.5-0.1 3.8-0.3 0.5-0.3-7.5 0-8 0.2-11.1 0.3-7z"/>
		<path id="Path 215" class="s3" d="m1241.7 1163c0.2 4.1 0.2 10.7 0 14.5-0.1 3.8-0.3 0.5-0.3-7.5 0-8 0.2-11.1 0.3-7z"/>
		<path id="Path 216" class="s1" d="m1248.7 1161.5c0.2 3.3 0.2 8.9 0 12.5-0.2 3.6-0.3 0.9-0.3-6 0-6.9 0.1-9.8 0.3-6.5z"/>
		<path id="Path 217" fill-rule="evenodd" class="s2" d="m433.3 1162.1c0.9-0.1 2.9 0.5 4.4 1.3 1.6 0.7 3.4 2.5 4 4 0.7 1.4 1.3 3.7 1.3 5.1 0 2.4-0.2 2.5-7 2.5-6 0-7 0.3-7 1.8 0 0.9 0.5 2.3 1.2 3 0.7 0.7 2.3 1.2 3.5 1.2 1.3 0 2.6-0.6 3-1.4 0.5-0.9 1.8-1.3 6.8-0.4l-3 2.9c-2.4 2.3-3.9 2.9-7.3 2.9-3.4 0-4.6-0.5-6.7-3-2-2.4-2.5-4.1-2.5-8.2 0-3.3 0.6-6.2 1.6-7.6 0.9-1.3 2.6-2.7 3.8-3.2 1.1-0.5 2.9-0.9 3.8-0.9zm-3.4 7.6c0.1 0.8 1.6 1.3 3.7 1.3 2.4 0 3.5-0.5 3.5-1.5 0-0.8-0.9-1.9-2-2.5-1.1-0.5-2.1-1-2.3-1-0.2 0-0.9 0.5-1.7 1.2-0.8 0.7-1.3 1.8-1.2 2.5z"/>
		<path id="Path 218" class="s2" d="m459 1162.2c0.8 0.2 1.5 1.2 1.5 2.3 0 1.5-0.8 2.1-2.8 2.2-2.3 0.3-2.9 1-3.8 4.5-0.6 2.4-0.9 6.4-0.7 9.1 0.3 4.5 0.2 4.7-5.2 4.7v-22h2.5c1.4 0 2.7 0.6 2.9 1.2 0.3 0.9 0.9 0.8 2.2-0.5 1-1 2.5-1.6 3.4-1.5z"/>
		<path id="Path 219" class="s2" d="m474 1162.4c3.2 0.3 5 1.1 6.4 2.8 1.8 2.3 1.8 2.3-0.5 2.9-1.4 0.3-3 0-3.9-0.7-0.8-0.8-2.7-1.4-4.3-1.4-1.5 0-3 0.6-3.3 1.2-0.3 0.7 0 1.8 0.7 2.4 0.8 0.6 3.4 1.6 5.9 2.3 2.5 0.7 5.1 1.8 5.8 2.5 0.7 0.6 1.3 2.2 1.2 3.6 0 1.4-1 3.5-2.3 4.8-1.7 1.7-3.3 2.2-7 2.2-3.4 0-5.4-0.6-7.2-2.3-1.4-1.2-2.5-2.5-2.5-3 0-0.4 1.1-0.8 2.5-1 1.4-0.1 3.1 0.4 3.8 1.1 0.7 0.8 2.5 1.2 4.2 1 1.9-0.2 3.1-0.9 3.2-2.1 0.2-1.3-0.8-2-4-2.8-2.3-0.6-5.2-1.7-6.5-2.5-1.4-0.9-2.2-2.4-2.2-4.2 0-1.5 0.5-3.4 1.2-4.3 0.7-0.9 2-1.9 2.8-2.3 0.8-0.3 3.5-0.4 6-0.2z"/>
		<path id="Path 220" fill-rule="evenodd" class="s2" d="m511 1162.5c2.2 0.3 4.5 1.5 6.3 3.5 2.1 2.3 2.7 4 2.7 7.5 0 3.6-0.6 5.2-3 8-2.6 3-3.6 3.5-7.5 3.5-3.7 0-5.1-0.6-7.5-3-2.6-2.6-3-3.7-3-8.3 0-3.4 0.6-6 1.8-7.4 0.9-1.2 2.8-2.7 4.2-3.2 1.4-0.6 4.1-0.9 6-0.6zm-6.2 11.1c0.1 2.3 0.9 4.6 1.9 5.6 1 1 2.2 1.8 2.8 1.8 0.6 0 1.8-0.7 2.7-1.7 1-1.1 1.8-3.4 1.8-5.8 0-2.6-0.6-4.6-1.7-5.7-1-1-2.3-1.8-2.9-1.8-0.6 0-1.9 0.8-2.9 1.8q-1.9 1.9-1.7 5.8z"/>
		<path id="Path 221" class="s2" d="m537.8 1162c1.2 0 3.1 0.9 4.2 2 1.7 1.7 2 3.3 2 11.5 0 9.5 0 9.5-2.5 9.5-2.5 0-2.5-0.1-3-18.5h-3c-2.1 0-3.3 0.7-4.2 2.5-0.8 1.5-1.2 5.1-0.8 16h-5.5v-22h2.5c1.4 0 2.6 0.6 2.8 1.3 0.2 0.9 1 0.7 2.8-0.6 1.3-0.9 3.4-1.7 4.7-1.7z"/>
		<path id="Path 222" class="s2" d="m1344.1 1162c1.8 0 4 1.1 5.9 2.8 1.8 1.7 3.1 4.1 4 10.2h-7.5c-4.1 0-7.5 0.3-7.5 0.8 0 0.4 0.7 1.7 1.5 3 0.9 1.3 2.5 2.2 4 2.2 1.4 0 2.7-0.7 3-1.5 0.3-1 1.2-1.3 2.8-0.9 1.2 0.4 2.4 0.8 2.7 1 0.3 0.2-0.6 1.5-2 2.9-1.8 1.9-3.6 2.6-6.5 2.6-3.1 0-4.7-0.7-6.8-2.8-1.5-1.5-3-4.1-3.3-5.8-0.3-1.7-0.3-4.5 0-6.3 0.4-1.9 1.8-4.2 3.7-5.7 1.7-1.4 4.4-2.5 6-2.5z"/>
		<path id="Path 223" class="s6" d="m1344 1166c0.8 0 2.1 0.5 2.8 1.2 0.7 0.7 1.2 1.9 1.2 2.5 0 0.8-1.5 1.3-4 1.3-2.5 0-4.1-0.5-4.2-1.3-0.1-0.7 0.4-1.8 1.2-2.5 0.8-0.7 2.1-1.2 3-1.2z"/>
		<path id="Path 224" class="s2" d="m1369.8 1162c0.6 0 1.4 0.5 1.7 1 0.3 0.5 0.3 1.7 0 2.5-0.3 0.8-1.7 1.6-3.2 1.8-1.9 0.1-2.9 0.9-3.4 2.7-0.4 1.4-0.7 5.3-0.8 8.8-0.1 5.9-0.2 6.2-5.1 6.2v-22h2.5c1.4 0 2.4 0.5 2.4 1.1-0.1 0.5 0.9 0.3 2.2-0.6 1.3-0.8 3-1.5 3.7-1.5z"/>
		<path id="Path 225" class="s2" d="m1383.3 1162c1.5 0 3.7 0.5 5 1.1 1.2 0.7 2.5 1.7 2.9 2.3 0.4 0.6 0.8 1.4 0.8 1.9 0 0.4-0.9 0.9-2 1.2-1.1 0.3-2.5-0.2-3.2-1-0.7-0.9-2.5-1.6-4-1.5-1.6 0-3.1 0.6-3.4 1.3-0.3 0.6 0 1.7 0.7 2.3 0.8 0.6 3.4 1.6 5.9 2.3 2.5 0.7 5.1 1.8 5.8 2.5 0.7 0.6 1.3 2.2 1.2 3.6 0 1.4-1 3.5-2.3 4.8-1.7 1.8-3.3 2.2-7.2 2.2-3.8 0-5.6-0.6-7.3-2.3-1.2-1.2-2.2-2.5-2.2-2.9 0-0.5 1-1 2.3-1.2 1.2-0.3 2.9 0.2 3.7 1.1 0.9 0.8 2.8 1.3 4.5 1.1 1.9-0.2 3.1-0.9 3.2-2 0.2-1.4-0.9-2.1-4.9-3.2-2.9-0.8-5.9-2-6.6-2.8-0.7-0.7-1.1-2.9-1-4.8 0.2-2.5 1-3.8 2.8-4.7 1.4-0.7 3.7-1.3 5.3-1.3z"/>
		<path id="Path 226" class="s2" d="m1422 1162.4c2.2 0.3 4.5 1.7 6.3 3.6 2.1 2.3 2.7 4 2.7 7.5 0 3.6-0.6 5.2-3 8-2.5 2.9-3.7 3.5-7 3.5-2.3 0-5.3-0.8-7-2q-3-2-4-6c-0.7-2.9-0.7-5 0.3-7.8 0.8-2.6 2.2-4.2 4.7-5.5 2.3-1.2 4.7-1.6 7-1.3z"/>
		<path id="Path 227" class="s6" d="m1420.6 1166c1.4 0 3.1 1 3.9 2.3 0.8 1.2 1.5 3.5 1.5 5.2 0 1.7-0.7 4-1.5 5.3-0.8 1.2-2.5 2.2-3.7 2.2-1.3 0-3.1-0.8-4.1-1.8-1-1-1.8-3.3-1.9-5.6q-0.2-3.9 1.7-5.8c1-1 2.9-1.8 4.1-1.8z"/>
		<path id="Path 228" class="s2" d="m1448.8 1162c1.2 0 3.1 0.9 4.2 2 1.7 1.7 2 3.3 2 11.5 0 9.5 0 9.5-2.5 9.5-2.5 0-2.5-0.1-2.5-8.3 0-5.3-0.4-8.6-1.2-9.5-0.7-0.7-2.1-1.2-3-1.2-1 0-2.5 1-3.3 2.3-1 1.4-1.5 4.6-1.5 9.5 0 7-0.1 7.2-5 7.2v-22h2.5c1.4 0 2.6 0.6 2.8 1.3 0.2 0.9 1 0.7 2.8-0.6 1.3-0.9 3.4-1.7 4.7-1.7z"/>
		<path id="Path 229" class="s2" d="m488 1163h5v22h-5v-11z"/>
		<path id="Path 230" class="s5" d="m493.7 1168c0.2 3 0.2 8.2 0 11.5-0.2 3.3-0.3 0.8-0.3-5.5 0-6.3 0.1-9 0.3-6z"/>
		<path id="Path 231" class="s10" d="m1398.7 1168c0.2 3 0.2 8.2 0 11.5-0.2 3.3-0.3 0.8-0.3-5.5 0-6.3 0.1-9 0.3-6z"/>
		<path id="Path 232" class="s2" d="m1399 1163h5v22h-5v-11z"/>
		<path id="Path 233" class="s1" d="m1404.7 1168c0.2 3 0.2 8.2 0 11.5-0.2 3.3-0.3 0.8-0.3-5.5 0-6.3 0.1-9 0.3-6z"/>
		<path id="Path 234" class="s3" d="m447.7 1168.5c0.2 2.8 0.2 7.5 0 10.5-0.2 3-0.3 0.8-0.3-5 0-5.8 0.1-8.3 0.3-5.5z"/>
		<path id="Path 235" class="s3" d="m487.7 1168.5c0.2 2.8 0.2 7.5 0 10.5-0.2 3-0.3 0.8-0.3-5 0-5.8 0.1-8.3 0.3-5.5z"/>
		<path id="Path 236" class="s3" d="m524.7 1168.5c0.2 2.8 0.2 7.5 0 10.5-0.2 3-0.3 0.8-0.3-5 0-5.8 0.1-8.3 0.3-5.5z"/>
		<path id="Path 237" class="s3" d="m1358.7 1168.5c0.2 2.8 0.2 7.5 0 10.5-0.2 3-0.3 0.8-0.3-5 0-5.8 0.1-8.3 0.3-5.5z"/>
		<path id="Path 238" class="s3" d="m1435.7 1168.5c0.2 2.8 0.2 7.5 0 10.5-0.2 3-0.3 0.8-0.3-5 0-5.8 0.1-8.3 0.3-5.5z"/>
		<path id="Path 239" class="s5" d="m544.7 1171c0.2 2.5 0.2 6.8 0 9.5-0.2 2.8-0.3 0.7-0.3-4.5 0-5.2 0.1-7.5 0.3-5z"/>
		<path id="Path 240" class="s5" d="m1455.7 1172.5c0.2 2.8 0.2 6.8 0 9-0.2 2.2-0.3 0-0.3-5 0-5 0.1-6.8 0.3-4z"/>
		<path id="Path 241" class="s1" d="m295.7 1172c0.2 1.9 0.2 5.5 0 8-0.2 2.5-0.4 0.9-0.4-3.5 0-4.4 0.2-6.4 0.4-4.5z"/>
		<path id="Path 242" class="s1" d="m531.7 1172c0.2 1.9 0.2 5.5 0 8-0.2 2.5-0.4 0.9-0.4-3.5 0-4.4 0.2-6.4 0.4-4.5z"/>
		<path id="Path 243" class="s3" d="m538.7 1172c0.2 1.9 0.2 5.5 0 8-0.2 2.5-0.4 0.9-0.4-3.5 0-4.4 0.2-6.4 0.4-4.5z"/>
		<path id="Path 244" class="s1" d="m454.7 1173.5c0.2 2.2 0.2 5.6 0 7.5-0.2 1.9-0.4 0.1-0.4-4 0-4.1 0.2-5.7 0.4-3.5z"/>
		<path id="Path 245" class="s3" d="m1449.7 1173c0.2 1.9 0.2 5.5 0 8-0.2 2.5-0.4 0.9-0.4-3.5 0-4.4 0.2-6.4 0.4-4.5z"/>
		<path id="Path 246" class="s4" d="m530.7 1173.5c0.2 1.7 0.2 4.8 0 7-0.2 2.2-0.4 0.8-0.4-3 0-3.8 0.2-5.7 0.4-4z"/>
		<path id="Path 247" class="s5" d="m1441.7 1174.5c0.2 2.2 0.2 5.6 0 7.5-0.2 1.9-0.4 0.1-0.4-4 0-4.1 0.2-5.7 0.4-3.5z"/>
	</g>
</svg>