<?xml version="1.0" encoding="UTF-8" standalone="no"?>
<!-- Created with Inkscape (http://www.inkscape.org/) -->

<svg
   width="181.14301mm"
   height="82.912064mm"
   viewBox="0 0 181.14301 82.912064"
   version="1.1"
   id="svg5"
   xml:space="preserve"
   xmlns:inkscape="http://www.inkscape.org/namespaces/inkscape"
   xmlns:sodipodi="http://sodipodi.sourceforge.net/DTD/sodipodi-0.dtd"
   xmlns="http://www.w3.org/2000/svg"
   xmlns:svg="http://www.w3.org/2000/svg"><sodipodi:namedview
     id="namedview7"
     pagecolor="#505050"
     bordercolor="#eeeeee"
     borderopacity="1"
     inkscape:showpageshadow="0"
     inkscape:pageopacity="0"
     inkscape:pagecheckerboard="0"
     inkscape:deskcolor="#505050"
     inkscape:document-units="mm"
     showgrid="false"
     inkscape:zoom="1.4770342"
     inkscape:cx="374.06039"
     inkscape:cy="303.98754"
     inkscape:window-width="1920"
     inkscape:window-height="1009"
     inkscape:window-x="2552"
     inkscape:window-y="-8"
     inkscape:window-maximized="1"
     inkscape:current-layer="g328" /><defs
     id="defs2" /><g
     inkscape:label="Layer 1"
     inkscape:groupmode="layer"
     id="layer1"
     transform="translate(-17.511048,-53.049342)"><g
       id="g328"
       transform="translate(-0.04135957,-9.9417974)"><g
         id="g9505"><path
           style="fill:#fb4455;stroke:#ea3f4f;stroke-width:0.5;stroke-dasharray:none;stroke-opacity:1"
           d="m 78.004947,145.53651 c -0.356004,-0.2337 0.192666,-0.32338 1.988677,-0.32503 1.966985,-0.002 2.255302,0.0382 2.050703,0.28476 -0.151491,0.18253 -3.767747,0.21858 -4.03938,0.0403 z m -1.422969,-1.25867 c 0,-0.22484 6.793609,-0.19623 6.868599,0.0289 0.03581,0.10753 -0.694515,0.13682 -3.411515,0.13682 -3.014447,0 -3.457084,-0.0212 -3.457084,-0.16575 z m -0.930081,-0.92832 c -0.115799,-0.18737 0.145232,-0.2167 2.188861,-0.24596 l 1.970265,-0.0282 v -4.04999 -4.04999 c 0.328377,0 0.328377,0 0.05473,-0.1172 l 0.273648,0.1172 -0.03053,3.83107 c -0.01679,2.10709 -0.0038,3.94077 0.02882,4.07484 0.05824,0.23921 0.09564,0.24432 2.000798,0.27365 1.201403,0.0185 1.941448,0.0716 1.941448,0.13934 0,0.15258 -8.334113,0.20722 -8.428033,0.0553 z m 63.704863,-38.70565 c -2.45908,-0.43711 -4.30236,-2.33722 -4.64252,-4.785642 -0.0761,-0.547496 -0.11895,-3.537707 -0.11895,-8.29295 v -7.436721 l -3.8037,0.02878 -3.80371,0.02878 -0.114,-0.218918 c 0,0 0.114,0.218918 0.114,-0.218919 h 3.77634 3.77634 l 0.0547,-7.935789 0.0547,-7.935789 0.25452,-0.711484 c 0.6323,-1.767577 1.66226,-2.861783 3.35763,-3.567056 l 0.76622,-0.318745 27.19375,-0.02844 c 24.15219,-0.02526 27.26797,-0.0096 27.85735,0.139627 2.05352,0.520075 3.57944,2.048413 4.12682,4.133378 0.32609,1.242043 0.31536,31.815471 -0.0116,32.958668 -0.66907,2.33964 -2.23942,3.74923 -4.64267,4.16738 -1.40635,0.24469 -52.81694,0.23885 -54.19531,-0.006 z m 55.34883,-0.89255 c 1.25339,-0.6071 2.25526,-1.64817 2.73915,-2.84635 l 0.25376,-0.62835 0.0288,-16.084917 c 0.026,-14.496009 0.0114,-16.144612 -0.14688,-16.689227 -0.47804,-1.644414 -1.62238,-2.833472 -3.27367,-3.401598 -1.0048,-0.345704 -54.60332,-0.345733 -55.60812,-3.1e-5 -1.69411,0.582858 -3.02396,2.069868 -3.33961,3.734271 -0.14848,0.782934 -0.13976,31.72873 0.009,32.374542 0.38549,1.67213 1.99146,3.36671 3.54598,3.74161 0.18326,0.0442 12.6966,0.0728 27.80744,0.0637 l 27.47425,-0.0167 0.50978,-0.24691 z M 79.811023,102.46599 v -9.139836 -9.13984 l -7.358762,-0.02813 -7.358763,-0.02814 -0.06448,-0.162649 0.06448,-0.163399 14.747257,-0.02776 14.747256,-0.02776 0.11578,0.218919 c -0.06588,0.162617 0,0 -0.06588,0.162617 l -7.194522,0.02815 -7.194522,0.02815 v 9.13984 9.139838 l -0.383107,0.1169 z m -47.06744,-18.279666 -7.470588,-0.02812 c -6.523921,-0.02456 -7.470587,-0.04874 -7.470587,-0.190794 0,-0.142056 0.946666,-0.166234 7.470587,-0.190794 l 7.470588,-0.02813 c 0,0.437838 0.13642,0.136824 0.13642,0.136824 z"
           id="path9509"
           sodipodi:nodetypes="scssscssccsscccccscssssccscccccccccsscscscsccsscccssscscccsccccccccccccccccccsssccc" /><path
           style="fill:#ffffff;fill-opacity:1;stroke-width:0.109459"
           d="m 74.860686,134.63013 c -0.659647,-0.23358 -1.482764,-1.01539 -1.793902,-1.70389 l -0.261147,-0.57789 -0.02905,-13.48223 -0.02905,-13.48224 0.234543,-0.63799 c 0.300625,-0.81776 1.125173,-1.65158 1.903278,-1.92469 0.766189,-0.26892 8.984532,-0.29034 9.875552,-0.0257 0.737532,0.21903 1.562338,0.96406 1.903807,1.71968 l 0.261148,0.57788 v 13.6824 13.68239 l -0.272303,0.53319 c -0.347545,0.68051 -1.171161,1.42227 -1.827555,1.64592 -0.735381,0.25057 -9.254902,0.24477 -9.965324,-0.007 z m 4.875855,-13.36452 0.03498,-0.24628 H 78.01256 c -1.417573,0 -1.75896,-0.0291 -1.75896,-0.15017 0,-0.13823 0.367819,-0.62492 2.57887,-3.41231 1.353913,-1.70683 1.355101,-1.70534 -1.328087,-1.66668 l -2.071726,0.0298 v 0.27365 0.27365 l 1.720923,0.0547 1.720922,0.0547 -1.803016,2.29794 c -0.99166,1.26387 -1.803018,2.34998 -1.803018,2.41357 0,0.34141 0.275267,0.38278 2.350178,0.35325 2.066506,-0.0294 2.083194,-0.0316 2.117895,-0.27593 z m 4.550596,0.12788 c 0.13404,-0.3493 0.04392,-0.37416 -1.356528,-0.37416 -0.782633,0 -1.422969,-0.0411 -1.422969,-0.0913 0,-0.0502 0.444889,-0.4812 0.988643,-0.95776 1.331992,-1.16741 1.638499,-1.63518 1.637967,-2.49977 -7.66e-4,-1.16361 -0.582707,-1.74005 -1.757894,-1.74114 -1.01787,-9.8e-4 -1.68759,0.57382 -1.763673,1.51362 -0.03261,0.40277 -0.01368,0.43784 0.236345,0.43784 0.230287,0 0.282206,-0.0641 0.339996,-0.4196 0.204717,-1.25945 2.023578,-1.37492 2.334662,-0.14821 0.196707,0.77568 -0.02252,1.13731 -1.58084,2.6078 -1.333973,1.25878 -1.610804,1.64125 -1.283515,1.77331 0.07525,0.0304 0.907347,0.0591 1.849095,0.0639 1.465618,0.007 1.721842,-0.0163 1.778711,-0.1645 z M 35.096249,90.925249 c -0.826263,-0.251338 -1.601865,-0.953309 -1.966643,-1.779942 -0.351641,-0.796864 -0.351641,-9.558939 0,-10.355802 0.271511,-0.615278 0.874433,-1.265497 1.474785,-1.590477 l 0.437836,-0.237009 13.680938,-0.02904 c 12.780039,-0.02713 13.715902,-0.01647 14.211912,0.161894 0.704517,0.25334 1.329336,0.804742 1.692864,1.493946 l 0.296636,0.562385 v 4.816203 4.816203 l -0.296636,0.562384 c -0.16315,0.309312 -0.501375,0.737635 -0.751611,0.951828 -0.906626,0.776038 0.0355,0.730736 -14.979654,0.720292 -7.439339,-0.0052 -13.649531,-0.04696 -13.800427,-0.09286 z M 52.497036,86.62179 c 1.021759,-0.523931 1.201126,-1.845864 0.349358,-2.57478 l -0.290701,-0.248773 0.233472,-0.189064 c 1.122404,-0.908913 0.306137,-2.652226 -1.241609,-2.651725 -0.899919,3.29e-4 -1.850446,0.736066 -1.760305,1.362597 0.05709,0.396768 0.389378,0.329924 0.602368,-0.121171 0.362061,-0.766812 1.420703,-0.963943 2.010304,-0.374342 0.74727,0.747269 0.178748,1.759767 -0.988116,1.759767 -0.399851,0 -0.443272,0.0268 -0.443272,0.273648 0,0.251793 0.03977,0.273647 0.498002,0.273647 0.645229,0 1.090651,0.237103 1.237662,0.658821 0.532432,1.527336 -1.817447,2.199623 -2.44432,0.699306 -0.226196,-0.541361 -0.660664,-0.540397 -0.572763,0.0013 0.189404,1.167161 1.617903,1.742032 2.80992,1.130797 z m -3.717684,-0.136824 v -0.273648 h -1.763058 c -1.446448,0 -1.75274,-0.02689 -1.705606,-0.149716 0.05666,-0.147651 2.56496,-3.39697 3.161611,-4.095635 0.168879,-0.197752 0.307053,-0.480978 0.307053,-0.62939 v -0.269839 h -2.189184 -2.189183 v 0.273648 0.273648 h 1.751347 c 0.96324,0 1.750548,0.03694 1.749574,0.08209 -9.85e-4,0.04515 -0.450453,0.648546 -0.998841,1.340875 -2.163341,2.731176 -2.50208,3.199426 -2.50208,3.458712 v 0.262899 h 2.189183 2.189184 z m 47.946085,4.353339 c -0.675255,-0.239522 -1.55427,-1.137734 -1.789754,-1.828842 -0.26529,-0.778586 -0.276583,-9.272385 -0.01336,-10.044918 0.216324,-0.634879 0.799408,-1.317725 1.453583,-1.702285 l 0.510741,-0.300241 h 13.901303 13.90132 l 0.4453,0.238357 c 0.56113,0.300353 1.21353,1.016633 1.48505,1.63046 0.31872,0.720494 0.32169,9.545909 0.004,10.265302 -0.27538,0.622528 -0.81458,1.218672 -1.42892,1.579825 l -0.50494,0.296829 -13.73713,0.01959 c -12.297633,0.01754 -13.78842,0.0014 -14.226708,-0.154076 z m 13.953073,-4.353339 c 0,-0.208703 -0.083,-0.220321 -1.77872,-0.248994 -0.97829,-0.01654 -1.77871,-0.05765 -1.77871,-0.09136 0,-0.03371 0.40637,-0.58132 0.90304,-1.216919 2.30626,-2.951369 2.59966,-3.358419 2.59966,-3.606737 V 81.06211 l -2.16182,0.02968 c -2.07895,0.02854 -2.16182,0.03807 -2.16182,0.248597 0,0.208376 0.083,0.22037 1.72398,0.249062 1.00828,0.01763 1.72398,0.07379 1.72398,0.135291 0,0.05783 -0.26604,0.438317 -0.5912,0.845528 -2.80215,3.509209 -3.06422,3.88967 -2.83627,4.11762 0.0414,0.04137 1.03881,0.06189 2.21655,0.04561 2.05848,-0.02846 2.14133,-0.03808 2.14133,-0.24853 z m 4.43309,0 c 0,-0.261486 -0.0292,-0.273648 -0.65675,-0.273648 h -0.65676 v -2.57229 -2.57229 l -0.41047,0.0081 c -1.38034,0.02729 -1.9756,0.431728 -0.79358,0.539185 l 0.60203,0.05473 0.0296,2.271278 0.0296,2.271277 H 112.608 c -0.49069,0 -0.66342,0.04211 -0.71406,0.174067 -0.12672,0.330228 0.0619,0.373229 1.63699,0.373229 h 1.5807 z m 42.95836,2.024448 c -2.37066,-0.735608 -2.96821,-6.48327 -0.87464,-8.413051 1.4166,-1.305779 3.53537,-0.786413 4.36889,1.070934 0.81781,1.822336 0.65018,4.877338 -0.34566,6.299745 -0.66945,0.956175 -2.00327,1.397754 -3.14859,1.042372 z m 1.6241,-0.804092 c 0.94685,-0.395613 1.38977,-1.423278 1.46955,-3.409539 0.10281,-2.559678 -0.5883,-3.965273 -2.00752,-4.082966 -1.08398,-0.08989 -1.82172,0.610849 -2.17932,2.070019 -0.23117,0.943363 -0.1758,3.013618 0.10441,3.90266 0.41283,1.309909 1.54257,1.967034 2.61288,1.519826 z m 5.52347,0.758345 c -0.86175,-0.307562 -1.41362,-0.88886 -1.67808,-1.767574 -0.1854,-0.616054 -0.14325,-0.703693 0.33845,-0.703693 0.34556,0 0.38144,0.03356 0.49748,0.465202 0.45016,1.674679 3.2316,1.921222 3.89026,0.344829 0.57124,-1.36717 -0.22079,-2.375239 -1.98326,-2.524223 -0.80154,-0.06775 -0.81957,-0.07581 -0.81957,-0.366478 0,-0.286332 0.0269,-0.299956 0.73553,-0.372556 1.3434,-0.137636 1.95778,-0.572315 2.07824,-1.470371 0.14421,-1.075242 -0.49011,-1.764392 -1.70399,-1.851245 -1.12751,-0.08067 -1.7578,0.296293 -2.0604,1.232287 -0.089,0.275382 -0.17104,0.33386 -0.50817,0.36235 -0.50599,0.04276 -0.52482,-0.137585 -0.101,-0.966624 0.38444,-0.751988 0.8923,-1.149033 1.74953,-1.367791 2.71316,-0.69237 4.72316,2.199173 2.73668,3.936905 l -0.53622,0.469069 0.3944,0.243755 c 1.74563,1.078858 1.17958,3.910022 -0.87713,4.387015 -0.6196,0.143699 -1.67767,0.118703 -2.15275,-0.05086 z m 12.504,0.05982 c -0.83291,-0.272595 -1.38866,-0.765858 -1.74178,-1.54595 -0.35575,-0.785911 -0.31415,-1.005497 0.1827,-0.964376 0.3717,0.03076 0.42395,0.07532 0.55328,0.471809 0.39657,1.215773 1.85638,1.746178 3.0879,1.121957 0.63907,-0.323929 0.91049,-0.802229 0.91049,-1.604516 0,-1.103873 -0.59261,-1.599916 -2.05953,-1.723917 -0.79873,-0.06752 -0.82289,-0.07804 -0.82289,-0.358387 0,-0.278212 0.0321,-0.293123 0.87277,-0.405682 1.0494,-0.1405 1.56247,-0.44411 1.81547,-1.074314 0.46922,-1.168764 -0.39341,-2.249042 -1.79591,-2.249042 -0.98385,0 -1.5455,0.360432 -1.82226,1.169439 -0.126,0.368288 -0.18954,0.421739 -0.5369,0.451691 -0.47193,0.04069 -0.51827,-0.18757 -0.18638,-0.918312 0.7462,-1.642954 3.29066,-2.054855 4.63394,-0.750143 0.96371,0.936047 0.84803,2.701765 -0.22182,3.385829 -0.44143,0.282257 -0.4371,0.31028 0.10493,0.676885 1.41609,0.957785 1.20928,3.172651 -0.37683,4.035924 -0.60431,0.328904 -1.99216,0.479117 -2.59718,0.281105 z m 14.71861,-0.01407 c -1.29692,-0.402427 -2.1263,-2.152736 -2.1263,-4.487279 0,-2.910744 1.13916,-4.636036 3.06106,-4.636036 2.02254,0 3.15061,1.8265 3.03226,4.909684 -0.08,2.083853 -0.52427,3.191073 -1.5752,3.925708 -0.50439,0.352587 -1.71411,0.49821 -2.39182,0.287923 z m 1.55702,-0.77238 c 0.9339,-0.352092 1.44327,-1.403247 1.53498,-3.167603 0.1499,-2.883719 -0.69923,-4.490075 -2.30316,-4.357064 -1.43938,0.119363 -2.12635,1.546489 -2.01602,4.188072 0.10881,2.604934 1.21349,3.928778 2.7842,3.336595 z m -56.59237,0.699954 c -0.0401,-0.04014 -0.073,-2.062489 -0.073,-4.494119 v -4.421147 l 0.45734,0.03366 0.45734,0.03366 1.70448,2.434253 c 0.93746,1.338838 2.0739,2.975458 2.52542,3.63693 0.45152,0.661473 0.85722,1.203842 0.90156,1.205265 0.0443,0.0014 0.0936,-1.635196 0.10946,-3.636931 l 0.0288,-3.639517 0.41047,-0.03397 0.41048,-0.03397 v 4.500726 4.500728 l -0.45728,-0.03366 -0.45727,-0.03366 -1.29838,-1.860805 c -0.71411,-1.023444 -1.81748,-2.60912 -2.45192,-3.523728 -0.63444,-0.914607 -1.22359,-1.721058 -1.3092,-1.792114 -0.13404,-0.111237 -0.15567,0.358229 -0.15567,3.377951 0,1.928929 -0.0299,3.585057 -0.0664,3.680284 -0.066,0.172003 -0.59275,0.243669 -0.73625,0.100169 z m 9.61211,-0.05708 c -0.0304,-0.07922 -0.0424,-2.089574 -0.0266,-4.467452 l 0.0287,-4.323416 0.36289,-0.03483 c 0.48819,-0.04686 0.45595,-0.08212 2.16585,2.368203 0.82689,1.18495 1.94367,2.785461 2.48173,3.556688 0.53805,0.771228 1.01,1.370584 1.04876,1.331902 0.0388,-0.03868 0.0951,-1.679448 0.12521,-3.646146 l 0.0547,-3.575814 h 0.3831 0.38311 l 0.0286,4.310875 c 0.0307,4.621497 0.032,4.610047 -0.5268,4.610047 -0.40992,0 -0.26627,0.179462 -3.0529,-3.813717 -1.35104,-1.936026 -2.4956,-3.520047 -2.54345,-3.520047 -0.0478,0 -0.1,1.637783 -0.11583,3.639517 l -0.0288,3.639517 -0.3565,0.03436 c -0.22057,0.02126 -0.37757,-0.02056 -0.41176,-0.10968 z m 36.14181,0.05708 c -0.0401,-0.04014 -0.073,-0.20718 -0.073,-0.37121 0,-0.320987 0.2509,-0.583176 2.7954,-2.921137 1.58747,-1.458613 1.96177,-2.038799 1.95999,-3.038041 -0.002,-1.189813 -0.72278,-1.915535 -1.90214,-1.915535 -1.1242,0 -1.78392,0.590678 -1.9319,1.729703 l -0.0754,0.580382 -0.39561,-0.03309 -0.39561,-0.03309 0.0286,-0.54007 c 0.0778,-1.47138 1.13771,-2.4736 2.64877,-2.504609 1.82158,-0.03738 2.91436,1.007222 2.89881,2.771032 -0.0119,1.345246 -0.43888,1.951626 -2.92176,4.148817 -0.70738,0.625988 -1.28614,1.178987 -1.28614,1.228885 0,0.0499 0.99744,0.104057 2.21655,0.120353 l 2.21654,0.02963 0.0358,0.252308 c 0.0781,0.550734 -0.0159,0.568636 -2.98633,0.568636 -1.51776,0 -2.7924,-0.03284 -2.83253,-0.07297 z M 170.68037,85.59105 c -0.0401,-0.04013 -0.073,-0.212533 -0.073,-0.383108 v -0.310133 h 1.91554 1.91554 v 0.383107 0.383107 h -1.84256 c -1.01342,0 -1.87541,-0.03284 -1.91554,-0.07297 z"
           id="path9507" /></g></g></g></svg>
