<?xml version="1.0" encoding="UTF-8" standalone="no"?>
<!-- Created with Inkscape (http://www.inkscape.org/) -->

<svg
   width="320.90182mm"
   height="192.82236mm"
   viewBox="0 0 320.90182 192.82236"
   version="1.1"
   id="svg5"
   xml:space="preserve"
   xmlns:inkscape="http://www.inkscape.org/namespaces/inkscape"
   xmlns:sodipodi="http://sodipodi.sourceforge.net/DTD/sodipodi-0.dtd"
   xmlns="http://www.w3.org/2000/svg"
   xmlns:svg="http://www.w3.org/2000/svg"><sodipodi:namedview
     id="namedview7"
     pagecolor="#505050"
     bordercolor="#eeeeee"
     borderopacity="1"
     inkscape:showpageshadow="0"
     inkscape:pageopacity="0"
     inkscape:pagecheckerboard="0"
     inkscape:deskcolor="#505050"
     inkscape:document-units="mm"
     showgrid="false" /><defs
     id="defs2" /><g
     inkscape:label="Layer 1"
     inkscape:groupmode="layer"
     id="layer1"
     transform="translate(-405.38853,-282.43044)"><path
       style="fill:#ffffff;fill-opacity:1;stroke-width:0.264583"
       d="m 637.03391,475.05141 c -0.0914,-0.14789 -0.0926,-0.38796 -0.003,-0.53348 0.20868,-0.33766 -0.67039,-0.33668 -2.66338,0.003 -0.86347,0.14715 -1.89737,0.32277 -2.29756,0.39026 -0.52035,0.0878 -0.7276,0.0116 -0.7276,-0.26754 0,-0.33844 -1.65987,-0.39033 -12.50156,-0.3908 -6.87586,-2.7e-4 -19.73707,-0.0792 -28.58046,-0.1754 -15.06801,-0.16387 -16.09998,-0.14602 -16.4143,0.28384 -0.31456,0.43018 -0.48278,0.43291 -2.70652,0.0439 -3.00098,-0.52491 -2.93376,-0.52871 -3.1676,0.17888 l -0.19674,0.59531 -0.1171,-0.59531 c -0.0644,-0.32742 -0.25766,-0.59441 -0.42944,-0.59332 -0.36519,0.002 -3.42252,0.47026 -4.47951,0.68558 -0.5492,0.11188 -0.72761,0.0458 -0.72761,-0.26968 0,-0.37826 -2.74303,-0.4179 -28.91895,-0.4179 -20.87945,0 -29.00081,0.0818 -29.21337,0.29441 -0.21615,0.21615 -0.95978,0.18099 -2.79767,-0.13229 -3.06937,-0.5232 -2.83459,-0.53168 -2.83459,0.10247 0,0.29104 -0.13294,0.52916 -0.29543,0.52916 -0.17245,0 -0.24279,-0.27534 -0.16898,-0.66146 0.0695,-0.3638 0.0537,-0.65937 -0.0353,-0.65683 -0.089,0.003 -1.23331,0.18068 -2.543,0.39586 -2.94952,0.48462 -3.04271,0.48451 -3.04271,-0.004 0,-0.35034 -3.37019,-0.39687 -28.74427,-0.39687 -24.27349,0 -28.78996,0.0574 -29.03802,0.36913 -0.25068,0.315 -0.67203,0.30568 -2.87344,-0.0635 -1.41883,-0.23797 -2.57969,-0.50254 -2.57969,-0.58794 0,-0.0854 0.98227,-0.30293 2.18282,-0.48341 1.20054,-0.18049 2.4507,-0.39259 2.77812,-0.47134 0.42996,-0.10341 0.59531,-0.025 0.59531,0.28237 0,0.38314 0.95619,0.42591 9.59115,0.429 5.27513,0.002 18.25294,0.0795 28.83958,0.17236 17.78598,0.15608 19.24844,0.13572 19.24844,-0.26802 0,-0.53766 0.37322,-0.54264 2.99984,-0.04 1.14059,0.21825 2.21215,0.39685 2.38125,0.39688 0.22894,5e-5 0.29152,-2.39509 0.24507,-9.37941 -0.0396,-5.94667 0.0331,-9.43847 0.19843,-9.54068 0.16954,-0.10477 0.26083,3.17264 0.26083,9.36381 0,5.89934 0.0982,9.58566 0.25787,9.68437 0.14183,0.0877 1.22655,-0.0244 2.41048,-0.24897 2.68147,-0.50868 3.15248,-0.51039 3.15248,-0.0115 0,0.35036 3.39549,0.39688 28.97188,0.39688 26.12999,0 28.97187,-0.0407 28.97187,-0.41471 0,-0.27053 0.16098,-0.36728 0.46303,-0.27831 0.25466,0.075 1.23692,0.26435 2.18281,0.42074 0.94588,0.15639 1.98768,0.34343 2.3151,0.41564 l 0.59532,0.1313 v -28.71233 c 0,-18.96517 0.0898,-28.71234 0.26458,-28.71234 0.17475,0 0.26458,9.69619 0.26458,28.55939 0,15.70766 0.0893,28.6136 0.19844,28.67987 0.10914,0.0663 1.03187,-0.0414 2.05052,-0.23924 2.48992,-0.48362 3.57188,-0.48138 3.57188,0.007 0,0.33657 3.71304,0.38849 28.70729,0.40145 25.49315,0.0132 28.70729,-0.0301 28.70729,-0.38657 0,-0.2208 0.0298,-0.40143 0.0661,-0.40141 0.0364,3e-5 0.99935,0.17862 2.13994,0.39688 1.14059,0.21826 2.436,0.39683 2.8787,0.39683 h 0.8049 l -0.15437,-9.525 c -0.1333,-8.22511 -0.10189,-9.525 0.23016,-9.525 0.32964,0 0.38452,1.45168 0.38452,10.17084 0,9.329 -0.11357,11.08857 -0.65879,10.20639 z M 428.14269,445.14918 c 0,-19.22639 0.0898,-29.10417 0.26459,-29.10417 0.17478,0 0.26458,9.87778 0.26458,29.10417 0,19.22639 -0.0898,29.10417 -0.26458,29.10417 -0.17479,0 -0.26459,-9.87778 -0.26459,-29.10417 z m 171.18543,27.57378 c -0.41154,-0.1415 -0.78267,-0.57246 -0.7897,-0.91701 -0.007,-0.36129 0.5937,-0.20578 0.9178,0.23745 0.22935,0.31366 0.52103,0.38512 1.04015,0.25483 0.93797,-0.23542 0.74762,-0.76121 -0.3574,-0.98721 -0.47816,-0.0978 -1.04704,-0.35547 -1.26419,-0.57262 -0.49891,-0.49891 -0.2332,-1.42653 0.47281,-1.65061 0.75191,-0.23865 2.02604,0.1006 2.21361,0.58938 0.21268,0.55424 -0.0452,0.78448 -0.43833,0.39135 -0.41873,-0.41873 -1.87253,-0.41413 -1.73266,0.005 0.0584,0.17521 0.51463,0.42441 1.01382,0.55376 1.20391,0.31196 1.58757,0.91913 1.08309,1.71405 -0.23437,0.36931 -1.52883,0.59783 -2.159,0.38115 z m 3.88793,-0.0865 c -1.16962,-0.68043 -1.06744,-2.46318 0.18834,-3.286 0.80418,-0.52691 1.60255,-0.3223 2.17978,0.55866 0.58342,0.89041 0.0946,1.43382 -1.28967,1.43382 -0.85263,0 -1.02354,0.08 -0.89365,0.41852 0.0883,0.23018 0.1606,0.4683 0.1606,0.52916 0,0.28894 0.93853,0.0616 1.37448,-0.33289 0.34542,-0.3126 0.57295,-0.36069 0.77073,-0.16291 0.19779,0.19778 0.10045,0.40683 -0.3297,0.70812 -0.69742,0.4885 -1.46878,0.53616 -2.16091,0.13352 z m 1.66832,-2.48415 c -0.18116,-0.21828 -0.47882,-0.39687 -0.66146,-0.39687 -0.18265,0 -0.4803,0.17859 -0.66146,0.39687 -0.28281,0.34077 -0.18929,0.39688 0.66146,0.39688 0.85074,0 0.94426,-0.0561 0.66146,-0.39688 z m 2.35764,2.28305 c -1.24817,-1.0107 -0.48103,-3.47367 1.08194,-3.47367 0.61128,0 1.78253,0.94982 1.50932,1.22398 -0.11576,0.11616 -0.44157,0.0669 -0.72401,-0.10952 -0.77568,-0.48441 -1.25692,-0.38994 -1.73568,0.34075 -0.40148,0.61274 -0.40148,0.71017 0,1.32291 0.49277,0.75206 0.99973,0.84272 1.47954,0.26459 0.36546,-0.44036 1.05833,-0.53679 1.05833,-0.1473 0,0.35098 -1.08828,1.07334 -1.61706,1.07334 -0.24254,0 -0.71611,-0.22278 -1.05238,-0.49508 z M 526.5677,470.596 c 0,-1.98368 -0.0326,-2.10542 -0.52917,-1.97557 -0.29104,0.0761 -0.52917,0.0191 -0.52917,-0.12663 0,-0.30188 1.15966,-1.11962 1.58778,-1.11962 0.42471,0 0.23143,5.08352 -0.19871,5.22612 -0.24614,0.0816 -0.33073,-0.43106 -0.33073,-2.0043 z m 2.96333,1.75235 c -0.17462,-0.17463 -0.3175,-0.49074 -0.3175,-0.70247 0,-0.31761 0.0847,-0.30835 0.48385,0.0529 0.67298,0.60903 1.96529,0.59145 1.84849,-0.0251 -0.0572,-0.3021 -0.37895,-0.49132 -0.92574,-0.54446 -1.03751,-0.10083 -1.51536,-0.63985 -1.30616,-1.47336 0.18747,-0.74691 1.15241,-1.07288 2.10446,-0.71091 0.76502,0.29086 1.07197,0.69621 0.82716,1.09232 -0.11463,0.18547 -0.33938,0.13231 -0.65739,-0.15548 -0.5175,-0.46834 -1.34171,-0.44807 -1.50318,0.037 -0.0541,0.16257 0.28185,0.37164 0.7466,0.46459 1.50074,0.30015 1.95865,1.04924 1.14114,1.86675 -0.49085,0.49085 -1.98886,0.55115 -2.44173,0.0983 z m 3.93504,-0.37964 c -0.30161,-0.38343 -0.54837,-0.90315 -0.54837,-1.15495 0,-0.61277 0.94209,-1.77953 1.60735,-1.99067 0.83618,-0.2654 1.83223,0.53244 1.83223,1.46761 0,0.76952 -0.0307,0.78765 -1.33222,0.78765 -1.25024,0 -1.3148,0.0326 -1.04903,0.52916 0.3348,0.62558 1.5325,0.71579 1.7564,0.13229 0.21538,-0.56126 0.62485,-0.49311 0.62485,0.10399 0,1.06019 -2.08467,1.15027 -2.89121,0.12492 z m 2.09746,-2.08099 c -0.4099,-0.4939 -0.56292,-0.49496 -1.2062,-0.008 -0.48037,0.36333 -0.44731,0.389 0.51099,0.39687 0.88118,0.007 0.97849,-0.0471 0.69521,-0.38846 z m 2.42612,2.35644 c -0.85176,-0.5966 -0.72413,-2.36494 0.21971,-3.04406 0.74934,-0.53918 1.98937,-0.42263 2.23205,0.20978 0.25876,0.67433 -0.1353,0.9387 -0.67338,0.45174 -0.43178,-0.39074 -0.59829,-0.40777 -1.14208,-0.11674 -0.80311,0.42981 -0.99772,1.14153 -0.50463,1.84552 0.44957,0.64185 1.21054,0.7097 1.67554,0.1494 0.41914,-0.50502 0.79375,-0.50942 0.79375,-0.009 0,0.87826 -1.62285,1.19876 -2.60096,0.51367 z m 57.89888,-1.55439 c 0,-1.6478 -0.0659,-1.95077 -0.39687,-1.82377 -0.55016,0.21111 -0.5009,-0.42848 0.0661,-0.85892 0.9847,-0.7475 1.12448,-0.48083 1.12448,2.14522 0,2.05788 -0.072,2.51355 -0.39687,2.51355 -0.31735,0 -0.39688,-0.39596 -0.39688,-1.97608 z m -138.90625,-0.5553 c 0,-1.88179 -0.0318,-1.9921 -0.52917,-1.83425 -0.37553,0.11919 -0.52917,0.0476 -0.52917,-0.24675 0,-0.22809 0.13571,-0.41471 0.30157,-0.41471 0.16585,0 0.44545,-0.19678 0.62131,-0.4373 0.63907,-0.87397 0.92921,-0.11296 0.92921,2.43729 0,2.04399 -0.0721,2.49793 -0.39688,2.49793 -0.31781,0 -0.39687,-0.39886 -0.39687,-2.00221 z m 2.8002,1.56746 c -0.19822,-0.51655 0.0588,-0.86977 0.32304,-0.44393 0.1925,0.31024 0.65972,0.43375 1.44082,0.38086 0.70108,-0.0475 0.56954,-0.8251 -0.13956,-0.8251 -1.32328,0 -2.23591,-1.289 -1.46117,-2.06375 0.52772,-0.52772 2.26721,-0.39692 2.58361,0.19428 0.36579,0.68349 0.34644,0.81114 -0.12298,0.81114 -0.21828,0 -0.39688,-0.11906 -0.39688,-0.26458 0,-0.14552 -0.41672,-0.26459 -0.92604,-0.26459 -0.50932,0 -0.92604,0.10633 -0.92604,0.23628 0,0.28422 0.65168,0.55747 1.32955,0.55747 0.71677,0 1.35835,1.01452 1.02981,1.62841 -0.35216,0.65802 -2.48616,0.69979 -2.73416,0.0535 z m 3.92361,-0.22478 c -1.11911,-1.70798 1.2821,-4.04787 2.62789,-2.56078 0.24084,0.26612 0.43788,0.74237 0.43788,1.05833 0,0.51299 -0.14161,0.57448 -1.32291,0.57448 -1.4147,0 -1.60274,0.19392 -0.84926,0.87581 0.42414,0.38384 0.55275,0.38764 1.22999,0.0363 0.85293,-0.44251 1.02929,-0.38863 0.78781,0.24066 -0.11953,0.3115 -0.49461,0.43475 -1.32305,0.43475 -0.94043,0 -1.23686,-0.12309 -1.58835,-0.65953 z m 2.20588,-1.78787 c -0.0606,-0.1819 -0.38806,-0.33073 -0.72761,-0.33073 -0.33955,0 -0.66697,0.14883 -0.7276,0.33073 -0.0727,0.21817 0.17492,0.33073 0.7276,0.33073 0.55269,0 0.80033,-0.11256 0.72761,-0.33073 z m 2.06552,1.85936 c -1.2801,-1.82759 1.15427,-4.21854 2.6323,-2.58534 0.58019,0.64111 0.30877,1.03055 -0.40679,0.58368 -0.81828,-0.51103 -1.46848,-0.37697 -1.8103,0.37324 -0.25838,0.56708 -0.24084,0.80895 0.0959,1.32292 0.49142,0.75 0.50701,0.7519 1.47542,0.17984 0.84319,-0.49808 1.30178,-0.31601 0.78188,0.31043 -0.53101,0.63982 -2.27226,0.52361 -2.76843,-0.18477 z m 169.25219,-17.59085 c -0.26039,-0.0956 -0.33073,-4.16735 -0.33073,-19.14506 v -19.0236 l -14.88281,-0.0726 c -8.18555,-0.0399 -34.08164,-0.10248 -57.54688,-0.13897 l -42.66406,-0.0664 v 19.05233 19.05233 H 509.76665 497.72811 V 434.4345 415.25318 l -34.85885,-0.0671 -34.85886,-0.0671 0.0554,-56.4224 0.0554,-56.4224 h -0.67906 c -0.43823,0 -0.63359,-0.11849 -0.55084,-0.33413 0.0705,-0.18377 0.39601,-1.99948 0.7233,-4.0349 0.76614,-4.76451 0.92701,-5.2022 1.16572,-3.17159 0.10265,0.87312 0.348,2.42094 0.54524,3.43958 0.79804,4.12158 0.79788,4.10104 0.0309,4.10104 h -0.68472 v 6.51826 6.51825 l 1.25677,-0.18615 c 0.69123,-0.10239 1.91162,-0.28601 2.71198,-0.40805 1.1367,-0.17333 1.5195,-0.14045 1.74896,0.15019 0.24919,0.31564 4.65127,0.37209 29.01597,0.37209 21.80912,0 28.74724,-0.075 28.82614,-0.31173 0.0797,-0.23906 0.62458,-0.23813 2.33715,0.004 1.22828,0.17365 2.50113,0.38735 2.82855,0.47488 0.50869,0.136 0.59532,0.0561 0.59532,-0.54878 0,-0.40458 0.11337,-0.63786 0.26458,-0.54441 0.14552,0.0899 0.26458,0.40753 0.26458,0.70576 0,0.42767 0.12579,0.51247 0.59532,0.40137 0.32742,-0.0775 1.52564,-0.29348 2.66272,-0.48 1.74027,-0.28545 2.10316,-0.28127 2.29335,0.0265 0.18925,0.30622 4.91195,0.38523 29.08727,0.48664 26.3939,0.11072 28.86134,0.0847 28.86134,-0.30453 0,-0.31764 0.18456,-0.39446 0.72761,-0.30287 0.40018,0.0675 1.43408,0.24311 2.29755,0.39026 2.23754,0.38131 2.5311,0.35097 2.5311,-0.26163 0,-0.29104 0.11906,-0.52916 0.26458,-0.52916 0.16888,0 0.26458,2.24896 0.26458,6.21771 0,3.88464 -0.0973,6.2177 -0.25932,6.2177 -0.15878,0 -0.28701,-2.1342 -0.33073,-5.50434 l -0.0714,-5.50435 -2.71198,0.42703 c -2.19509,0.34565 -2.71198,0.36097 -2.71198,0.0804 0,-0.28085 -2.37269,-0.34745 -12.50156,-0.35088 -6.87586,-0.002 -19.85915,-0.0771 -28.85176,-0.1662 -14.92699,-0.14787 -16.37793,-0.12441 -16.66875,0.26956 -0.29148,0.39485 -0.50971,0.39776 -2.56751,0.0343 -1.23693,-0.21849 -2.39779,-0.39741 -2.57969,-0.39761 -0.25384,-2.7e-4 -0.33073,1.26062 -0.33073,5.42359 0,3.43959 -0.0968,5.42396 -0.26458,5.42396 -0.16779,0 -0.26458,-1.98437 -0.26458,-5.42396 0,-6.167 0.26197,-5.63345 -2.5311,-5.15506 -3.36619,0.57655 -3.28974,0.57329 -3.28974,0.13997 0,-0.36626 -2.99975,-0.40887 -28.78666,-0.40887 -19.76879,0 -28.87378,0.0871 -29.06474,0.27807 -0.19436,0.19436 -1.04568,0.15454 -2.82819,-0.13229 -1.40257,-0.2257 -2.61094,-0.41036 -2.68527,-0.41036 -0.0743,0 -0.13514,8.03672 -0.13514,17.85938 0,17.33494 0.0147,17.85937 0.49994,17.85937 0.27496,0 1.49019,-0.18784 2.70049,-0.41744 2.00423,-0.38019 2.22779,-0.38019 2.50579,0 0.448,0.61268 11.4917,0.63244 11.4917,0.0206 0,-0.48792 0.007,-0.48792 2.55641,-4e-5 2.72368,0.52119 2.99984,0.50902 2.99984,-0.13224 0,-0.29399 0.17639,-0.52917 0.39687,-0.52917 0.22049,0 0.39688,0.23518 0.39688,0.52917 0,0.52284 0.18108,0.52933 15.14739,0.54323 8.33107,0.008 19.34435,0.0205 24.47396,0.0283 5.28472,0.008 9.32657,0.11665 9.32657,0.25051 0,0.13689 -10.29182,0.23624 -24.47396,0.23624 h -24.47396 v 12.06059 c 0,9.53085 -0.0694,12.03748 -0.33073,11.95039 -0.25671,-0.0855 -0.34614,-2.78493 -0.39957,-12.06059 l -0.0688,-11.95039 -0.59262,2.6e-4 c -0.32594,1.8e-4 -1.48559,0.17335 -2.57699,0.38484 -1.73609,0.33642 -2.02113,0.33638 -2.27813,-2.6e-4 -0.44102,-0.57778 -11.48021,-0.57256 -11.48021,0.005 0,0.28141 -0.20294,0.35337 -0.7276,0.25801 -0.40018,-0.0727 -1.56899,-0.28539 -2.59734,-0.47257 -1.02836,-0.18717 -2.01062,-0.29336 -2.18282,-0.23596 -0.23504,0.0784 -0.31307,3.16513 -0.31307,12.38543 v 12.28108 h 11.77396 c 6.47568,0 11.78767,0.0893 11.80444,0.19844 0.0167,0.10914 0.0545,8.62019 0.0839,18.91344 0.0294,10.29325 0.14047,18.80202 0.24683,18.90838 0.10636,0.10636 25.96469,0.24193 57.46295,0.30126 l 57.26957,0.10787 v -19.08241 -19.0824 h 12.03854 12.03855 v 19.1823 19.18229 l 30.75781,0.006 c 16.9168,0.003 39.5982,0.0785 50.40313,0.16682 l 19.64531,0.16061 v -0.71701 c 0,-0.64439 0.0737,-0.7009 0.7276,-0.55788 0.40019,0.0875 2.43928,0.44934 4.53128,0.80404 2.09204,0.35471 3.85078,0.69199 3.90832,0.74953 0.0575,0.0575 -0.82068,0.25592 -1.95162,0.44086 -1.13091,0.18493 -2.86766,0.49987 -3.85945,0.69986 -2.75124,0.55478 -3.35613,0.5011 -3.35613,-0.29784 v -0.66146 h -15.74271 -15.74271 v 19.19228 19.19229 l -11.57552,-0.0429 c -6.36654,-0.0236 -11.72435,-0.0975 -11.90625,-0.16434 z m 22.42344,-19.39485 v -18.78832 l -11.0017,0.069 -11.0017,0.0691 0.0493,8.46667 c 0.0271,4.65666 0.0404,13.08034 0.0296,18.71927 l -0.0197,10.2526 h 10.97209 10.97209 V 434.56294 Z M 519.98619,452.8221 h 0.76067 v -18.65313 -18.65313 l -6.41614,-0.0252 c -3.52888,-0.0138 -8.38068,-0.0514 -10.78177,-0.0835 -2.4011,-0.0321 -4.51446,-0.008 -4.69636,0.0535 -0.26039,0.0881 -0.33073,4.07217 -0.33073,18.73335 v 18.62152 l 9.59115,0.0813 c 5.27513,0.0447 9.93345,0.0462 10.35182,0.003 0.41837,-0.0429 1.10298,-0.0781 1.52136,-0.0781 z m 70.34609,-56.6242 v -18.78786 l -11.04635,0.0691 -11.04636,0.069 -0.0679,18.58101 -0.0679,18.581 4.83043,0.0721 c 2.65674,0.0397 7.65817,0.10168 11.11429,0.13781 l 6.28385,0.0657 z m -138.90625,-0.39351 v -18.65313 l -6.28386,-5.3e-4 c -3.45612,-2.6e-4 -8.34425,-0.0658 -10.86252,-0.14549 -2.51827,-0.0797 -4.81022,-0.0714 -5.09323,0.0184 -0.50327,0.15973 -0.51456,0.572 -0.51456,18.79861 v 18.63524 h 11.37708 11.37709 z m -33.24548,31.43671 c -0.95947,-0.19143 -1.60616,-2.38285 -1.16583,-3.95066 0.45023,-1.60307 0.93438,-2.07403 2.13214,-2.07403 0.73311,0 1.16,0.15591 1.43242,0.52316 0.79642,1.07362 0.83612,3.88981 0.0694,4.9202 -0.34999,0.47033 -1.57651,0.75922 -2.46809,0.58133 z m 1.48617,-0.85994 c 0.43638,-0.81538 0.34447,-3.87778 -0.13064,-4.35288 -0.59978,-0.59978 -1.1407,-0.24368 -1.46622,0.96523 -0.6198,2.30176 0.69042,5.08133 1.59686,3.38765 z m -14.27819,-1.47261 c 0,-0.21828 0.0893,-0.39767 0.19843,-0.39866 0.10914,-10e-4 1.02828,-0.53676 2.04252,-1.19062 1.99921,-1.28885 2.03279,-1.23935 -0.85189,-1.25551 -0.76399,-0.004 -1.38906,-0.11009 -1.38906,-0.23514 0,-0.12505 1.22039,-0.22308 2.71198,-0.21784 l 2.71198,0.01 -0.79375,0.67162 c -0.43657,0.36939 -1.24266,0.97785 -1.79132,1.35212 -0.54866,0.37427 -0.93591,0.74216 -0.86055,0.81752 0.0754,0.0753 0.85168,0.11122 1.72517,0.0797 1.28375,-0.0463 1.58815,0.0214 1.58815,0.35342 0,0.34389 -0.43066,0.41075 -2.64583,0.41075 -2.17546,0 -2.64583,-0.0706 -2.64583,-0.39688 z m 2.76894,-4.61984 c -0.73854,-0.29598 -1.24156,-0.95344 -1.32734,-1.73489 -0.14443,-1.31575 2.19991,-2.24791 3.38704,-1.34675 0.28515,0.21646 0.46302,0.70568 0.46302,1.2735 0,1.36233 -1.30363,2.2967 -2.52272,1.80814 z m 1.31965,-0.84659 c 1.21778,-0.55485 0.73473,-2.07419 -0.65946,-2.07419 -1.0294,0 -1.50437,1.13102 -0.7794,1.85598 0.61736,0.61736 0.57644,0.61116 1.43886,0.21821 z m 298.33017,-0.3544 c 0,-0.21828 0.17859,-0.39688 0.39687,-0.39688 0.3175,0 0.39688,-0.39687 0.39688,-1.98437 0,-1.80799 -0.0471,-1.98438 -0.52917,-1.98438 -0.35277,0 -0.52917,0.17639 -0.52917,0.52917 0,0.29398 -0.1764,0.52917 -0.39687,0.52917 -0.27718,0 -0.39688,-0.27929 -0.39688,-0.92604 v -0.92605 h 2.24896 2.24896 v 0.92605 c 0,1.0233 -0.63132,1.31116 -0.8704,0.39687 -0.0761,-0.29104 -0.32814,-0.52917 -0.56004,-0.52917 -0.34833,0 -0.42164,0.34507 -0.42164,1.98438 0,1.5875 0.0794,1.98437 0.39687,1.98437 0.21828,0 0.39688,0.1786 0.39688,0.39688 0,0.29398 -0.30869,0.39687 -1.19063,0.39687 -0.88193,0 -1.19062,-0.10289 -1.19062,-0.39687 z m 3.88284,0.22278 c -0.0958,-0.0958 -0.0672,-0.30411 0.0635,-0.46302 0.37973,-0.46173 0.43543,-2.23068 0.0814,-2.58473 -0.5384,-0.53841 -0.37023,-0.74691 0.60248,-0.74691 h 0.92605 v 1.5875 c 0,0.88195 0.11758,1.5875 0.26458,1.5875 0.14552,0 0.26458,0.1786 0.26458,0.39688 0,0.28375 -0.28908,0.39687 -1.01422,0.39687 -0.55785,0 -1.0926,-0.0783 -1.18835,-0.17409 z m 2.73174,-0.22278 c 0,-0.21828 0.11906,-0.39688 0.26458,-0.39688 0.14552,0 0.26459,-0.59531 0.26459,-1.32291 0,-0.72761 -0.11907,-1.32292 -0.26459,-1.32292 -0.14552,0 -0.26458,-0.1088 -0.26458,-0.24177 0,-0.27644 2.92552,-0.20822 3.39037,0.0791 0.16867,0.10425 0.73388,0.0716 1.25603,-0.0726 1.53564,-0.42401 1.95612,0.009 1.96456,2.02123 0.003,0.58636 0.12988,0.85989 0.4005,0.85989 0.21828,0 0.39687,0.1786 0.39687,0.39688 0,0.33388 -0.58795,0.39687 -3.70416,0.39687 -3.11621,0 -3.70417,-0.063 -3.70417,-0.39687 z m 2.69034,-0.26737 c 0.22402,-0.0859 0.33779,-0.52935 0.31231,-1.21745 -0.0496,-1.33976 -0.3946,-1.74688 -0.98237,-1.15912 -0.50861,0.50861 -0.58002,2.14355 -0.10205,2.33642 0.1819,0.0734 0.35076,0.14285 0.37523,0.15434 0.0243,0.0115 0.20307,-0.0399 0.39688,-0.11419 z m 3.13049,-1.1863 c 0,-1.23878 -0.54843,-1.79656 -1.1626,-1.1824 -0.50213,0.50214 -0.56928,2.14652 -0.0942,2.30638 0.81114,0.27291 1.25677,-0.12565 1.25677,-1.12398 z m 3.04962,1.49144 c -0.71546,-0.52315 -0.81336,-2.71968 -0.13737,-3.08146 0.82811,-0.44319 2.25411,-0.31143 2.76738,0.25571 0.75631,0.83571 0.34795,1.29389 -1.23407,1.38461 l -1.40285,0.0804 0.6137,0.6137 c 0.58047,0.58046 0.64892,0.59061 1.26423,0.18744 0.8917,-0.58426 1.42796,-0.21097 0.60545,0.42146 -0.75062,0.57718 -1.79626,0.63548 -2.47647,0.13809 z m 1.71288,-2.43742 c 0,-0.27579 -0.19301,-0.38688 -0.57459,-0.33073 -0.84707,0.12464 -0.93777,0.746 -0.1089,0.746 0.44463,0 0.68349,-0.14513 0.68349,-0.41527 z m -318.10255,-1.20468 c 0.2191,-0.2191 0.2195,-0.46723 0.002,-0.94565 -0.22085,-0.48472 -0.21627,-0.77551 0.0181,-1.15084 0.23172,-0.37103 0.23804,-0.6682 0.0242,-1.13755 -0.51005,-1.11947 0.0743,-1.76059 1.60474,-1.76059 0.71058,0 1.4803,-0.0723 1.71048,-0.1606 0.23018,-0.0883 0.41851,-0.0288 0.41851,0.13229 0,0.17005 -0.49146,0.29289 -1.17172,0.29289 -0.71243,0 -1.33471,0.16298 -1.5875,0.41578 -0.50732,0.50732 -0.5149,0.67044 -0.06,1.29249 0.2871,0.39265 0.59335,0.45971 1.5875,0.34766 0.917,-0.10336 1.23176,-0.0491 1.23176,0.21233 0,0.24184 -0.47285,0.37587 -1.51878,0.43052 -1.17568,0.0614 -1.53798,0.18027 -1.60377,0.5261 -0.1542,0.81064 0.82136,1.47637 2.02925,1.38479 0.60132,-0.0456 1.0933,0.0297 1.0933,0.16726 0,0.13759 -0.91678,0.25016 -2.03729,0.25016 -1.5066,0 -1.95991,-0.0774 -1.74025,-0.29704 z m 11.38431,-0.43033 c -4.30832,-0.0521 -6.28385,-0.16653 -6.28385,-0.36406 0,-0.15846 0.17859,-0.21957 0.39688,-0.13581 0.51227,0.19658 0.51925,-0.64131 0.0269,-3.22326 -0.31625,-1.65829 -0.3162,-1.95737 3.2e-4,-2.07883 0.54351,-0.20857 0.55262,-26.20387 0.009,-26.64671 -0.30338,-0.2473 -0.29313,-0.70169 0.0649,-2.87344 0.23388,-1.41883 0.55205,-2.57969 0.70703,-2.57969 0.15498,0 0.46245,1.14271 0.68325,2.53935 0.33138,2.09597 0.34014,2.56289 0.0502,2.67414 -0.28553,0.10957 -0.35126,2.62998 -0.35126,13.46794 0,11.6753 0.0493,13.33315 0.39688,13.33315 0.21828,0 0.39494,0.0298 0.39257,0.0661 -0.002,0.0364 -0.22015,1.28654 -0.48397,2.77813 l -0.47968,2.71197 h 7.11417 c 4.67541,0 7.05812,0.0907 6.95066,0.26459 -0.0899,0.14552 -0.78158,0.23708 -1.53697,0.20346 -0.7554,-0.0336 -4.20119,-0.0953 -7.65731,-0.13708 z m 293.93006,-0.24277 c -0.40786,-0.40785 -0.15452,-0.91563 0.41621,-0.8342 0.74907,0.10687 0.98571,1.01059 0.26464,1.01059 -0.27747,0 -0.58386,-0.0794 -0.68085,-0.17639 z m -306.82849,-6.2776 c 0,-0.3991 0.64269,-0.75262 0.90017,-0.49514 0.34843,0.34843 0.12709,0.86371 -0.37101,0.86371 -0.29104,0 -0.52916,-0.16586 -0.52916,-0.36857 z m 1.42245,-0.0837 c 0.25239,-0.25239 3.86901,-0.2624 3.86913,-0.0107 4e-5,0.10915 -0.91273,0.19844 -2.02839,0.19844 -1.11566,0 -1.94399,-0.0845 -1.84074,-0.18772 z m 0.14986,-1.20133 c -0.008,-0.0364 -0.0671,-0.56596 -0.13055,-1.17685 -0.14914,-1.43605 0.4807,-1.93201 2.45357,-1.93201 1.81201,0 1.81798,0.47724 0.007,0.58149 -1.34924,0.0777 -1.38906,0.10272 -1.38906,0.87372 0,0.771 0.0398,0.79604 1.38906,0.87372 0.99922,0.0575 1.38906,0.18748 1.38906,0.46302 0,0.29786 -0.41189,0.38305 -1.85208,0.38305 -1.01865,0 -1.85892,-0.0298 -1.86727,-0.0661 z m 1.02765,-4.61026 c -0.98084,-0.2594 -1.47624,-2.03205 -0.85075,-3.04412 0.0738,-0.11934 0.90098,-0.21698 1.83828,-0.21698 h 1.70417 v 1.30792 c 0,1.77422 -0.89975,2.42711 -2.6917,1.95318 z m 1.65076,-0.62457 c 1.03878,-0.55594 0.44189,-1.84278 -0.85475,-1.84278 -0.97424,0 -1.39938,0.76916 -0.85485,1.54659 0.43965,0.62769 0.9311,0.71283 1.7096,0.29619 z m -4.25072,-3.69486 c 0,-0.15875 1.05833,-0.26459 2.64583,-0.26459 1.5875,0 2.64583,0.10584 2.64583,0.26459 0,0.15875 -1.05833,0.26458 -2.64583,0.26458 -1.5875,0 -2.64583,-0.10583 -2.64583,-0.26458 z m 0,-6.29641 c 0,-0.11605 0.9436,-0.56101 2.0969,-0.98879 1.21915,-0.45221 1.96673,-0.85861 1.78594,-0.97085 -0.17103,-0.10619 -1.11464,-0.45685 -2.09691,-0.77926 -1.00465,-0.32976 -1.78593,-0.73871 -1.78593,-0.93482 0,-0.55248 0.47734,-0.42052 3.6235,1.0017 0.61048,0.27597 1.23556,0.50176 1.38906,0.50176 0.45771,0 0.31616,0.53393 -0.18392,0.69375 -0.25466,0.0814 -0.70114,0.25297 -0.99218,0.38128 -1.15227,0.508 -3.341,1.30622 -3.58167,1.30622 -0.14014,0 -0.25479,-0.0949 -0.25479,-0.21099 z m 2.17553,-4.6988 c -0.74132,-0.51925 -0.79931,-1.96074 -0.10418,-2.58983 0.6539,-0.59176 2.22883,-0.56574 2.78243,0.046 1.4598,1.61307 -0.86057,3.81701 -2.67825,2.54386 z m 2.42664,-0.97719 c 0.42271,-0.67512 -0.10934,-1.37111 -1.12539,-1.47214 -0.67087,-0.0667 -0.881,0.0376 -1.06653,0.52917 -0.35636,0.94427 0.11163,1.58511 1.08637,1.48759 0.4486,-0.0449 0.9461,-0.28996 1.10555,-0.54462 z m -4.60217,-3.37344 c 0,-0.15875 1.05833,-0.26458 2.64583,-0.26458 1.5875,0 2.64583,0.10583 2.64583,0.26458 0,0.15875 -1.05833,0.26459 -2.64583,0.26459 -1.5875,0 -2.64583,-0.10584 -2.64583,-0.26459 z m 2.48052,-1.58349 c -0.65244,-0.26348 -1.20759,-1.6117 -0.88113,-2.13991 0.12831,-0.20763 0.10317,-0.50357 -0.0594,-0.69949 -0.22508,-0.2712 0.11107,-0.33956 1.66878,-0.3394 l 1.95062,2.2e-4 0.075,1.16425 c 0.064,0.99337 -0.0286,1.24576 -0.63099,1.71958 -0.75309,0.59238 -1.22396,0.65776 -2.12285,0.29475 z m 1.88028,-0.96303 c 0.23642,-0.23642 0.39376,-0.6829 0.34963,-0.99219 -0.0665,-0.46629 -0.26097,-0.56233 -1.13856,-0.56233 -0.90597,0 -1.07087,0.0885 -1.1454,0.61456 -0.0479,0.338 -0.0219,0.78449 0.0578,0.99218 0.1959,0.51051 1.34576,0.47851 1.87649,-0.0522 z m -3.54744,-3.77398 c -0.97768,-0.26868 -1.00575,-0.82325 -0.0417,-0.82325 0.65029,0 0.8158,-0.11183 0.8158,-0.55121 0,-0.32681 0.13464,-0.50372 0.33073,-0.43454 0.1819,0.0642 0.31318,0.31823 0.29175,0.5646 -0.0324,0.37233 0.16855,0.4345 1.19062,0.3684 1.04468,-0.0676 1.24232,-0.16907 1.31415,-0.67485 0.12417,-0.87427 0.57691,-0.72585 0.57691,0.18913 0,0.48015 -0.1796,0.87663 -0.46302,1.02211 -0.6472,0.33221 -3.24323,0.55179 -4.01528,0.33961 z m 5.80122,-0.0295 c 0,-0.17041 2.77813,-0.26458 7.80521,-0.26458 5.02708,0 7.80521,0.0942 7.80521,0.26458 0,0.17041 -2.77813,0.26459 -7.80521,0.26459 -5.02708,0 -7.80521,-0.0942 -7.80521,-0.26459 z m -4.13406,-2.90641 c -0.65244,-0.26348 -1.20759,-1.6117 -0.88113,-2.13991 0.12831,-0.20762 0.10317,-0.50357 -0.0594,-0.69949 -0.2256,-0.27183 0.16167,-0.3396 1.94063,-0.3396 2.69019,0 3.39856,0.36158 3.39856,1.73479 0,0.50107 -0.11906,0.91104 -0.26458,0.91104 -0.14552,0 -0.26458,-0.33338 -0.26458,-0.74083 0,-0.75874 -0.41256,-1.37584 -0.91981,-1.37584 -0.17178,0 -0.24551,0.41199 -0.1858,1.03816 0.089,0.93344 0.0177,1.08024 -0.70747,1.45521 -0.89637,0.46353 -1.23269,0.48912 -2.0564,0.15647 z m 2.14969,-1.5915 c 0,-0.87611 -0.0526,-0.93042 -0.97489,-1.00713 -1.17483,-0.0977 -1.76293,0.62285 -1.26608,1.55123 0.22797,0.42596 0.50289,0.5265 1.26608,0.46302 0.92232,-0.0767 0.97489,-0.13101 0.97489,-1.00712 z m -1.98438,-2.58052 c -1.63312,-0.51925 -1.28397,-3.24032 0.41577,-3.24032 0.58517,0 0.64256,0.10635 0.64256,1.19063 0,0.87513 0.10383,1.19062 0.39184,1.19062 0.63538,0 0.8348,-1.33924 0.26181,-1.75822 -0.5933,-0.43383 -0.27449,-0.84644 0.35123,-0.45458 0.64627,0.40473 0.72794,1.99928 0.13011,2.54031 -0.52487,0.475 -1.57259,0.72892 -2.19332,0.53156 z m 0.19699,-2.24504 c -0.1052,-0.59835 -0.10524,-0.59834 -0.38521,0.0631 -0.20145,0.47589 -0.19577,0.7658 0.0203,1.03339 0.25398,0.3146 0.31336,0.30488 0.38521,-0.0631 0.0467,-0.23924 0.0376,-0.70427 -0.0202,-1.03338 z m 50.33843,-19.36177 v -2.80017 h 1.26404 c 1.5848,0 2.44013,0.55646 2.44013,1.5875 0,0.935 -0.83357,1.5875 -2.02804,1.5875 -0.81042,0 -0.85592,0.0538 -0.93331,1.10391 -0.0447,0.60715 -0.23019,1.15286 -0.41209,1.21267 -0.2506,0.0824 -0.33073,-0.56966 -0.33073,-2.69141 z m 2.75648,-0.31494 c 0.24306,-0.0933 0.41852,-0.46964 0.41852,-0.89773 0,-0.80265 -0.38876,-1.05834 -1.60914,-1.05834 -0.72441,0 -0.77211,0.0654 -0.77211,1.05834 0,0.99294 0.0477,1.05833 0.77211,1.05833 0.42466,0 0.96044,-0.0723 1.19062,-0.1606 z m 2.45193,2.59603 c -0.55303,-0.61109 -0.65365,-3.60639 -0.11518,-3.42876 0.19933,0.0658 0.36225,0.7052 0.41008,1.60954 0.0676,1.27768 0.15505,1.50046 0.58921,1.50046 0.63044,0 1.37477,-1.08379 1.30738,-1.90362 -0.0795,-0.96753 -0.0115,-1.27138 0.28461,-1.27138 0.17336,0 0.24723,0.70502 0.19843,1.89381 l -0.0777,1.89382 -1.07545,0.0994 c -0.80142,0.0741 -1.18906,-0.0261 -1.52135,-0.3933 z m 3.91245,-0.12122 c -0.23569,-0.93906 -0.0216,-4.77572 0.27185,-4.8728 0.16514,-0.0546 0.26458,0.95653 0.26458,2.69045 0,2.64004 -0.20858,3.48861 -0.53643,2.18235 z m 2.13902,0.0837 c -0.6162,-0.68089 -0.27646,-1.27384 0.38623,-0.67411 0.50371,0.45586 1.74901,0.45285 1.66903,-0.004 -0.0255,-0.14552 -0.46701,-0.38465 -0.98119,-0.5314 -1.20657,-0.34436 -1.58113,-0.73655 -1.3622,-1.42634 0.14702,-0.4632 0.38845,-0.5558 1.4491,-0.5558 0.77281,0 1.39438,0.14663 1.58252,0.37332 0.45866,0.55265 -0.1258,0.79854 -0.79086,0.33271 -0.54712,-0.38322 -1.57084,-0.31259 -1.57084,0.10838 0,0.12294 0.47422,0.35122 1.05383,0.50729 1.30022,0.35012 1.72735,1.01315 1.16754,1.81239 -0.5181,0.73969 -1.95706,0.77152 -2.60316,0.0576 z m 4.11992,0.15655 c -0.55939,-0.67402 -0.65317,-1.98077 -0.19261,-2.68367 0.79089,-1.20705 3.06906,-0.70432 3.06906,0.67726 0,0.44252 -0.19447,0.51027 -1.46452,0.51027 -1.38253,0 -1.44866,0.0296 -1.18131,0.52917 0.30178,0.56388 1.68538,0.74836 1.98437,0.26458 0.24486,-0.39619 0.66146,-0.31873 0.66146,0.12299 0,0.84092 -2.27851,1.29988 -2.87645,0.5794 z m 1.80237,-2.66679 c -0.29154,-0.27867 -0.53661,-0.2978 -1.04259,-0.0814 -0.65804,0.28146 -0.65667,0.28378 0.26459,0.44888 1.11085,0.19907 1.28478,0.11692 0.778,-0.3675 z m 7.30909,2.78615 c -0.0804,-0.13012 -0.39328,-1.27685 -0.69525,-2.54829 -0.38411,-1.61733 -0.46542,-2.3953 -0.27068,-2.59004 0.39792,-0.39792 0.46652,-0.25839 0.88083,1.79159 l 0.3717,1.83915 0.49436,-1.90603 c 0.2719,-1.04833 0.59342,-1.90604 0.7145,-1.90604 0.31099,0 0.71619,1.16546 0.95571,2.7489 l 0.20453,1.35214 0.3323,-1.45521 c 0.18277,-0.80037 0.38728,-1.7231 0.45448,-2.05052 0.0672,-0.32742 0.25285,-0.59531 0.41257,-0.59531 0.17165,0 0.22571,0.24345 0.13222,0.59531 -0.087,0.32742 -0.3638,1.57924 -0.6151,2.78182 -0.25129,1.20257 -0.5738,2.14754 -0.71667,2.09991 -0.14287,-0.0476 -0.45444,-0.91249 -0.69238,-1.92192 -0.41576,-1.76384 -0.43971,-1.79982 -0.61493,-0.92371 -0.51955,2.59774 -0.91581,3.38786 -1.34819,2.68825 z m 4.87749,-1.5714 c 0,-1.0429 0.0983,-1.89618 0.21847,-1.89618 0.26335,0 0.23394,3.33995 -0.0317,3.60564 -0.1027,0.1027 -0.18672,-0.66656 -0.18672,-1.70946 z m 1.73479,1.21995 c -0.96492,-1.37763 -0.1231,-3.11613 1.50891,-3.11613 0.78086,0 0.86221,-0.0745 0.8599,-0.78714 -10e-4,-0.43292 0.1165,-0.76034 0.26202,-0.7276 0.15422,0.0347 0.26459,1.13526 0.26459,2.63848 v 2.57895 l -1.24177,7.9e-4 c -0.98377,5.3e-4 -1.32734,-0.12143 -1.65365,-0.5873 z m 2.23396,-1.27235 c 0,-0.74344 -0.13115,-1.11697 -0.43284,-1.23273 -0.59101,-0.2268 -1.26856,0.24489 -1.37402,0.95657 -0.14162,0.95563 0.14809,1.3428 1.00481,1.3428 0.76038,0 0.80205,-0.0554 0.80205,-1.06664 z m 2.7418,1.53703 c -0.10991,-0.17784 -0.16668,-0.78272 -0.12614,-1.34418 0.0491,-0.68063 -0.0795,-1.19008 -0.38594,-1.52872 -0.25281,-0.27935 -0.33539,-0.50791 -0.18351,-0.50791 0.15188,0 0.35432,-0.41672 0.44987,-0.92604 0.0956,-0.50933 0.2874,-0.92604 0.42632,-0.92604 0.13893,0 0.2526,0.41671 0.2526,0.92604 0,0.70235 0.11184,0.92807 0.46302,0.93445 0.44097,0.008 0.44097,0.0252 0,0.3599 -0.3098,0.23518 -0.46302,0.71393 -0.46302,1.44679 0,0.91893 0.0852,1.09532 0.52917,1.09532 0.29398,0 0.52916,0.17639 0.52916,0.39687 0,0.48367 -1.20144,0.54289 -1.49153,0.0735 z m 2.28528,-2.13727 c 0,-1.41155 0,-2.65575 0,-2.7649 0,-0.10914 0.14883,-0.19843 0.33073,-0.19843 0.21853,0 0.31693,0.37686 0.29006,1.11081 -0.0365,0.99676 0.007,1.08108 0.42308,0.82119 0.25507,-0.15929 0.77939,-0.2104 1.16516,-0.11359 0.66854,0.1678 0.70139,0.25635 0.70139,1.89079 0,1.03895 -0.1113,1.71476 -0.28241,1.71476 -0.16396,0 -0.21048,-0.22665 -0.11092,-0.54033 0.0943,-0.29718 0.0919,-1.01155 -0.005,-1.5875 -0.14628,-0.86582 -0.28254,-1.04717 -0.78681,-1.04717 -0.67114,0 -0.94445,0.46087 -1.08531,1.83017 -0.0512,0.49727 -0.21598,1.0271 -0.36627,1.17739 -0.18797,0.18797 -0.27327,-0.52787 -0.27327,-2.29319 z m -9.21367,-2.47839 c 0.12874,-0.66377 0.74701,-0.75492 0.74701,-0.11012 0,0.325 -0.17084,0.55122 -0.41628,0.55122 -0.24639,0 -0.38136,-0.18002 -0.33073,-0.4411 z M 636.89895,321.5601 v -5.58493 l -0.59531,0.14097 c -0.32742,0.0775 -1.53692,0.28004 -2.68777,0.45002 -1.83863,0.27157 -2.12075,0.2585 -2.32568,-0.10768 -0.20997,-0.3752 -3.09368,-0.41742 -28.93069,-0.4236 -22.92397,-0.005 -28.68402,0.0601 -28.63058,0.32612 0.0368,0.18315 -0.0522,0.33078 -0.19768,0.32807 -0.6289,-0.0117 -4.7867,-0.74119 -5.02708,-0.88201 -0.14552,-0.0852 0.92604,-0.35658 2.38125,-0.60295 2.12471,-0.35972 2.69816,-0.38192 2.91151,-0.11272 0.40947,0.51662 57.54578,0.75815 57.54578,0.24325 0,-0.4373 -0.13941,-0.43931 2.77813,0.0401 2.96357,0.48693 2.77812,0.49747 2.77812,-0.15795 0,-0.31255 0.13811,-0.50518 0.31898,-0.44489 0.46983,0.15661 0.48143,12.37305 0.0118,12.37313 -0.25414,5e-5 -0.33073,-1.29329 -0.33073,-5.58488 z m -36.32405,-6.91995 c -0.39469,-0.13157 -0.71762,-0.40788 -0.71762,-0.61403 0,-0.48435 0.20316,-0.47406 0.71334,0.0361 0.51004,0.51004 1.50194,0.39895 1.61232,-0.18058 0.0585,-0.30742 -0.17975,-0.48022 -0.83061,-0.60232 -1.14482,-0.21477 -1.60363,-0.74691 -1.38726,-1.60899 0.14693,-0.58541 0.3075,-0.6649 1.34315,-0.6649 0.92159,0 1.24022,0.11949 1.47161,0.55183 0.34405,0.64287 0.12228,1.01134 -0.33404,0.55501 -0.37769,-0.37768 -2.05934,-0.4204 -2.05934,-0.0523 0,0.14342 0.53194,0.39472 1.18208,0.55842 0.77014,0.19393 1.23878,0.47629 1.34478,0.81026 0.323,1.01769 -0.94658,1.67543 -2.33841,1.21149 z m 4.12832,0.0676 c -0.66541,-0.2681 -1.14177,-1.03779 -1.14177,-1.84486 0,-0.75238 1.14904,-1.85746 1.93134,-1.85746 0.76654,0 1.50824,0.7584 1.50824,1.54219 0,0.51299 -0.1416,0.57448 -1.32291,0.57448 -1.43364,0 -1.65273,0.26816 -0.74089,0.90683 0.52475,0.36755 0.64418,0.36695 1.21358,-0.006 0.8502,-0.55707 1.14374,-0.19209 0.35789,0.445 -0.68411,0.55462 -0.94008,0.58864 -1.80548,0.23996 z m 1.50406,-2.64398 c 0,-0.14552 -0.29063,-0.26459 -0.64584,-0.26459 -0.35521,0 -0.71943,0.11907 -0.80937,0.26459 -0.0954,0.15436 0.17365,0.26458 0.64585,0.26458 0.44515,0 0.80936,-0.11906 0.80936,-0.26458 z m 6.45932,2.2959 c -0.42393,-0.36486 -0.68022,-0.75415 -0.56954,-0.86508 0.11067,-0.11093 0.44273,0.0575 0.73791,0.37437 0.59229,0.63575 1.08363,0.71573 1.85637,0.30217 0.83002,-0.44422 0.59746,-2.10736 -0.29467,-2.10736 -0.81116,0 -0.87609,-0.5333 -0.15639,-1.28451 l 0.68247,-0.71235 -1.01948,0.0972 c -0.56071,0.0535 -1.09996,-0.033 -1.19834,-0.1922 -0.12197,-0.19734 0.33115,-0.28942 1.42424,-0.28942 1.70054,0 1.90893,0.17038 1.10179,0.90085 -0.49022,0.44363 -0.48728,0.46774 0.13229,1.08731 1.15307,1.15307 0.5557,2.87374 -1.10915,3.19486 -0.63427,0.12233 -0.98893,0.009 -1.5875,-0.50587 z m -93.24265,-2.28029 v -2.66145 h 1.45521 c 1.10243,0 1.58349,0.12829 1.98437,0.52917 0.64559,0.64559 0.6563,1.01014 0.0527,1.79442 -0.361,0.46907 -0.74341,0.60939 -1.71391,0.62887 l -1.24924,0.0251 v 1.00916 c 0,0.55504 -0.11906,1.08275 -0.26458,1.17268 -0.16969,0.10488 -0.26458,-0.791 -0.26458,-2.49792 z m 2.7937,-0.66157 c 0.79675,-0.59165 0.19931,-1.31849 -1.167,-1.41978 -1.09656,-0.0813 -1.09754,-0.0805 -1.09754,0.8599 0,0.88898 0.0486,0.94125 0.87548,0.94125 0.48151,0 1.10658,-0.17161 1.38906,-0.38137 z m 2.36442,2.85586 c -0.45295,-0.45294 -0.56718,-3.53282 -0.13104,-3.53282 0.1467,0 0.26458,0.70035 0.26458,1.57189 0,1.69563 0.20992,2.00519 1.19252,1.75857 0.55851,-0.14018 0.64262,-0.33086 0.71256,-1.61545 0.11513,-2.11472 0.5943,-1.92626 0.68485,0.26937 l 0.0764,1.85208 -1.20212,0.046 c -0.76657,0.0293 -1.34545,-0.0974 -1.59773,-0.34963 z m 4.10229,-2.18785 c 0,-2.22302 0.0678,-2.66789 0.40646,-2.66789 0.34275,0 0.39459,0.40098 0.33073,2.55824 -0.052,1.75509 -0.17956,2.59267 -0.40646,2.66789 -0.24996,0.0829 -0.33073,-0.54185 -0.33073,-2.55824 z m 2.31511,2.338 c -0.25466,-0.14832 -0.46302,-0.46081 -0.46302,-0.69442 0,-0.38513 0.0451,-0.3839 0.48385,0.0131 0.26612,0.24084 0.81063,0.43789 1.21003,0.43789 1.02757,0 0.81859,-0.85046 -0.26337,-1.07174 -1.16489,-0.23825 -1.43051,-0.46095 -1.43051,-1.19939 0,-0.4524 0.20273,-0.72947 0.66134,-0.90383 0.83465,-0.31733 2.16814,-0.0634 2.36531,0.4504 0.2555,0.66583 -0.1344,0.93804 -0.66101,0.46147 -0.33251,-0.30092 -0.71384,-0.38985 -1.17518,-0.27406 -0.91881,0.23061 -0.59755,0.64669 0.65383,0.8468 1.02357,0.16367 1.46819,0.75962 1.16202,1.5575 -0.23731,0.61841 -1.74467,0.84139 -2.54329,0.37623 z m 4.124,-0.10492 c -1.20194,-0.84187 -0.97064,-2.78205 0.38813,-3.25572 1.13121,-0.39434 2.03631,0.11267 2.03631,1.14069 0,0.71357 -0.0853,0.78993 -0.92605,0.82929 -0.50932,0.0238 -1.09332,0.0536 -1.29777,0.0662 -0.2875,0.0176 -0.26321,0.14271 0.10715,0.55196 0.58998,0.65192 1.15758,0.67549 1.60284,0.0666 0.18605,-0.25443 0.42665,-0.37423 0.53467,-0.26621 0.30548,0.30549 -0.69844,1.25798 -1.3259,1.25798 -0.30887,0 -0.81259,-0.17581 -1.11938,-0.3907 z m 1.76298,-2.38742 c -0.18116,-0.21829 -0.53835,-0.39688 -0.79375,-0.39688 -0.25541,0 -0.6126,0.17859 -0.79375,0.39688 -0.28399,0.34217 -0.17459,0.39687 0.79375,0.39687 0.96833,0 1.07773,-0.0547 0.79375,-0.39687 z m 6.08541,2.55966 c 0,-0.12016 0.3138,-0.50711 0.69732,-0.8599 0.38353,-0.35279 1.03528,-1.10151 1.44835,-1.66384 0.59123,-0.80488 0.69421,-1.12856 0.48399,-1.52135 -0.36708,-0.68591 -1.57741,-0.66512 -1.75924,0.0302 -0.15139,0.57891 -0.60829,0.72957 -0.60178,0.19844 0.0116,-0.94409 1.2695,-1.46364 2.45367,-1.01341 0.5796,0.22036 0.71668,0.43902 0.71414,1.13915 -0.002,0.66717 -0.28151,1.15549 -1.21353,2.12321 l -1.21041,1.25677 h 1.34583 c 0.74021,0 1.34583,0.11907 1.34583,0.26459 0,0.15119 -0.79375,0.26458 -1.85208,0.26458 -1.01865,0 -1.85209,-0.0983 -1.85209,-0.21846 z m 46.03751,-2.29508 v -2.51354 h 1.43356 c 1.97533,0 2.2706,0.15656 2.2706,1.20393 0,1.09746 -0.77642,1.70648 -2.17554,1.70648 -0.98965,0 -0.99946,0.0104 -0.99946,1.05834 0,0.58208 -0.11906,1.05833 -0.26458,1.05833 -0.15782,0 -0.26458,-1.01423 -0.26458,-2.51354 z m 2.8585,-1.22219 c 0.0841,-0.72502 -0.40753,-1.01511 -1.73403,-1.02316 -0.50647,-0.003 -0.59531,0.13685 -0.59531,0.93765 v 0.94125 l 1.12448,-0.0814 c 0.99128,-0.0717 1.134,-0.16345 1.20486,-0.77438 z m 2.23473,3.56029 c -0.40771,-0.16425 -0.46597,-3.52873 -0.0611,-3.52873 0.15567,0 0.19928,0.2803 0.10317,0.6632 -0.23544,0.93809 0.0953,2.43175 0.57961,2.6176 0.87706,0.33656 1.42885,-0.31492 1.42885,-1.68699 0,-0.7139 0.12698,-1.37647 0.28218,-1.47239 0.39748,-0.24566 0.40685,-0.19095 0.3007,1.7547 l -0.0951,1.74382 -1.10377,0.021 c -0.60707,0.0116 -1.25259,-0.0389 -1.43449,-0.11223 z m 3.9026,-2.49244 c 0,-2.01639 0.0808,-2.64111 0.33073,-2.55824 0.2269,0.0752 0.3545,0.91279 0.40645,2.66788 0.0639,2.15727 0.012,2.55824 -0.33073,2.55824 -0.33867,0 -0.40645,-0.44487 -0.40645,-2.66788 z m -147.10834,-0.22049 v -2.66788 h 1.34031 c 1.79981,0 2.36487,0.33485 2.35981,1.39837 -0.006,1.23709 -0.31536,1.5534 -1.669,1.70598 -1.16389,0.13119 -1.21235,0.1716 -1.2895,1.07522 -0.0441,0.51639 -0.22899,0.98779 -0.41089,1.04755 -0.2499,0.0821 -0.33073,-0.54337 -0.33073,-2.55924 z m 3.04674,-0.82849 c 0.24407,-0.76901 -0.31744,-1.31022 -1.35934,-1.31022 -0.84492,0 -0.89365,0.0505 -0.89365,0.92604 0,0.90135 0.0278,0.92604 1.0405,0.92604 0.81626,0 1.07757,-0.11678 1.21249,-0.54186 z m 2.16187,3.28103 c -0.29741,-0.29742 -0.21689,-3.85059 0.0831,-3.66521 0.14552,0.0899 0.26458,0.87087 0.26458,1.73541 0,1.32384 0.0731,1.57055 0.46302,1.56347 0.93686,-0.017 1.38907,-0.65544 1.38907,-1.96104 0,-0.88212 0.0973,-1.21722 0.33072,-1.1394 0.21847,0.0728 0.33073,0.68273 0.33073,1.79676 v 1.68653 l -1.33982,0.0825 c -0.73691,0.0454 -1.42152,8e-4 -1.52136,-0.099 z m 3.78723,-2.47459 c 0,-1.46202 0.11051,-2.64583 0.24701,-2.64583 0.13585,0 0.28468,1.19089 0.33073,2.64641 0.0628,1.98561 10e-4,2.64627 -0.24702,2.64583 -0.24249,-4.2e-4 -0.33072,-0.70644 -0.33072,-2.64641 z m 2.20796,2.23755 c -0.0862,-0.22456 -0.0661,-0.49245 0.0445,-0.59531 0.11066,-0.10287 0.25435,-0.0382 0.31932,0.1437 0.14021,0.3926 1.55915,0.44583 1.79311,0.0673 0.0896,-0.1449 -0.17131,-0.39574 -0.57969,-0.55743 -1.38599,-0.54872 -1.53628,-0.69125 -1.53628,-1.4569 0,-0.72737 0.057,-0.76492 1.16179,-0.76492 0.80634,0 1.2487,0.13778 1.44585,0.45033 0.40609,0.64379 0.0573,0.84914 -0.66645,0.39235 -0.36835,-0.23249 -0.82507,-0.31296 -1.12987,-0.19907 -0.61883,0.23121 -0.22908,0.54354 0.98922,0.7927 0.97236,0.19887 1.41251,1.13369 0.81507,1.73112 -0.54299,0.54299 -2.44782,0.54024 -2.6566,-0.004 z m 4.14204,-0.12088 c -0.63302,-0.63302 -0.68487,-1.77663 -0.11729,-2.58696 0.83457,-1.19152 3.0277,-0.50038 3.0277,0.95415 0,0.51299 -0.14161,0.57448 -1.32291,0.57448 -1.01159,0 -1.32292,0.0953 -1.32292,0.40518 0,0.58907 0.7519,0.78496 1.67521,0.43645 0.96881,-0.36568 1.25628,-0.18767 0.55443,0.34331 -0.72642,0.54958 -1.87642,0.4912 -2.49422,-0.12661 z m 2.11666,-2.11667 c 0,-0.14552 -0.41672,-0.26458 -0.92604,-0.26458 -0.50932,0 -0.92604,0.11906 -0.92604,0.26458 0,0.14553 0.41672,0.26459 0.92604,0.26459 0.50932,0 0.92604,-0.11906 0.92604,-0.26459 z m 6.87917,0.63315 c 0,-1.66083 -0.0679,-1.98662 -0.3884,-1.86363 -0.66972,0.25699 -0.68134,-0.25406 -0.0199,-0.87544 0.34855,-0.32744 0.7616,-0.51632 0.91789,-0.41972 0.17004,0.10509 0.28417,1.17889 0.28417,2.67355 0,2.04399 -0.0721,2.49793 -0.39688,2.49793 -0.31799,0 -0.39687,-0.40002 -0.39687,-2.01269 z M 435.4185,289.13926 c -0.25341,-0.2534 -0.37699,-0.66748 -0.29613,-0.99218 0.0763,-0.30651 0.22032,-1.09306 0.31999,-1.74791 0.30049,-1.97428 0.45081,-2.11666 2.23464,-2.11666 1.55093,0 2.17257,0.42327 1.052,0.71631 -0.2894,0.0757 -0.46031,0.24419 -0.37979,0.37447 0.26831,0.43414 -0.18046,1.2883 -0.86545,1.6472 l -0.67675,0.35459 0.86752,0.0247 c 1.25555,0.0357 1.71865,0.94031 0.90031,1.75866 -0.563,0.563 -2.58647,0.55073 -3.15634,-0.0191 z m 2.64607,-0.35884 c 0.1,-0.1618 -0.31114,-0.26458 -1.05833,-0.26458 -0.7472,0 -1.15833,0.10278 -1.05834,0.26458 0.0899,0.14552 0.56619,0.26459 1.05834,0.26459 0.49214,0 0.96839,-0.11907 1.05833,-0.26459 z m -1.52687,-1.74735 c -0.0879,-0.0879 -0.31612,-0.0973 -0.50711,-0.0209 -0.21107,0.0845 -0.14838,0.14716 0.15985,0.15985 0.27891,0.0115 0.43518,-0.051 0.34726,-0.13896 z m 0.86541,-1.57555 c 0,-0.3977 -0.15249,-0.64585 -0.39687,-0.64585 -0.39602,0 -0.56843,1.06317 -0.22768,1.40392 0.29989,0.29989 0.62455,-0.0942 0.62455,-0.75807 z m 3.53147,2.39791 c -1.20916,-0.50841 -1.53461,-1.84805 -0.72853,-2.99889 0.60425,-0.86269 2.46439,-0.73255 2.92943,0.20494 0.44026,0.88756 0.24698,1.07311 -1.11778,1.07311 -1.23236,0 -1.43624,0.23014 -0.78278,0.88359 0.39709,0.3971 1.45986,0.30923 1.45986,-0.1207 0,-0.12855 0.17859,-0.23372 0.39687,-0.23372 0.52973,0 0.50177,0.35706 -0.0661,0.84481 -0.7325,0.62911 -1.22526,0.71085 -2.09093,0.34686 z m 1.49561,-2.77917 c 0,-0.14552 -0.29765,-0.26459 -0.66145,-0.26459 -0.36381,0 -0.66146,0.11907 -0.66146,0.26459 0,0.14552 0.29765,0.26458 0.66146,0.26458 0.3638,0 0.66145,-0.11906 0.66145,-0.26458 z m -26.58377,0.50479 c -0.41362,-1.32309 -0.91179,-2.46692 -1.10705,-2.54184 -0.71409,-0.27403 -0.32734,-0.60879 0.70332,-0.60879 1.04609,0 1.27445,0.18569 0.82976,0.67469 -0.13071,0.14373 -0.0264,0.81779 0.24359,1.57427 l 0.47218,1.32292 0.31072,-0.79375 c 0.17089,-0.43656 0.41713,-1.06589 0.54719,-1.3985 0.17624,-0.45072 0.13614,-0.64326 -0.15744,-0.75592 -0.71134,-0.27296 -0.4121,-0.62371 0.53213,-0.62371 0.83582,0 1.26593,0.35107 0.70234,0.57327 -0.12303,0.0485 -0.61557,1.18952 -1.09454,2.53559 -0.47896,1.34607 -0.95169,2.44739 -1.0505,2.44739 -0.0988,0 -0.51808,-1.08253 -0.9317,-2.40562 z m 4.09272,1.6822 c -0.41742,-0.53066 -0.52672,-0.93511 -0.41018,-1.51782 0.22541,-1.12703 0.78052,-1.57234 1.91976,-1.54005 1.28039,0.0363 2.04299,0.89585 1.82021,2.05162 -0.33225,1.72364 -2.29818,2.31773 -3.32979,1.00625 z m 2.06522,-0.38783 c 0.45159,-0.45158 0.39275,-1.42154 -0.11717,-1.93145 -0.70161,-0.70161 -1.26665,0.0874 -1.18418,1.65364 0.0346,0.65778 0.76538,0.81378 1.30135,0.27781 z m 2.16958,0.72959 c 0,-0.22665 0.11907,-0.41209 0.26459,-0.41209 0.34802,0 0.34802,-3.88595 0,-4.10104 -0.52154,-0.32232 -0.25023,-0.66146 0.52916,-0.66146 h 0.79375 v 2.38125 c 0,1.99598 0.0678,2.38125 0.41893,2.38125 0.93303,0 0.12229,0.66729 -0.90251,0.74282 -0.85781,0.0632 -1.10392,-0.0105 -1.10392,-0.33073 z m 3.8606,0.0352 c -0.31817,-0.23266 -0.50066,-0.77205 -0.55539,-1.64165 -0.0601,-0.95466 -0.20503,-1.33846 -0.55132,-1.45993 -0.32701,-0.11471 -0.37462,-0.22363 -0.15664,-0.35835 0.17225,-0.10645 0.45247,-0.10746 0.62272,-0.002 0.19699,0.12175 0.25773,0.0553 0.16706,-0.18282 -0.18235,-0.47878 0.21546,-1.56475 0.5732,-1.56475 0.15021,0 0.27311,0.36103 0.27311,0.80228 0,0.5823 0.15788,0.86068 0.5758,1.01528 l 0.5758,0.213 -0.5758,0.15058 c -0.43056,0.11259 -0.5758,0.35158 -0.5758,0.94745 0,0.43829 0.0723,0.98522 0.1606,1.2154 0.17541,0.45713 0.89773,0.58098 0.89773,0.15393 0,-0.14552 0.17859,-0.26458 0.39688,-0.26458 0.51366,0 0.50569,0.38255 -0.0189,0.90714 -0.50654,0.50655 -1.17597,0.53218 -1.80904,0.0693 z m 2.75071,-0.0543 c -0.41955,-0.50553 -0.12428,-1.64368 0.46648,-1.79808 0.42526,-0.11114 0.42375,-0.12345 -0.0186,-0.15165 -0.34154,-0.0218 -0.45685,-0.20367 -0.39687,-0.62601 0.0726,-0.51119 0.26787,-0.60694 1.38187,-0.67761 1.48303,-0.0941 1.73527,0.13351 1.74133,1.57126 0.002,0.52788 0.18134,1.10692 0.39802,1.28675 0.62572,0.5193 0.29529,0.67627 -1.53798,0.7306 -1.2285,0.0364 -1.80461,-0.0585 -2.03427,-0.33526 z m 2.02864,-0.80121 c 0.21211,-0.55273 0.07,-0.63034 -0.6533,-0.35686 -0.33677,0.12732 -0.5381,0.35157 -0.4474,0.49832 0.2505,0.40533 0.9241,0.31876 1.1007,-0.14146 z m 0.0253,-1.64224 c 0.0646,-0.19399 -0.11778,-0.33073 -0.44109,-0.33073 -0.325,0 -0.55122,0.17084 -0.55122,0.41628 0,0.48627 0.82562,0.41509 0.99231,-0.0856 z"
       id="path486"
       inkscape:export-filename="path486.svg"
       inkscape:export-xdpi="96"
       inkscape:export-ydpi="96" /></g></svg>
