<?xml version="1.0" encoding="UTF-8" standalone="no"?>
<!-- Created with Inkscape (http://www.inkscape.org/) -->

<svg
   width="174.94479mm"
   height="71.126228mm"
   viewBox="0 0 174.94479 71.126228"
   version="1.1"
   id="svg5"
   xml:space="preserve"
   xmlns:inkscape="http://www.inkscape.org/namespaces/inkscape"
   xmlns:sodipodi="http://sodipodi.sourceforge.net/DTD/sodipodi-0.dtd"
   xmlns="http://www.w3.org/2000/svg"
   xmlns:svg="http://www.w3.org/2000/svg"><sodipodi:namedview
     id="namedview7"
     pagecolor="#505050"
     bordercolor="#eeeeee"
     borderopacity="1"
     inkscape:showpageshadow="0"
     inkscape:pageopacity="0"
     inkscape:pagecheckerboard="0"
     inkscape:deskcolor="#505050"
     inkscape:document-units="mm"
     showgrid="false" /><defs
     id="defs2"><clipPath
       id="clip0"><rect
         x="846"
         y="327"
         width="935"
         height="548"
         id="rect3456" /></clipPath></defs><g
     inkscape:label="Layer 1"
     inkscape:groupmode="layer"
     id="layer1"
     transform="translate(-17.949637,-44.303179)"><g
       clip-path="url(#clip0)"
       transform="matrix(0.26458333,0,0,0.26458333,-261.22242,-61.56691)"
       id="g3474"><path
         style="fill:#ffffff;fill-opacity:1;stroke-width:0.33183"
         d="m 1314.9612,664.27538 v -4.64562 h -1.6592 c -1.4379,0 -1.6591,-0.0885 -1.6591,-0.66366 0,-0.62826 0.2212,-0.66366 4.1479,-0.66366 3.9266,0 4.1478,0.0354 4.1478,0.66366 0,0.58322 -0.2212,0.66366 -1.825,0.66366 h -1.8251 v 4.64562 c 0,4.42439 -0.032,4.64562 -0.6636,4.64562 -0.6321,0 -0.6637,-0.22123 -0.6637,-4.64562 z m 6.3048,-0.66366 v -5.30928 h 2.6051 c 4.2465,0 5.3694,0.6747 5.3482,3.21353 -0.019,2.2532 -1.2812,3.09124 -4.6566,3.09124 h -1.9694 v 2.15689 c 0,1.93567 -0.068,2.1569 -0.6637,2.1569 -0.636,0 -0.6636,-0.22123 -0.6636,-5.30928 z m 5.9947,-0.67533 c 0.443,-0.23711 0.6419,-0.69602 0.6419,-1.48156 0,-1.45426 -0.6698,-1.82507 -3.2965,-1.82507 h -2.0128 v 1.82507 1.82506 h 2.0128 c 1.107,0 2.3016,-0.15458 2.6546,-0.3435 z m 5.4059,5.65557 c -0.8577,-0.34613 -1.7776,-1.58783 -1.7776,-2.39944 0,-0.89744 0.7853,-0.70528 1.5954,0.39037 1.7096,2.31241 6.362,1.15589 5.069,-1.26009 -0.2168,-0.40505 -1.1391,-0.85289 -2.5343,-1.23056 -2.7151,-0.73493 -3.7983,-1.53351 -3.7983,-2.80027 0,-1.39646 0.3061,-1.96365 1.3511,-2.50406 2.0427,-1.05629 5.1135,-0.36207 5.8846,1.33033 0.5078,1.11448 0.5014,1.17067 -0.1341,1.17067 -0.2918,0 -0.949,-0.44797 -1.4604,-0.99549 -1.4871,-1.59194 -4.3138,-1.0624 -4.3138,0.80813 0,0.8247 0.6195,1.17528 3.2792,1.85561 1.9221,0.49165 2.596,0.94492 3.0561,2.05564 0.5062,1.22223 -0.1212,2.77095 -1.3881,3.4261 -1.016,0.52539 -3.6957,0.61033 -4.8288,0.15306 z m 9.1876,-0.60064 c -1.7588,-1.75879 -1.7672,-6.50844 -0.015,-8.46949 0.8029,-0.89867 1.169,-1.05347 2.491,-1.05347 1.2284,0 1.6813,0.16246 2.1841,0.78338 1.2788,1.5792 0.4874,2.35975 -0.8879,0.87577 -0.4229,-0.45627 -1.0486,-0.82958 -1.3905,-0.82958 -0.9382,0 -2.0659,1.40412 -2.2937,2.85593 -0.201,1.28168 -0.1972,1.28716 0.4776,0.69 0.8113,-0.718 2.4497,-0.82585 3.5555,-0.23405 1.7618,0.94291 1.9562,4.15724 0.3365,5.56457 -1.2703,1.10375 -3.2522,1.02236 -4.4577,-0.18306 z m 3.6922,-0.61499 c 0.7671,-0.6943 0.7998,-2.66952 0.058,-3.48961 -1.247,-1.37793 -3.5434,-0.26585 -3.5434,1.71598 0,1.95542 2.1027,3.02531 3.4858,1.77363 z m 4.1068,0.5074 c -0.4801,-0.57049 -0.817,-1.20512 -0.7486,-1.41027 0.1865,-0.56039 1.2305,-0.6596 1.2305,-0.11695 0,0.73186 1.1205,1.569 2.1001,1.569 1.052,0 2.2137,-1.05271 2.2137,-2.00606 0,-0.96306 -1.5416,-2.41588 -2.3415,-2.20669 -1.077,0.28164 -0.7333,-0.60605 0.4335,-1.1196 2.1504,-0.94649 1.3103,-3.71686 -0.9547,-3.14837 -0.4455,0.1118 -0.9799,0.57634 -1.1877,1.03229 -0.4066,0.89243 -1.0286,0.92264 -1.1963,0.0581 -0.2366,-1.21988 2.0885,-2.51437 3.7619,-2.09437 1.9351,0.48568 2.8386,2.83677 1.5678,4.07968 -0.5522,0.54001 -0.5358,0.61218 0.3318,1.46771 1.0315,1.01704 1.1389,1.87343 0.4114,3.28027 -0.6488,1.25463 -1.4346,1.65251 -3.2636,1.65251 -1.2565,0 -1.6201,-0.15991 -2.3583,-1.03727 z m 9.0535,0.69391 c -1.6764,-0.97825 -2.1457,-6.95175 -0.6988,-8.89527 1.191,-1.59995 3.3367,-1.78455 4.7155,-0.40569 1.5732,1.57313 1.5499,7.18757 -0.037,8.87646 -0.7751,0.82508 -2.9044,1.05218 -3.98,0.4245 z m 3.165,-1.26781 c 0.7755,-0.8569 1.0615,-4.4777 0.4881,-6.17919 -0.596,-1.7685 -1.9364,-2.31355 -3.0214,-1.22854 -0.9924,0.99241 -1.265,5.37412 -0.4342,6.9806 0.6338,1.22568 2.0591,1.43084 2.9675,0.42713 z m 4.3421,0.79667 c -0.448,-0.44797 -0.8145,-1.03645 -0.8145,-1.30773 0,-0.80957 0.7315,-1.01323 1.2004,-0.33424 0.864,1.25089 1.163,1.46098 2.0796,1.46098 1.1838,0 2.0293,-0.92718 2.0293,-2.22535 0,-1.16473 -0.6211,-1.80513 -1.8176,-1.87422 -1.1507,-0.0664 -1.0525,-0.83728 0.1604,-1.26013 1.3347,-0.46527 1.6714,-1.74196 0.7124,-2.70098 -1.0445,-1.04454 -2.2925,-0.51968 -3.2612,1.37154 -0.032,0.0624 -0.287,-0.0148 -0.5669,-0.17141 -0.4252,-0.23795 -0.4413,-0.42036 -0.098,-1.10887 0.9239,-1.85346 3.878,-2.10122 5.1885,-0.43515 0.844,1.07289 0.8567,1.80567 0.049,2.80344 -0.6229,0.76922 -0.6212,0.7847 0.1659,1.51415 1.2161,1.12704 1.1107,3.09886 -0.2257,4.22339 -1.4056,1.18273 -3.6423,1.20349 -4.8012,0.0446 z m 9.0574,0.45608 c -1.0132,-0.59016 -1.6256,-2.25372 -1.6382,-4.45065 -0.022,-3.75189 0.9362,-5.39101 3.3386,-5.71324 1.1693,-0.15684 1.4639,-0.0525 2.3485,0.83217 0.5564,0.55633 1.0115,1.17232 1.0115,1.36887 0,0.66292 -1.0218,0.36366 -1.7841,-0.52247 -1.3202,-1.53487 -3.2071,-0.46138 -3.723,2.1181 l -0.2075,1.03768 1.3309,-0.65853 c 1.2206,-0.60388 1.4279,-0.61804 2.4989,-0.17058 1.3804,0.5768 1.8848,1.38844 1.8848,3.03285 0,1.31122 -0.4727,2.42484 -1.2985,3.05888 -0.64,0.49133 -2.9623,0.53265 -3.7619,0.0669 z m 2.9657,-0.89778 c 0.7286,-0.46326 1.1092,-1.99283 0.7385,-2.96788 -0.4104,-1.07918 -0.8572,-1.40513 -1.9359,-1.41195 -1.7861,-0.0113 -2.6565,2.25273 -1.5006,3.90304 0.5187,0.74053 1.8995,0.98454 2.698,0.47679 z m 112.9259,-4.37859 c 0,-0.79451 4.6362,-0.87904 4.8962,-0.0893 0.1012,0.30737 -0.5152,0.41479 -2.3799,0.41479 -1.4238,0 -2.5163,-0.14133 -2.5163,-0.32551 z m -236.4287,-0.33815 c 0.1128,-0.18251 1.3162,-0.33183 2.6742,-0.33183 1.4249,0 2.4692,0.14034 2.4692,0.33183 0,0.19377 -1.1127,0.33183 -2.6743,0.33183 -1.6983,0 -2.5993,-0.12109 -2.4691,-0.33183 z m 233.5231,-4.20241 c -1.2689,-0.51158 0.5648,-0.77504 5.3943,-0.77504 4.9503,0 6.6749,0.2596 5.2802,0.79481 -0.6237,0.23934 -10.0752,0.22184 -10.6745,-0.0198 z m -236.5925,-0.52616 c 0.1031,-0.30926 1.5172,-0.41479 5.5581,-0.41479 4.041,0 5.4551,0.10553 5.5582,0.41479 0.107,0.32109 -1.1485,0.41478 -5.5582,0.41478 -4.4096,0 -5.6652,-0.0937 -5.5581,-0.41478 z m 237.0923,-4.82175 c -5.1053,-0.122 -5.1746,-0.7364 -0.083,-0.7364 h 3.8161 v -7.10179 -7.10178 l -2.4873,-1.27692 c -1.368,-0.7023 -2.4799,-1.42624 -2.4708,-1.60874 0.01,-0.18251 1.8958,-1.22777 4.1927,-2.32281 2.2968,-1.09504 4.4045,-2.1567 4.6836,-2.35925 0.412,-0.29901 -0.3756,-0.82945 -4.188,-2.82055 -2.5825,-1.34876 -4.652,-2.60161 -4.5989,-2.78411 0.053,-0.18251 2.1392,-1.3771 4.6359,-2.65464 2.4967,-1.27754 4.541,-2.40239 4.543,-2.49965 0,-0.0973 -2.087,-1.26581 -4.642,-2.59676 -2.5551,-1.33096 -4.6457,-2.52211 -4.6457,-2.64701 0,-0.1249 2.0906,-1.34405 4.6457,-2.70922 2.555,-1.36517 4.6456,-2.56355 4.6456,-2.66307 0,-0.0995 -0.9706,-0.65958 -2.1569,-1.24456 l -2.1569,-1.06362 v -11.59077 -11.59077 l -0.9816,-0.21559 c -1.043,-0.2291 -3.0004,-2.18686 -3.0004,-3.00107 0,-0.42408 -4.642,-0.4862 -36.3353,-0.4862 h -36.3354 v 32.78478 c 0,25.05683 -0.094,32.87863 -0.3982,33.18297 -0.5794,0.57945 -132.0197,0.57945 -132.5991,0 -0.2835,-0.28353 -0.3982,-2.33602 -0.3982,-7.1274 v -6.72921 l -10.2981,0.001 -10.2982,10e-4 -0.2918,0.76766 c -0.3643,0.95818 -2.1275,2.46789 -3.1951,2.73587 l -0.804,0.20201 v 8.08394 8.08394 l 4.1489,0.0929 c 2.411,0.054 4.1833,0.23187 4.2308,0.4247 0.053,0.21323 -3.042,0.36347 -8.6581,0.42036 -6.9368,0.0703 -8.7113,0.002 -8.6005,-0.33183 0.1003,-0.30194 1.2917,-0.44672 4.2292,-0.51394 l 4.0897,-0.0936 -0.2168,-5.71343 c -0.1192,-3.14239 -0.2172,-6.87069 -0.2177,-8.28512 -7e-4,-1.89223 -0.1153,-2.57168 -0.4337,-2.57168 -0.2379,0 -0.9376,-0.52097 -1.5547,-1.15771 -0.964,-0.99457 -1.1423,-1.43618 -1.2651,-3.13381 -0.1679,-2.32137 0.6404,-4.00552 2.2684,-4.72611 l 0.9797,-0.43366 0.085,-23.39692 0.085,-23.39692 12.8584,-0.0869 12.8584,-0.0869 v -25.71291 -25.7129 h -12.6095 -12.6096 v -10.95038 c 0,-10.90298 0,-10.95039 -0.6968,-10.95039 -0.9554,0 -2.9122,-2.03437 -3.163,-3.28844 l -0.2056,-1.02785 -42.4943,0.0842 -42.4944,0.0842 -0.2707,1.04474 c -0.2579,0.99537 -2.254,3.10313 -2.9387,3.10313 -0.2068,0 -0.2925,5.53825 -0.2373,15.34713 l 0.086,15.34712 6.5536,0.09 c 3.9922,0.0548 6.5536,0.21692 6.5536,0.41478 0,0.20632 -4.7213,0.32482 -12.9413,0.32482 -8.4064,0 -12.9414,-0.11629 -12.9414,-0.33183 0,-0.20893 2.2122,-0.33183 5.9729,-0.33183 h 5.973 V 521.42269 505.9926 h -0.818 c -1.0988,0 -2.9882,-1.71295 -3.3743,-3.05903 l -0.3122,-1.08884 -31.5944,-0.0846 -31.5944,-0.0846 v 0.68181 c 0,2.70867 -3.4671,4.68869 -5.9493,3.39758 -2.3468,-1.22068 -3.1899,-3.63617 -2.1863,-6.26408 1.2823,-3.35751 5.7976,-3.82445 7.5929,-0.78521 0.2985,0.50531 0.5427,1.15703 0.5427,1.44825 0,0.48108 2.8844,0.52951 31.5343,0.52951 29.7452,0 31.544,-0.033 31.7079,-0.5807 0.6433,-2.15071 2.4597,-3.73309 4.2852,-3.73309 1.8254,0 3.6418,1.58238 4.2851,3.73309 0.1643,0.54912 2.4842,0.5807 42.6584,0.5807 38.1479,0 42.4846,-0.0525 42.4846,-0.51422 0,-1.78973 2.2805,-3.79709 4.3138,-3.79709 2.0332,0 4.3137,2.00736 4.3137,3.79709 0,0.45335 1.2177,0.51422 10.2868,0.51422 h 10.2867 V 488.0778 475.47222 l -12.6925,-0.0869 c -6.9809,-0.0478 -12.6552,-0.1989 -12.6095,-0.33578 0.046,-0.13688 0.083,-12.08275 0.083,-26.54637 v -26.29751 h 34.0589 34.0588 l 0.4092,-1.38566 c 0.6521,-2.20833 1.7236,-3.65132 3.2656,-4.39782 2.7754,-1.34352 5.1464,-0.55395 7.2879,2.42695 0.4244,0.59073 0.4899,0.55981 1.1802,-0.55716 0.8083,-1.30781 3.0174,-2.55699 4.5219,-2.55699 1.4682,0 3.7138,1.24947 4.4833,2.49449 l 0.6922,1.12008 1.5601,-1.61189 c 1.2864,-1.32909 1.8345,-1.65246 3.1236,-1.84306 1.9971,-0.29527 4.2323,0.7002 5.2426,2.33487 l 0.6923,1.12008 1.5601,-1.61189 c 1.2712,-1.31337 1.8412,-1.65344 3.0778,-1.83619 3.2857,-0.48558 5.5109,1.44107 6.4238,5.56194 l 0.2032,0.91689 35.9961,-0.0873 35.9961,-0.0873 v 26.29751 c 0,14.46362 0,26.40949 10e-5,26.54637 10e-5,0.13688 -5.6742,0.28798 -12.6095,0.33578 l -12.6097,0.0869 v 12.60558 12.60559 h 36.5013 c 34.5414,0 36.5013,-0.0312 36.5025,-0.5807 0,-0.31939 0.2927,-1.05876 0.649,-1.64304 1.5096,-2.4759 4.9126,-2.78934 6.8875,-0.63438 0.6277,0.68494 1.0898,1.54307 1.0898,2.02367 v 0.83445 h 16.9344 16.9344 l 1.1454,-1.14545 c 1.979,-1.97894 4.9816,-1.9174 6.9552,0.14255 l 0.9608,1.0029 h 32.1365 32.1365 l 1.1454,-1.14545 c 1.9789,-1.97894 4.9816,-1.9174 6.9551,0.14255 l 0.9609,1.0029 h 31.2454 31.2455 l 0.6205,-1.37627 c 1.1011,-2.4417 3.7883,-3.31488 6.0178,-1.95546 4.0371,2.46155 1.8987,9.41157 -2.7213,8.84477 -1.556,-0.19089 -3.3819,-1.93113 -3.7012,-3.52741 l -0.198,-0.99014 h -31.1505 -31.1505 v 1.19421 c 0,2.29316 -1.3503,4.10686 -3.4497,4.63378 l -0.8641,0.21689 v 15.39411 15.39411 h 6.3047 c 3.982,0 6.3048,0.12225 6.3048,0.33183 0,0.21554 -4.535,0.33183 -12.9414,0.33183 -8.2117,0 -12.9413,-0.1186 -12.9413,-0.32451 0,-0.19671 2.4503,-0.36006 6.2218,-0.41479 l 6.2218,-0.0903 0.086,-15.1642 0.086,-15.16421 -1.4442,-0.63883 c -1.8806,-0.83186 -2.9512,-2.34151 -3.0025,-4.23375 l -0.04,-1.46214 -31.9386,-0.002 -31.9386,-0.002 v 1.37111 c 0,1.82176 -1.0343,3.42904 -2.6715,4.15135 l -1.3105,0.57819 v 14.53665 14.53665 h 6.4707 c 4.0926,0 6.4707,0.12195 6.4707,0.33183 0,0.21547 -4.4797,0.33183 -12.7755,0.33183 -8.2957,0 -12.7754,-0.11636 -12.7754,-0.33183 0,-0.20858 2.1569,-0.33183 5.807,-0.33183 h 5.807 v -14.60051 c 0,-13.68355 -0.036,-14.60058 -0.5807,-14.60175 -1.8517,-0.004 -4.3452,-3.25103 -3.9767,-5.17867 l 0.1516,-0.79302 h -16.8358 -16.8358 l -0.1843,0.92134 c -0.2591,1.29561 -1.4738,2.72755 -2.7749,3.27119 l -1.1057,0.46199 v 9.12358 9.12358 l 2.4916,1.2329 c 1.3704,0.67809 2.4467,1.36763 2.3918,1.5323 -0.055,0.16467 -2.211,1.43249 -4.7913,2.81738 l -4.6916,2.51797 4.7884,2.48749 c 2.6337,1.36812 4.7885,2.59717 4.7885,2.73122 0,0.13405 -2.0905,1.31597 -4.6456,2.62649 -2.5551,1.31051 -4.6441,2.476 -4.6423,2.58997 0,0.11398 2.0924,1.29982 4.6457,2.63522 2.5532,1.33539 4.6422,2.54392 4.6422,2.68563 0,0.14169 -2.0905,1.2803 -4.6456,2.53023 -2.5551,1.24992 -4.6456,2.36119 -4.6456,2.46947 0,0.10828 0.9706,0.6755 2.1569,1.26048 l 2.1569,1.06362 v 9.78575 9.78575 l 0.9125,0.22063 c 1.4152,0.34215 2.7668,1.43994 3.2774,2.6619 l 0.4646,1.11207 h 18.741 18.7409 l 0.086,-17.3381 c 0.056,-11.28024 0.2019,-17.3381 0.4178,-17.3381 0.3491,0 0.6653,35.08519 0.3242,35.97605 -0.1372,0.35843 -0.2722,0.37816 -0.5674,0.083 -0.286,-0.28608 -5.2964,-0.38732 -19.1686,-0.38732 h -18.7812 l -0.4136,1.14365 c -0.4435,1.22665 -2.1419,2.50648 -3.3261,2.50648 h -0.7074 v 11.46448 11.46448 l 2.4887,1.18189 c 1.3688,0.65004 2.4887,1.30463 2.4887,1.45465 0,0.15002 -2.089,1.36536 -4.6422,2.70076 -2.5533,1.33539 -4.6438,2.52124 -4.6457,2.63521 0,0.11397 2.0872,1.27946 4.6423,2.58998 2.5551,1.31052 4.6456,2.49143 4.6456,2.62426 0,0.13283 -2.1027,1.33683 -4.6727,2.67556 -2.5701,1.33873 -4.5486,2.55376 -4.3968,2.70008 0.1518,0.14632 2.2116,1.30636 4.5773,2.57786 2.3657,1.27151 4.3484,2.45333 4.4061,2.62627 0.058,0.17294 -2.0254,1.32313 -4.6291,2.55598 -5.2969,2.50814 -5.2072,2.31088 -1.8384,4.03927 l 1.5762,0.80869 v 7.29467 7.29466 h 4.4797 c 2.6035,0 4.4797,0.13183 4.4797,0.31478 0,0.34393 -7.4002,0.57187 -13.688,0.42162 z m -75.3247,-99.87053 0.083,-90.00881 h -64.2096 -64.2097 v 90.09261 90.09261 l 64.1261,-0.0838 64.1261,-0.0838 z m -118.3693,83.25885 c -3.1938,-1.71285 -3.1938,-7.68347 0,-9.39633 1.4328,-0.76845 4.0504,-0.79734 5.3012,-0.0585 1.1794,0.6967 1.8831,2.08507 1.2578,2.48168 -0.634,0.40218 -0.7392,0.35852 -1.0997,-0.4567 -0.8288,-1.87439 -3.9832,-2.02774 -5.5538,-0.27002 -0.7751,0.86741 -0.9126,1.31355 -0.9126,2.96221 0,2.35227 0.7442,3.4883 2.6615,4.06274 1.089,0.32627 1.5444,0.29521 2.8212,-0.19242 1.4077,-0.53758 1.515,-0.66032 1.4212,-1.62544 -0.096,-0.99329 -0.1779,-1.04887 -1.6776,-1.1451 -1.1066,-0.071 -1.5762,-0.24401 -1.5762,-0.5807 0,-0.37253 0.5185,-0.47956 2.3229,-0.47956 h 2.3228 v 1.96137 1.96138 l -1.4321,0.69326 c -1.8036,0.8731 -4.3161,0.90835 -5.8566,0.0822 z m 9.2796,-4.72124 v -5.33236 l 0.7467,0.10604 c 0.5328,0.0757 1.5066,1.23306 3.4012,4.04236 l 2.6547,3.93631 0.093,-4.01927 c 0.087,-3.74558 0.1377,-4.01928 0.7466,-4.01928 0.6229,0 0.6535,0.24888 0.6535,5.30928 0,5.0704 -0.03,5.30927 -0.6571,5.30927 -0.4698,0 -1.4393,-1.15856 -3.4013,-4.06491 l -2.7441,-4.06492 -0.093,4.06492 c -0.087,3.79097 -0.1372,4.06491 -0.7466,4.06491 -0.6229,0 -0.6535,-0.249 -0.6535,-5.33235 z m 10.6186,0.0231 v -5.30927 l 2.5717,6.6e-4 c 4.3555,10e-4 6.0548,1.49083 6.0548,5.30876 0,3.81793 -1.6993,5.30789 -6.0548,5.30876 l -2.5717,3.5e-4 v -5.30927 z m 6.4412,2.96101 c 0.7098,-0.84361 0.859,-1.35799 0.859,-2.96102 0,-1.60304 -0.1492,-2.11742 -0.859,-2.96101 -0.7948,-0.94455 -1.0183,-1.02095 -2.9865,-1.02095 h -2.1274 v 3.98196 3.98195 h 2.1274 c 1.9682,0 2.1917,-0.0764 2.9865,-1.02095 z m -28.342,-55.39012 v -5.30927 h 2.4994 c 3.0575,0 4.5402,0.5604 5.1077,1.93064 0.3299,0.7964 0.3363,1.27401 0.03,2.20348 -0.51,1.5453 -1.7494,2.17064 -4.3019,2.17064 h -2.0074 v 2.15689 c 0,1.93568 -0.068,2.1569 -0.6637,2.1569 -0.636,0 -0.6637,-0.22122 -0.6637,-5.30928 z m 5.9738,-0.83059 c 0.2277,-0.27433 0.414,-0.87116 0.414,-1.3263 0,-1.43563 -0.6283,-1.82507 -2.9442,-1.82507 h -2.1162 v 1.82507 1.82506 h 2.1162 c 1.4782,0 2.2411,-0.15037 2.5302,-0.49876 z m 5.0131,5.69551 c -0.8097,-0.46791 -1.6627,-1.71369 -1.6839,-2.45915 -0.02,-0.70923 1.1406,-0.4546 1.4858,0.32594 0.4617,1.04425 1.772,1.63353 3.2441,1.45899 1.5334,-0.18181 2.2268,-0.71177 2.2268,-1.70198 0,-1.01753 -0.44,-1.30863 -3.224,-2.13294 -3.1542,-0.93391 -3.9823,-2.06077 -3.0377,-4.13378 0.5146,-1.12947 1.9466,-1.64772 4.0062,-1.44982 1.333,0.12808 1.8906,0.36504 2.4848,1.05584 0.4214,0.48988 0.7662,1.10635 0.7662,1.36993 0,0.69996 -1.2485,0.58665 -1.4773,-0.13406 -0.2211,-0.69657 -1.5126,-1.37767 -2.6124,-1.37767 -1.6342,0 -2.8535,1.73912 -1.8003,2.56799 0.2281,0.17955 1.4904,0.648 2.8051,1.041 2.5697,0.76814 3.4167,1.53239 3.4167,3.08293 0,0.49673 -0.3532,1.31376 -0.7849,1.81561 -0.6777,0.78796 -1.0739,0.92727 -2.9035,1.02096 -1.3786,0.0706 -2.3956,-0.0516 -2.9117,-0.34979 z m 7.7125,-0.30226 c 1.6298,-6.26383 2.7689,-9.87193 3.1166,-9.87193 0.5762,0 0.593,-0.0958 -0.9721,5.55814 -0.9629,3.47853 -1.5474,5.06041 -1.8698,5.06041 -0.3227,0 -0.4084,-0.23287 -0.2747,-0.74662 z m 6.2244,0.30226 c -0.8097,-0.46791 -1.6628,-1.71369 -1.6839,-2.45915 -0.02,-0.70923 1.1406,-0.4546 1.4857,0.32594 0.4618,1.04425 1.7721,1.63353 3.2441,1.45899 1.5334,-0.18181 2.2268,-0.71177 2.2268,-1.70198 0,-1.01753 -0.44,-1.30863 -3.224,-2.13294 -3.1541,-0.93391 -3.9822,-2.06077 -3.0377,-4.13378 0.5146,-1.12947 1.9467,-1.64772 4.0062,-1.44982 1.333,0.12808 1.8907,0.36504 2.4849,1.05584 0.4214,0.48988 0.7661,1.10635 0.7661,1.36993 0,0.69996 -1.2485,0.58665 -1.4772,-0.13406 -0.2211,-0.69657 -1.5126,-1.37767 -2.6124,-1.37767 -1.6343,0 -2.8535,1.73912 -1.8004,2.56799 0.2282,0.17955 1.4905,0.648 2.8052,1.041 2.5697,0.76814 3.4167,1.53239 3.4167,3.08293 0,0.49673 -0.3532,1.31376 -0.7849,1.81561 -0.6778,0.78796 -1.074,0.92727 -2.9035,1.02096 -1.3786,0.0706 -2.3957,-0.0516 -2.9117,-0.34979 z m 11.5775,-1.72527 c 0,-2.10154 -0.062,-2.26253 -1.991,-5.13063 -1.095,-1.62855 -1.991,-3.0414 -1.991,-3.13965 0,-0.0983 0.336,-0.17672 0.7467,-0.17436 0.5616,0.003 1.1456,0.61758 2.3568,2.47922 l 1.6102,2.47493 1.6184,-2.47922 c 1.1308,-1.73216 1.8205,-2.47921 2.2888,-2.47921 0.3687,0 0.6704,0.0752 0.6704,0.16715 0,0.0919 -0.896,1.4596 -1.991,3.03926 -1.9595,2.8267 -1.991,2.90801 -1.991,5.14213 0,2.04879 -0.065,2.27001 -0.6636,2.27001 -0.596,0 -0.6637,-0.22122 -0.6637,-2.16963 z m 6.9684,-3.13965 c 0,-5.07041 0.03,-5.30927 0.6571,-5.30927 0.4698,0 1.4393,1.15856 3.4013,4.06491 l 2.7441,4.06491 0.093,-4.06491 c 0.087,-3.79098 0.1372,-4.06491 0.7466,-4.06491 0.6228,0 0.6535,0.24888 0.6535,5.30927 0,5.28658 0,5.30925 -0.7467,5.30293 -0.585,-0.005 -1.321,-0.87905 -3.4012,-4.03968 l -2.6546,-4.03331 -0.093,4.03967 c -0.087,3.76586 -0.1375,4.03967 -0.7466,4.03967 -0.6228,0 -0.6535,-0.24889 -0.6535,-5.30928 z m 12.6415,4.8896 c -1.4902,-0.76589 -2.1595,-2.08184 -2.2812,-4.48542 -0.1891,-3.73597 1.5466,-5.71345 5.0149,-5.71345 1.3937,0 1.7688,0.15431 2.7427,1.12822 1.2854,1.28534 1.3947,1.71116 0.4995,1.94525 -0.4352,0.11383 -0.7403,-0.0805 -0.9914,-0.63162 -0.7439,-1.63274 -3.1783,-1.89346 -4.7304,-0.50662 -0.8843,0.79013 -1.076,1.23189 -1.204,2.77477 -0.2432,2.93326 1.0756,4.91306 3.2729,4.91306 1.1274,0 2.6022,-0.96499 2.8237,-1.8477 0.1347,-0.53661 0.4048,-0.8028 0.7477,-0.73677 0.9652,0.18588 0.795,1.23878 -0.3922,2.42598 -1.0318,1.03183 -1.3419,1.15346 -2.9293,1.14909 -0.9764,-0.003 -2.1342,-0.18935 -2.5729,-0.41479 z m 42.185,-10.11592 0.091,-5.22631 3.5672,-0.0942 c 3.3966,-0.0897 3.5672,-0.0619 3.5672,0.5807 0,0.62894 -0.2046,0.67489 -3.0047,0.67489 h -3.0046 l 0.1011,1.57619 0.1012,1.57619 2.4057,0.0975 c 1.8049,0.0731 2.4058,0.21455 2.4058,0.56616 0,0.35161 -0.6009,0.49302 -2.4058,0.56617 l -2.4057,0.0975 -0.098,2.40577 c -0.087,2.14429 -0.169,2.40576 -0.7551,2.40576 -0.6315,0 -0.6539,-0.20667 -0.5661,-5.22632 z m 8.8848,-0.0839 v -5.37432 l 2.9521,0.11597 c 2.2771,0.0895 3.1049,0.25435 3.6203,0.7211 1.0643,0.96388 1.2102,2.18067 0.3939,3.28486 l -0.707,0.95618 0.8523,0.67042 c 1.1307,0.88938 1.1532,2.55809 0.052,3.8391 -0.7571,0.88056 -0.973,0.93727 -3.982,1.04603 l -3.1815,0.11498 z m 6.1152,3.4615 c 0.7786,-0.77863 0.6463,-2.03607 -0.278,-2.64168 -0.5412,-0.35464 -1.3717,-0.49105 -2.5716,-0.42243 l -1.7723,0.10134 -0.1004,1.74211 -0.1002,1.7421 h 2.1505 c 1.5126,0 2.3052,-0.15468 2.672,-0.52144 z m -0.2584,-4.96564 c 1.1016,-1.50658 0.098,-2.47683 -2.5622,-2.47683 h -1.9673 v 1.43793 c 0,0.79086 0.112,1.55188 0.2489,1.69116 0.4893,0.49783 3.8096,-0.008 4.2806,-0.65226 z m -113.0378,-47.60567 v -5.30928 h 3.6502 c 3.4289,0 3.6501,0.0402 3.6501,0.66366 0,0.6145 -0.2212,0.66366 -2.9865,0.66366 h -2.9864 v 1.65915 1.65915 h 2.8205 c 2.2859,0 2.8206,0.0943 2.8206,0.49774 0,0.40341 -0.5347,0.49775 -2.8206,0.49775 h -2.8205 v 1.82506 1.82506 h 3.1523 c 2.9312,0 3.1524,0.0466 3.1524,0.66366 0,0.62519 -0.2212,0.66366 -3.816,0.66366 h -3.8161 z m 9.6231,-0.0231 v -5.33236 l 0.7466,0.10604 c 0.5329,0.0757 1.5067,1.23306 3.4013,4.04235 l 2.6546,3.93632 0.093,-4.01927 c 0.087,-3.74559 0.1376,-4.0193 0.7466,-4.0193 0.6228,0 0.6534,0.24888 0.6534,5.30928 0,5.07041 -0.03,5.30927 -0.6571,5.30927 -0.4698,0 -1.4392,-1.15856 -3.4012,-4.06491 l -2.7442,-4.06491 -0.093,4.06491 c -0.087,3.79097 -0.1373,4.06491 -0.7467,4.06491 -0.6229,0 -0.6534,-0.249 -0.6534,-5.33235 z m -8.7191,-23.62436 c -1.0541,-2.78072 -1.9127,-5.16785 -1.908,-5.30472 0,-0.13688 0.2881,-0.24888 0.6298,-0.24888 0.5003,0 0.9415,0.91318 2.2651,4.68789 l 1.6438,4.6879 1.7587,-4.6879 c 1.448,-3.8597 1.8749,-4.68789 2.4161,-4.68789 0.4869,0 0.6014,0.15048 0.4415,0.5807 -0.1186,0.31939 -1.0496,2.70856 -2.0688,5.30928 -2.5142,6.41541 -2.6214,6.40845 -5.1782,-0.33638 z m 9.0509,-0.24432 c 0,-5.08806 0.028,-5.30928 0.6637,-5.30928 0.636,0 0.6636,0.22122 0.6636,5.30928 0,5.08805 -0.028,5.30927 -0.6636,5.30927 -0.636,0 -0.6637,-0.22122 -0.6637,-5.30927 z m 3.7247,0.083 c 0.088,-5.00678 0.1204,-5.23047 0.7818,-5.32499 0.5552,-0.0794 1.2048,0.68272 3.3183,3.89265 1.4453,2.19522 2.7399,3.99417 2.8767,3.99766 0.1369,0.003 0.2489,-1.78552 0.2489,-3.9756 0,-3.3183 0.083,-3.98196 0.4977,-3.98196 0.4217,0 0.4978,0.81114 0.4978,5.30928 0,6.84869 -0.1809,6.91131 -3.8532,1.33367 -1.4396,-2.18658 -2.7295,-3.97846 -2.8664,-3.98196 -0.1368,-0.003 -0.2488,1.78553 -0.2488,3.97561 0,3.77737 -0.035,3.98195 -0.6721,3.98195 -0.6503,0 -0.6691,-0.1693 -0.5807,-5.22631 z m 64.6707,4.50271 c -0.1619,-0.4233 -1.0581,-2.74347 -1.9915,-5.15594 -0.9334,-2.41248 -1.6971,-4.46568 -1.6971,-4.56266 0,-0.097 0.2879,-0.17635 0.6398,-0.17635 0.6684,0 0.8216,0.33077 2.8824,6.22095 0.5266,1.5052 1.0374,2.73712 1.135,2.73759 0.098,3.3e-4 0.9189,-2.0141 1.825,-4.47684 1.2554,-3.41161 1.7859,-4.47818 2.2283,-4.4797 0.3194,-10e-4 0.5807,0.11126 0.5807,0.24968 0,0.13842 -0.8757,2.49026 -1.9461,5.22631 -1.5905,4.06566 -2.0755,4.99401 -2.6541,5.08062 -0.491,0.0735 -0.7982,-0.1299 -1.0024,-0.66366 z m 9.0869,0.0641 c -1.4367,-0.9455 -2.1569,-2.4981 -2.1569,-4.64976 0,-2.26342 0.8042,-3.87755 2.3432,-4.70293 1.5095,-0.80953 3.8379,-0.78039 5.2252,0.0654 1.2693,0.77389 2.3719,2.92962 2.3719,4.63752 0,1.70789 -1.1026,3.86363 -2.3719,4.63752 -1.465,0.89316 -4.064,0.89904 -5.4115,0.0122 z m 4.4249,-0.80541 c 1.2271,-0.63458 1.8798,-1.96933 1.8798,-3.84435 0,-1.93611 -0.5938,-3.08682 -1.9774,-3.83194 -1.4685,-0.79086 -3.1975,-0.43673 -4.3073,0.88221 -0.7058,0.83876 -0.8496,1.348 -0.8496,3.00837 0,1.83059 0.095,2.0936 1.1282,3.12692 1.2553,1.2553 2.5676,1.46482 4.1263,0.65879 z m 6.334,0.49496 -0.97,-0.96996 v -4.33932 c 0,-4.11809 0.034,-4.33931 0.6637,-4.33931 0.628,0 0.6637,0.22122 0.6637,4.12379 0,4.05976 0.014,4.13447 0.8743,4.81153 0.9862,0.77577 2.0132,0.8698 3.2659,0.29903 1.0581,-0.48211 1.1515,-0.88563 1.2531,-5.41437 0.071,-3.17053 0.1576,-3.66071 0.6625,-3.75742 0.5293,-0.10136 0.5807,0.27542 0.5807,4.25242 v 4.36365 l -0.9699,0.96996 c -0.8619,0.86191 -1.1975,0.96996 -3.012,0.96996 -1.8146,0 -2.1501,-0.10805 -3.012,-0.96996 z m 12.3032,-3.67565 v -4.64562 h -1.825 c -1.6039,0 -1.8251,-0.0804 -1.8251,-0.66366 0,-0.62826 0.2212,-0.66366 4.1479,-0.66366 3.9266,0 4.1478,0.0354 4.1478,0.66366 0,0.57517 -0.2212,0.66366 -1.6591,0.66366 h -1.6592 v 4.64562 c 0,4.42439 -0.032,4.64561 -0.6636,4.64561 -0.6321,0 -0.6637,-0.22122 -0.6637,-4.64561 z M 1292.7286,475.1325 c 0,-5.08805 0.028,-5.30927 0.6637,-5.30927 0.632,0 0.6636,0.22122 0.6636,4.64561 v 4.64562 h 2.6547 c 2.4334,0 2.6546,0.0553 2.6546,0.66366 0,0.61941 -0.2212,0.66366 -3.3183,0.66366 h -3.3183 z m 11.2822,1.32732 c 0,-2.19008 -0.112,-3.97721 -0.2489,-3.9714 -0.1368,0.006 -0.5387,0.22979 -0.893,0.49774 -0.7886,0.59648 -1.1809,0.62054 -1.1807,0.0724 10e-5,-0.38658 3.0491,-3.23534 3.4626,-3.23534 0.1031,0 0.1873,2.38917 0.1873,5.30927 0,5.08806 -0.028,5.30928 -0.6636,5.30928 -0.6268,0 -0.6637,-0.22122 -0.6637,-3.98196 z m 89.594,-1.32732 c 0,-5.08805 0.028,-5.30927 0.6637,-5.30927 0.6321,0 0.6637,0.22122 0.6637,4.64561 v 4.64562 h 2.6546 c 2.4334,0 2.6546,0.0553 2.6546,0.66366 0,0.61941 -0.2212,0.66366 -3.3183,0.66366 h -3.3183 z m 7.982,4.39674 c 0.1834,-0.50189 1.4489,-1.96525 2.8123,-3.25191 2.0291,-1.91489 2.4789,-2.52273 2.4789,-3.34982 0,-1.15405 -0.8756,-2.1088 -1.9341,-2.1088 -0.7368,0 -2.0478,1.06218 -2.0478,1.65915 0,0.18251 -0.2987,0.33183 -0.6637,0.33183 -0.778,0 -0.7856,-0.033 -0.2672,-1.17067 0.8542,-1.87486 3.5424,-2.36763 5.2192,-0.95672 0.8315,0.69964 1.0209,1.1092 1.0209,2.20691 0,1.24767 -0.1896,1.52909 -2.552,3.78654 l -2.552,2.43871 h 2.552 c 2.3308,0 2.552,0.0575 2.552,0.66366 0,0.62142 -0.2212,0.66366 -3.4759,0.66366 h -3.4761 z m -119.1449,126.51008 v -25.7168 h -12.4436 -12.4436 v 22.86028 22.86027 l 0.8641,0.21689 c 2.0398,0.51197 3.4496,2.33792 3.4496,4.46787 v 1.0283 h 10.2868 10.2867 z m 206.0662,-27.24177 c 0,-0.95096 1.2908,-2.37031 2.6504,-2.9143 l 1.3316,-0.5328 v -9.54279 -9.54279 l -2.4859,-1.32451 c -1.3672,-0.72848 -2.4859,-1.44981 -2.4859,-1.60296 0,-0.15315 2.0895,-1.27434 4.6433,-2.49154 2.5538,-1.21719 4.6444,-2.28922 4.6456,-2.38229 0,-0.0931 -2.0882,-1.28617 -4.6433,-2.65134 -2.5551,-1.36517 -4.6456,-2.58432 -4.6456,-2.70922 0,-0.1249 2.0905,-1.31605 4.6456,-2.647 2.5551,-1.33095 4.6456,-2.49982 4.6456,-2.5975 0,-0.0977 -2.0888,-1.22251 -4.6419,-2.49965 -2.553,-1.27714 -4.641,-2.4714 -4.64,-2.6539 0,-0.18251 2.093,-1.42375 4.6487,-2.75831 2.5558,-1.33456 4.5807,-2.53349 4.4998,-2.66429 -0.081,-0.13079 -1.0756,-0.68144 -2.2107,-1.22365 l -2.0637,-0.98584 0.236,-9.36011 0.236,-9.3601 -1.1288,-0.47162 c -1.3218,-0.5523 -2.5373,-1.97755 -2.798,-3.28082 l -0.1832,-0.92134 h -36.4598 -36.4598 v 38.82407 38.82408 h 36.3354 c 33.0447,0 36.3353,-0.048 36.3353,-0.52948 z m -54.0567,-28.25675 c 0.1908,-0.50189 1.4563,-2.05264 2.8123,-3.4461 1.4902,-1.53137 2.4655,-2.81118 2.4655,-3.23534 0,-0.85459 -1.1097,-2.02909 -1.9172,-2.02909 -0.8026,0 -2.0648,0.92426 -2.0648,1.51205 0,0.26342 -0.2986,0.47893 -0.6637,0.47893 -0.8255,0 -0.8276,-0.22466 -0.015,-1.55818 1.3844,-2.27036 5.2594,-1.66532 5.8249,0.90947 0.2802,1.27541 -0.1965,2.08678 -2.7692,4.71363 l -2.1937,2.23985 h 2.5628 c 2.3415,0 2.5628,0.0573 2.5628,0.66366 0,0.62142 -0.2213,0.66366 -3.476,0.66366 h -3.476 z m 9.1011,0.16592 c -1.2887,-1.11977 -1.452,-2.84771 -0.3885,-4.1116 0.7764,-0.92278 0.8022,-1.04923 0.3137,-1.53779 -0.8245,-0.82447 -0.6213,-2.59913 0.398,-3.47593 1.0043,-0.86396 2.1316,-0.949 3.4618,-0.26115 1.4805,0.76562 1.8527,2.66302 0.7405,3.77523 -0.5929,0.59288 -0.5881,0.63062 0.1659,1.30221 1.1004,0.98018 1.0812,3.12191 -0.038,4.24115 -1.1059,1.10589 -3.4199,1.13964 -4.6534,0.0679 z m 4.022,-1.10416 c 0.7134,-1.08883 0.3129,-2.40129 -0.9491,-3.10959 -0.8233,-0.46216 -0.9651,-0.44747 -1.8206,0.18847 -1.8337,1.36314 -1.1263,3.77641 1.107,3.77641 0.8185,0 1.2466,-0.22024 1.6627,-0.85529 z m -0.6115,-4.85218 c 0.737,-0.73699 0.4799,-2.23347 -0.4571,-2.6604 -1.4892,-0.67854 -2.8818,0.714 -2.2032,2.20325 0.4269,0.93698 1.9234,1.19413 2.6603,0.45715 z m 5.0439,5.90834 c 0,-1.35312 1.2537,-4.93404 2.3109,-6.60012 0.554,-0.87324 1.0074,-1.65719 1.0074,-1.74211 0,-0.0849 -1.12,-0.15439 -2.4888,-0.15439 -1.9909,0 -2.4887,-0.0996 -2.4887,-0.49774 0,-0.40926 0.5899,-0.49775 3.3183,-0.49775 3.8487,0 3.9014,0.0623 2.1955,2.59736 -1.2315,1.82985 -2.5273,5.29521 -2.5273,6.75831 0,0.70983 -0.1577,0.93106 -0.6637,0.93106 -0.4789,0 -0.6636,-0.22123 -0.6636,-0.79462 z m 6.6366,-4.51466 c 0,-5.08805 0.028,-5.30928 0.6636,-5.30928 0.6157,0 0.6637,0.22123 0.6637,3.05696 v 3.05695 l 1.5875,-1.56372 c 0.8732,-0.86005 1.879,-1.56372 2.235,-1.56372 0.5252,0 0.3888,0.25865 -0.7232,1.37066 l -1.3707,1.37067 1.4585,2.25461 c 0.8022,1.24004 1.4585,2.34046 1.4585,2.44538 0,0.10492 -0.2895,0.19077 -0.6433,0.19077 -0.4249,0 -1.0162,-0.6184 -1.7421,-1.82188 -1.3989,-2.31946 -2.0575,-2.29459 -2.1946,0.0829 -0.085,1.46789 -0.2011,1.739 -0.7466,1.739 -0.6136,0 -0.6463,-0.26871 -0.6463,-5.30928 z m 6.9684,4.64562 c 0,-0.51688 0.2212,-0.66366 1.0002,-0.66366 h 1.0002 l -0.853,-1.28895 c -0.9231,-1.39496 -1.161,-3.7641 -0.5399,-5.37707 0.582,-1.51122 2.2429,-2.62522 3.9141,-2.62522 2.0667,0 3.3711,0.76778 4.1247,2.42778 1.0276,2.2633 0.7483,4.50418 -0.7623,6.11684 l -0.6994,0.74662 h 1.0533 c 0.8321,0 1.0533,0.13938 1.0533,0.66366 0,0.58992 -0.2212,0.66366 -1.991,0.66366 -2.2634,0 -2.5212,-0.38438 -1.1298,-1.68427 1.7812,-1.66408 2.2267,-3.60506 1.3235,-5.76675 -1.026,-2.45558 -3.8913,-2.86654 -5.1857,-0.74376 -1.2307,2.01835 -0.5187,6.09714 1.1779,6.74819 0.2727,0.10465 0.4958,0.47294 0.4958,0.81843 0,0.54653 -0.2587,0.62816 -1.9909,0.62816 -1.7698,0 -1.991,-0.0737 -1.991,-0.66366 z m -3.3183,-15.45245 c 0,-2.02824 -0.046,-2.16466 -0.6637,-1.96861 -0.9483,0.30098 -0.7878,-0.20472 0.3502,-1.10369 l 0.9771,-0.77186 v 3.01171 c 0,1.78659 -0.1349,3.01171 -0.3318,3.01171 -0.1875,0 -0.3318,-0.94764 -0.3318,-2.17926 z m -12.9414,-6.61423 v -5.80702 h 3.506 c 4.5393,0 5.7525,0.6146 5.7747,2.92532 0.015,1.5432 -0.515,2.36011 -1.9081,2.94216 -1.0164,0.42472 -1.1148,0.55052 -0.6388,0.81692 0.3095,0.17319 1.1348,1.16656 1.8341,2.20748 1.9057,2.83668 1.871,2.72251 0.8259,2.71926 -0.7746,-0.002 -1.1496,-0.34051 -2.2192,-2.00046 -1.6465,-2.55558 -2.6072,-3.30592 -4.2329,-3.30592 h -1.2825 v 2.65464 c 0,2.6104 -0.014,2.65464 -0.8296,2.65464 h -0.8296 z m 7.3003,-1.49323 c 0.7987,-0.79869 0.8298,-1.27429 0.1471,-2.24898 -0.4601,-0.65685 -0.8048,-0.73749 -3.1524,-0.73749 h -2.6358 v 1.82506 1.82507 h 2.4887 c 2.0463,0 2.6067,-0.11799 3.1524,-0.66366 z m -174.2106,-12.77545 v -12.77544 h -10.2453 -10.2452 l -0.1898,0.94916 c -0.2684,1.34196 -1.7522,2.97964 -2.9901,3.3003 l -1.0509,0.27221 -0.088,10.51461 -0.088,10.51461 h 12.4483 12.4483 z m 400.0879,-10.93062 c 1.0527,-1.22395 1.0301,-3.1182 -0.051,-4.28509 -1.1411,-1.23131 -2.5259,-1.17689 -3.6364,0.14292 -1.1927,1.41745 -1.1598,3.04325 0.087,4.29005 1.1744,1.17438 2.5106,1.1195 3.6008,-0.14788 z m -588.6715,0.0883 c 1.0161,-0.95457 1.0561,-3.13654 0.08,-4.37711 -1.2889,-1.63858 -3.7599,-0.87597 -4.4415,1.37073 -0.2881,0.94998 0.3579,2.95666 1.0892,3.3834 0.9537,0.55643 2.4636,0.38245 3.2721,-0.37702 z m 188.5078,-35.58854 c 0.057,-4.1925 0.2238,-6.7723 0.4554,-7.05138 0.5433,-0.65459 132.093,-0.65459 132.6362,0 0.2317,0.27908 0.3983,2.85888 0.4555,7.05138 l 0.09,6.61128 h 12.1118 12.1118 l 0.085,-25.79976 0.085,-25.79976 h -35.6466 c -19.6056,0 -35.8828,-0.0906 -36.1715,-0.20142 -0.3135,-0.12031 -0.5249,-0.5933 -0.5249,-1.17463 0,-0.53526 -0.3046,-1.5704 -0.677,-2.30032 -2.1792,-4.27167 -8.054,-3.12594 -8.8834,1.73249 -0.327,1.9154 -0.9296,1.98618 -1.1384,0.13372 -0.1926,-1.70842 -1.5229,-3.69994 -2.7945,-4.18339 -3.0407,-1.1561 -6.1149,0.70596 -6.6857,4.04967 -0.2779,1.62794 -1.0543,2.15784 -1.0653,0.72717 -0.012,-1.51719 -1.1796,-3.68492 -2.3792,-4.4163 -1.4034,-0.85563 -3.4399,-0.85979 -4.8339,-0.01 -1.2297,0.74975 -2.3996,2.47526 -2.4015,3.54182 0,0.9425 -0.3289,1.76925 -0.7004,1.76925 -0.163,0 -0.2996,-0.41064 -0.3036,-0.91254 -0.012,-1.49253 -1.1884,-3.66263 -2.3792,-4.38864 -2.0836,-1.27036 -5.0781,-0.58955 -6.4209,1.45984 -0.3013,0.45978 -0.7298,1.5495 -0.9523,2.42161 l -0.4045,1.58564 -34.0738,0.0845 -34.0738,0.0845 v 25.65994 c 0,14.11297 0.1014,25.76133 0.2253,25.88524 0.1239,0.12391 5.6115,0.18613 12.1947,0.13826 l 11.9695,-0.087 z m 68.4327,-30.71957 c 0,-4.95387 0.041,-5.30927 0.6169,-5.30927 0.5392,0 0.6391,0.35585 0.7932,2.82564 0.097,1.55411 0.3602,3.04735 0.5851,3.3183 0.5724,0.68972 2.4312,0.62118 3.0967,-0.11418 0.4167,-0.46045 0.5492,-1.26091 0.5492,-3.3183 0,-2.49024 0.054,-2.71146 0.6637,-2.71146 0.6252,0 0.6636,0.22122 0.6636,3.81604 0,3.17082 -0.084,3.81604 -0.4977,3.81604 -0.2738,0 -0.4978,-0.15316 -0.4978,-0.34035 0,-0.19509 -0.4178,-0.12428 -0.979,0.16591 -1.2091,0.62524 -1.5985,0.62894 -2.754,0.0261 l -0.9126,-0.47602 v 1.80539 c 0,1.58416 -0.081,1.80538 -0.6636,1.80538 -0.636,0 -0.6637,-0.22122 -0.6637,-5.30927 z m -7.8384,2.17783 c -0.959,-0.41738 -2.1165,-1.6488 -2.1165,-2.25166 0,-0.1419 0.3633,-0.258 0.8072,-0.258 0.5233,0 0.8834,0.24014 1.0239,0.68267 0.2604,0.82054 1.6373,1.40708 2.6095,1.1116 1.2638,-0.38415 1.8642,-1.1757 1.8642,-2.45793 0,-2.01624 -1.8495,-3.10491 -3.7035,-2.18 -1.5599,0.77817 -2.3815,0.69259 -2.1673,-0.22576 0.096,-0.41064 0.3466,-1.60523 0.5573,-2.65464 l 0.3831,-1.90802 h 2.9629 c 2.4125,0 2.963,0.0925 2.963,0.49774 0,0.39464 -0.4772,0.49775 -2.3033,0.49775 -1.2667,0 -2.3731,0.11313 -2.4586,0.2514 -0.085,0.13827 -0.2584,0.8008 -0.3844,1.4723 l -0.229,1.22091 1.1591,-0.35574 c 1.5053,-0.46201 2.7443,-0.12987 3.9268,1.05272 1.7177,1.7177 0.9838,4.50331 -1.4423,5.47403 -1.5325,0.61319 -2.1019,0.61825 -3.4521,0.0306 z m -12.0714,-3.83698 c 0,-2.19007 -0.081,-3.98195 -0.1791,-3.98195 -0.099,0 -0.7705,0.30168 -1.4933,0.6704 -1.2402,0.63274 -1.314,0.63676 -1.314,0.0716 0,-0.32937 0.465,-0.8736 1.0335,-1.20939 0.5684,-0.33579 1.342,-0.96528 1.719,-1.39886 1.4086,-1.62004 1.5612,-1.178 1.5612,4.52094 0,5.08805 -0.028,5.30927 -0.6636,5.30927 -0.6268,0 -0.6637,-0.22122 -0.6637,-3.98196 z m 5.973,3.15239 c 0,-0.70053 0.1548,-0.82958 0.9954,-0.82958 0.8407,0 0.9955,0.12905 0.9955,0.82958 0,0.70053 -0.1548,0.82957 -0.9955,0.82957 -0.8406,0 -0.9954,-0.12904 -0.9954,-0.82957 z m 23.8917,-4.4797 c 0,-5.04669 0.032,-5.30928 0.6485,-5.30928 0.5697,0 0.6604,0.27215 0.7466,2.23985 l 0.098,2.23985 h 3.1524 3.1524 l 0.098,-2.23985 c 0.086,-1.9677 0.1769,-2.23985 0.7466,-2.23985 0.6164,0 0.6485,0.26259 0.6485,5.30928 0,5.08805 -0.028,5.30927 -0.6636,5.30927 -0.605,0 -0.6637,-0.22122 -0.6637,-2.50074 v -2.50074 l -3.2353,0.095 -3.2354,0.095 -0.098,2.40577 c -0.086,2.13336 -0.171,2.40576 -0.7466,2.40576 -0.6172,0 -0.6491,-0.26085 -0.6491,-5.30927 z m 75.4762,194.30138 c -0.923,-0.92295 -1.0474,-1.6798 -0.3219,-1.9582 0.2999,-0.11508 0.644,0.0983 0.8793,0.5452 0.504,0.95723 0.9287,1.22073 1.9779,1.22692 2.3302,0.0137 2.9507,-3.72011 0.7824,-4.70805 -0.7079,-0.32256 -1.0517,-0.28717 -1.9595,0.20168 -1.8884,1.01699 -2.0812,0.74428 -1.5612,-2.2081 l 0.4529,-2.57168 h 2.6202 c 2.1078,0 2.6201,0.0973 2.6201,0.49774 0,0.39039 -0.4562,0.49775 -2.1154,0.49775 -2.1038,0 -2.1165,0.006 -2.3228,1.03696 -0.3191,1.59567 -0.3001,1.61769 1.2179,1.40963 1.2125,-0.1662 1.5781,-0.0667 2.4493,0.66637 1.1694,0.98398 1.4927,2.12439 1.0533,3.71569 -0.6651,2.40877 -4.0465,3.37416 -5.7725,1.64809 z m 10.7995,-3.16747 c 0,-2.19007 -0.112,-3.97721 -0.2489,-3.9714 -0.1368,0.006 -0.5387,0.22979 -0.8929,0.49774 -0.3543,0.26796 -0.8396,0.48719 -1.0785,0.48719 -0.7967,0 -0.447,-0.97187 0.5319,-1.47808 0.5314,-0.2748 1.2621,-0.87593 1.6239,-1.33584 1.2487,-1.58749 1.3918,-1.1276 1.3918,4.47307 0,5.08806 -0.028,5.30928 -0.6636,5.30928 -0.6268,0 -0.6637,-0.22122 -0.6637,-3.98196 z m 5.6411,3.3183 c 0,-0.44244 0.2212,-0.66366 0.6637,-0.66366 0.4424,0 0.6636,0.22122 0.6636,0.66366 0,0.44244 -0.2212,0.66366 -0.6636,0.66366 -0.4425,0 -0.6637,-0.22122 -0.6637,-0.66366 z m 6.6366,-3.3183 c 0,-2.19007 -0.112,-3.97721 -0.2489,-3.9714 -0.1368,0.006 -0.5387,0.22979 -0.8929,0.49774 -0.7887,0.59648 -1.1811,0.62054 -1.1808,0.0724 10e-5,-0.38657 3.0491,-3.23534 3.4626,-3.23534 0.103,0 0.1873,2.38917 0.1873,5.30927 0,5.08806 -0.027,5.30928 -0.6636,5.30928 -0.6268,0 -0.6637,-0.22122 -0.6637,-3.98196 z m 4.9775,-1.32732 c 0,-5.08805 0.028,-5.30927 0.6636,-5.30927 0.6157,0 0.6637,0.22122 0.6637,3.05695 v 3.05695 l 1.5875,-1.56372 c 1.0123,-0.99699 1.8792,-1.56371 2.392,-1.56371 0.756,0 0.7183,0.0876 -0.6277,1.45907 l -1.432,1.45907 1.3051,1.94218 c 1.9208,2.85843 1.8891,2.77176 1.0126,2.77176 -0.589,0 -1.0488,-0.44521 -1.8851,-1.82506 -0.6084,-1.00379 -1.1503,-1.82507 -1.2044,-1.82507 -0.8269,0 -1.148,0.5668 -1.148,2.02648 0,1.40243 -0.09,1.62365 -0.6637,1.62365 -0.636,0 -0.6636,-0.22122 -0.6636,-5.30928 z m 7.3002,4.64562 c 0,-0.51469 0.2212,-0.66366 0.9855,-0.66366 h 0.9855 l -0.8108,-1.19478 c -1.0376,-1.52896 -1.3086,-3.00908 -0.85,-4.64236 0.6757,-2.40666 2.0554,-3.45409 4.5497,-3.45409 1.9676,0 3.3776,0.91175 4.0974,2.64959 0.6013,1.45154 0.2809,4.32259 -0.6241,5.5936 l -0.7463,1.04804 h 1.0181 c 0.7968,0 1.0181,0.14421 1.0181,0.66366 0,0.58992 -0.2213,0.66366 -1.991,0.66366 -1.7579,0 -1.991,-0.0763 -1.991,-0.65199 0,-0.35859 0.2971,-0.81099 0.6602,-1.00532 1.0103,-0.54069 1.6626,-2.11023 1.6626,-4.0005 0,-1.51294 -0.1341,-1.84295 -1.1702,-2.87902 -1.0387,-1.03868 -1.3091,-1.14803 -2.4057,-0.97283 -3.1094,0.4967 -4.0032,5.2814 -1.4191,7.59696 1.6049,1.43822 1.3624,1.9127 -0.9779,1.9127 -1.7698,0 -1.991,-0.0737 -1.991,-0.66366 z m 135.7184,-8.4762 c 0,-0.42325 0.4134,-0.49533 2.3792,-0.41478 1.5348,0.0629 2.4279,0.2447 2.5163,0.51228 0.1017,0.30742 -0.5141,0.41479 -2.3792,0.41479 -2.0473,0 -2.5163,-0.0955 -2.5163,-0.51229 z m -445.4668,-4.10963 c -0.1142,-0.18484 0.1424,-0.42393 0.5703,-0.53132 1.1604,-0.29125 4.3925,-0.0398 4.3925,0.34171 0,0.44374 -4.6948,0.62311 -4.9628,0.18961 z m 442.1485,-0.68736 c 0,-0.20821 2.1015,-0.33183 5.6411,-0.33183 3.5395,0 5.6411,0.12362 5.6411,0.33183 0,0.20821 -2.1016,0.33183 -5.6411,0.33183 -3.5396,0 -5.6411,-0.12362 -5.6411,-0.33183 z m -445.3155,-4.31379 c 0,-0.2082 2.1016,-0.33183 5.6411,-0.33183 3.5395,0 5.6411,0.12363 5.6411,0.33183 0,0.20821 -2.1016,0.33183 -5.6411,0.33183 -3.5395,0 -5.6411,-0.12362 -5.6411,-0.33183 z m 307.2743,-0.6276 c 0,-0.16267 0.7543,-1.05405 1.6762,-1.98085 1.4506,-1.45822 1.6277,-1.77579 1.3157,-2.35886 -0.421,-0.78666 -1.5997,-0.89723 -1.8764,-0.17605 -0.2125,0.55368 -0.7837,0.68018 -0.7837,0.17357 0,-0.6976 1.5403,-1.36374 2.3987,-1.03738 1.6807,0.639 1.4321,2.04501 -0.6932,3.92078 l -1.2077,1.06599 1.5762,0.0124 c 0.8669,0.007 1.5762,0.16179 1.5762,0.34429 0,0.18435 -0.8849,0.33183 -1.991,0.33183 -1.0951,0 -1.991,-0.1331 -1.991,-0.29577 z m 138.9537,0.0367 c -2.1445,-0.0512 -3.899,-0.23316 -3.899,-0.40426 0,-0.17109 1.7545,-0.35315 3.899,-0.40457 l 3.899,-0.0935 v -31.85565 -31.85565 l -6.2218,-0.0903 c -3.7715,-0.0547 -6.2218,-0.21807 -6.2218,-0.41478 0,-0.20591 4.7296,-0.32451 12.9413,-0.32451 8.4064,0 12.9414,0.11628 12.9414,0.33183 0,0.20958 -2.3228,0.33183 -6.3048,0.33183 h -6.3047 v 32.02157 32.02157 h 4.4797 c 2.6035,0 4.4797,0.13183 4.4797,0.31478 0,0.34393 -7.4002,0.57187 -13.688,0.42162 z m -149.5722,-8.86623 v -5.80702 h 3.2967 c 4.0112,0 4.8764,0.28914 5.5274,1.84731 0.7336,1.75574 -0.023,3.48625 -1.824,4.17499 l -0.7979,0.30502 0.832,0.90126 c 0.8891,0.9631 2.9206,3.88204 2.9206,4.19637 0,0.104 -0.3721,0.18909 -0.8269,0.18909 -0.6539,0 -1.1438,-0.47655 -2.3418,-2.27822 -1.6115,-2.42344 -2.4761,-3.03106 -4.3131,-3.03106 h -1.1457 v 2.65464 c 0,2.43342 -0.055,2.65464 -0.6637,2.65464 -0.6384,0 -0.6636,-0.22122 -0.6636,-5.80702 z m 7.0252,-1.37875 c 0.7547,-0.68296 0.7781,-1.69802 0.058,-2.49412 -0.4432,-0.48965 -1.0519,-0.60683 -3.1524,-0.60683 h -2.6032 v 1.82506 1.82506 h 2.5455 c 1.903,0 2.6987,-0.13862 3.1524,-0.54917 z m -306.6675,5.52662 c 0,-0.20352 1.6039,-0.33183 4.1479,-0.33183 h 4.1479 v -30.69425 -30.69425 h -5.973 c -3.7607,0 -5.9729,-0.1229 -5.9729,-0.33183 0,-0.21554 4.535,-0.33183 12.9414,-0.33183 8.4063,0 12.9413,0.11629 12.9413,0.33183 0,0.21016 -2.4334,0.33183 -6.6366,0.33183 h -6.6366 v 30.69425 30.69425 h 4.1283 c 2.3943,0 4.2145,0.13938 4.3334,0.33183 0.1348,0.21804 -2.8171,0.33183 -8.608,0.33183 -5.6542,0 -8.8131,-0.11894 -8.8131,-0.33183 z m 508.0313,-54.72757 c 0,-5.11239 0.028,-5.33361 0.6637,-5.33361 0.6111,0 0.6636,0.22122 0.6636,2.79685 0,2.10015 0.1299,2.92675 0.5215,3.3183 0.6474,0.64743 1.4775,0.66549 2.3186,0.0505 0.5321,-0.38906 0.6645,-0.96635 0.7611,-3.3183 0.089,-2.16097 0.2288,-2.84731 0.5807,-2.84731 0.3702,0 0.4637,0.76977 0.4637,3.81604 0,3.17082 -0.084,3.81604 -0.4977,3.81604 -0.2738,0 -0.4977,-0.17918 -0.4977,-0.39819 0,-0.30971 -0.089,-0.30971 -0.3982,0 -0.5237,0.52365 -2.4754,0.51215 -2.8176,-0.0166 -0.1619,-0.25019 -0.3343,0.30833 -0.4344,1.4074 -0.1266,1.39108 -0.3033,1.84825 -0.7466,1.93235 -0.5335,0.10121 -0.5807,-0.32307 -0.5807,-5.22344 z m -90.5895,-1.01982 c 0,-4.35933 0.084,-5.30928 0.4701,-5.30928 0.2585,0 0.5385,0.18666 0.6222,0.41479 0.1216,0.33183 0.24,0.33183 0.5917,0 0.6093,-0.57475 2.6644,-0.51957 3.5419,0.0951 0.4004,0.28045 0.888,1.10394 1.0834,1.82999 0.7617,2.82861 -0.6426,5.2922 -3.0167,5.2922 -0.6943,0 -1.3547,-0.14932 -1.4675,-0.33183 -0.4942,-0.79964 -0.8296,-0.19598 -0.8296,1.49324 0,1.40106 -0.1157,1.82506 -0.4978,1.82506 -0.4216,0 -0.4977,-0.81114 -0.4977,-5.30927 z m 4.4555,0.80637 c 1.8032,-1.80318 0.3907,-5.98165 -1.7883,-5.29008 -1.5203,0.48254 -2.164,3.92045 -0.9973,5.3263 0.5311,0.63981 2.1304,0.61901 2.7856,-0.0362 z m 52.207,1.85627 c -1.0313,-0.81126 -1.3628,-1.88351 -0.665,-2.15128 0.2797,-0.10733 0.5323,-0.15431 0.5615,-0.10439 0.9883,1.69454 1.2573,1.91583 2.3296,1.91583 1.2547,0 2.1681,-0.92957 2.1681,-2.20664 0,-0.89279 -1.5773,-2.20595 -2.3934,-1.99255 -1.0057,0.26299 -0.6649,-0.68831 0.3767,-1.0514 1.9508,-0.68007 2.0278,-2.77984 0.1195,-3.2588 -0.7236,-0.18162 -1.0372,-0.0362 -1.7418,0.80782 -0.6221,0.74515 -0.9924,0.94703 -1.3415,0.73128 -0.4087,-0.2526 -0.3769,-0.43957 0.2091,-1.22653 1.236,-1.66009 3.3548,-1.8473 4.7798,-0.42231 0.7827,0.78269 0.8762,2.71336 0.1602,3.30757 -0.4312,0.35792 -0.3885,0.53726 0.3319,1.39341 1.1305,1.34353 1.0805,2.71998 -0.1432,3.94368 -1.2089,1.2089 -3.4276,1.35567 -4.7515,0.31431 z m 6.717,0.47925 c 0,-0.097 0.8213,-1.26757 1.825,-2.60122 1.0038,-1.33365 1.8251,-2.5683 1.8251,-2.74367 0,-0.17537 -0.6431,-1.20734 -1.4292,-2.29327 -2.0544,-2.83819 -2.0404,-2.80399 -1.1444,-2.80399 0.5812,0 1.1486,0.51733 2.1954,2.00169 l 1.4117,2.00169 1.4735,-2.00169 c 0.9744,-1.32361 1.7053,-2.00169 2.1575,-2.00169 0.799,0 0.7559,0.0945 -1.2389,2.71239 -0.789,1.03555 -1.4346,2.05996 -1.4346,2.27646 0,0.2165 0.7178,1.3851 1.595,2.59688 2.2482,3.1054 2.2175,3.03282 1.2816,3.03282 -0.6294,0 -1.139,-0.48389 -2.2595,-2.14552 -0.7956,-1.18003 -1.5453,-2.1133 -1.6659,-2.07393 -0.1206,0.0394 -0.9043,1.00485 -1.7414,2.14552 -0.9884,1.34656 -1.7552,2.07393 -2.1866,2.07393 -0.3654,0 -0.6643,-0.0794 -0.6643,-0.1764 z m 13.605,-3.80555 c 0,-2.19008 -0.112,-3.97721 -0.2489,-3.97141 -0.1369,0.006 -0.5387,0.22979 -0.893,0.49775 -0.7886,0.59647 -1.181,0.62054 -1.1808,0.0724 2e-4,-0.38657 3.0491,-3.23534 3.4627,-3.23534 0.103,0 0.1873,2.38918 0.1873,5.30928 0,5.08805 -0.027,5.30927 -0.6636,5.30927 -0.6268,0 -0.6637,-0.22122 -0.6637,-3.98195 z m 6.0507,3.2352 c -1.5117,-1.60913 -1.7375,-6.28114 -0.4092,-8.4654 1.1489,-1.8892 4.1046,-1.75515 5.1326,0.23278 1.217,2.35339 1.0329,6.31379 -0.3711,7.98231 -1.0901,1.29553 -3.2534,1.41995 -4.3523,0.25031 z m 3.1368,-0.50944 c 1.0101,-0.64228 1.5028,-4.93941 0.7833,-6.83186 -0.7692,-2.02315 -2.9649,-1.8344 -3.6746,0.31589 -0.5522,1.67315 -0.2455,5.28229 0.5208,6.12904 0.5988,0.66164 1.6648,0.83564 2.3705,0.38693 z m 13.0451,-4.05308 v -5.30928 h 3.4842 c 3.263,0 3.4842,0.0421 3.4842,0.66366 0,0.61161 -0.2212,0.66366 -2.8205,0.66366 h -2.8206 v 1.65915 1.65915 h 2.4887 c 1.991,0 2.4887,0.0996 2.4887,0.49774 0,0.3982 -0.4977,0.49775 -2.4887,0.49775 h -2.4887 v 2.48872 c 0,2.2675 -0.059,2.48872 -0.6637,2.48872 -0.636,0 -0.6636,-0.22122 -0.6636,-5.30927 z m -112.4903,0.33183 c 0,-4.19781 -0.1254,-4.49345 -1.4737,-3.47366 -0.7886,0.59648 -1.181,0.62054 -1.1808,0.0724 2e-4,-0.38657 3.0491,-3.23534 3.4627,-3.23534 0.103,0 0.1873,2.38918 0.1873,5.30928 0,4.49814 -0.076,5.30927 -0.4977,5.30927 -0.4148,0 -0.4978,-0.66365 -0.4978,-3.98195 z m 6.1907,3.60615 c -0.9829,-0.57138 -1.5451,-2.40493 -1.5451,-5.03966 0,-2.78553 0.7999,-4.44553 2.416,-5.01389 1.2672,-0.44563 2.5531,0.0891 3.4638,1.44045 1.4212,2.10905 0.8681,7.70957 -0.8524,8.63037 -0.8499,0.45486 -2.6857,0.44575 -3.4823,-0.0173 z m 3.2337,-1.3663 c 0.4724,-0.7344 0.6262,-2.04389 0.5627,-4.79303 -0.065,-2.80422 -2.6215,-4.12221 -3.6439,-1.8784 -0.6021,1.32145 -0.526,5.63772 0.1167,6.61858 0.6973,1.0643 2.2955,1.09279 2.9645,0.0529 z m 12.1445,-3.56717 v -5.30928 h 3.6502 c 3.4289,0 3.6501,0.0402 3.6501,0.66366 0,0.6145 -0.2212,0.66366 -2.9865,0.66366 h -2.9864 v 1.65915 1.65915 h 2.4887 c 1.9577,0 2.4887,0.1031 2.4887,0.48321 0,0.36966 -0.5653,0.50611 -2.4058,0.5807 l -2.4057,0.0975 -0.098,2.40577 c -0.086,2.13336 -0.171,2.40576 -0.7466,2.40576 -0.6173,0 -0.6492,-0.26085 -0.6492,-5.30927 z M 1126.1501,546.144 c 0,-5.08805 0.028,-5.30928 0.6637,-5.30928 0.6106,0 0.6636,0.22123 0.6636,2.76913 0,2.96883 0.4375,3.86747 1.8827,3.86747 1.3141,0 1.7674,-1.00682 1.7674,-3.92513 0,-2.49024 0.054,-2.71147 0.6637,-2.71147 0.6252,0 0.6637,0.22123 0.6637,3.81605 0,3.07105 -0.092,3.81604 -0.4701,3.81604 -0.2586,0 -0.5386,-0.18666 -0.6222,-0.41479 -0.1217,-0.33183 -0.24,-0.33183 -0.5918,0 -0.5595,0.52786 -2.3735,0.53825 -2.8952,0.0166 -0.3097,-0.3097 -0.3982,0.0221 -0.3982,1.49324 0,1.6702 -0.078,1.89143 -0.6636,1.89143 -0.6361,0 -0.6637,-0.22123 -0.6637,-5.30928 z m -13.2732,-1.65915 c 0,-4.19781 -0.1254,-4.49344 -1.4737,-3.47366 -0.7886,0.59648 -1.181,0.62054 -1.1808,0.0724 2e-4,-0.38657 3.0491,-3.23534 3.4627,-3.23534 0.103,0 0.1873,2.38917 0.1873,5.30927 0,4.49814 -0.076,5.30928 -0.4978,5.30928 -0.4147,0 -0.4977,-0.66366 -0.4977,-3.98196 z m 6.1907,3.60615 c -0.9829,-0.57138 -1.5451,-2.40492 -1.5451,-5.03965 0,-2.78553 0.7999,-4.44553 2.4161,-5.0139 1.2671,-0.44562 2.553,0.0892 3.4636,1.44045 1.4213,2.10905 0.8682,7.70957 -0.8523,8.63037 -0.8499,0.45486 -2.6857,0.44576 -3.4823,-0.0173 z m 3.2337,-1.3663 c 0.4724,-0.7344 0.6262,-2.04388 0.5626,-4.79303 -0.065,-2.80422 -2.6214,-4.12221 -3.6438,-1.8784 -0.6021,1.32146 -0.526,5.63772 0.1167,6.61858 0.6974,1.0643 2.2955,1.09279 2.9645,0.0529 z m 12.4764,-3.56717 v -5.30927 h 3.6501 c 3.4289,0 3.6501,0.0402 3.6501,0.66366 0,0.6145 -0.2212,0.66366 -2.9865,0.66366 h -2.9864 v 1.65914 1.65915 h 2.6546 c 2.1044,0 2.6547,0.10028 2.6547,0.48379 0,0.37388 -0.5843,0.50581 -2.5717,0.5807 l -2.5717,0.0969 -0.098,2.40576 c -0.086,2.13336 -0.171,2.40577 -0.7466,2.40577 -0.6172,0 -0.6491,-0.26086 -0.6491,-5.30928 z m 389.2362,0.66366 c 0,-0.21547 4.4797,-0.33183 12.7754,-0.33183 8.2958,0 12.7755,0.11636 12.7755,0.33183 0,0.21548 -4.4797,0.33183 -12.7755,0.33183 -8.2957,0 -12.7754,-0.11635 -12.7754,-0.33183 z m 48.1086,-4.81955 c -0.5934,-0.71511 -0.1395,-1.0152 0.5272,-0.3485 0.6367,0.63674 1.1092,0.5592 1.6127,-0.26472 0.2827,-0.46248 0.2035,-0.70663 -0.3863,-1.19095 -0.599,-0.49197 -0.6469,-0.64562 -0.2488,-0.79837 0.7161,-0.27483 0.6305,-1.53731 -0.1044,-1.53731 -0.3285,0 -0.774,0.1767 -0.99,0.39266 -0.2159,0.21597 -0.5069,0.27842 -0.6465,0.13879 -0.3659,-0.36585 0.9517,-1.23765 1.6997,-1.12468 0.9529,0.14392 1.4467,1.11391 0.9621,1.88989 -0.3197,0.51184 -0.3031,0.67125 0.085,0.82031 0.2651,0.10176 0.4821,0.47768 0.4821,0.83538 0,1.44447 -2.0913,2.27417 -2.9932,1.1875 z m 69.6909,-1.33351 c 0,-0.0991 0.6893,-0.91697 1.5317,-1.81756 0.9616,-1.02802 1.4594,-1.82546 1.3377,-2.14267 -0.2548,-0.66394 -1.1716,-0.64309 -1.9307,0.0439 -0.5545,0.50186 -0.6068,0.50286 -0.6068,0.0117 0,-0.56978 0.9515,-1.22451 1.7795,-1.22451 0.6515,0 1.5388,0.90436 1.5388,1.56831 0,0.28899 -0.6036,1.0996 -1.3413,1.80137 l -1.3413,1.27593 h 1.3413 c 0.7377,0 1.3413,0.14933 1.3413,0.33183 0,0.18251 -0.8213,0.33183 -1.8251,0.33183 -1.0038,0 -1.8251,-0.0811 -1.8251,-0.18013 z m -77.9479,-1.56687 c -1.4903,-0.76589 -2.1596,-2.08184 -2.2813,-4.48542 -0.189,-3.73597 1.5466,-5.71345 5.0149,-5.71345 1.3937,0 1.7688,0.15431 2.7427,1.12822 1.2854,1.28534 1.3947,1.71116 0.4995,1.94525 -0.4352,0.11383 -0.7403,-0.0805 -0.9914,-0.63162 -0.7439,-1.63274 -3.1783,-1.89346 -4.7304,-0.50662 -0.8843,0.79013 -1.076,1.2319 -1.2039,2.77477 -0.2433,2.93326 1.0756,4.91306 3.2728,4.91306 1.1275,0 2.6022,-0.96499 2.8238,-1.8477 0.1347,-0.53661 0.4047,-0.80279 0.7476,-0.73677 0.9652,0.18588 0.795,1.23878 -0.3922,2.42598 -1.0318,1.03183 -1.3419,1.15346 -2.9293,1.14909 -0.9764,-0.003 -2.1342,-0.18935 -2.5728,-0.41479 z m -436.7199,-2.58915 c 0,-1.93468 -0.029,-2.00438 -0.7466,-1.78385 l -0.7467,0.2295 0.8045,-0.8708 c 0.4425,-0.47893 0.9278,-0.87079 1.0785,-0.87079 0.1506,0 0.2739,1.19459 0.2739,2.65464 0,1.54854 -0.1382,2.65464 -0.3318,2.65464 -0.1847,0 -0.3318,-0.89233 -0.3318,-2.01334 z m 507.0678,0.93 c -1.4903,-0.76589 -2.1596,-2.08184 -2.2813,-4.48542 -0.1891,-3.73597 1.5466,-5.71345 5.0149,-5.71345 1.3937,0 1.7688,0.15431 2.7427,1.12822 1.2854,1.28534 1.3947,1.71116 0.4995,1.94526 -0.4352,0.11382 -0.7403,-0.0805 -0.9914,-0.63163 -0.7439,-1.63274 -3.1783,-1.89346 -4.7304,-0.50662 -0.8843,0.79014 -1.076,1.2319 -1.2039,2.77477 -0.2433,2.93326 1.0756,4.91306 3.2728,4.91306 1.1275,0 2.6022,-0.96499 2.8238,-1.8477 0.1347,-0.53661 0.4047,-0.80279 0.7476,-0.73677 0.9652,0.18589 0.795,1.23878 -0.3922,2.42598 -1.0318,1.03183 -1.3419,1.15346 -2.9293,1.14909 -0.9764,-0.003 -2.1342,-0.18935 -2.5728,-0.41479 z m -516.9597,-2.57529 c -1.361,-0.82977 -2.054,-2.42043 -2.054,-4.71459 0,-3.30601 1.873,-5.2318 5.0884,-5.2318 1.3937,0 1.7689,0.15431 2.7428,1.12822 0.6205,0.62052 1.1282,1.29248 1.1282,1.49324 0,0.69709 -1.0662,0.35944 -1.991,-0.63048 -2.1652,-2.31784 -5.6367,-0.31621 -5.6398,3.25182 0,2.54317 1.4707,4.38026 3.512,4.38026 1.1256,0 2.7915,-1.09188 2.7915,-1.82956 0,-0.6251 0.5606,-0.91572 1.1405,-0.59122 0.4182,0.23405 0.4119,0.41449 -0.047,1.3625 -0.2911,0.601 -0.9474,1.30897 -1.4584,1.57325 -1.3574,0.70194 -3.9007,0.60844 -5.213,-0.19164 z m 519.1003,-43.83479 c -0.48,-0.5705 -0.8169,-1.20512 -0.7486,-1.41028 0.1866,-0.56038 1.2306,-0.6596 1.2306,-0.11694 0,0.71308 1.111,1.56899 2.0366,1.56899 1.0892,0 1.8599,-0.62588 2.1249,-1.72541 0.2742,-1.13781 -1.1649,-2.75521 -2.2085,-2.48228 -0.4861,0.1271 -0.6364,0.0288 -0.5603,-0.36643 0.057,-0.29708 0.4624,-0.62475 0.9004,-0.72815 1.0493,-0.24771 1.5061,-1.02719 1.2349,-2.10748 -0.3958,-1.57725 -2.8563,-1.48417 -3.3678,0.12741 -0.2443,0.76988 -0.9361,0.70156 -1.0931,-0.10797 -0.1324,-0.68232 1.0034,-1.82267 2.0859,-2.09437 2.6812,-0.67294 5.0124,2.32379 3.2099,4.12627 -0.5981,0.59815 -0.5978,0.62496 0.012,1.0059 0.9606,0.59987 1.3473,1.93932 0.9274,3.21172 -0.4699,1.42374 -1.616,2.13628 -3.4363,2.13628 -1.2451,0 -1.6116,-0.16186 -2.3482,-1.03726 z m 8.1141,0.3736 c 0,-0.44244 0.2212,-0.66366 0.6636,-0.66366 0.4425,0 0.6637,0.22122 0.6637,0.66366 0,0.44244 -0.2212,0.66366 -0.6637,0.66366 -0.4424,0 -0.6636,-0.22122 -0.6636,-0.66366 z m 4.5652,0.008 c -1.0313,-0.81126 -1.3628,-1.88352 -0.665,-2.15128 0.2797,-0.10734 0.5324,-0.15431 0.5615,-0.10439 0.9883,1.69454 1.2574,1.91583 2.3296,1.91583 1.2548,0 2.1681,-0.92957 2.1681,-2.20664 0,-0.89279 -1.5773,-2.20596 -2.3933,-1.99256 -1.0057,0.263 -0.665,-0.6883 0.3766,-1.05139 1.9509,-0.68007 2.0279,-2.77985 0.1196,-3.25881 -0.7237,-0.18161 -1.0372,-0.0362 -1.7419,0.80782 -0.622,0.74515 -0.9924,0.94704 -1.3415,0.73129 -0.4087,-0.2526 -0.3768,-0.43957 0.2091,-1.22653 1.236,-1.66009 3.3548,-1.8473 4.7798,-0.42231 0.7827,0.78269 0.8762,2.71335 0.1603,3.30756 -0.4313,0.35793 -0.3886,0.53727 0.3318,1.39341 1.1305,1.34354 1.0806,2.71999 -0.1432,3.94369 -1.2089,1.2089 -3.4276,1.35567 -4.7515,0.31431 z m 8.6165,-4.4093 c -1.0542,-2.78072 -1.9128,-5.16785 -1.9081,-5.30473 0,-0.13688 0.2882,-0.24887 0.6299,-0.24887 0.5002,0 0.9414,0.91317 2.2651,4.68789 l 1.6438,4.6879 1.7587,-4.6879 c 1.448,-3.8597 1.8748,-4.68789 2.416,-4.68789 0.487,0 0.6014,0.15048 0.4416,0.5807 -0.1187,0.31939 -1.0497,2.70856 -2.0688,5.30928 -2.5142,6.41541 -2.6214,6.40845 -5.1782,-0.33638 z m 8.1391,4.84798 c 0.089,-0.15442 0.7966,-2.55795 1.5718,-5.34118 0.96,-3.447 1.5576,-5.0604 1.8743,-5.0604 0.531,0 0.592,-0.31155 -1.1686,5.97294 -0.9607,3.42926 -1.3939,4.50663 -1.8474,4.59455 -0.3258,0.0632 -0.5194,-0.0115 -0.4301,-0.16591 z m 8.212,-3.76498 c 0,-2.19007 -0.112,-3.97721 -0.2488,-3.9714 -0.1369,0.006 -0.5388,0.22979 -0.893,0.49774 -0.3543,0.26796 -0.8396,0.48719 -1.0785,0.48719 -0.7967,0 -0.447,-0.97187 0.5319,-1.47808 0.5314,-0.2748 1.2622,-0.87593 1.6239,-1.33584 1.2488,-1.58749 1.3918,-1.1276 1.3918,4.47307 0,5.08806 -0.027,5.30928 -0.6636,5.30928 -0.6268,0 -0.6637,-0.22122 -0.6637,-3.98196 z m 6.2131,3.56717 c -0.8684,-0.65448 -1.5676,-2.72458 -1.5656,-4.63496 0,-4.47 2.0645,-6.57644 4.9644,-5.07683 1.2154,0.62851 1.7188,2.14033 1.7094,5.13362 -0.01,2.28659 -0.2946,3.26588 -1.2945,4.41226 -0.6017,0.68978 -2.9812,0.79331 -3.8137,0.16591 z m 3.3194,-1.47921 c 0.7025,-1.0728 0.7999,-5.45919 0.1476,-6.6467 -0.6114,-1.1129 -1.9502,-1.32763 -2.8248,-0.45303 -0.6315,0.6315 -0.7164,1.08294 -0.7164,3.80858 0,3.4567 0.325,4.18966 1.858,4.18966 0.6637,0 1.1234,-0.26897 1.5356,-0.89851 z m 4.9764,1.47921 c -0.8684,-0.65448 -1.5677,-2.72458 -1.5657,-4.63496 0,-4.47 2.0646,-6.57644 4.9645,-5.07683 1.2154,0.62851 1.7188,2.14033 1.7093,5.13362 -0.01,2.28659 -0.2945,3.26588 -1.2945,4.41226 -0.6017,0.68978 -2.9812,0.79331 -3.8136,0.16591 z m 3.3193,-1.47921 c 0.7025,-1.0728 0.7999,-5.45919 0.1476,-6.6467 -0.6113,-1.1129 -1.9502,-1.32763 -2.8248,-0.45303 -0.6315,0.6315 -0.7164,1.08294 -0.7164,3.80858 0,3.4567 0.3251,4.18966 1.8581,4.18966 0.6636,0 1.1233,-0.26897 1.5355,-0.89851 z m 3.7408,-1.92204 c 0,-3.07105 0.092,-3.81604 0.4701,-3.81604 0.2585,0 0.5385,0.18665 0.6221,0.41478 0.1217,0.33183 0.2401,0.33183 0.5918,0 0.6072,-0.57286 2.7915,-0.52181 3.2883,0.0769 0.3605,0.43431 0.4899,0.43431 1.11,0 0.3861,-0.2704 1.2575,-0.49164 1.9366,-0.49164 1.864,0 2.2678,0.81066 2.2678,4.55353 0,2.85733 -0.048,3.07855 -0.6637,3.07855 -0.6134,0 -0.6636,-0.22122 -0.6636,-2.9201 0,-3.10201 -0.2548,-3.7165 -1.5408,-3.7165 -1.2571,0 -1.7775,1.18745 -1.7775,4.0558 0,2.34372 -0.06,2.5808 -0.6517,2.5808 -0.5966,0 -0.6597,-0.27335 -0.7466,-3.23534 l -0.095,-3.23534 -1.0237,-0.0999 c -1.4763,-0.14407 -1.8454,0.5316 -2.0459,3.74493 -0.1294,2.07374 -0.2963,2.82565 -0.6273,2.82565 -0.3539,0 -0.4509,-0.82113 -0.4509,-3.81604 z m 11.2822,3.71164 c 0,-0.0828 0.8844,-2.44504 1.9653,-5.2494 1.748,-4.5349 2.05,-5.09884 2.7306,-5.09884 0.6714,0 0.9997,0.56923 2.6795,4.64562 2.513,6.09819 2.4333,5.80702 1.588,5.80702 -0.533,0 -0.8738,-0.40733 -1.3998,-1.67317 l -0.6954,-1.67317 -2.1815,0.097 -2.1815,0.097 -0.5484,1.49323 c -0.3829,1.04269 -0.7608,1.52523 -1.2526,1.59927 -0.3873,0.0583 -0.7042,0.0383 -0.7042,-0.0445 z m 6.3081,-4.45826 c 0.01,-0.48121 -1.4556,-4.39671 -1.6409,-4.39434 -0.1031,0.001 -0.4687,0.85993 -0.8122,1.90802 -0.3436,1.04809 -0.6955,2.09227 -0.7821,2.32041 -0.1132,0.29823 0.3187,0.41478 1.5372,0.41478 0.9321,0 1.6962,-0.11199 1.698,-0.24887 z m -656.3445,2.98647 c 0.1834,-0.50189 1.449,-1.96525 2.8124,-3.25191 2.0291,-1.9149 2.4789,-2.52273 2.4789,-3.34983 0,-1.15404 -0.8757,-2.10879 -1.9342,-2.10879 -0.7368,0 -2.0478,1.06218 -2.0478,1.65915 0,0.1825 -0.2986,0.33183 -0.6637,0.33183 -0.778,0 -0.7855,-0.033 -0.2672,-1.17068 1.5293,-3.35645 7.3344,-1.58023 6.443,1.97139 -0.1885,0.75083 -0.6684,1.2629 -4.0189,4.28776 l -1.3273,1.19833 2.7376,0.009 c 2.5134,0.008 2.7376,0.0633 2.7376,0.67263 0,0.62335 -0.2212,0.66366 -3.6419,0.66366 h -3.6419 z m 8.9414,0.24887 c 0,-0.44244 0.2212,-0.66366 0.6636,-0.66366 0.4425,0 0.6637,0.22122 0.6637,0.66366 0,0.44244 -0.2212,0.66366 -0.6637,0.66366 -0.4424,0 -0.6636,-0.22122 -0.6636,-0.66366 z m 4.5652,0.008 c -1.0313,-0.81126 -1.3628,-1.88351 -0.665,-2.15128 0.2797,-0.10734 0.5324,-0.15431 0.5615,-0.10439 0.9883,1.69454 1.2574,1.91584 2.3296,1.91584 1.2548,0 2.1681,-0.92958 2.1681,-2.20664 0,-0.8928 -1.5773,-2.20596 -2.3933,-1.99256 -1.0057,0.263 -0.665,-0.6883 0.3766,-1.05139 1.9508,-0.68007 2.0279,-2.77985 0.1195,-3.25881 -0.7236,-0.18161 -1.0371,-0.0362 -1.7418,0.80782 -0.622,0.74515 -0.9924,0.94704 -1.3415,0.73128 -0.4087,-0.25259 -0.3768,-0.43957 0.2091,-1.22652 1.236,-1.6601 3.3548,-1.8473 4.7798,-0.42231 0.7901,0.79005 0.8739,2.71529 0.1446,3.32056 -0.4517,0.3749 -0.4134,0.52525 0.3318,1.30315 1.9018,1.98502 0.3531,4.99091 -2.5714,4.99091 -0.9656,0 -1.7616,-0.22617 -2.3076,-0.65566 z m 14.3875,-0.0679 c -0.1619,-0.4233 -1.0581,-2.74347 -1.9915,-5.15595 -0.9334,-2.41246 -1.697,-4.46566 -1.697,-4.56265 0,-0.097 0.2879,-0.17634 0.6398,-0.17634 0.6683,0 0.8216,0.33076 2.8824,6.22094 0.5266,1.50521 1.0373,2.73712 1.1349,2.7376 0.098,3.3e-4 0.9189,-2.01411 1.8251,-4.47685 1.4422,-3.91967 1.74,-4.47795 2.3894,-4.4797 l 0.7417,-0.002 -0.637,1.57619 c -3.5053,8.67267 -3.603,8.877 -4.2964,8.98241 -0.4797,0.0729 -0.7887,-0.13395 -0.9914,-0.66366 z m 11.642,0.32541 c -0.2494,-0.24937 -0.3982,-1.48954 -0.3982,-3.31829 0,-2.37443 -0.093,-2.9201 -0.4978,-2.9201 -0.2737,0 -0.4977,-0.22399 -0.4977,-0.49775 0,-0.27376 0.224,-0.49774 0.4977,-0.49774 0.3306,0 0.4978,-0.33054 0.4978,-0.98382 0,-0.6442 0.2291,-1.10642 0.6636,-1.33899 0.6127,-0.32791 0.6637,-0.25236 0.6637,0.98381 0,1.11778 0.1097,1.339 0.6637,1.339 0.3687,0 0.6636,0.22122 0.6636,0.49774 0,0.27652 -0.2949,0.49775 -0.6636,0.49775 -0.609,0 -0.6637,0.22122 -0.6637,2.6857 0,2.40663 0.069,2.70374 0.6637,2.85925 0.365,0.0955 0.6636,0.38012 0.6636,0.6326 0,0.57301 -1.6984,0.61881 -2.2564,0.0608 z m 4.2219,-0.57177 c -0.8433,-0.84331 -0.97,-1.21491 -0.97,-2.84607 0,-1.63116 0.1267,-2.00276 0.97,-2.84608 0.8103,-0.8103 1.2398,-0.96996 2.6094,-0.96996 1.9135,0 3.1682,0.96993 3.5182,2.71954 0.5953,2.97679 -0.8953,4.91254 -3.783,4.91254 -1.0769,0 -1.5847,-0.21009 -2.3446,-0.96997 z m 4.3152,-0.89984 c 0.7625,-0.96941 0.8893,-2.43651 0.3062,-3.54424 -0.5143,-0.97708 -0.926,-1.21147 -2.1387,-1.21746 -1.4497,-0.007 -2.236,0.98292 -2.236,2.81547 0,1.85927 0.7821,2.82055 2.2949,2.82055 0.7778,0 1.2809,-0.24801 1.7736,-0.87432 z m 11.5578,0.88232 c -1.104,-0.86838 -1.3683,-1.88985 -0.5448,-2.10521 0.3438,-0.0899 0.6251,-0.0563 0.6251,0.0747 0,0.62165 1.4444,1.69065 2.2843,1.69065 2.4015,0 3.0614,-3.70667 0.84,-4.71878 -0.7199,-0.32803 -1.0422,-0.29856 -1.8586,0.16999 -1.4524,0.83359 -2.3774,0.75657 -2.159,-0.17978 0.096,-0.41064 0.3466,-1.60523 0.5573,-2.65464 l 0.3831,-1.90802 h 2.6311 c 2.1175,0 2.6311,0.0971 2.6311,0.49774 0,0.39039 -0.4563,0.49775 -2.1154,0.49775 -2.1038,0 -2.1166,0.006 -2.3228,1.03697 -0.3192,1.59566 -0.3001,1.61768 1.2178,1.40962 1.2125,-0.1662 1.5781,-0.0667 2.4494,0.66637 2.5589,2.15321 1.0075,6.17827 -2.3814,6.17827 -0.8955,0 -1.7055,-0.23735 -2.2372,-0.65566 z m 8.6164,-4.40929 c -1.0542,-2.78072 -1.9128,-5.16785 -1.9081,-5.30473 0,-0.13688 0.2899,-0.24887 0.6337,-0.24887 0.5056,0 0.9339,0.88822 2.2399,4.64486 0.8881,2.55467 1.6894,4.64368 1.7806,4.64223 0.091,-10e-4 0.9247,-2.05429 1.852,-4.5619 1.4134,-3.8219 1.8049,-4.57674 2.4207,-4.66727 0.7081,-0.1041 0.7181,-0.0682 0.2752,0.99549 -0.2527,0.60692 -1.1922,3.00735 -2.0879,5.33431 -1.4873,3.86426 -1.7003,4.23043 -2.459,4.22628 -0.7651,-0.004 -0.9816,-0.40309 -2.7471,-5.0604 z m -59.6378,-13.84934 c 0,-1.54854 0.1382,-2.65464 0.3318,-2.65464 0.1936,0 0.3318,1.1061 0.3318,2.65464 0,1.54854 -0.1382,2.65463 -0.3318,2.65463 -0.1936,0 -0.3318,-1.10609 -0.3318,-2.65463 z m 1.9909,0 c 0,-1.48005 0.1414,-2.65464 0.3195,-2.65464 0.1757,0 0.9597,0.93327 1.7421,2.07393 l 1.4226,2.07394 0.1916,-2.15689 0.1916,-2.1569 0.057,2.7376 c 0.032,1.50568 -0.073,2.73759 -0.2316,2.73759 -0.1589,0 -0.9042,-0.93327 -1.6562,-2.07393 l -1.3672,-2.07394 v 2.07394 c 0,1.1594 -0.1493,2.07393 -0.3348,2.07393 -0.1936,0 -0.3319,-1.10609 -0.3319,-2.65463 z m 603.9879,0.22748 c -1.5413,-1.64061 -0.4422,-4.54127 1.7208,-4.54127 1.2414,0 2.5352,1.35476 2.5352,2.65464 0,2.24578 -2.7665,3.47213 -4.256,1.88663 z m 3.1775,-0.50319 c 1.0492,-1.30219 0.057,-3.37442 -1.6159,-3.37442 -1.1211,0 -1.7035,0.90322 -1.5563,2.41353 0.1672,1.71665 2.0932,2.30005 3.1722,0.96089 z m 2.5954,0.74975 c -0.3659,-0.36589 -0.5214,-1.15782 -0.5214,-2.65464 0,-2.83538 0.6064,-2.74694 0.7314,0.10666 l 0.098,2.23985 h 1.1614 1.1615 l 0.098,-2.23985 c 0.125,-2.8536 0.7314,-2.94204 0.7314,-0.10666 0,2.42166 -0.4729,3.17609 -1.991,3.17609 -0.5214,0 -1.1827,-0.23466 -1.4695,-0.52145 z m 6.1152,-1.80136 c 0,-2.25645 -0.024,-2.32281 -0.8296,-2.32281 -0.4563,0 -0.8296,-0.14932 -0.8296,-0.33183 0,-0.18435 0.8849,-0.33183 1.991,-0.33183 1.1061,0 1.991,0.14748 1.991,0.33183 0,0.18251 -0.3733,0.33183 -0.8296,0.33183 -0.8059,0 -0.8296,0.0664 -0.8296,2.32281 0,1.32732 -0.1422,2.32281 -0.3318,2.32281 -0.1896,0 -0.3318,-0.99549 -0.3318,-2.32281 z m -624.4651,0.27188 c -0.1619,-0.4233 -1.0581,-2.74347 -1.9915,-5.15594 -0.9334,-2.41248 -1.6971,-4.46567 -1.6971,-4.56266 0,-0.097 0.288,-0.17634 0.6399,-0.17634 0.6683,0 0.8216,0.33076 2.8823,6.22094 0.5267,1.5052 1.0363,2.73712 1.1326,2.73759 0.096,3.4e-4 0.6841,-1.38037 1.3063,-3.06856 1.8458,-5.0084 2.2962,-5.88997 3.009,-5.88997 0.6341,0 0.6343,0.0226 0.017,1.57619 -2.96,7.45346 -3.645,8.87967 -4.3142,8.98241 -0.4727,0.0726 -0.7829,-0.1365 -0.9846,-0.66366 z m 603.8001,-6.00049 c -1.0542,-2.78072 -1.9128,-5.16785 -1.908,-5.30473 0,-0.13688 0.2881,-0.24887 0.6298,-0.24887 0.5003,0 0.9415,0.91317 2.2651,4.68789 l 1.6438,4.68789 1.7587,-4.68789 c 1.4481,-3.85971 1.8749,-4.68789 2.4161,-4.68789 0.487,0 0.6014,0.15047 0.4415,0.5807 -0.1186,0.31938 -1.0496,2.70856 -2.0688,5.30927 -2.5142,6.41541 -2.6214,6.40845 -5.1782,-0.33637 z M 1336.1983,411.4522 c 0,-1.86606 -0.036,-1.95106 -0.7466,-1.77504 -0.6965,0.17246 -0.6842,0.12582 0.183,-0.69472 0.5113,-0.48378 0.9966,-0.8796 1.0784,-0.8796 0.082,0 0.1489,1.19459 0.1489,2.65464 0,1.54853 -0.1383,2.65463 -0.3319,2.65463 -0.1837,0 -0.3318,-0.87452 -0.3318,-1.95991 z m -9.2912,-6.004 c 0,-5.08806 0.028,-5.30928 0.6636,-5.30928 0.6321,0 0.6637,0.22122 0.6637,4.64562 v 4.64562 h 2.6546 c 2.4334,0 2.6547,0.0553 2.6547,0.66366 0,0.61941 -0.2213,0.66366 -3.3183,0.66366 h -3.3183 z"
         id="path3632" /></g></g></svg>
