G04*
G04 #@! TF.GenerationSoftware,Altium Limited,Altium Designer,22.0.2 (36)*
G04*
G04 Layer_Physical_Order=2*
G04 Layer_Color=14461039*
%FSLAX44Y44*%
%MOMM*%
G71*
G04*
G04 #@! TF.SameCoordinates,AD71EA70-9FC7-4FF3-9A77-F54E5D2193E9*
G04*
G04*
G04 #@! TF.FilePolarity,Positive*
G04*
G01*
G75*
%ADD16C,0.1500*%
%ADD117C,1.5000*%
%ADD129C,0.4500*%
G36*
X1150034Y662000D02*
X1429000D01*
Y0D01*
X0D01*
Y48607D01*
X1250Y48655D01*
X1897Y47093D01*
X3093Y45897D01*
X4655Y45250D01*
X6345D01*
X7907Y45897D01*
X8000Y45990D01*
X8093Y45897D01*
X9655Y45250D01*
X11345D01*
X12907Y45897D01*
X14103Y47093D01*
X14750Y48655D01*
Y50345D01*
X14103Y51907D01*
X12907Y53103D01*
X11345Y53750D01*
X9655D01*
X8093Y53103D01*
X8000Y53010D01*
X7907Y53103D01*
X6345Y53750D01*
X4655D01*
X3093Y53103D01*
X1897Y51907D01*
X1250Y50345D01*
X0Y50394D01*
Y291105D01*
X1270Y291839D01*
X2526Y291113D01*
X4815Y290500D01*
X7185D01*
X9474Y291113D01*
X11526Y292298D01*
X13202Y293974D01*
X14387Y296026D01*
X15000Y298315D01*
Y300685D01*
X14387Y302974D01*
X13202Y305026D01*
X11526Y306702D01*
X9474Y307887D01*
X7185Y308500D01*
X4815D01*
X2526Y307887D01*
X1270Y307161D01*
X0Y307895D01*
Y326105D01*
X1270Y326839D01*
X2526Y326113D01*
X4815Y325500D01*
X7185D01*
X9474Y326113D01*
X11526Y327298D01*
X13202Y328974D01*
X14387Y331026D01*
X15000Y333315D01*
Y335685D01*
X14387Y337974D01*
X13202Y340026D01*
X11526Y341702D01*
X9474Y342887D01*
X7185Y343500D01*
X4815D01*
X2526Y342887D01*
X1270Y342161D01*
X0Y342895D01*
Y700000D01*
X1150034D01*
Y662000D01*
D02*
G37*
%LPC*%
G36*
X869845Y691750D02*
X868155D01*
X866593Y691103D01*
X865397Y689907D01*
X864750Y688345D01*
Y686655D01*
X865397Y685093D01*
X866593Y683897D01*
X868155Y683250D01*
X869845D01*
X871407Y683897D01*
X872603Y685093D01*
X873250Y686655D01*
Y688345D01*
X872603Y689907D01*
X871407Y691103D01*
X869845Y691750D01*
D02*
G37*
G36*
X973856Y686500D02*
X972144D01*
X970491Y686057D01*
X969009Y685201D01*
X967799Y683991D01*
X966943Y682509D01*
X966500Y680856D01*
Y679144D01*
X966943Y677491D01*
X967799Y676009D01*
X969009Y674799D01*
X970491Y673943D01*
X972144Y673500D01*
X973856D01*
X975509Y673943D01*
X976991Y674799D01*
X978201Y676009D01*
X979057Y677491D01*
X979500Y679144D01*
Y680856D01*
X979057Y682509D01*
X978201Y683991D01*
X976991Y685201D01*
X975509Y686057D01*
X973856Y686500D01*
D02*
G37*
G36*
X905856D02*
X904144D01*
X902491Y686057D01*
X901009Y685201D01*
X899799Y683991D01*
X898943Y682509D01*
X898500Y680856D01*
Y679144D01*
X898943Y677491D01*
X899799Y676009D01*
X901009Y674799D01*
X902491Y673943D01*
X904144Y673500D01*
X905856D01*
X907509Y673943D01*
X908991Y674799D01*
X910201Y676009D01*
X911057Y677491D01*
X911500Y679144D01*
Y680856D01*
X911057Y682509D01*
X910201Y683991D01*
X908991Y685201D01*
X907509Y686057D01*
X905856Y686500D01*
D02*
G37*
G36*
X818345Y685250D02*
X816655D01*
X815093Y684603D01*
X813897Y683407D01*
X813250Y681845D01*
Y680155D01*
X813897Y678593D01*
X815093Y677397D01*
X816655Y676750D01*
X818250D01*
Y676155D01*
X818897Y674593D01*
X820093Y673397D01*
X821655Y672750D01*
X823345D01*
X824907Y673397D01*
X826103Y674593D01*
X826750Y676155D01*
Y677845D01*
X826103Y679407D01*
X824907Y680603D01*
X823345Y681250D01*
X821750D01*
Y681845D01*
X821103Y683407D01*
X819907Y684603D01*
X818345Y685250D01*
D02*
G37*
G36*
X793345Y685250D02*
X791655D01*
X790093Y684603D01*
X788897Y683407D01*
X788250Y681845D01*
Y681520D01*
X787845Y681250D01*
X786155D01*
X784593Y680603D01*
X783397Y679407D01*
X782750Y677845D01*
Y676155D01*
X783397Y674593D01*
X784593Y673397D01*
X786155Y672750D01*
X787845D01*
X789407Y673397D01*
X790603Y674593D01*
X791250Y676155D01*
Y676480D01*
X791655Y676750D01*
X793345D01*
X794907Y677397D01*
X796103Y678593D01*
X796750Y680155D01*
Y681845D01*
X796103Y683407D01*
X794907Y684603D01*
X793345Y685250D01*
D02*
G37*
G36*
X1118251Y683500D02*
X1115749D01*
X1113333Y682853D01*
X1111167Y681602D01*
X1109398Y679833D01*
X1108147Y677667D01*
X1107500Y675251D01*
Y672749D01*
X1108147Y670333D01*
X1109398Y668167D01*
X1111167Y666398D01*
X1113333Y665147D01*
X1115749Y664500D01*
X1118251D01*
X1120667Y665147D01*
X1122833Y666398D01*
X1124602Y668167D01*
X1125853Y670333D01*
X1126500Y672749D01*
Y675251D01*
X1125853Y677667D01*
X1124602Y679833D01*
X1122833Y681602D01*
X1120667Y682853D01*
X1118251Y683500D01*
D02*
G37*
G36*
X1092851D02*
X1090349D01*
X1087933Y682853D01*
X1085767Y681602D01*
X1083998Y679833D01*
X1082747Y677667D01*
X1082100Y675251D01*
Y672749D01*
X1082747Y670333D01*
X1083998Y668167D01*
X1085767Y666398D01*
X1087933Y665147D01*
X1090349Y664500D01*
X1092851D01*
X1095267Y665147D01*
X1097433Y666398D01*
X1099202Y668167D01*
X1100453Y670333D01*
X1101100Y672749D01*
Y675251D01*
X1100453Y677667D01*
X1099202Y679833D01*
X1097433Y681602D01*
X1095267Y682853D01*
X1092851Y683500D01*
D02*
G37*
G36*
X1067451D02*
X1064949D01*
X1062533Y682853D01*
X1060367Y681602D01*
X1058598Y679833D01*
X1057347Y677667D01*
X1056700Y675251D01*
Y672749D01*
X1057347Y670333D01*
X1058598Y668167D01*
X1060367Y666398D01*
X1062533Y665147D01*
X1064949Y664500D01*
X1067451D01*
X1069867Y665147D01*
X1072033Y666398D01*
X1073802Y668167D01*
X1075053Y670333D01*
X1075700Y672749D01*
Y675251D01*
X1075053Y677667D01*
X1073802Y679833D01*
X1072033Y681602D01*
X1069867Y682853D01*
X1067451Y683500D01*
D02*
G37*
G36*
X1042051D02*
X1039549D01*
X1037133Y682853D01*
X1034967Y681602D01*
X1033198Y679833D01*
X1031947Y677667D01*
X1031300Y675251D01*
Y672749D01*
X1031947Y670333D01*
X1033198Y668167D01*
X1034967Y666398D01*
X1037133Y665147D01*
X1039549Y664500D01*
X1042051D01*
X1044467Y665147D01*
X1046633Y666398D01*
X1048402Y668167D01*
X1049653Y670333D01*
X1050300Y672749D01*
Y675251D01*
X1049653Y677667D01*
X1048402Y679833D01*
X1046633Y681602D01*
X1044467Y682853D01*
X1042051Y683500D01*
D02*
G37*
G36*
X1024900D02*
X1005900D01*
Y664500D01*
X1024900D01*
Y683500D01*
D02*
G37*
G36*
X699345Y671250D02*
X697655D01*
X696093Y670603D01*
X694897Y669407D01*
X694250Y667845D01*
Y666155D01*
X694897Y664593D01*
X696093Y663397D01*
X697655Y662750D01*
X699345D01*
X700907Y663397D01*
X702103Y664593D01*
X702750Y666155D01*
Y667845D01*
X702103Y669407D01*
X700907Y670603D01*
X699345Y671250D01*
D02*
G37*
G36*
X668651Y674500D02*
X666149D01*
X663733Y673853D01*
X661567Y672602D01*
X659798Y670833D01*
X658548Y668667D01*
X657900Y666251D01*
Y663749D01*
X658548Y661333D01*
X659798Y659167D01*
X661567Y657398D01*
X663733Y656147D01*
X666149Y655500D01*
X668651D01*
X671067Y656147D01*
X673233Y657398D01*
X675002Y659167D01*
X676253Y661333D01*
X676900Y663749D01*
Y666251D01*
X676253Y668667D01*
X675002Y670833D01*
X673233Y672602D01*
X671067Y673853D01*
X668651Y674500D01*
D02*
G37*
G36*
X643251D02*
X640749D01*
X638333Y673853D01*
X636167Y672602D01*
X634398Y670833D01*
X633148Y668667D01*
X632500Y666251D01*
Y663749D01*
X633148Y661333D01*
X634398Y659167D01*
X636167Y657398D01*
X638333Y656147D01*
X640749Y655500D01*
X643251D01*
X645667Y656147D01*
X647833Y657398D01*
X649602Y659167D01*
X650853Y661333D01*
X651500Y663749D01*
Y666251D01*
X650853Y668667D01*
X649602Y670833D01*
X647833Y672602D01*
X645667Y673853D01*
X643251Y674500D01*
D02*
G37*
G36*
X626100D02*
X607100D01*
Y655500D01*
X626100D01*
Y674500D01*
D02*
G37*
G36*
X576900D02*
X557900D01*
Y655500D01*
X576900D01*
Y674500D01*
D02*
G37*
G36*
X543251D02*
X540749D01*
X538333Y673853D01*
X536167Y672602D01*
X534398Y670833D01*
X533147Y668667D01*
X532500Y666251D01*
Y663749D01*
X533147Y661333D01*
X534398Y659167D01*
X536167Y657398D01*
X538333Y656147D01*
X540749Y655500D01*
X543251D01*
X545667Y656147D01*
X547833Y657398D01*
X549602Y659167D01*
X550853Y661333D01*
X551500Y663749D01*
Y666251D01*
X550853Y668667D01*
X549602Y670833D01*
X547833Y672602D01*
X545667Y673853D01*
X543251Y674500D01*
D02*
G37*
G36*
X813345Y662250D02*
X811655D01*
X810093Y661603D01*
X808897Y660407D01*
X808250Y658845D01*
Y657155D01*
X808897Y655593D01*
X810093Y654397D01*
X811655Y653750D01*
X813345D01*
X814907Y654397D01*
X816103Y655593D01*
X816750Y657155D01*
Y658845D01*
X816103Y660407D01*
X814907Y661603D01*
X813345Y662250D01*
D02*
G37*
G36*
X710845Y611750D02*
X709155D01*
X707593Y611103D01*
X706397Y609907D01*
X705750Y608345D01*
Y606655D01*
X706397Y605093D01*
X707593Y603897D01*
X709155Y603250D01*
X710845D01*
X712407Y603897D01*
X713603Y605093D01*
X714250Y606655D01*
Y608345D01*
X713603Y609907D01*
X712407Y611103D01*
X710845Y611750D01*
D02*
G37*
G36*
X1070845Y599250D02*
X1069155D01*
X1067593Y598603D01*
X1066397Y597407D01*
X1065750Y595845D01*
Y594155D01*
X1066397Y592593D01*
X1067593Y591397D01*
X1069155Y590750D01*
X1070845D01*
X1072407Y591397D01*
X1073603Y592593D01*
X1074250Y594155D01*
Y595845D01*
X1073603Y597407D01*
X1072407Y598603D01*
X1070845Y599250D01*
D02*
G37*
G36*
X721845Y590250D02*
X720155D01*
X718593Y589603D01*
X717397Y588407D01*
X716750Y586845D01*
Y585155D01*
X717397Y583593D01*
X718593Y582397D01*
X720155Y581750D01*
X721845D01*
X723407Y582397D01*
X724603Y583593D01*
X725250Y585155D01*
Y586845D01*
X724603Y588407D01*
X723407Y589603D01*
X721845Y590250D01*
D02*
G37*
G36*
X633845D02*
X632155D01*
X630593Y589603D01*
X629397Y588407D01*
X628750Y586845D01*
Y585155D01*
X629397Y583593D01*
X630593Y582397D01*
X632155Y581750D01*
X633845D01*
X635407Y582397D01*
X636603Y583593D01*
X637250Y585155D01*
Y586845D01*
X636603Y588407D01*
X635407Y589603D01*
X633845Y590250D01*
D02*
G37*
G36*
X1318845Y582250D02*
X1317155D01*
X1315592Y581603D01*
X1314397Y580407D01*
X1313750Y578845D01*
Y577155D01*
X1314397Y575593D01*
X1315592Y574397D01*
X1317155Y573750D01*
X1318845D01*
X1320407Y574397D01*
X1321603Y575593D01*
X1322250Y577155D01*
Y578845D01*
X1321603Y580407D01*
X1320407Y581603D01*
X1318845Y582250D01*
D02*
G37*
G36*
X898845Y579250D02*
X897155D01*
X895593Y578603D01*
X894397Y577407D01*
X893750Y575845D01*
Y574155D01*
X894397Y572593D01*
X895593Y571397D01*
X897155Y570750D01*
X898845D01*
X900407Y571397D01*
X901603Y572593D01*
X902250Y574155D01*
Y575845D01*
X901603Y577407D01*
X900407Y578603D01*
X898845Y579250D01*
D02*
G37*
G36*
X1286470Y576250D02*
X1284779D01*
X1283217Y575603D01*
X1282021Y574407D01*
X1281374Y572845D01*
Y571155D01*
X1282021Y569593D01*
X1283217Y568397D01*
X1284779Y567750D01*
X1286470D01*
X1288031Y568397D01*
X1289227Y569593D01*
X1289874Y571155D01*
Y572845D01*
X1289227Y574407D01*
X1288031Y575603D01*
X1286470Y576250D01*
D02*
G37*
G36*
X234900Y579500D02*
X215900D01*
Y560500D01*
X234900D01*
Y579500D01*
D02*
G37*
G36*
X201251D02*
X198749D01*
X196333Y578853D01*
X194167Y577602D01*
X192398Y575833D01*
X191147Y573667D01*
X190500Y571251D01*
Y568749D01*
X191147Y566333D01*
X192398Y564167D01*
X194167Y562398D01*
X196333Y561147D01*
X198749Y560500D01*
X201251D01*
X203667Y561147D01*
X205833Y562398D01*
X207602Y564167D01*
X208853Y566333D01*
X209500Y568749D01*
Y571251D01*
X208853Y573667D01*
X207602Y575833D01*
X205833Y577602D01*
X203667Y578853D01*
X201251Y579500D01*
D02*
G37*
G36*
X134500D02*
X115500D01*
Y560500D01*
X134500D01*
Y579500D01*
D02*
G37*
G36*
X914845Y564250D02*
X913155D01*
X911593Y563603D01*
X910397Y562407D01*
X909750Y560845D01*
Y559155D01*
X910397Y557593D01*
X911593Y556397D01*
X913155Y555750D01*
X914845D01*
X916407Y556397D01*
X917603Y557593D01*
X918250Y559155D01*
Y560845D01*
X917603Y562407D01*
X916407Y563603D01*
X914845Y564250D01*
D02*
G37*
G36*
X710845Y557750D02*
X709155D01*
X707593Y557103D01*
X706397Y555907D01*
X705750Y554345D01*
Y552655D01*
X706397Y551093D01*
X707593Y549897D01*
X709155Y549250D01*
X710845D01*
X712407Y549897D01*
X713603Y551093D01*
X714250Y552655D01*
Y554345D01*
X713603Y555907D01*
X712407Y557103D01*
X710845Y557750D01*
D02*
G37*
G36*
X1062000Y542500D02*
X1043000D01*
Y523500D01*
X1062000D01*
Y542500D01*
D02*
G37*
G36*
X17967Y539900D02*
X15333D01*
X12790Y539218D01*
X10510Y537902D01*
X8648Y536040D01*
X7332Y533760D01*
X6650Y531217D01*
Y528583D01*
X7332Y526040D01*
X8648Y523760D01*
X10510Y521898D01*
X12790Y520582D01*
X15333Y519900D01*
X17967D01*
X20510Y520582D01*
X22790Y521898D01*
X24652Y523760D01*
X25968Y526040D01*
X26650Y528583D01*
Y531217D01*
X25968Y533760D01*
X24652Y536040D01*
X22790Y537902D01*
X20510Y539218D01*
X17967Y539900D01*
D02*
G37*
G36*
X77467Y536300D02*
X74833D01*
X72290Y535619D01*
X70010Y534302D01*
X68148Y532440D01*
X66831Y530160D01*
X66150Y527617D01*
Y524983D01*
X66831Y522440D01*
X67982Y520448D01*
X67989Y520395D01*
X67760Y519432D01*
X67523Y518988D01*
X66593Y518603D01*
X65397Y517407D01*
X64750Y515845D01*
Y514155D01*
X65397Y512593D01*
X66593Y511397D01*
X68155Y510750D01*
X68250D01*
Y509250D01*
X68155D01*
X66593Y508603D01*
X65397Y507407D01*
X64750Y505845D01*
Y504155D01*
X65397Y502593D01*
X66593Y501397D01*
X68155Y500750D01*
X68250D01*
Y499155D01*
X68897Y497593D01*
X70093Y496397D01*
X71655Y495750D01*
X73345D01*
X74907Y496397D01*
X76103Y497593D01*
X76750Y499155D01*
Y500845D01*
X76103Y502407D01*
X74907Y503603D01*
X73345Y504250D01*
X73250D01*
Y505750D01*
X73345D01*
X74907Y506397D01*
X76103Y507593D01*
X76750Y509155D01*
Y510845D01*
X76103Y512407D01*
X74907Y513603D01*
X73435Y514213D01*
X73349Y514818D01*
X73354Y515516D01*
X74269Y516451D01*
X74833Y516300D01*
X77467D01*
X80010Y516982D01*
X82290Y518298D01*
X82752Y518760D01*
X83998Y518512D01*
X84199Y518026D01*
X85676Y516549D01*
X87606Y515750D01*
X89694D01*
X91624Y516549D01*
X93101Y518026D01*
X93900Y519956D01*
Y522044D01*
X93101Y523974D01*
X91624Y525451D01*
X89694Y526250D01*
X87606D01*
X87206Y526084D01*
X86150Y526790D01*
Y527617D01*
X85469Y530160D01*
X84152Y532440D01*
X82290Y534302D01*
X80010Y535619D01*
X77467Y536300D01*
D02*
G37*
G36*
X206345Y512250D02*
X204655D01*
X203093Y511603D01*
X202375Y510885D01*
X201657Y511603D01*
X200095Y512250D01*
X198405D01*
X196843Y511603D01*
X195647Y510407D01*
X195000Y508845D01*
Y507155D01*
X195647Y505593D01*
X196843Y504397D01*
X198405Y503750D01*
X200095D01*
X201657Y504397D01*
X202375Y505115D01*
X203093Y504397D01*
X204655Y503750D01*
X206345D01*
X207907Y504397D01*
X209103Y505593D01*
X209750Y507155D01*
Y508845D01*
X209103Y510407D01*
X207907Y511603D01*
X206345Y512250D01*
D02*
G37*
G36*
X1288845Y514250D02*
X1287155D01*
X1285593Y513603D01*
X1284397Y512407D01*
X1283750Y510845D01*
Y509155D01*
X1284397Y507593D01*
X1285593Y506397D01*
X1287155Y505750D01*
X1288845D01*
X1290407Y506397D01*
X1291603Y507593D01*
X1292250Y509155D01*
Y510845D01*
X1291603Y512407D01*
X1290407Y513603D01*
X1288845Y514250D01*
D02*
G37*
G36*
X101845Y511750D02*
X100155D01*
X98593Y511103D01*
X97397Y509907D01*
X96750Y508345D01*
Y506655D01*
X97397Y505093D01*
X98593Y503897D01*
X100155Y503250D01*
X100250D01*
Y501750D01*
X100155D01*
X98593Y501103D01*
X97397Y499907D01*
X96750Y498345D01*
Y496655D01*
X97397Y495093D01*
X98593Y493897D01*
X100155Y493250D01*
X101845D01*
X103407Y493897D01*
X104603Y495093D01*
X105250Y496655D01*
Y498250D01*
X105345D01*
X106907Y498897D01*
X108103Y500093D01*
X108750Y501655D01*
Y503345D01*
X108103Y504907D01*
X106907Y506103D01*
X105345Y506750D01*
X105250D01*
Y508345D01*
X104603Y509907D01*
X103407Y511103D01*
X101845Y511750D01*
D02*
G37*
G36*
X84845Y499250D02*
X83155D01*
X81593Y498603D01*
X80397Y497407D01*
X79750Y495845D01*
Y494155D01*
X80397Y492593D01*
X81593Y491397D01*
X83155Y490750D01*
X83250D01*
Y489155D01*
X83897Y487593D01*
X85093Y486397D01*
X86655Y485750D01*
X88345D01*
X89907Y486397D01*
X91103Y487593D01*
X91750Y489155D01*
Y490845D01*
X91103Y492407D01*
X89907Y493603D01*
X88345Y494250D01*
X88250D01*
Y495845D01*
X87603Y497407D01*
X86407Y498603D01*
X84845Y499250D01*
D02*
G37*
G36*
X225345Y491750D02*
X223655D01*
X222093Y491103D01*
X220897Y489907D01*
X220250Y488345D01*
Y486655D01*
X220897Y485093D01*
X222093Y483897D01*
X223655Y483250D01*
X225345D01*
X226907Y483897D01*
X228103Y485093D01*
X228750Y486655D01*
Y488345D01*
X228103Y489907D01*
X226907Y491103D01*
X225345Y491750D01*
D02*
G37*
G36*
X965845Y494250D02*
X964155D01*
X962593Y493603D01*
X961397Y492407D01*
X960750Y490845D01*
Y489155D01*
X961397Y487593D01*
X962593Y486397D01*
X964155Y485750D01*
X965750D01*
Y484155D01*
X966397Y482593D01*
X967593Y481397D01*
X969155Y480750D01*
X970845D01*
X972407Y481397D01*
X973603Y482593D01*
X974250Y484155D01*
Y485845D01*
X973603Y487407D01*
X972407Y488603D01*
X970845Y489250D01*
X969250D01*
Y490845D01*
X968603Y492407D01*
X967407Y493603D01*
X965845Y494250D01*
D02*
G37*
G36*
X101845Y486750D02*
X100155D01*
X98593Y486103D01*
X97397Y484907D01*
X96750Y483345D01*
Y481655D01*
X97397Y480093D01*
X98593Y478897D01*
X100155Y478250D01*
X100250D01*
Y476655D01*
X100897Y475093D01*
X102093Y473897D01*
X103655Y473250D01*
X105345D01*
X106907Y473897D01*
X108103Y475093D01*
X108750Y476655D01*
Y478345D01*
X108103Y479907D01*
X106907Y481103D01*
X105345Y481750D01*
X105250D01*
Y483345D01*
X104603Y484907D01*
X103407Y486103D01*
X101845Y486750D01*
D02*
G37*
G36*
X145345Y479250D02*
X143655D01*
X142093Y478603D01*
X140897Y477407D01*
X140250Y475845D01*
Y474155D01*
X140897Y472593D01*
X142093Y471397D01*
X143655Y470750D01*
X145345D01*
X146907Y471397D01*
X148103Y472593D01*
X148750Y474155D01*
Y475845D01*
X148103Y477407D01*
X146907Y478603D01*
X145345Y479250D01*
D02*
G37*
G36*
X1125193Y478000D02*
X1122806D01*
X1120601Y477086D01*
X1118913Y475399D01*
X1118000Y473194D01*
Y470807D01*
X1118913Y468601D01*
X1120601Y466913D01*
X1122806Y466000D01*
X1125193D01*
X1127399Y466913D01*
X1129087Y468601D01*
X1130000Y470807D01*
Y473194D01*
X1129087Y475399D01*
X1127399Y477086D01*
X1125193Y478000D01*
D02*
G37*
G36*
X101845Y471750D02*
X100155D01*
X98593Y471103D01*
X97397Y469907D01*
X96750Y468345D01*
Y466655D01*
X97397Y465093D01*
X98593Y463897D01*
X100155Y463250D01*
X100250D01*
Y461655D01*
X100897Y460093D01*
X102093Y458897D01*
X103655Y458250D01*
X105345D01*
X106907Y458897D01*
X108103Y460093D01*
X108750Y461655D01*
Y463345D01*
X108103Y464907D01*
X106907Y466103D01*
X105345Y466750D01*
X105250D01*
Y468345D01*
X104603Y469907D01*
X103407Y471103D01*
X101845Y471750D01*
D02*
G37*
G36*
X73345Y479250D02*
X71655D01*
X70093Y478603D01*
X68897Y477407D01*
X68250Y475845D01*
Y474250D01*
X68155D01*
X66593Y473603D01*
X65397Y472407D01*
X64750Y470845D01*
Y469155D01*
X65397Y467593D01*
X66593Y466397D01*
X68155Y465750D01*
X68250D01*
Y464250D01*
X68155D01*
X66593Y463603D01*
X65397Y462407D01*
X64750Y460845D01*
Y459155D01*
X65397Y457593D01*
X66593Y456397D01*
X68155Y455750D01*
X69845D01*
X71407Y456397D01*
X72603Y457593D01*
X73250Y459155D01*
Y460750D01*
X73345D01*
X74907Y461397D01*
X76103Y462593D01*
X76750Y464155D01*
Y465845D01*
X76103Y467407D01*
X74907Y468603D01*
X73345Y469250D01*
X73250D01*
Y470750D01*
X73345D01*
X74907Y471397D01*
X76103Y472593D01*
X76750Y474155D01*
Y475845D01*
X76103Y477407D01*
X74907Y478603D01*
X73345Y479250D01*
D02*
G37*
G36*
X221845Y461750D02*
X220155D01*
X218593Y461103D01*
X217397Y459907D01*
X216750Y458345D01*
Y456655D01*
X217397Y455093D01*
X218593Y453897D01*
X220155Y453250D01*
X221845D01*
X223407Y453897D01*
X224603Y455093D01*
X225250Y456655D01*
Y458345D01*
X224603Y459907D01*
X223407Y461103D01*
X221845Y461750D01*
D02*
G37*
G36*
X208845D02*
X207155D01*
X205593Y461103D01*
X204397Y459907D01*
X203750Y458345D01*
Y456655D01*
X204397Y455093D01*
X205593Y453897D01*
X207155Y453250D01*
X208845D01*
X210407Y453897D01*
X211603Y455093D01*
X212250Y456655D01*
Y458345D01*
X211603Y459907D01*
X210407Y461103D01*
X208845Y461750D01*
D02*
G37*
G36*
X195845D02*
X194155D01*
X192593Y461103D01*
X191397Y459907D01*
X190750Y458345D01*
Y456655D01*
X191397Y455093D01*
X192593Y453897D01*
X194155Y453250D01*
X195845D01*
X197407Y453897D01*
X198603Y455093D01*
X199250Y456655D01*
Y458345D01*
X198603Y459907D01*
X197407Y461103D01*
X195845Y461750D01*
D02*
G37*
G36*
X88650Y456853D02*
X86602Y456445D01*
X84865Y455285D01*
X83705Y453548D01*
X83462Y452327D01*
X82894Y452024D01*
X82068Y451830D01*
X80010Y453018D01*
X77467Y453700D01*
X74833D01*
X72290Y453018D01*
X70010Y451702D01*
X68148Y449840D01*
X66831Y447560D01*
X66150Y445017D01*
Y442383D01*
X66831Y439840D01*
X68148Y437560D01*
X70010Y435698D01*
X72290Y434381D01*
X74833Y433700D01*
X77467D01*
X80010Y434381D01*
X82290Y435698D01*
X84152Y437560D01*
X85469Y439840D01*
X85852Y441273D01*
X86602Y441555D01*
X88650Y441147D01*
X90698Y441555D01*
X92435Y442715D01*
X93595Y444452D01*
X94003Y446500D01*
Y451500D01*
X93595Y453548D01*
X92435Y455285D01*
X90698Y456445D01*
X88650Y456853D01*
D02*
G37*
G36*
X1187845Y459250D02*
X1186155D01*
X1184593Y458603D01*
X1183397Y457407D01*
X1182750Y455845D01*
Y454155D01*
X1183397Y452593D01*
X1184593Y451397D01*
X1186155Y450750D01*
X1187845D01*
X1189407Y451397D01*
X1190603Y452593D01*
X1191250Y454155D01*
Y455845D01*
X1190603Y457407D01*
X1189407Y458603D01*
X1187845Y459250D01*
D02*
G37*
G36*
X1094845Y451750D02*
X1093155D01*
X1091593Y451103D01*
X1090397Y449907D01*
X1089750Y448345D01*
Y446655D01*
X1090397Y445093D01*
X1091593Y443897D01*
X1093155Y443250D01*
X1094845D01*
X1096407Y443897D01*
X1097603Y445093D01*
X1098250Y446655D01*
Y448345D01*
X1097603Y449907D01*
X1096407Y451103D01*
X1094845Y451750D01*
D02*
G37*
G36*
X182845Y446750D02*
X181155D01*
X179593Y446103D01*
X178397Y444907D01*
X177750Y443345D01*
Y441655D01*
X178397Y440093D01*
X179593Y438897D01*
X181155Y438250D01*
X182845D01*
X184407Y438897D01*
X185603Y440093D01*
X186250Y441655D01*
Y443345D01*
X185603Y444907D01*
X184407Y446103D01*
X182845Y446750D01*
D02*
G37*
G36*
X17967Y450100D02*
X15333D01*
X12790Y449418D01*
X10510Y448102D01*
X8648Y446240D01*
X7332Y443960D01*
X6650Y441417D01*
Y438783D01*
X7332Y436240D01*
X8648Y433960D01*
X10510Y432098D01*
X12790Y430782D01*
X15333Y430100D01*
X17967D01*
X20510Y430782D01*
X22790Y432098D01*
X24652Y433960D01*
X25968Y436240D01*
X26650Y438783D01*
Y441417D01*
X25968Y443960D01*
X24652Y446240D01*
X22790Y448102D01*
X20510Y449418D01*
X17967Y450100D01*
D02*
G37*
G36*
X1147246Y437250D02*
X1145555D01*
X1143993Y436603D01*
X1142797Y435407D01*
X1142150Y433845D01*
Y432155D01*
X1142797Y430593D01*
X1143993Y429397D01*
X1145555Y428750D01*
X1147246D01*
X1148808Y429397D01*
X1150003Y430593D01*
X1150650Y432155D01*
Y433845D01*
X1150003Y435407D01*
X1148808Y436603D01*
X1147246Y437250D01*
D02*
G37*
G36*
X1184845Y420250D02*
X1183155D01*
X1181593Y419603D01*
X1180397Y418407D01*
X1179750Y416845D01*
Y415155D01*
X1180397Y413593D01*
X1181593Y412397D01*
X1183155Y411750D01*
X1184750D01*
Y410155D01*
X1185397Y408593D01*
X1186593Y407397D01*
X1188155Y406750D01*
X1189845D01*
X1191407Y407397D01*
X1192603Y408593D01*
X1193250Y410155D01*
Y411845D01*
X1192603Y413407D01*
X1191407Y414603D01*
X1189845Y415250D01*
X1188250D01*
Y416845D01*
X1187603Y418407D01*
X1186407Y419603D01*
X1184845Y420250D01*
D02*
G37*
G36*
X606200Y587739D02*
X517300D01*
X516520Y587584D01*
X515858Y587142D01*
X515416Y586480D01*
X515261Y585700D01*
Y498839D01*
X428400D01*
X427620Y498684D01*
X426958Y498242D01*
X426516Y497580D01*
X426361Y496800D01*
Y407900D01*
X426516Y407120D01*
X426958Y406458D01*
X427620Y406016D01*
X428400Y405861D01*
X695100D01*
X695880Y406016D01*
X696542Y406458D01*
X696984Y407120D01*
X697139Y407900D01*
Y496800D01*
X696984Y497580D01*
X696542Y498242D01*
X695880Y498684D01*
X695100Y498839D01*
X608239D01*
Y585700D01*
X608084Y586480D01*
X607642Y587142D01*
X606980Y587584D01*
X606200Y587739D01*
D02*
G37*
G36*
X1338845Y410750D02*
X1337155D01*
X1335592Y410103D01*
X1334397Y408907D01*
X1333750Y407345D01*
Y405655D01*
X1334397Y404093D01*
X1335592Y402897D01*
X1337155Y402250D01*
X1338845D01*
X1340407Y402897D01*
X1341603Y404093D01*
X1342250Y405655D01*
Y407345D01*
X1341603Y408907D01*
X1340407Y410103D01*
X1338845Y410750D01*
D02*
G37*
G36*
X132845Y404250D02*
X131155D01*
X129593Y403603D01*
X128397Y402407D01*
X127750Y400845D01*
Y399155D01*
X128397Y397593D01*
X129593Y396397D01*
X131155Y395750D01*
X132845D01*
X134407Y396397D01*
X135603Y397593D01*
X136250Y399155D01*
Y400845D01*
X135603Y402407D01*
X134407Y403603D01*
X132845Y404250D01*
D02*
G37*
G36*
X176845Y402750D02*
X175155D01*
X173593Y402103D01*
X172397Y400907D01*
X171750Y399345D01*
Y397655D01*
X172397Y396093D01*
X173593Y394897D01*
X175155Y394250D01*
X176845D01*
X178407Y394897D01*
X179603Y396093D01*
X180250Y397655D01*
Y399345D01*
X179603Y400907D01*
X178407Y402103D01*
X176845Y402750D01*
D02*
G37*
G36*
X1184845Y405250D02*
X1183155D01*
X1181593Y404603D01*
X1180397Y403407D01*
X1179750Y401845D01*
Y400155D01*
X1180397Y398593D01*
X1181593Y397397D01*
X1183155Y396750D01*
X1184750D01*
Y395155D01*
X1185397Y393593D01*
X1186593Y392397D01*
X1188155Y391750D01*
X1189845D01*
X1191407Y392397D01*
X1192603Y393593D01*
X1193250Y395155D01*
Y396845D01*
X1192603Y398407D01*
X1191407Y399603D01*
X1189845Y400250D01*
X1188250D01*
Y401845D01*
X1187603Y403407D01*
X1186407Y404603D01*
X1184845Y405250D01*
D02*
G37*
G36*
X1288845Y394250D02*
X1287155D01*
X1285593Y393603D01*
X1284397Y392407D01*
X1283750Y390845D01*
Y389155D01*
X1284397Y387593D01*
X1285593Y386397D01*
X1287155Y385750D01*
X1288845D01*
X1290407Y386397D01*
X1291603Y387593D01*
X1292250Y389155D01*
Y390845D01*
X1291603Y392407D01*
X1290407Y393603D01*
X1288845Y394250D01*
D02*
G37*
G36*
X848645Y392250D02*
X846955D01*
X845393Y391603D01*
X844197Y390407D01*
X843550Y388845D01*
Y387155D01*
X844197Y385593D01*
X845393Y384397D01*
X846955Y383750D01*
X848645D01*
X850207Y384397D01*
X851403Y385593D01*
X852050Y387155D01*
Y388845D01*
X851403Y390407D01*
X850207Y391603D01*
X848645Y392250D01*
D02*
G37*
G36*
X1143651Y396500D02*
X1141149D01*
X1138733Y395853D01*
X1136567Y394602D01*
X1134798Y392833D01*
X1133547Y390667D01*
X1132900Y388251D01*
Y385749D01*
X1133547Y383333D01*
X1134798Y381167D01*
X1136567Y379398D01*
X1138733Y378147D01*
X1141149Y377500D01*
X1143651D01*
X1146067Y378147D01*
X1148233Y379398D01*
X1150002Y381167D01*
X1151253Y383333D01*
X1151900Y385749D01*
Y388251D01*
X1151253Y390667D01*
X1150002Y392833D01*
X1148233Y394602D01*
X1146067Y395853D01*
X1143651Y396500D01*
D02*
G37*
G36*
X1118251D02*
X1115749D01*
X1113333Y395853D01*
X1111167Y394602D01*
X1109398Y392833D01*
X1108147Y390667D01*
X1107500Y388251D01*
Y385749D01*
X1108147Y383333D01*
X1109398Y381167D01*
X1111167Y379398D01*
X1113333Y378147D01*
X1115749Y377500D01*
X1118251D01*
X1120667Y378147D01*
X1122833Y379398D01*
X1124602Y381167D01*
X1125853Y383333D01*
X1126500Y385749D01*
Y388251D01*
X1125853Y390667D01*
X1124602Y392833D01*
X1122833Y394602D01*
X1120667Y395853D01*
X1118251Y396500D01*
D02*
G37*
G36*
X1101100D02*
X1082100D01*
Y377500D01*
X1101100D01*
Y396500D01*
D02*
G37*
G36*
X785906Y385250D02*
X784215D01*
X782653Y384603D01*
X781458Y383407D01*
X780810Y381845D01*
Y380155D01*
X781458Y378593D01*
X782653Y377397D01*
X784215Y376750D01*
X785906D01*
X787468Y377397D01*
X788663Y378593D01*
X789310Y380155D01*
Y381845D01*
X788663Y383407D01*
X787468Y384603D01*
X785906Y385250D01*
D02*
G37*
G36*
X670951Y392000D02*
X668449D01*
X666033Y391353D01*
X663867Y390102D01*
X662098Y388333D01*
X660847Y386167D01*
X660200Y383751D01*
Y381249D01*
X660847Y378833D01*
X662098Y376667D01*
X663867Y374898D01*
X666033Y373647D01*
X668449Y373000D01*
X670951D01*
X673367Y373647D01*
X675533Y374898D01*
X677302Y376667D01*
X678553Y378833D01*
X679200Y381249D01*
Y383751D01*
X678553Y386167D01*
X677302Y388333D01*
X675533Y390102D01*
X673367Y391353D01*
X670951Y392000D01*
D02*
G37*
G36*
X645551D02*
X643049D01*
X640633Y391353D01*
X638467Y390102D01*
X636698Y388333D01*
X635447Y386167D01*
X634800Y383751D01*
Y381249D01*
X635447Y378833D01*
X636698Y376667D01*
X638467Y374898D01*
X640633Y373647D01*
X643049Y373000D01*
X645551D01*
X647967Y373647D01*
X650133Y374898D01*
X651902Y376667D01*
X653153Y378833D01*
X653800Y381249D01*
Y383751D01*
X653153Y386167D01*
X651902Y388333D01*
X650133Y390102D01*
X647967Y391353D01*
X645551Y392000D01*
D02*
G37*
G36*
X620151D02*
X617649D01*
X615233Y391353D01*
X613067Y390102D01*
X611298Y388333D01*
X610047Y386167D01*
X609400Y383751D01*
Y381249D01*
X610047Y378833D01*
X611298Y376667D01*
X613067Y374898D01*
X615233Y373647D01*
X617649Y373000D01*
X620151D01*
X622567Y373647D01*
X624733Y374898D01*
X626502Y376667D01*
X627753Y378833D01*
X628400Y381249D01*
Y383751D01*
X627753Y386167D01*
X626502Y388333D01*
X624733Y390102D01*
X622567Y391353D01*
X620151Y392000D01*
D02*
G37*
G36*
X594751D02*
X592249D01*
X589833Y391353D01*
X587667Y390102D01*
X585898Y388333D01*
X584647Y386167D01*
X584000Y383751D01*
Y381249D01*
X584647Y378833D01*
X585898Y376667D01*
X587667Y374898D01*
X589833Y373647D01*
X592249Y373000D01*
X594751D01*
X597167Y373647D01*
X599333Y374898D01*
X601102Y376667D01*
X602353Y378833D01*
X603000Y381249D01*
Y383751D01*
X602353Y386167D01*
X601102Y388333D01*
X599333Y390102D01*
X597167Y391353D01*
X594751Y392000D01*
D02*
G37*
G36*
X569351D02*
X566849D01*
X564433Y391353D01*
X562267Y390102D01*
X560498Y388333D01*
X559247Y386167D01*
X558600Y383751D01*
Y381249D01*
X559247Y378833D01*
X560498Y376667D01*
X562267Y374898D01*
X564433Y373647D01*
X566849Y373000D01*
X569351D01*
X571767Y373647D01*
X573933Y374898D01*
X575702Y376667D01*
X576953Y378833D01*
X577600Y381249D01*
Y383751D01*
X576953Y386167D01*
X575702Y388333D01*
X573933Y390102D01*
X571767Y391353D01*
X569351Y392000D01*
D02*
G37*
G36*
X543951D02*
X541449D01*
X539033Y391353D01*
X536867Y390102D01*
X535098Y388333D01*
X533847Y386167D01*
X533200Y383751D01*
Y381249D01*
X533847Y378833D01*
X535098Y376667D01*
X536867Y374898D01*
X539033Y373647D01*
X541449Y373000D01*
X543951D01*
X546367Y373647D01*
X548533Y374898D01*
X550302Y376667D01*
X551553Y378833D01*
X552200Y381249D01*
Y383751D01*
X551553Y386167D01*
X550302Y388333D01*
X548533Y390102D01*
X546367Y391353D01*
X543951Y392000D01*
D02*
G37*
G36*
X518551D02*
X516049D01*
X513633Y391353D01*
X511467Y390102D01*
X509698Y388333D01*
X508447Y386167D01*
X507800Y383751D01*
Y381249D01*
X508447Y378833D01*
X509698Y376667D01*
X511467Y374898D01*
X513633Y373647D01*
X516049Y373000D01*
X518551D01*
X520967Y373647D01*
X523133Y374898D01*
X524902Y376667D01*
X526153Y378833D01*
X526800Y381249D01*
Y383751D01*
X526153Y386167D01*
X524902Y388333D01*
X523133Y390102D01*
X520967Y391353D01*
X518551Y392000D01*
D02*
G37*
G36*
X493151D02*
X490649D01*
X488233Y391353D01*
X486067Y390102D01*
X484298Y388333D01*
X483047Y386167D01*
X482400Y383751D01*
Y381249D01*
X483047Y378833D01*
X484298Y376667D01*
X486067Y374898D01*
X488233Y373647D01*
X490649Y373000D01*
X493151D01*
X495567Y373647D01*
X497733Y374898D01*
X499502Y376667D01*
X500753Y378833D01*
X501400Y381249D01*
Y383751D01*
X500753Y386167D01*
X499502Y388333D01*
X497733Y390102D01*
X495567Y391353D01*
X493151Y392000D01*
D02*
G37*
G36*
X476000D02*
X457000D01*
Y373000D01*
X476000D01*
Y392000D01*
D02*
G37*
G36*
X772445Y378250D02*
X770755D01*
X769193Y377603D01*
X767997Y376407D01*
X767350Y374845D01*
Y373155D01*
X767997Y371593D01*
X769193Y370397D01*
X770755Y369750D01*
X772445D01*
X774007Y370397D01*
X775203Y371593D01*
X775850Y373155D01*
Y374845D01*
X775203Y376407D01*
X774007Y377603D01*
X772445Y378250D01*
D02*
G37*
G36*
X747045Y371250D02*
X745355D01*
X743793Y370603D01*
X742597Y369407D01*
X741950Y367845D01*
Y366155D01*
X742597Y364593D01*
X743793Y363397D01*
X745355Y362750D01*
X747045D01*
X748607Y363397D01*
X749803Y364593D01*
X750450Y366155D01*
Y367845D01*
X749803Y369407D01*
X748607Y370603D01*
X747045Y371250D01*
D02*
G37*
G36*
X1299845Y368126D02*
X1298155D01*
X1296593Y367479D01*
X1295397Y366283D01*
X1294750Y364721D01*
Y363030D01*
X1295397Y361468D01*
X1296593Y360273D01*
X1298155Y359626D01*
X1299845D01*
X1301407Y360273D01*
X1302603Y361468D01*
X1303250Y363030D01*
Y364721D01*
X1302603Y366283D01*
X1301407Y367479D01*
X1299845Y368126D01*
D02*
G37*
G36*
X1309345Y354750D02*
X1307655D01*
X1306093Y354103D01*
X1304897Y352907D01*
X1304250Y351345D01*
Y349655D01*
X1304897Y348093D01*
X1306093Y346897D01*
X1307655Y346250D01*
X1309345D01*
X1310907Y346897D01*
X1312103Y348093D01*
X1312750Y349655D01*
Y351345D01*
X1312103Y352907D01*
X1310907Y354103D01*
X1309345Y354750D01*
D02*
G37*
G36*
X176345Y347250D02*
X174655D01*
X173093Y346603D01*
X171897Y345407D01*
X171250Y343845D01*
Y342155D01*
X171897Y340593D01*
X173093Y339397D01*
X174655Y338750D01*
X176345D01*
X177907Y339397D01*
X179103Y340593D01*
X179750Y342155D01*
Y343845D01*
X179103Y345407D01*
X177907Y346603D01*
X176345Y347250D01*
D02*
G37*
G36*
X1021845Y337150D02*
X1020155D01*
X1018593Y336503D01*
X1017397Y335308D01*
X1016750Y333746D01*
Y332055D01*
X1017397Y330493D01*
X1018593Y329297D01*
X1020155Y328650D01*
X1021845D01*
X1023407Y329297D01*
X1024603Y330493D01*
X1025250Y332055D01*
Y333746D01*
X1024603Y335308D01*
X1023407Y336503D01*
X1021845Y337150D01*
D02*
G37*
G36*
X294845Y331750D02*
X293155D01*
X291593Y331103D01*
X290397Y329907D01*
X289750Y328345D01*
Y326655D01*
X290397Y325093D01*
X291593Y323897D01*
X293155Y323250D01*
X294845D01*
X296407Y323897D01*
X297603Y325093D01*
X298250Y326655D01*
Y328345D01*
X297603Y329907D01*
X296407Y331103D01*
X294845Y331750D01*
D02*
G37*
G36*
X977845Y307250D02*
X976155D01*
X974593Y306603D01*
X973397Y305407D01*
X972750Y303845D01*
Y302155D01*
X973202Y301063D01*
X972246Y300084D01*
X971845Y300250D01*
X970155D01*
X968593Y299603D01*
X967397Y298407D01*
X966750Y296845D01*
Y295155D01*
X967397Y293593D01*
X968593Y292397D01*
X970155Y291750D01*
X971845D01*
X973407Y292397D01*
X974603Y293593D01*
X975250Y295155D01*
Y296845D01*
X974798Y297938D01*
X975753Y298916D01*
X976155Y298750D01*
X977845D01*
X979407Y299397D01*
X980603Y300593D01*
X981250Y302155D01*
Y303845D01*
X980603Y305407D01*
X979407Y306603D01*
X977845Y307250D01*
D02*
G37*
G36*
X1066746Y304250D02*
X1065055D01*
X1063493Y303603D01*
X1062297Y302407D01*
X1061650Y300845D01*
Y299155D01*
X1062297Y297593D01*
X1063493Y296397D01*
X1065055Y295750D01*
X1066746D01*
X1068308Y296397D01*
X1069503Y297593D01*
X1070150Y299155D01*
Y300845D01*
X1069503Y302407D01*
X1068308Y303603D01*
X1066746Y304250D01*
D02*
G37*
G36*
X181345Y301250D02*
X179655D01*
X178093Y300603D01*
X176897Y299407D01*
X176250Y297845D01*
Y296155D01*
X176897Y294593D01*
X178093Y293397D01*
X179655Y292750D01*
X181345D01*
X182907Y293397D01*
X184103Y294593D01*
X184750Y296155D01*
Y297845D01*
X184103Y299407D01*
X182907Y300603D01*
X181345Y301250D01*
D02*
G37*
G36*
X332845Y294750D02*
X331155D01*
X329593Y294103D01*
X328397Y292907D01*
X327750Y291345D01*
Y289655D01*
X328397Y288093D01*
X329593Y286897D01*
X331155Y286250D01*
X332845D01*
X334407Y286897D01*
X335603Y288093D01*
X336250Y289655D01*
Y291345D01*
X335603Y292907D01*
X334407Y294103D01*
X332845Y294750D01*
D02*
G37*
G36*
X208995D02*
X207304D01*
X205742Y294103D01*
X204547Y292907D01*
X203900Y291345D01*
Y289655D01*
X204547Y288093D01*
X205742Y286897D01*
X207304Y286250D01*
X208995D01*
X210557Y286897D01*
X211753Y288093D01*
X212400Y289655D01*
Y291345D01*
X211753Y292907D01*
X210557Y294103D01*
X208995Y294750D01*
D02*
G37*
G36*
X1265645Y292750D02*
X1263955D01*
X1262393Y292103D01*
X1261197Y290907D01*
X1260550Y289345D01*
Y287655D01*
X1261197Y286093D01*
X1262393Y284897D01*
X1263955Y284250D01*
X1265645D01*
X1267207Y284897D01*
X1268403Y286093D01*
X1269050Y287655D01*
Y289345D01*
X1268403Y290907D01*
X1267207Y292103D01*
X1265645Y292750D01*
D02*
G37*
G36*
X1066746Y291250D02*
X1065055D01*
X1063493Y290603D01*
X1062297Y289407D01*
X1061650Y287845D01*
Y286155D01*
X1062297Y284593D01*
X1063493Y283397D01*
X1065055Y282750D01*
X1066746D01*
X1068308Y283397D01*
X1069503Y284593D01*
X1070150Y286155D01*
Y287845D01*
X1069503Y289407D01*
X1068308Y290603D01*
X1066746Y291250D01*
D02*
G37*
G36*
X233845Y289750D02*
X232155D01*
X230593Y289103D01*
X229397Y287908D01*
X228750Y286345D01*
Y284655D01*
X229397Y283093D01*
X230593Y281897D01*
X232155Y281250D01*
X233845D01*
X235407Y281897D01*
X236603Y283093D01*
X237250Y284655D01*
Y286345D01*
X236603Y287908D01*
X235407Y289103D01*
X233845Y289750D01*
D02*
G37*
G36*
X352845Y286250D02*
X351155D01*
X349593Y285603D01*
X348397Y284407D01*
X347750Y282845D01*
Y281155D01*
X348202Y280063D01*
X347246Y279084D01*
X346845Y279250D01*
X345155D01*
X343593Y278603D01*
X342397Y277407D01*
X341750Y275845D01*
Y274155D01*
X342397Y272593D01*
X343593Y271397D01*
X345155Y270750D01*
X346845D01*
X348407Y271397D01*
X349603Y272593D01*
X350250Y274155D01*
Y275845D01*
X349798Y276938D01*
X350754Y277916D01*
X351155Y277750D01*
X352845D01*
X354407Y278397D01*
X355603Y279593D01*
X356250Y281155D01*
Y282845D01*
X355603Y284407D01*
X354407Y285603D01*
X352845Y286250D01*
D02*
G37*
G36*
X984845Y293250D02*
X983155D01*
X981593Y292603D01*
X980397Y291407D01*
X979750Y289845D01*
Y288155D01*
X980397Y286593D01*
X981593Y285397D01*
X983155Y284750D01*
X984845D01*
X985246Y284916D01*
X986202Y283937D01*
X985750Y282845D01*
Y281155D01*
X986397Y279593D01*
X987593Y278397D01*
X989155Y277750D01*
X990845D01*
X992407Y278397D01*
X993603Y279593D01*
X994250Y281155D01*
Y282845D01*
X993603Y284407D01*
X992407Y285603D01*
X990845Y286250D01*
X989155D01*
X988754Y286084D01*
X987798Y287063D01*
X988250Y288155D01*
Y289845D01*
X987603Y291407D01*
X986407Y292603D01*
X984845Y293250D01*
D02*
G37*
G36*
X200095Y285750D02*
X198405D01*
X196843Y285103D01*
X195647Y283907D01*
X195000Y282345D01*
Y280655D01*
X195647Y279093D01*
X196843Y277897D01*
X198405Y277250D01*
X200095D01*
X201657Y277897D01*
X202853Y279093D01*
X203500Y280655D01*
Y282345D01*
X202853Y283907D01*
X201657Y285103D01*
X200095Y285750D01*
D02*
G37*
G36*
X250845Y285250D02*
X249155D01*
X247593Y284603D01*
X246397Y283407D01*
X245750Y281845D01*
Y280155D01*
X246397Y278593D01*
X247593Y277397D01*
X249155Y276750D01*
X250845D01*
X252407Y277397D01*
X253603Y278593D01*
X254250Y280155D01*
Y281845D01*
X253603Y283407D01*
X252407Y284603D01*
X250845Y285250D01*
D02*
G37*
G36*
X305845Y284750D02*
X304155D01*
X302593Y284103D01*
X301397Y282907D01*
X300750Y281345D01*
Y279655D01*
X301397Y278093D01*
X302593Y276897D01*
X304155Y276250D01*
X305845D01*
X307407Y276897D01*
X308603Y278093D01*
X309250Y279655D01*
Y281345D01*
X308603Y282907D01*
X307407Y284103D01*
X305845Y284750D01*
D02*
G37*
G36*
X292845D02*
X291155D01*
X289593Y284103D01*
X288397Y282907D01*
X287750Y281345D01*
Y279655D01*
X288397Y278093D01*
X289593Y276897D01*
X291155Y276250D01*
X292845D01*
X294407Y276897D01*
X295603Y278093D01*
X296250Y279655D01*
Y281345D01*
X295603Y282907D01*
X294407Y284103D01*
X292845Y284750D01*
D02*
G37*
G36*
X959845Y279250D02*
X958155D01*
X956593Y278603D01*
X955397Y277407D01*
X954750Y275845D01*
Y274155D01*
X955397Y272593D01*
X956490Y271500D01*
X955397Y270407D01*
X954750Y268845D01*
Y267155D01*
X955202Y266063D01*
X954246Y265084D01*
X953845Y265250D01*
X952155D01*
X950593Y264603D01*
X949397Y263407D01*
X948750Y261845D01*
Y260155D01*
X949048Y259436D01*
X948164Y258250D01*
X947155D01*
X945593Y257603D01*
X944397Y256407D01*
X943750Y254845D01*
Y253155D01*
X944397Y251593D01*
X945593Y250397D01*
X947155Y249750D01*
X948845D01*
X950407Y250397D01*
X951603Y251593D01*
X952250Y253155D01*
Y254845D01*
X951952Y255564D01*
X952836Y256750D01*
X953845D01*
X955407Y257397D01*
X956603Y258593D01*
X957250Y260155D01*
Y261845D01*
X956798Y262938D01*
X957754Y263916D01*
X958155Y263750D01*
X959845D01*
X961407Y264397D01*
X962603Y265593D01*
X963250Y267155D01*
Y268845D01*
X962603Y270407D01*
X961510Y271500D01*
X962603Y272593D01*
X963250Y274155D01*
Y275845D01*
X962603Y277407D01*
X961407Y278603D01*
X959845Y279250D01*
D02*
G37*
G36*
X318845Y270250D02*
X317155D01*
X315593Y269603D01*
X314397Y268407D01*
X313750Y266845D01*
Y265155D01*
X314397Y263593D01*
X315593Y262397D01*
X317155Y261750D01*
X318845D01*
X320407Y262397D01*
X321603Y263593D01*
X322250Y265155D01*
Y266845D01*
X321603Y268407D01*
X320407Y269603D01*
X318845Y270250D01*
D02*
G37*
G36*
X1051746Y262250D02*
X1050055D01*
X1048493Y261603D01*
X1047297Y260407D01*
X1046650Y258845D01*
Y257155D01*
X1047297Y255593D01*
X1048493Y254397D01*
X1050055Y253750D01*
X1051746D01*
X1053308Y254397D01*
X1054503Y255593D01*
X1055150Y257155D01*
Y258845D01*
X1054503Y260407D01*
X1053308Y261603D01*
X1051746Y262250D01*
D02*
G37*
G36*
X1256246Y269250D02*
X1254555D01*
X1252993Y268603D01*
X1251797Y267407D01*
X1251150Y265845D01*
Y264250D01*
X1250555D01*
X1248993Y263603D01*
X1247797Y262407D01*
X1247150Y260845D01*
Y259155D01*
X1247797Y257593D01*
X1248993Y256397D01*
X1250555Y255750D01*
X1251150D01*
Y254155D01*
X1251797Y252593D01*
X1252993Y251397D01*
X1254555Y250750D01*
X1256246D01*
X1257808Y251397D01*
X1259003Y252593D01*
X1259650Y254155D01*
Y255845D01*
X1259003Y257407D01*
X1257808Y258603D01*
X1256246Y259250D01*
X1255650D01*
Y260750D01*
X1256246D01*
X1257808Y261397D01*
X1259003Y262593D01*
X1259650Y264155D01*
Y265845D01*
X1259003Y267407D01*
X1257808Y268603D01*
X1256246Y269250D01*
D02*
G37*
G36*
X1051746Y246250D02*
X1050055D01*
X1048493Y245603D01*
X1047297Y244407D01*
X1046650Y242845D01*
Y241155D01*
X1047297Y239593D01*
X1048493Y238397D01*
X1050055Y237750D01*
X1051746D01*
X1053308Y238397D01*
X1054503Y239593D01*
X1055150Y241155D01*
Y242845D01*
X1054503Y244407D01*
X1053308Y245603D01*
X1051746Y246250D01*
D02*
G37*
G36*
X1252246Y244250D02*
X1250555D01*
X1248993Y243603D01*
X1247797Y242407D01*
X1247150Y240845D01*
Y239155D01*
X1247797Y237593D01*
X1248993Y236397D01*
X1250555Y235750D01*
X1252246D01*
X1253808Y236397D01*
X1255003Y237593D01*
X1255650Y239155D01*
Y240845D01*
X1255003Y242407D01*
X1253808Y243603D01*
X1252246Y244250D01*
D02*
G37*
G36*
X233845D02*
X232155D01*
X230593Y243603D01*
X229397Y242407D01*
X228750Y240845D01*
Y239155D01*
X229397Y237593D01*
X230593Y236397D01*
X232155Y235750D01*
X233845D01*
X235407Y236397D01*
X236603Y237593D01*
X237250Y239155D01*
Y240845D01*
X236603Y242407D01*
X235407Y243603D01*
X233845Y244250D01*
D02*
G37*
G36*
X182845Y237750D02*
X181155D01*
X179593Y237103D01*
X178397Y235907D01*
X177750Y234345D01*
Y232655D01*
X178397Y231093D01*
X179593Y229897D01*
X181155Y229250D01*
X182845D01*
X184407Y229897D01*
X185603Y231093D01*
X186250Y232655D01*
Y234345D01*
X185603Y235907D01*
X184407Y237103D01*
X182845Y237750D01*
D02*
G37*
G36*
X285845Y227250D02*
X284155D01*
X282593Y226603D01*
X281397Y225407D01*
X280750Y223845D01*
Y222155D01*
X281397Y220593D01*
X282593Y219397D01*
X284155Y218750D01*
X285845D01*
X287407Y219397D01*
X288603Y220593D01*
X289250Y222155D01*
Y223845D01*
X288603Y225407D01*
X287407Y226603D01*
X285845Y227250D01*
D02*
G37*
G36*
X1194746Y226500D02*
X1193055D01*
X1191493Y225853D01*
X1190297Y224657D01*
X1189650Y223095D01*
Y221405D01*
X1190297Y219843D01*
X1191493Y218647D01*
X1193055Y218000D01*
X1194746D01*
X1196308Y218647D01*
X1197503Y219843D01*
X1198150Y221405D01*
Y223095D01*
X1197503Y224657D01*
X1196308Y225853D01*
X1194746Y226500D01*
D02*
G37*
G36*
X1149845Y222250D02*
X1148155D01*
X1146593Y221603D01*
X1145397Y220407D01*
X1144750Y218845D01*
Y217155D01*
X1145397Y215593D01*
X1146593Y214397D01*
X1148155Y213750D01*
X1149750D01*
Y212155D01*
X1150397Y210593D01*
X1151593Y209397D01*
X1153155Y208750D01*
X1154845D01*
X1156407Y209397D01*
X1157603Y210593D01*
X1158250Y212155D01*
Y213845D01*
X1157603Y215407D01*
X1156407Y216603D01*
X1154845Y217250D01*
X1153250D01*
Y218845D01*
X1152603Y220407D01*
X1151407Y221603D01*
X1149845Y222250D01*
D02*
G37*
G36*
X1142845Y212250D02*
X1141155D01*
X1139593Y211603D01*
X1138397Y210407D01*
X1137750Y208845D01*
Y207155D01*
X1138397Y205593D01*
X1139593Y204397D01*
X1141155Y203750D01*
X1142845D01*
X1144407Y204397D01*
X1145603Y205593D01*
X1146250Y207155D01*
Y208845D01*
X1145603Y210407D01*
X1144407Y211603D01*
X1142845Y212250D01*
D02*
G37*
G36*
X1026845Y199750D02*
X1025155D01*
X1023593Y199103D01*
X1022397Y197908D01*
X1021750Y196346D01*
Y194655D01*
X1022397Y193093D01*
X1023593Y191898D01*
X1025155Y191250D01*
X1026845D01*
X1028407Y191898D01*
X1029603Y193093D01*
X1030250Y194655D01*
Y196346D01*
X1029603Y197908D01*
X1028407Y199103D01*
X1026845Y199750D01*
D02*
G37*
G36*
X1156246Y194126D02*
X1154555D01*
X1152993Y193479D01*
X1151797Y192283D01*
X1151150Y190721D01*
Y189030D01*
X1151797Y187468D01*
X1152993Y186273D01*
X1154555Y185626D01*
X1156246D01*
X1157808Y186273D01*
X1159003Y187468D01*
X1159650Y189030D01*
Y190721D01*
X1159003Y192283D01*
X1157808Y193479D01*
X1156246Y194126D01*
D02*
G37*
G36*
X849051Y189000D02*
X846549D01*
X844133Y188353D01*
X841967Y187102D01*
X840198Y185333D01*
X838947Y183167D01*
X838300Y180751D01*
Y178249D01*
X838947Y175833D01*
X840198Y173667D01*
X841967Y171898D01*
X844133Y170648D01*
X846549Y170000D01*
X849051D01*
X851467Y170648D01*
X853633Y171898D01*
X855402Y173667D01*
X856653Y175833D01*
X857300Y178249D01*
Y180751D01*
X856653Y183167D01*
X855402Y185333D01*
X853633Y187102D01*
X851467Y188353D01*
X849051Y189000D01*
D02*
G37*
G36*
X798251D02*
X795749D01*
X793333Y188353D01*
X791167Y187102D01*
X789398Y185333D01*
X788147Y183167D01*
X787500Y180751D01*
Y178249D01*
X788147Y175833D01*
X789398Y173667D01*
X791167Y171898D01*
X793333Y170648D01*
X795749Y170000D01*
X798251D01*
X800667Y170648D01*
X802833Y171898D01*
X804602Y173667D01*
X805853Y175833D01*
X806500Y178249D01*
Y180751D01*
X805853Y183167D01*
X804602Y185333D01*
X802833Y187102D01*
X800667Y188353D01*
X798251Y189000D01*
D02*
G37*
G36*
X772851D02*
X770349D01*
X767933Y188353D01*
X765767Y187102D01*
X763998Y185333D01*
X762747Y183167D01*
X762100Y180751D01*
Y178249D01*
X762747Y175833D01*
X763998Y173667D01*
X765767Y171898D01*
X767933Y170648D01*
X770349Y170000D01*
X772851D01*
X775267Y170648D01*
X777433Y171898D01*
X779202Y173667D01*
X780453Y175833D01*
X781100Y178249D01*
Y180751D01*
X780453Y183167D01*
X779202Y185333D01*
X777433Y187102D01*
X775267Y188353D01*
X772851Y189000D01*
D02*
G37*
G36*
X755700D02*
X736700D01*
Y170000D01*
X755700D01*
Y189000D01*
D02*
G37*
G36*
X996845Y178250D02*
X995155D01*
X993593Y177603D01*
X992397Y176407D01*
X991750Y174845D01*
Y173155D01*
X992397Y171593D01*
X993593Y170397D01*
X995155Y169750D01*
X996845D01*
X998407Y170397D01*
X999603Y171593D01*
X1000250Y173155D01*
Y174845D01*
X999603Y176407D01*
X998407Y177603D01*
X996845Y178250D01*
D02*
G37*
G36*
X272845Y175250D02*
X271155D01*
X269593Y174603D01*
X268397Y173407D01*
X267750Y171845D01*
Y170155D01*
X268397Y168593D01*
X269593Y167397D01*
X271155Y166750D01*
X272845D01*
X274407Y167397D01*
X275603Y168593D01*
X276250Y170155D01*
Y171845D01*
X275603Y173407D01*
X274407Y174603D01*
X272845Y175250D01*
D02*
G37*
G36*
X282845Y170250D02*
X281155D01*
X279593Y169603D01*
X278397Y168407D01*
X277750Y166845D01*
Y165155D01*
X278397Y163593D01*
X279593Y162397D01*
X281155Y161750D01*
X282845D01*
X284408Y162397D01*
X285603Y163593D01*
X286250Y165155D01*
Y166845D01*
X285603Y168407D01*
X284408Y169603D01*
X282845Y170250D01*
D02*
G37*
G36*
X1124246Y168250D02*
X1122555D01*
X1120993Y167603D01*
X1119797Y166407D01*
X1119150Y164845D01*
Y163155D01*
X1119797Y161593D01*
X1120993Y160397D01*
X1122555Y159750D01*
X1124246D01*
X1125808Y160397D01*
X1127003Y161593D01*
X1127650Y163155D01*
Y164845D01*
X1127003Y166407D01*
X1125808Y167603D01*
X1124246Y168250D01*
D02*
G37*
G36*
X1141594Y170000D02*
X1139207D01*
X1137001Y169087D01*
X1135314Y167399D01*
X1134400Y165194D01*
Y162807D01*
X1135314Y160601D01*
X1137001Y158913D01*
X1139207Y158000D01*
X1141594D01*
X1143799Y158913D01*
X1145487Y160601D01*
X1146400Y162807D01*
Y165194D01*
X1145487Y167399D01*
X1143799Y169087D01*
X1141594Y170000D01*
D02*
G37*
G36*
X258845Y156250D02*
X257155D01*
X255593Y155603D01*
X254397Y154407D01*
X253750Y152845D01*
Y151155D01*
X254397Y149593D01*
X255593Y148397D01*
X257155Y147750D01*
X258845D01*
X260407Y148397D01*
X261603Y149593D01*
X262250Y151155D01*
Y152845D01*
X261603Y154407D01*
X260407Y155603D01*
X258845Y156250D01*
D02*
G37*
G36*
X297845Y152250D02*
X296155D01*
X294593Y151603D01*
X293397Y150407D01*
X292750Y148845D01*
Y147155D01*
X293397Y145593D01*
X294593Y144397D01*
X296155Y143750D01*
X297845D01*
X299407Y144397D01*
X300603Y145593D01*
X301250Y147155D01*
Y148845D01*
X300603Y150407D01*
X299407Y151603D01*
X297845Y152250D01*
D02*
G37*
G36*
X732845Y147750D02*
X731155D01*
X729593Y147103D01*
X728397Y145907D01*
X727750Y144345D01*
Y142655D01*
X728397Y141093D01*
X729593Y139897D01*
X731155Y139250D01*
X732845D01*
X734407Y139897D01*
X735603Y141093D01*
X736250Y142655D01*
Y144345D01*
X735603Y145907D01*
X734407Y147103D01*
X732845Y147750D01*
D02*
G37*
G36*
X622345D02*
X620655D01*
X619093Y147103D01*
X617897Y145907D01*
X617250Y144345D01*
Y142655D01*
X617897Y141093D01*
X619093Y139897D01*
X620655Y139250D01*
X622345D01*
X623907Y139897D01*
X625103Y141093D01*
X625750Y142655D01*
Y144345D01*
X625103Y145907D01*
X623907Y147103D01*
X622345Y147750D01*
D02*
G37*
G36*
X512345D02*
X510655D01*
X509093Y147103D01*
X507897Y145907D01*
X507250Y144345D01*
Y142655D01*
X507897Y141093D01*
X509093Y139897D01*
X510655Y139250D01*
X512345D01*
X513907Y139897D01*
X515103Y141093D01*
X515750Y142655D01*
Y144345D01*
X515103Y145907D01*
X513907Y147103D01*
X512345Y147750D01*
D02*
G37*
G36*
X402345D02*
X400655D01*
X399093Y147103D01*
X397897Y145907D01*
X397250Y144345D01*
Y142655D01*
X397897Y141093D01*
X399093Y139897D01*
X400655Y139250D01*
X402345D01*
X403907Y139897D01*
X405103Y141093D01*
X405750Y142655D01*
Y144345D01*
X405103Y145907D01*
X403907Y147103D01*
X402345Y147750D01*
D02*
G37*
G36*
X292845Y142250D02*
X291155D01*
X289593Y141603D01*
X288397Y140407D01*
X287750Y138845D01*
Y137155D01*
X288397Y135592D01*
X289593Y134397D01*
X291155Y133750D01*
X292845D01*
X294408Y134397D01*
X295603Y135592D01*
X296250Y137155D01*
Y138845D01*
X295603Y140407D01*
X294408Y141603D01*
X292845Y142250D01*
D02*
G37*
G36*
X258845D02*
X257155D01*
X255593Y141603D01*
X254397Y140407D01*
X253750Y138845D01*
Y137155D01*
X254397Y135592D01*
X255593Y134397D01*
X257155Y133750D01*
X258845D01*
X260407Y134397D01*
X261603Y135592D01*
X262250Y137155D01*
Y138845D01*
X261603Y140407D01*
X260407Y141603D01*
X258845Y142250D01*
D02*
G37*
G36*
X943845Y146250D02*
X942155D01*
X940593Y145603D01*
X939397Y144407D01*
X938750Y142845D01*
Y141250D01*
X937155D01*
X935593Y140603D01*
X934397Y139407D01*
X933750Y137845D01*
Y136155D01*
X934397Y134593D01*
X935593Y133397D01*
X937155Y132750D01*
X938845D01*
X940407Y133397D01*
X941603Y134593D01*
X942250Y136155D01*
Y137750D01*
X943845D01*
X945407Y138397D01*
X946603Y139593D01*
X947250Y141155D01*
Y142845D01*
X946603Y144407D01*
X945407Y145603D01*
X943845Y146250D01*
D02*
G37*
G36*
X1009845Y138250D02*
X1008155D01*
X1006593Y137603D01*
X1005397Y136407D01*
X1004750Y134845D01*
Y133155D01*
X1005397Y131593D01*
X1006593Y130397D01*
X1008155Y129750D01*
X1009845D01*
X1011407Y130397D01*
X1012603Y131593D01*
X1013250Y133155D01*
Y134845D01*
X1012603Y136407D01*
X1011407Y137603D01*
X1009845Y138250D01*
D02*
G37*
G36*
X247345Y136750D02*
X245655D01*
X244093Y136103D01*
X242897Y134907D01*
X242250Y133345D01*
Y131655D01*
X242897Y130092D01*
X244093Y128897D01*
X245655Y128250D01*
X247345D01*
X248908Y128897D01*
X250103Y130092D01*
X250750Y131655D01*
Y133345D01*
X250103Y134907D01*
X248908Y136103D01*
X247345Y136750D01*
D02*
G37*
G36*
X282845Y128250D02*
X281155D01*
X279593Y127603D01*
X279000Y127010D01*
X278407Y127603D01*
X276845Y128250D01*
X275155D01*
X273593Y127603D01*
X272397Y126407D01*
X271750Y124845D01*
Y123155D01*
X272397Y121593D01*
X273593Y120397D01*
X275155Y119750D01*
X276845D01*
X278407Y120397D01*
X279000Y120990D01*
X279593Y120397D01*
X281155Y119750D01*
X282845D01*
X284407Y120397D01*
X285603Y121593D01*
X286250Y123155D01*
Y124845D01*
X285603Y126407D01*
X284407Y127603D01*
X282845Y128250D01*
D02*
G37*
G36*
X984845Y133250D02*
X983155D01*
X981593Y132603D01*
X980397Y131407D01*
X979750Y129845D01*
Y128155D01*
X980397Y126593D01*
X981593Y125397D01*
X983155Y124750D01*
X984845D01*
X986407Y125397D01*
X987603Y126593D01*
X988250Y128155D01*
Y129845D01*
X987603Y131407D01*
X986407Y132603D01*
X984845Y133250D01*
D02*
G37*
G36*
X130500Y141900D02*
X111500D01*
Y122900D01*
X130500D01*
Y141900D01*
D02*
G37*
G36*
X305845Y128250D02*
X304155D01*
X302593Y127603D01*
X301397Y126407D01*
X300750Y124845D01*
Y123155D01*
X301397Y121593D01*
X302593Y120397D01*
X304155Y119750D01*
X305845D01*
X307407Y120397D01*
X308603Y121593D01*
X309250Y123155D01*
Y124845D01*
X308603Y126407D01*
X307407Y127603D01*
X305845Y128250D01*
D02*
G37*
G36*
X1315845Y124250D02*
X1314155D01*
X1312593Y123603D01*
X1311397Y122407D01*
X1310750Y120845D01*
Y119155D01*
X1311397Y117593D01*
X1312593Y116397D01*
X1314155Y115750D01*
X1315845D01*
X1317407Y116397D01*
X1318603Y117593D01*
X1319250Y119155D01*
Y120845D01*
X1318603Y122407D01*
X1317407Y123603D01*
X1315845Y124250D01*
D02*
G37*
G36*
X971845D02*
X970155D01*
X968593Y123603D01*
X967397Y122407D01*
X966750Y120845D01*
Y119155D01*
X967397Y117593D01*
X968593Y116397D01*
X970155Y115750D01*
X971845D01*
X973407Y116397D01*
X974603Y117593D01*
X975250Y119155D01*
Y120845D01*
X974603Y122407D01*
X973407Y123603D01*
X971845Y124250D01*
D02*
G37*
G36*
X1082845Y117250D02*
X1081155D01*
X1079593Y116603D01*
X1078397Y115407D01*
X1077750Y113845D01*
Y112155D01*
X1078397Y110593D01*
X1079593Y109397D01*
X1081155Y108750D01*
X1082845D01*
X1084407Y109397D01*
X1085603Y110593D01*
X1086250Y112155D01*
Y113845D01*
X1085603Y115407D01*
X1084407Y116603D01*
X1082845Y117250D01*
D02*
G37*
G36*
X1067845D02*
X1066155D01*
X1064593Y116603D01*
X1063397Y115407D01*
X1062750Y113845D01*
Y112155D01*
X1063397Y110593D01*
X1064593Y109397D01*
X1066155Y108750D01*
X1067845D01*
X1069407Y109397D01*
X1070603Y110593D01*
X1071250Y112155D01*
Y113845D01*
X1070603Y115407D01*
X1069407Y116603D01*
X1067845Y117250D01*
D02*
G37*
G36*
X1052845D02*
X1051155D01*
X1049593Y116603D01*
X1048397Y115407D01*
X1047750Y113845D01*
Y112155D01*
X1048397Y110593D01*
X1049593Y109397D01*
X1051155Y108750D01*
X1052845D01*
X1054407Y109397D01*
X1055603Y110593D01*
X1056250Y112155D01*
Y113845D01*
X1055603Y115407D01*
X1054407Y116603D01*
X1052845Y117250D01*
D02*
G37*
G36*
X959845Y114250D02*
X958155D01*
X956593Y113603D01*
X955397Y112407D01*
X954750Y110845D01*
Y109155D01*
X955397Y107593D01*
X956593Y106397D01*
X958155Y105750D01*
X959845D01*
X961407Y106397D01*
X962603Y107593D01*
X963250Y109155D01*
Y110845D01*
X962603Y112407D01*
X961407Y113603D01*
X959845Y114250D01*
D02*
G37*
G36*
X672095Y114250D02*
X670405D01*
X668843Y113603D01*
X667647Y112407D01*
X667000Y110845D01*
Y109155D01*
X667647Y107593D01*
X668843Y106397D01*
X670405Y105750D01*
X672095D01*
X673658Y106397D01*
X674853Y107593D01*
X675500Y109155D01*
Y110845D01*
X674853Y112407D01*
X673658Y113603D01*
X672095Y114250D01*
D02*
G37*
G36*
X562095D02*
X560405D01*
X558843Y113603D01*
X557647Y112407D01*
X557000Y110845D01*
Y109155D01*
X557647Y107593D01*
X558843Y106397D01*
X560405Y105750D01*
X562095D01*
X563657Y106397D01*
X564853Y107593D01*
X565500Y109155D01*
Y110845D01*
X564853Y112407D01*
X563657Y113603D01*
X562095Y114250D01*
D02*
G37*
G36*
X452095D02*
X450405D01*
X448843Y113603D01*
X447647Y112407D01*
X447000Y110845D01*
Y109155D01*
X447647Y107593D01*
X448843Y106397D01*
X450405Y105750D01*
X452095D01*
X453657Y106397D01*
X454853Y107593D01*
X455500Y109155D01*
Y110845D01*
X454853Y112407D01*
X453657Y113603D01*
X452095Y114250D01*
D02*
G37*
G36*
X342095D02*
X340405D01*
X338843Y113603D01*
X337647Y112407D01*
X337000Y110845D01*
Y109155D01*
X337647Y107593D01*
X338843Y106397D01*
X340405Y105750D01*
X342095D01*
X343657Y106397D01*
X344853Y107593D01*
X345500Y109155D01*
Y110845D01*
X344853Y112407D01*
X343657Y113603D01*
X342095Y114250D01*
D02*
G37*
G36*
X857845Y110250D02*
X856155D01*
X854593Y109603D01*
X853397Y108407D01*
X852750Y106845D01*
Y105155D01*
X853397Y103593D01*
X854593Y102397D01*
X856155Y101750D01*
X857845D01*
X859408Y102397D01*
X860603Y103593D01*
X861250Y105155D01*
Y106845D01*
X860603Y108407D01*
X859408Y109603D01*
X857845Y110250D01*
D02*
G37*
G36*
X1315845Y109250D02*
X1314155D01*
X1312593Y108603D01*
X1311397Y107407D01*
X1310750Y105845D01*
Y104155D01*
X1311397Y102593D01*
X1312593Y101397D01*
X1314155Y100750D01*
X1315845D01*
X1317407Y101397D01*
X1318603Y102593D01*
X1319250Y104155D01*
Y105845D01*
X1318603Y107407D01*
X1317407Y108603D01*
X1315845Y109250D01*
D02*
G37*
G36*
X122251Y116500D02*
X119749D01*
X117333Y115852D01*
X115167Y114602D01*
X113398Y112833D01*
X112148Y110667D01*
X111500Y108251D01*
Y105749D01*
X112148Y103333D01*
X113398Y101167D01*
X115167Y99398D01*
X117333Y98147D01*
X119749Y97500D01*
X122251D01*
X124667Y98147D01*
X126833Y99398D01*
X128602Y101167D01*
X129853Y103333D01*
X130500Y105749D01*
Y108251D01*
X129853Y110667D01*
X128602Y112833D01*
X126833Y114602D01*
X124667Y115852D01*
X122251Y116500D01*
D02*
G37*
G36*
X15845Y94250D02*
X14155D01*
X12593Y93603D01*
X12500Y93510D01*
X12407Y93603D01*
X10845Y94250D01*
X9155D01*
X7593Y93603D01*
X6397Y92407D01*
X5750Y90845D01*
Y89155D01*
X6397Y87593D01*
X6490Y87500D01*
X6397Y87407D01*
X5750Y85845D01*
Y84155D01*
X6397Y82593D01*
X7593Y81397D01*
X9155Y80750D01*
X10845D01*
X12407Y81397D01*
X12500Y81490D01*
X12593Y81397D01*
X14155Y80750D01*
X15845D01*
X17407Y81397D01*
X18603Y82593D01*
X19250Y84155D01*
Y85845D01*
X18603Y87407D01*
X18510Y87500D01*
X18603Y87593D01*
X19250Y89155D01*
Y90845D01*
X18603Y92407D01*
X17407Y93603D01*
X15845Y94250D01*
D02*
G37*
G36*
X1157845Y101250D02*
X1156155D01*
X1154593Y100603D01*
X1153397Y99407D01*
X1152750Y97845D01*
Y96155D01*
X1153397Y94593D01*
X1154593Y93397D01*
X1156155Y92750D01*
X1157845D01*
X1159407Y93397D01*
X1160603Y94593D01*
X1161250Y96155D01*
Y97845D01*
X1160603Y99407D01*
X1159407Y100603D01*
X1157845Y101250D01*
D02*
G37*
G36*
X1142845D02*
X1141155D01*
X1139593Y100603D01*
X1138397Y99407D01*
X1137750Y97845D01*
Y96155D01*
X1138397Y94593D01*
X1139593Y93397D01*
X1141155Y92750D01*
X1142845D01*
X1144407Y93397D01*
X1145603Y94593D01*
X1146250Y96155D01*
Y97845D01*
X1145603Y99407D01*
X1144407Y100603D01*
X1142845Y101250D01*
D02*
G37*
G36*
X1112845D02*
X1111155D01*
X1109593Y100603D01*
X1108397Y99407D01*
X1107750Y97845D01*
Y96155D01*
X1108397Y94593D01*
X1109593Y93397D01*
X1111155Y92750D01*
X1112845D01*
X1114407Y93397D01*
X1115603Y94593D01*
X1116250Y96155D01*
Y97845D01*
X1115603Y99407D01*
X1114407Y100603D01*
X1112845Y101250D01*
D02*
G37*
G36*
X1315845Y94250D02*
X1314155D01*
X1312593Y93603D01*
X1311397Y92407D01*
X1310750Y90845D01*
Y89155D01*
X1311397Y87593D01*
X1312593Y86397D01*
X1314155Y85750D01*
X1315845D01*
X1317407Y86397D01*
X1318603Y87593D01*
X1319250Y89155D01*
Y90845D01*
X1318603Y92407D01*
X1317407Y93603D01*
X1315845Y94250D01*
D02*
G37*
G36*
X287345Y91750D02*
X285655D01*
X284093Y91103D01*
X282897Y89907D01*
X282250Y88345D01*
Y86655D01*
X282897Y85093D01*
X284093Y83897D01*
X285655Y83250D01*
X287345D01*
X288907Y83897D01*
X290103Y85093D01*
X290750Y86655D01*
Y88345D01*
X290103Y89907D01*
X288907Y91103D01*
X287345Y91750D01*
D02*
G37*
G36*
X1126845Y89250D02*
X1125155D01*
X1123593Y88603D01*
X1122397Y87407D01*
X1121750Y85845D01*
Y84155D01*
X1122397Y82593D01*
X1123593Y81397D01*
X1125155Y80750D01*
X1126845D01*
X1128407Y81397D01*
X1129603Y82593D01*
X1130250Y84155D01*
Y85845D01*
X1129603Y87407D01*
X1128407Y88603D01*
X1126845Y89250D01*
D02*
G37*
G36*
X1135245Y83778D02*
X1133555D01*
X1131993Y83131D01*
X1130797Y81935D01*
X1130150Y80373D01*
Y78683D01*
X1130797Y77120D01*
X1131993Y75925D01*
X1133555Y75278D01*
X1135245D01*
X1136807Y75925D01*
X1138003Y77120D01*
X1138650Y78683D01*
Y80373D01*
X1138003Y81935D01*
X1136807Y83131D01*
X1135245Y83778D01*
D02*
G37*
G36*
X1083295Y79278D02*
X1081605D01*
X1080043Y78631D01*
X1078847Y77435D01*
X1078200Y75873D01*
Y74183D01*
X1078847Y72621D01*
X1080043Y71425D01*
X1081605Y70778D01*
X1083295D01*
X1084857Y71425D01*
X1086053Y72621D01*
X1086700Y74183D01*
Y75873D01*
X1086053Y77435D01*
X1084857Y78631D01*
X1083295Y79278D01*
D02*
G37*
G36*
X1126245Y78778D02*
X1124555D01*
X1122993Y78131D01*
X1121797Y76935D01*
X1121150Y75373D01*
Y73683D01*
X1121797Y72120D01*
X1122993Y70925D01*
X1124555Y70278D01*
X1126245D01*
X1127807Y70925D01*
X1129003Y72120D01*
X1129650Y73683D01*
Y75373D01*
X1129003Y76935D01*
X1127807Y78131D01*
X1126245Y78778D01*
D02*
G37*
G36*
X1112245Y78778D02*
X1110555D01*
X1108993Y78131D01*
X1107797Y76935D01*
X1107150Y75373D01*
Y73683D01*
X1107797Y72120D01*
X1108993Y70925D01*
X1110555Y70278D01*
X1112245D01*
X1113807Y70925D01*
X1115003Y72120D01*
X1115650Y73683D01*
Y75373D01*
X1115003Y76935D01*
X1113807Y78131D01*
X1112245Y78778D01*
D02*
G37*
G36*
X201251Y84900D02*
X198749D01*
X196333Y84253D01*
X194167Y83002D01*
X192398Y81233D01*
X191147Y79067D01*
X190500Y76651D01*
Y74149D01*
X191147Y71733D01*
X192398Y69567D01*
X194167Y67798D01*
X196333Y66547D01*
X198749Y65900D01*
X201251D01*
X203667Y66547D01*
X205833Y67798D01*
X207602Y69567D01*
X208853Y71733D01*
X209500Y74149D01*
Y76651D01*
X208853Y79067D01*
X207602Y81233D01*
X205833Y83002D01*
X203667Y84253D01*
X201251Y84900D01*
D02*
G37*
G36*
X130500Y84500D02*
X111500D01*
Y65500D01*
X130500D01*
Y84500D01*
D02*
G37*
G36*
X1098245Y68778D02*
X1096555D01*
X1094993Y68131D01*
X1093797Y66935D01*
X1093150Y65373D01*
Y63683D01*
X1093797Y62120D01*
X1094993Y60925D01*
X1096555Y60278D01*
X1098245D01*
X1099807Y60925D01*
X1101003Y62120D01*
X1101650Y63683D01*
Y65373D01*
X1101003Y66935D01*
X1099807Y68131D01*
X1098245Y68778D01*
D02*
G37*
G36*
X768251Y77900D02*
X765749D01*
X763333Y77253D01*
X761167Y76002D01*
X759398Y74233D01*
X758147Y72067D01*
X757500Y69651D01*
Y67149D01*
X758147Y64733D01*
X759398Y62567D01*
X761167Y60798D01*
X763333Y59547D01*
X765749Y58900D01*
X768251D01*
X770667Y59547D01*
X772833Y60798D01*
X774602Y62567D01*
X775853Y64733D01*
X776500Y67149D01*
Y69651D01*
X775853Y72067D01*
X774602Y74233D01*
X772833Y76002D01*
X770667Y77253D01*
X768251Y77900D01*
D02*
G37*
G36*
X154345Y64250D02*
X152655D01*
X151093Y63603D01*
X149897Y62407D01*
X149250Y60845D01*
Y59155D01*
X149897Y57593D01*
X151093Y56397D01*
X152655Y55750D01*
X154345D01*
X155907Y56397D01*
X157103Y57593D01*
X157750Y59155D01*
Y60845D01*
X157103Y62407D01*
X155907Y63603D01*
X154345Y64250D01*
D02*
G37*
G36*
X1138245Y63778D02*
X1136555D01*
X1134993Y63131D01*
X1133797Y61935D01*
X1133150Y60373D01*
Y58683D01*
X1133797Y57120D01*
X1134993Y55925D01*
X1136555Y55278D01*
X1138245D01*
X1139807Y55925D01*
X1141003Y57120D01*
X1141650Y58683D01*
Y60373D01*
X1141003Y61935D01*
X1139807Y63131D01*
X1138245Y63778D01*
D02*
G37*
G36*
X1126845Y45250D02*
X1125155D01*
X1123593Y44603D01*
X1122500Y43510D01*
X1121407Y44603D01*
X1119845Y45250D01*
X1118155D01*
X1116593Y44603D01*
X1115397Y43407D01*
X1114750Y41845D01*
Y40155D01*
X1115397Y38593D01*
X1116593Y37397D01*
X1118155Y36750D01*
X1119845D01*
X1121407Y37397D01*
X1122500Y38490D01*
X1123593Y37397D01*
X1125155Y36750D01*
X1126845D01*
X1128407Y37397D01*
X1129603Y38593D01*
X1130250Y40155D01*
Y41845D01*
X1129603Y43407D01*
X1128407Y44603D01*
X1126845Y45250D01*
D02*
G37*
G36*
X1106745Y51278D02*
X1105055D01*
X1103493Y50631D01*
X1102297Y49435D01*
X1101650Y47873D01*
Y46183D01*
X1102297Y44621D01*
X1103493Y43425D01*
X1105055Y42778D01*
X1106745D01*
X1108307Y43425D01*
X1109503Y44621D01*
X1110150Y46183D01*
Y47873D01*
X1109503Y49435D01*
X1108307Y50631D01*
X1106745Y51278D01*
D02*
G37*
G36*
X209500Y59500D02*
X190500D01*
Y40500D01*
X209500D01*
Y59500D01*
D02*
G37*
G36*
X122251Y59100D02*
X119749D01*
X117333Y58453D01*
X115167Y57202D01*
X113398Y55433D01*
X112147Y53267D01*
X111500Y50851D01*
Y48349D01*
X112147Y45933D01*
X113398Y43767D01*
X115167Y41998D01*
X117333Y40747D01*
X119749Y40100D01*
X122251D01*
X124667Y40747D01*
X126833Y41998D01*
X128602Y43767D01*
X129853Y45933D01*
X130500Y48349D01*
Y50851D01*
X129853Y53267D01*
X128602Y55433D01*
X126833Y57202D01*
X124667Y58453D01*
X122251Y59100D01*
D02*
G37*
G36*
X913500Y56528D02*
X894500D01*
Y37528D01*
X913500D01*
Y56528D01*
D02*
G37*
G36*
X847500Y55500D02*
X828500D01*
Y36500D01*
X847500D01*
Y55500D01*
D02*
G37*
G36*
X1098245Y44778D02*
X1096555D01*
X1094993Y44131D01*
X1093797Y42935D01*
X1093150Y41373D01*
Y39683D01*
X1093797Y38121D01*
X1094993Y36925D01*
X1096555Y36278D01*
X1098245D01*
X1099807Y36925D01*
X1101003Y38121D01*
X1101650Y39683D01*
Y41373D01*
X1101003Y42935D01*
X1099807Y44131D01*
X1098245Y44778D01*
D02*
G37*
G36*
X768251Y52500D02*
X765749D01*
X763333Y51853D01*
X761167Y50602D01*
X759398Y48833D01*
X758147Y46667D01*
X757500Y44251D01*
Y41749D01*
X758147Y39333D01*
X759398Y37167D01*
X761167Y35398D01*
X763333Y34147D01*
X765749Y33500D01*
X768251D01*
X770667Y34147D01*
X772833Y35398D01*
X774602Y37167D01*
X775853Y39333D01*
X776500Y41749D01*
Y44251D01*
X775853Y46667D01*
X774602Y48833D01*
X772833Y50602D01*
X770667Y51853D01*
X768251Y52500D01*
D02*
G37*
G36*
X1261645Y34250D02*
X1259955D01*
X1258393Y33603D01*
X1257197Y32407D01*
X1256550Y30845D01*
Y29155D01*
X1257197Y27593D01*
X1258393Y26397D01*
X1259955Y25750D01*
X1261645D01*
X1263207Y26397D01*
X1264403Y27593D01*
X1265050Y29155D01*
Y30845D01*
X1264403Y32407D01*
X1263207Y33603D01*
X1261645Y34250D01*
D02*
G37*
G36*
X1126845Y31250D02*
X1125155D01*
X1123593Y30603D01*
X1122397Y29407D01*
X1121750Y27845D01*
Y26155D01*
X1122397Y24593D01*
X1123593Y23397D01*
X1125155Y22750D01*
X1126845D01*
X1128407Y23397D01*
X1129603Y24593D01*
X1130250Y26155D01*
Y27845D01*
X1129603Y29407D01*
X1128407Y30603D01*
X1126845Y31250D01*
D02*
G37*
G36*
X1156245Y26778D02*
X1154555D01*
X1152993Y26131D01*
X1151797Y24935D01*
X1151150Y23373D01*
Y21683D01*
X1151797Y20120D01*
X1152993Y18925D01*
X1154555Y18278D01*
X1156245D01*
X1157807Y18925D01*
X1159003Y20120D01*
X1159650Y21683D01*
Y23373D01*
X1159003Y24935D01*
X1157807Y26131D01*
X1156245Y26778D01*
D02*
G37*
G36*
X1070595Y24278D02*
X1068905D01*
X1067343Y23631D01*
X1066147Y22435D01*
X1065500Y20873D01*
Y19183D01*
X1066147Y17621D01*
X1067343Y16425D01*
X1068905Y15778D01*
X1070595D01*
X1072157Y16425D01*
X1073353Y17621D01*
X1074000Y19183D01*
Y20873D01*
X1073353Y22435D01*
X1072157Y23631D01*
X1070595Y24278D01*
D02*
G37*
G36*
X1057895D02*
X1056205D01*
X1054643Y23631D01*
X1053447Y22435D01*
X1052800Y20873D01*
Y19183D01*
X1053447Y17621D01*
X1054643Y16425D01*
X1056205Y15778D01*
X1057895D01*
X1059457Y16425D01*
X1060653Y17621D01*
X1061300Y19183D01*
Y20873D01*
X1060653Y22435D01*
X1059457Y23631D01*
X1057895Y24278D01*
D02*
G37*
G36*
X1083295Y23778D02*
X1081605D01*
X1080043Y23131D01*
X1078847Y21935D01*
X1078200Y20373D01*
Y18683D01*
X1078847Y17120D01*
X1080043Y15925D01*
X1081605Y15278D01*
X1083295D01*
X1084857Y15925D01*
X1086053Y17120D01*
X1086700Y18683D01*
Y20373D01*
X1086053Y21935D01*
X1084857Y23131D01*
X1083295Y23778D01*
D02*
G37*
G36*
X959345Y23778D02*
X957655D01*
X956093Y23131D01*
X954897Y21935D01*
X954250Y20373D01*
Y18683D01*
X954897Y17120D01*
X956093Y15925D01*
X957655Y15278D01*
X959345D01*
X960907Y15925D01*
X962103Y17120D01*
X962750Y18683D01*
Y20373D01*
X962103Y21935D01*
X960907Y23131D01*
X959345Y23778D01*
D02*
G37*
G36*
X122251Y33700D02*
X119749D01*
X117333Y33053D01*
X115167Y31802D01*
X113398Y30033D01*
X112147Y27867D01*
X111500Y25451D01*
Y22949D01*
X112147Y20533D01*
X113398Y18367D01*
X115167Y16598D01*
X117333Y15347D01*
X119749Y14700D01*
X122251D01*
X124667Y15347D01*
X126833Y16598D01*
X128602Y18367D01*
X129853Y20533D01*
X130500Y22949D01*
Y25451D01*
X129853Y27867D01*
X128602Y30033D01*
X126833Y31802D01*
X124667Y33053D01*
X122251Y33700D01*
D02*
G37*
G36*
X1180845Y20750D02*
X1179155D01*
X1177593Y20103D01*
X1176397Y18907D01*
X1175750Y17345D01*
Y15655D01*
X1176397Y14093D01*
X1177593Y12897D01*
X1179155Y12250D01*
X1180845D01*
X1182407Y12897D01*
X1183603Y14093D01*
X1184250Y15655D01*
Y17345D01*
X1183603Y18907D01*
X1182407Y20103D01*
X1180845Y20750D01*
D02*
G37*
G36*
X905251Y31128D02*
X902749D01*
X900333Y30480D01*
X898167Y29230D01*
X896398Y27461D01*
X895147Y25295D01*
X894500Y22879D01*
Y20377D01*
X895147Y17961D01*
X896398Y15795D01*
X898167Y14026D01*
X900333Y12775D01*
X902749Y12128D01*
X905251D01*
X907667Y12775D01*
X909833Y14026D01*
X911602Y15795D01*
X912853Y17961D01*
X913500Y20377D01*
Y22879D01*
X912853Y25295D01*
X911602Y27461D01*
X909833Y29230D01*
X907667Y30480D01*
X905251Y31128D01*
D02*
G37*
G36*
X839251Y30100D02*
X836749D01*
X834333Y29453D01*
X832167Y28202D01*
X830398Y26433D01*
X829147Y24267D01*
X828500Y21851D01*
Y19349D01*
X829147Y16933D01*
X830398Y14767D01*
X832167Y12998D01*
X834333Y11747D01*
X836749Y11100D01*
X839251D01*
X841667Y11747D01*
X843833Y12998D01*
X845602Y14767D01*
X846853Y16933D01*
X847500Y19349D01*
Y21851D01*
X846853Y24267D01*
X845602Y26433D01*
X843833Y28202D01*
X841667Y29453D01*
X839251Y30100D01*
D02*
G37*
G36*
X776500Y27100D02*
X757500D01*
Y8100D01*
X776500D01*
Y27100D01*
D02*
G37*
%LPD*%
D16*
X0Y700000D02*
X1550000D01*
X0Y0D02*
Y700000D01*
X1550000D02*
X1550000Y0D01*
X0D02*
X1550000D01*
D117*
X1142400Y674000D02*
D03*
X1027100Y533000D02*
D03*
X822400Y179500D02*
D03*
X516600Y665000D02*
D03*
X150400Y570000D02*
D03*
D129*
X1177000Y575000D02*
D03*
X1168000D02*
D03*
Y589000D02*
D03*
X1177000D02*
D03*
X1233163Y594479D02*
D03*
X1226623D02*
D03*
X1220093Y594103D02*
D03*
X1216456Y588668D02*
D03*
X1209916D02*
D03*
X1203376D02*
D03*
X1196836D02*
D03*
X1190386Y589752D02*
D03*
X1183876Y589124D02*
D03*
X1188405Y574121D02*
D03*
X1194832Y575332D02*
D03*
X1207912D02*
D03*
X1214452D02*
D03*
X1218997Y570630D02*
D03*
X1225442Y569521D02*
D03*
X1231982D02*
D03*
X1238520Y569704D02*
D03*
X1242893Y574567D02*
D03*
X1249433D02*
D03*
X1255973D02*
D03*
X1262513D02*
D03*
X1269053D02*
D03*
X1275592D02*
D03*
X1296246Y589433D02*
D03*
X1289706D02*
D03*
X1283165D02*
D03*
X1276626D02*
D03*
X1270086D02*
D03*
X1263546D02*
D03*
X1257005D02*
D03*
X1250465D02*
D03*
X1243925D02*
D03*
X1239371Y594127D02*
D03*
X1425000Y625000D02*
D03*
Y575000D02*
D03*
Y525000D02*
D03*
Y475000D02*
D03*
Y425000D02*
D03*
Y275000D02*
D03*
Y225000D02*
D03*
Y175000D02*
D03*
Y125000D02*
D03*
Y75000D02*
D03*
Y25000D02*
D03*
X1412500Y650000D02*
D03*
X1400000Y625000D02*
D03*
X1412500Y600000D02*
D03*
X1400000Y575000D02*
D03*
X1412500Y550000D02*
D03*
X1400000Y525000D02*
D03*
Y475000D02*
D03*
X1412500Y450000D02*
D03*
X1400000Y425000D02*
D03*
X1412500Y400000D02*
D03*
Y300000D02*
D03*
X1400000Y275000D02*
D03*
X1412500Y250000D02*
D03*
X1400000Y225000D02*
D03*
X1412500Y200000D02*
D03*
X1400000Y175000D02*
D03*
X1412500Y150000D02*
D03*
X1400000Y125000D02*
D03*
X1412500Y100000D02*
D03*
X1400000Y75000D02*
D03*
X1412500Y50000D02*
D03*
X1400000Y25000D02*
D03*
X1387500Y650000D02*
D03*
X1375000Y625000D02*
D03*
X1387500Y600000D02*
D03*
X1375000Y575000D02*
D03*
X1387500Y550000D02*
D03*
X1375000Y525000D02*
D03*
X1387500Y500000D02*
D03*
X1375000Y475000D02*
D03*
X1387500Y450000D02*
D03*
X1375000Y425000D02*
D03*
X1387500Y400000D02*
D03*
X1375000Y375000D02*
D03*
Y325000D02*
D03*
X1387500Y300000D02*
D03*
X1375000Y275000D02*
D03*
X1387500Y250000D02*
D03*
X1375000Y225000D02*
D03*
X1387500Y200000D02*
D03*
X1375000Y175000D02*
D03*
X1387500Y150000D02*
D03*
X1375000Y125000D02*
D03*
X1387500Y100000D02*
D03*
X1375000Y75000D02*
D03*
X1387500Y50000D02*
D03*
X1375000Y25000D02*
D03*
X1362500Y650000D02*
D03*
X1350000Y625000D02*
D03*
X1362500Y600000D02*
D03*
X1350000Y575000D02*
D03*
X1362500Y550000D02*
D03*
X1350000Y525000D02*
D03*
X1362500Y500000D02*
D03*
X1350000Y475000D02*
D03*
X1362500Y450000D02*
D03*
X1350000Y425000D02*
D03*
X1362500Y400000D02*
D03*
X1350000Y375000D02*
D03*
X1362500Y300000D02*
D03*
X1350000Y275000D02*
D03*
X1362500Y250000D02*
D03*
X1350000Y225000D02*
D03*
X1362500Y200000D02*
D03*
X1350000Y175000D02*
D03*
X1362500Y150000D02*
D03*
X1350000Y125000D02*
D03*
X1362500Y100000D02*
D03*
X1350000Y75000D02*
D03*
X1362500Y50000D02*
D03*
X1350000Y25000D02*
D03*
X1337500Y650000D02*
D03*
Y600000D02*
D03*
Y550000D02*
D03*
Y500000D02*
D03*
X1325000Y475000D02*
D03*
X1337500Y450000D02*
D03*
X1325000Y425000D02*
D03*
X1337500Y350000D02*
D03*
X1325000Y325000D02*
D03*
Y275000D02*
D03*
Y175000D02*
D03*
X1337500Y150000D02*
D03*
Y100000D02*
D03*
X1325000Y75000D02*
D03*
X1337500Y50000D02*
D03*
X1325000Y25000D02*
D03*
X1312500Y600000D02*
D03*
X1300000Y475000D02*
D03*
X1312500Y450000D02*
D03*
X1300000Y425000D02*
D03*
Y325000D02*
D03*
X1312500Y250000D02*
D03*
X1300000Y175000D02*
D03*
X1312500Y50000D02*
D03*
X1287500Y650000D02*
D03*
X1275000Y625000D02*
D03*
X1287500Y600000D02*
D03*
X1275000Y475000D02*
D03*
Y425000D02*
D03*
Y375000D02*
D03*
Y325000D02*
D03*
X1287500Y300000D02*
D03*
Y150000D02*
D03*
X1275000Y125000D02*
D03*
X1287500Y100000D02*
D03*
X1275000Y75000D02*
D03*
X1287500Y50000D02*
D03*
X1275000Y25000D02*
D03*
X1262500Y650000D02*
D03*
X1250000Y625000D02*
D03*
Y425000D02*
D03*
Y175000D02*
D03*
X1262500Y150000D02*
D03*
X1237500Y650000D02*
D03*
X1225000Y625000D02*
D03*
X1237500Y600000D02*
D03*
Y550000D02*
D03*
X1225000Y375000D02*
D03*
X1237500Y350000D02*
D03*
Y200000D02*
D03*
Y150000D02*
D03*
X1212500Y650000D02*
D03*
X1200000Y625000D02*
D03*
Y575000D02*
D03*
X1212500Y400000D02*
D03*
X1200000Y375000D02*
D03*
X1212500Y350000D02*
D03*
X1187500Y650000D02*
D03*
X1175000Y625000D02*
D03*
X1187500Y600000D02*
D03*
Y550000D02*
D03*
X1162500Y650000D02*
D03*
X1150000Y625000D02*
D03*
X1137500Y650000D02*
D03*
X1125000Y625000D02*
D03*
X1112500Y650000D02*
D03*
X1100000Y625000D02*
D03*
X1112500Y600000D02*
D03*
X1100000Y525000D02*
D03*
X1087500Y650000D02*
D03*
X1075000Y625000D02*
D03*
X1087500Y550000D02*
D03*
X1075000Y525000D02*
D03*
Y475000D02*
D03*
X1087500Y50000D02*
D03*
X1062500Y600000D02*
D03*
Y550000D02*
D03*
X1050000Y475000D02*
D03*
X1062500Y450000D02*
D03*
X1037500Y650000D02*
D03*
X1025000Y625000D02*
D03*
X1037500Y600000D02*
D03*
X1025000Y575000D02*
D03*
X1037500Y550000D02*
D03*
Y500000D02*
D03*
X1025000Y475000D02*
D03*
X1037500Y450000D02*
D03*
X1025000Y275000D02*
D03*
Y75000D02*
D03*
X1037500Y50000D02*
D03*
X1025000Y25000D02*
D03*
X1000000Y675000D02*
D03*
X1012500Y650000D02*
D03*
X1000000Y625000D02*
D03*
X1012500Y550000D02*
D03*
Y500000D02*
D03*
Y450000D02*
D03*
Y300000D02*
D03*
Y200000D02*
D03*
X1000000Y75000D02*
D03*
X987500Y650000D02*
D03*
X975000Y625000D02*
D03*
X987500Y600000D02*
D03*
X975000Y575000D02*
D03*
X987500Y550000D02*
D03*
Y500000D02*
D03*
X975000Y425000D02*
D03*
X987500Y300000D02*
D03*
X962500Y650000D02*
D03*
Y600000D02*
D03*
Y550000D02*
D03*
Y500000D02*
D03*
X950000Y25000D02*
D03*
X925000Y675000D02*
D03*
Y625000D02*
D03*
Y575000D02*
D03*
Y525000D02*
D03*
Y475000D02*
D03*
X937500Y450000D02*
D03*
X925000Y425000D02*
D03*
Y175000D02*
D03*
X937500Y100000D02*
D03*
X925000Y75000D02*
D03*
Y25000D02*
D03*
X912500Y100000D02*
D03*
X900000Y75000D02*
D03*
X887500Y650000D02*
D03*
X875000Y625000D02*
D03*
X887500Y600000D02*
D03*
X875000Y575000D02*
D03*
X887500Y550000D02*
D03*
X875000Y525000D02*
D03*
X887500Y500000D02*
D03*
X875000Y475000D02*
D03*
X887500Y450000D02*
D03*
X875000Y425000D02*
D03*
Y175000D02*
D03*
Y75000D02*
D03*
X887500Y50000D02*
D03*
X875000Y25000D02*
D03*
X850000Y675000D02*
D03*
X862500Y650000D02*
D03*
Y600000D02*
D03*
Y550000D02*
D03*
Y500000D02*
D03*
Y450000D02*
D03*
Y50000D02*
D03*
X850000Y25000D02*
D03*
X825000Y625000D02*
D03*
X837500Y600000D02*
D03*
X825000Y575000D02*
D03*
X837500Y550000D02*
D03*
X825000Y525000D02*
D03*
X837500Y500000D02*
D03*
X825000Y475000D02*
D03*
X837500Y450000D02*
D03*
X825000Y425000D02*
D03*
Y75000D02*
D03*
Y25000D02*
D03*
X812500Y650000D02*
D03*
X800000Y625000D02*
D03*
X812500Y600000D02*
D03*
X800000Y575000D02*
D03*
X812500Y550000D02*
D03*
X800000Y525000D02*
D03*
X812500Y500000D02*
D03*
X800000Y475000D02*
D03*
X812500Y450000D02*
D03*
Y50000D02*
D03*
X800000Y25000D02*
D03*
X787500Y600000D02*
D03*
Y550000D02*
D03*
Y500000D02*
D03*
Y450000D02*
D03*
Y400000D02*
D03*
X750000Y625000D02*
D03*
X762500Y600000D02*
D03*
Y550000D02*
D03*
Y500000D02*
D03*
Y400000D02*
D03*
Y150000D02*
D03*
X750000Y25000D02*
D03*
X737500Y650000D02*
D03*
X725000Y625000D02*
D03*
X737500Y600000D02*
D03*
X725000Y575000D02*
D03*
X737500Y550000D02*
D03*
X725000Y525000D02*
D03*
X737500Y500000D02*
D03*
X725000Y475000D02*
D03*
X737500Y450000D02*
D03*
X725000Y425000D02*
D03*
X737500Y400000D02*
D03*
X725000Y375000D02*
D03*
Y125000D02*
D03*
Y25000D02*
D03*
X700000Y575000D02*
D03*
Y475000D02*
D03*
X712500Y450000D02*
D03*
X700000Y425000D02*
D03*
X712500Y400000D02*
D03*
X700000Y375000D02*
D03*
Y25000D02*
D03*
X687500Y600000D02*
D03*
X675000Y575000D02*
D03*
X687500Y550000D02*
D03*
X675000Y525000D02*
D03*
X687500Y400000D02*
D03*
Y200000D02*
D03*
Y100000D02*
D03*
Y50000D02*
D03*
X675000Y25000D02*
D03*
X662500Y650000D02*
D03*
X650000Y525000D02*
D03*
X662500Y400000D02*
D03*
Y200000D02*
D03*
Y150000D02*
D03*
X650000Y25000D02*
D03*
X625000Y575000D02*
D03*
X637500Y550000D02*
D03*
X625000Y525000D02*
D03*
X637500Y400000D02*
D03*
Y350000D02*
D03*
Y200000D02*
D03*
Y150000D02*
D03*
Y50000D02*
D03*
X625000Y25000D02*
D03*
X600000Y675000D02*
D03*
X612500Y650000D02*
D03*
X600000Y625000D02*
D03*
X612500Y600000D02*
D03*
Y550000D02*
D03*
Y400000D02*
D03*
Y350000D02*
D03*
Y200000D02*
D03*
X600000Y25000D02*
D03*
X587500Y650000D02*
D03*
X575000Y625000D02*
D03*
X587500Y600000D02*
D03*
Y400000D02*
D03*
Y350000D02*
D03*
X575000Y325000D02*
D03*
X587500Y200000D02*
D03*
Y50000D02*
D03*
X575000Y25000D02*
D03*
X550000Y675000D02*
D03*
Y625000D02*
D03*
X562500Y600000D02*
D03*
Y400000D02*
D03*
Y350000D02*
D03*
X550000Y325000D02*
D03*
X562500Y200000D02*
D03*
Y50000D02*
D03*
X550000Y25000D02*
D03*
X525000Y675000D02*
D03*
X537500Y650000D02*
D03*
X525000Y625000D02*
D03*
X537500Y600000D02*
D03*
Y400000D02*
D03*
Y350000D02*
D03*
X525000Y325000D02*
D03*
X537500Y200000D02*
D03*
Y150000D02*
D03*
X525000Y25000D02*
D03*
X500000Y675000D02*
D03*
X512500Y650000D02*
D03*
X500000Y625000D02*
D03*
X512500Y600000D02*
D03*
X500000Y575000D02*
D03*
X512500Y550000D02*
D03*
X500000Y525000D02*
D03*
X512500Y400000D02*
D03*
Y350000D02*
D03*
X500000Y325000D02*
D03*
X512500Y200000D02*
D03*
X500000Y75000D02*
D03*
Y25000D02*
D03*
X475000Y675000D02*
D03*
X487500Y650000D02*
D03*
X475000Y625000D02*
D03*
X487500Y600000D02*
D03*
X475000Y575000D02*
D03*
X487500Y550000D02*
D03*
X475000Y525000D02*
D03*
X487500Y400000D02*
D03*
X475000Y325000D02*
D03*
X487500Y200000D02*
D03*
X475000Y75000D02*
D03*
Y25000D02*
D03*
X450000Y675000D02*
D03*
X462500Y650000D02*
D03*
X450000Y625000D02*
D03*
X462500Y600000D02*
D03*
X450000Y575000D02*
D03*
X462500Y550000D02*
D03*
X450000Y525000D02*
D03*
X462500Y400000D02*
D03*
X450000Y375000D02*
D03*
Y325000D02*
D03*
X462500Y200000D02*
D03*
X450000Y75000D02*
D03*
X462500Y50000D02*
D03*
X450000Y25000D02*
D03*
X425000Y675000D02*
D03*
X437500Y650000D02*
D03*
X425000Y625000D02*
D03*
X437500Y600000D02*
D03*
X425000Y575000D02*
D03*
X437500Y550000D02*
D03*
X425000Y525000D02*
D03*
X437500Y400000D02*
D03*
X425000Y375000D02*
D03*
X437500Y350000D02*
D03*
X425000Y325000D02*
D03*
X437500Y200000D02*
D03*
Y150000D02*
D03*
X425000Y75000D02*
D03*
Y25000D02*
D03*
X400000Y675000D02*
D03*
X412500Y650000D02*
D03*
X400000Y625000D02*
D03*
X412500Y600000D02*
D03*
X400000Y575000D02*
D03*
X412500Y550000D02*
D03*
X400000Y525000D02*
D03*
X412500Y500000D02*
D03*
X400000Y475000D02*
D03*
X412500Y450000D02*
D03*
X400000Y425000D02*
D03*
X412500Y400000D02*
D03*
X400000Y375000D02*
D03*
X412500Y350000D02*
D03*
Y200000D02*
D03*
Y150000D02*
D03*
X400000Y75000D02*
D03*
X412500Y50000D02*
D03*
X400000Y25000D02*
D03*
X375000Y675000D02*
D03*
X387500Y650000D02*
D03*
X375000Y625000D02*
D03*
X387500Y600000D02*
D03*
X375000Y575000D02*
D03*
X387500Y550000D02*
D03*
X375000Y525000D02*
D03*
X387500Y500000D02*
D03*
X375000Y475000D02*
D03*
X387500Y450000D02*
D03*
X375000Y425000D02*
D03*
X387500Y400000D02*
D03*
X375000Y375000D02*
D03*
Y75000D02*
D03*
Y25000D02*
D03*
X350000Y675000D02*
D03*
X362500Y650000D02*
D03*
X350000Y625000D02*
D03*
X362500Y600000D02*
D03*
X350000Y575000D02*
D03*
X362500Y550000D02*
D03*
X350000Y525000D02*
D03*
X362500Y500000D02*
D03*
X350000Y475000D02*
D03*
X362500Y450000D02*
D03*
X350000Y425000D02*
D03*
X362500Y400000D02*
D03*
Y300000D02*
D03*
X350000Y75000D02*
D03*
X362500Y50000D02*
D03*
X350000Y25000D02*
D03*
X325000Y675000D02*
D03*
X337500Y650000D02*
D03*
X325000Y625000D02*
D03*
X337500Y600000D02*
D03*
X325000Y575000D02*
D03*
X337500Y550000D02*
D03*
X325000Y525000D02*
D03*
X337500Y500000D02*
D03*
X325000Y475000D02*
D03*
X337500Y450000D02*
D03*
X325000Y425000D02*
D03*
Y325000D02*
D03*
Y75000D02*
D03*
Y25000D02*
D03*
X300000Y675000D02*
D03*
X312500Y650000D02*
D03*
X300000Y625000D02*
D03*
X312500Y600000D02*
D03*
X300000Y575000D02*
D03*
X312500Y550000D02*
D03*
X300000Y525000D02*
D03*
X312500Y500000D02*
D03*
X300000Y475000D02*
D03*
X312500Y450000D02*
D03*
Y200000D02*
D03*
X300000Y175000D02*
D03*
Y25000D02*
D03*
X275000Y675000D02*
D03*
X287500Y650000D02*
D03*
X275000Y625000D02*
D03*
X287500Y600000D02*
D03*
X275000Y575000D02*
D03*
X287500Y550000D02*
D03*
X275000Y525000D02*
D03*
X287500Y500000D02*
D03*
X275000Y475000D02*
D03*
Y375000D02*
D03*
X287500Y350000D02*
D03*
X275000Y25000D02*
D03*
X250000Y675000D02*
D03*
X262500Y650000D02*
D03*
X250000Y625000D02*
D03*
X262500Y600000D02*
D03*
X250000Y575000D02*
D03*
X262500Y550000D02*
D03*
X250000Y525000D02*
D03*
X262500Y500000D02*
D03*
X250000Y375000D02*
D03*
Y225000D02*
D03*
Y125000D02*
D03*
Y75000D02*
D03*
X262500Y50000D02*
D03*
X250000Y25000D02*
D03*
X225000Y675000D02*
D03*
X237500Y650000D02*
D03*
X225000Y625000D02*
D03*
X237500Y600000D02*
D03*
Y550000D02*
D03*
Y400000D02*
D03*
Y350000D02*
D03*
Y300000D02*
D03*
X225000Y125000D02*
D03*
X237500Y50000D02*
D03*
X225000Y25000D02*
D03*
X200000Y675000D02*
D03*
X212500Y650000D02*
D03*
X200000Y625000D02*
D03*
X212500Y600000D02*
D03*
Y550000D02*
D03*
X200000Y525000D02*
D03*
X212500Y450000D02*
D03*
Y50000D02*
D03*
X200000Y25000D02*
D03*
X175000Y675000D02*
D03*
X187500Y650000D02*
D03*
X175000Y625000D02*
D03*
X187500Y600000D02*
D03*
X175000Y575000D02*
D03*
X187500Y550000D02*
D03*
X175000Y525000D02*
D03*
X187500Y250000D02*
D03*
X175000Y225000D02*
D03*
Y175000D02*
D03*
Y125000D02*
D03*
Y75000D02*
D03*
X187500Y50000D02*
D03*
X175000Y25000D02*
D03*
X150000Y675000D02*
D03*
X162500Y650000D02*
D03*
X150000Y625000D02*
D03*
X162500Y600000D02*
D03*
X150000Y525000D02*
D03*
X162500Y500000D02*
D03*
Y450000D02*
D03*
X150000Y425000D02*
D03*
X162500Y400000D02*
D03*
X150000Y375000D02*
D03*
X162500Y250000D02*
D03*
X150000Y125000D02*
D03*
X162500Y100000D02*
D03*
X150000Y75000D02*
D03*
X162500Y50000D02*
D03*
X150000Y25000D02*
D03*
X125000Y675000D02*
D03*
X137500Y650000D02*
D03*
X125000Y625000D02*
D03*
X137500Y600000D02*
D03*
X125000Y375000D02*
D03*
Y275000D02*
D03*
X137500Y250000D02*
D03*
X125000Y225000D02*
D03*
X137500Y200000D02*
D03*
X125000Y175000D02*
D03*
X137500Y100000D02*
D03*
Y50000D02*
D03*
X100000Y675000D02*
D03*
X112500Y650000D02*
D03*
X100000Y625000D02*
D03*
X112500Y600000D02*
D03*
X100000Y575000D02*
D03*
X112500Y550000D02*
D03*
X100000Y375000D02*
D03*
X112500Y350000D02*
D03*
X100000Y275000D02*
D03*
X112500Y250000D02*
D03*
X100000Y75000D02*
D03*
Y25000D02*
D03*
X75000Y675000D02*
D03*
X87500Y650000D02*
D03*
X75000Y625000D02*
D03*
X87500Y600000D02*
D03*
X75000Y575000D02*
D03*
Y375000D02*
D03*
X87500Y350000D02*
D03*
X75000Y275000D02*
D03*
X87500Y250000D02*
D03*
X75000Y225000D02*
D03*
Y75000D02*
D03*
Y25000D02*
D03*
X50000Y675000D02*
D03*
X62500Y650000D02*
D03*
X50000Y625000D02*
D03*
X62500Y600000D02*
D03*
X50000Y575000D02*
D03*
Y475000D02*
D03*
Y375000D02*
D03*
X62500Y350000D02*
D03*
X50000Y325000D02*
D03*
X62500Y300000D02*
D03*
X50000Y275000D02*
D03*
X62500Y250000D02*
D03*
X50000Y225000D02*
D03*
Y75000D02*
D03*
Y25000D02*
D03*
X25000Y675000D02*
D03*
X37500Y650000D02*
D03*
X25000Y625000D02*
D03*
X37500Y600000D02*
D03*
X25000Y575000D02*
D03*
X37500Y500000D02*
D03*
X25000Y475000D02*
D03*
Y425000D02*
D03*
X37500Y400000D02*
D03*
X25000Y375000D02*
D03*
X37500Y350000D02*
D03*
X25000Y325000D02*
D03*
X37500Y300000D02*
D03*
X25000Y275000D02*
D03*
X37500Y250000D02*
D03*
X25000Y225000D02*
D03*
Y75000D02*
D03*
Y25000D02*
D03*
X1262500Y228000D02*
D03*
X1264798Y222708D02*
D03*
X1268813Y217545D02*
D03*
X1273822Y213341D02*
D03*
X1279576Y210232D02*
D03*
X1285815Y208271D02*
D03*
X1292315Y207551D02*
D03*
X1298855Y207567D02*
D03*
X1305395D02*
D03*
X1310490Y203467D02*
D03*
X1316961Y202521D02*
D03*
X1323501D02*
D03*
X1330037Y202757D02*
D03*
X1333479Y208318D02*
D03*
Y214858D02*
D03*
Y221398D02*
D03*
X1330404Y227170D02*
D03*
X1323871Y227479D02*
D03*
X1317331D02*
D03*
X1310831Y226760D02*
D03*
X1305927Y222433D02*
D03*
X1299387D02*
D03*
X1292847D02*
D03*
X1286398Y223521D02*
D03*
X1280748Y226814D02*
D03*
X1276648Y231910D02*
D03*
X1274642Y238135D02*
D03*
X1274433Y244671D02*
D03*
Y251211D02*
D03*
Y257751D02*
D03*
X1391648Y356833D02*
D03*
X1385108Y356816D02*
D03*
X1378624Y355959D02*
D03*
X1372421Y353888D02*
D03*
X1366743Y350642D02*
D03*
X1361822Y346334D02*
D03*
X1357198Y341710D02*
D03*
X1352574Y337085D02*
D03*
X1347949Y332461D02*
D03*
X1343324Y327836D02*
D03*
X1338700Y323212D02*
D03*
X1334076Y318587D02*
D03*
X1329451Y313963D02*
D03*
X1324827Y309338D02*
D03*
X1320202Y304714D02*
D03*
X1315578Y300089D02*
D03*
X1310953Y295465D02*
D03*
X1306329Y290840D02*
D03*
X1289000Y281299D02*
D03*
Y274769D02*
D03*
X1302744Y272095D02*
D03*
X1308907Y274285D02*
D03*
X1314331Y277939D02*
D03*
X1319015Y282503D02*
D03*
X1323639Y287127D02*
D03*
X1328264Y291752D02*
D03*
X1332888Y296376D02*
D03*
X1337513Y301001D02*
D03*
X1342137Y305625D02*
D03*
X1346761Y310250D02*
D03*
X1351386Y314874D02*
D03*
X1356010Y319499D02*
D03*
X1360635Y324123D02*
D03*
X1365259Y328748D02*
D03*
X1369884Y333372D02*
D03*
X1374624Y337878D02*
D03*
X1380364Y341013D02*
D03*
X1386834Y341967D02*
D03*
X1393374D02*
D03*
X1324000Y619000D02*
D03*
Y628500D02*
D03*
Y645500D02*
D03*
Y636000D02*
D03*
Y653000D02*
D03*
X1304000D02*
D03*
Y636000D02*
D03*
Y645500D02*
D03*
Y628500D02*
D03*
Y619000D02*
D03*
X1324000Y602000D02*
D03*
X1304000D02*
D03*
X1321000Y585000D02*
D03*
X1330000Y578000D02*
D03*
X1298000Y570000D02*
D03*
X1333000Y561000D02*
D03*
X1322000Y560500D02*
D03*
Y549000D02*
D03*
X1298000D02*
D03*
Y527000D02*
D03*
X1322000D02*
D03*
Y517250D02*
D03*
X1298000D02*
D03*
X1321000Y496500D02*
D03*
X1299000D02*
D03*
X1345000Y10000D02*
D03*
X926000Y535000D02*
D03*
X1188900Y218500D02*
D03*
X1059500Y96000D02*
D03*
X225000Y15000D02*
D03*
X318000Y295500D02*
D03*
X305000D02*
D03*
X292000D02*
D03*
X279000D02*
D03*
X207500Y117000D02*
D03*
X78000Y130000D02*
D03*
X73000D02*
D03*
X1344750Y191250D02*
D03*
X1297250D02*
D03*
X1344750Y238750D02*
D03*
X1297250D02*
D03*
X1295500Y268750D02*
D03*
X1276500D02*
D03*
X1295500Y289250D02*
D03*
X1276500D02*
D03*
X1264800Y303500D02*
D03*
X1233000Y390000D02*
D03*
X1283500Y381000D02*
D03*
X1298000Y539750D02*
D03*
X1304000Y611500D02*
D03*
Y592500D02*
D03*
X1324000D02*
D03*
Y611500D02*
D03*
X1285624Y557000D02*
D03*
X1338600Y569500D02*
D03*
X1338000Y366600D02*
D03*
X1327250Y381000D02*
D03*
X1281000Y350600D02*
D03*
X1198901Y341500D02*
D03*
X1208901D02*
D03*
X1218901D02*
D03*
X1228901D02*
D03*
X1245100Y337500D02*
D03*
X1255400Y315000D02*
D03*
X1251400Y310000D02*
D03*
X1255400Y300000D02*
D03*
X1251400Y295000D02*
D03*
X1255400Y285000D02*
D03*
X1251400Y280000D02*
D03*
X1248600Y11500D02*
D03*
X1195450Y113000D02*
D03*
X1302200Y123000D02*
D03*
X1224200Y11500D02*
D03*
X1192700Y95000D02*
D03*
X1258400Y142500D02*
D03*
X1261800Y61700D02*
D03*
X1190450Y71500D02*
D03*
Y23000D02*
D03*
X1302200Y71500D02*
D03*
X1214400Y142500D02*
D03*
X1302200Y23000D02*
D03*
X1149000Y52500D02*
D03*
X1180000Y31500D02*
D03*
X1251400Y250000D02*
D03*
Y270000D02*
D03*
X1253500Y558250D02*
D03*
X1206000D02*
D03*
X1253500Y605750D02*
D03*
X1206000D02*
D03*
X1174750Y606000D02*
D03*
X1168750Y567000D02*
D03*
X1226400Y248000D02*
D03*
X1186400D02*
D03*
X1206400D02*
D03*
X1146400D02*
D03*
X1166400D02*
D03*
X1126400D02*
D03*
Y280000D02*
D03*
X1106400Y264000D02*
D03*
X1126400D02*
D03*
X1166400D02*
D03*
X1146400D02*
D03*
X1166400Y280000D02*
D03*
X1146400D02*
D03*
X1206400Y264000D02*
D03*
X1186400D02*
D03*
X1206400Y280000D02*
D03*
X1186400D02*
D03*
X1226400Y264000D02*
D03*
Y280000D02*
D03*
Y312000D02*
D03*
Y296000D02*
D03*
X1186400Y312000D02*
D03*
X1206400D02*
D03*
X1186400Y296000D02*
D03*
X1206400D02*
D03*
X1146400Y312000D02*
D03*
X1166400D02*
D03*
X1146400Y296000D02*
D03*
X1166400D02*
D03*
X1126400D02*
D03*
X1106400D02*
D03*
X1126400Y312000D02*
D03*
X1106400D02*
D03*
X1087700Y337500D02*
D03*
Y222500D02*
D03*
X1245100D02*
D03*
X1233900D02*
D03*
X1218900D02*
D03*
X1203900D02*
D03*
X1423499Y371400D02*
D03*
Y323500D02*
D03*
X1404339Y371400D02*
D03*
Y323500D02*
D03*
X1124000Y431000D02*
D03*
X1161500Y433000D02*
D03*
X1081400Y250000D02*
D03*
X869000Y672500D02*
D03*
X1107000Y472000D02*
D03*
X1060000Y202500D02*
D03*
X1052500Y387000D02*
D03*
X1021000Y347900D02*
D03*
X1203900Y337500D02*
D03*
X1153900D02*
D03*
X1133900D02*
D03*
X1178900D02*
D03*
X1213900D02*
D03*
X1193900D02*
D03*
X1223900D02*
D03*
X1037000Y349900D02*
D03*
X1077400Y310000D02*
D03*
Y300000D02*
D03*
Y290000D02*
D03*
X1081400Y305000D02*
D03*
Y295000D02*
D03*
Y280000D02*
D03*
Y265000D02*
D03*
X1050000Y349900D02*
D03*
X1106400Y280000D02*
D03*
Y248000D02*
D03*
X1113900Y337500D02*
D03*
X1087700Y228800D02*
D03*
X1163900Y222500D02*
D03*
X1118900D02*
D03*
X1138900D02*
D03*
X1157400Y164000D02*
D03*
X1142400Y185500D02*
D03*
X1050900Y300000D02*
D03*
X1044400Y200500D02*
D03*
X1073000Y202500D02*
D03*
X1050900Y274000D02*
D03*
Y287000D02*
D03*
X1233900Y337500D02*
D03*
X821000Y111500D02*
D03*
X1092400Y60528D02*
D03*
X1113400Y22528D02*
D03*
X1044350Y20028D02*
D03*
X971200Y19528D02*
D03*
X1009300D02*
D03*
X983900D02*
D03*
X401500Y156500D02*
D03*
X857000Y91000D02*
D03*
X286500Y52500D02*
D03*
X642000Y607500D02*
D03*
X675500Y554500D02*
D03*
X660000Y553500D02*
D03*
X675500Y581500D02*
D03*
X660000Y580500D02*
D03*
Y607500D02*
D03*
X675500Y608500D02*
D03*
X706876Y643705D02*
D03*
X782500Y681000D02*
D03*
X841500Y657500D02*
D03*
X758500D02*
D03*
X698500Y687000D02*
D03*
X246500Y147500D02*
D03*
X278000Y171000D02*
D03*
X258000Y144000D02*
D03*
X476250Y110000D02*
D03*
X502500Y50000D02*
D03*
X366250Y110000D02*
D03*
X325000Y50000D02*
D03*
X435000D02*
D03*
X392500D02*
D03*
X513750Y156500D02*
D03*
X623750D02*
D03*
X486500Y169000D02*
D03*
X596500D02*
D03*
X612500Y50000D02*
D03*
X586250Y110000D02*
D03*
X545000Y50000D02*
D03*
X376500Y169000D02*
D03*
X706500Y171000D02*
D03*
X733750Y156500D02*
D03*
X655000Y50000D02*
D03*
X722500D02*
D03*
X696250Y110000D02*
D03*
X80000Y34500D02*
D03*
X63750Y32500D02*
D03*
X36250Y42000D02*
D03*
X20000Y34500D02*
D03*
X93000Y97500D02*
D03*
X51000D02*
D03*
X38000D02*
D03*
X25000D02*
D03*
X308000Y269000D02*
D03*
X116000Y427000D02*
D03*
X125000Y437000D02*
D03*
X182000Y218500D02*
D03*
X212000Y172500D02*
D03*
X199000D02*
D03*
X212000Y212500D02*
D03*
X208000Y224000D02*
D03*
X97876Y234510D02*
D03*
X157000Y193500D02*
D03*
X99500Y170000D02*
D03*
X81000Y187500D02*
D03*
X260000Y310500D02*
D03*
X281000Y312500D02*
D03*
X294000D02*
D03*
X226000Y327500D02*
D03*
X188000Y320000D02*
D03*
X197000Y325000D02*
D03*
Y315000D02*
D03*
X179000Y325000D02*
D03*
Y315000D02*
D03*
X199250Y266500D02*
D03*
X231000Y358500D02*
D03*
X205000Y373500D02*
D03*
X189000Y383500D02*
D03*
X176000D02*
D03*
X24500Y415000D02*
D03*
X48500Y548000D02*
D03*
X23500D02*
D03*
X140500Y462000D02*
D03*
X142500Y495000D02*
D03*
X140500Y508000D02*
D03*
X208000Y442500D02*
D03*
X188000Y480000D02*
D03*
Y490000D02*
D03*
X206000Y480000D02*
D03*
Y490000D02*
D03*
X197000Y485000D02*
D03*
X195000Y442500D02*
D03*
M02*
