G04*
G04 #@! TF.GenerationSoftware,Altium Limited,Altium Designer,22.0.2 (36)*
G04*
G04 Layer_Color=8388736*
%FSLAX44Y44*%
%MOMM*%
G71*
G04*
G04 #@! TF.SameCoordinates,AD71EA70-9FC7-4FF3-9A77-F54E5D2193E9*
G04*
G04*
G04 #@! TF.FilePolarity,Negative*
G04*
G01*
G75*
%ADD16C,0.1500*%
%ADD20R,1.0000X1.2500*%
%ADD21R,0.5000X1.2500*%
%ADD22R,1.0000X1.0000*%
%ADD23R,0.9000X0.6000*%
%ADD24R,0.9500X0.9500*%
%ADD25R,0.5000X0.5000*%
%ADD26R,1.0000X1.6000*%
%ADD27R,0.6000X0.9000*%
%ADD28R,2.7500X1.4000*%
%ADD29R,0.6200X0.6000*%
%ADD30R,0.4100X0.6600*%
%ADD31R,0.6600X0.4100*%
%ADD32R,0.6500X0.8000*%
%ADD33R,0.6500X1.5500*%
%ADD34R,0.5000X0.5800*%
%ADD35R,0.7500X0.8000*%
%ADD36R,0.2500X0.2500*%
%ADD37R,0.7000X0.6000*%
%ADD38R,0.6000X0.6200*%
%ADD39R,0.7000X1.8000*%
%ADD40R,0.8000X1.8000*%
%ADD41R,0.3000X1.0500*%
%ADD42R,0.4500X2.9000*%
%ADD43R,0.4500X1.9000*%
%ADD44R,0.4500X2.4000*%
%ADD45R,1.2000X0.6500*%
%ADD46R,1.4000X0.5000*%
%ADD47R,0.7500X0.7000*%
%ADD48R,0.6000X0.6000*%
%ADD49R,0.3000X0.6000*%
%ADD50R,0.9000X0.7000*%
%ADD53R,2.0000X2.0000*%
G04:AMPARAMS|DCode=54|XSize=0.8mm|YSize=1.7mm|CornerRadius=0.1mm|HoleSize=0mm|Usage=FLASHONLY|Rotation=0.000|XOffset=0mm|YOffset=0mm|HoleType=Round|Shape=RoundedRectangle|*
%AMROUNDEDRECTD54*
21,1,0.8000,1.5000,0,0,0.0*
21,1,0.6000,1.7000,0,0,0.0*
1,1,0.2000,0.3000,-0.7500*
1,1,0.2000,-0.3000,-0.7500*
1,1,0.2000,-0.3000,0.7500*
1,1,0.2000,0.3000,0.7500*
%
%ADD54ROUNDEDRECTD54*%
%ADD55R,0.3500X0.6500*%
%ADD56R,0.8000X0.9000*%
%ADD57R,0.9500X1.4000*%
%ADD58R,1.5700X1.5700*%
%ADD59R,1.9600X1.9600*%
%ADD60R,0.8000X0.7500*%
%ADD61R,0.5800X0.5000*%
%ADD63R,1.4000X0.9500*%
%ADD64R,1.4000X1.1000*%
%ADD69R,0.6500X0.5000*%
%ADD70R,0.2500X0.2500*%
%ADD72R,0.7600X2.4000*%
%ADD73R,0.2000X0.4000*%
%ADD74R,0.4000X0.2000*%
%ADD75R,1.0500X0.3000*%
%ADD76R,1.6000X1.0000*%
%ADD77R,1.8000X2.2000*%
%ADD78R,0.3000X1.3000*%
%ADD79R,1.2000X1.4500*%
%ADD80R,1.0000X0.5500*%
%ADD81R,0.7000X0.3000*%
%ADD82R,0.5000X0.6500*%
%ADD83C,0.2000*%
%ADD84R,1.0000X0.6000*%
%ADD85C,0.2980*%
%ADD86R,3.1000X1.5000*%
%ADD87R,0.6000X0.2400*%
%ADD88R,0.2400X0.6000*%
%ADD89R,3.0500X2.0500*%
%ADD90R,0.6500X0.3250*%
%ADD91R,1.0000X0.7000*%
%ADD92R,0.6000X0.7000*%
%ADD93R,0.9000X0.8000*%
%ADD94R,0.5500X1.0000*%
%ADD95R,2.5500X1.6500*%
%ADD96R,0.2500X0.8500*%
%ADD97R,1.8000X1.2000*%
%ADD98R,1.5500X0.6000*%
%ADD99R,0.7500X1.2000*%
%ADD100R,0.9500X0.9500*%
%ADD101C,0.2260*%
%ADD102R,1.8000X0.8000*%
%ADD103C,0.6096*%
%ADD104C,0.8000*%
%ADD105O,0.3000X0.7300*%
%ADD106O,0.7300X0.3000*%
%ADD107R,0.4000X0.6400*%
%ADD108R,0.9000X0.9000*%
%ADD109R,0.6400X0.6400*%
%ADD110R,0.6400X0.4000*%
%ADD111R,0.4000X0.4000*%
%ADD112C,0.3500*%
%ADD113R,0.5000X1.1000*%
%ADD114R,0.3500X1.5000*%
%ADD115R,0.7000X1.5000*%
%ADD116C,0.9000*%
%ADD117C,1.5000*%
%ADD118R,1.5000X1.5000*%
%ADD119R,1.5000X1.5000*%
%ADD120C,0.5750*%
%ADD121C,0.3250*%
%ADD122C,1.6000*%
%ADD123C,0.7000*%
G36*
X969000Y685616D02*
X967384Y684000D01*
X959000Y684000D01*
Y700000D01*
X969000D01*
X969000Y685616D01*
D02*
G37*
G36*
X919000Y684000D02*
X910616Y684000D01*
X909000Y685616D01*
X909000Y700000D01*
X919000D01*
Y684000D01*
D02*
G37*
G36*
X967384Y676000D02*
X969000Y674384D01*
X969000Y660000D01*
X959000D01*
Y676000D01*
X967384Y676000D01*
D02*
G37*
G36*
X919000Y660000D02*
X909000D01*
X909000Y674384D01*
X910616Y676000D01*
X919000Y676000D01*
Y660000D01*
D02*
G37*
G36*
X1517538Y477000D02*
X1500537D01*
Y498000D01*
X1517538D01*
Y477000D01*
D02*
G37*
G36*
X1535537Y485500D02*
X1546372D01*
Y469000D01*
X1521537D01*
Y498000D01*
X1535537D01*
Y485500D01*
D02*
G37*
G36*
X1496537Y469000D02*
X1471537D01*
Y498000D01*
X1496537D01*
Y469000D01*
D02*
G37*
G36*
X1503037Y326000D02*
X1471537D01*
Y357000D01*
X1503037D01*
Y326000D01*
D02*
G37*
G36*
X1503537Y289700D02*
X1471537D01*
Y317000D01*
X1503537D01*
Y289700D01*
D02*
G37*
G36*
X1483537Y85500D02*
X1471537D01*
Y109500D01*
X1483537D01*
Y85500D01*
D02*
G37*
G36*
X1546537Y18000D02*
X1534537D01*
Y7000D01*
X1514537D01*
Y18000D01*
X1503537D01*
Y7000D01*
X1483537D01*
Y18000D01*
X1471537D01*
Y36000D01*
X1546537D01*
Y18000D01*
D02*
G37*
D16*
X0Y700000D02*
X1550000D01*
X0Y0D02*
Y700000D01*
X1550000D02*
X1550000Y0D01*
X0D02*
X1550000D01*
D20*
X1314000Y674000D02*
D03*
D21*
X1301500Y691500D02*
D03*
Y674000D02*
D03*
D22*
X1254000Y682750D02*
D03*
D23*
X266000Y280500D02*
D03*
Y295500D02*
D03*
X12000Y112500D02*
D03*
Y97500D02*
D03*
X157000Y219000D02*
D03*
Y204000D02*
D03*
X212000Y172500D02*
D03*
Y187500D02*
D03*
X1285624Y572000D02*
D03*
Y557000D02*
D03*
X1338000Y406500D02*
D03*
Y391500D02*
D03*
Y366600D02*
D03*
Y381600D02*
D03*
X1266000Y366500D02*
D03*
Y381500D02*
D03*
X1084000Y542500D02*
D03*
Y557500D02*
D03*
X1168750Y567000D02*
D03*
Y582000D02*
D03*
X1110000Y557500D02*
D03*
Y542500D02*
D03*
X1097000Y557500D02*
D03*
Y542500D02*
D03*
X869000Y687500D02*
D03*
Y672500D02*
D03*
X1180000Y16500D02*
D03*
Y31500D02*
D03*
X1073000Y202500D02*
D03*
Y217500D02*
D03*
X1060000Y202500D02*
D03*
Y217500D02*
D03*
X1037000Y349900D02*
D03*
Y334900D02*
D03*
X1050000Y349900D02*
D03*
Y334900D02*
D03*
X1129400Y200500D02*
D03*
Y185500D02*
D03*
X1142400D02*
D03*
Y200500D02*
D03*
X1149000Y67500D02*
D03*
Y52500D02*
D03*
X857000Y106000D02*
D03*
Y91000D02*
D03*
X844000Y106000D02*
D03*
Y91000D02*
D03*
X1094000Y432500D02*
D03*
Y447500D02*
D03*
X731000Y687500D02*
D03*
Y672500D02*
D03*
X710000Y595500D02*
D03*
Y580500D02*
D03*
Y568500D02*
D03*
Y553500D02*
D03*
X660000D02*
D03*
Y568500D02*
D03*
Y580500D02*
D03*
Y595500D02*
D03*
X246500Y132500D02*
D03*
Y147500D02*
D03*
X1264800Y303500D02*
D03*
Y288500D02*
D03*
X305000Y295500D02*
D03*
Y280500D02*
D03*
X279000Y295500D02*
D03*
Y280500D02*
D03*
X292000D02*
D03*
Y295500D02*
D03*
X318000D02*
D03*
Y280500D02*
D03*
X212000Y212500D02*
D03*
Y197500D02*
D03*
X199000D02*
D03*
Y212500D02*
D03*
X20000Y34500D02*
D03*
Y49500D02*
D03*
X80000Y34500D02*
D03*
Y49500D02*
D03*
X199250Y266500D02*
D03*
Y281500D02*
D03*
X173000D02*
D03*
Y266500D02*
D03*
X160000Y281500D02*
D03*
Y266500D02*
D03*
X147000D02*
D03*
Y281500D02*
D03*
X186000D02*
D03*
Y266500D02*
D03*
X226000Y327500D02*
D03*
Y312500D02*
D03*
X142000D02*
D03*
Y327500D02*
D03*
X155000Y312500D02*
D03*
Y327500D02*
D03*
X239000Y312500D02*
D03*
Y327500D02*
D03*
X205000Y398500D02*
D03*
Y383500D02*
D03*
X176000Y398500D02*
D03*
Y383500D02*
D03*
X189000Y398500D02*
D03*
Y383500D02*
D03*
X205000Y358500D02*
D03*
Y373500D02*
D03*
X163000Y358500D02*
D03*
Y373500D02*
D03*
X189000Y358500D02*
D03*
Y373500D02*
D03*
X176000Y358500D02*
D03*
Y373500D02*
D03*
X281000Y327500D02*
D03*
Y312500D02*
D03*
X218000Y358500D02*
D03*
Y373500D02*
D03*
X231000D02*
D03*
Y358500D02*
D03*
X710000Y607500D02*
D03*
Y622500D02*
D03*
X642000D02*
D03*
Y607500D02*
D03*
X660000Y622500D02*
D03*
Y607500D02*
D03*
X182000Y233500D02*
D03*
Y218500D02*
D03*
X294000Y312500D02*
D03*
Y327500D02*
D03*
X199000Y187500D02*
D03*
Y172500D02*
D03*
X80000Y97500D02*
D03*
Y112500D02*
D03*
X67000Y97500D02*
D03*
Y112500D02*
D03*
X25000D02*
D03*
Y97500D02*
D03*
X38000Y112500D02*
D03*
Y97500D02*
D03*
X51000Y112500D02*
D03*
Y97500D02*
D03*
X75000Y145500D02*
D03*
Y130500D02*
D03*
X93000Y112500D02*
D03*
Y97500D02*
D03*
X81000Y202500D02*
D03*
Y187500D02*
D03*
X157000Y178500D02*
D03*
Y193500D02*
D03*
X221000Y457500D02*
D03*
Y442500D02*
D03*
X182000D02*
D03*
Y457500D02*
D03*
X208000D02*
D03*
Y442500D02*
D03*
X195000Y457500D02*
D03*
Y442500D02*
D03*
D24*
X681250Y150000D02*
D03*
X696250D02*
D03*
X586250D02*
D03*
X571250D02*
D03*
X476250D02*
D03*
X461250D02*
D03*
X366250D02*
D03*
X351250D02*
D03*
X207500Y117000D02*
D03*
X192500D02*
D03*
X1281000Y351100D02*
D03*
X1266000D02*
D03*
X1159750Y606000D02*
D03*
X1174750D02*
D03*
X218000Y269000D02*
D03*
X233000D02*
D03*
X51376Y234490D02*
D03*
X66376D02*
D03*
D25*
X964000Y692000D02*
D03*
X914000D02*
D03*
X964000Y668000D02*
D03*
X914000D02*
D03*
D26*
X939000Y692000D02*
D03*
Y668000D02*
D03*
D27*
X696250Y110000D02*
D03*
X681250D02*
D03*
X207500Y98000D02*
D03*
X192500D02*
D03*
X1214500Y416000D02*
D03*
X1199500D02*
D03*
X1214500Y429000D02*
D03*
X1199500D02*
D03*
Y442000D02*
D03*
X1214500D02*
D03*
Y455000D02*
D03*
X1199500D02*
D03*
X1214500Y497000D02*
D03*
X1199500D02*
D03*
X1214500Y484000D02*
D03*
X1199500D02*
D03*
X1214500Y471000D02*
D03*
X1199500D02*
D03*
X1323500Y351000D02*
D03*
X1308500D02*
D03*
X1283500Y381000D02*
D03*
X1298500D02*
D03*
X1146500Y433000D02*
D03*
X1161500D02*
D03*
X1146500Y446000D02*
D03*
X1161500D02*
D03*
X1129250Y528000D02*
D03*
X1144250D02*
D03*
X1142750Y606000D02*
D03*
X1127750D02*
D03*
X1067500Y387000D02*
D03*
X1050900Y242000D02*
D03*
X1065900D02*
D03*
X1050900Y258000D02*
D03*
X1065900D02*
D03*
X1050900Y300000D02*
D03*
X1065900D02*
D03*
Y287000D02*
D03*
X1050900D02*
D03*
X1065900Y274000D02*
D03*
X1050900D02*
D03*
X1052500Y387000D02*
D03*
X1061500Y348400D02*
D03*
X1076500D02*
D03*
X1134400Y79528D02*
D03*
X1149400D02*
D03*
X1044500Y96000D02*
D03*
X1059500D02*
D03*
X571500Y169000D02*
D03*
X586500D02*
D03*
X461500D02*
D03*
X476500D02*
D03*
X351500D02*
D03*
X366500D02*
D03*
X24500Y415000D02*
D03*
X39500D02*
D03*
X38500Y548000D02*
D03*
X23500D02*
D03*
X63500D02*
D03*
X48500D02*
D03*
X501250Y110000D02*
D03*
X486250D02*
D03*
X366250D02*
D03*
X351250D02*
D03*
X476250D02*
D03*
X461250D02*
D03*
X436250D02*
D03*
X451250D02*
D03*
X391250D02*
D03*
X376250D02*
D03*
X326250D02*
D03*
X341250D02*
D03*
X611250D02*
D03*
X596250D02*
D03*
X586250D02*
D03*
X571250D02*
D03*
X596500Y169000D02*
D03*
X611500D02*
D03*
X546250Y110000D02*
D03*
X561250D02*
D03*
X486500Y169000D02*
D03*
X501500D02*
D03*
X376500D02*
D03*
X391500D02*
D03*
X158500Y478000D02*
D03*
X173500D02*
D03*
X130500Y312000D02*
D03*
X115500D02*
D03*
X130500Y299000D02*
D03*
X115500D02*
D03*
X130500Y286000D02*
D03*
X115500D02*
D03*
X671250Y110000D02*
D03*
X656250D02*
D03*
X706250D02*
D03*
X721250D02*
D03*
X696500Y171000D02*
D03*
X681500D02*
D03*
X721500D02*
D03*
X706500D02*
D03*
X82876Y234510D02*
D03*
X97876D02*
D03*
X114500Y170000D02*
D03*
X99500D02*
D03*
X173500Y491000D02*
D03*
X158500D02*
D03*
X125500Y508000D02*
D03*
X140500D02*
D03*
X125500Y462000D02*
D03*
X140500D02*
D03*
D28*
X392500Y50000D02*
D03*
Y90000D02*
D03*
X325000Y50000D02*
D03*
Y90000D02*
D03*
X722500Y50000D02*
D03*
Y90000D02*
D03*
X655000Y50000D02*
D03*
Y90000D02*
D03*
X545000D02*
D03*
Y50000D02*
D03*
X612500Y90000D02*
D03*
Y50000D02*
D03*
X502500Y50000D02*
D03*
Y90000D02*
D03*
X435000Y50000D02*
D03*
Y90000D02*
D03*
D29*
X1310000Y550900D02*
D03*
Y560100D02*
D03*
X1426000Y358600D02*
D03*
Y349400D02*
D03*
X1403000D02*
D03*
Y358600D02*
D03*
X1414000Y349400D02*
D03*
Y358600D02*
D03*
D30*
X1324050Y642000D02*
D03*
X1313950D02*
D03*
D31*
X1314000Y649950D02*
D03*
Y660050D02*
D03*
Y633050D02*
D03*
Y622950D02*
D03*
X1437000Y349700D02*
D03*
Y359800D02*
D03*
D32*
X1322000Y517250D02*
D03*
X1310000D02*
D03*
X1298000D02*
D03*
Y539750D02*
D03*
X1310000D02*
D03*
D33*
X1322000Y536000D02*
D03*
D34*
X1314000Y613600D02*
D03*
Y590400D02*
D03*
D35*
X1324250Y611500D02*
D03*
X1303750D02*
D03*
Y592500D02*
D03*
X1324250D02*
D03*
D36*
X1314000Y582000D02*
D03*
X1310000D02*
D03*
X1306000D02*
D03*
Y578000D02*
D03*
X1310000D02*
D03*
X1314000D02*
D03*
D37*
X1321000Y569500D02*
D03*
X1310000D02*
D03*
X1403000Y340000D02*
D03*
X1414000D02*
D03*
D38*
X1338600Y569500D02*
D03*
X1329400D02*
D03*
X1435600Y340000D02*
D03*
X1426400D02*
D03*
D39*
X1233000Y401500D02*
D03*
X1321000D02*
D03*
Y496500D02*
D03*
X1233000D02*
D03*
D40*
X1244000Y401500D02*
D03*
X1255000D02*
D03*
X1266000D02*
D03*
X1277000D02*
D03*
X1288000D02*
D03*
X1299000D02*
D03*
X1310000D02*
D03*
Y496500D02*
D03*
X1299000D02*
D03*
X1288000D02*
D03*
X1277000D02*
D03*
X1266000D02*
D03*
X1255000D02*
D03*
X1244000D02*
D03*
D41*
X1323000Y367000D02*
D03*
X1318000D02*
D03*
X1313000D02*
D03*
Y381000D02*
D03*
X1318000D02*
D03*
X1323000D02*
D03*
D42*
X1302200Y23000D02*
D03*
X1190450D02*
D03*
D43*
X1302200Y71500D02*
D03*
X1190450D02*
D03*
D44*
X1302200Y123000D02*
D03*
D45*
X1230900Y131750D02*
D03*
D46*
X1258400Y142500D02*
D03*
X1214400D02*
D03*
D47*
X1195450Y113000D02*
D03*
D48*
X1192700Y95000D02*
D03*
D49*
X1248600Y11500D02*
D03*
X1224200D02*
D03*
D50*
X1260800Y30000D02*
D03*
X1236400D02*
D03*
X1212000D02*
D03*
X1261800Y61700D02*
D03*
X1236400D02*
D03*
X1211000D02*
D03*
D53*
X1486140Y303800D02*
D03*
Y341900D02*
D03*
D54*
X1157400Y164000D02*
D03*
X1123400D02*
D03*
X1107000Y472000D02*
D03*
X1141000D02*
D03*
D55*
X1179500Y582000D02*
D03*
X1188000D02*
D03*
D56*
X1125250Y543500D02*
D03*
X1144250D02*
D03*
X1134750Y564500D02*
D03*
X1086750Y584500D02*
D03*
X1105750D02*
D03*
X1096250Y605500D02*
D03*
D57*
X1135150Y582000D02*
D03*
X1155150D02*
D03*
X1159000Y23000D02*
D03*
X1139000D02*
D03*
D58*
X1229750Y582000D02*
D03*
X1321000Y215000D02*
D03*
D59*
X1206000Y605750D02*
D03*
X1253500D02*
D03*
X1206000Y558250D02*
D03*
X1253500D02*
D03*
X1297250Y238750D02*
D03*
X1344750D02*
D03*
X1297250Y191250D02*
D03*
X1344750D02*
D03*
D60*
X1276500Y268750D02*
D03*
Y289250D02*
D03*
X1295500D02*
D03*
Y268750D02*
D03*
D61*
X1274400Y279000D02*
D03*
X1297600D02*
D03*
D63*
X1026000Y217000D02*
D03*
Y197000D02*
D03*
D64*
X1044400Y215500D02*
D03*
Y200500D02*
D03*
X1021000Y332900D02*
D03*
Y347900D02*
D03*
D69*
X1066250Y335400D02*
D03*
X1075750D02*
D03*
D70*
X1267000Y271000D02*
D03*
Y275000D02*
D03*
Y279000D02*
D03*
X1263000D02*
D03*
Y275000D02*
D03*
Y271000D02*
D03*
D72*
X1009300Y19528D02*
D03*
X996600D02*
D03*
X983900D02*
D03*
X971200D02*
D03*
X958500D02*
D03*
X1009300Y58528D02*
D03*
X996600D02*
D03*
X983900D02*
D03*
X971200D02*
D03*
X958500D02*
D03*
D73*
X817000Y93000D02*
D03*
X821000D02*
D03*
X825000D02*
D03*
X829000D02*
D03*
Y104000D02*
D03*
X825000D02*
D03*
X821000D02*
D03*
X817000D02*
D03*
D74*
X828500Y98500D02*
D03*
X817500D02*
D03*
D75*
X1124000Y435000D02*
D03*
Y440000D02*
D03*
Y445000D02*
D03*
X1110000D02*
D03*
Y440000D02*
D03*
Y435000D02*
D03*
D76*
X263500Y70000D02*
D03*
X286500Y52500D02*
D03*
Y87500D02*
D03*
D77*
X758500Y657500D02*
D03*
X841500D02*
D03*
D78*
X777500Y690000D02*
D03*
X782500D02*
D03*
X787500D02*
D03*
X792500D02*
D03*
X797500D02*
D03*
X802500D02*
D03*
X807500D02*
D03*
X812500D02*
D03*
X817500D02*
D03*
X822500D02*
D03*
D79*
X698500Y667000D02*
D03*
X715500D02*
D03*
Y687000D02*
D03*
X698500D02*
D03*
X70500Y415000D02*
D03*
X53500D02*
D03*
D80*
X694500Y588000D02*
D03*
X675500Y581500D02*
D03*
Y594500D02*
D03*
X694500Y561000D02*
D03*
X675500Y554500D02*
D03*
Y567500D02*
D03*
X602500Y150000D02*
D03*
X621500Y156500D02*
D03*
Y143500D02*
D03*
X492500Y150000D02*
D03*
X511500Y156500D02*
D03*
Y143500D02*
D03*
X382500Y150000D02*
D03*
X401500Y156500D02*
D03*
Y143500D02*
D03*
X732000D02*
D03*
Y156500D02*
D03*
X713000Y150000D02*
D03*
X675500Y621500D02*
D03*
Y608500D02*
D03*
X694500Y615000D02*
D03*
D81*
X78250Y515000D02*
D03*
Y510000D02*
D03*
Y505000D02*
D03*
Y500000D02*
D03*
Y495000D02*
D03*
Y490000D02*
D03*
Y485000D02*
D03*
Y480000D02*
D03*
Y475000D02*
D03*
Y470000D02*
D03*
Y465000D02*
D03*
Y460000D02*
D03*
X95250Y457500D02*
D03*
Y462500D02*
D03*
Y467500D02*
D03*
Y472500D02*
D03*
Y477500D02*
D03*
Y482500D02*
D03*
Y487500D02*
D03*
Y492500D02*
D03*
Y497500D02*
D03*
Y502500D02*
D03*
Y507500D02*
D03*
Y512500D02*
D03*
D82*
X116000Y436500D02*
D03*
Y427000D02*
D03*
X125000D02*
D03*
Y436500D02*
D03*
D83*
X1299000Y370124D02*
D03*
Y363876D02*
D03*
X1155400Y189876D02*
D03*
Y196124D02*
D03*
X713124Y643705D02*
D03*
X706876D02*
D03*
X105000Y428626D02*
D03*
Y434874D02*
D03*
X136000Y428626D02*
D03*
Y434874D02*
D03*
X65124Y400000D02*
D03*
X58876D02*
D03*
X300000Y266000D02*
D03*
Y262000D02*
D03*
X296000Y266000D02*
D03*
Y262000D02*
D03*
X292000Y266000D02*
D03*
Y262000D02*
D03*
X288000Y266000D02*
D03*
Y262000D02*
D03*
X318000Y272000D02*
D03*
Y265752D02*
D03*
X111248Y221000D02*
D03*
X105000D02*
D03*
X182000Y207624D02*
D03*
Y201376D02*
D03*
X56000Y140000D02*
D03*
X60000D02*
D03*
X56000Y136000D02*
D03*
X60000D02*
D03*
X56000Y132000D02*
D03*
X60000D02*
D03*
X56000Y128000D02*
D03*
X60000D02*
D03*
X33252Y234500D02*
D03*
X39500D02*
D03*
D84*
X36250Y51500D02*
D03*
Y42000D02*
D03*
Y32500D02*
D03*
X63750D02*
D03*
Y51500D02*
D03*
D85*
X225575Y290500D02*
D03*
Y285500D02*
D03*
X220575Y290500D02*
D03*
Y285500D02*
D03*
X215575Y290500D02*
D03*
Y285500D02*
D03*
D86*
X88500Y299500D02*
D03*
Y334500D02*
D03*
D87*
X166500Y312500D02*
D03*
X209500D02*
D03*
Y327500D02*
D03*
X166500D02*
D03*
D88*
X170500Y303500D02*
D03*
X175500D02*
D03*
X180500D02*
D03*
X185500D02*
D03*
X190500D02*
D03*
X195500D02*
D03*
X200500D02*
D03*
X205500D02*
D03*
Y336500D02*
D03*
X200500D02*
D03*
X195500D02*
D03*
X190500D02*
D03*
X185500D02*
D03*
X180500D02*
D03*
X175500D02*
D03*
X170500D02*
D03*
D89*
X188000Y320000D02*
D03*
D90*
X68000Y198250D02*
D03*
Y191750D02*
D03*
D91*
X142500Y495000D02*
D03*
D92*
X125500D02*
D03*
Y475000D02*
D03*
X144500D02*
D03*
D93*
X116500Y185500D02*
D03*
Y204500D02*
D03*
X95500Y195000D02*
D03*
D94*
X266500Y329500D02*
D03*
X253500D02*
D03*
X260000Y310500D02*
D03*
D95*
X197000Y485000D02*
D03*
D96*
X185750Y499500D02*
D03*
X190250D02*
D03*
X194750D02*
D03*
X199250D02*
D03*
X203750D02*
D03*
X208250D02*
D03*
Y470500D02*
D03*
X203750D02*
D03*
X199250D02*
D03*
X194750D02*
D03*
X190250D02*
D03*
X185750D02*
D03*
D97*
X12130Y167000D02*
D03*
Y213000D02*
D03*
D98*
X50880Y180000D02*
D03*
Y190000D02*
D03*
Y200000D02*
D03*
D99*
X138500Y212000D02*
D03*
Y178000D02*
D03*
D100*
X236000Y457500D02*
D03*
Y442500D02*
D03*
D101*
X199000Y229000D02*
D03*
Y233000D02*
D03*
X203000Y229000D02*
D03*
Y233000D02*
D03*
D102*
X37000Y126000D02*
D03*
Y142000D02*
D03*
D103*
X1301794Y366975D02*
G03*
X1301794Y366975I-2794J0D01*
G01*
X1158194Y193025D02*
G03*
X1158194Y193025I-2794J0D01*
G01*
X712819Y643705D02*
G03*
X712819Y643705I-2794J0D01*
G01*
X107794Y431725D02*
G03*
X107794Y431725I-2794J0D01*
G01*
X138794Y431775D02*
G03*
X138794Y431775I-2794J0D01*
G01*
X64769Y400000D02*
G03*
X64769Y400000I-2794J0D01*
G01*
X320794Y268850D02*
G03*
X320794Y268850I-2794J0D01*
G01*
X110893Y221000D02*
G03*
X110893Y221000I-2794J0D01*
G01*
X184794Y204525D02*
G03*
X184794Y204525I-2794J0D01*
G01*
X39144Y234500D02*
G03*
X39144Y234500I-2794J0D01*
G01*
D104*
X926000Y535000D02*
D03*
X1345000Y10000D02*
D03*
X1167000Y196000D02*
D03*
X1052500Y510500D02*
D03*
X1283500Y368000D02*
D03*
X1250000Y381000D02*
D03*
X1315000Y90000D02*
D03*
X1272000Y519000D02*
D03*
Y536000D02*
D03*
X1120750Y582000D02*
D03*
X1155900Y472000D02*
D03*
X1187000Y455000D02*
D03*
X898000Y575000D02*
D03*
X914000Y560000D02*
D03*
X1258000Y245000D02*
D03*
X1315000Y120000D02*
D03*
Y105000D02*
D03*
X1172000Y97000D02*
D03*
X1157000D02*
D03*
X1112000D02*
D03*
X1082000Y113000D02*
D03*
X1142000Y97000D02*
D03*
X1067000Y113000D02*
D03*
X1127000Y97000D02*
D03*
X1052000Y113000D02*
D03*
X880000Y120000D02*
D03*
Y150000D02*
D03*
Y165000D02*
D03*
X959000Y110000D02*
D03*
X971000Y95000D02*
D03*
X984000Y80000D02*
D03*
X880000Y90000D02*
D03*
Y105000D02*
D03*
X926000Y230000D02*
D03*
Y331000D02*
D03*
Y402000D02*
D03*
X916000Y353000D02*
D03*
X926000Y360000D02*
D03*
Y345000D02*
D03*
Y374000D02*
D03*
X915986Y367000D02*
D03*
X926000Y388000D02*
D03*
X915986Y381000D02*
D03*
X916000Y395000D02*
D03*
X916464Y338000D02*
D03*
Y323000D02*
D03*
X275000Y465000D02*
D03*
X250000Y475000D02*
D03*
X1136000Y435000D02*
D03*
X1315000Y135000D02*
D03*
X1136000Y447500D02*
D03*
X880000Y135000D02*
D03*
X916000Y254000D02*
D03*
Y237000D02*
D03*
X926000Y216000D02*
D03*
Y261000D02*
D03*
Y246000D02*
D03*
X915986Y223000D02*
D03*
Y209000D02*
D03*
X250000Y281000D02*
D03*
Y295000D02*
D03*
X255000Y350000D02*
D03*
X138500Y156500D02*
D03*
X93000Y124000D02*
D03*
X138500Y233500D02*
D03*
X17000Y235000D02*
D03*
X87090Y400000D02*
D03*
X75000Y170000D02*
D03*
X153500Y60000D02*
D03*
X225000Y15000D02*
D03*
X141000Y75000D02*
D03*
X233000Y240000D02*
D03*
X332000Y290500D02*
D03*
X190000Y520000D02*
D03*
X224500Y487500D02*
D03*
X1140400Y164000D02*
D03*
X1124000Y472000D02*
D03*
D105*
X1124400Y65778D02*
D03*
X1120400D02*
D03*
X1116400D02*
D03*
X1112400Y65778D02*
D03*
Y49278D02*
D03*
X1116400D02*
D03*
X1120400D02*
D03*
X1124400D02*
D03*
X281000Y132750D02*
D03*
X277000D02*
D03*
X273000D02*
D03*
X269000D02*
D03*
Y157250D02*
D03*
X273000D02*
D03*
X277000D02*
D03*
X281000D02*
D03*
D106*
X1106150Y63528D02*
D03*
Y59528D02*
D03*
Y55528D02*
D03*
Y51528D02*
D03*
X1130650D02*
D03*
Y55528D02*
D03*
Y59528D02*
D03*
Y63528D02*
D03*
X266750Y139000D02*
D03*
Y143000D02*
D03*
Y147000D02*
D03*
Y151000D02*
D03*
X283250D02*
D03*
X283250Y147000D02*
D03*
Y143000D02*
D03*
Y139000D02*
D03*
D107*
X1138900Y331200D02*
D03*
X1098900D02*
D03*
X1093900D02*
D03*
X1143900Y228800D02*
D03*
X1093900D02*
D03*
X1103900Y331200D02*
D03*
X1113900D02*
D03*
X1123900D02*
D03*
X1128900D02*
D03*
X1133900D02*
D03*
X1143900D02*
D03*
X1148900D02*
D03*
X1153900D02*
D03*
X1158900D02*
D03*
X1163900D02*
D03*
X1168900D02*
D03*
X1173900D02*
D03*
X1178900D02*
D03*
X1183900D02*
D03*
X1188900D02*
D03*
X1193900D02*
D03*
X1198900D02*
D03*
X1203900D02*
D03*
X1208900D02*
D03*
X1213900D02*
D03*
X1218900D02*
D03*
X1223900D02*
D03*
X1228900D02*
D03*
X1233900D02*
D03*
X1238900D02*
D03*
X1233900Y228800D02*
D03*
X1228900D02*
D03*
X1223900D02*
D03*
X1218900D02*
D03*
X1213900D02*
D03*
X1208900D02*
D03*
X1203900D02*
D03*
X1198900D02*
D03*
X1193900D02*
D03*
X1188900D02*
D03*
X1183900D02*
D03*
X1178900D02*
D03*
X1173900D02*
D03*
X1168900D02*
D03*
X1163900D02*
D03*
X1158900D02*
D03*
X1153900D02*
D03*
X1148900D02*
D03*
X1138900D02*
D03*
X1133900D02*
D03*
X1128900D02*
D03*
X1123900D02*
D03*
X1118900D02*
D03*
X1113900D02*
D03*
X1108900D02*
D03*
X1103900D02*
D03*
X1098900D02*
D03*
X1238900D02*
D03*
X1108900Y331200D02*
D03*
X1118900D02*
D03*
D108*
X1106400Y312000D02*
D03*
Y296000D02*
D03*
Y264000D02*
D03*
Y280000D02*
D03*
Y248000D02*
D03*
X1126400D02*
D03*
Y280000D02*
D03*
Y264000D02*
D03*
Y296000D02*
D03*
Y312000D02*
D03*
X1146400D02*
D03*
Y296000D02*
D03*
Y264000D02*
D03*
Y280000D02*
D03*
Y248000D02*
D03*
X1186400Y312000D02*
D03*
Y296000D02*
D03*
Y264000D02*
D03*
Y280000D02*
D03*
Y248000D02*
D03*
X1166400Y312000D02*
D03*
Y296000D02*
D03*
Y264000D02*
D03*
Y280000D02*
D03*
Y248000D02*
D03*
X1206400Y312000D02*
D03*
Y296000D02*
D03*
Y264000D02*
D03*
Y280000D02*
D03*
Y248000D02*
D03*
X1226400Y296000D02*
D03*
Y264000D02*
D03*
Y280000D02*
D03*
Y248000D02*
D03*
Y312000D02*
D03*
D109*
X1087700Y331200D02*
D03*
X1245100D02*
D03*
X1087700Y228800D02*
D03*
X1245100D02*
D03*
D110*
Y325000D02*
D03*
Y320000D02*
D03*
Y315000D02*
D03*
Y310000D02*
D03*
Y305000D02*
D03*
Y300000D02*
D03*
Y295000D02*
D03*
Y290000D02*
D03*
Y285000D02*
D03*
Y280000D02*
D03*
Y275000D02*
D03*
Y265000D02*
D03*
Y260000D02*
D03*
Y255000D02*
D03*
Y250000D02*
D03*
Y245000D02*
D03*
Y240000D02*
D03*
Y235000D02*
D03*
X1087700Y240000D02*
D03*
Y245000D02*
D03*
Y250000D02*
D03*
Y255000D02*
D03*
Y265000D02*
D03*
Y270000D02*
D03*
Y275000D02*
D03*
Y280000D02*
D03*
Y285000D02*
D03*
Y290000D02*
D03*
Y295000D02*
D03*
Y300000D02*
D03*
Y305000D02*
D03*
Y310000D02*
D03*
Y320000D02*
D03*
Y325000D02*
D03*
X1245100Y270000D02*
D03*
X1087700Y235000D02*
D03*
Y260000D02*
D03*
Y315000D02*
D03*
D111*
X1108900Y323500D02*
D03*
X1118900D02*
D03*
X1113900D02*
D03*
X1123900D02*
D03*
X1163900D02*
D03*
X1153900D02*
D03*
X1158900D02*
D03*
X1148900D02*
D03*
X1198900D02*
D03*
X1213900D02*
D03*
X1203900D02*
D03*
X1208900D02*
D03*
X1108900Y236500D02*
D03*
X1118900D02*
D03*
X1113900D02*
D03*
X1123900D02*
D03*
X1163900D02*
D03*
X1153900D02*
D03*
X1158900D02*
D03*
X1148900D02*
D03*
X1198900D02*
D03*
X1213900D02*
D03*
X1203900D02*
D03*
X1208900D02*
D03*
D112*
X1120900Y18178D02*
D03*
X1115900D02*
D03*
X1110900D02*
D03*
X1105900D02*
D03*
X1118400Y22528D02*
D03*
X1108400D02*
D03*
X1120900Y26878D02*
D03*
X1115900D02*
D03*
X1110900D02*
D03*
X1105900D02*
D03*
D113*
X1082450Y75028D02*
D03*
X1069750D02*
D03*
X1057050D02*
D03*
X1044350D02*
D03*
X1082450Y20028D02*
D03*
X1069750D02*
D03*
X1057050D02*
D03*
X1044350D02*
D03*
D114*
X1080700Y38029D02*
D03*
Y57029D02*
D03*
X1046100D02*
D03*
Y38029D02*
D03*
D115*
X1057050Y57029D02*
D03*
Y38029D02*
D03*
X1069750Y57029D02*
D03*
Y38029D02*
D03*
D116*
X905000Y680000D02*
D03*
X973000D02*
D03*
D117*
X1066200Y674000D02*
D03*
X1040800D02*
D03*
X1091600D02*
D03*
X1117000D02*
D03*
X1142400D02*
D03*
X121000Y107000D02*
D03*
X200000Y75400D02*
D03*
X542700Y382500D02*
D03*
X491900D02*
D03*
X517300D02*
D03*
X593500D02*
D03*
X568100D02*
D03*
X644300D02*
D03*
X618900D02*
D03*
X669700D02*
D03*
X1027100Y533000D02*
D03*
X1117000Y387000D02*
D03*
X1142400D02*
D03*
X767000Y68400D02*
D03*
Y43000D02*
D03*
X838000Y20600D02*
D03*
X904000Y21628D02*
D03*
X797000Y179500D02*
D03*
X771600D02*
D03*
X822400D02*
D03*
X847800D02*
D03*
X542000Y665000D02*
D03*
X516600D02*
D03*
X150400Y570000D02*
D03*
X642000Y665000D02*
D03*
X667400D02*
D03*
X121000Y49600D02*
D03*
Y24200D02*
D03*
X200000Y570000D02*
D03*
D118*
X1015400Y674000D02*
D03*
X466500Y382500D02*
D03*
X1052500Y533000D02*
D03*
X1091600Y387000D02*
D03*
X746200Y179500D02*
D03*
X567400Y665000D02*
D03*
X125000Y570000D02*
D03*
X616600Y665000D02*
D03*
X225400Y570000D02*
D03*
D119*
X121000Y132400D02*
D03*
X200000Y50000D02*
D03*
X767000Y17600D02*
D03*
X838000Y46000D02*
D03*
X904000Y47028D02*
D03*
X121000Y75000D02*
D03*
D120*
X88650Y449000D02*
D03*
D121*
Y521000D02*
D03*
D122*
X16650Y529900D02*
D03*
Y440100D02*
D03*
X76150Y443700D02*
D03*
Y526300D02*
D03*
D123*
X6000Y299500D02*
D03*
Y334500D02*
D03*
M02*
