G04*
G04 #@! TF.GenerationSoftware,Altium Limited,Altium Designer,22.0.2 (36)*
G04*
G04 Layer_Color=16711935*
%FSLAX44Y44*%
%MOMM*%
G71*
G04*
G04 #@! TF.SameCoordinates,AD71EA70-9FC7-4FF3-9A77-F54E5D2193E9*
G04*
G04*
G04 #@! TF.FilePolarity,Negative*
G04*
G01*
G75*
%ADD16C,0.1500*%
%ADD104C,0.8000*%
%ADD116C,0.9000*%
%ADD117C,1.5000*%
%ADD118R,1.5000X1.5000*%
%ADD119R,1.5000X1.5000*%
%ADD120C,0.5750*%
%ADD121C,0.3250*%
%ADD122C,1.6000*%
%ADD123C,0.7000*%
G36*
X1456237Y195000D02*
X1451037D01*
Y201000D01*
X1456237D01*
Y195000D01*
D02*
G37*
G36*
X1471537Y191000D02*
X1466337D01*
Y197000D01*
X1471537D01*
Y191000D01*
D02*
G37*
G36*
Y180000D02*
X1466337D01*
Y186000D01*
X1471537D01*
Y180000D01*
D02*
G37*
G36*
X1456288Y176000D02*
X1451037D01*
Y182000D01*
X1456288D01*
Y176000D01*
D02*
G37*
G36*
Y165000D02*
X1451037D01*
Y171000D01*
X1456288D01*
Y165000D01*
D02*
G37*
G36*
X1471537Y161000D02*
X1466288D01*
Y167000D01*
X1471537D01*
Y161000D01*
D02*
G37*
G36*
Y150000D02*
X1466288D01*
Y156000D01*
X1471537D01*
Y150000D01*
D02*
G37*
G36*
X1456288Y146000D02*
X1451037D01*
Y152000D01*
X1456288D01*
Y146000D01*
D02*
G37*
G36*
Y135000D02*
X1451037D01*
Y141000D01*
X1456288D01*
Y135000D01*
D02*
G37*
G36*
X1494537Y467800D02*
X1488537D01*
Y473000D01*
X1494537D01*
Y467800D01*
D02*
G37*
G36*
X1483537D02*
X1477537D01*
Y473000D01*
X1483537D01*
Y467800D01*
D02*
G37*
G36*
X1456237Y206000D02*
X1451037D01*
Y212000D01*
X1456237D01*
Y206000D01*
D02*
G37*
G36*
X1477537Y478000D02*
Y483250D01*
X1483537D01*
Y478000D01*
X1477537D01*
D02*
G37*
G36*
X1488537D02*
Y483250D01*
X1494537D01*
Y478000D01*
X1488537D01*
D02*
G37*
G36*
X1462537Y492750D02*
Y498000D01*
X1468537D01*
Y492750D01*
X1462537D01*
D02*
G37*
G36*
X1473537D02*
Y498000D01*
X1479428D01*
Y492750D01*
X1473537D01*
D02*
G37*
G36*
X1492538D02*
Y498000D01*
X1498537D01*
Y492750D01*
X1492538D01*
D02*
G37*
G36*
X1503537D02*
Y498000D01*
X1509537D01*
Y492750D01*
X1503537D01*
D02*
G37*
D16*
X0Y700000D02*
X1550000D01*
X0Y0D02*
Y700000D01*
X1550000D02*
X1550000Y0D01*
X0D02*
X1550000D01*
D104*
X1140400Y164000D02*
D03*
X1124000Y472000D02*
D03*
D116*
X905000Y680000D02*
D03*
X973000D02*
D03*
D117*
X1066200Y674000D02*
D03*
X1040800D02*
D03*
X1091600D02*
D03*
X1117000D02*
D03*
X1142400D02*
D03*
X121000Y107000D02*
D03*
X200000Y75400D02*
D03*
X542700Y382500D02*
D03*
X491900D02*
D03*
X517300D02*
D03*
X593500D02*
D03*
X568100D02*
D03*
X644300D02*
D03*
X618900D02*
D03*
X669700D02*
D03*
X1027100Y533000D02*
D03*
X1117000Y387000D02*
D03*
X1142400D02*
D03*
X767000Y68400D02*
D03*
Y43000D02*
D03*
X838000Y20600D02*
D03*
X904000Y21628D02*
D03*
X797000Y179500D02*
D03*
X771600D02*
D03*
X822400D02*
D03*
X847800D02*
D03*
X542000Y665000D02*
D03*
X516600D02*
D03*
X150400Y570000D02*
D03*
X642000Y665000D02*
D03*
X667400D02*
D03*
X121000Y49600D02*
D03*
Y24200D02*
D03*
X200000Y570000D02*
D03*
D118*
X1015400Y674000D02*
D03*
X466500Y382500D02*
D03*
X1052500Y533000D02*
D03*
X1091600Y387000D02*
D03*
X746200Y179500D02*
D03*
X567400Y665000D02*
D03*
X125000Y570000D02*
D03*
X616600Y665000D02*
D03*
X225400Y570000D02*
D03*
D119*
X121000Y132400D02*
D03*
X200000Y50000D02*
D03*
X767000Y17600D02*
D03*
X838000Y46000D02*
D03*
X904000Y47028D02*
D03*
X121000Y75000D02*
D03*
D120*
X88650Y449000D02*
D03*
D121*
Y521000D02*
D03*
D122*
X16650Y529900D02*
D03*
Y440100D02*
D03*
X76150Y443700D02*
D03*
Y526300D02*
D03*
D123*
X6000Y299500D02*
D03*
Y334500D02*
D03*
M02*
