G04*
G04 #@! TF.GenerationSoftware,Altium Limited,Altium Designer,22.0.2 (36)*
G04*
G04 Layer_Color=65535*
%FSLAX44Y44*%
%MOMM*%
G71*
G04*
G04 #@! TF.SameCoordinates,AD71EA70-9FC7-4FF3-9A77-F54E5D2193E9*
G04*
G04*
G04 #@! TF.FilePolarity,Positive*
G04*
G01*
G75*
%ADD10C,0.2000*%
%ADD11C,0.1524*%
%ADD12C,0.3000*%
%ADD13C,0.1000*%
%ADD14C,0.2500*%
%ADD15C,0.1270*%
%ADD16C,0.1500*%
%ADD17C,0.2540*%
%ADD18C,0.1250*%
%ADD19C,0.1700*%
D10*
X1315100Y662750D02*
G03*
X1315100Y662750I-1000J0D01*
G01*
X85500Y702500D02*
G03*
X84500Y702500I-500J0D01*
G01*
X1125750Y535000D02*
G03*
X1123750Y535000I-1000J0D01*
G01*
D02*
G03*
X1125750Y535000I1000J0D01*
G01*
X1087250Y576000D02*
G03*
X1085250Y576000I-1000J0D01*
G01*
D02*
G03*
X1087250Y576000I1000J0D01*
G01*
X1101600Y31678D02*
G03*
X1101600Y31678I-500J0D01*
G01*
X823000Y702500D02*
G03*
X824000Y702500I500J0D01*
G01*
D02*
G03*
X823000Y702500I-500J0D01*
G01*
X284500Y257500D02*
G03*
X284500Y257500I-1000J0D01*
G01*
X211585Y280510D02*
G03*
X211585Y280510I-1000J0D01*
G01*
X159000Y314000D02*
G03*
X159000Y312000I0J-1000D01*
G01*
D02*
G03*
X159000Y314000I0J1000D01*
G01*
X125000Y186000D02*
G03*
X125000Y184000I0J-1000D01*
G01*
D02*
G03*
X125000Y186000I0J1000D01*
G01*
X195370Y224370D02*
G03*
X195370Y224370I-1000J0D01*
G01*
X52500Y144500D02*
G03*
X52500Y144500I-1000J0D01*
G01*
X673000Y158250D02*
X696250D01*
X673000Y141750D02*
Y158250D01*
Y141750D02*
X696250D01*
X563000D02*
X586250D01*
X563000D02*
Y158250D01*
X586250D01*
X453000Y141750D02*
X476250D01*
X453000D02*
Y158250D01*
X476250D01*
X343000Y141750D02*
X366250D01*
X343000D02*
Y158250D01*
X366250D01*
X1155100Y661300D02*
Y686700D01*
X1002700Y661300D02*
Y686700D01*
Y661300D02*
X1155100D01*
X1002700Y686700D02*
X1155100D01*
X133700Y94300D02*
Y145100D01*
X108300D02*
X133700D01*
X108300Y94300D02*
Y145100D01*
Y94300D02*
X133700D01*
X187300Y37300D02*
Y88100D01*
Y37300D02*
X212700D01*
Y88100D01*
X187300D02*
X212700D01*
X184250Y108750D02*
X207500D01*
X184250D02*
Y125250D01*
X207500D01*
X682400Y369800D02*
Y395200D01*
X453800Y369800D02*
X682400D01*
X453800D02*
Y395200D01*
X682400D01*
X1315500Y568000D02*
Y571000D01*
X1226500Y401000D02*
Y497000D01*
X1327500Y401000D02*
Y497000D01*
X1257750Y342850D02*
X1281000D01*
X1257750D02*
Y359350D01*
X1281000D01*
X1328000Y375750D02*
Y386250D01*
X1189200Y2500D02*
Y144000D01*
Y2500D02*
X1303700D01*
Y149250D01*
X1280450D02*
X1303700D01*
X1280450Y144000D02*
Y149250D01*
X1189200Y144000D02*
X1280450D01*
X1132400Y47528D02*
Y48778D01*
X1104400Y47528D02*
Y48778D01*
Y66278D02*
Y67528D01*
X1132400Y66278D02*
Y67528D01*
X1127900D02*
X1132400D01*
X1127900Y47528D02*
X1132400Y47528D01*
X1104400D02*
X1108900Y47528D01*
X1104400Y67528D02*
X1108900D01*
X1466500Y505000D02*
X1549500D01*
X1466500Y498750D02*
Y505000D01*
Y0D02*
X1549500D01*
X1466500D02*
Y6250D01*
X1014400Y520300D02*
Y545700D01*
X1065200D01*
Y520300D02*
Y545700D01*
X1014400Y520300D02*
X1065200D01*
X1151500Y614250D02*
X1174750D01*
X1151500Y597750D02*
Y614250D01*
Y597750D02*
X1174750D01*
X1145150Y576750D02*
Y587250D01*
X1078900Y374300D02*
X1155100D01*
Y399700D01*
X1078900D02*
X1155100D01*
X1078900Y374300D02*
Y399700D01*
X1020750Y207000D02*
X1031250D01*
X1049400Y207000D02*
Y209000D01*
X1039400Y207000D02*
Y209000D01*
X1016000Y339400D02*
Y341400D01*
X1026000Y339400D02*
Y341400D01*
X1149000Y17750D02*
Y28250D01*
X754300Y4900D02*
X779700D01*
X754300D02*
Y81100D01*
X779700D01*
Y4900D02*
Y81100D01*
X825300Y7900D02*
X850700D01*
X825300D02*
Y58700D01*
X850700D01*
Y7900D02*
Y58700D01*
X1118750Y430000D02*
X1129250D01*
X891300Y8928D02*
X916700D01*
X891300D02*
Y59728D01*
X916700D01*
Y8928D02*
Y59728D01*
X860500Y166800D02*
Y192200D01*
X733500Y166800D02*
Y192200D01*
Y166800D02*
X860500D01*
X733500Y192200D02*
X860500D01*
X707000Y661750D02*
Y672250D01*
Y681750D02*
Y692250D01*
X503900Y677700D02*
X580100D01*
X503900Y652300D02*
Y677700D01*
Y652300D02*
X580100D01*
Y677700D01*
X670500Y599750D02*
X680500D01*
X684000Y578000D02*
Y598000D01*
Y578000D02*
X686000D01*
Y598000D01*
X684000D02*
X686000D01*
X670500Y572750D02*
X680500D01*
X684000Y551000D02*
Y571000D01*
Y551000D02*
X686000D01*
Y571000D01*
X684000D02*
X686000D01*
X285000Y154500D02*
Y159000D01*
X265000D02*
X265000Y154500D01*
X265000Y131000D02*
X265000Y135500D01*
X285000Y131000D02*
Y135500D01*
X283750Y131000D02*
X285000D01*
X283750Y159000D02*
X285000D01*
X265000D02*
X266250D01*
X265000Y131000D02*
X266250D01*
X97250Y439000D02*
Y454000D01*
X87000Y439000D02*
X97250D01*
X28000D02*
X65000D01*
X-7250D02*
X5000D01*
X-7250D02*
Y531000D01*
X5000D01*
X28000D02*
X65000D01*
X87000D02*
X97250D01*
Y517000D02*
Y531000D01*
X112300Y582700D02*
X163100D01*
X112300Y557300D02*
Y582700D01*
Y557300D02*
X163100D01*
Y582700D01*
X62000Y409750D02*
Y420250D01*
X1408500Y338500D02*
Y341500D01*
X616500Y138250D02*
X626500D01*
X613000Y140000D02*
Y160000D01*
X611000D02*
X613000D01*
X611000Y140000D02*
Y160000D01*
Y140000D02*
X613000D01*
X506500Y138250D02*
X516500D01*
X503000Y140000D02*
Y160000D01*
X501000D02*
X503000D01*
X501000Y140000D02*
Y160000D01*
Y140000D02*
X503000D01*
X396500Y138250D02*
X406500D01*
X393000Y140000D02*
Y160000D01*
X391000D02*
X393000D01*
X391000Y140000D02*
Y160000D01*
Y140000D02*
X393000D01*
X283500Y262000D02*
X288000Y257500D01*
X304500D01*
Y270500D01*
X283500D02*
X304500D01*
X283500Y262000D02*
Y270500D01*
X45000Y57000D02*
X55000D01*
X45000Y27000D02*
X55000D01*
X45000D02*
Y57000D01*
X55000Y27000D02*
Y57000D01*
X210585Y285500D02*
X215575Y280510D01*
X230565D01*
Y295490D01*
X210585D02*
X230565D01*
X210585Y285500D02*
Y295490D01*
X75500Y345000D02*
Y352000D01*
X2500D02*
X75500D01*
X2500Y345000D02*
Y352000D01*
Y309000D02*
Y325000D01*
Y282000D02*
Y291000D01*
Y282000D02*
X75500D01*
Y289000D01*
Y309000D02*
Y325000D01*
X270000Y319000D02*
Y321000D01*
X250000Y319000D02*
X270000D01*
X250000D02*
Y321000D01*
X270000D01*
X271750Y324500D02*
Y334500D01*
X146250Y181500D02*
Y218000D01*
X130750Y181500D02*
Y208500D01*
X721500Y140000D02*
X723500D01*
X721500D02*
Y160000D01*
X723500D01*
Y140000D02*
Y160000D01*
X727000Y138250D02*
X737000D01*
X684000Y625000D02*
X686000D01*
Y605000D02*
Y625000D01*
X684000Y605000D02*
X686000D01*
X684000D02*
Y625000D01*
X670500Y626750D02*
X680500D01*
X218000Y277250D02*
X241250D01*
Y260750D02*
Y277250D01*
X218000Y260750D02*
X241250D01*
X51376Y242740D02*
X74626D01*
Y226240D02*
Y242740D01*
X51376Y226240D02*
X74626D01*
X244250Y434250D02*
Y457500D01*
X227750Y434250D02*
X244250D01*
X227750D02*
Y457500D01*
X603900Y652300D02*
X680100D01*
Y677700D01*
X603900D02*
X680100D01*
X603900Y652300D02*
Y677700D01*
X29000Y134000D02*
X45000D01*
X56000Y144500D02*
X64500D01*
Y123500D02*
Y144500D01*
X51500Y123500D02*
X64500D01*
X51500D02*
Y140000D01*
X56000Y144500D01*
X108300Y11500D02*
Y87700D01*
Y11500D02*
X133700D01*
Y87700D01*
X108300D02*
X133700D01*
X187300Y557300D02*
X238100D01*
Y582700D01*
X187300D02*
X238100D01*
X187300Y557300D02*
Y582700D01*
X11000Y670995D02*
Y660998D01*
X15998Y656000D01*
X20997Y660998D01*
Y670995D01*
X33493Y656000D02*
X28494D01*
X25995Y658499D01*
Y663498D01*
X28494Y665997D01*
X33493D01*
X35992Y663498D01*
Y660998D01*
X25995D01*
X40990Y665997D02*
Y656000D01*
Y660998D01*
X43489Y663498D01*
X45989Y665997D01*
X48488D01*
X70981Y656000D02*
X75979D01*
X73480D01*
Y670995D01*
X70981Y668496D01*
X83476Y656000D02*
Y658499D01*
X85976D01*
Y656000D01*
X83476D01*
X95972Y668496D02*
X98472Y670995D01*
X103470D01*
X105969Y668496D01*
Y658499D01*
X103470Y656000D01*
X98472D01*
X95972Y658499D01*
Y668496D01*
X11000Y690995D02*
Y676000D01*
X20997D01*
X25995Y690995D02*
X35992D01*
X30993D01*
Y676000D01*
X50987Y690995D02*
X40990D01*
Y676000D01*
X50987D01*
X40990Y683498D02*
X45989D01*
X55985Y690995D02*
Y676000D01*
X60984Y680998D01*
X65982Y676000D01*
Y690995D01*
X73480Y685997D02*
X78478D01*
X80977Y683498D01*
Y676000D01*
X73480D01*
X70981Y678499D01*
X73480Y680998D01*
X80977D01*
X88475Y688496D02*
Y685997D01*
X85976D01*
X90974D01*
X88475D01*
Y678499D01*
X90974Y676000D01*
X108468Y685997D02*
X100971D01*
X98472Y683498D01*
Y678499D01*
X100971Y676000D01*
X108468D01*
X113467Y690995D02*
Y676000D01*
Y683498D01*
X115966Y685997D01*
X120964D01*
X123464Y683498D01*
Y676000D01*
X128462D02*
Y678499D01*
X130961D01*
Y676000D01*
X128462D01*
X140958D02*
Y690995D01*
X148455D01*
X150955Y688496D01*
Y683498D01*
X148455Y680998D01*
X140958D01*
X165950Y685997D02*
X158452D01*
X155953Y683498D01*
Y678499D01*
X158452Y676000D01*
X165950D01*
X170948Y690995D02*
Y676000D01*
X178446D01*
X180945Y678499D01*
Y680998D01*
Y683498D01*
X178446Y685997D01*
X170948D01*
X185943Y690995D02*
Y676000D01*
X193441D01*
X195940Y678499D01*
Y688496D01*
X193441Y690995D01*
X185943D01*
X203438Y676000D02*
X208436D01*
X210935Y678499D01*
Y683498D01*
X208436Y685997D01*
X203438D01*
X200938Y683498D01*
Y678499D01*
X203438Y676000D01*
X225930Y685997D02*
X218433D01*
X215934Y683498D01*
Y678499D01*
X218433Y676000D01*
X225930D01*
X127000Y656000D02*
X131998D01*
X129499D01*
Y670995D01*
X127000Y668496D01*
X139496Y658499D02*
X141995Y656000D01*
X146994D01*
X149493Y658499D01*
Y668496D01*
X146994Y670995D01*
X141995D01*
X139496Y668496D01*
Y665997D01*
X141995Y663498D01*
X149493D01*
X154491Y656000D02*
Y658499D01*
X156990D01*
Y656000D01*
X154491D01*
X166987D02*
X171985D01*
X169486D01*
Y670995D01*
X166987Y668496D01*
X179483D02*
X181982Y670995D01*
X186981D01*
X189480Y668496D01*
Y658499D01*
X186981Y656000D01*
X181982D01*
X179483Y658499D01*
Y668496D01*
X194478Y656000D02*
Y658499D01*
X196977D01*
Y656000D01*
X194478D01*
X216971D02*
X206974D01*
X216971Y665997D01*
Y668496D01*
X214472Y670995D01*
X209473D01*
X206974Y668496D01*
X221969D02*
X224468Y670995D01*
X229467D01*
X231966Y668496D01*
Y658499D01*
X229467Y656000D01*
X224468D01*
X221969Y658499D01*
Y668496D01*
X246961Y656000D02*
X236964D01*
X246961Y665997D01*
Y668496D01*
X244462Y670995D01*
X239464D01*
X236964Y668496D01*
X251960Y656000D02*
X256958D01*
X254459D01*
Y670995D01*
X251960Y668496D01*
D11*
X374758Y70000D02*
G03*
X374758Y70000I-16008J0D01*
G01*
X704758D02*
G03*
X704758Y70000I-16008J0D01*
G01*
X594758D02*
G03*
X594758Y70000I-16008J0D01*
G01*
X484758D02*
G03*
X484758Y70000I-16008J0D01*
G01*
X894000Y662500D02*
X984000D01*
X894000D02*
Y697500D01*
X984000D01*
Y662500D02*
Y697500D01*
X924000Y718000D02*
X927000D01*
X936500Y697500D02*
Y701000D01*
Y703600D02*
Y706600D01*
X930600Y718000D02*
X933100D01*
X921500Y703600D02*
Y706600D01*
Y697500D02*
Y701000D01*
Y709200D02*
Y712200D01*
X936500Y709200D02*
Y712200D01*
X924600Y718000D02*
X927100D01*
X936500Y715000D02*
Y718000D01*
X921500Y715000D02*
Y718000D01*
X941500Y697500D02*
Y718000D01*
X956500D01*
Y697500D02*
Y718000D01*
X328750Y40000D02*
Y100000D01*
Y40000D02*
X388750D01*
Y100000D01*
X328750D02*
X388750D01*
X1052400Y210500D02*
Y222250D01*
Y193750D02*
Y205500D01*
X1036400Y210500D02*
Y222250D01*
Y193750D02*
Y205500D01*
Y193750D02*
X1052400D01*
X1036400Y222250D02*
X1052400D01*
X1013000Y326150D02*
Y337900D01*
Y342900D02*
Y354650D01*
X1029000Y326150D02*
Y337900D01*
Y342900D02*
Y354650D01*
X1013000D02*
X1029000D01*
X1013000Y326150D02*
X1029000D01*
X1079999Y331899D02*
Y338899D01*
X1061999Y331899D02*
Y338899D01*
X1068499D01*
X1073499D02*
X1079999D01*
X1061999Y331899D02*
X1068499D01*
X1073499D02*
X1079999D01*
X658750Y40000D02*
X718750D01*
X658750D02*
Y100000D01*
X718750D01*
Y40000D02*
Y100000D01*
X608750Y40000D02*
Y100000D01*
X548750D02*
X608750D01*
X548750Y40000D02*
Y100000D01*
Y40000D02*
X608750D01*
X438750Y40000D02*
Y100000D01*
Y40000D02*
X498750D01*
Y100000D01*
X438750D02*
X498750D01*
X262500Y40000D02*
X287500D01*
X262500Y100000D02*
X287500D01*
X262500Y40000D02*
Y63200D01*
Y76800D02*
Y100000D01*
X287500Y40000D02*
Y45700D01*
Y94300D02*
Y100000D01*
Y59300D02*
Y80700D01*
X119501Y434249D02*
Y440749D01*
Y422749D02*
Y429249D01*
X112501Y434249D02*
Y440749D01*
Y422749D02*
Y429249D01*
Y422749D02*
X119501D01*
X112501Y440749D02*
X119501D01*
X121501D02*
X128501D01*
X121501Y422749D02*
X128501D01*
X121501D02*
Y429249D01*
Y434249D02*
Y440749D01*
X128501Y422749D02*
Y429249D01*
Y434249D02*
Y440749D01*
X945000Y4000D02*
X948386D01*
X946693D01*
Y14157D01*
X945000Y12464D01*
D12*
X1332000Y537500D02*
G03*
X1331000Y537500I-500J0D01*
G01*
D02*
G03*
X1332000Y537500I500J0D01*
G01*
X1077250Y325000D02*
G03*
X1077250Y325000I-1500J0D01*
G01*
X952150Y34528D02*
X964900D01*
Y7528D02*
Y34528D01*
X952150Y70528D02*
X1015650D01*
X952150Y7528D02*
X1015650D01*
X952150D02*
Y70528D01*
X1015650Y7528D02*
Y70528D01*
D13*
X1320000Y582000D02*
G03*
X1321000Y582000I500J0D01*
G01*
D02*
G03*
X1320000Y582000I-500J0D01*
G01*
X1233000Y389000D02*
G03*
X1233000Y388000I0J-500D01*
G01*
D02*
G03*
X1233000Y389000I0J500D01*
G01*
X1267000Y265000D02*
G03*
X1267000Y264000I0J-500D01*
G01*
D02*
G03*
X1267000Y265000I0J500D01*
G01*
X817500Y88000D02*
G03*
X816500Y88000I-500J0D01*
G01*
D02*
G03*
X817500Y88000I500J0D01*
G01*
X104000Y512510D02*
G03*
X103000Y512510I-500J0D01*
G01*
Y512500D02*
G03*
X104000Y512500I500J0D01*
G01*
X108000Y334500D02*
G03*
X107000Y334500I-500J0D01*
G01*
D02*
G03*
X108000Y334500I500J0D01*
G01*
X68000Y205000D02*
G03*
X68000Y206000I0J500D01*
G01*
D02*
G03*
X68000Y205000I0J-500D01*
G01*
X152000Y496000D02*
G03*
X151000Y496000I-500J0D01*
G01*
D02*
G03*
X152000Y496000I500J0D01*
G01*
X60000Y200000D02*
G03*
X61000Y200000I500J0D01*
G01*
D02*
G03*
X60000Y200000I-500J0D01*
G01*
X259500Y275500D02*
X272500D01*
X259500Y300500D02*
X272500D01*
X259500Y275500D02*
Y300500D01*
X272500Y275500D02*
Y300500D01*
X5500Y117500D02*
X18500D01*
X5500Y92500D02*
X18500D01*
Y117500D01*
X5500Y92500D02*
Y117500D01*
X150500Y224000D02*
X163500D01*
X150500Y199000D02*
X163500D01*
Y224000D01*
X150500Y199000D02*
Y224000D01*
X701250Y103500D02*
Y116500D01*
X676250Y103500D02*
Y116500D01*
Y103500D02*
X701250D01*
X676250Y116500D02*
X701250D01*
X205500Y167500D02*
X218500D01*
X205500Y192500D02*
X218500D01*
X205500Y167500D02*
Y192500D01*
X218500Y167500D02*
Y192500D01*
X212500Y91500D02*
Y104500D01*
X187500Y91500D02*
Y104500D01*
Y91500D02*
X212500D01*
X187500Y104500D02*
X212500D01*
X1219500Y409500D02*
Y422500D01*
X1194500Y409500D02*
Y422500D01*
Y409500D02*
X1219500D01*
X1194500Y422500D02*
X1219500D01*
Y422500D02*
Y435500D01*
X1194500Y422500D02*
Y435500D01*
Y422500D02*
X1219500D01*
X1194500Y435500D02*
X1219500D01*
X1194500Y435500D02*
Y448500D01*
X1219500Y435500D02*
Y448500D01*
X1194500D02*
X1219500D01*
X1194500Y435500D02*
X1219500D01*
Y448500D02*
Y461500D01*
X1194500Y448500D02*
Y461500D01*
Y448500D02*
X1219500D01*
X1194500Y461500D02*
X1219500D01*
Y490500D02*
Y503500D01*
X1194500Y490500D02*
Y503500D01*
Y490500D02*
X1219500D01*
X1194500Y503500D02*
X1219500D01*
Y477500D02*
Y490500D01*
X1194500Y477500D02*
Y490500D01*
Y477500D02*
X1219500D01*
X1194500Y490500D02*
X1219500D01*
Y464500D02*
Y477500D01*
X1194500Y464500D02*
Y477500D01*
Y464500D02*
X1219500D01*
X1194500Y477500D02*
X1219500D01*
X1319000Y639000D02*
Y645000D01*
X1311000Y655000D02*
X1317000D01*
X1311000Y628000D02*
X1317000D01*
X1295000Y525500D02*
Y531500D01*
X1292124Y552000D02*
Y577000D01*
X1279124Y552000D02*
Y577000D01*
X1292124D01*
X1279124Y552000D02*
X1292124D01*
X1331500Y411500D02*
X1344500D01*
X1331500Y386500D02*
X1344500D01*
Y411500D01*
X1331500Y386500D02*
Y411500D01*
Y361600D02*
X1344500D01*
X1331500Y386600D02*
X1344500D01*
X1331500Y361600D02*
Y386600D01*
X1344500Y361600D02*
Y386600D01*
X1303500Y344500D02*
X1328500D01*
X1303500Y357500D02*
X1328500D01*
Y344500D02*
Y357500D01*
X1303500Y344500D02*
Y357500D01*
X1278500Y374500D02*
Y387500D01*
X1303500Y374500D02*
Y387500D01*
X1278500D02*
X1303500D01*
X1278500Y374500D02*
X1303500D01*
X1259500Y361500D02*
X1272500D01*
X1259500Y386500D02*
X1272500D01*
X1259500Y361500D02*
Y386500D01*
X1272500Y361500D02*
Y386500D01*
X1077500Y537500D02*
X1090500D01*
X1077500Y562500D02*
X1090500D01*
X1077500Y537500D02*
Y562500D01*
X1090500Y537500D02*
Y562500D01*
X1141500Y439500D02*
X1166500D01*
X1141500Y426500D02*
X1166500D01*
X1141500D02*
Y439500D01*
X1166500Y426500D02*
Y439500D01*
X1141500Y452500D02*
X1166500D01*
X1141500Y439500D02*
X1166500D01*
X1141500D02*
Y452500D01*
X1166500Y439500D02*
Y452500D01*
X1183750Y579500D02*
Y584500D01*
X1124250Y521500D02*
Y534500D01*
X1149250Y521500D02*
Y534500D01*
X1124250D02*
X1149250D01*
X1124250Y521500D02*
X1149250D01*
X1147750Y599500D02*
Y612500D01*
X1122750Y599500D02*
Y612500D01*
Y599500D02*
X1147750D01*
X1122750Y612500D02*
X1147750D01*
X1120250Y563000D02*
X1124750D01*
X1120250Y549000D02*
Y563000D01*
X1144750D02*
X1149250D01*
Y549000D02*
Y563000D01*
X1130750Y545000D02*
X1138750D01*
X1162250Y562000D02*
X1175250D01*
X1162250Y587000D02*
X1175250D01*
X1162250Y562000D02*
Y587000D01*
X1175250Y562000D02*
Y587000D01*
X1103500Y562500D02*
X1116500D01*
X1103500Y537500D02*
X1116500D01*
Y562500D01*
X1103500Y537500D02*
Y562500D01*
X1090500D02*
X1103500D01*
X1090500Y537500D02*
X1103500D01*
Y562500D01*
X1090500Y537500D02*
Y562500D01*
X1081750Y604000D02*
X1086250D01*
X1081750Y590000D02*
Y604000D01*
X1106250D02*
X1110750D01*
Y590000D02*
Y604000D01*
X1092250Y586000D02*
X1100250D01*
X875500Y667500D02*
Y692500D01*
X862500Y667500D02*
Y692500D01*
X875500D01*
X862500Y667500D02*
X875500D01*
X1173500Y11500D02*
Y36500D01*
X1186500Y11500D02*
Y36500D01*
X1173500Y11500D02*
X1186500D01*
X1173500Y36500D02*
X1186500D01*
X1066500Y197500D02*
X1079500D01*
X1066500Y222500D02*
X1079500D01*
X1066500Y197500D02*
Y222500D01*
X1079500Y197500D02*
Y222500D01*
X1053500Y197500D02*
X1066500D01*
X1053500Y222500D02*
X1066500D01*
X1053500Y197500D02*
Y222500D01*
X1066500Y197500D02*
Y222500D01*
X1045900Y248500D02*
X1070900D01*
X1045900Y235500D02*
X1070900D01*
X1045900D02*
Y248500D01*
X1070900Y235500D02*
Y248500D01*
X1045900Y264500D02*
X1070900D01*
X1045900Y251500D02*
X1070900D01*
X1045900D02*
Y264500D01*
X1070900Y251500D02*
Y264500D01*
X1045900Y293500D02*
Y306500D01*
X1070900Y293500D02*
Y306500D01*
X1045900D02*
X1070900D01*
X1045900Y293500D02*
X1070900D01*
X1045900Y280500D02*
X1070900D01*
X1045900Y293500D02*
X1070900D01*
Y280500D02*
Y293500D01*
X1045900Y280500D02*
Y293500D01*
Y267500D02*
X1070900D01*
X1045900Y280500D02*
X1070900D01*
Y267500D02*
Y280500D01*
X1045900Y267500D02*
Y280500D01*
X1047500Y380500D02*
Y393500D01*
X1072500Y380500D02*
Y393500D01*
X1047500D02*
X1072500D01*
X1047500Y380500D02*
X1072500D01*
X1056500Y341900D02*
Y354900D01*
X1081500Y341900D02*
Y354900D01*
X1056500D02*
X1081500D01*
X1056500Y341900D02*
X1081500D01*
X1030500Y354900D02*
X1043500D01*
X1030500Y329900D02*
X1043500D01*
Y354900D01*
X1030500Y329900D02*
Y354900D01*
X1043500D02*
X1056500D01*
X1043500Y329900D02*
X1056500D01*
Y354900D01*
X1043500Y329900D02*
Y354900D01*
X1122900Y205500D02*
X1135900D01*
X1122900Y180500D02*
X1135900D01*
Y205500D01*
X1122900Y180500D02*
Y205500D01*
X1135900Y180500D02*
X1148900D01*
X1135900Y205500D02*
X1148900D01*
X1135900Y180500D02*
Y205500D01*
X1148900Y180500D02*
Y205500D01*
X1155500Y47500D02*
Y72500D01*
X1142500Y47500D02*
Y72500D01*
X1155500D01*
X1142500Y47500D02*
X1155500D01*
X1129400Y86028D02*
X1154400D01*
X1129400Y73028D02*
X1154400D01*
X1129400D02*
Y86028D01*
X1154400Y73028D02*
Y86028D01*
X1039500Y102500D02*
X1064500D01*
X1039500Y89500D02*
X1064500D01*
X1039500D02*
Y102500D01*
X1064500Y89500D02*
Y102500D01*
X863500Y86000D02*
Y111000D01*
X850500Y86000D02*
Y111000D01*
X863500D01*
X850500Y86000D02*
X863500D01*
X850500D02*
Y111000D01*
X837500Y86000D02*
Y111000D01*
X850500D01*
X837500Y86000D02*
X850500D01*
X1087500Y427500D02*
X1100500D01*
X1087500Y452500D02*
X1100500D01*
X1087500Y427500D02*
Y452500D01*
X1100500Y427500D02*
Y452500D01*
X566500Y162500D02*
Y175500D01*
X591500Y162500D02*
Y175500D01*
X566500D02*
X591500D01*
X566500Y162500D02*
X591500D01*
X456500D02*
Y175500D01*
X481500Y162500D02*
Y175500D01*
X456500D02*
X481500D01*
X456500Y162500D02*
X481500D01*
X346500D02*
Y175500D01*
X371500Y162500D02*
Y175500D01*
X346500D02*
X371500D01*
X346500Y162500D02*
X371500D01*
X752500Y686000D02*
X770000D01*
X752500D02*
X770000D01*
X847500Y675000D02*
Y686000D01*
Y675000D02*
Y686000D01*
X752500Y675000D02*
Y686000D01*
Y675000D02*
Y686000D01*
X830000D02*
X847500D01*
X830000D02*
X847500D01*
X752500Y624000D02*
Y640000D01*
Y624000D02*
Y640000D01*
Y624000D02*
X847500D01*
X752500D02*
X847500D01*
Y642500D01*
Y624000D02*
Y642500D01*
X724500Y692500D02*
X737500D01*
X724500Y667500D02*
X737500D01*
Y692500D01*
X724500Y667500D02*
Y692500D01*
X703500Y600500D02*
X716500D01*
X703500Y575500D02*
X716500D01*
Y600500D01*
X703500Y575500D02*
Y600500D01*
Y573500D02*
X716500D01*
X703500Y548500D02*
X716500D01*
Y573500D01*
X703500Y548500D02*
Y573500D01*
X653500Y548500D02*
X666500D01*
X653500Y573500D02*
X666500D01*
X653500Y548500D02*
Y573500D01*
X666500Y548500D02*
Y573500D01*
X653500Y575500D02*
X666500D01*
X653500Y600500D02*
X666500D01*
X653500Y575500D02*
Y600500D01*
X666500Y575500D02*
Y600500D01*
X240000Y127500D02*
Y152500D01*
X253000Y127500D02*
Y152500D01*
X240000Y127500D02*
X253000D01*
X240000Y152500D02*
X253000D01*
X19500Y408500D02*
Y421500D01*
X44500Y408500D02*
Y421500D01*
X19500D02*
X44500D01*
X19500Y408500D02*
X44500D01*
X43500Y541500D02*
Y554500D01*
X18500Y541500D02*
Y554500D01*
Y541500D02*
X43500D01*
X18500Y554500D02*
X43500D01*
X68500Y541500D02*
Y554500D01*
X43500Y541500D02*
Y554500D01*
Y541500D02*
X68500D01*
X43500Y554500D02*
X68500D01*
X1434000Y354750D02*
X1440000D01*
X1258300Y308500D02*
X1271300D01*
X1258300Y283500D02*
X1271300D01*
Y308500D01*
X1258300Y283500D02*
Y308500D01*
X506250Y103500D02*
Y116500D01*
X481250Y103500D02*
Y116500D01*
Y103500D02*
X506250D01*
X481250Y116500D02*
X506250D01*
X371250Y103500D02*
Y116500D01*
X346250Y103500D02*
Y116500D01*
Y103500D02*
X371250D01*
X346250Y116500D02*
X371250D01*
X481250Y103500D02*
Y116500D01*
X456250Y103500D02*
Y116500D01*
Y103500D02*
X481250D01*
X456250Y116500D02*
X481250D01*
X431250Y103500D02*
Y116500D01*
X456250Y103500D02*
Y116500D01*
X431250D02*
X456250D01*
X431250Y103500D02*
X456250D01*
X396250D02*
Y116500D01*
X371250Y103500D02*
Y116500D01*
Y103500D02*
X396250D01*
X371250Y116500D02*
X396250D01*
X321250Y103500D02*
Y116500D01*
X346250Y103500D02*
Y116500D01*
X321250D02*
X346250D01*
X321250Y103500D02*
X346250D01*
X616250D02*
Y116500D01*
X591250Y103500D02*
Y116500D01*
Y103500D02*
X616250D01*
X591250Y116500D02*
X616250D01*
X591250Y103500D02*
Y116500D01*
X566250Y103500D02*
Y116500D01*
Y103500D02*
X591250D01*
X566250Y116500D02*
X591250D01*
X591500Y162500D02*
Y175500D01*
X616500Y162500D02*
Y175500D01*
X591500D02*
X616500D01*
X591500Y162500D02*
X616500D01*
X541250Y103500D02*
Y116500D01*
X566250Y103500D02*
Y116500D01*
X541250D02*
X566250D01*
X541250Y103500D02*
X566250D01*
X481500Y162500D02*
Y175500D01*
X506500Y162500D02*
Y175500D01*
X481500D02*
X506500D01*
X481500Y162500D02*
X506500D01*
X371500D02*
Y175500D01*
X396500Y162500D02*
Y175500D01*
X371500D02*
X396500D01*
X371500Y162500D02*
X396500D01*
X298500Y300500D02*
X311500D01*
X298500Y275500D02*
X311500D01*
Y300500D01*
X298500Y275500D02*
Y300500D01*
X272500D02*
X285500D01*
X272500Y275500D02*
X285500D01*
Y300500D01*
X272500Y275500D02*
Y300500D01*
X285500Y275500D02*
Y300500D01*
X298500Y275500D02*
Y300500D01*
X285500Y275500D02*
X298500D01*
X285500Y300500D02*
X298500D01*
X311500D02*
X324500D01*
X311500Y275500D02*
X324500D01*
Y300500D01*
X311500Y275500D02*
Y300500D01*
X205500Y217500D02*
X218500D01*
X205500Y192500D02*
X218500D01*
Y217500D01*
X205500Y192500D02*
Y217500D01*
X192500Y192500D02*
X205500D01*
X192500Y217500D02*
X205500D01*
X192500Y192500D02*
Y217500D01*
X205500Y192500D02*
Y217500D01*
X13500Y29500D02*
X26500D01*
X13500Y54500D02*
X26500D01*
X13500Y29500D02*
Y54500D01*
X26500Y29500D02*
Y54500D01*
X73500Y29500D02*
X86500D01*
X73500Y54500D02*
X86500D01*
X73500Y29500D02*
Y54500D01*
X86500Y29500D02*
Y54500D01*
X192750Y261500D02*
X205750D01*
X192750Y286500D02*
X205750D01*
X192750Y261500D02*
Y286500D01*
X205750Y261500D02*
Y286500D01*
X179500Y261500D02*
Y286500D01*
X166500Y261500D02*
Y286500D01*
X179500D01*
X166500Y261500D02*
X179500D01*
X166500D02*
Y286500D01*
X153500Y261500D02*
Y286500D01*
X166500D01*
X153500Y261500D02*
X166500D01*
X140500D02*
X153500D01*
X140500Y286500D02*
X153500D01*
X140500Y261500D02*
Y286500D01*
X153500Y261500D02*
Y286500D01*
X179500D02*
X192500D01*
X179500Y261500D02*
X192500D01*
Y286500D01*
X179500Y261500D02*
Y286500D01*
X219500Y332500D02*
X232500D01*
X219500Y307500D02*
X232500D01*
Y332500D01*
X219500Y307500D02*
Y332500D01*
X165500Y302500D02*
Y305000D01*
Y302500D02*
X168000D01*
X165500Y335000D02*
Y337500D01*
X168000D01*
X208000Y302500D02*
X210500D01*
X210500Y305000D02*
X210500Y302500D01*
X208000Y337500D02*
X210500D01*
X210500Y335000D02*
X210500Y337500D01*
X153500Y471500D02*
Y484500D01*
X178500Y471500D02*
Y484500D01*
X153500D02*
X178500D01*
X153500Y471500D02*
X178500D01*
X149500Y478500D02*
Y491000D01*
X120500Y478000D02*
Y491500D01*
X97000Y180500D02*
Y185000D01*
Y180500D02*
X111000D01*
X97000Y205000D02*
Y209500D01*
X111000D01*
X115000Y191000D02*
Y199000D01*
X5130Y180000D02*
Y200000D01*
X47630Y165000D02*
Y170000D01*
X22630Y165000D02*
X47630D01*
Y210000D02*
Y215000D01*
X22630D02*
X47630D01*
X110500Y305500D02*
X135500D01*
X110500Y318500D02*
X135500D01*
Y305500D02*
Y318500D01*
X110500Y305500D02*
Y318500D01*
Y292500D02*
X135500D01*
X110500Y305500D02*
X135500D01*
Y292500D02*
Y305500D01*
X110500Y292500D02*
Y305500D01*
X135500Y307500D02*
Y332500D01*
X148500Y307500D02*
Y332500D01*
X135500Y307500D02*
X148500D01*
X135500Y332500D02*
X148500D01*
X110500Y279500D02*
X135500D01*
X110500Y292500D02*
X135500D01*
Y279500D02*
Y292500D01*
X110500Y279500D02*
Y292500D01*
X148500Y307500D02*
Y332500D01*
X161500Y307500D02*
Y332500D01*
X148500Y307500D02*
X161500D01*
X148500Y332500D02*
X161500D01*
X232500Y307500D02*
Y332500D01*
X245500Y307500D02*
Y332500D01*
X232500Y307500D02*
X245500D01*
X232500Y332500D02*
X245500D01*
X211500Y378500D02*
Y403500D01*
X198500Y378500D02*
Y403500D01*
X211500D01*
X198500Y378500D02*
X211500D01*
X182500D02*
Y403500D01*
X169500Y378500D02*
Y403500D01*
X182500D01*
X169500Y378500D02*
X182500D01*
X195500D02*
Y403500D01*
X182500Y378500D02*
Y403500D01*
X195500D01*
X182500Y378500D02*
X195500D01*
X198500Y353500D02*
Y378500D01*
X211500Y353500D02*
Y378500D01*
X198500Y353500D02*
X211500D01*
X198500Y378500D02*
X211500D01*
X156500Y353500D02*
Y378500D01*
X169500Y353500D02*
Y378500D01*
X156500Y353500D02*
X169500D01*
X156500Y378500D02*
X169500D01*
X182500Y353500D02*
Y378500D01*
X195500Y353500D02*
Y378500D01*
X182500Y353500D02*
X195500D01*
X182500Y378500D02*
X195500D01*
X169500Y353500D02*
Y378500D01*
X182500Y353500D02*
Y378500D01*
X169500Y353500D02*
X182500D01*
X169500Y378500D02*
X182500D01*
X287500Y307500D02*
Y332500D01*
X274500Y307500D02*
Y332500D01*
X287500D01*
X274500Y307500D02*
X287500D01*
X211500Y353500D02*
Y378500D01*
X224500Y353500D02*
Y378500D01*
X211500Y353500D02*
X224500D01*
X211500Y378500D02*
X224500D01*
X237500Y353500D02*
Y378500D01*
X224500Y353500D02*
Y378500D01*
X237500D01*
X224500Y353500D02*
X237500D01*
X651250Y103500D02*
X676250D01*
X651250Y116500D02*
X676250D01*
Y103500D02*
Y116500D01*
X651250Y103500D02*
Y116500D01*
X701250D02*
X726250D01*
X701250Y103500D02*
X726250D01*
X701250D02*
Y116500D01*
X726250Y103500D02*
Y116500D01*
X703500Y602500D02*
Y627500D01*
X716500Y602500D02*
Y627500D01*
X703500Y602500D02*
X716500D01*
X703500Y627500D02*
X716500D01*
X648500Y602500D02*
Y627500D01*
X635500Y602500D02*
Y627500D01*
X648500D01*
X635500Y602500D02*
X648500D01*
X666500D02*
Y627500D01*
X653500Y602500D02*
Y627500D01*
X666500D01*
X653500Y602500D02*
X666500D01*
X676500Y164500D02*
X701500D01*
X676500Y177500D02*
X701500D01*
Y164500D02*
Y177500D01*
X676500Y164500D02*
Y177500D01*
X701500Y164500D02*
X726500D01*
X701500Y177500D02*
X726500D01*
Y164500D02*
Y177500D01*
X701500Y164500D02*
Y177500D01*
X188500Y213500D02*
Y238500D01*
X175500Y213500D02*
Y238500D01*
X188500D01*
X175500Y213500D02*
X188500D01*
X287500Y307500D02*
Y332500D01*
X300500Y307500D02*
Y332500D01*
X287500Y307500D02*
X300500D01*
X287500Y332500D02*
X300500D01*
X205500Y167500D02*
Y192500D01*
X192500Y167500D02*
Y192500D01*
X205500D01*
X192500Y167500D02*
X205500D01*
X73500Y92500D02*
Y117500D01*
X86500Y92500D02*
Y117500D01*
X73500Y92500D02*
X86500D01*
X73500Y117500D02*
X86500D01*
X60500Y92500D02*
Y117500D01*
X73500Y92500D02*
Y117500D01*
X60500Y92500D02*
X73500D01*
X60500Y117500D02*
X73500D01*
X31500Y92500D02*
Y117500D01*
X18500Y92500D02*
Y117500D01*
X31500D01*
X18500Y92500D02*
X31500D01*
X44500D02*
Y117500D01*
X31500Y92500D02*
Y117500D01*
X44500D01*
X31500Y92500D02*
X44500D01*
X57500D02*
Y117500D01*
X44500Y92500D02*
Y117500D01*
X57500D01*
X44500Y92500D02*
X57500D01*
X81500Y125500D02*
Y150500D01*
X68500Y125500D02*
Y150500D01*
X81500D01*
X68500Y125500D02*
X81500D01*
X99500Y92500D02*
Y117500D01*
X86500Y92500D02*
Y117500D01*
X99500D01*
X86500Y92500D02*
X99500D01*
X87500Y182500D02*
Y207500D01*
X74500Y182500D02*
Y207500D01*
X87500D01*
X74500Y182500D02*
X87500D01*
X77876Y241010D02*
X102876D01*
X77876Y228010D02*
X102876D01*
X77876D02*
Y241010D01*
X102876Y228010D02*
Y241010D01*
X150500Y173500D02*
Y198500D01*
X163500Y173500D02*
Y198500D01*
X150500Y173500D02*
X163500D01*
X150500Y198500D02*
X163500D01*
X94500Y163500D02*
X119500D01*
X94500Y176500D02*
X119500D01*
Y163500D02*
Y176500D01*
X94500Y163500D02*
Y176500D01*
X227500Y437500D02*
Y462500D01*
X214500Y437500D02*
Y462500D01*
X227500D01*
X214500Y437500D02*
X227500D01*
X153500Y484500D02*
X178500D01*
X153500Y497500D02*
X178500D01*
Y484500D02*
Y497500D01*
X153500Y484500D02*
Y497500D01*
X120500Y514500D02*
X145500D01*
X120500Y501500D02*
X145500D01*
X120500D02*
Y514500D01*
X145500Y501500D02*
Y514500D01*
X175500Y437500D02*
Y462500D01*
X188500Y437500D02*
Y462500D01*
X175500Y437500D02*
X188500D01*
X175500Y462500D02*
X188500D01*
X120500Y468500D02*
X145500D01*
X120500Y455500D02*
X145500D01*
X120500D02*
Y468500D01*
X145500Y455500D02*
Y468500D01*
X214500Y437500D02*
Y462500D01*
X201500Y437500D02*
Y462500D01*
X214500D01*
X201500Y437500D02*
X214500D01*
X201500D02*
Y462500D01*
X188500Y437500D02*
Y462500D01*
X201500D01*
X188500Y437500D02*
X201500D01*
D14*
X1306628Y-857D02*
G03*
X1306816Y-616I1072J-642D01*
G01*
X1131900Y71528D02*
G03*
X1131900Y71528I-500J0D01*
G01*
X1038150Y12528D02*
G03*
X1038150Y12528I-1000J0D01*
G01*
X289500Y132000D02*
G03*
X289500Y132000I-500J0D01*
G01*
X37500Y60000D02*
G03*
X37500Y60000I-1250J0D01*
G01*
X180750Y466250D02*
G03*
X180750Y466250I-1250J0D01*
G01*
D15*
X1249000Y667750D02*
Y674250D01*
Y667750D02*
X1295500D01*
X1319000Y683750D02*
Y697750D01*
X1307500D02*
X1319000D01*
X1249000D02*
X1295500D01*
X1249000Y691250D02*
Y697750D01*
D16*
X1135900Y452500D02*
X1146400Y459000D01*
X1135900Y430000D02*
X1136080Y421002D01*
X1285624Y363876D02*
X1290300Y359350D01*
X1067000Y120000D02*
Y132000D01*
X1308500Y607700D02*
X1319500D01*
X1319500Y614500D01*
X1308500D02*
X1308500Y607700D01*
X1301500Y597700D02*
Y606300D01*
X1317600Y614500D02*
X1319500D01*
X1308500D02*
X1310400D01*
X1326500Y597700D02*
Y606300D01*
X1317750Y591250D02*
X1319500Y589500D01*
X1308500D02*
X1310250Y591250D01*
X1155400Y175000D02*
Y177000D01*
X1125400Y151000D02*
Y153000D01*
X1155400Y151000D02*
Y153000D01*
X1125400Y175000D02*
Y177000D01*
Y151000D02*
X1155400D01*
X1125400Y177000D02*
X1155400D01*
X1273500Y284500D02*
X1275250Y282750D01*
X1273500Y273500D02*
X1275250Y275250D01*
X1281700Y266500D02*
X1290300D01*
X1298500Y282600D02*
Y284500D01*
Y273500D02*
Y275400D01*
X1281700Y291500D02*
X1290300D01*
X1291700Y284500D02*
X1298500Y284500D01*
X1291700Y273500D02*
X1298500Y273500D01*
X1291700Y273500D02*
Y284500D01*
X1109000Y459000D02*
Y461000D01*
X1139000Y483000D02*
Y485000D01*
X1109000Y483000D02*
Y485000D01*
X1139000Y459000D02*
Y461000D01*
X1109000Y485000D02*
X1139000D01*
X1109000Y459000D02*
X1139000D01*
X1248900Y335000D02*
X1248900Y225000D01*
X1083900D02*
Y335000D01*
X1248900D01*
X1083900Y225000D02*
X1248900D01*
X1089150Y70228D02*
Y78278D01*
X1089150Y16778D02*
Y24828D01*
X1037650Y70228D02*
Y78278D01*
Y16778D02*
Y24828D01*
X1086400Y78278D02*
X1089150D01*
X1037650D02*
X1040400D01*
X1086400Y16778D02*
X1089150D01*
X1037650Y16778D02*
X1040400D01*
X194370Y229000D02*
Y237630D01*
X207630D01*
Y224370D02*
Y237630D01*
X199000Y224370D02*
X207630D01*
X194370Y229000D02*
X199000Y224370D01*
X0Y700000D02*
X1550000D01*
X0Y0D02*
Y700000D01*
X1550000D02*
X1550000Y0D01*
X0D02*
X1550000D01*
D17*
X428400Y407900D02*
X695100D01*
Y496800D01*
X428400Y407900D02*
Y496800D01*
X606200D02*
X695100D01*
X517300D02*
Y585700D01*
X606200Y496800D02*
Y585700D01*
X517300D02*
X606200D01*
X428400Y496800D02*
X517300D01*
X1261500Y571133D02*
Y593060D01*
X1218800Y613750D02*
X1239990D01*
X1198000Y570543D02*
Y593060D01*
X1219387Y550250D02*
X1241317D01*
X1309433Y246750D02*
X1331363D01*
X1352750Y203940D02*
Y226457D01*
X1310760Y183250D02*
X1331950D01*
X1289250Y203940D02*
Y225867D01*
X483033Y478507D02*
X493190D01*
X488112D01*
Y463271D01*
X498269Y478507D02*
X503347D01*
X500808D01*
Y463271D01*
X498269D01*
X503347D01*
X510964Y478507D02*
X521121D01*
X516043D01*
Y463271D01*
X526199D02*
Y473428D01*
X531278Y478507D01*
X536356Y473428D01*
Y463271D01*
Y470889D01*
X526199D01*
X541435Y463271D02*
Y478507D01*
X551591Y463271D01*
Y478507D01*
X571905Y465811D02*
X574444Y463271D01*
X579522D01*
X582061Y465811D01*
Y475967D01*
X579522Y478507D01*
X574444D01*
X571905Y475967D01*
Y473428D01*
X574444Y470889D01*
X582061D01*
X587140Y475967D02*
X589679Y478507D01*
X594757D01*
X597296Y475967D01*
Y465811D01*
X594757Y463271D01*
X589679D01*
X587140Y465811D01*
Y475967D01*
X602375D02*
X604914Y478507D01*
X609992D01*
X612532Y475967D01*
Y473428D01*
X609992Y470889D01*
X607453D01*
X609992D01*
X612532Y468350D01*
Y465811D01*
X609992Y463271D01*
X604914D01*
X602375Y465811D01*
X617610Y463271D02*
Y473428D01*
X622688Y478507D01*
X627767Y473428D01*
Y463271D01*
Y470889D01*
X617610D01*
X527469Y438893D02*
Y454128D01*
X532547Y449050D01*
X537626Y454128D01*
Y438893D01*
X550322Y454128D02*
X545243D01*
X542704Y451589D01*
Y441433D01*
X545243Y438893D01*
X550322D01*
X552861Y441433D01*
Y451589D01*
X550322Y454128D01*
X557939D02*
X568096D01*
X563018D01*
Y438893D01*
X580792Y454128D02*
X575714D01*
X573174Y451589D01*
Y441433D01*
X575714Y438893D01*
X580792D01*
X583331Y441433D01*
Y451589D01*
X580792Y454128D01*
X588409Y438893D02*
Y454128D01*
X596027D01*
X598566Y451589D01*
Y446511D01*
X596027Y443972D01*
X588409D01*
X593488D02*
X598566Y438893D01*
X921998Y623540D02*
X910002D01*
X914001Y627539D01*
X910002Y631537D01*
X921998D01*
X912001Y643533D02*
X910002Y641534D01*
Y637536D01*
X912001Y635536D01*
X919999D01*
X921998Y637536D01*
Y641534D01*
X919999Y643533D01*
X910002Y647532D02*
X919999D01*
X921998Y649532D01*
Y653530D01*
X919999Y655530D01*
X910002D01*
X909003Y615461D02*
X907003Y617460D01*
X903005D01*
X901005Y615461D01*
Y607463D01*
X903005Y605464D01*
X907003D01*
X909003Y607463D01*
Y611462D01*
X905004D01*
X913001Y605464D02*
Y617460D01*
X918999D01*
X920999Y615461D01*
Y611462D01*
X918999Y609463D01*
X913001D01*
X932995Y615461D02*
X930995Y617460D01*
X926997D01*
X924997Y615461D01*
Y613461D01*
X926997Y611462D01*
X930995D01*
X932995Y609463D01*
Y607463D01*
X930995Y605464D01*
X926997D01*
X924997Y607463D01*
X962002Y632537D02*
Y624540D01*
X973998D01*
Y632537D01*
X968000Y624540D02*
Y628539D01*
X962002Y636536D02*
X973998Y644533D01*
X962002D02*
X973998Y636536D01*
X962002Y648532D02*
Y656530D01*
Y652531D01*
X973998D01*
X948007Y620536D02*
Y610539D01*
X950006Y608540D01*
X954005D01*
X956004Y610539D01*
Y620536D01*
X960003Y608540D02*
Y616537D01*
X964002Y620536D01*
X968001Y616537D01*
Y608540D01*
Y614538D01*
X960003D01*
X971999Y608540D02*
Y620536D01*
X977997D01*
X979997Y618537D01*
Y614538D01*
X977997Y612539D01*
X971999D01*
X975998D02*
X979997Y608540D01*
X983996Y620536D02*
X991993D01*
X987994D01*
Y608540D01*
X1137401Y630268D02*
X1135402Y628268D01*
Y624270D01*
X1137401Y622270D01*
X1145399D01*
X1147398Y624270D01*
Y628268D01*
X1145399Y630268D01*
X1141400D01*
Y626269D01*
X1147398Y634267D02*
X1135402D01*
X1147398Y642264D01*
X1135402D01*
Y646263D02*
X1147398D01*
Y652261D01*
X1145399Y654260D01*
X1137401D01*
X1135402Y652261D01*
Y646263D01*
X1112001Y630268D02*
X1110002Y628268D01*
Y624270D01*
X1112001Y622270D01*
X1119999D01*
X1121998Y624270D01*
Y628268D01*
X1119999Y630268D01*
X1110002Y634267D02*
Y642264D01*
Y638265D01*
X1121998D01*
X1112001Y654260D02*
X1110002Y652261D01*
Y648262D01*
X1112001Y646263D01*
X1114001D01*
X1116000Y648262D01*
Y652261D01*
X1117999Y654260D01*
X1119999D01*
X1121998Y652261D01*
Y648262D01*
X1119999Y646263D01*
X1084602Y622270D02*
X1092599D01*
X1096598Y626269D01*
X1092599Y630268D01*
X1084602D01*
X1086601Y642264D02*
X1084602Y640265D01*
Y636266D01*
X1086601Y634267D01*
X1094599D01*
X1096598Y636266D01*
Y640265D01*
X1094599Y642264D01*
X1086601Y654260D02*
X1084602Y652261D01*
Y648262D01*
X1086601Y646263D01*
X1094599D01*
X1096598Y648262D01*
Y652261D01*
X1094599Y654260D01*
X1071198Y626269D02*
X1059202D01*
Y632267D01*
X1061201Y634267D01*
X1065200D01*
X1067199Y632267D01*
Y626269D01*
Y630268D02*
X1071198Y634267D01*
X1059202Y638265D02*
X1071198Y646263D01*
X1059202D02*
X1071198Y638265D01*
X1059202Y650261D02*
Y654260D01*
Y652261D01*
X1071198D01*
Y650261D01*
Y654260D01*
X1033802Y622270D02*
Y630268D01*
Y626269D01*
X1045798D01*
X1033802Y634266D02*
X1045798Y642264D01*
X1033802D02*
X1045798Y634266D01*
X1033802Y652261D02*
Y648262D01*
X1035801Y646263D01*
X1043799D01*
X1045798Y648262D01*
Y652261D01*
X1043799Y654260D01*
X1035801D01*
X1033802Y652261D01*
X1008402Y622270D02*
X1020398D01*
Y628268D01*
X1018399Y630268D01*
X1010401D01*
X1008402Y628268D01*
Y622270D01*
Y634266D02*
Y642264D01*
Y638265D01*
X1020398D01*
Y646263D02*
X1008402D01*
Y652261D01*
X1010401Y654260D01*
X1014400D01*
X1016399Y652261D01*
Y646263D01*
Y650261D02*
X1020398Y654260D01*
X1163001Y667003D02*
X1161002Y665003D01*
Y661004D01*
X1163001Y659005D01*
X1170999D01*
X1172998Y661004D01*
Y665003D01*
X1170999Y667003D01*
X1167000D01*
Y663004D01*
X1172998Y671001D02*
X1161002D01*
Y676999D01*
X1163001Y678999D01*
X1167000D01*
X1168999Y676999D01*
Y671001D01*
X1163001Y690995D02*
X1161002Y688995D01*
Y684997D01*
X1163001Y682997D01*
X1165001D01*
X1167000Y684997D01*
Y688995D01*
X1168999Y690995D01*
X1170999D01*
X1172998Y688995D01*
Y684997D01*
X1170999Y682997D01*
X988002Y658004D02*
Y650006D01*
X994000D01*
Y654005D01*
Y650006D01*
X999998D01*
X988002Y662003D02*
Y670000D01*
Y666001D01*
X999998D01*
X988002Y673999D02*
X999998D01*
Y679997D01*
X997999Y681996D01*
X990001D01*
X988002Y679997D01*
Y673999D01*
Y685995D02*
Y689994D01*
Y687994D01*
X999998D01*
Y685995D01*
Y689994D01*
X400843Y408382D02*
Y423618D01*
X405922Y418539D01*
X411000Y423618D01*
Y408382D01*
X416078D02*
X421157D01*
X418618D01*
Y423618D01*
X416078Y421078D01*
D18*
X1102975Y15253D02*
Y29803D01*
Y15253D02*
X1123825D01*
X1102975Y29803D02*
X1123825D01*
Y15253D02*
Y29803D01*
D19*
X919364Y527031D02*
X917698Y528697D01*
X914366D01*
X912700Y527031D01*
Y520366D01*
X914366Y518700D01*
X917698D01*
X919364Y520366D01*
Y523698D01*
X916032D01*
X922697Y518700D02*
Y528697D01*
X929361Y518700D01*
Y528697D01*
X932693D02*
Y518700D01*
X937692D01*
X939358Y520366D01*
Y527031D01*
X937692Y528697D01*
X932693D01*
X1338365Y24859D02*
X1336698Y26525D01*
X1333366D01*
X1331700Y24859D01*
Y18194D01*
X1333366Y16528D01*
X1336698D01*
X1338365Y18194D01*
Y21526D01*
X1335032D01*
X1341697Y16528D02*
Y26525D01*
X1348361Y16528D01*
Y26525D01*
X1351694D02*
Y16528D01*
X1356692D01*
X1358358Y18194D01*
Y24859D01*
X1356692Y26525D01*
X1351694D01*
X1134765Y409002D02*
X1128100D01*
X1134765Y415666D01*
Y417332D01*
X1133099Y418998D01*
X1129766D01*
X1128100Y417332D01*
X1138097D02*
X1139763Y418998D01*
X1143095D01*
X1144762Y417332D01*
Y415666D01*
X1143095Y414000D01*
X1141429D01*
X1143095D01*
X1144762Y412334D01*
Y410668D01*
X1143095Y409002D01*
X1139763D01*
X1138097Y410668D01*
X1154865Y465898D02*
X1148200D01*
Y460900D01*
X1151532Y462566D01*
X1153198D01*
X1154865Y460900D01*
Y457568D01*
X1153198Y455902D01*
X1149866D01*
X1148200Y457568D01*
X1158197Y455902D02*
X1161529D01*
X1159863D01*
Y465898D01*
X1158197Y464232D01*
X1115365Y575998D02*
X1112032Y574332D01*
X1108700Y571000D01*
Y567668D01*
X1110366Y566002D01*
X1113698D01*
X1115365Y567668D01*
Y569334D01*
X1113698Y571000D01*
X1108700D01*
X1118697Y567668D02*
X1120363Y566002D01*
X1123695D01*
X1125361Y567668D01*
Y574332D01*
X1123695Y575998D01*
X1120363D01*
X1118697Y574332D01*
Y572666D01*
X1120363Y571000D01*
X1125361D01*
X1025365Y506332D02*
X1023698Y507998D01*
X1020366D01*
X1018700Y506332D01*
Y499668D01*
X1020366Y498002D01*
X1023698D01*
X1025365Y499668D01*
Y503000D01*
X1022032D01*
X1028697Y498002D02*
Y507998D01*
X1033695D01*
X1035361Y506332D01*
Y503000D01*
X1033695Y501334D01*
X1028697D01*
X1045358Y506332D02*
X1043692Y507998D01*
X1040360D01*
X1038693Y506332D01*
Y504666D01*
X1040360Y503000D01*
X1043692D01*
X1045358Y501334D01*
Y499668D01*
X1043692Y498002D01*
X1040360D01*
X1038693Y499668D01*
X1048690Y498002D02*
X1055355Y504666D01*
X1065352Y506332D02*
X1063686Y507998D01*
X1060353D01*
X1058687Y506332D01*
Y504666D01*
X1060353Y503000D01*
X1063686D01*
X1065352Y501334D01*
Y499668D01*
X1063686Y498002D01*
X1060353D01*
X1058687Y499668D01*
X1068684Y498002D02*
Y504666D01*
X1072016Y507998D01*
X1075348Y504666D01*
Y498002D01*
Y503000D01*
X1068684D01*
X1085345Y507998D02*
X1078681D01*
Y503000D01*
X1082013D01*
X1078681D01*
Y498002D01*
X1095342Y507998D02*
X1088677D01*
Y498002D01*
X1095342D01*
X1088677Y503000D02*
X1092010D01*
X1098674Y507998D02*
Y498002D01*
X1103673D01*
X1105339Y499668D01*
Y501334D01*
X1103673Y503000D01*
X1098674D01*
X1103673D01*
X1105339Y504666D01*
Y506332D01*
X1103673Y507998D01*
X1098674D01*
X1108671D02*
X1115335D01*
X1112003D01*
Y498002D01*
X1208100Y524832D02*
Y518167D01*
X1211432Y514835D01*
X1214765Y518167D01*
Y524832D01*
X1224762Y523165D02*
X1223095Y524832D01*
X1219763D01*
X1218097Y523165D01*
Y516501D01*
X1219763Y514835D01*
X1223095D01*
X1224762Y516501D01*
X1234758Y523165D02*
X1233092Y524832D01*
X1229760D01*
X1228094Y523165D01*
Y516501D01*
X1229760Y514835D01*
X1233092D01*
X1234758Y516501D01*
X1238091Y513168D02*
X1244755D01*
X1248087Y514835D02*
Y524832D01*
X1253086D01*
X1254752Y523165D01*
Y519833D01*
X1253086Y518167D01*
X1248087D01*
X1251420D02*
X1254752Y514835D01*
X1264749Y524832D02*
X1258084D01*
Y519833D01*
X1261416D01*
X1258084D01*
Y514835D01*
X1207652Y541832D02*
Y531835D01*
X1214316D01*
X1217648D02*
Y541832D01*
X1224313Y531835D01*
Y541832D01*
X1227645Y531835D02*
Y538499D01*
X1230977Y541832D01*
X1234310Y538499D01*
Y531835D01*
Y536833D01*
X1227645D01*
X1237642Y530168D02*
X1244306D01*
X1254303Y541832D02*
X1247639D01*
Y531835D01*
X1254303D01*
X1247639Y536833D02*
X1250971D01*
X1257635Y531835D02*
Y541832D01*
X1264300Y531835D01*
Y541832D01*
X1183668Y390364D02*
X1182002Y388698D01*
Y385366D01*
X1183668Y383700D01*
X1190332D01*
X1191998Y385366D01*
Y388698D01*
X1190332Y390364D01*
X1187000D01*
Y387032D01*
X1191998Y393697D02*
X1182002D01*
Y398695D01*
X1183668Y400361D01*
X1187000D01*
X1188666Y398695D01*
Y393697D01*
X1183668Y410358D02*
X1182002Y408692D01*
Y405360D01*
X1183668Y403694D01*
X1185334D01*
X1187000Y405360D01*
Y408692D01*
X1188666Y410358D01*
X1190332D01*
X1191998Y408692D01*
Y405360D01*
X1190332Y403694D01*
X1191998Y420355D02*
X1185334Y413690D01*
X1191998Y423687D02*
X1182002D01*
Y428685D01*
X1183668Y430352D01*
X1187000D01*
X1188666Y428685D01*
Y423687D01*
Y427019D02*
X1191998Y430352D01*
X1183668Y440348D02*
X1182002Y438682D01*
Y435350D01*
X1183668Y433684D01*
X1185334D01*
X1187000Y435350D01*
Y438682D01*
X1188666Y440348D01*
X1190332D01*
X1191998Y438682D01*
Y435350D01*
X1190332Y433684D01*
X1182002Y443681D02*
Y450345D01*
Y447013D01*
X1191998D01*
X1158899Y485864D02*
X1152234Y479200D01*
X1158899Y489197D02*
X1148902D01*
Y494195D01*
X1150568Y495861D01*
X1153900D01*
X1155566Y494195D01*
Y489197D01*
Y492529D02*
X1158899Y495861D01*
X1150568Y505858D02*
X1148902Y504192D01*
Y500860D01*
X1150568Y499194D01*
X1152234D01*
X1153900Y500860D01*
Y504192D01*
X1155566Y505858D01*
X1157233D01*
X1158899Y504192D01*
Y500860D01*
X1157233Y499194D01*
X1148902Y509190D02*
Y515855D01*
Y512523D01*
X1158899D01*
X1225600Y385498D02*
X1232265D01*
Y383832D01*
X1225600Y377168D01*
Y375502D01*
X1240595D02*
Y385498D01*
X1235597Y380500D01*
X1242262D01*
X1290002Y320995D02*
X1296666D01*
X1299998Y324327D01*
X1296666Y327659D01*
X1290002D01*
X1291668Y337656D02*
X1290002Y335990D01*
Y332658D01*
X1291668Y330992D01*
X1298332D01*
X1299998Y332658D01*
Y335990D01*
X1298332Y337656D01*
X1295000D01*
Y334324D01*
X1299998Y340989D02*
X1290002D01*
Y345987D01*
X1291668Y347653D01*
X1295000D01*
X1296666Y345987D01*
Y340989D01*
X1291668Y357650D02*
X1290002Y355984D01*
Y352651D01*
X1291668Y350985D01*
X1293334D01*
X1295000Y352651D01*
Y355984D01*
X1296666Y357650D01*
X1298332D01*
X1299998Y355984D01*
Y352651D01*
X1298332Y350985D01*
X1255968Y178319D02*
Y171655D01*
X1265965D01*
Y178319D01*
X1260967Y171655D02*
Y174987D01*
X1255968Y181652D02*
X1265965Y188316D01*
X1255968D02*
X1265965Y181652D01*
X1255968Y191648D02*
Y198313D01*
Y194981D01*
X1265965D01*
X1267631Y201645D02*
Y208310D01*
X1265965Y211642D02*
X1259301D01*
X1255968Y214974D01*
X1259301Y218307D01*
X1265965D01*
X1260967D01*
Y211642D01*
X1265965Y221639D02*
X1255968D01*
X1265965Y228303D01*
X1255968D01*
Y231636D02*
Y238300D01*
Y234968D01*
X1265965D01*
X1331364Y93332D02*
X1329698Y94998D01*
X1326366D01*
X1324700Y93332D01*
Y91666D01*
X1326366Y90000D01*
X1329698D01*
X1331364Y88334D01*
Y86668D01*
X1329698Y85002D01*
X1326366D01*
X1324700Y86668D01*
X1334697Y94998D02*
Y85002D01*
X1339695D01*
X1341361Y86668D01*
Y93332D01*
X1339695Y94998D01*
X1334697D01*
X1344693Y85002D02*
Y91666D01*
X1348026Y94998D01*
X1351358Y91666D01*
Y85002D01*
Y90000D01*
X1344693D01*
X1354690Y94998D02*
X1361355D01*
X1358023D01*
Y85002D01*
X1364687D02*
Y91666D01*
X1368019Y94998D01*
X1371352Y91666D01*
Y85002D01*
Y90000D01*
X1364687D01*
X1331364Y108332D02*
X1329698Y109998D01*
X1326366D01*
X1324700Y108332D01*
Y106666D01*
X1326366Y105000D01*
X1329698D01*
X1331364Y103334D01*
Y101668D01*
X1329698Y100002D01*
X1326366D01*
X1324700Y101668D01*
X1341361Y108332D02*
X1339695Y109998D01*
X1336363D01*
X1334697Y108332D01*
Y101668D01*
X1336363Y100002D01*
X1339695D01*
X1341361Y101668D01*
X1344693Y109998D02*
Y100002D01*
X1351358D01*
X1354690Y109998D02*
Y100002D01*
Y103334D01*
X1361355Y109998D01*
X1356356Y105000D01*
X1361355Y100002D01*
X1324700Y124998D02*
Y118334D01*
X1328032Y115002D01*
X1331364Y118334D01*
Y124998D01*
X1334697D02*
X1338029D01*
X1336363D01*
Y115002D01*
X1334697D01*
X1338029D01*
X1348026Y124998D02*
X1344693D01*
X1343027Y123332D01*
Y116668D01*
X1344693Y115002D01*
X1348026D01*
X1349692Y116668D01*
Y123332D01*
X1348026Y124998D01*
X1324700Y130002D02*
Y139998D01*
X1328032Y136666D01*
X1331364Y139998D01*
Y130002D01*
X1334697D02*
Y136666D01*
X1338029Y139998D01*
X1341361Y136666D01*
Y130002D01*
Y135000D01*
X1334697D01*
X1351358Y138332D02*
X1349692Y139998D01*
X1346360D01*
X1344693Y138332D01*
Y131668D01*
X1346360Y130002D01*
X1349692D01*
X1351358Y131668D01*
Y135000D01*
X1348026D01*
X1354690Y130002D02*
Y139998D01*
X1359689D01*
X1361355Y138332D01*
Y135000D01*
X1359689Y133334D01*
X1354690D01*
X1364687Y139998D02*
X1368019D01*
X1366353D01*
Y130002D01*
X1364687D01*
X1368019D01*
X1378016Y139998D02*
X1374684D01*
X1373018Y138332D01*
Y131668D01*
X1374684Y130002D01*
X1378016D01*
X1379682Y131668D01*
Y138332D01*
X1378016Y139998D01*
X1389679Y130002D02*
X1383015D01*
X1389679Y136666D01*
Y138332D01*
X1388013Y139998D01*
X1384681D01*
X1383015Y138332D01*
X1180198Y190502D02*
Y200499D01*
X1175200Y195501D01*
X1181864D01*
X1185197Y198833D02*
X1186863Y200499D01*
X1190195D01*
X1191861Y198833D01*
Y197167D01*
X1190195Y195501D01*
X1191861Y193834D01*
Y192168D01*
X1190195Y190502D01*
X1186863D01*
X1185197Y192168D01*
Y193834D01*
X1186863Y195501D01*
X1185197Y197167D01*
Y198833D01*
X1186863Y195501D02*
X1190195D01*
X1084364Y130998D02*
X1077700D01*
Y126000D01*
X1081032Y127666D01*
X1082698D01*
X1084364Y126000D01*
Y122668D01*
X1082698Y121002D01*
X1079366D01*
X1077700Y122668D01*
X1087697Y129332D02*
X1089363Y130998D01*
X1092695D01*
X1094361Y129332D01*
Y127666D01*
X1092695Y126000D01*
X1091029D01*
X1092695D01*
X1094361Y124334D01*
Y122668D01*
X1092695Y121002D01*
X1089363D01*
X1087697Y122668D01*
X1065365Y143998D02*
X1058700D01*
Y139000D01*
X1062032Y140666D01*
X1063698D01*
X1065365Y139000D01*
Y135668D01*
X1063698Y134002D01*
X1060366D01*
X1058700Y135668D01*
X1073695Y134002D02*
Y143998D01*
X1068697Y139000D01*
X1075361D01*
X1046014Y129998D02*
X1039350D01*
Y125000D01*
X1042682Y126666D01*
X1044348D01*
X1046014Y125000D01*
Y121668D01*
X1044348Y120002D01*
X1041016D01*
X1039350Y121668D01*
X1056011Y120002D02*
X1049347D01*
X1056011Y126666D01*
Y128332D01*
X1054345Y129998D01*
X1051013D01*
X1049347Y128332D01*
X1122002Y103700D02*
X1131998D01*
Y108698D01*
X1130332Y110365D01*
X1123668D01*
X1122002Y108698D01*
Y103700D01*
Y120361D02*
Y113697D01*
X1131998D01*
Y120361D01*
X1127000Y113697D02*
Y117029D01*
X1122002Y123694D02*
Y130358D01*
Y127026D01*
X1131998D01*
X1138668Y110364D02*
X1137002Y108698D01*
Y105366D01*
X1138668Y103700D01*
X1145332D01*
X1146998Y105366D01*
Y108698D01*
X1145332Y110364D01*
X1137002Y113697D02*
X1146998D01*
Y120361D01*
X1137002Y123694D02*
X1146998D01*
X1143666D01*
X1137002Y130358D01*
X1142000Y125360D01*
X1146998Y130358D01*
X1152002Y103700D02*
Y107032D01*
Y105366D01*
X1161998D01*
Y103700D01*
Y107032D01*
X1152002Y117029D02*
Y113697D01*
X1153668Y112031D01*
X1160332D01*
X1161998Y113697D01*
Y117029D01*
X1160332Y118695D01*
X1153668D01*
X1152002Y117029D01*
X1176998Y103700D02*
Y107032D01*
Y105366D01*
X1167002D01*
X1168668Y103700D01*
X1167002Y112031D02*
X1173666D01*
X1176998Y115363D01*
X1173666Y118695D01*
X1167002D01*
X1168668Y122027D02*
X1167002Y123694D01*
Y127026D01*
X1168668Y128692D01*
X1170334D01*
X1172000Y127026D01*
X1173666Y128692D01*
X1175332D01*
X1176998Y127026D01*
Y123694D01*
X1175332Y122027D01*
X1173666D01*
X1172000Y123694D01*
X1170334Y122027D01*
X1168668D01*
X1172000Y123694D02*
Y127026D01*
X1116998Y103700D02*
X1107002D01*
Y108698D01*
X1108668Y110364D01*
X1112000D01*
X1113666Y108698D01*
Y103700D01*
Y107032D02*
X1116998Y110364D01*
X1108668Y120361D02*
X1107002Y118695D01*
Y115363D01*
X1108668Y113697D01*
X1110334D01*
X1112000Y115363D01*
Y118695D01*
X1113666Y120361D01*
X1115332D01*
X1116998Y118695D01*
Y115363D01*
X1115332Y113697D01*
X1107002Y123694D02*
Y130358D01*
Y127026D01*
X1116998D01*
X998264Y83232D02*
X996598Y84898D01*
X993266D01*
X991600Y83232D01*
Y81566D01*
X993266Y79900D01*
X996598D01*
X998264Y78234D01*
Y76568D01*
X996598Y74902D01*
X993266D01*
X991600Y76568D01*
X1001597Y84898D02*
Y74902D01*
X1004929Y78234D01*
X1008261Y74902D01*
Y84898D01*
X1016592D02*
X1013260D01*
X1011593Y83232D01*
Y76568D01*
X1013260Y74902D01*
X1016592D01*
X1018258Y76568D01*
Y83232D01*
X1016592Y84898D01*
X985564Y98332D02*
X983898Y99998D01*
X980566D01*
X978900Y98332D01*
Y96666D01*
X980566Y95000D01*
X983898D01*
X985564Y93334D01*
Y91668D01*
X983898Y90002D01*
X980566D01*
X978900Y91668D01*
X988897Y99998D02*
Y90002D01*
X992229Y93334D01*
X995561Y90002D01*
Y99998D01*
X998894D02*
Y90002D01*
X1003892D01*
X1005558Y91668D01*
Y98332D01*
X1003892Y99998D01*
X998894D01*
X1015555Y98332D02*
X1013889Y99998D01*
X1010556D01*
X1008890Y98332D01*
Y91668D01*
X1010556Y90002D01*
X1013889D01*
X1015555Y91668D01*
X1018887Y99998D02*
Y90002D01*
X1025552D01*
X1028884Y99998D02*
Y90002D01*
Y93334D01*
X1035548Y99998D01*
X1030550Y95000D01*
X1035548Y90002D01*
X973364Y113332D02*
X971698Y114998D01*
X968366D01*
X966700Y113332D01*
Y111666D01*
X968366Y110000D01*
X971698D01*
X973364Y108334D01*
Y106668D01*
X971698Y105002D01*
X968366D01*
X966700Y106668D01*
X976697Y114998D02*
Y105002D01*
X980029Y108334D01*
X983361Y105002D01*
Y114998D01*
X986693D02*
Y105002D01*
X991692D01*
X993358Y106668D01*
Y113332D01*
X991692Y114998D01*
X986693D01*
X996690D02*
X1000023D01*
X998356D01*
Y105002D01*
X996690D01*
X1000023D01*
X1010019Y114998D02*
X1006687D01*
X1005021Y113332D01*
Y106668D01*
X1006687Y105002D01*
X1010019D01*
X1011685Y106668D01*
Y113332D01*
X1010019Y114998D01*
X889700Y85002D02*
Y91666D01*
X893032Y94998D01*
X896365Y91666D01*
Y85002D01*
Y90000D01*
X889700D01*
X906361Y93332D02*
X904695Y94998D01*
X901363D01*
X899697Y93332D01*
Y86668D01*
X901363Y85002D01*
X904695D01*
X906361Y86668D01*
X916358Y93332D02*
X914692Y94998D01*
X911360D01*
X909694Y93332D01*
Y86668D01*
X911360Y85002D01*
X914692D01*
X916358Y86668D01*
X926355Y85002D02*
X919690Y91666D01*
X929687Y94998D02*
X933019D01*
X931353D01*
Y85002D01*
X929687D01*
X933019D01*
X938018D02*
Y94998D01*
X944682Y85002D01*
Y94998D01*
X948015D02*
X954679D01*
X951347D01*
Y85002D01*
X889700Y100002D02*
Y106666D01*
X893032Y109998D01*
X896365Y106666D01*
Y100002D01*
Y105000D01*
X889700D01*
X906361Y108332D02*
X904695Y109998D01*
X901363D01*
X899697Y108332D01*
Y101668D01*
X901363Y100002D01*
X904695D01*
X906361Y101668D01*
X916358Y108332D02*
X914692Y109998D01*
X911360D01*
X909694Y108332D01*
Y101668D01*
X911360Y100002D01*
X914692D01*
X916358Y101668D01*
X926355Y100002D02*
X919690Y106666D01*
X936352Y108332D02*
X934686Y109998D01*
X931353D01*
X929687Y108332D01*
Y101668D01*
X931353Y100002D01*
X934686D01*
X936352Y101668D01*
X946348Y108332D02*
X944682Y109998D01*
X941350D01*
X939684Y108332D01*
Y106666D01*
X941350Y105000D01*
X944682D01*
X946348Y103334D01*
Y101668D01*
X944682Y100002D01*
X941350D01*
X939684Y101668D01*
X889700Y124998D02*
Y115002D01*
X894698D01*
X896365Y116668D01*
Y118334D01*
X894698Y120000D01*
X889700D01*
X894698D01*
X896365Y121666D01*
Y123332D01*
X894698Y124998D01*
X889700D01*
X899697D02*
X906361D01*
X903029D01*
Y115002D01*
X909694D02*
Y124998D01*
X916358Y115002D01*
Y124998D01*
X919690Y123332D02*
X921357Y124998D01*
X924689D01*
X926355Y123332D01*
Y116668D01*
X924689Y115002D01*
X921357D01*
X919690Y116668D01*
Y123332D01*
X889942Y139637D02*
Y129640D01*
X894941D01*
X896607Y131306D01*
Y132972D01*
X894941Y134638D01*
X889942D01*
X894941D01*
X896607Y136304D01*
Y137970D01*
X894941Y139637D01*
X889942D01*
X899939D02*
X906603D01*
X903271D01*
Y129640D01*
X909936D02*
Y139637D01*
X916600Y129640D01*
Y139637D01*
X919933Y129640D02*
X923265D01*
X921599D01*
Y139637D01*
X919933Y137970D01*
X889700Y154998D02*
Y145002D01*
X894698D01*
X896365Y146668D01*
Y148334D01*
X894698Y150000D01*
X889700D01*
X894698D01*
X896365Y151666D01*
Y153332D01*
X894698Y154998D01*
X889700D01*
X899697D02*
X906361D01*
X903029D01*
Y145002D01*
X909694D02*
Y154998D01*
X916358Y145002D01*
Y154998D01*
X926355Y145002D02*
X919690D01*
X926355Y151666D01*
Y153332D01*
X924689Y154998D01*
X921357D01*
X919690Y153332D01*
X889700Y169998D02*
Y160002D01*
X894698D01*
X896365Y161668D01*
Y163334D01*
X894698Y165000D01*
X889700D01*
X894698D01*
X896365Y166666D01*
Y168332D01*
X894698Y169998D01*
X889700D01*
X899697D02*
X906361D01*
X903029D01*
Y160002D01*
X909694D02*
Y169998D01*
X916358Y160002D01*
Y169998D01*
X919690Y168332D02*
X921357Y169998D01*
X924689D01*
X926355Y168332D01*
Y166666D01*
X924689Y165000D01*
X923023D01*
X924689D01*
X926355Y163334D01*
Y161668D01*
X924689Y160002D01*
X921357D01*
X919690Y161668D01*
X891625Y204002D02*
Y213998D01*
X894957Y210666D01*
X898290Y213998D01*
Y204002D01*
X901622Y212332D02*
X903288Y213998D01*
X906620D01*
X908286Y212332D01*
Y205668D01*
X906620Y204002D01*
X903288D01*
X901622Y205668D01*
Y212332D01*
X891625Y218002D02*
Y227998D01*
X894957Y224666D01*
X898290Y227998D01*
Y218002D01*
X908286D02*
X901622D01*
X908286Y224666D01*
Y226332D01*
X906620Y227998D01*
X903288D01*
X901622Y226332D01*
X811665Y242831D02*
Y232835D01*
X816663D01*
X818329Y234501D01*
Y236167D01*
X816663Y237833D01*
X811665D01*
X816663D01*
X818329Y239499D01*
Y241165D01*
X816663Y242831D01*
X811665D01*
X821661Y232835D02*
Y239499D01*
X824994Y242831D01*
X828326Y239499D01*
Y232835D01*
Y237833D01*
X821661D01*
X831658Y242831D02*
X838323D01*
X834990D01*
Y232835D01*
X841655Y231168D02*
X848319D01*
X851652Y242831D02*
Y232835D01*
X858316D01*
X861648Y242831D02*
Y236167D01*
X864981Y232835D01*
X868313Y236167D01*
Y242831D01*
X871645D02*
Y232835D01*
X878310D01*
X881642Y231168D02*
X888307D01*
X898303Y242831D02*
X891639D01*
Y232835D01*
X898303D01*
X891639Y237833D02*
X894971D01*
X901636Y232835D02*
Y242831D01*
X908300Y232835D01*
Y242831D01*
X888307Y257332D02*
X886640Y258998D01*
X883308D01*
X881642Y257332D01*
Y255666D01*
X883308Y254000D01*
X886640D01*
X888307Y252334D01*
Y250668D01*
X886640Y249002D01*
X883308D01*
X881642Y250668D01*
X898303Y257332D02*
X896637Y258998D01*
X893305D01*
X891639Y257332D01*
Y250668D01*
X893305Y249002D01*
X896637D01*
X898303Y250668D01*
X901636Y258998D02*
Y249002D01*
X908300D01*
X875442Y327998D02*
Y318002D01*
X880440D01*
X882106Y319668D01*
Y326332D01*
X880440Y327998D01*
X875442D01*
X892103Y318002D02*
X885438D01*
X892103Y324666D01*
Y326332D01*
X890437Y327998D01*
X887104D01*
X885438Y326332D01*
X895435Y318002D02*
Y327998D01*
X898767Y324666D01*
X902100Y327998D01*
Y318002D01*
X905432D02*
X908764D01*
X907098D01*
Y327998D01*
X905432Y326332D01*
X872109Y342998D02*
Y333002D01*
X877108D01*
X878774Y334668D01*
Y341332D01*
X877108Y342998D01*
X872109D01*
X888771Y333002D02*
X882106D01*
X888771Y339666D01*
Y341332D01*
X887104Y342998D01*
X883772D01*
X882106Y341332D01*
X892103Y333002D02*
Y342998D01*
X895435Y339666D01*
X898767Y342998D01*
Y333002D01*
X907098D02*
Y342998D01*
X902100Y338000D01*
X908764D01*
X861648Y357998D02*
Y348002D01*
X866647D01*
X868313Y349668D01*
Y356332D01*
X866647Y357998D01*
X861648D01*
X871645Y356332D02*
X873311Y357998D01*
X876644D01*
X878310Y356332D01*
Y354666D01*
X876644Y353000D01*
X874977D01*
X876644D01*
X878310Y351334D01*
Y349668D01*
X876644Y348002D01*
X873311D01*
X871645Y349668D01*
X888307Y356332D02*
X886640Y357998D01*
X883308D01*
X881642Y356332D01*
Y349668D01*
X883308Y348002D01*
X886640D01*
X888307Y349668D01*
X896637Y357998D02*
X893305D01*
X891639Y356332D01*
Y349668D01*
X893305Y348002D01*
X896637D01*
X898303Y349668D01*
Y356332D01*
X896637Y357998D01*
X901636Y348002D02*
Y357998D01*
X904968Y354666D01*
X908300Y357998D01*
Y348002D01*
X803320Y362835D02*
X796656Y369499D01*
X806653Y362835D02*
Y372831D01*
X809985Y369499D01*
X813317Y372831D01*
Y362835D01*
X823314Y371165D02*
X821648Y372831D01*
X818316D01*
X816649Y371165D01*
Y364501D01*
X818316Y362835D01*
X821648D01*
X823314Y364501D01*
X826646Y372831D02*
Y364501D01*
X828312Y362835D01*
X831645D01*
X833311Y364501D01*
Y372831D01*
X836643Y361169D02*
X843307D01*
X846640Y372831D02*
Y362835D01*
X851638D01*
X853304Y364501D01*
Y371165D01*
X851638Y372831D01*
X846640D01*
X856636D02*
X859969D01*
X858303D01*
Y362835D01*
X856636D01*
X859969D01*
X871632Y371165D02*
X869966Y372831D01*
X866633D01*
X864967Y371165D01*
Y369499D01*
X866633Y367833D01*
X869966D01*
X871632Y366167D01*
Y364501D01*
X869966Y362835D01*
X866633D01*
X864967Y364501D01*
X874964Y362835D02*
Y372831D01*
X879962D01*
X881628Y371165D01*
Y367833D01*
X879962Y366167D01*
X874964D01*
X884961Y361169D02*
X891625D01*
X901622Y371165D02*
X899956Y372831D01*
X896624D01*
X894957Y371165D01*
Y369499D01*
X896624Y367833D01*
X899956D01*
X901622Y366167D01*
Y364501D01*
X899956Y362835D01*
X896624D01*
X894957Y364501D01*
X904954Y372831D02*
X908286D01*
X906620D01*
Y362835D01*
X904954D01*
X908286D01*
X873298Y376002D02*
Y385998D01*
X876630Y382666D01*
X879962Y385998D01*
Y376002D01*
X883295Y385998D02*
X886627D01*
X884961D01*
Y376002D01*
X883295D01*
X886627D01*
X898290Y384332D02*
X896624Y385998D01*
X893291D01*
X891625Y384332D01*
Y382666D01*
X893291Y381000D01*
X896624D01*
X898290Y379334D01*
Y377668D01*
X896624Y376002D01*
X893291D01*
X891625Y377668D01*
X906620Y385998D02*
X903288D01*
X901622Y384332D01*
Y377668D01*
X903288Y376002D01*
X906620D01*
X908286Y377668D01*
Y384332D01*
X906620Y385998D01*
X800002Y390835D02*
X793337Y397499D01*
X803334Y390835D02*
Y400831D01*
X806666Y397499D01*
X809998Y400831D01*
Y390835D01*
X819995Y399165D02*
X818329Y400831D01*
X814997D01*
X813331Y399165D01*
Y392501D01*
X814997Y390835D01*
X818329D01*
X819995Y392501D01*
X823327Y400831D02*
Y392501D01*
X824994Y390835D01*
X828326D01*
X829992Y392501D01*
Y400831D01*
X833324Y389169D02*
X839989D01*
X843321Y400831D02*
Y390835D01*
X848319D01*
X849986Y392501D01*
Y399165D01*
X848319Y400831D01*
X843321D01*
X853318D02*
X856650D01*
X854984D01*
Y390835D01*
X853318D01*
X856650D01*
X868313Y399165D02*
X866647Y400831D01*
X863315D01*
X861648Y399165D01*
Y397499D01*
X863315Y395833D01*
X866647D01*
X868313Y394167D01*
Y392501D01*
X866647Y390835D01*
X863315D01*
X861648Y392501D01*
X871645Y390835D02*
Y400831D01*
X876644D01*
X878310Y399165D01*
Y395833D01*
X876644Y394167D01*
X871645D01*
X881642Y389169D02*
X888307D01*
X898303Y400831D02*
X891639D01*
Y390835D01*
X898303D01*
X891639Y395833D02*
X894971D01*
X901636Y390835D02*
Y400831D01*
X908300Y390835D01*
Y400831D01*
X935700Y211002D02*
Y220998D01*
X939032Y217666D01*
X942365Y220998D01*
Y211002D01*
X945697D02*
X949029D01*
X947363D01*
Y220998D01*
X945697Y219332D01*
X935700Y235832D02*
Y225835D01*
X940698D01*
X942365Y227501D01*
Y229167D01*
X940698Y230833D01*
X935700D01*
X940698D01*
X942365Y232499D01*
Y234165D01*
X940698Y235832D01*
X935700D01*
X945697Y225835D02*
Y232499D01*
X949029Y235832D01*
X952361Y232499D01*
Y225835D01*
Y230833D01*
X945697D01*
X955694Y235832D02*
X962358D01*
X959026D01*
Y225835D01*
X965690Y224168D02*
X972355D01*
X975687Y235832D02*
Y225835D01*
X982352D01*
X985684Y235832D02*
Y229167D01*
X989016Y225835D01*
X992348Y229167D01*
Y235832D01*
X995681D02*
Y225835D01*
X1002345D01*
X942365Y241002D02*
X935700Y247666D01*
X945697Y250998D02*
X949029D01*
X947363D01*
Y241002D01*
X945697D01*
X949029D01*
X954027D02*
Y250998D01*
X960692Y241002D01*
Y250998D01*
X964024D02*
X970689D01*
X967356D01*
Y241002D01*
X942365Y264332D02*
X940698Y265998D01*
X937366D01*
X935700Y264332D01*
Y262666D01*
X937366Y261000D01*
X940698D01*
X942365Y259334D01*
Y257668D01*
X940698Y256002D01*
X937366D01*
X935700Y257668D01*
X945697Y265998D02*
Y256002D01*
X950695D01*
X952361Y257668D01*
Y264332D01*
X950695Y265998D01*
X945697D01*
X955694Y256002D02*
Y262666D01*
X959026Y265998D01*
X962358Y262666D01*
Y256002D01*
Y261000D01*
X955694D01*
X935700Y335998D02*
Y326002D01*
X940698D01*
X942365Y327668D01*
Y334332D01*
X940698Y335998D01*
X935700D01*
X952361Y326002D02*
X945697D01*
X952361Y332666D01*
Y334332D01*
X950695Y335998D01*
X947363D01*
X945697Y334332D01*
X962358D02*
X960692Y335998D01*
X957360D01*
X955694Y334332D01*
Y327668D01*
X957360Y326002D01*
X960692D01*
X962358Y327668D01*
X970689Y335998D02*
X967356D01*
X965690Y334332D01*
Y327668D01*
X967356Y326002D01*
X970689D01*
X972355Y327668D01*
Y334332D01*
X970689Y335998D01*
X975687Y326002D02*
Y335998D01*
X979019Y332666D01*
X982352Y335998D01*
Y326002D01*
X935700Y349998D02*
Y340002D01*
X940698D01*
X942365Y341668D01*
Y348332D01*
X940698Y349998D01*
X935700D01*
X945697Y348332D02*
X947363Y349998D01*
X950695D01*
X952361Y348332D01*
Y346666D01*
X950695Y345000D01*
X949029D01*
X950695D01*
X952361Y343334D01*
Y341668D01*
X950695Y340002D01*
X947363D01*
X945697Y341668D01*
X955694Y340002D02*
Y349998D01*
X959026Y346666D01*
X962358Y349998D01*
Y340002D01*
X965690D02*
X969023D01*
X967356D01*
Y349998D01*
X965690Y348332D01*
X935700Y364998D02*
Y355002D01*
X940698D01*
X942365Y356668D01*
Y363332D01*
X940698Y364998D01*
X935700D01*
X945697Y363332D02*
X947363Y364998D01*
X950695D01*
X952361Y363332D01*
Y361666D01*
X950695Y360000D01*
X949029D01*
X950695D01*
X952361Y358334D01*
Y356668D01*
X950695Y355002D01*
X947363D01*
X945697Y356668D01*
X955694Y355002D02*
Y364998D01*
X959026Y361666D01*
X962358Y364998D01*
Y355002D01*
X970689D02*
Y364998D01*
X965690Y360000D01*
X972355D01*
X935700Y379831D02*
Y369835D01*
X940698D01*
X942365Y371501D01*
Y378165D01*
X940698Y379831D01*
X935700D01*
X945697D02*
X949029D01*
X947363D01*
Y369835D01*
X945697D01*
X949029D01*
X960692Y378165D02*
X959026Y379831D01*
X955694D01*
X954027Y378165D01*
Y376499D01*
X955694Y374833D01*
X959026D01*
X960692Y373167D01*
Y371501D01*
X959026Y369835D01*
X955694D01*
X954027Y371501D01*
X964024Y369835D02*
Y379831D01*
X969023D01*
X970689Y378165D01*
Y374833D01*
X969023Y373167D01*
X964024D01*
X974021Y368168D02*
X980686D01*
X990682Y378165D02*
X989016Y379831D01*
X985684D01*
X984018Y378165D01*
Y376499D01*
X985684Y374833D01*
X989016D01*
X990682Y373167D01*
Y371501D01*
X989016Y369835D01*
X985684D01*
X984018Y371501D01*
X1000679Y378165D02*
X999013Y379831D01*
X995681D01*
X994015Y378165D01*
Y371501D01*
X995681Y369835D01*
X999013D01*
X1000679Y371501D01*
X1004011Y379831D02*
Y369835D01*
X1010676D01*
X1014008Y379831D02*
Y369835D01*
Y373167D01*
X1020673Y379831D01*
X1015674Y374833D01*
X1020673Y369835D01*
X935700Y393831D02*
Y383835D01*
X940698D01*
X942365Y385501D01*
Y392165D01*
X940698Y393831D01*
X935700D01*
X952361Y392165D02*
X950695Y393831D01*
X947363D01*
X945697Y392165D01*
Y390499D01*
X947363Y388833D01*
X950695D01*
X952361Y387167D01*
Y385501D01*
X950695Y383835D01*
X947363D01*
X945697Y385501D01*
X955694Y383835D02*
Y393831D01*
X960692D01*
X962358Y392165D01*
Y388833D01*
X960692Y387167D01*
X955694D01*
X965690Y382169D02*
X972355D01*
X982352Y392165D02*
X980686Y393831D01*
X977353D01*
X975687Y392165D01*
Y390499D01*
X977353Y388833D01*
X980686D01*
X982352Y387167D01*
Y385501D01*
X980686Y383835D01*
X977353D01*
X975687Y385501D01*
X992348Y392165D02*
X990682Y393831D01*
X987350D01*
X985684Y392165D01*
Y385501D01*
X987350Y383835D01*
X990682D01*
X992348Y385501D01*
X1002345Y392165D02*
X1000679Y393831D01*
X997347D01*
X995681Y392165D01*
Y390499D01*
X997347Y388833D01*
X1000679D01*
X1002345Y387167D01*
Y385501D01*
X1000679Y383835D01*
X997347D01*
X995681Y385501D01*
X935700Y407831D02*
Y397835D01*
X940698D01*
X942365Y399501D01*
Y406165D01*
X940698Y407831D01*
X935700D01*
X945697D02*
X949029D01*
X947363D01*
Y397835D01*
X945697D01*
X949029D01*
X960692Y406165D02*
X959026Y407831D01*
X955694D01*
X954027Y406165D01*
Y404499D01*
X955694Y402833D01*
X959026D01*
X960692Y401167D01*
Y399501D01*
X959026Y397835D01*
X955694D01*
X954027Y399501D01*
X964024Y397835D02*
Y407831D01*
X969023D01*
X970689Y406165D01*
Y402833D01*
X969023Y401167D01*
X964024D01*
X974021Y396169D02*
X980686D01*
X990682Y407831D02*
X984018D01*
Y397835D01*
X990682D01*
X984018Y402833D02*
X987350D01*
X994015Y407831D02*
X1000679Y397835D01*
Y407831D02*
X994015Y397835D01*
X1004011Y407831D02*
X1010676D01*
X1007344D01*
Y397835D01*
X1014008Y396169D02*
X1020673D01*
X1030669Y406165D02*
X1029003Y407831D01*
X1025671D01*
X1024005Y406165D01*
Y399501D01*
X1025671Y397835D01*
X1029003D01*
X1030669Y399501D01*
X1039000Y407831D02*
X1035668D01*
X1034002Y406165D01*
Y399501D01*
X1035668Y397835D01*
X1039000D01*
X1040666Y399501D01*
Y406165D01*
X1039000Y407831D01*
X1043998Y397835D02*
Y407831D01*
X1047331Y404499D01*
X1050663Y407831D01*
Y397835D01*
X1053995Y407831D02*
X1057327D01*
X1055661D01*
Y397835D01*
X1053995D01*
X1057327D01*
X1062326D02*
Y407831D01*
X1068990Y397835D01*
Y407831D01*
X904700Y568700D02*
Y578697D01*
X909698D01*
X911365Y577031D01*
Y573698D01*
X909698Y572032D01*
X904700D01*
X908032D02*
X911365Y568700D01*
X914697Y578697D02*
X921361Y568700D01*
Y578697D02*
X914697Y568700D01*
X924694Y578697D02*
Y568700D01*
X929692D01*
X931358Y570366D01*
Y577031D01*
X929692Y578697D01*
X924694D01*
X919700Y565197D02*
X926365D01*
X923032D01*
Y555200D01*
X929697Y565197D02*
X936361Y555200D01*
Y565197D02*
X929697Y555200D01*
X939694Y565197D02*
Y555200D01*
X944692D01*
X946358Y556866D01*
Y563531D01*
X944692Y565197D01*
X939694D01*
X345364Y295697D02*
X338700D01*
Y290698D01*
X342032Y292365D01*
X343698D01*
X345364Y290698D01*
Y287366D01*
X343698Y285700D01*
X340366D01*
X338700Y287366D01*
X355361Y295697D02*
X348697D01*
Y290698D01*
X352029Y292365D01*
X353695D01*
X355361Y290698D01*
Y287366D01*
X353695Y285700D01*
X350363D01*
X348697Y287366D01*
X136364Y251697D02*
X133032Y250031D01*
X129700Y246698D01*
Y243366D01*
X131366Y241700D01*
X134698D01*
X136364Y243366D01*
Y245032D01*
X134698Y246698D01*
X129700D01*
X144695Y241700D02*
Y251697D01*
X139697Y246698D01*
X146361D01*
X198365Y18031D02*
X196698Y19697D01*
X193366D01*
X191700Y18031D01*
Y11366D01*
X193366Y9700D01*
X196698D01*
X198365Y11366D01*
Y14698D01*
X195032D01*
X201697Y9700D02*
Y19697D01*
X208361Y9700D01*
Y19697D01*
X211693D02*
Y9700D01*
X216692D01*
X218358Y11366D01*
Y18031D01*
X216692Y19697D01*
X211693D01*
X92365Y140697D02*
X89032Y139031D01*
X85700Y135698D01*
Y132366D01*
X87366Y130700D01*
X90698D01*
X92365Y132366D01*
Y134032D01*
X90698Y135698D01*
X85700D01*
X102361Y140697D02*
X95697D01*
Y135698D01*
X99029Y137365D01*
X100695D01*
X102361Y135698D01*
Y132366D01*
X100695Y130700D01*
X97363D01*
X95697Y132366D01*
X151364Y164197D02*
X148032Y162531D01*
X144700Y159198D01*
Y155866D01*
X146366Y154200D01*
X149698D01*
X151364Y155866D01*
Y157532D01*
X149698Y159198D01*
X144700D01*
X161361Y164197D02*
X158029Y162531D01*
X154697Y159198D01*
Y155866D01*
X156363Y154200D01*
X159695D01*
X161361Y155866D01*
Y157532D01*
X159695Y159198D01*
X154697D01*
X240700Y244697D02*
Y238032D01*
X244032Y234700D01*
X247365Y238032D01*
Y244697D01*
X250697D02*
Y234700D01*
X257361D01*
X267358Y244697D02*
X260693D01*
Y234700D01*
X267358D01*
X260693Y239698D02*
X264026D01*
X270690Y244697D02*
Y234700D01*
X275689D01*
X277355Y236366D01*
Y243031D01*
X275689Y244697D01*
X270690D01*
X232700Y304697D02*
X239364D01*
Y303031D01*
X232700Y296366D01*
Y294700D01*
X242697Y304697D02*
X249361D01*
Y303031D01*
X242697Y296366D01*
Y294700D01*
X245200Y271697D02*
X251864D01*
Y270031D01*
X245200Y263366D01*
Y261700D01*
X261861Y271697D02*
X258529Y270031D01*
X255197Y266698D01*
Y263366D01*
X256863Y261700D01*
X260195D01*
X261861Y263366D01*
Y265032D01*
X260195Y266698D01*
X255197D01*
X241700Y365363D02*
Y355366D01*
X245032Y358698D01*
X248365Y355366D01*
Y365363D01*
X251697Y355366D02*
Y365363D01*
X256695D01*
X258361Y363697D01*
Y360364D01*
X256695Y358698D01*
X251697D01*
X268358Y363697D02*
X266692Y365363D01*
X263360D01*
X261693Y363697D01*
Y357032D01*
X263360Y355366D01*
X266692D01*
X268358Y357032D01*
X271690Y353700D02*
X278355D01*
X288352Y365363D02*
X281687D01*
Y355366D01*
X288352D01*
X281687Y360364D02*
X285019D01*
X291684Y355366D02*
Y365363D01*
X298348Y355366D01*
Y365363D01*
X70700Y392697D02*
Y386032D01*
X74032Y382700D01*
X77365Y386032D01*
Y392697D01*
X80697D02*
Y382700D01*
X85695D01*
X87361Y384366D01*
Y386032D01*
X85695Y387698D01*
X80697D01*
X85695D01*
X87361Y389365D01*
Y391031D01*
X85695Y392697D01*
X80697D01*
X90694D02*
Y384366D01*
X92360Y382700D01*
X95692D01*
X97358Y384366D01*
Y392697D01*
X107355Y391031D02*
X105689Y392697D01*
X102356D01*
X100690Y391031D01*
Y389365D01*
X102356Y387698D01*
X105689D01*
X107355Y386032D01*
Y384366D01*
X105689Y382700D01*
X102356D01*
X100690Y384366D01*
X282700Y469697D02*
X289364D01*
X286032D01*
Y459700D01*
X292697Y469697D02*
X299361Y459700D01*
Y469697D02*
X292697Y459700D01*
X256700Y470700D02*
Y480697D01*
X261698D01*
X263365Y479031D01*
Y475698D01*
X261698Y474032D01*
X256700D01*
X260032D02*
X263365Y470700D01*
X266697Y480697D02*
X273361Y470700D01*
Y480697D02*
X266697Y470700D01*
X232700Y483700D02*
Y493697D01*
X237698D01*
X239364Y492031D01*
Y488698D01*
X237698Y487032D01*
X232700D01*
X236032D02*
X239364Y483700D01*
X242697Y493697D02*
X249361D01*
X246029D01*
Y483700D01*
X259358Y492031D02*
X257692Y493697D01*
X254360D01*
X252694Y492031D01*
Y490364D01*
X254360Y488698D01*
X257692D01*
X259358Y487032D01*
Y485366D01*
X257692Y483700D01*
X254360D01*
X252694Y485366D01*
X203864Y526031D02*
X202198Y527697D01*
X198866D01*
X197200Y526031D01*
Y519366D01*
X198866Y517700D01*
X202198D01*
X203864Y519366D01*
X207197Y527697D02*
X213861D01*
X210529D01*
Y517700D01*
X223858Y526031D02*
X222192Y527697D01*
X218860D01*
X217194Y526031D01*
Y524365D01*
X218860Y522698D01*
X222192D01*
X223858Y521032D01*
Y519366D01*
X222192Y517700D01*
X218860D01*
X217194Y519366D01*
X4200Y254437D02*
Y244440D01*
X9198D01*
X10864Y246106D01*
Y247772D01*
X9198Y249438D01*
X4200D01*
X9198D01*
X10864Y251105D01*
Y252771D01*
X9198Y254437D01*
X4200D01*
X14197Y244440D02*
Y251105D01*
X17529Y254437D01*
X20861Y251105D01*
Y244440D01*
Y249438D01*
X14197D01*
X24193Y254437D02*
X30858D01*
X27526D01*
Y244440D01*
X34190Y249438D02*
X40855D01*
X37523Y252771D02*
Y246106D01*
X54200Y164197D02*
X60865D01*
X57532D01*
Y154200D01*
X70861Y162531D02*
X69195Y164197D01*
X65863D01*
X64197Y162531D01*
Y160864D01*
X65863Y159198D01*
X69195D01*
X70861Y157532D01*
Y155866D01*
X69195Y154200D01*
X65863D01*
X64197Y155866D01*
X74194Y154200D02*
Y164197D01*
X77526Y160864D01*
X80858Y164197D01*
Y154200D01*
X84190D02*
Y164197D01*
X89189D01*
X90855Y162531D01*
Y159198D01*
X89189Y157532D01*
X84190D01*
X87523D02*
X90855Y154200D01*
X346671Y35300D02*
Y25303D01*
X351669D01*
X353335Y26969D01*
Y28635D01*
X351669Y30302D01*
X346671D01*
X351669D01*
X353335Y31968D01*
Y33634D01*
X351669Y35300D01*
X346671D01*
X356668D02*
X363332D01*
X360000D01*
Y25303D01*
X366665Y33634D02*
X368331Y35300D01*
X371663D01*
X373329Y33634D01*
Y26969D01*
X371663Y25303D01*
X368331D01*
X366665Y26969D01*
Y33634D01*
X149671Y78332D02*
X151337Y79998D01*
X154669D01*
X156335Y78332D01*
Y76666D01*
X154669Y75000D01*
X153003D01*
X154669D01*
X156335Y73334D01*
Y71668D01*
X154669Y70002D01*
X151337D01*
X149671Y71668D01*
X159668Y79998D02*
Y73334D01*
X163000Y70002D01*
X166332Y73334D01*
Y79998D01*
X169664Y78332D02*
X171331Y79998D01*
X174663D01*
X176329Y78332D01*
Y76666D01*
X174663Y75000D01*
X172997D01*
X174663D01*
X176329Y73334D01*
Y71668D01*
X174663Y70002D01*
X171331D01*
X169664Y71668D01*
X142002Y94407D02*
Y97740D01*
Y96074D01*
X151998D01*
Y94407D01*
Y97740D01*
Y102738D02*
X142002D01*
X145334Y106070D01*
X142002Y109403D01*
X151998D01*
Y117733D02*
Y114401D01*
X150332Y112735D01*
X147000D01*
X145334Y114401D01*
Y117733D01*
X147000Y119399D01*
X148666D01*
Y112735D01*
X145334Y124398D02*
Y127730D01*
X147000Y129396D01*
X151998D01*
Y124398D01*
X150332Y122732D01*
X148666Y124398D01*
Y129396D01*
X151998Y132728D02*
Y137727D01*
X150332Y139393D01*
X148666Y137727D01*
Y134394D01*
X147000Y132728D01*
X145334Y134394D01*
Y139393D01*
X217002Y28677D02*
X223666D01*
X226998Y32010D01*
X223666Y35342D01*
X217002D01*
Y38674D02*
X226998D01*
Y45339D01*
X217002Y55335D02*
Y48671D01*
X226998D01*
Y55335D01*
X222000Y48671D02*
Y52003D01*
X217002Y58668D02*
X226998D01*
Y63666D01*
X225332Y65332D01*
X218668D01*
X217002Y63666D01*
Y58668D01*
Y83660D02*
Y80327D01*
X218668Y78661D01*
X225332D01*
X226998Y80327D01*
Y83660D01*
X225332Y85326D01*
X218668D01*
X217002Y83660D01*
X226998Y88658D02*
X217002D01*
X226998Y95323D01*
X217002D01*
X664802Y325745D02*
X674798D01*
Y330744D01*
X673132Y332410D01*
X666468D01*
X664802Y330744D01*
Y325745D01*
X666468Y335742D02*
X664802Y337408D01*
Y340740D01*
X666468Y342407D01*
X668134D01*
X669800Y340740D01*
Y339074D01*
Y340740D01*
X671466Y342407D01*
X673132D01*
X674798Y340740D01*
Y337408D01*
X673132Y335742D01*
X674798Y345739D02*
X664802D01*
X668134Y349071D01*
X664802Y352403D01*
X674798D01*
Y360734D02*
X664802D01*
X669800Y355736D01*
Y362400D01*
X639402Y315748D02*
X649398D01*
Y320747D01*
X647732Y322413D01*
X641068D01*
X639402Y320747D01*
Y315748D01*
X641068Y325745D02*
X639402Y327411D01*
Y330744D01*
X641068Y332410D01*
X642734D01*
X644400Y330744D01*
Y329077D01*
Y330744D01*
X646066Y332410D01*
X647732D01*
X649398Y330744D01*
Y327411D01*
X647732Y325745D01*
X641068Y342407D02*
X639402Y340740D01*
Y337408D01*
X641068Y335742D01*
X647732D01*
X649398Y337408D01*
Y340740D01*
X647732Y342407D01*
X639402Y350737D02*
Y347405D01*
X641068Y345739D01*
X647732D01*
X649398Y347405D01*
Y350737D01*
X647732Y352403D01*
X641068D01*
X639402Y350737D01*
X649398Y355736D02*
X639402D01*
X642734Y359068D01*
X639402Y362400D01*
X649398D01*
X614002Y329077D02*
X623998D01*
Y334076D01*
X622332Y335742D01*
X615668D01*
X614002Y334076D01*
Y329077D01*
X615668Y339074D02*
X614002Y340740D01*
Y344073D01*
X615668Y345739D01*
X617334D01*
X619000Y344073D01*
Y342407D01*
Y344073D01*
X620666Y345739D01*
X622332D01*
X623998Y344073D01*
Y340740D01*
X622332Y339074D01*
X623998Y349071D02*
X614002D01*
X617334Y352403D01*
X614002Y355736D01*
X623998D01*
Y359068D02*
Y362400D01*
Y360734D01*
X614002D01*
X615668Y359068D01*
X588602Y325745D02*
X598598D01*
Y330744D01*
X596932Y332410D01*
X590268D01*
X588602Y330744D01*
Y325745D01*
X598598Y342407D02*
Y335742D01*
X591934Y342407D01*
X590268D01*
X588602Y340740D01*
Y337408D01*
X590268Y335742D01*
X598598Y345739D02*
X588602D01*
X591934Y349071D01*
X588602Y352403D01*
X598598D01*
Y360734D02*
X588602D01*
X593600Y355736D01*
Y362400D01*
X563202Y315749D02*
X573199D01*
Y320747D01*
X571532Y322413D01*
X564868D01*
X563202Y320747D01*
Y315749D01*
X573199Y332410D02*
Y325745D01*
X566534Y332410D01*
X564868D01*
X563202Y330744D01*
Y327411D01*
X564868Y325745D01*
Y342407D02*
X563202Y340741D01*
Y337408D01*
X564868Y335742D01*
X571532D01*
X573199Y337408D01*
Y340741D01*
X571532Y342407D01*
X563202Y350737D02*
Y347405D01*
X564868Y345739D01*
X571532D01*
X573199Y347405D01*
Y350737D01*
X571532Y352403D01*
X564868D01*
X563202Y350737D01*
X573199Y355736D02*
X563202D01*
X566534Y359068D01*
X563202Y362400D01*
X573199D01*
X537802Y329077D02*
X547798D01*
Y334076D01*
X546132Y335742D01*
X539468D01*
X537802Y334076D01*
Y329077D01*
X547798Y345739D02*
Y339074D01*
X541134Y345739D01*
X539468D01*
X537802Y344073D01*
Y340740D01*
X539468Y339074D01*
X547798Y349071D02*
X537802D01*
X541134Y352403D01*
X537802Y355736D01*
X547798D01*
Y359068D02*
Y362400D01*
Y360734D01*
X537802D01*
X539468Y359068D01*
X512402Y327411D02*
X522398D01*
Y332410D01*
X520732Y334076D01*
X514068D01*
X512402Y332410D01*
Y327411D01*
X522398Y337408D02*
Y340740D01*
Y339074D01*
X512402D01*
X514068Y337408D01*
X522398Y345739D02*
X512402D01*
X515734Y349071D01*
X512402Y352403D01*
X522398D01*
Y360734D02*
X512402D01*
X517400Y355736D01*
Y362400D01*
X487002Y317415D02*
X496998D01*
Y322413D01*
X495332Y324079D01*
X488668D01*
X487002Y322413D01*
Y317415D01*
X496998Y327411D02*
Y330744D01*
Y329077D01*
X487002D01*
X488668Y327411D01*
Y342407D02*
X487002Y340740D01*
Y337408D01*
X488668Y335742D01*
X495332D01*
X496998Y337408D01*
Y340740D01*
X495332Y342407D01*
X487002Y350737D02*
Y347405D01*
X488668Y345739D01*
X495332D01*
X496998Y347405D01*
Y350737D01*
X495332Y352403D01*
X488668D01*
X487002Y350737D01*
X496998Y355736D02*
X487002D01*
X490334Y359068D01*
X487002Y362400D01*
X496998D01*
X461602Y330744D02*
X471599D01*
Y335742D01*
X469933Y337408D01*
X463268D01*
X461602Y335742D01*
Y330744D01*
X471599Y340740D02*
Y344073D01*
Y342407D01*
X461602D01*
X463268Y340740D01*
X471599Y349071D02*
X461602D01*
X464934Y352403D01*
X461602Y355736D01*
X471599D01*
Y359068D02*
Y362400D01*
Y360734D01*
X461602D01*
X463268Y359068D01*
X1331674Y607664D02*
X1338339D01*
X1335006D01*
Y597668D01*
X1341671Y594336D02*
Y604332D01*
X1346669D01*
X1348336Y602666D01*
Y599334D01*
X1346669Y597668D01*
X1341671D01*
X1358332Y605998D02*
X1356666Y607664D01*
X1353334D01*
X1351668Y605998D01*
Y599334D01*
X1353334Y597668D01*
X1356666D01*
X1358332Y599334D01*
Y602666D01*
X1355000D01*
X1361664Y597668D02*
Y607664D01*
X1366663D01*
X1368329Y605998D01*
Y602666D01*
X1366663Y601000D01*
X1361664D01*
X1378326Y605998D02*
X1376660Y607664D01*
X1373327D01*
X1371661Y605998D01*
Y604332D01*
X1373327Y602666D01*
X1376660D01*
X1378326Y601000D01*
Y599334D01*
X1376660Y597668D01*
X1373327D01*
X1371661Y599334D01*
X1003344Y557332D02*
X1001678Y558998D01*
X998345D01*
X996679Y557332D01*
Y550668D01*
X998345Y549002D01*
X1001678D01*
X1003344Y550668D01*
Y554000D01*
X1000012D01*
X1006676Y549002D02*
Y558998D01*
X1011674D01*
X1013341Y557332D01*
Y554000D01*
X1011674Y552334D01*
X1006676D01*
X1023337Y557332D02*
X1021671Y558998D01*
X1018339D01*
X1016673Y557332D01*
Y555666D01*
X1018339Y554000D01*
X1021671D01*
X1023337Y552334D01*
Y550668D01*
X1021671Y549002D01*
X1018339D01*
X1016673Y550668D01*
X1026670Y554000D02*
X1033334D01*
X1043331Y557332D02*
X1041665Y558998D01*
X1038333D01*
X1036666Y557332D01*
Y555666D01*
X1038333Y554000D01*
X1041665D01*
X1043331Y552334D01*
Y550668D01*
X1041665Y549002D01*
X1038333D01*
X1036666Y550668D01*
X1053328Y558998D02*
X1046663D01*
Y554000D01*
X1049995D01*
X1046663D01*
Y549002D01*
X1056660Y558998D02*
Y549002D01*
X1061658D01*
X1063324Y550668D01*
Y552334D01*
X1061658Y554000D01*
X1056660D01*
X1061658D01*
X1063324Y555666D01*
Y557332D01*
X1061658Y558998D01*
X1056660D01*
X1066657D02*
X1073321D01*
X1069989D01*
Y549002D01*
X1115574Y138002D02*
Y147998D01*
X1120573D01*
X1122239Y146332D01*
Y143000D01*
X1120573Y141334D01*
X1115574D01*
X1118906D02*
X1122239Y138002D01*
X1132235Y147998D02*
X1125571D01*
Y138002D01*
X1132235D01*
X1125571Y143000D02*
X1128903D01*
X1142232Y146332D02*
X1140566Y147998D01*
X1137234D01*
X1135568Y146332D01*
Y144666D01*
X1137234Y143000D01*
X1140566D01*
X1142232Y141334D01*
Y139668D01*
X1140566Y138002D01*
X1137234D01*
X1135568Y139668D01*
X1152229Y147998D02*
X1145565D01*
Y138002D01*
X1152229D01*
X1145565Y143000D02*
X1148897D01*
X1155561Y147998D02*
X1162226D01*
X1158894D01*
Y138002D01*
X1218087Y631332D02*
X1216421Y632998D01*
X1213089D01*
X1211423Y631332D01*
Y624668D01*
X1213089Y623002D01*
X1216421D01*
X1218087Y624668D01*
Y628000D01*
X1214755D01*
X1221419Y623002D02*
Y632998D01*
X1228084Y623002D01*
Y632998D01*
X1238081Y631332D02*
X1236414Y632998D01*
X1233082D01*
X1231416Y631332D01*
Y629666D01*
X1233082Y628000D01*
X1236414D01*
X1238081Y626334D01*
Y624668D01*
X1236414Y623002D01*
X1233082D01*
X1231416Y624668D01*
X1248077Y631332D02*
X1246411Y632998D01*
X1243079D01*
X1241413Y631332D01*
Y629666D01*
X1243079Y628000D01*
X1246411D01*
X1248077Y626334D01*
Y624668D01*
X1246411Y623002D01*
X1243079D01*
X1241413Y624668D01*
X1303924Y276664D02*
X1310589D01*
X1307256D01*
Y266667D01*
X1313921Y263335D02*
Y273332D01*
X1318919D01*
X1320585Y271666D01*
Y268334D01*
X1318919Y266667D01*
X1313921D01*
X1323918Y276664D02*
Y266667D01*
X1330582D01*
X1333914Y276664D02*
X1340579D01*
X1337247D01*
Y266667D01*
X1350576Y276664D02*
X1343911D01*
Y266667D01*
X1350576D01*
X1343911Y271666D02*
X1347243D01*
X1040842Y475332D02*
X1039176Y476998D01*
X1035844D01*
X1034177Y475332D01*
Y468668D01*
X1035844Y467002D01*
X1039176D01*
X1040842Y468668D01*
Y472000D01*
X1037510D01*
X1044174Y467002D02*
Y476998D01*
X1049173D01*
X1050839Y475332D01*
Y472000D01*
X1049173Y470334D01*
X1044174D01*
X1060835Y475332D02*
X1059169Y476998D01*
X1055837D01*
X1054171Y475332D01*
Y473666D01*
X1055837Y472000D01*
X1059169D01*
X1060835Y470334D01*
Y468668D01*
X1059169Y467002D01*
X1055837D01*
X1054171Y468668D01*
X1064168Y472000D02*
X1070832D01*
X1074165Y467002D02*
Y476998D01*
X1079163D01*
X1080829Y475332D01*
Y472000D01*
X1079163Y470334D01*
X1074165D01*
X1077497D02*
X1080829Y467002D01*
X1090826Y475332D02*
X1089160Y476998D01*
X1085827D01*
X1084161Y475332D01*
Y473666D01*
X1085827Y472000D01*
X1089160D01*
X1090826Y470334D01*
Y468668D01*
X1089160Y467002D01*
X1085827D01*
X1084161Y468668D01*
X1094158Y476998D02*
X1100823D01*
X1097490D01*
Y467002D01*
X1128737Y367208D02*
X1127071Y368874D01*
X1123739D01*
X1122073Y367208D01*
Y360544D01*
X1123739Y358877D01*
X1127071D01*
X1128737Y360544D01*
X1137068Y368874D02*
X1133736D01*
X1132070Y367208D01*
Y360544D01*
X1133736Y358877D01*
X1137068D01*
X1138734Y360544D01*
Y367208D01*
X1137068Y368874D01*
X1148731D02*
X1142066D01*
Y358877D01*
X1148731D01*
X1142066Y363876D02*
X1145399D01*
X1152063Y368874D02*
X1158728Y358877D01*
Y368874D02*
X1152063Y358877D01*
X1072213Y367208D02*
X1070547Y368874D01*
X1067215D01*
X1065549Y367208D01*
Y360544D01*
X1067215Y358877D01*
X1070547D01*
X1072213Y360544D01*
Y363876D01*
X1068881D01*
X1075546Y358877D02*
Y368874D01*
X1080544D01*
X1082210Y367208D01*
Y363876D01*
X1080544Y362210D01*
X1075546D01*
X1092207Y367208D02*
X1090541Y368874D01*
X1087208D01*
X1085542Y367208D01*
Y365542D01*
X1087208Y363876D01*
X1090541D01*
X1092207Y362210D01*
Y360544D01*
X1090541Y358877D01*
X1087208D01*
X1085542Y360544D01*
X1102204Y368874D02*
X1095539D01*
Y358877D01*
X1102204D01*
X1095539Y363876D02*
X1098871D01*
X1105536Y358877D02*
Y368874D01*
X1112200Y358877D01*
Y368874D01*
X842668Y150303D02*
X841002Y148637D01*
Y145305D01*
X842668Y143639D01*
X849332D01*
X850998Y145305D01*
Y148637D01*
X849332Y150303D01*
X842668Y160300D02*
X841002Y158634D01*
Y155302D01*
X842668Y153636D01*
X844334D01*
X846000Y155302D01*
Y158634D01*
X847666Y160300D01*
X849332D01*
X850998Y158634D01*
Y155302D01*
X849332Y153636D01*
X784228Y11602D02*
Y21598D01*
X787560Y18266D01*
X790892Y21598D01*
Y11602D01*
X794225Y21598D02*
X797557D01*
X795891D01*
Y11602D01*
X794225D01*
X797557D01*
X809220Y19932D02*
X807554Y21598D01*
X804221D01*
X802555Y19932D01*
Y18266D01*
X804221Y16600D01*
X807554D01*
X809220Y14934D01*
Y13268D01*
X807554Y11602D01*
X804221D01*
X802555Y13268D01*
X817551Y21598D02*
X814218D01*
X812552Y19932D01*
Y13268D01*
X814218Y11602D01*
X817551D01*
X819217Y13268D01*
Y19932D01*
X817551Y21598D01*
X762002Y94031D02*
X760335Y95697D01*
X757003D01*
X755337Y94031D01*
Y92365D01*
X757003Y90698D01*
X760335D01*
X762002Y89032D01*
Y87366D01*
X760335Y85700D01*
X757003D01*
X755337Y87366D01*
X765334Y85700D02*
Y95697D01*
X770332D01*
X771998Y94031D01*
Y90698D01*
X770332Y89032D01*
X765334D01*
X775331Y95697D02*
X778663D01*
X776997D01*
Y85700D01*
X775331D01*
X778663D01*
X784700Y39002D02*
Y48998D01*
X788032Y45666D01*
X791365Y48998D01*
Y39002D01*
X799695Y48998D02*
X796363D01*
X794697Y47332D01*
Y40668D01*
X796363Y39002D01*
X799695D01*
X801361Y40668D01*
Y47332D01*
X799695Y48998D01*
X811358Y47332D02*
X809692Y48998D01*
X806360D01*
X804694Y47332D01*
Y45666D01*
X806360Y44000D01*
X809692D01*
X811358Y42334D01*
Y40668D01*
X809692Y39002D01*
X806360D01*
X804694Y40668D01*
X814690Y48998D02*
X818023D01*
X816357D01*
Y39002D01*
X814690D01*
X818023D01*
X790892Y70732D02*
X789226Y72398D01*
X785894D01*
X784228Y70732D01*
Y69066D01*
X785894Y67400D01*
X789226D01*
X790892Y65734D01*
Y64068D01*
X789226Y62402D01*
X785894D01*
X784228Y64068D01*
X800889Y70732D02*
X799223Y72398D01*
X795891D01*
X794225Y70732D01*
Y64068D01*
X795891Y62402D01*
X799223D01*
X800889Y64068D01*
X804221Y72398D02*
Y62402D01*
Y65734D01*
X810886Y72398D01*
X805888Y67400D01*
X810886Y62402D01*
X822176Y62530D02*
Y69194D01*
X825508Y72526D01*
X828840Y69194D01*
Y62530D01*
Y67528D01*
X822176D01*
X838837Y70860D02*
X837171Y72526D01*
X833839D01*
X832173Y70860D01*
Y64196D01*
X833839Y62530D01*
X837171D01*
X838837Y64196D01*
X848834Y70860D02*
X847168Y72526D01*
X843836D01*
X842169Y70860D01*
Y64196D01*
X843836Y62530D01*
X847168D01*
X848834Y64196D01*
X852166Y67528D02*
X858831D01*
X868828Y72526D02*
X862163D01*
Y62530D01*
X868828D01*
X862163Y67528D02*
X865495D01*
X872160Y62530D02*
Y72526D01*
X878824Y62530D01*
Y72526D01*
X926336Y25332D02*
X924669Y26998D01*
X921337D01*
X919671Y25332D01*
Y23666D01*
X921337Y22000D01*
X924669D01*
X926336Y20334D01*
Y18668D01*
X924669Y17002D01*
X921337D01*
X919671Y18668D01*
X929668Y26998D02*
Y17002D01*
X934666D01*
X936332Y18668D01*
Y25332D01*
X934666Y26998D01*
X929668D01*
X939665Y17002D02*
Y23666D01*
X942997Y26998D01*
X946329Y23666D01*
Y17002D01*
Y22000D01*
X939665D01*
X926336Y52332D02*
X924669Y53998D01*
X921337D01*
X919671Y52332D01*
Y50666D01*
X921337Y49000D01*
X924669D01*
X926336Y47334D01*
Y45668D01*
X924669Y44002D01*
X921337D01*
X919671Y45668D01*
X936332Y52332D02*
X934666Y53998D01*
X931334D01*
X929668Y52332D01*
Y45668D01*
X931334Y44002D01*
X934666D01*
X936332Y45668D01*
X939665Y53998D02*
Y44002D01*
X946329D01*
X892504Y73697D02*
X895836D01*
X894170D01*
Y63700D01*
X892504D01*
X895836D01*
X907499D02*
X900835D01*
X907499Y70364D01*
Y72031D01*
X905833Y73697D01*
X902501D01*
X900835Y72031D01*
X917496D02*
X915830Y73697D01*
X912498D01*
X910832Y72031D01*
Y65366D01*
X912498Y63700D01*
X915830D01*
X917496Y65366D01*
X676671Y35300D02*
Y25303D01*
X681669D01*
X683335Y26969D01*
Y28635D01*
X681669Y30302D01*
X676671D01*
X681669D01*
X683335Y31968D01*
Y33634D01*
X681669Y35300D01*
X676671D01*
X686668D02*
X693332D01*
X690000D01*
Y25303D01*
X696665Y33634D02*
X698331Y35300D01*
X701663D01*
X703329Y33634D01*
Y31968D01*
X701663Y30302D01*
X699997D01*
X701663D01*
X703329Y28635D01*
Y26969D01*
X701663Y25303D01*
X698331D01*
X696665Y26969D01*
X566671Y35300D02*
Y25303D01*
X571669D01*
X573335Y26969D01*
Y28635D01*
X571669Y30302D01*
X566671D01*
X571669D01*
X573335Y31968D01*
Y33634D01*
X571669Y35300D01*
X566671D01*
X576668D02*
X583332D01*
X580000D01*
Y25303D01*
X593329D02*
X586665D01*
X593329Y31968D01*
Y33634D01*
X591663Y35300D01*
X588331D01*
X586665Y33634D01*
X457337Y35300D02*
Y25303D01*
X462336D01*
X464002Y26969D01*
Y28635D01*
X462336Y30302D01*
X457337D01*
X462336D01*
X464002Y31968D01*
Y33634D01*
X462336Y35300D01*
X457337D01*
X467334D02*
X473998D01*
X470666D01*
Y25303D01*
X477331D02*
X480663D01*
X478997D01*
Y35300D01*
X477331Y33634D01*
X256648Y106200D02*
Y116197D01*
X259981Y112865D01*
X263313Y116197D01*
Y106200D01*
X271644Y116197D02*
X268311D01*
X266645Y114531D01*
Y107866D01*
X268311Y106200D01*
X271644D01*
X273310Y107866D01*
Y114531D01*
X271644Y116197D01*
X276642D02*
X283307D01*
X279974D01*
Y106200D01*
X291637Y116197D02*
X288305D01*
X286639Y114531D01*
Y107866D01*
X288305Y106200D01*
X291637D01*
X293303Y107866D01*
Y114531D01*
X291637Y116197D01*
X296635Y106200D02*
Y116197D01*
X301634D01*
X303300Y114531D01*
Y111198D01*
X301634Y109532D01*
X296635D01*
X299968D02*
X303300Y106200D01*
X261645Y34800D02*
Y24803D01*
X268310D01*
X278307Y34800D02*
X271642D01*
Y24803D01*
X278307D01*
X271642Y29802D02*
X274974D01*
X281639Y34800D02*
Y24803D01*
X286637D01*
X288303Y26469D01*
Y33134D01*
X286637Y34800D01*
X281639D01*
X298300Y33134D02*
X296634Y34800D01*
X293302D01*
X291635Y33134D01*
Y31468D01*
X293302Y29802D01*
X296634D01*
X298300Y28135D01*
Y26469D01*
X296634Y24803D01*
X293302D01*
X291635Y26469D01*
X242200Y41676D02*
X252197D01*
Y46674D01*
X250531Y48340D01*
X243866D01*
X242200Y46674D01*
Y41676D01*
X252197Y51673D02*
X242200D01*
Y56671D01*
X243866Y58337D01*
X247198D01*
X248864Y56671D01*
Y51673D01*
Y55005D02*
X252197Y58337D01*
X242200Y61669D02*
X248864D01*
X252197Y65002D01*
X248864Y68334D01*
X242200D01*
X247198Y71666D02*
Y78331D01*
X252197Y81663D02*
X242200D01*
X245532Y84995D01*
X242200Y88328D01*
X252197D01*
X242200Y91660D02*
X252197D01*
Y98324D01*
X762511Y127300D02*
Y117303D01*
X767509D01*
X769175Y118969D01*
Y125634D01*
X767509Y127300D01*
X762511D01*
X772507D02*
X775839D01*
X774173D01*
Y117303D01*
X772507D01*
X775839D01*
X787502Y125634D02*
X785836Y127300D01*
X782504D01*
X780838Y125634D01*
Y123968D01*
X782504Y122302D01*
X785836D01*
X787502Y120635D01*
Y118969D01*
X785836Y117303D01*
X782504D01*
X780838Y118969D01*
X790835Y117303D02*
Y127300D01*
X795833D01*
X797499Y125634D01*
Y122302D01*
X795833Y120635D01*
X790835D01*
X800832Y127300D02*
Y117303D01*
X807496D01*
X810828D02*
Y123968D01*
X814161Y127300D01*
X817493Y123968D01*
Y117303D01*
Y122302D01*
X810828D01*
X820825Y127300D02*
Y125634D01*
X824157Y122302D01*
X827489Y125634D01*
Y127300D01*
X824157Y122302D02*
Y117303D01*
X751198Y127477D02*
X741202D01*
X744534Y130810D01*
X741202Y134142D01*
X751198D01*
X741202Y142473D02*
Y139140D01*
X742868Y137474D01*
X749532D01*
X751198Y139140D01*
Y142473D01*
X749532Y144139D01*
X742868D01*
X741202Y142473D01*
X742868Y154136D02*
X741202Y152469D01*
Y149137D01*
X742868Y147471D01*
X744534D01*
X746200Y149137D01*
Y152469D01*
X747866Y154136D01*
X749532D01*
X751198Y152469D01*
Y149137D01*
X749532Y147471D01*
X741202Y157468D02*
Y160800D01*
Y159134D01*
X751198D01*
Y157468D01*
Y160800D01*
X764668Y140307D02*
X763001Y138640D01*
Y135308D01*
X764668Y133642D01*
X766334D01*
X768000Y135308D01*
Y138640D01*
X769666Y140307D01*
X771332D01*
X772998Y138640D01*
Y135308D01*
X771332Y133642D01*
X764668Y150303D02*
X763001Y148637D01*
Y145305D01*
X764668Y143639D01*
X771332D01*
X772998Y145305D01*
Y148637D01*
X771332Y150303D01*
X763001Y153636D02*
X772998D01*
X769666D01*
X763001Y160300D01*
X768000Y155302D01*
X772998Y160300D01*
X790602Y134142D02*
X797266D01*
X800598Y137474D01*
X797266Y140807D01*
X790602D01*
X792268Y150803D02*
X790602Y149137D01*
Y145805D01*
X792268Y144139D01*
X798932D01*
X800598Y145805D01*
Y149137D01*
X798932Y150803D01*
X792268Y160800D02*
X790602Y159134D01*
Y155802D01*
X792268Y154136D01*
X798932D01*
X800598Y155802D01*
Y159134D01*
X798932Y160800D01*
X818668Y140307D02*
X817002Y138640D01*
Y135308D01*
X818668Y133642D01*
X825332D01*
X826998Y135308D01*
Y138640D01*
X825332Y140307D01*
X822000D01*
Y136974D01*
X826998Y143639D02*
X817002D01*
X826998Y150303D01*
X817002D01*
Y153636D02*
X826998D01*
Y158634D01*
X825332Y160300D01*
X818668D01*
X817002Y158634D01*
Y153636D01*
X515344Y694998D02*
X508679D01*
Y685002D01*
X515344D01*
X508679Y690000D02*
X512011D01*
X518676Y694998D02*
X525340Y685002D01*
Y694998D02*
X518676Y685002D01*
X528673Y694998D02*
X535337D01*
X532005D01*
Y685002D01*
X538669Y690000D02*
X545334D01*
X548666Y685002D02*
Y694998D01*
X551998Y691666D01*
X555331Y694998D01*
Y685002D01*
X563661Y694998D02*
X560329D01*
X558663Y693332D01*
Y686668D01*
X560329Y685002D01*
X563661D01*
X565327Y686668D01*
Y693332D01*
X563661Y694998D01*
X568660D02*
Y685002D01*
X573658D01*
X575324Y686668D01*
Y693332D01*
X573658Y694998D01*
X568660D01*
X585321D02*
X578657D01*
Y685002D01*
X585321D01*
X578657Y690000D02*
X581989D01*
X501700Y646998D02*
Y637002D01*
X508364D01*
X516695Y646998D02*
X513363D01*
X511697Y645332D01*
Y638668D01*
X513363Y637002D01*
X516695D01*
X518361Y638668D01*
Y645332D01*
X516695Y646998D01*
X521693D02*
Y637002D01*
X525026Y640334D01*
X528358Y637002D01*
Y646998D01*
X557700Y637002D02*
Y646998D01*
X561032Y643666D01*
X564365Y646998D01*
Y637002D01*
X574361Y645332D02*
X572695Y646998D01*
X569363D01*
X567697Y645332D01*
Y638668D01*
X569363Y637002D01*
X572695D01*
X574361Y638668D01*
X577693Y646998D02*
Y638668D01*
X579360Y637002D01*
X582692D01*
X584358Y638668D01*
Y646998D01*
X105700Y446179D02*
X114031D01*
X115697Y447845D01*
Y451177D01*
X114031Y452844D01*
X105700D01*
X107366Y462840D02*
X105700Y461174D01*
Y457842D01*
X107366Y456176D01*
X109032D01*
X110698Y457842D01*
Y461174D01*
X112365Y462840D01*
X114031D01*
X115697Y461174D01*
Y457842D01*
X114031Y456176D01*
X105700Y466173D02*
X115697D01*
Y471171D01*
X114031Y472837D01*
X112365D01*
X110698Y471171D01*
Y466173D01*
Y471171D01*
X109032Y472837D01*
X107366D01*
X105700Y471171D01*
Y466173D01*
X110698Y476169D02*
Y482834D01*
X105700Y492831D02*
Y489498D01*
Y491165D01*
X114031D01*
X115697Y489498D01*
Y487832D01*
X114031Y486166D01*
X105700Y496163D02*
Y502827D01*
Y499495D01*
X115697D01*
Y506160D02*
X109032D01*
X105700Y509492D01*
X109032Y512824D01*
X115697D01*
X110698D01*
Y506160D01*
X107366Y522821D02*
X105700Y521155D01*
Y517823D01*
X107366Y516157D01*
X114031D01*
X115697Y517823D01*
Y521155D01*
X114031Y522821D01*
X110698D01*
Y519489D01*
X147668Y595335D02*
X146002Y593669D01*
Y590337D01*
X147668Y588671D01*
X154332D01*
X155998Y590337D01*
Y593669D01*
X154332Y595335D01*
X151000D01*
Y592003D01*
X155998Y598668D02*
X146002D01*
X155998Y605332D01*
X146002D01*
Y608665D02*
X155998D01*
Y613663D01*
X154332Y615329D01*
X147668D01*
X146002Y613663D01*
Y608665D01*
X125000Y588671D02*
Y595335D01*
X121668Y592003D02*
X128332D01*
X120002Y605332D02*
Y598668D01*
X125000D01*
X123334Y602000D01*
Y603666D01*
X125000Y605332D01*
X128332D01*
X129998Y603666D01*
Y600334D01*
X128332Y598668D01*
X120002Y608665D02*
X126666D01*
X129998Y611997D01*
X126666Y615329D01*
X120002D01*
X120332Y553212D02*
Y546547D01*
X123665Y543215D01*
X126997Y546547D01*
Y553212D01*
X130329D02*
Y543215D01*
X135328D01*
X136994Y544881D01*
Y546547D01*
X135328Y548214D01*
X130329D01*
X135328D01*
X136994Y549880D01*
Y551546D01*
X135328Y553212D01*
X130329D01*
X140326D02*
Y544881D01*
X141992Y543215D01*
X145324D01*
X146990Y544881D01*
Y553212D01*
X156987Y551546D02*
X155321Y553212D01*
X151989D01*
X150323Y551546D01*
Y549880D01*
X151989Y548214D01*
X155321D01*
X156987Y546547D01*
Y544881D01*
X155321Y543215D01*
X151989D01*
X150323Y544881D01*
X178177Y552998D02*
Y544668D01*
X179844Y543002D01*
X183176D01*
X184842Y544668D01*
Y552998D01*
X188174Y543002D02*
Y549666D01*
X191506Y552998D01*
X194839Y549666D01*
Y543002D01*
Y548000D01*
X188174D01*
X198171Y543002D02*
Y552998D01*
X203169D01*
X204835Y551332D01*
Y548000D01*
X203169Y546334D01*
X198171D01*
X201503D02*
X204835Y543002D01*
X208168Y552998D02*
X214832D01*
X211500D01*
Y543002D01*
X218165Y548000D02*
X224829D01*
X234826Y552998D02*
X228161D01*
Y543002D01*
X234826D01*
X228161Y548000D02*
X231494D01*
X238158Y543002D02*
Y552998D01*
X244823Y543002D01*
Y552998D01*
X1308671Y177998D02*
Y168002D01*
X1315336D01*
X1318668Y177998D02*
X1325332D01*
X1322000D01*
Y168002D01*
X1335329Y177998D02*
X1328665D01*
Y168002D01*
X1335329D01*
X1328665Y173000D02*
X1331997D01*
X10342Y366998D02*
Y357002D01*
X13674Y360334D01*
X17006Y357002D01*
Y366998D01*
X20339Y357002D02*
Y366998D01*
X25337D01*
X27003Y365332D01*
Y362000D01*
X25337Y360334D01*
X20339D01*
X37000Y365332D02*
X35334Y366998D01*
X32002D01*
X30336Y365332D01*
Y358668D01*
X32002Y357002D01*
X35334D01*
X37000Y358668D01*
X40332Y357002D02*
X46997Y363666D01*
X56994Y358668D02*
Y365332D01*
X55327Y366998D01*
X51995D01*
X50329Y365332D01*
Y358668D01*
X51995Y357002D01*
X55327D01*
X53661Y360334D02*
X56994Y357002D01*
X55327D02*
X56994Y358668D01*
X60326Y366998D02*
X63658D01*
X61992D01*
Y357002D01*
X60326D01*
X63658D01*
X609510Y693998D02*
Y684002D01*
X614509D01*
X616175Y685668D01*
Y692332D01*
X614509Y693998D01*
X609510D01*
X619507D02*
X622840D01*
X621173D01*
Y684002D01*
X619507D01*
X622840D01*
X634502Y692332D02*
X632836Y693998D01*
X629504D01*
X627838Y692332D01*
Y690666D01*
X629504Y689000D01*
X632836D01*
X634502Y687334D01*
Y685668D01*
X632836Y684002D01*
X629504D01*
X627838Y685668D01*
X637835Y684002D02*
Y693998D01*
X642833D01*
X644499Y692332D01*
Y689000D01*
X642833Y687334D01*
X637835D01*
X647831Y689000D02*
X654496D01*
X664493Y693998D02*
X657828D01*
Y684002D01*
X664493D01*
X657828Y689000D02*
X661161D01*
X667825Y684002D02*
Y693998D01*
X674490Y684002D01*
Y693998D01*
X653700Y637002D02*
Y646998D01*
X657032Y643666D01*
X660365Y646998D01*
Y637002D01*
X670361Y645332D02*
X668695Y646998D01*
X665363D01*
X663697Y645332D01*
Y638668D01*
X665363Y637002D01*
X668695D01*
X670361Y638668D01*
X673693Y646998D02*
Y638668D01*
X675360Y637002D01*
X678692D01*
X680358Y638668D01*
Y646998D01*
X608698D02*
X605366D01*
X603700Y645332D01*
Y638668D01*
X605366Y637002D01*
X608698D01*
X610364Y638668D01*
Y645332D01*
X608698Y646998D01*
X613697Y637002D02*
Y646998D01*
X620361Y637002D01*
Y646998D01*
X138507Y54598D02*
Y47934D01*
X141840Y44602D01*
X145172Y47934D01*
Y54598D01*
X155169Y52932D02*
X153502Y54598D01*
X150170D01*
X148504Y52932D01*
Y46268D01*
X150170Y44602D01*
X153502D01*
X155169Y46268D01*
Y49600D01*
X151836D01*
X158501Y44602D02*
Y54598D01*
X163499D01*
X165165Y52932D01*
Y49600D01*
X163499Y47934D01*
X158501D01*
X168498Y54598D02*
X171830D01*
X170164D01*
Y44602D01*
X168498D01*
X171830D01*
X181827Y54598D02*
X178494D01*
X176828Y52932D01*
Y46268D01*
X178494Y44602D01*
X181827D01*
X183493Y46268D01*
Y52932D01*
X181827Y54598D01*
X141004Y19202D02*
X144336D01*
X142670D01*
Y29198D01*
X141004Y27532D01*
X149335Y29198D02*
Y22534D01*
X152667Y19202D01*
X155999Y22534D01*
Y29198D01*
X159332Y27532D02*
X160998Y29198D01*
X164330D01*
X165996Y27532D01*
Y25866D01*
X164330Y24200D01*
X165996Y22534D01*
Y20868D01*
X164330Y19202D01*
X160998D01*
X159332Y20868D01*
Y22534D01*
X160998Y24200D01*
X159332Y25866D01*
Y27532D01*
X160998Y24200D02*
X164330D01*
X338296Y135967D02*
Y125970D01*
X344961D01*
X354957Y135967D02*
X348293D01*
Y125970D01*
X354957D01*
X348293Y130968D02*
X351625D01*
X358290Y135967D02*
Y125970D01*
X363288D01*
X364954Y127636D01*
Y134301D01*
X363288Y135967D01*
X358290D01*
X368286Y134301D02*
X369953Y135967D01*
X373285D01*
X374951Y134301D01*
Y127636D01*
X373285Y125970D01*
X369953D01*
X368286Y127636D01*
Y134301D01*
X668496Y135967D02*
Y125970D01*
X675161D01*
X685157Y135967D02*
X678493D01*
Y125970D01*
X685157D01*
X678493Y130968D02*
X681825D01*
X688490Y135967D02*
Y125970D01*
X693488D01*
X695154Y127636D01*
Y134301D01*
X693488Y135967D01*
X688490D01*
X705151D02*
X701819Y134301D01*
X698486Y130968D01*
Y127636D01*
X700153Y125970D01*
X703485D01*
X705151Y127636D01*
Y129302D01*
X703485Y130968D01*
X698486D01*
X558514Y135967D02*
Y125970D01*
X565178D01*
X575175Y135967D02*
X568511D01*
Y125970D01*
X575175D01*
X568511Y130968D02*
X571843D01*
X578508Y135967D02*
Y125970D01*
X583506D01*
X585172Y127636D01*
Y134301D01*
X583506Y135967D01*
X578508D01*
X595169Y125970D02*
X588504D01*
X595169Y132634D01*
Y134301D01*
X593503Y135967D01*
X590171D01*
X588504Y134301D01*
X450056Y135967D02*
Y125970D01*
X456721D01*
X466717Y135967D02*
X460053D01*
Y125970D01*
X466717D01*
X460053Y130968D02*
X463385D01*
X470050Y135967D02*
Y125970D01*
X475048D01*
X476714Y127636D01*
Y134301D01*
X475048Y135967D01*
X470050D01*
X480046Y125970D02*
X483379D01*
X481712D01*
Y135967D01*
X480046Y134301D01*
M02*
