M48
;Layer_Color=9474304
;FILE_FORMAT=4:4
METRIC,LZ
;TYPE=PLATED
T1F00S00C0.1000
T2F00S00C0.9000
T3F00S00C1.0000
;TYPE=NON_PLATED
T4F00S00C0.6500
T6F00S00C0.8000
T7F00S00C0.9000
T8F00S00C1.4000
%
T01
X00025Y00025
X0002Y000345
X0003625Y00042
X0005Y00025
X0006375Y000325
X0008Y000345
X00075Y00025
X001Y00025
X001Y00075
X00075Y00075
X0005Y00075
X00051Y000975
X00038Y000975
X00025Y000975
X00015Y0009
X0001Y0009
X0001Y00085
X00015Y00085
X00025Y00075
X000105Y000495
X000055Y000495
X001375Y0005
X001375Y001
X00093Y000975
X00078Y0013
X00073Y0013
X0015Y00125
X00175Y00125
X001625Y001
X00175Y00075
X0015Y00075
X001535Y0006
X001625Y0005
X001875Y0005
X002125Y0005
X002375Y0005
X002625Y0005
X002865Y000525
X002865Y000875
X00282Y00124
X00276Y00124
X0025Y00125
X002465Y001325
X00258Y00138
X00258Y00144
X00292Y00138
X00305Y00124
X0034125Y0011
X0036625Y0011
X00375Y00075
X004Y00075
X00425Y00075
X0045Y00075
X00475Y00075
X005Y00075
X005025Y0005
X005Y00025
X00525Y00025
X00475Y00025
X0045Y00025
X00425Y00025
X004Y00025
X00375Y00025
X0035Y00025
X00325Y00025
X003Y00025
X00275Y00025
X0025Y00025
X00225Y00025
X00225Y00015
X002Y00025
X00175Y00025
X0015Y00025
X002075Y00117
X00225Y00125
X0025Y00075
X00325Y00075
X0035Y00075
X003625Y0005
X003925Y0005
X004125Y0005
X00435Y0005
X004625Y0005
X0045125Y0011
X0047625Y0011
X005115Y001435
X004015Y001435
X00325Y0005
X00545Y0005
X005625Y0005
X005875Y0005
X006125Y0005
X006375Y0005
X00655Y0005
X0065Y00025
X00675Y00025
X007Y00025
X00725Y00025
X0075Y00025
X008Y00025
X00825Y00025
X0085Y00025
X00875Y00025
X008875Y0005
X008625Y0005
X00875Y00075
X009Y00075
X00925Y00075
X009375Y001
X009125Y001
X00857Y00106
X00857Y00091
X00825Y00075
X008125Y0005
X00821Y001115
X00725Y00125
X00732Y001435
X0069625Y0011
X006875Y001
X0067125Y0011
X006875Y0005
X007225Y0005
X00625Y00025
X006Y00025
X00575Y00025
X0055Y00025
X0056125Y0011
X0058625Y0011
X006215Y001435
X00938Y00137
X00925Y00025
X0095Y00025
X009585Y00019528
X009712Y00019528
X009839Y00019528
X010093Y00019528
X01025Y00025
X0104435Y00020028
X0105705Y00020028
X0106975Y00020028
X0108245Y00019528
X011134Y00022528
X01126Y00027
X01126Y00041
X01119Y00041
X011059Y00047028
X010974Y00040528
X010875Y0005
X010924Y00060528
X010974Y00064528
X011114Y00074528
X011254Y00074528
X01126Y00085
X011344Y00079528
X011374Y00059528
X01149Y000525
X011554Y00022528
X0118Y000165
X0118Y000315
X0119045Y00023
X012242Y000115
X012486Y000115
X012608Y0003
X01275Y00025
X013022Y00023
X01325Y00025
X013125Y0005
X012875Y0005
X013022Y000715
X01325Y00075
X01315Y0009
X01315Y00105
X01315Y0012
X013022Y00123
X01275Y00125
X012584Y001425
X012144Y001425
X0119545Y00113
X011927Y00095
X0119045Y000715
X01157Y00097
X01142Y00097
X01112Y00097
X01082Y00113
X01067Y00113
X01052Y00113
X010595Y00096
X0108245Y00075028
X01025Y00075
X01Y00075
X010375Y0005
X01009Y00134
X00984Y00129
X00971Y0012
X00959Y0011
X00943Y00142
X012875Y001
X01275Y00075
X012618Y000617
X013375Y0005
X013625Y0005
X013875Y0005
X014125Y0005
X01425Y00075
X014Y00075
X01375Y00075
X0135Y00075
X013625Y001
X013875Y001
X014125Y001
X01425Y00125
X014Y00125
X01375Y00125
X0135Y00125
X013375Y001
X0135Y00025
X01345Y0001
X01375Y00025
X014Y00025
X01425Y00025
X01461042Y00126
X014125Y0015
X013875Y0015
X013625Y0015
X013375Y0015
X0135Y00175
X0134475Y0019125
X013625Y002
X013875Y002
X014125Y002
X01425Y00225
X014Y00225
X01375Y00225
X0135Y00225
X0134475Y0023875
X013625Y0025
X013875Y0025
X014125Y0025
X01425Y00275
X014Y00275
X01375Y00275
X0135Y00275
X013625Y003
X013875Y003
X014125Y003
X014375Y003
X01442497Y00299999
X01444997Y00304999
X01439997Y00304999
X01434997Y00304999
X01437497Y00309999
X01442497Y00309999
X01444997Y00314999
X01439997Y00314999
X01434997Y00314999
X01434997Y00324999
X01437497Y00329999
X01442497Y00329999
X01441539Y003235
X01423499Y003235
X01404339Y003235
X01393374Y00341967
X01386834Y00341967
X01380364Y00341013
X01374624Y00337878
X01369884Y00333372
X01365259Y00328748
X01360635Y00324123
X0135601Y00319499
X01351386Y00314874
X01346761Y0031025
X01342137Y00305625
X01337513Y00301001
X013387Y00323212
X01343324Y00327836
X01347949Y00332461
X01352574Y00337085
X01357198Y0034171
X01361822Y00346334
X01366743Y00350642
X01372421Y00353888
X01378624Y00355959
X01385108Y00356816
X01391648Y00356833
X01404339Y003714
X01423499Y003714
X01434997Y00374999
X01441539Y00371865
X01444997Y00364999
X014125Y004
X013875Y004
X013625Y004
X01338Y004065
X0135Y00425
X01375Y00425
X014Y00425
X01425Y00425
X014125Y0045
X013875Y0045
X013625Y0045
X013375Y0045
X0135Y00475
X01375Y00475
X014Y00475
X01425Y00475
X01425Y00525
X014Y00525
X01375Y00525
X0135Y00525
X013625Y005
X013875Y005
X013375Y005
X01338Y003666
X013375Y0035
X0135Y00375
X01375Y00375
X01375Y00325
X01434997Y00294999
X01439997Y00294999
X01444997Y00294999
X01425Y00175
X014Y00175
X01375Y00175
X01541539Y004915
X01321Y004965
X01322Y0051725
X01322Y00527
X01298Y00527
X01298Y0051725
X01288Y0051
X01299Y004965
X013Y00475
X01325Y00475
X013125Y0045
X01325Y00425
X013Y00425
X01275Y00425
X0125Y00425
X01233Y0039
X01225Y00375
X012Y00375
X01189Y00396
X01184Y00401
X01184Y00416
X01189Y00411
X012125Y004
X012125Y0035
X01208901Y003415
X012139Y003375
X01218901Y003415
X012239Y003375
X01228901Y003415
X012339Y003375
X012451Y003375
X012375Y0035
X01281Y003506
X013085Y003505
X01299Y00363876
X012835Y00381
X01288Y0039
X01275Y00375
X01275Y00325
X013Y00325
X01325Y00325
X01334076Y00318587
X01329451Y00313963
X01324827Y00309338
X01320202Y00304714
X01315578Y00300089
X01310953Y00295465
X01306329Y0029084
X012955Y0028925
X01289Y00281299
X01289Y00274769
X012955Y0026875
X01302744Y00272095
X01308907Y00274285
X01314331Y00277939
X01319015Y00282503
X01323639Y00287127
X01328264Y00291752
X01332888Y00296376
X01325Y00275
X013125Y0025
X01310831Y0022676
X01317331Y00227479
X01323871Y00227479
X01330404Y0022717
X01333479Y00221398
X01333479Y00214858
X01333479Y00208318
X01330037Y00202757
X01323501Y00202521
X01316961Y00202521
X0131049Y00203467
X01305395Y00207567
X01298855Y00207567
X01292315Y00207551
X01285815Y00208271
X01279576Y00210232
X01273822Y00213341
X01268813Y00217545
X01264798Y00222708
X012625Y00228
X01276648Y0023191
X01274642Y00238135
X01274433Y00244671
X01274433Y00251211
X01274433Y00257751
X012765Y0026875
X012765Y0028925
X012648Y002885
X012554Y00285
X012514Y0028
X012514Y0027
X012554Y00265
X012514Y0026
X012554Y00255
X012514Y0025
X012514Y0024
X012451Y002225
X012339Y002225
X012189Y002225
X012039Y002225
X011939Y0022225
X011889Y002185
X011639Y002225
X01154Y00213
X01149Y00218
X011389Y002225
X01142Y00208
X011424Y001855
X011554Y00189876
X011574Y00164
X011234Y00164
X011189Y002225
X010877Y002225
X010877Y002288
X010814Y0025
X010814Y00265
X010814Y0028
X010774Y0029
X010814Y00295
X010774Y003
X010814Y00305
X010774Y0031
X010659Y003
X010659Y00287
X010509Y00287
X010509Y003
X010509Y00274
X010509Y00258
X010509Y00242
X010444Y002005
X0106Y002025
X01073Y002025
X01026Y00195501
X010125Y002
X00996Y00174
X0099Y00282
X00984Y00289
X009875Y003
X00977Y00303
X00971Y00296
X00959Y00275
X00959Y00268
X00953Y00261
X00948Y00254
X01025Y00275
X010125Y003
X01021Y003329
X01021Y003479
X01037Y003499
X0105Y003499
X010525Y00387
X010625Y0045
X010375Y0045
X010125Y0045
X01025Y00475
X0105Y00475
X01075Y00475
X01107Y00472
X01094Y004475
X01124Y00431
X011464Y00433
X011615Y00433
X01187Y00455
X01275Y00475
X01298Y0053975
X0132725Y00381
X012875Y003
X012648Y003035
X012554Y003
X012514Y00295
X012514Y0031
X012554Y00315
X012264Y00312
X012264Y00296
X012264Y0028
X012264Y00264
X012264Y00248
X012064Y00248
X012064Y00264
X012064Y0028
X012064Y00296
X012064Y00312
X011864Y00312
X011864Y00296
X011864Y0028
X011864Y00264
X011864Y00248
X011664Y00248
X011664Y00264
X011664Y0028
X011664Y00296
X011664Y00312
X011464Y00312
X011464Y00296
X011464Y0028
X011464Y00264
X011464Y00248
X011264Y00248
X011264Y00264
X011264Y0028
X011264Y00296
X011264Y00312
X011064Y00312
X011064Y00296
X011064Y0028
X011064Y00264
X011064Y00248
X011139Y003375
X011339Y003375
X011539Y003375
X011789Y003375
X011939Y003375
X01198901Y003415
X012039Y003375
X010877Y003375
X011Y00525
X01075Y00525
X010375Y005
X010125Y005
X009875Y005
X009625Y005
X00965Y0049
X0097Y00485
X00975Y00425
X012375Y002
X0125Y00175
X012625Y0015
X012875Y0015
X013Y00175
X0129725Y0019125
X01299387Y00222433
X01305927Y00222433
X01292847Y00222433
X01286398Y00223521
X01280748Y00226814
X0129725Y0023875
X01325Y00175
X012375Y0015
X00925Y00175
X00875Y00175
X007625Y0015
X0073375Y001565
X007065Y00171
X006875Y002
X006625Y002
X006375Y002
X006125Y002
X005875Y002
X005625Y002
X005965Y00169
X0062375Y001565
X006375Y0015
X006625Y0015
X006375Y0035
X006125Y0035
X005875Y0035
X005625Y0035
X00575Y00325
X0055Y00325
X005625Y004
X005875Y004
X006125Y004
X006375Y004
X006625Y004
X006875Y004
X007125Y004
X007375Y004
X007625Y004
X007875Y004
X00785061Y00381
X007716Y00374
X007462Y00367
X00725Y00375
X007Y00375
X007Y00425
X00725Y00425
X007375Y0045
X007125Y0045
X00725Y00475
X007Y00475
X007375Y005
X007625Y005
X007875Y005
X008125Y005
X008375Y005
X008625Y005
X008875Y005
X00875Y00525
X00925Y00525
X00926Y00535
X00925Y00475
X009375Y0045
X00925Y00425
X00875Y00425
X008875Y0045
X008625Y0045
X008375Y0045
X008125Y0045
X007875Y0045
X008Y00475
X00825Y00475
X00875Y00475
X00825Y00525
X008Y00525
X00725Y00525
X00675Y00525
X0065Y00525
X00625Y00525
X00825Y00425
X008478Y00388
X005375Y004
X005125Y004
X004875Y004
X004625Y004
X004375Y004
X004125Y004
X003875Y004
X003625Y004
X00375Y00425
X004Y00425
X004125Y0045
X003875Y0045
X003625Y0045
X003375Y0045
X003125Y0045
X00325Y00475
X0035Y00475
X00375Y00475
X004Y00475
X004125Y005
X003875Y005
X003625Y005
X003375Y005
X003125Y005
X002875Y005
X002625Y005
X00275Y00525
X003Y00525
X00325Y00525
X0035Y00525
X00375Y00525
X004Y00525
X00425Y00525
X0045Y00525
X00475Y00525
X005Y00525
X005125Y0035
X005375Y0035
X00525Y00325
X005Y00325
X00475Y00325
X0045Y00325
X00425Y00325
X004375Y0035
X004125Y0035
X00425Y00375
X0045Y00375
X004Y00375
X00375Y00375
X0035Y00425
X00325Y00425
X003Y00475
X00275Y00475
X002245Y004875
X00206Y0049
X00206Y0048
X00197Y00485
X00188Y0048
X00188Y0049
X0019925Y00508
X002055Y00508
X002Y00525
X00175Y00525
X0015Y00525
X001625Y005
X001625Y0045
X00182Y004425
X00195Y004425
X00208Y004425
X002125Y0045
X00208Y004575
X00221Y004575
X00195Y004575
X0015Y00425
X001625Y004
X00176Y003985
X00176Y003835
X00189Y003835
X00205Y003735
X00231Y003585
X002375Y0035
X00226Y003275
X00197Y00325
X00197Y00315
X00188Y0032
X00179Y00315
X00179Y00325
X001755Y00343
X001805Y00297
X0020815Y002905
X0019925Y002815
X0019925Y002665
X001875Y0025
X00182Y002335
X00182Y002185
X00175Y00225
X00208Y00224
X00212Y002125
X00212Y001725
X00199Y001725
X00175Y00175
X00157Y001935
X001625Y0025
X00233Y0024
X0025Y00225
X00285Y00223
X003125Y002
X003Y00175
X00278Y00171
X00272Y00171
X00282Y00166
X00297Y00148
X00258Y00152
X002465Y001475
X0025Y00281
X00233Y002855
X002375Y003
X0026Y003105
X00281Y003125
X00294Y003125
X00294Y003275
X002875Y0035
X00275Y00375
X0025Y00375
X002375Y004
X0015Y00375
X00279Y002955
X00292Y002955
X00305Y002955
X00318Y002955
X00332Y002905
X00352Y00282
X00346Y00275
X00318Y00266
X00308Y00269
X00305Y002805
X00292Y002805
X00325Y00325
X003625Y003
X003765Y00169
X004015Y001565
X004125Y0015
X004375Y0015
X004375Y002
X004625Y002
X004875Y002
X005125Y002
X005375Y002
X005375Y0015
X0051375Y001565
X004865Y00169
X004125Y002
X0025Y00525
X001405Y00508
X001425Y00495
X001445Y00475
X001405Y00462
X001045Y004625
X00101Y004675
X001045Y004775
X00101Y004825
X00101Y004975
X001045Y005025
X00101Y005075
X00084Y00495
X000875Y0049
X000725Y005
X00069Y00505
X000725Y0051
X00069Y00515
X000725Y00475
X00069Y0047
X000725Y00465
X00069Y0046
X0005Y00475
X00025Y00475
X000375Y005
X00025Y00425
X000245Y00415
X000375Y004
X0005Y00375
X00075Y00375
X001Y00375
X00125Y00375
X00132Y004
X00116Y00427
X00125Y00437
X001125Y0035
X000875Y0035
X000625Y0035
X000375Y0035
X0005Y00325
X00025Y00325
X000375Y003
X000625Y003
X00075Y00275
X001Y00275
X00125Y00275
X001375Y0025
X001125Y0025
X000875Y0025
X000625Y0025
X000375Y0025
X0005Y00275
X00025Y00275
X00025Y00225
X0005Y00225
X00075Y00225
X00097876Y0023451
X00125Y00225
X001375Y002
X00125Y00175
X000995Y0017
X00081Y001875
X00025Y00375
X000235Y00548
X000485Y00548
X0005Y00575
X00075Y00575
X001Y00575
X001125Y006
X001375Y006
X00125Y00625
X001Y00625
X00075Y00625
X0005Y00625
X00025Y00625
X000375Y0065
X000625Y0065
X000875Y0065
X001125Y0065
X001375Y0065
X00125Y00675
X001Y00675
X00075Y00675
X0005Y00675
X00025Y00675
X000375Y006
X000625Y006
X000875Y006
X001125Y0055
X00025Y00575
X00175Y00575
X001875Y006
X002125Y006
X002375Y006
X002625Y006
X002875Y006
X003125Y006
X003375Y006
X003625Y006
X003875Y006
X004125Y006
X004375Y006
X004625Y006
X004875Y006
X005125Y006
X005375Y006
X00525Y00625
X005Y00625
X00475Y00625
X0045Y00625
X00425Y00625
X004Y00625
X00375Y00625
X0035Y00625
X00325Y00625
X003Y00625
X00275Y00625
X0025Y00625
X00225Y00625
X002Y00625
X00175Y00625
X0015Y00625
X001625Y0065
X001875Y0065
X002125Y0065
X002375Y0065
X002625Y0065
X002875Y0065
X003125Y0065
X003375Y0065
X003625Y0065
X003875Y0065
X004125Y0065
X004375Y0065
X004625Y0065
X004875Y0065
X005125Y0065
X005375Y0065
X00525Y00675
X005Y00675
X00475Y00675
X0045Y00675
X00425Y00675
X004Y00675
X00375Y00675
X0035Y00675
X00325Y00675
X003Y00675
X00275Y00675
X0025Y00675
X00225Y00675
X002Y00675
X00175Y00675
X0015Y00675
X001625Y006
X001875Y0055
X002125Y0055
X002375Y0055
X002625Y0055
X002875Y0055
X003125Y0055
X003375Y0055
X003625Y0055
X003875Y0055
X004125Y0055
X004375Y0055
X004625Y0055
X004875Y0055
X005125Y0055
X005Y00575
X00475Y00575
X0045Y00575
X00425Y00575
X004Y00575
X00375Y00575
X0035Y00575
X00325Y00575
X003Y00575
X00275Y00575
X0025Y00575
X005625Y006
X005875Y006
X006125Y006
X00633Y00586
X00625Y00575
X006375Y0055
X006125Y0055
X0066Y005535
X006755Y005545
X006875Y0055
X0071Y005535
X007375Y0055
X007625Y0055
X007875Y0055
X008125Y0055
X008375Y0055
X008625Y0055
X008875Y0055
X00898Y00575
X00875Y00575
X008875Y006
X008625Y006
X008375Y006
X008125Y006
X007875Y006
X007625Y006
X007375Y006
X00721Y00586
X00725Y00575
X007Y00575
X00675Y00575
X006755Y005815
X0066Y005805
X0066Y006075
X006755Y006085
X006875Y006
X0071Y006075
X00725Y00625
X0075Y00625
X007375Y0065
X007585Y006575
X007825Y00681
X00787Y00677
X007925Y00681
X008175Y00681
X008225Y00677
X008125Y00658
X008125Y0065
X008415Y006575
X0085Y00675
X00869Y006725
X00869Y006875
X008625Y0065
X008875Y0065
X00875Y00625
X00925Y00625
X00925Y00675
X00925Y00575
X00914Y0056
X00825Y00575
X008Y00575
X008Y00625
X00825Y00625
X00706876Y00643705
X006985Y00667
X006985Y00687
X006625Y0065
X006125Y0065
X005875Y0065
X006Y00675
X006Y00625
X00575Y00625
X0055Y00625
X0055Y00675
X00642Y006075
X009625Y006
X009875Y006
X01Y00625
X01025Y00625
X010375Y0065
X010125Y0065
X009875Y0065
X009625Y0065
X00975Y00625
X00975Y00575
X009875Y0055
X010125Y0055
X010375Y0055
X010625Y0055
X010875Y0055
X0107Y00595
X010625Y006
X010375Y006
X01025Y00575
X009625Y0055
X01Y00675
X010875Y0065
X011125Y0065
X011375Y0065
X011625Y0065
X011875Y0065
X012125Y0065
X012375Y0065
X012625Y0065
X012875Y0065
X01304Y00653
X01304Y006455
X01304Y00636
X01304Y006285
X01304Y00619
X01304Y006115
X01304Y00602
X01304Y005925
X01296246Y00589433
X01289706Y00589433
X01283165Y00589433
X01276626Y00589433
X01270086Y00589433
X01263546Y00589433
X01257005Y00589433
X01250465Y00589433
X01243925Y00589433
X01239371Y00594127
X01233163Y00594479
X01226623Y00594479
X01220093Y00594103
X01216456Y00588668
X01209916Y00588668
X01203376Y00588668
X01196836Y00588668
X01190386Y00589752
X01183876Y00589124
X01177Y00589
X01168Y00589
X01168Y00575
X0116875Y00567
X01177Y00575
X01188405Y00574121
X01194832Y00575332
X012Y00575
X01207912Y00575332
X01214452Y00575332
X01218997Y0057063
X01225442Y00569521
X01231982Y00569521
X0123852Y00569704
X01242893Y00574567
X01249433Y00574567
X01255973Y00574567
X01262513Y00574567
X01269053Y00574567
X01275592Y00574567
X01285624Y00572
X01298Y0057
X01298Y00549
X01285624Y00557
X012535Y0055825
X012375Y0055
X01206Y0055825
X011875Y0055
X011875Y006
X0117475Y00606
X01175Y00625
X012Y00625
X01225Y00625
X0125Y00625
X012535Y0060575
X012375Y006
X01206Y0060575
X0115Y00625
X01125Y00625
X011Y00625
X01075Y00625
X011125Y006
X012875Y006
X013125Y006
X01324Y00602
X01324Y005925
X01321Y00585
X01318Y00578
X0133Y00578
X01333Y00561
X01322Y005605
X01322Y00549
X01324Y006115
X01324Y00619
X01324Y006285
X01324Y00636
X01324Y006455
X01324Y00653
X01275Y00625
X0135Y00625
X01375Y00625
X014Y00625
X01425Y00625
X014125Y0065
X013875Y0065
X013625Y0065
X013375Y0065
X013375Y006
X013625Y006
X013875Y006
X014125Y006
X01425Y00575
X014Y00575
X01375Y00575
X0135Y00575
X013386Y005695
X013375Y0055
X013625Y0055
X013875Y0055
X014125Y0055
T02
X00121Y000242
X00121Y000496
X00121Y00075
X00121Y00107
X00121Y001324
X002Y000754
X002Y0005
X00767Y00043
X00767Y000684
X00767Y000176
X00838Y000206
X00838Y00046
X00904Y00047028
X00904Y00021628
X010916Y00387
X01117Y00387
X011424Y00387
X010525Y00533
X010271Y00533
X006697Y003825
X006443Y003825
X006189Y003825
X005935Y003825
X005681Y003825
X007462Y001795
X007716Y001795
X00797Y001795
X008224Y001795
X008478Y001795
X005427Y003825
X005173Y003825
X004919Y003825
X004665Y003825
X00125Y0057
X001504Y0057
X002Y0057
X002254Y0057
X005166Y00665
X00542Y00665
X005674Y00665
X006166Y00665
X00642Y00665
X006674Y00665
X010154Y00674
X010408Y00674
X010662Y00674
X010916Y00674
X01117Y00674
X011424Y00674
T03
X0001665Y004401
X0007615Y004437
X0007615Y005263
X0001665Y005299
T04
X0008865Y00521
T06
X011404Y00164
X01124Y00472
T07
X00905Y0068
X00973Y0068
T08
X00006Y002995
X00006Y003345
M30
